<svg width="683" height="700" viewBox="0 0 683 700" fill="none" xmlns="http://www.w3.org/2000/svg">
<rect x="683" width="233.001" height="227.343" transform="rotate(90 683 0)" fill="#7946A9"/>
<rect x="455.657" y="466.999" width="233.001" height="228.314" transform="rotate(90 455.657 466.999)" fill="#7946A9"/>
<rect x="683" y="233.001" width="233.997" height="227.343" transform="rotate(90 683 233.001)" fill="#561C8D"/>
<rect x="683" y="466.999" width="233.001" height="227.343" transform="rotate(90 683 466.999)" fill="#C296ED"/>
<rect x="227.343" width="233.001" height="227.343" transform="rotate(90 227.343 0)" fill="#7946A9"/>
<rect x="227.343" y="466.999" width="233.001" height="227.343" transform="rotate(90 227.343 466.999)" fill="#561C8D"/>
<rect x="227.343" y="233.001" width="233.997" height="227.343" transform="rotate(90 227.343 233.001)" fill="#C296ED"/>
<ellipse rx="57.8162" ry="57.5051" transform="matrix(0.615312 0.788284 -0.773301 0.634039 113.579 117.056)" fill="#C296ED"/>
<path d="M158.048 80.5951C148.613 68.5077 134.879 60.7567 119.868 59.0473C104.857 57.3379 89.7978 61.81 78.0039 71.4799C66.2101 81.1499 58.6473 95.2254 56.9794 110.61C55.3115 125.995 59.6751 141.429 69.1102 153.516L113.579 117.056L158.048 80.5951Z" fill="#602994"/>
<ellipse cx="569.086" cy="350.25" rx="58.2504" ry="56.8357" transform="rotate(90 569.086 350.25)" fill="#7946A9"/>
<ellipse cx="113.671" cy="116.5" rx="33.8549" ry="33.0327" transform="rotate(90 113.671 116.5)" fill="#7946A9"/>
<ellipse cx="302.152" cy="543.67" rx="33.8549" ry="33.0327" transform="rotate(90 302.152 543.67)" fill="#C296ED"/>
<ellipse cx="382.791" cy="623.329" rx="33.8549" ry="33.0327" transform="rotate(90 382.791 623.329)" fill="#420080"/>
<ellipse cx="382.791" cy="543.67" rx="33.8549" ry="33.0327" transform="rotate(90 382.791 543.67)" fill="#420080"/>
<ellipse cx="302.152" cy="623.329" rx="33.8549" ry="33.0327" transform="rotate(90 302.152 623.329)" fill="#420080"/>
<rect width="190.281" height="69.1931" transform="matrix(0.698362 0.715745 -0.698362 0.715745 527.71 490.269)" fill="#7946A9"/>
<rect x="683" width="116.501" height="113.671" transform="rotate(90 683 0)" fill="#C296ED"/>
<rect x="569.328" y="116.501" width="116.501" height="113.671" transform="rotate(90 569.328 116.501)" fill="#C296ED"/>
<rect x="455.582" width="233.461" height="227.791" transform="rotate(90 455.582 0)" fill="#C296ED"/>
<rect x="422.553" y="29.1826" width="175.096" height="36.4466" transform="rotate(90 422.553 29.1826)" fill="#7946A9"/>
<rect x="359.91" y="29.1826" width="175.096" height="36.4466" transform="rotate(90 359.91 29.1826)" fill="#7946A9"/>
<rect x="297.268" y="29.1826" width="175.096" height="36.4466" transform="rotate(90 297.268 29.1826)" fill="#7946A9"/>
<rect x="455.582" y="233.461" width="233.461" height="227.791" transform="rotate(90 455.582 233.461)" fill="#7946A9"/>
<path d="M398.065 301.165L457.74 466.631H338.39L398.065 301.165Z" fill="#C296ED"/>
<path d="M286.447 301.165L346.122 466.631H226.772L286.447 301.165Z" fill="#C296ED"/>
<rect x="151.562" y="543.67" width="75.6757" height="73.8378" transform="rotate(90 151.562 543.67)" fill="#7946A9"/>
<path d="M183.137 428.165C163.683 428.165 145.026 419.877 131.269 405.125C117.513 390.373 109.785 370.364 109.785 349.502C109.785 328.639 117.513 308.631 131.269 293.879C145.026 279.127 163.683 270.839 183.137 270.839L183.137 349.502L183.137 428.165Z" fill="#7946A9"/>
<path d="M97.6411 428.165C78.1869 428.165 59.5295 419.877 45.7734 405.125C32.0172 390.373 24.289 370.364 24.289 349.502C24.289 328.639 32.0172 308.631 45.7733 293.879C59.5295 279.127 78.1869 270.839 97.6411 270.839L97.6411 349.502L97.6411 428.165Z" fill="#7946A9"/>
<rect opacity="0.9" width="683" height="700" fill="#045890"/>
<path d="M229.264 464.162C229.264 464.162 186.925 434.012 174.736 382.692C162.547 331.372 181.151 269.146 216.434 237.713C251.716 206.28 315.224 227.449 343.451 253.751C371.676 280.052 371.676 280.052 371.676 280.052C371.676 280.052 398.619 294.806 433.902 293.523C469.185 292.24 500.617 340.353 508.957 378.202C517.296 416.05 497.41 466.086 497.41 466.086L229.264 464.162" fill="#599FDC"/>
<path d="M205.207 468.714C196.516 462.418 178.568 446.434 172.812 418.615C170.423 407.07 171.988 395.832 175.378 385.268C183.857 417.813 204.302 441.54 217.43 454.058H205.207V468.714ZM502.181 454.058H501.542C504.665 443.995 508.678 428.711 510.287 412.461C511.236 420.931 510.443 429.716 507.674 439.785C506.133 445.39 504.224 450.108 502.181 454.058V454.058ZM490.275 333.518C476.261 311.212 456.521 293.498 435.286 293.498C434.826 293.498 434.363 293.506 433.902 293.523C432.431 293.576 430.978 293.602 429.538 293.602C396.423 293.602 371.676 280.051 371.676 280.051C371.676 280.051 371.676 280.051 343.451 253.75C341.921 252.324 340.285 250.911 338.558 249.524C354.376 241.341 373.12 223.836 400.422 223.836C404.148 223.836 408.032 224.162 412.091 224.883C451.863 231.939 490.354 253.108 492.279 299.297C492.932 314.99 491.661 325.5 490.275 333.518" fill="#105692"/>
<path d="M501.542 454.058H446.222C451.595 439.778 457.574 419.681 455.809 404.501C452.75 378.2 438.065 353.182 408.082 333.937C396.72 326.643 378.856 321.285 359.417 320.13C360.604 312.887 360.657 305.249 360.29 301.22C359.649 294.164 356.281 288.39 356.281 288.39C356.281 288.39 349.949 284.799 341.855 284.799C339.405 284.799 336.794 285.128 334.149 285.985C322.762 289.673 318.753 307.314 320.036 316.616C320.402 319.267 321.064 321.545 321.94 323.546C302.342 328.645 284.3 339.462 272.857 358.313C256.057 385.993 257.124 415.079 261.633 435.646V454.058H217.43C204.302 441.539 183.857 417.813 175.378 385.267C182.913 361.788 199.467 341.635 201.679 328.804C204.887 310.201 197.83 287.107 227.339 269.145C256.848 251.183 309.451 257.598 329.338 253.108C332.323 252.433 335.381 251.167 338.558 249.523C340.285 250.911 341.921 252.324 343.451 253.749C371.676 280.051 371.676 280.051 371.676 280.051C371.676 280.051 396.423 293.601 429.537 293.601C430.978 293.601 432.431 293.575 433.902 293.522C434.363 293.506 434.826 293.497 435.286 293.497C456.521 293.497 476.261 311.212 490.275 333.517C487.583 349.096 484.462 355.268 494.202 371.785C503.168 386.987 508.817 399.346 510.287 412.46C508.678 428.71 504.665 443.995 501.542 454.058Z" fill="#105692"/>
<path d="M446.223 454.058H392.361C393.257 450.833 395.412 438.983 395.412 438.983C395.412 438.983 377.13 423.319 376.168 420.753C375.526 419.042 375.847 387.342 373.12 372.747C370.394 358.153 366.866 355.213 359.489 351.578C351.865 347.821 340.564 344.307 340.564 344.307C340.564 344.307 342.809 349.493 344.894 361.681C346.98 373.87 348.903 394.398 349.385 408.511C349.821 421.307 350.125 449 350.179 454.058H327.5C327.885 450.437 329.399 435.716 328.696 434.171C328.387 433.489 320.902 433.095 311.831 432.867V374.993C311.831 374.993 302.606 374.349 292.567 374.349C283.198 374.349 273.119 374.91 269.171 377.077C260.992 381.568 261.633 397.125 261.633 397.125V435.646C257.124 415.079 256.057 385.993 272.858 358.313C284.301 339.462 302.342 328.645 321.941 323.546C322.028 323.746 322.118 323.943 322.209 324.136C321.566 329.251 320.3 338.818 319.715 339.87C318.914 341.314 318.914 341.314 318.914 341.314L314.904 344.041C314.904 344.041 322.602 354.946 332.064 356.709C333.349 356.95 334.445 357.053 335.379 357.053C341.323 357.053 340.724 352.861 340.724 352.861L339.281 349.814L340.54 338.909C341.526 339.062 342.529 339.145 343.529 339.145C347.686 339.145 351.796 337.725 354.516 334.097C356.994 330.794 358.526 325.573 359.418 320.13C378.857 321.285 396.721 326.643 408.083 333.937C438.065 353.182 452.75 378.2 455.809 404.501C457.575 419.681 451.595 439.778 446.223 454.058" fill="#599FDC"/>
<path d="M482.737 372.801H448.148C446.009 372.801 444.272 371.065 444.272 368.925V351.658C444.272 349.518 446.009 347.782 448.148 347.782H482.737C484.877 347.782 486.612 349.518 486.612 351.658V368.925C486.612 371.065 484.877 372.801 482.737 372.801Z" fill="#599FDC"/>
<path d="M465.443 382.585L470.924 369.594H459.962L465.443 382.585Z" fill="#599FDC"/>
<path d="M465.312 355.996H475.212V357.444L480.066 354.645L475.212 351.847V353.296H465.312V355.996Z" fill="#084274"/>
<path d="M480.066 361.69H470.165V360.241L465.312 363.04L470.165 365.838V364.389H480.066V361.69" fill="white"/>
<path d="M459.234 364.236L458.763 364.408C458.763 364.408 457.294 362.731 456.531 360.904C455.769 359.078 455.742 356.847 455.742 356.847L456.087 356.703L453.993 351.692C453.62 351.983 453.264 352.359 452.977 352.845C451.792 354.847 451.909 357.92 453.101 360.922C454.293 363.923 455.567 366.6 457.893 368.284C459.265 369.278 460.441 369.451 461.354 369.307L459.234 364.236" fill="#084274"/>
<path d="M460.738 363.646L460.087 363.883L462.229 369.013C462.472 368.934 462.689 368.836 462.877 368.733C463.431 368.43 463.674 367.764 463.441 367.178L462.322 364.357C462.073 363.732 461.371 363.415 460.738 363.646Z" fill="#084274"/>
<path d="M455.63 350.814C455.366 350.908 455.079 351.037 454.791 351.207L456.929 356.324L457.648 356.023C458.273 355.763 458.575 355.051 458.329 354.421L457.205 351.536C456.961 350.91 456.262 350.585 455.63 350.814Z" fill="#084274"/>
<path d="M261.633 454.86V397.126C261.633 397.126 260.992 381.569 269.17 377.078C277.35 372.588 311.83 374.994 311.83 374.994V454.86H261.633" fill="#17558B"/>
<path d="M322.602 320.947C322.602 320.947 320.518 338.428 319.716 339.871C318.914 341.315 318.914 341.315 318.914 341.315L314.904 344.042C314.904 344.042 322.602 354.947 332.064 356.711C341.527 358.475 340.724 352.862 340.724 352.862L339.281 349.815L341.207 333.135C341.207 333.135 324.046 325.278 322.602 320.947" fill="#FFADAD"/>
<path d="M309.933 345.484L316.187 342.757C316.187 342.757 320.197 349.333 329.499 353.182C338.801 357.03 338.961 354.786 339.442 353.182C339.923 351.578 339.281 349.814 339.281 349.814L339.969 344.199L343.689 345.438L356.602 449.887L323.405 451.491L309.933 345.484" fill="white"/>
<path d="M340.563 344.308C340.563 344.308 342.809 349.494 344.893 361.683C346.979 373.872 348.903 394.399 349.385 408.512C349.865 422.625 350.187 454.86 350.187 454.86C350.187 454.86 391.563 454.86 392.045 454.86C392.525 454.86 395.412 438.984 395.412 438.984C395.412 438.984 377.129 423.32 376.167 420.754C375.526 419.043 375.847 387.343 373.12 372.748C370.393 358.154 366.866 355.214 359.489 351.579C351.864 347.822 340.563 344.308 340.563 344.308" fill="#1E65A3"/>
<path d="M362.375 436.483C362.161 436.483 361.987 436.31 361.987 436.096C361.987 434.949 361.783 418.658 361.587 402.903C361.389 387.146 361.186 370.853 361.186 369.701C361.186 369.486 361.359 369.313 361.573 369.313C361.787 369.313 361.961 369.486 361.961 369.701C361.961 370.847 362.165 387.138 362.361 402.893C362.558 418.65 362.762 434.944 362.762 436.096C362.762 436.31 362.589 436.483 362.375 436.483" fill="#788CBD"/>
<path d="M278.98 432.568L278.66 454.86H327.414C327.414 454.86 329.499 435.936 328.697 434.173C327.895 432.408 278.98 432.568 278.98 432.568" fill="#2269A6"/>
<path d="M340.062 343.054C337.945 342.277 335.227 340.992 333.241 339.39C329.76 336.584 327.531 333.242 326.086 329.963C327.694 331.792 329.474 333.374 331.262 334.899C333.527 336.831 336.926 338.348 340.54 338.91L340.062 343.054" fill="#945168"/>
<path d="M356.281 288.391C356.281 288.391 359.649 294.165 360.29 301.221C360.932 308.278 360.29 326.4 354.516 334.098C348.743 341.796 336.715 339.551 331.262 334.9C326.258 330.632 321.319 325.919 320.036 316.617C318.753 307.315 322.762 289.674 334.149 285.986C345.535 282.297 356.281 288.391 356.281 288.391Z" fill="#FFADAD"/>
<path d="M370.748 444.777C370.748 444.777 370.182 444.777 369.322 444.754C369.12 444.746 368.896 444.754 368.662 444.746C367.834 444.723 366.826 444.701 365.81 444.67C365.586 444.661 365.353 444.653 365.128 444.646C364.121 444.622 363.26 444.746 362.454 444.701H362.431C362.26 444.692 362.012 444.715 361.811 444.723C361.71 444.732 361.617 444.739 361.555 444.732C361.09 444.646 360.997 444.538 360.493 444.313C359.842 444.018 351.028 442.05 343.858 442.095C336.696 442.126 330.27 442.615 329.224 441.739C328.169 440.847 327.534 431.849 333.65 431.259L341.169 434.111C341.169 434.111 358.338 432.073 364.632 436.716C370.942 441.359 370.748 444.777 370.748 444.777" fill="#FFADAD"/>
<path d="M362.431 444.701C362.261 444.693 362.013 444.716 361.811 444.724C361.656 444.476 361.33 444.026 361.152 443.84C359.214 441.863 354.533 440.584 352.835 440.174C352.68 440.135 352.578 439.98 352.618 439.825C352.649 439.67 352.812 439.577 352.975 439.608C355.447 440.205 360.695 441.732 362.183 444.235C362.23 444.305 362.354 444.545 362.431 444.701" fill="#945168"/>
<path d="M365.813 444.669C365.588 444.664 365.356 444.657 365.131 444.644C363.015 440.785 359.553 439.678 355.275 438.302L355.021 438.217C354.875 438.168 354.786 438.003 354.837 437.849C354.886 437.703 355.044 437.614 355.205 437.664L355.451 437.748C359.974 439.2 363.615 440.366 365.813 444.669" fill="#945168"/>
<path d="M369.323 444.754C369.121 444.748 368.896 444.751 368.663 444.745C367.38 442.047 363.133 437.532 357.514 436.479C357.352 436.452 357.247 436.303 357.274 436.14C357.309 435.985 357.458 435.882 357.613 435.909C363.401 436.995 368.071 441.723 369.323 444.754Z" fill="#945168"/>
<path d="M323.884 308.679C323.884 308.679 327.413 306.994 329.899 302.264C332.385 297.533 332.064 293.283 332.064 293.283C332.064 293.283 336.554 292.561 343.29 294.566C350.025 296.57 358.044 299.297 364.78 295.448C371.516 291.598 371.516 285.424 368.228 282.859C364.546 279.984 357.243 281.735 357.243 281.735C357.243 281.735 360.049 279.009 358.526 277.406C357.002 275.802 351.469 277.887 351.469 277.887C351.469 277.887 344.733 272.514 331.984 273.155C319.234 273.797 313.139 282.698 312.418 292.641C311.696 302.585 315.305 312.527 315.305 312.527L323.884 308.679" fill="#084274"/>
<path d="M349.997 325.036C349.85 325.036 349.696 325.032 349.532 325.025C348.588 324.989 347.401 324.833 346.591 324.326C346.352 324.176 346.442 323.784 346.736 323.784C346.737 323.784 346.737 323.784 346.738 323.784C347.242 323.787 347.734 323.939 348.237 323.977C348.704 324.011 349.177 324.031 349.645 324.052C349.917 324.065 350.24 324.09 350.568 324.09C351.061 324.09 351.564 324.034 351.922 323.797C353.488 322.76 350.444 321.481 349.8 321.007C348.452 320.014 348.723 318.299 348.864 316.829C349.046 314.938 349.028 312.87 349.751 311.089C349.803 310.962 349.936 310.894 350.059 310.894C350.199 310.894 350.327 310.98 350.31 311.165C350.106 313.435 349.582 315.675 349.439 317.955C349.379 318.904 349.309 319.927 350.158 320.535C350.77 320.974 351.514 321.183 352.121 321.632C352.647 322.023 353.172 322.65 353.078 323.349C352.996 323.971 352.489 324.338 351.966 324.597C351.264 324.946 350.704 325.036 349.997 325.036" fill="#945168"/>
<path d="M356.307 316.421C356.068 317.772 355.085 318.728 354.11 318.556C353.137 318.384 352.541 317.148 352.78 315.797C353.02 314.445 354.003 313.488 354.977 313.66C355.951 313.832 356.547 315.069 356.307 316.421" fill="#084274"/>
<path d="M344.035 315.35C343.818 316.809 342.791 317.864 341.74 317.708C340.689 317.552 340.013 316.243 340.23 314.785C340.447 313.326 341.475 312.27 342.526 312.427C343.576 312.583 344.252 313.892 344.035 315.35" fill="#084274"/>
<path d="M353.45 310.848C354.199 310.975 354.956 310.845 355.711 310.899C355.894 310.911 356.073 310.938 356.255 310.956C356.383 310.968 356.014 310.917 356.194 310.947L356.309 310.966C356.404 310.983 356.498 311.003 356.591 311.025C356.752 311.065 356.908 311.125 357.069 311.161C357.216 311.193 357.379 311.227 357.526 311.22C357.609 311.209 357.69 311.198 357.773 311.186L357.617 311.215L357.924 311.182C358.355 311.081 358.62 310.583 358.5 310.168C358.465 310.049 358.412 309.94 358.336 309.842L358.238 309.717L358.328 309.821L358.229 309.689C358.186 309.618 358.13 309.56 358.058 309.518L357.876 309.38C357.678 309.242 357.417 309.161 357.181 309.101C356.734 308.985 356.264 308.926 355.804 308.924C355.345 308.921 354.892 308.97 354.439 309.032C354.039 309.087 353.594 309.224 353.269 309.465C353.019 309.652 352.864 309.891 352.908 310.219C352.944 310.49 353.158 310.799 353.45 310.848" fill="#084274"/>
<path d="M344.896 308.703C344.794 308.643 344.69 308.59 344.583 308.541C344.492 308.5 344.244 308.37 344.432 308.472L344.225 308.362C343.915 308.206 343.592 308.101 343.256 308.016C342.525 307.829 341.754 307.782 341.004 307.861C340.203 307.945 339.472 308.139 338.778 308.557C338.681 308.616 338.58 308.674 338.499 308.755C338.444 308.825 338.389 308.896 338.337 308.967L338.382 308.897C338.168 309.047 338.044 309.292 338.046 309.551C338.047 309.799 338.177 310.007 338.393 310.127C338.654 310.273 338.902 310.203 339.172 310.134C339.037 310.134 338.901 310.134 338.766 310.134C338.989 310.168 339.145 310.178 339.37 310.128C339.378 310.126 339.586 310.075 339.449 310.103C339.32 310.131 339.668 310.077 339.706 310.071C339.75 310.065 339.991 310.041 339.736 310.066L339.877 310.05C339.997 310.035 340.119 310.019 340.24 310.01C340.769 309.968 341.297 309.944 341.827 309.926C342.319 309.91 342.821 309.906 343.312 309.927C343.524 309.937 343.733 309.944 343.945 309.95C344.063 309.953 344.013 309.971 343.932 309.946L344.063 309.98C344.151 310.004 344.237 310.033 344.322 310.065C344.664 310.195 345.074 309.948 345.201 309.633C345.338 309.291 345.221 308.897 344.896 308.703" fill="#084274"/>
<path d="M348.703 330.997C349.44 329.517 350.778 328.433 352.326 327.735C350.983 327.599 344.638 327.011 343.038 327.92C341.244 328.938 343.369 333.027 347.078 333.232C347.468 333.254 347.822 333.222 348.159 333.17C348.189 332.423 348.361 331.684 348.703 330.997" fill="#084274"/>
<path d="M319.394 322.391C319.394 322.391 320.035 324.877 323.724 327.764C327.412 330.65 332.759 332.762 332.759 332.762L333.186 330.891C333.186 330.891 327.653 328.484 325.087 325.839C322.521 323.193 322.2 321.749 322.2 321.749L319.394 322.391" fill="#D6DCEB"/>
<path d="M333.828 329.505C336.797 329.367 338.454 331.715 338.661 333.233C338.868 334.752 337.441 336.455 334.104 334.959C329.96 333.101 330.86 329.643 333.828 329.505Z" fill="#084274"/>
<path d="M321.72 304.027C321.72 304.027 323.002 294.811 329.178 288.551C340.965 276.603 350.989 277.324 350.989 277.324C350.989 277.324 350.908 275.641 347.139 274.358C343.601 273.153 342.008 273.797 342.008 273.797C342.008 273.797 332.304 274.598 324.126 283.66C315.947 292.721 315.064 304.268 315.064 304.268L321.72 304.027" fill="#D6DCEB"/>
<path d="M320.838 302.904C313.116 301.596 308.81 307.636 308.489 313.73C308.168 319.824 312.597 324.457 318.512 323.993C331.824 322.952 330.3 304.509 320.838 302.904" fill="white"/>
<path d="M316.993 318.071C314.954 318.071 313.231 317.047 312.247 315.243C311.192 313.31 311.28 310.931 312.472 309.182C312.563 309.051 312.743 309.016 312.876 309.106C313.009 309.197 313.044 309.377 312.953 309.51C311.882 311.08 311.806 313.221 312.757 314.964C313.66 316.618 315.253 317.555 317.141 317.488C318.905 317.44 320.4 316.633 321.352 315.215C322.437 313.596 322.686 311.36 321.987 309.52C321.293 307.694 319.391 306.449 317.662 306.675C317.505 306.695 317.356 306.584 317.336 306.425C317.314 306.266 317.425 306.12 317.585 306.098C319.608 305.829 321.733 307.212 322.531 309.313C323.295 311.324 323.021 313.768 321.834 315.538C320.776 317.118 319.114 318.016 317.156 318.069L316.993 318.071" fill="#7588BB"/>
<path d="M311.376 343.239C311.376 343.239 287.962 349.012 279.782 358.314C271.603 367.615 267.754 413.483 267.594 421.982C267.434 430.483 273.367 434.011 276.896 436.416C280.424 438.822 295.98 443.152 308.489 443.794C320.998 444.435 332.867 443.794 332.867 443.794C332.867 443.794 332.826 441.067 334.75 437.057C336.535 433.339 338.8 432.567 338.8 432.567L328.055 428.718C328.055 428.718 326.174 395.004 323.244 378.682C319.876 359.917 311.376 343.239 311.376 343.239" fill="#1E65A3"/>
<path d="M350.187 423.332L350.03 423.299C349.834 423.212 349.745 422.983 349.832 422.788C352.027 417.838 354.299 408.121 355.58 401.303L355.684 400.752C356.072 398.747 356.554 396.253 355.592 394.532C355.102 393.653 353.994 391.748 352.928 389.916C351.822 388.015 350.777 386.218 350.487 385.682C349.923 384.635 351.701 381.839 354.275 378.002C354.97 376.965 355.571 376.07 355.922 375.464C356.839 373.876 356.228 372.422 355.521 370.738L355.281 370.159C354.64 368.584 353.91 367.008 353.206 365.483C352.919 364.861 352.63 364.237 352.347 363.609C351.97 362.781 351.592 361.937 351.21 361.085C348.943 356.032 346.6 350.809 343.598 345.762C343.489 345.578 343.55 345.34 343.733 345.231C343.918 345.122 344.155 345.182 344.265 345.366C347.288 350.451 349.641 355.695 351.916 360.767C352.299 361.62 352.676 362.461 353.052 363.29C353.336 363.915 353.623 364.537 353.909 365.158C354.618 366.691 355.35 368.276 355.998 369.866L356.236 370.438C356.957 372.155 357.703 373.931 356.592 375.851C356.229 376.481 355.622 377.386 354.919 378.433C353.577 380.434 350.783 384.598 351.169 385.313C351.453 385.839 352.495 387.63 353.598 389.526C354.666 391.363 355.777 393.273 356.269 394.153C357.37 396.122 356.857 398.771 356.446 400.899L356.341 401.446C355.874 403.929 353.405 416.64 350.541 423.101C350.477 423.247 350.335 423.332 350.187 423.332" fill="#788CBD"/>
<path d="M327.333 424.695C327.233 424.695 327.133 424.657 327.058 424.581C325.235 422.744 316.447 407.527 315.793 404.666C315.435 403.099 316.334 399.126 317.203 395.282C317.877 392.305 318.574 389.226 318.375 388.393C318.079 387.147 315.832 385.311 313.659 383.536C311.033 381.392 308.319 379.173 307.793 377.176C307.196 374.905 307.706 360.692 308.044 351.287C308.166 347.905 308.262 345.234 308.261 344.281C308.261 344.067 308.435 343.893 308.649 343.893C308.863 343.893 309.037 344.066 309.037 344.28C309.037 345.248 308.941 347.925 308.819 351.315C308.503 360.106 307.975 374.818 308.543 376.979C309.005 378.732 311.738 380.966 314.149 382.936C316.528 384.878 318.773 386.713 319.13 388.214C319.369 389.222 318.716 392.11 317.959 395.453C317.148 399.036 316.23 403.097 316.548 404.493C317.19 407.299 325.818 422.231 327.608 424.034C327.759 424.187 327.758 424.432 327.606 424.582C327.53 424.657 327.431 424.695 327.333 424.695" fill="#788CBD"/>
<path d="M295.82 418.041L295.766 418.037C295.553 418.007 295.406 417.811 295.435 417.599C295.72 415.583 300.169 375.431 300.373 372.356C300.388 372.141 300.572 371.973 300.786 371.994C300.999 372.008 301.161 372.194 301.147 372.407C300.942 375.487 296.488 415.689 296.203 417.708C296.176 417.901 296.01 418.041 295.82 418.041" fill="#788CBD"/>
<path d="M327.734 428.945L327.589 428.917C326.603 428.518 322.247 427.049 316.733 425.19C305.603 421.436 290.36 416.296 287.462 414.79C287.272 414.691 287.198 414.457 287.297 414.267C287.395 414.076 287.628 414.001 287.819 414.102C290.665 415.58 306.502 420.921 316.981 424.454C322.508 426.319 326.872 427.79 327.88 428.199C328.078 428.279 328.174 428.505 328.093 428.703C328.032 428.854 327.887 428.945 327.734 428.945" fill="#788CBD"/>
<path d="M322.381 444.934C312.587 444.934 293.597 443.168 279.172 438.066C278.969 437.994 278.864 437.773 278.935 437.57C279.006 437.37 279.23 437.264 279.43 437.335C297.654 443.781 323.147 444.882 327.89 443.817C328.098 443.772 328.305 443.902 328.352 444.11C328.4 444.319 328.268 444.527 328.059 444.574C327.032 444.803 325.047 444.934 322.381 444.934" fill="#788CBD"/>
<path d="M210.27 348.647C213.311 351.321 217.163 353.036 219.831 356.129C220.881 357.346 221.824 358.641 222.799 359.917C223.509 360.846 225.402 362.386 225.709 363.553C225.845 364.067 225.816 363.371 225.68 362.855L225.657 362.791C225.391 360.428 225.2 358.055 225.117 355.678C225.034 353.306 225.182 350.926 225.033 348.559C224.824 345.219 223.781 341.985 221.051 339.893C219.717 338.869 218.002 338.247 216.775 337.112C215.611 336.035 216.078 334.801 216.763 333.599C217.403 332.474 218.18 331.37 218.429 330.075C218.713 328.604 218.16 327.086 217.414 325.834C215.826 323.167 212.304 320.195 208.968 320.593C206.186 320.926 205.871 324.135 205.911 326.37C205.95 328.544 206.165 330.71 206.185 332.885C206.207 335.119 205.827 337.311 205.795 339.535C205.741 343.319 207.489 346.201 210.27 348.647" fill="#60A6DF"/>
<path d="M238.523 383.36C239.37 381.341 240.341 379.453 241.535 377.617C243.174 375.098 244.992 372.643 246.092 369.821C247.216 366.941 247.051 363.861 247.161 360.827C247.242 358.598 247.905 356.375 247.726 354.14C247.64 353.068 247.023 351.334 245.636 351.512C244.557 351.65 243.916 352.988 243.501 353.841C242.777 355.331 242.276 356.92 241.738 358.483C241.528 359.094 241.328 359.717 241.063 360.307C240.908 360.65 240.418 361.487 239.955 361.373C239.167 361.179 239.882 357.961 239.999 357.391C240.587 354.529 241.473 351.87 241.597 348.925C241.775 344.656 241.443 339.573 237.267 337.238C236.175 336.628 234.792 336.265 233.755 337.178C232.732 338.078 232.443 339.639 232.291 340.923C231.825 344.866 232.753 348.6 234.017 352.31C235.06 355.374 236.303 358.535 236.394 361.81C236.481 364.964 234.84 367.758 234.071 370.737C232.844 375.484 233.097 378.001 233.092 379.538C233.083 381.464 233.154 383.369 233.294 385.289C233.424 387.054 233.577 388.82 233.792 390.577C233.837 390.933 233.877 391.304 233.924 391.675C233.246 390.042 233.009 388.171 232.447 386.53C231.449 383.613 230.29 380.756 229.332 377.824C228.54 375.402 227.793 372.963 226.747 370.635C225.767 368.449 224.584 366.14 222.755 364.537C221.65 363.568 220.31 363.002 218.832 363.013C217.887 363.02 217.037 363.347 216.134 363.586C215.023 363.88 214.149 363.778 213.235 363.076C210.242 360.776 209.332 356.651 207.116 353.738C205.464 351.565 201.543 347.862 198.66 350.231C197.13 351.488 196.708 353.916 196.789 355.778C196.889 358.114 197.91 360.25 199.126 362.203C200.419 364.28 202.088 366.14 203.276 368.275C203.978 369.536 204.088 370.745 203.977 372.168C203.872 373.508 203.755 374.806 204.211 376.099C205.583 379.982 209.868 379.44 213.2 379.542C215.531 379.612 218.032 379.96 220.246 380.705C222.804 381.566 224.468 383.231 225.383 385.762C226.044 387.593 226.398 389.672 227.645 391.228C228.231 391.96 229.007 392.5 229.86 392.877C231.159 393.451 235.121 393.702 235.151 393.34C235.248 392.129 235.823 390.85 236.182 389.701C236.857 387.545 237.65 385.442 238.523 383.36" fill="#60A6DF"/>
<path d="M256.918 382.627C256.573 380.407 256.639 377.961 255.588 375.922C255.513 375.777 255.314 375.739 255.179 375.815C254.425 376.232 254.394 377.449 254.332 378.195C254.231 379.432 254.307 380.673 254.154 381.907C253.887 384.074 253.386 386.308 252.605 388.35C251.722 390.662 250.115 391.972 247.782 392.693C246.283 393.156 244.813 393.56 243.561 394.555C242.441 395.446 241.662 396.675 241.085 397.968C239.528 401.462 238.786 405.367 238.063 409.099C237.577 411.612 237.18 414.137 236.57 416.625C235.96 419.111 235.305 421.585 234.956 424.125C234.897 424.253 234.834 424.38 234.78 424.509C234.62 424.889 235.214 425.095 235.419 424.778C237.828 421.071 240.762 417.743 244.765 415.701C246.572 414.78 248.974 414.588 250.481 413.139C251.628 412.037 251.786 410.355 251.614 408.856C251.389 406.886 250.446 405.266 249.462 403.587C248.922 402.665 248.284 401.677 248.502 400.557C248.708 399.499 249.587 398.723 250.459 398.181C252.123 397.147 254.069 396.682 255.431 395.193C256.697 393.81 257.399 392.09 257.539 390.226C257.726 387.743 257.298 385.08 256.918 382.627" fill="#60A6DF"/>
<path d="M224.078 395.428C221.953 392.69 219.388 390.329 216.502 388.412C214.962 387.39 211.329 385.372 210.596 388.389C210.166 390.157 211.896 391.896 213.035 393.005C214.746 394.67 216.726 396.108 218.17 398.028C216.382 398.597 214.514 398.709 212.96 399.945C211.121 401.409 210.296 404.235 212.12 406.028C213.008 406.901 214.187 407.438 215.294 407.974C216.732 408.67 218.197 409.302 219.672 409.918C222.856 411.248 226.08 412.597 228.796 414.776C231.563 416.996 234.165 420.75 234.385 424.372C234.406 424.718 234.275 424.403 234.481 424.245C234.594 424.347 234.974 424.165 234.971 423.963C234.915 418.588 233.949 413.47 231.752 408.546C229.717 403.981 227.148 399.383 224.078 395.428" fill="#60A6DF"/>
<path d="M216.738 345.389C217.911 347.823 219.137 350.201 220.438 352.573C221.691 354.858 222.943 357.125 223.88 359.562C225.034 362.563 226.244 365.518 227.464 368.492C228.732 371.584 229.865 374.734 230.775 377.949C232.55 384.227 233.868 390.689 234.52 397.181C234.852 400.483 235.002 403.805 234.912 407.122C234.84 409.715 234.548 412.279 234.305 414.858C234.051 417.541 233.868 420.257 234.093 422.949C234.281 425.2 234.639 427.876 236.386 429.482C236.727 429.797 237.211 429.405 237.013 428.999C234.937 424.742 235.053 420.1 235.45 415.484C235.67 412.935 235.974 410.401 236.06 407.843C236.169 404.588 236.041 401.327 235.735 398.085C235.133 391.713 233.862 385.416 232.214 379.237C231.368 376.069 230.323 372.962 229.118 369.911C227.91 366.855 226.515 363.882 225.345 360.81C223.229 355.254 220.003 350.328 217.146 345.151C216.997 344.882 216.608 345.119 216.738 345.389" fill="#3E579E"/>
<path d="M234.615 390.816C234.951 386.77 235.309 382.875 236.673 379.015C237.309 377.215 238.08 375.465 238.694 373.658C239.201 372.164 239.96 370.116 239.569 368.529C239.525 368.351 239.267 368.361 239.219 368.529C238.957 369.436 238.986 370.43 238.798 371.36C238.615 372.264 238.37 373.154 238.089 374.033C237.491 375.903 236.709 377.694 236.031 379.534C234.723 383.089 234.051 387.027 234.337 390.816C234.35 390.995 234.6 390.995 234.615 390.816" fill="#3E579E"/>
<path d="M211.171 367.566C212.777 371.446 217.605 371.67 221.121 372.539C223.632 373.159 225.485 374.834 226.816 377.008C228.273 379.387 229.258 382.18 230.068 384.835L230.116 384.823C229.132 380.172 227.723 374.574 222.929 372.41C219.088 370.676 214.026 371.547 211.57 367.398C211.449 367.194 211.074 367.331 211.171 367.566" fill="#3E579E"/>
<path d="M232.077 390.202C232.269 390.46 232.444 390.73 232.641 390.983C232.738 391.108 232.838 391.226 232.961 391.327C233.087 391.43 233.234 391.558 233.407 391.555C233.479 391.553 233.53 391.473 233.491 391.409C233.412 391.279 233.269 391.201 233.157 391.103C233.041 391.001 232.924 390.901 232.813 390.797C232.588 390.584 232.383 390.353 232.163 390.136L232.077 390.202" fill="#3E579E"/>
<path d="M222.034 402.51C224.805 404.783 227.36 407.474 229.391 410.422C230.361 411.831 231.257 413.322 232.069 414.828C232.957 416.472 233.539 418.21 234.234 419.935C234.287 420.066 234.527 420.069 234.508 419.899C234.124 416.25 231.813 413.122 229.962 410.087C229.001 408.51 227.805 407.239 226.52 405.924C225.193 404.566 223.841 403.282 222.285 402.187C222.095 402.053 221.854 402.361 222.034 402.51" fill="#3E579E"/>
<path d="M244.092 398.214C242.758 398.97 242.715 401.078 242.688 402.423C242.638 405.008 243.278 407.436 242.143 409.899C241.119 412.125 239.482 413.983 238.195 416.049C236.99 417.983 235.801 420.456 235.828 422.785C235.829 422.919 236.035 422.996 236.098 422.858C236.583 421.801 236.758 420.6 237.106 419.493C237.496 418.247 238.042 417.116 238.749 416.021C239.988 414.101 241.508 412.354 242.513 410.29C243.572 408.114 243.417 405.959 243.346 403.602C243.302 402.099 243.152 399.684 244.363 398.566C244.554 398.391 244.311 398.091 244.092 398.214Z" fill="#3E579E"/>
<path d="M235.171 423.025C229.797 422.95 219.561 422.891 219.561 422.891L222.094 441.698C222.663 445.929 226.275 449.086 230.543 449.086H234.957H235.384H239.797C244.067 449.086 247.678 445.929 248.248 441.698L250.781 422.891C250.781 422.891 240.544 422.95 235.171 423.025Z" fill="white"/>
<path d="M494.924 388.464L464.265 449.192L374.884 449.835L402.468 387.609L494.924 388.464Z" fill="#F5F6F9"/>
<path d="M315.562 449.456L315.58 444.596H373.441L400.063 386.219H492.599L494.925 388.465H404.527L376.862 449.407C376.862 449.407 315.562 449.296 315.562 449.456" fill="#D1D8E8"/>
<path d="M448.51 421.976C447.5 425.005 442.02 427.345 436.269 427.201C430.518 427.057 426.675 424.485 427.684 421.455C428.694 418.427 434.175 416.087 439.925 416.232C445.676 416.376 449.52 418.948 448.51 421.976" fill="#D1D8E8"/>
<path d="M376.863 449.795L376.702 449.76C376.508 449.672 376.421 449.442 376.509 449.247L404.277 388.077H494.925C495.14 388.077 495.313 388.25 495.313 388.465C495.313 388.679 495.14 388.852 494.925 388.852H404.776L377.215 449.568C377.151 449.71 377.009 449.795 376.863 449.795" fill="white"/>
<path d="M205.208 477.632H311.536V454.057H205.208V477.632Z" fill="#357FC0"/>
<path d="M310.929 477.632H502.234V454.057H310.929V477.632Z" fill="#599FDC"/>
<path d="M205.208 458.389H310.928V454.059H205.208V458.389Z" fill="#17558B"/>
<path d="M502.234 458.389H310.929V454.059H502.234V458.389Z" fill="#17558B"/>
<path d="M316.186 455.181H200.075V449.407H316.186V455.181Z" fill="#357FC0"/>
<path d="M506.885 455.181H315.58V449.407H506.885V455.181Z" fill="#599FDC"/>
<path d="M284.691 325.717H247.155C244.832 325.717 242.949 323.834 242.949 321.511V302.772C242.949 300.449 244.832 298.566 247.155 298.566H284.691C287.013 298.566 288.897 300.449 288.897 302.772V321.511C288.897 323.834 287.013 325.717 284.691 325.717Z" fill="white"/>
<path d="M299.595 312.141L285.497 306.193V318.09L299.595 312.141Z" fill="white"/>
<path d="M259.615 312.141C259.615 313.575 258.453 314.737 257.019 314.737C255.585 314.737 254.422 313.575 254.422 312.141C254.422 310.707 255.585 309.545 257.019 309.545C258.453 309.545 259.615 310.707 259.615 312.141Z" fill="#084274"/>
<path d="M268.52 312.141C268.52 313.575 267.357 314.737 265.923 314.737C264.489 314.737 263.326 313.575 263.326 312.141C263.326 310.707 264.489 309.545 265.923 309.545C267.357 309.545 268.52 310.707 268.52 312.141Z" fill="#084274"/>
<path d="M277.425 312.141C277.425 313.575 276.262 314.737 274.828 314.737C273.394 314.737 272.231 313.575 272.231 312.141C272.231 310.707 273.394 309.545 274.828 309.545C276.262 309.545 277.425 310.707 277.425 312.141Z" fill="#084274"/>
<path d="M475.787 240.92H389.132C383.566 240.92 379.055 245.431 379.055 250.996V292.106C379.055 297.671 383.566 302.183 389.132 302.183H396.899C397.117 305.909 396.583 311.453 393.471 318.541C403.483 313.923 409.248 306.988 412.26 302.183H475.787C481.352 302.183 485.864 297.671 485.864 292.106V250.996C485.864 245.431 481.352 240.92 475.787 240.92Z" fill="#599FDC"/>
<path d="M438.82 260.513H395.84C394.659 260.513 393.701 259.555 393.701 258.375C393.701 257.194 394.659 256.236 395.84 256.236H438.82C440.001 256.236 440.959 257.194 440.959 258.375C440.959 259.555 440.001 260.513 438.82 260.513Z" fill="white"/>
<path d="M469.639 272.968H395.011C394.288 272.968 393.701 272.382 393.701 271.659C393.701 270.935 394.288 270.349 395.011 270.349H469.639C470.362 270.349 470.949 270.935 470.949 271.659C470.949 272.382 470.362 272.968 469.639 272.968Z" fill="#C3E4F7"/>
<path d="M469.639 280.239H395.011C394.288 280.239 393.701 279.652 393.701 278.929C393.701 278.206 394.288 277.619 395.011 277.619H469.639C470.362 277.619 470.949 278.206 470.949 278.929C470.949 279.652 470.362 280.239 469.639 280.239Z" fill="#C3E4F7"/>
<path d="M453.359 287.99H395.011C394.288 287.99 393.701 287.403 393.701 286.68C393.701 285.957 394.288 285.37 395.011 285.37H453.359C454.083 285.37 454.67 285.957 454.67 286.68C454.67 287.403 454.083 287.99 453.359 287.99" fill="#C3E4F7"/>
<path d="M469.053 260.513H448.55C447.369 260.513 446.411 259.555 446.411 258.375C446.411 257.194 447.369 256.236 448.55 256.236H469.053C470.234 256.236 471.191 257.194 471.191 258.375C471.191 259.555 470.234 260.513 469.053 260.513Z" fill="white"/>
<path d="M315.144 141.04V143.3H311.424V155H308.624V143.3H304.904V141.04H315.144ZM327.487 149.22C327.487 149.62 327.46 149.98 327.407 150.3H319.307C319.373 151.1 319.653 151.727 320.147 152.18C320.64 152.633 321.247 152.86 321.967 152.86C323.007 152.86 323.747 152.413 324.187 151.52H327.207C326.887 152.587 326.273 153.467 325.367 154.16C324.46 154.84 323.347 155.18 322.027 155.18C320.96 155.18 320 154.947 319.147 154.48C318.307 154 317.647 153.327 317.167 152.46C316.7 151.593 316.467 150.593 316.467 149.46C316.467 148.313 316.7 147.307 317.167 146.44C317.633 145.573 318.287 144.907 319.127 144.44C319.967 143.973 320.933 143.74 322.027 143.74C323.08 143.74 324.02 143.967 324.847 144.42C325.687 144.873 326.333 145.52 326.787 146.36C327.253 147.187 327.487 148.14 327.487 149.22ZM324.587 148.42C324.573 147.7 324.313 147.127 323.807 146.7C323.3 146.26 322.68 146.04 321.947 146.04C321.253 146.04 320.667 146.253 320.187 146.68C319.72 147.093 319.433 147.673 319.327 148.42H324.587ZM332.33 140.2V155H329.53V140.2H332.33ZM345.397 149.22C345.397 149.62 345.37 149.98 345.317 150.3H337.217C337.283 151.1 337.563 151.727 338.057 152.18C338.55 152.633 339.157 152.86 339.877 152.86C340.917 152.86 341.657 152.413 342.097 151.52H345.117C344.797 152.587 344.183 153.467 343.277 154.16C342.37 154.84 341.257 155.18 339.937 155.18C338.87 155.18 337.91 154.947 337.057 154.48C336.217 154 335.557 153.327 335.077 152.46C334.61 151.593 334.377 150.593 334.377 149.46C334.377 148.313 334.61 147.307 335.077 146.44C335.543 145.573 336.197 144.907 337.037 144.44C337.877 143.973 338.843 143.74 339.937 143.74C340.99 143.74 341.93 143.967 342.757 144.42C343.597 144.873 344.243 145.52 344.697 146.36C345.163 147.187 345.397 148.14 345.397 149.22ZM342.497 148.42C342.483 147.7 342.223 147.127 341.717 146.7C341.21 146.26 340.59 146.04 339.857 146.04C339.163 146.04 338.577 146.253 338.097 146.68C337.63 147.093 337.343 147.673 337.237 148.42H342.497ZM351.781 143.74C352.607 143.74 353.334 143.907 353.961 144.24C354.587 144.56 355.081 144.98 355.441 145.5V143.92H358.261V155.08C358.261 156.107 358.054 157.02 357.641 157.82C357.227 158.633 356.607 159.273 355.781 159.74C354.954 160.22 353.954 160.46 352.781 160.46C351.207 160.46 349.914 160.093 348.901 159.36C347.901 158.627 347.334 157.627 347.201 156.36H349.981C350.127 156.867 350.441 157.267 350.921 157.56C351.414 157.867 352.007 158.02 352.701 158.02C353.514 158.02 354.174 157.773 354.681 157.28C355.187 156.8 355.441 156.067 355.441 155.08V153.36C355.081 153.88 354.581 154.313 353.941 154.66C353.314 155.007 352.594 155.18 351.781 155.18C350.847 155.18 349.994 154.94 349.221 154.46C348.447 153.98 347.834 153.307 347.381 152.44C346.941 151.56 346.721 150.553 346.721 149.42C346.721 148.3 346.941 147.307 347.381 146.44C347.834 145.573 348.441 144.907 349.201 144.44C349.974 143.973 350.834 143.74 351.781 143.74ZM355.441 149.46C355.441 148.78 355.307 148.2 355.041 147.72C354.774 147.227 354.414 146.853 353.961 146.6C353.507 146.333 353.021 146.2 352.501 146.2C351.981 146.2 351.501 146.327 351.061 146.58C350.621 146.833 350.261 147.207 349.981 147.7C349.714 148.18 349.581 148.753 349.581 149.42C349.581 150.087 349.714 150.673 349.981 151.18C350.261 151.673 350.621 152.053 351.061 152.32C351.514 152.587 351.994 152.72 352.501 152.72C353.021 152.72 353.507 152.593 353.961 152.34C354.414 152.073 354.774 151.7 355.041 151.22C355.307 150.727 355.441 150.14 355.441 149.46ZM362.415 142.6C361.922 142.6 361.509 142.447 361.175 142.14C360.855 141.82 360.695 141.427 360.695 140.96C360.695 140.493 360.855 140.107 361.175 139.8C361.509 139.48 361.922 139.32 362.415 139.32C362.909 139.32 363.315 139.48 363.635 139.8C363.969 140.107 364.135 140.493 364.135 140.96C364.135 141.427 363.969 141.82 363.635 142.14C363.315 142.447 362.909 142.6 362.415 142.6ZM363.795 143.92V155H360.995V143.92H363.795ZM370.902 143.74C371.728 143.74 372.455 143.907 373.082 144.24C373.708 144.56 374.202 144.98 374.562 145.5V143.92H377.382V155.08C377.382 156.107 377.175 157.02 376.762 157.82C376.348 158.633 375.728 159.273 374.902 159.74C374.075 160.22 373.075 160.46 371.902 160.46C370.328 160.46 369.035 160.093 368.022 159.36C367.022 158.627 366.455 157.627 366.322 156.36H369.102C369.248 156.867 369.562 157.267 370.042 157.56C370.535 157.867 371.128 158.02 371.822 158.02C372.635 158.02 373.295 157.773 373.802 157.28C374.308 156.8 374.562 156.067 374.562 155.08V153.36C374.202 153.88 373.702 154.313 373.062 154.66C372.435 155.007 371.715 155.18 370.902 155.18C369.968 155.18 369.115 154.94 368.342 154.46C367.568 153.98 366.955 153.307 366.502 152.44C366.062 151.56 365.842 150.553 365.842 149.42C365.842 148.3 366.062 147.307 366.502 146.44C366.955 145.573 367.562 144.907 368.322 144.44C369.095 143.973 369.955 143.74 370.902 143.74ZM374.562 149.46C374.562 148.78 374.428 148.2 374.162 147.72C373.895 147.227 373.535 146.853 373.082 146.6C372.628 146.333 372.142 146.2 371.622 146.2C371.102 146.2 370.622 146.327 370.182 146.58C369.742 146.833 369.382 147.207 369.102 147.7C368.835 148.18 368.702 148.753 368.702 149.42C368.702 150.087 368.835 150.673 369.102 151.18C369.382 151.673 369.742 152.053 370.182 152.32C370.635 152.587 371.115 152.72 371.622 152.72C372.142 152.72 372.628 152.593 373.082 152.34C373.535 152.073 373.895 151.7 374.162 151.22C374.428 150.727 374.562 150.14 374.562 149.46Z" fill="white"/>
<path d="M340.532 76.6962L326.177 77.7215L340.304 78.4051C340.122 80.1367 341.671 84.5949 342.468 86.6076C342.392 86.7975 342.104 87.0633 341.557 86.6076C341.01 86.1519 339.051 85.5823 336.772 85.2405C334.494 84.8987 316.608 86.2658 316.608 86.2658L326.747 87.1772C323.01 89.9114 321.013 94.0127 320.481 95.7215C324.765 90.3443 330.924 90.7468 333.468 91.6203C341.033 93.8076 342.458 102.326 341.557 106.772C339.37 114.701 332.747 116.608 329.709 116.57C324.241 116.387 320.595 112.316 319.456 110.304L310 119.19L312.506 121.241C313.327 121.696 314.823 121.203 315.468 120.899L319 118.62H319.797L322.646 121.241C327.203 124.339 332.063 123.215 333.924 122.266C337.038 120.253 344.428 116.16 349.076 115.886C353.724 115.613 357.241 119.646 358.418 121.696L346.114 122.722L360.013 123.291L361.835 126.481L373 124.658V122.266C372.909 120.443 371.519 119.76 370.835 119.646L365.025 119.19C363.749 110.349 356.367 106.848 352.835 106.203C352.38 104.927 352.342 102.861 352.38 101.987C360.856 101.805 366.848 93.9367 368.785 90.0253C370.243 89.7519 371.063 88.8481 371.291 88.4304C372.658 85.0582 371.861 83.076 371.291 82.5063C370.152 82.0506 368.899 84.6709 368.785 84.2152C368.694 83.8506 367.835 83.7595 367.418 83.7595C366.689 83.8506 366.582 85.0886 366.62 85.6962L366.165 86.2658V85.6962V85.4684L365.481 85.6962C363.02 90.162 356.025 90.443 352.835 90.0253C357.392 88.2937 356.557 79.8861 355.57 75.8987C360.309 74.1671 359.899 72.8987 359.101 72.481C358.099 71.843 355.342 72.7468 354.089 73.2785C353.724 71.638 351.886 71.0759 351.013 71C343.722 71.3646 340.987 74.9494 340.532 76.6962Z" fill="white"/>
<path d="M326.069 94.75H333.931C334.572 94.75 335.25 95.3741 335.25 96.3529V107.647C335.25 108.626 334.572 109.25 333.931 109.25H326.069C325.428 109.25 324.75 108.626 324.75 107.647V96.3529C324.75 95.3741 325.428 94.75 326.069 94.75Z" stroke="white" stroke-width="1.5"/>
<path fill-rule="evenodd" clip-rule="evenodd" d="M323 97C321.895 97 321 97.8954 321 99V108C321 109.105 321.895 110 323 110H337C338.105 110 339 109.105 339 108V99C339 97.8954 338.105 97 337 97H323ZM331.991 105.253C332.484 105.413 333.013 105.502 333.56 105.502C333.8 105.502 334 105.702 334 105.942V107.476C334 107.72 333.876 108 333.56 108C329.436 108 326 104.569 326 100.44C326 100.107 326.289 100 326.529 100H328.067C328.307 100 328.507 100.2 328.507 100.44C328.507 100.987 328.591 101.516 328.756 102.009C328.804 102.164 328.769 102.338 328.649 102.462L327.782 103.2C328.409 104.502 329.587 105.636 330.844 106.236L331.542 105.36C331.662 105.24 331.836 105.2 331.991 105.253Z" fill="white"/>
</svg>
