<svg width="16" height="16" viewBox="0 0 16 16" fill="none" xmlns="http://www.w3.org/2000/svg">
<circle cx="8" cy="8" r="8" fill="white"/>
<path d="M7.50308 4.02669L4.91581 4.2115L7.46201 4.3347C7.42916 4.64682 7.70842 5.45038 7.85216 5.81314C7.83847 5.84736 7.78645 5.89528 7.68788 5.81314C7.58932 5.73101 7.23614 5.62834 6.82546 5.56674C6.41478 5.50513 3.19096 5.75154 3.19096 5.75154L5.01848 5.91581C4.34497 6.40862 3.98494 7.14784 3.88912 7.45585C4.66119 6.48665 5.77139 6.55921 6.22998 6.71663C7.59343 7.11088 7.77002 8.70157 7.68788 9.44764C7.29363 10.8768 6.09993 11.2204 5.55236 11.2136C4.56673 11.1807 3.90965 10.447 3.70431 10.0842L2 11.6858L2.45175 12.0554C2.59959 12.1376 2.86927 12.0486 2.98563 11.9938L3.62218 11.5832H3.76591L4.27926 12.0554C5.10062 12.614 5.97673 12.4114 6.31211 12.2402C6.87337 11.8775 8.20534 11.1396 9.04312 11.0903C9.8809 11.0411 10.5147 11.768 10.7269 12.1376L8.50924 12.3224L11.0144 12.4251L11.3429 13L13.3552 12.6715V12.2402C13.3388 11.9117 13.0883 11.7885 12.9651 11.768L11.9179 11.6858C11.6879 10.0924 10.3573 9.46133 9.72074 9.34497C9.6386 9.11499 9.63176 8.74264 9.6386 8.58522C11.1663 8.55236 12.2464 7.13415 12.5955 6.42916C12.8583 6.37988 13.0062 6.21697 13.0472 6.14168C13.2936 5.53388 13.1499 5.17659 13.0472 5.07392C12.8419 4.99179 12.616 5.46407 12.5955 5.38193C12.5791 5.31622 12.4244 5.29979 12.3491 5.29979C12.2177 5.31622 12.1985 5.53936 12.2053 5.64887L12.1232 5.75154V5.64887V5.6078L12 5.64887C11.5565 6.4538 10.2957 6.50445 9.72074 6.42916C10.5421 6.11704 10.3915 4.60164 10.2136 3.88296C11.0678 3.57084 10.9938 3.34223 10.8501 3.26694C10.6694 3.15195 10.1725 3.31485 9.94661 3.41068C9.8809 3.11499 9.54962 3.01369 9.3922 3C8.07803 3.06571 7.58522 3.71184 7.50308 4.02669Z" fill="#673695"/>
<path d="M5.53185 8.68785L4.34088 8.2361L5.59345 9.13959L6.88708 7.88702L5.53185 8.68785Z" fill="#673695"/>
</svg>
