<svg width="24" height="24" viewBox="0 0 24 24" fill="none" xmlns="http://www.w3.org/2000/svg">
<path fill-rule="evenodd" clip-rule="evenodd" d="M17.2626 2.17678C17.946 1.49336 19.054 1.49336 19.7375 2.17678L22.3232 4.76257C23.0067 5.44598 23.0067 6.55402 22.3232 7.23744L19.5303 10.0303L19.5179 10.0425L8.68981 20.3784C8.49198 20.5672 8.25264 20.7071 7.99101 20.7867L2.46839 22.4675C2.20341 22.5482 1.91555 22.4762 1.71969 22.2803C1.52383 22.0845 1.45187 21.7966 1.53251 21.5316L3.20612 16.0327C3.29376 15.7447 3.45421 15.4842 3.67196 15.2763L14.4759 4.9635L17.2626 2.17678ZM14.9878 6.54847L4.70768 16.3613C4.67657 16.391 4.65365 16.4283 4.64113 16.4694L3.37697 20.6231L7.55426 19.3517C7.59164 19.3403 7.62583 19.3203 7.65409 19.2934L17.9269 9.48753L14.9878 6.54847ZM19 8.43934L21.2626 6.17678C21.3602 6.07915 21.3602 5.92086 21.2626 5.82323L18.6768 3.23744C18.5792 3.13981 18.4209 3.13981 18.3232 3.23744L16.0607 5.5L19 8.43934Z" fill="#0B1560"/>
</svg>
