<svg width="127" height="39" viewBox="0 0 127 39" fill="none" xmlns="http://www.w3.org/2000/svg">
<g clip-path="url(#clip0_185_1350)">
<path fill-rule="evenodd" clip-rule="evenodd" d="M78.7896 29.9299C71.4094 35.3697 60.7123 38.272 51.5023 38.272C38.5883 38.272 26.9624 33.4956 18.167 25.5515C17.476 24.9268 18.0952 24.0755 18.9244 24.562C28.4164 30.0847 40.1528 33.4072 52.2762 33.4072C60.4525 33.4072 69.4469 31.7155 77.7171 28.2051C78.9665 27.6744 80.0113 29.0233 78.7896 29.9299" fill="white"/>
<path fill-rule="evenodd" clip-rule="evenodd" d="M81.8551 26.4197C80.9153 25.2146 75.6193 25.8503 73.2421 26.1323C72.5179 26.2207 72.4074 25.5905 73.0597 25.1372C77.2778 22.1685 84.1991 23.0254 85.0062 24.0205C85.8134 25.0211 84.7962 31.959 80.8324 35.2704C80.2243 35.779 79.6438 35.5082 79.9147 34.8337C80.8048 32.6114 82.8005 27.6304 81.8551 26.4197" fill="white"/>
<path fill-rule="evenodd" clip-rule="evenodd" d="M73.4091 3.61546V0.729726C73.4091 0.292996 73.7408 0 74.1388 0H87.0583C87.4729 0 87.8046 0.298525 87.8046 0.729726V3.20084C87.7991 3.61546 87.4508 4.15723 86.8316 5.0141L80.1369 14.5724C82.6246 14.5116 85.2505 14.882 87.5061 16.1535C88.0147 16.441 88.1529 16.8611 88.1916 17.2757V20.3549C88.1916 20.7751 87.7272 21.2671 87.2407 21.0128C83.2659 18.9287 77.9865 18.702 73.5915 21.0349C73.1437 21.2782 72.6738 20.7917 72.6738 20.3715V17.4471C72.6738 16.9772 72.6793 16.1756 73.1492 15.4625L80.9054 4.33966H74.1554C73.7408 4.33966 73.4091 4.04667 73.4091 3.61546" fill="white"/>
<path fill-rule="evenodd" clip-rule="evenodd" d="M26.2811 21.9913H22.3505C21.9746 21.9636 21.6761 21.6817 21.6484 21.3224V1.14987C21.6484 0.746314 21.9857 0.425674 22.4058 0.425674H26.071C26.4525 0.442248 26.7565 0.735254 26.7842 1.10012V3.73708H26.856C27.8124 1.18857 29.6091 0 32.0305 0C34.4905 0 36.0274 1.18857 37.133 3.73708C38.0839 1.18857 40.2454 0 42.5617 0C44.2091 0 46.0113 0.679972 47.1115 2.20576C48.3553 3.90293 48.101 6.36851 48.101 8.53005L48.0955 21.2616C48.0955 21.6651 47.7583 21.9913 47.3381 21.9913H43.4131C43.0206 21.9636 42.7055 21.6485 42.7055 21.2616V10.57C42.7055 9.71862 42.7829 7.59578 42.5949 6.78866C42.3019 5.43425 41.4229 5.0528 40.2841 5.0528C39.3332 5.0528 38.3382 5.68854 37.9346 6.70574C37.531 7.72293 37.5697 9.42562 37.5697 10.57V21.2616C37.5697 21.6651 37.2325 21.9913 36.8124 21.9913H32.8873C32.4893 21.9636 32.1797 21.6485 32.1797 21.2616L32.1742 10.57C32.1742 8.31998 32.5446 5.00857 29.7528 5.00857C26.9279 5.00857 27.0385 8.23705 27.0385 10.57V21.2616C27.0385 21.6651 26.7012 21.9913 26.2811 21.9913" fill="white"/>
<path fill-rule="evenodd" clip-rule="evenodd" d="M98.9272 0C104.759 0 107.916 5.00858 107.916 11.3771C107.916 17.53 104.428 22.4114 98.9272 22.4114C93.2 22.4114 90.082 17.4029 90.082 11.1615C90.082 4.88143 93.2386 0 98.9272 0V0ZM98.9604 4.11853C96.0636 4.11853 95.8811 8.06568 95.8811 10.5257C95.8811 12.9913 95.8424 18.2542 98.9272 18.2542C101.973 18.2542 102.117 14.0085 102.117 11.4213C102.117 9.71863 102.045 7.68424 101.531 6.06999C101.089 4.66583 100.21 4.11853 98.9604 4.11853" fill="white"/>
<path fill-rule="evenodd" clip-rule="evenodd" d="M115.479 21.9913H111.565C111.172 21.9636 110.857 21.6485 110.857 21.2616L110.852 1.08353C110.885 0.713141 111.211 0.425674 111.609 0.425674H115.252C115.595 0.442248 115.877 0.674445 115.954 0.989554V4.0743H116.026C117.126 1.31572 118.668 0 121.383 0C123.146 0 124.866 0.635747 125.971 2.37714C126.999 3.99138 126.999 6.70574 126.999 8.6572V21.3555C126.955 21.7093 126.629 21.9913 126.242 21.9913H122.3C121.941 21.9636 121.643 21.6983 121.604 21.3555V10.3986C121.604 8.19283 121.858 4.96435 119.144 4.96435C118.187 4.96435 117.309 5.60562 116.872 6.57859C116.319 7.81138 116.247 9.03865 116.247 10.3986V21.2616C116.242 21.6651 115.899 21.9913 115.479 21.9913" fill="white"/>
<path fill-rule="evenodd" clip-rule="evenodd" d="M63.111 12.5491C63.111 14.0804 63.1497 15.3574 62.3757 16.7174C61.751 17.823 60.7559 18.503 59.6558 18.503C58.1466 18.503 57.2621 17.3531 57.2621 15.6559C57.2621 12.3058 60.2639 11.6977 63.111 11.6977V12.5491V12.5491ZM67.0747 22.1295C66.8149 22.3617 66.439 22.3783 66.146 22.2235C64.8413 21.1399 64.6036 20.6369 63.8904 19.6031C61.7344 21.8033 60.2031 22.4612 57.4113 22.4612C54.0999 22.4612 51.5293 20.4213 51.5293 16.3359C51.5293 13.1461 53.2541 10.9735 55.7197 9.91212C57.8536 8.97231 60.8333 8.80647 63.111 8.54664V8.03805C63.111 7.10377 63.1828 5.99813 62.63 5.19101C62.1546 4.46681 61.2369 4.16828 60.4242 4.16828C58.9261 4.16828 57.5938 4.93671 57.2676 6.52884C57.2013 6.88265 56.9414 7.23092 56.5821 7.24751L52.7731 6.83842C52.4525 6.76655 52.0932 6.50672 52.1872 6.01472C53.0606 1.39312 57.24 0 60.9771 0C62.8898 0 65.3886 0.508598 66.8978 1.95699C68.8106 3.74261 68.6281 6.12528 68.6281 8.71802V14.8433C68.6281 16.6842 69.391 17.4913 70.1097 18.4864C70.3585 18.8402 70.4138 19.2659 70.0931 19.5312C69.2915 20.2001 67.8652 21.444 67.0802 22.1406L67.0747 22.1295" fill="white"/>
<path fill-rule="evenodd" clip-rule="evenodd" d="M11.5816 12.5491C11.5816 14.0804 11.6203 15.3574 10.8464 16.7174C10.2217 17.823 9.23214 18.503 8.12649 18.503C6.61729 18.503 5.7383 17.3531 5.7383 15.6559C5.7383 12.3058 8.74013 11.6977 11.5816 11.6977V12.5491V12.5491ZM15.5454 22.1295C15.2856 22.3617 14.9096 22.3783 14.6166 22.2235C13.312 21.1399 13.0798 20.6369 12.3611 19.6031C10.2051 21.8033 8.67932 22.4612 5.88203 22.4612C2.57615 22.4612 0 20.4213 0 16.3359C0 13.1461 1.73034 10.9735 4.1904 9.91212C6.32429 8.97231 9.30401 8.80647 11.5816 8.54664V8.03805C11.5816 7.10377 11.6535 5.99813 11.1062 5.19101C10.6253 4.46681 9.70757 4.16828 8.90045 4.16828C7.4023 4.16828 6.06447 4.93671 5.7383 6.52884C5.67196 6.88265 5.41213 7.23092 5.05833 7.24751L1.24385 6.83842C0.923214 6.76655 0.569407 6.50672 0.657858 6.01472C1.53685 1.39312 5.71066 0 9.44774 0C11.3605 0 13.8593 0.508598 15.3685 1.95699C17.2812 3.74261 17.0988 6.12528 17.0988 8.71802V14.8433C17.0988 16.6842 17.8617 17.4913 18.5804 18.4864C18.8347 18.8402 18.89 19.2659 18.5693 19.5312C17.7677 20.2001 16.3414 21.444 15.5564 22.1406L15.5454 22.1295" fill="white"/>
</g>
<defs>
<clipPath id="clip0_185_1350">
<rect width="127" height="38.272" fill="white"/>
</clipPath>
</defs>
</svg>
