<svg width="127" height="39" viewBox="0 0 127 39" fill="none" xmlns="http://www.w3.org/2000/svg">
<path fill-rule="evenodd" clip-rule="evenodd" d="M0 19.2995C0 8.64094 8.64094 0 19.3004 0C29.959 0 38.5999 8.64094 38.5999 19.2995C38.5999 29.959 29.958 38.599 19.2995 38.599C8.64094 38.599 0 29.959 0 19.2995ZM27.4526 15.017V15.677C27.4526 15.8714 27.4036 16.0167 27.3064 16.1139C27.2092 16.211 27.0639 16.2601 26.8696 16.2601H25.8574H24.8452C24.7327 16.2601 24.649 16.2899 24.5922 16.3515C24.5364 16.4131 24.5085 16.5054 24.5085 16.6276V24.4796V32.3297C24.5085 32.524 24.4594 32.6703 24.3632 32.7665C24.266 32.8637 24.1198 32.9127 23.9254 32.9127H23.1124H22.3004C22.106 32.9127 21.9598 32.8637 21.8626 32.7665C21.7664 32.6703 21.7173 32.525 21.7173 32.3297V29.4924V26.656H21.6577H21.5961C21.3498 27.0851 20.9919 27.4064 20.5214 27.622C20.0519 27.8365 19.4698 27.9433 18.7732 27.9433H18.3287H17.8842C17.1789 27.9433 16.5439 27.8394 15.9792 27.6325C15.4134 27.4266 14.9189 27.1159 14.4946 26.7012C14.0703 26.2884 13.7528 25.7978 13.5401 25.2339C13.3285 24.6682 13.2217 24.0274 13.2217 23.3135V19.9701V16.6276C13.2217 16.516 13.1986 16.4285 13.1524 16.3669C13.1072 16.3053 13.0379 16.2697 12.9455 16.2601H12.0556H11.1665C10.9722 16.2601 10.8269 16.2081 10.7297 16.1062C10.6326 16.0042 10.5835 15.8521 10.5835 15.6463V15.0026V14.358C10.5835 14.1742 10.6326 14.0356 10.7297 13.9452C10.8269 13.8528 10.9722 13.8066 11.1665 13.8066H15.6838H20.201C19.5477 13.1264 18.9146 12.4067 18.3027 11.6457C17.6908 10.8837 17.101 10.0822 16.5333 9.23747L15.6742 7.9636L14.8169 6.69166C14.7765 6.62142 14.7467 6.54637 14.7255 6.47036C14.7053 6.39339 14.6937 6.3145 14.6937 6.23272C14.6937 6.07974 14.7322 5.96428 14.8092 5.88731C14.8852 5.8113 15.0007 5.77282 15.1536 5.77282H16.0888H17.024C17.2078 5.77282 17.3666 5.8113 17.5003 5.88731C17.6331 5.96428 17.7408 6.07974 17.8226 6.23272L20.0153 9.75991L22.208 13.2861C22.3216 13.4603 22.4437 13.5911 22.5775 13.6768C22.7103 13.7634 22.8536 13.8066 23.0066 13.8066H23.0836H23.1605H25.0155H26.8705C27.0649 13.8066 27.2102 13.8519 27.3073 13.9452C27.4045 14.0366 27.4536 14.1742 27.4536 14.358V15.017H27.4526ZM21.3797 16.2589H18.8647H16.3496C16.2361 16.2589 16.1514 16.2888 16.0956 16.3503C16.0398 16.4119 16.0119 16.5043 16.0119 16.6265V19.8323V23.0362C16.0119 23.8338 16.2063 24.4313 16.595 24.8296C16.9837 25.2289 17.5667 25.4281 18.3432 25.4281H18.7569H19.1706C19.6007 25.4281 19.975 25.3732 20.2934 25.2636C20.6129 25.1539 20.8775 24.9884 21.0862 24.769C21.296 24.5487 21.4538 24.2899 21.5586 23.9916C21.6635 23.6914 21.7164 23.3537 21.7164 22.9756V19.8015V16.6274C21.7164 16.5052 21.6885 16.4119 21.6318 16.3513C21.576 16.2888 21.4923 16.2589 21.3797 16.2589Z" fill="white"/>
<path d="M51.707 22.3833V27.5279H49.2969V13.6567H54.604C56.154 13.6567 57.3846 14.0608 58.2957 14.8681C59.2069 15.6753 59.6629 16.7442 59.6629 18.0729C59.6629 19.4344 59.2165 20.4927 58.3246 21.249C57.4317 22.0062 56.1829 22.3843 54.5761 22.3843H51.707V22.3833ZM51.707 20.4398H54.6031C55.4603 20.4398 56.1146 20.2387 56.5658 19.8346C57.0161 19.4315 57.2422 18.8484 57.2422 18.0864C57.2422 17.3369 57.0132 16.7385 56.5562 16.2901C56.0992 15.8417 55.4699 15.6118 54.6694 15.5993H51.7061V20.4398H51.707Z" fill="white"/>
<path d="M64.021 18.3445C64.7772 17.468 65.7326 17.0293 66.8891 17.0293C69.0866 17.0293 70.2017 18.2839 70.2335 20.7932V27.5291H67.9186V20.8788C67.9186 20.1678 67.7646 19.6636 67.4568 19.3682C67.1489 19.0729 66.6957 18.9247 66.0992 18.9247C65.1717 18.9247 64.4789 19.3375 64.0219 20.163V27.5272H61.707V12.8931H64.0219V18.3445H64.021Z" fill="white"/>
<path d="M72.334 22.2787C72.334 21.2685 72.5341 20.3592 72.9344 19.5491C73.3346 18.739 73.8965 18.1165 74.621 17.6816C75.3455 17.2467 76.1768 17.0283 77.1168 17.0283C78.508 17.0283 79.6366 17.4767 80.5035 18.3715C81.3704 19.2672 81.8389 20.4545 81.9092 21.9343L81.9188 22.4779C81.9188 23.4939 81.7235 24.4021 81.3328 25.2026C80.9422 26.0031 80.3832 26.6227 79.6558 27.0605C78.9285 27.4992 78.0885 27.7177 77.136 27.7177C75.6813 27.7177 74.5171 27.2337 73.6444 26.2648C72.7708 25.2969 72.334 24.0057 72.334 22.3922V22.2787ZM74.6489 22.4788C74.6489 23.5401 74.8682 24.3704 75.306 24.9708C75.7448 25.5711 76.3538 25.8703 77.135 25.8703C77.9163 25.8703 78.5244 25.5654 78.9593 24.9554C79.3941 24.3454 79.6116 23.4535 79.6116 22.2777C79.6116 21.2357 79.3884 20.4102 78.94 19.8002C78.4917 19.1902 77.8836 18.8852 77.1158 18.8852C76.3596 18.8852 75.7592 19.1854 75.3147 19.7858C74.8702 20.3862 74.6489 21.2848 74.6489 22.4788Z" fill="white"/>
<path d="M86.2192 17.2198L86.2856 18.4109C87.0476 17.4902 88.0483 17.0293 89.2865 17.0293C91.433 17.0293 92.526 18.2589 92.5645 20.7162V27.5281H90.2496V20.8499C90.2496 20.1957 90.1082 19.7117 89.8253 19.3971C89.5424 19.0825 89.0806 18.9257 88.4389 18.9257C87.5056 18.9257 86.81 19.348 86.352 20.1928V27.5291H84.0371V17.2198H86.2192Z" fill="white"/>
<path d="M99.6575 27.7186C98.1902 27.7186 97.001 27.2568 96.0899 26.3322C95.1787 25.4085 94.7227 24.178 94.7227 22.6405V22.3547C94.7227 21.3262 94.9209 20.4064 95.3182 19.5963C95.7146 18.7861 96.2727 18.1559 96.9904 17.7047C97.7082 17.2535 98.5087 17.0283 99.3909 17.0283C100.795 17.0283 101.879 17.4767 102.645 18.3715C103.411 19.2662 103.793 20.5343 103.793 22.1729V23.1061H97.0568C97.127 23.9576 97.4109 24.6302 97.9093 25.1257C98.4076 25.6212 99.035 25.8684 99.7912 25.8684C100.851 25.8684 101.715 25.4403 102.382 24.582L103.63 25.7732C103.217 26.3899 102.666 26.8671 101.977 27.2068C101.288 27.5493 100.515 27.7186 99.6575 27.7186ZM99.3813 18.8872C98.7463 18.8872 98.2335 19.1094 97.8429 19.5539C97.4522 19.9984 97.203 20.618 97.0953 21.4118H101.507V21.2406C101.456 20.466 101.25 19.8801 100.888 19.4827C100.524 19.0854 100.022 18.8872 99.3813 18.8872Z" fill="white"/>
<path d="M108.416 22.3833V27.5279H106.006V13.6567H111.313C112.863 13.6567 114.094 14.0608 115.005 14.8681C115.916 15.6753 116.372 16.7442 116.372 18.0729C116.372 19.4344 115.925 20.4927 115.034 21.249C114.141 22.0062 112.892 22.3843 111.285 22.3843H108.416V22.3833ZM108.416 20.4398H111.312C112.169 20.4398 112.824 20.2387 113.275 19.8346C113.725 19.4315 113.951 18.8484 113.951 18.0864C113.951 17.3369 113.722 16.7385 113.265 16.2901C112.808 15.8417 112.179 15.6118 111.378 15.5993H108.415V20.4398H108.416Z" fill="white"/>
<path d="M122.864 27.7186C121.397 27.7186 120.208 27.2568 119.297 26.3322C118.386 25.4085 117.93 24.178 117.93 22.6405V22.3547C117.93 21.3262 118.128 20.4064 118.525 19.5963C118.922 18.7861 119.48 18.1559 120.197 17.7047C120.915 17.2535 121.716 17.0283 122.598 17.0283C124.002 17.0283 125.086 17.4767 125.852 18.3715C126.618 19.2672 127 20.5343 127 22.1729V23.1061H120.264C120.334 23.9576 120.618 24.6302 121.116 25.1257C121.615 25.6212 122.242 25.8684 122.998 25.8684C124.058 25.8684 124.922 25.4403 125.589 24.582L126.837 25.7732C126.424 26.3899 125.873 26.8671 125.184 27.2068C124.495 27.5493 123.722 27.7186 122.864 27.7186ZM122.588 18.8872C121.953 18.8872 121.441 19.1094 121.05 19.5539C120.659 19.9984 120.41 20.618 120.302 21.4118H124.714V21.2406C124.663 20.466 124.457 19.8801 124.095 19.4827C123.731 19.0854 123.23 18.8872 122.588 18.8872Z" fill="white"/>
</svg>
