<svg width="119" height="66" viewBox="0 0 119 66" fill="none" xmlns="http://www.w3.org/2000/svg">
<path d="M59.3628 41.4044C59.3548 40.3934 58.8157 39.5196 58.6342 38.5543C58.2726 37.249 57.6205 36.1345 56.5047 35.3279L56.4953 35.3225C56.213 34.9178 55.9387 34.5038 55.4118 34.3814C55.1671 34.2591 54.9211 34.1381 54.6777 34.0171C54.9238 31.2101 54.7248 28.3977 54.7826 25.588C54.8028 24.6227 54.7826 23.6575 54.7866 22.6922C54.8001 19.4927 56.5666 17.1669 59.715 16.8954C63.9471 16.5311 68.21 16.5673 72.4555 16.9142C72.9019 16.9505 73.3267 17.0621 73.6695 17.3793C74.1145 17.5716 74.4694 17.9171 74.9063 18.1241C76.4644 19.2238 76.9712 20.8007 76.9672 22.6237C76.9591 25.8757 76.9632 29.1277 76.9699 32.3797C76.9712 32.8569 76.8933 33.3463 77.1043 33.8047C76.5921 34.7027 75.5449 35.1074 75.0596 36.0296C74.2892 36.9599 73.7891 38.0408 73.3374 39.1472C72.8225 39.9605 73.1344 41.1368 72.1947 41.7606C71.7981 40.6663 72.0253 39.5303 72.0011 38.4159C71.9339 35.3077 69.6996 33.0855 66.5834 32.9618C63.8153 32.8516 61.4748 33.4565 60.1856 36.2178C59.7621 37.1239 59.7755 38.0919 59.7218 39.0504C59.668 40.013 59.6438 40.9755 59.6062 41.9394C59.5403 41.8951 59.4758 41.8493 59.4126 41.8023C59.2499 41.6894 59.2728 41.5509 59.3628 41.4044Z" fill="white"/>
<path d="M0.208211 43.3124C0.178635 42.8728 0.157124 42.4345 0.408519 42.0392C0.620928 42.2342 0.577911 42.4627 0.553712 42.5273C0.521448 42.3377 0.639749 41.9774 0.475737 41.6225C1.25143 37.2453 4.50613 34.2554 9.41438 33.4138C10.5248 33.223 11.642 33.149 12.7712 33.1288C13.4327 33.1167 13.5765 33.3601 13.5631 33.965C13.5281 35.5729 13.5241 37.1834 13.5644 38.7899C13.5805 39.4379 13.3493 39.6302 12.7309 39.5992C12.0103 39.5629 11.283 39.5777 10.5651 39.6355C8.05926 39.8358 6.58719 41.1721 6.47023 43.674C6.32504 46.8037 6.41646 49.9454 6.36134 53.0805C6.33848 54.3926 6.54686 55.7154 6.23363 57.0181C5.99567 55.948 6.13817 54.8631 6.13011 53.7849C6.10725 50.5168 6.12204 47.2486 6.07365 43.9805C5.98089 43.8259 5.77251 44.0397 5.91367 43.9603C5.97282 43.9267 5.98626 43.9792 6.02659 44.006C6.157 44.0934 6.11129 44.2158 6.11129 44.322C6.11129 48.4613 6.12339 52.5992 6.10994 56.7385C6.10994 56.8675 6.04676 56.967 5.99971 57.0759C4.14584 57.0759 2.29331 57.0759 0.439441 57.0759C0.0979739 56.6578 0.198802 56.1564 0.205524 55.6858C0.256609 51.6339 0.0710868 47.5794 0.305005 43.5301C0.305005 43.4602 0.24182 43.385 0.208211 43.3124Z" fill="white"/>
<path d="M62.8112 37.2665C63.2562 36.3604 63.9203 35.7313 64.9528 35.5659C65.5967 35.6062 66.2407 35.5713 66.8846 35.582C68.2599 35.9437 69.0342 36.8565 69.3098 38.2277C69.2776 43.71 69.3367 49.1923 69.2789 54.6746C68.7694 56.3537 67.6348 57.3109 66.0672 57.3822C64.4029 57.4574 63.2051 56.6172 62.5517 54.9179C62.5222 49.6629 62.5585 44.4078 62.5235 39.1527C62.5181 38.4939 62.7883 37.9051 62.8112 37.2665Z" fill="white"/>
<path d="M61.0625 8.92388C61.5586 7.51499 62.6959 6.81996 63.9838 6.29431C65.0324 6.01603 66.0797 6.00124 67.1256 6.30238C69.7216 7.58893 70.7836 9.39978 70.223 11.5897C69.7807 13.3199 68.1944 14.7234 66.3956 14.9789C64.211 15.2894 62.3397 14.4304 61.2965 12.6383C60.7157 11.4311 60.6646 10.1916 61.0625 8.92388Z" fill="white"/>
<path d="M84.3357 1.19056C84.4056 1.26853 84.4755 1.34651 84.5441 1.42448C85.2257 2.54836 85.5564 3.6951 84.7578 4.90906C83.5412 6.38651 82.0409 6.91618 80.2126 6.20636C79.5834 5.96169 79.1492 6.15662 78.7499 6.62983C78.4972 6.93097 78.2498 7.25093 77.8505 7.38133C77.6516 7.38267 77.5037 7.29932 77.4217 7.1138C77.3706 6.61505 77.8586 6.51422 78.0871 6.22249C78.3439 5.89581 78.7956 5.69013 78.7015 5.16045C77.9971 3.49345 78.1718 2.06036 79.1855 1.19325C80.5782 0.000803541 82.2681 -0.113468 83.8222 0.88539C83.9902 0.994283 84.1462 1.12066 84.3357 1.19056Z" fill="white"/>
<path d="M54.7835 7.78076C56.1574 8.93959 57.2732 10.3982 58.9577 11.1981C59.6608 11.5315 59.9875 12.2427 59.806 13.0345C59.6218 13.8425 59.0962 14.4689 58.2385 14.4837C55.3844 14.5321 52.5276 14.5496 49.6749 14.4757C48.6451 14.4488 48.1329 13.6677 48.1154 12.6594C48.098 11.6727 48.8064 10.9655 49.9048 10.9279C51.4306 10.8755 52.9605 10.9091 54.4877 10.9064C54.9179 10.905 55.3481 10.9064 56.0324 10.9064C54.7714 9.34693 53.2737 8.38437 52.1095 7.08976C52.0235 6.8881 51.7654 6.77787 51.8017 6.51034C51.8205 5.87984 51.7667 5.2695 52.0665 4.64437C53.0076 2.67757 51.6041 0.741696 49.3751 0.865377C48.9073 0.89092 48.426 1.12484 47.9864 0.76455C47.9313 0.652969 47.9366 0.546764 48.0079 0.444592C49.5835 -0.258507 51.0287 -0.00442189 52.1875 1.11812C53.0734 1.97582 53.6125 3.58636 52.6728 5.05843C52.2547 5.71313 52.6715 5.98873 53.1151 6.2939C53.7335 6.72006 54.1906 7.32636 54.7835 7.78076Z" fill="white"/>
<path d="M77.7597 7.26566C77.9479 7.11778 78.1872 7.00351 78.3163 6.81396C78.9589 5.87425 79.8139 5.7425 80.8208 6.07994C82.3628 6.59752 83.5351 5.97642 84.5379 4.85254C84.6737 5.02327 84.6562 5.19804 84.5514 5.3755C83.3899 6.7091 81.9931 7.09358 80.3556 6.49938C79.9281 6.34343 79.5423 6.15119 79.1457 6.56122C77.839 7.9123 76.5242 9.25531 75.0965 10.7207C75.8641 11.0097 76.4946 10.8914 77.101 10.8995C78.5461 10.9196 79.9927 10.878 81.4365 10.921C82.5644 10.9546 83.3119 11.7155 83.3105 12.7143C83.3092 13.7199 82.5523 14.4943 81.4392 14.505C78.7491 14.5319 76.0591 14.5212 73.3704 14.5037C72.8071 14.4997 72.2384 14.4176 71.9574 13.8006C71.7948 13.119 71.0339 12.3393 72.2666 11.8822C72.9415 13.693 72.9415 13.6756 75.0078 13.7011C76.9356 13.724 78.8674 13.5909 80.7926 13.8046C81.0789 13.8369 81.3558 13.7979 81.6099 13.6554C82.0495 13.4094 82.4327 13.1015 82.3574 12.5315C82.2781 11.9346 81.8183 11.7625 81.3048 11.7424C79.8582 11.6873 78.409 11.7625 76.9638 11.7061C76.1263 11.6725 74.9957 12.0771 74.5964 11.0487C74.2428 10.1359 75.2323 9.57393 75.766 8.96762C76.3427 8.31426 76.8791 7.57755 77.7597 7.26566Z" fill="white"/>
<path d="M94.4143 48.6294C94.0903 48.3471 94.1911 47.964 94.1911 47.6158C94.1857 41.5231 94.1871 35.4292 94.1911 29.3365C94.1911 28.987 94.0903 28.6052 94.4062 28.3188C94.4694 28.6307 94.5863 28.9426 94.5863 29.2545C94.5944 35.1966 94.5931 41.1373 94.5796 47.0794C94.5783 47.5943 94.4721 48.1118 94.4143 48.6294Z" fill="white"/>
<path d="M62.8114 37.2671C63.2107 37.9648 62.7402 38.6451 62.7482 39.3428C62.806 44.1153 62.7832 48.8904 62.7724 53.6629C62.7711 54.085 62.9284 54.5542 62.552 54.9185C62.2414 54.5004 62.2629 54.0044 62.2616 53.5284C62.2522 48.7909 62.2522 44.0521 62.2575 39.3146C62.2575 38.5886 62.3369 37.8721 62.8114 37.2671Z" fill="white"/>
<path d="M69.2789 54.6749C68.9979 54.4262 69.0638 54.0901 69.0624 53.7769C69.0597 48.8874 69.0597 43.9994 69.0624 39.1099C69.0624 38.7967 69.0006 38.4579 69.3084 38.228C69.5545 38.587 69.5007 38.9983 69.502 39.3963C69.5047 44.0599 69.5034 48.7234 69.5034 53.387C69.5047 53.8293 69.5209 54.2756 69.2789 54.6749Z" fill="white"/>
<path d="M0.209326 43.3125C0.589779 43.6741 0.431145 44.1433 0.43249 44.5654C0.443245 48.737 0.437868 52.9072 0.437868 57.0787C0.113878 57.1325 0.0184276 56.9631 0.0251493 56.6727C0.132698 52.2202 -0.19667 47.761 0.209326 43.3125Z" fill="white"/>
<path d="M37.1794 42.585C37.3784 42.6266 37.572 42.6643 37.5586 42.9426C37.209 50.4804 37.5034 58.0236 37.408 65.5627C37.3273 65.6474 37.2467 65.6528 37.1647 65.5654C37.08 57.9053 37.0504 50.2451 37.1794 42.585Z" fill="white"/>
<path d="M78.9636 5.32751C78.8412 6.19999 78.0225 6.47828 77.5184 7.02543C76.5706 8.57682 75.0972 9.66441 73.9585 11.0504C73.6681 11.4027 73.2084 11.6783 72.6706 11.4295C72.5913 11.3233 72.5967 11.2185 72.672 11.1136C74.4196 9.7128 75.85 7.98396 77.4592 6.44063C77.7751 6.13815 78.1018 5.84777 78.4231 5.55202C78.6019 5.47539 78.6906 5.17559 78.9636 5.32751Z" fill="white"/>
<path d="M78.9636 5.32749C78.7835 5.40143 78.6033 5.47671 78.4232 5.55065C78.5187 5.22128 78.3882 4.93494 78.2968 4.62305C77.7766 2.83908 78.2941 1.43288 79.7487 0.569807C81.3311 -0.368555 83.0357 -0.138671 84.3357 1.1909C84.1475 1.14385 83.9378 1.13444 83.7738 1.04302C81.7801 -0.072798 80.5809 0.270014 79.2755 1.38449C77.9876 2.48283 78.3385 3.95086 78.9636 5.32749Z" fill="white"/>
<path d="M48.0096 0.444929C48.0136 0.53769 48.0163 0.630453 48.0204 0.724558C47.9236 1.00284 47.6843 1.16282 47.492 1.36313C46.3829 2.52062 46.1719 3.38504 46.7338 4.46053C47.3831 5.70406 48.7584 6.39775 50.135 6.15576C50.7803 6.04284 51.4727 5.65969 51.8867 6.54966C51.9607 6.7298 52.036 6.90995 52.1099 7.09144C51.5291 6.71367 50.9712 6.59402 50.2224 6.7419C48.3618 7.1116 46.6975 6.12484 46.0442 4.46591C45.5387 3.17801 46.0334 1.6441 47.2406 0.731278C47.4732 0.555167 47.7098 0.424764 48.0096 0.444929Z" fill="white"/>
<path d="M5.99805 57.079C5.99805 52.6614 5.99805 48.2452 5.99805 43.8276C6.07602 43.8276 6.154 43.8276 6.23197 43.8276C6.23197 48.225 6.23197 52.6224 6.23197 57.0198C6.15534 57.04 6.07602 57.0588 5.99805 57.079Z" fill="white"/>
<path d="M34.9618 48.8687C34.7211 48.6536 34.7494 48.3632 34.7494 48.0836C34.7494 45.1448 34.7494 42.2047 34.7494 39.2659C34.7494 38.9863 34.7184 38.6959 34.9577 38.4795C35.0989 41.9426 35.0922 45.4056 34.9618 48.8687Z" fill="white"/>
<path d="M42.9363 64.1098C42.8691 63.97 42.7414 63.8288 42.7414 63.689C42.7307 60.6091 42.7333 57.5291 42.9928 54.4492C42.9928 57.6125 42.9928 60.7758 42.9928 63.939C43.0264 64.0116 43.0076 64.0695 42.9363 64.1098Z" fill="white"/>
<path d="M15.6768 38.2319C16.0573 38.8409 16.5843 39.0251 17.3075 38.9727C18.582 38.8799 19.8631 38.9001 21.1416 38.8651C21.3446 38.8598 21.4199 38.9646 21.4576 39.134C19.6265 39.4593 17.7794 39.2456 15.9403 39.2563C14.9777 39.2617 15.6378 38.6137 15.6768 38.2319Z" fill="white"/>
<path d="M37.1667 65.5657C37.2473 65.5644 37.3294 65.5644 37.41 65.563C38.6132 65.6934 39.8487 65.2995 41.029 65.7902C39.8137 66.1599 38.5715 65.926 37.3414 65.9408C37.1546 65.9421 37.1492 65.7284 37.1667 65.5657Z" fill="white"/>
<path d="M92.0136 26.1327C91.0027 26.6664 89.9164 26.2349 88.8746 26.3787C88.7912 26.4984 88.7159 26.4876 88.6474 26.3653C88.638 26.2779 88.6286 26.1919 88.6191 26.1045C89.7538 25.9539 90.8844 25.9176 92.0136 26.1327Z" fill="white"/>
<path d="M84.5505 5.37551C84.5452 5.20074 84.5411 5.02732 84.5371 4.85255C85.5171 3.71253 84.8154 2.56849 84.5452 1.42578C85.7201 2.40447 85.6637 4.45731 84.5505 5.37551Z" fill="white"/>
<path d="M61.0623 8.92383C61.0112 10.17 60.9601 11.4163 61.2949 12.6383C60.4695 11.4472 60.3579 10.2104 61.0623 8.92383Z" fill="white"/>
<path d="M72.6724 11.1123C72.6724 11.1983 72.6724 11.2857 72.6724 11.3718C72.6146 11.6326 72.4586 11.7939 72.1924 11.8396C71.4584 12.415 71.9693 13.1383 71.9585 13.801C71.168 12.5871 71.3885 11.7576 72.6724 11.1123Z" fill="white"/>
<path d="M66.883 35.5821C66.2364 35.9303 65.5924 35.9491 64.9512 35.566C65.5978 35.2487 66.2418 35.2756 66.883 35.5821Z" fill="white"/>
<path d="M108.682 32.6961C107.799 33.0322 106.916 33.0443 106.035 32.688C106.917 32.5643 107.8 32.5576 108.682 32.6961Z" fill="white"/>
<path d="M26.289 32.6876C25.4071 33.0426 24.5239 33.0358 23.6406 32.693C24.5239 32.5653 25.4058 32.5761 26.289 32.6876Z" fill="white"/>
<path d="M96.366 43.5513C96.7505 44.4399 96.764 45.3272 96.358 46.2131C96.1886 45.3258 96.1899 44.4385 96.366 43.5513Z" fill="white"/>
<path d="M59.6239 45.969C59.2556 45.2457 59.2556 44.5211 59.6239 43.7979C59.7234 44.5211 59.7274 45.2444 59.6239 45.969Z" fill="white"/>
<path d="M82.5851 32.6943C81.9452 33.0318 81.304 33.0331 80.6641 32.6943C81.304 32.5693 81.9452 32.572 82.5851 32.6943Z" fill="white"/>
<path d="M49.7265 32.6893C49.0853 33.0254 48.4426 33.0308 47.8027 32.6853C48.444 32.5818 49.0853 32.567 49.7265 32.6893Z" fill="white"/>
<path d="M74.9028 18.1232C74.3395 18.1259 73.9967 17.7616 73.666 17.3784C74.2239 17.3851 74.6044 17.6863 74.9028 18.1232Z" fill="white"/>
<path d="M46.2744 32.8721C46.5446 32.9057 46.8135 32.9393 47.3741 33.0092C46.6643 33.1678 46.2529 33.2646 45.8711 32.9353C46.0055 32.9151 46.14 32.8936 46.2744 32.8721Z" fill="white"/>
<path d="M29.1562 39.5107C29.2033 39.4112 29.2517 39.3104 29.2988 39.2109C29.5206 39.5242 29.5165 39.8374 29.3028 40.152C29.2544 40.0525 29.2073 39.9544 29.1589 39.8549C29.1563 39.7406 29.1562 39.6263 29.1562 39.5107Z" fill="white"/>
<path d="M0.475421 41.6221C0.784623 42.0079 0.724128 42.4152 0.522474 43.0108C0.471389 42.5712 0.439123 42.305 0.408203 42.0388C0.431057 41.9003 0.453911 41.7619 0.475421 41.6221Z" fill="white"/>
<path d="M34.7275 50.5623C34.39 50.206 34.4963 49.8014 34.6293 49.0781C34.714 49.6414 34.753 49.9049 34.792 50.1684C34.7705 50.3001 34.749 50.4319 34.7275 50.5623Z" fill="white"/>
<path d="M96.6132 41.6182C96.9224 41.9059 96.9049 42.2325 96.6871 42.7353C96.6414 42.328 96.6118 42.0699 96.5836 41.8118C96.5365 41.7378 96.5473 41.6733 96.6132 41.6182Z" fill="white"/>
<path d="M24.0258 42.2959C24.2127 42.3295 24.3982 42.3618 24.7773 42.429C24.2557 42.6038 23.9344 42.6911 23.6387 42.3618C23.7677 42.3403 23.8968 42.3174 24.0258 42.2959Z" fill="white"/>
<path d="M96.5822 48.1976C96.6118 47.9382 96.64 47.6787 96.6857 47.27C96.9049 47.7755 96.9224 48.1022 96.6091 48.3885C96.5446 48.3334 96.5352 48.2689 96.5822 48.1976Z" fill="white"/>
<path d="M59.6251 43.796C59.6184 43.1776 59.613 42.5579 59.6063 41.9395C59.5888 41.8104 59.5202 41.758 59.3898 41.7983C59.2151 41.9704 59.3468 42.2312 59.211 42.4302C59.2581 42.0107 59.3697 41.6249 59.5068 41.2458C59.492 40.3047 59.2083 39.4242 58.8884 38.553C58.3547 37.3673 57.743 36.2327 56.7845 35.3239C56.7078 35.2446 56.6312 35.1666 56.5465 35.0954C56.2252 34.8117 55.9442 34.4837 55.592 34.235C55.307 34.0763 55.018 33.9379 54.6765 34.0158C53.1009 33.2912 51.4971 32.6755 49.7239 32.6876C49.0826 32.8503 48.4414 32.8543 47.8001 32.6836C47.2785 32.6473 46.7582 32.6177 46.2729 32.8691C46.363 32.9672 46.4598 33.0143 46.562 33.025C46.3267 33.0331 46.0874 33.0654 45.8696 32.9323C39.859 34.0857 37.1985 37.2289 37.1797 42.5807C37.4136 42.8684 37.2886 43.1991 37.2899 43.5137C37.3114 50.8459 37.2456 58.1793 37.3235 65.5115C38.5187 66.1393 39.7958 65.6405 41.0259 65.7857C41.9938 65.6042 42.5934 65.0019 42.9349 64.1053C42.7964 63.7598 42.8179 63.4035 42.8341 63.0472C42.8569 63.3444 42.9026 63.6388 42.9913 63.9318C43.3543 63.4721 43.2132 62.9289 43.2159 62.4208C43.2306 59.7509 43.2226 57.081 43.2226 54.2229C46.5983 59.0935 54.5071 58.5625 57.5602 53.4015C58.9233 51.0973 59.6654 48.6451 59.6237 45.9631C59.4436 45.2439 59.4436 44.5207 59.6251 43.796ZM42.6848 54.7983C42.6579 54.8171 42.6633 54.805 42.6848 54.7983V54.7983ZM42.7789 54.8305C42.8072 54.8628 42.8327 54.9219 42.8475 55.0295C42.8475 55.6573 42.8448 56.3147 42.8421 56.9909C42.8354 56.2851 42.8193 55.5793 42.7857 54.8736C42.7843 54.8574 42.7816 54.844 42.7789 54.8305ZM42.8341 61.7903C42.83 60.9796 42.8354 60.1676 42.8408 59.357C42.8435 59.8504 42.8475 60.3478 42.8556 60.8452C42.8609 61.1598 42.8475 61.4757 42.8341 61.7903ZM46.8954 33.056C46.8187 33.0358 46.7421 33.0291 46.6628 33.0277C46.7381 33.0197 46.8147 32.9982 46.8927 32.9632C46.9438 32.9417 46.9451 32.9726 46.8954 33.056ZM52.7178 49.2945C51.8668 51.1322 50.513 52.24 48.4212 52.2426C46.2998 52.2453 44.7646 51.2088 43.9875 49.2958C42.8354 46.4565 42.9188 43.5231 44.0346 40.7C44.7215 38.9631 46.1412 38.018 48.0784 37.9602C50.0815 37.8997 51.571 38.7103 52.5188 40.4903C53.2582 41.8803 53.4115 43.3981 53.4827 45.1928C53.4505 46.4243 53.3604 47.9057 52.7178 49.2945Z" fill="white"/>
<path d="M59.3634 41.4048C59.3809 41.5379 59.397 41.6696 59.4145 41.8027C59.3943 42.0702 59.3728 42.3378 59.3325 42.858C59.1228 42.1885 59.0273 41.7825 59.3634 41.4048Z" fill="white"/>
<path d="M74.9262 35.8335C74.5981 37.0112 74.0268 38.0503 73.1543 38.9134C73.5132 37.7532 74.0362 36.6872 74.9262 35.8335Z" fill="white"/>
<path d="M94.4476 46.0075C94.4059 40.1111 94.453 34.2134 94.4086 28.3171C94.0631 27.0923 93.3425 26.2804 92.0157 26.1338C91.6702 26.3852 91.322 26.0921 90.9738 26.1405C90.2465 26.2414 89.4573 25.8811 88.7892 26.4296C88.7287 29.199 88.7637 31.967 88.7556 34.7149C88.7475 31.9858 88.7529 29.2568 88.7489 26.5277C88.765 26.3704 88.722 26.2293 88.6225 26.1069C88.1963 26.4013 88.4262 26.8383 88.4208 27.1999C88.3966 29.281 88.4087 31.3634 88.4087 33.4444C88.4087 34.2524 88.4087 35.0617 88.4087 36.1345C86.77 34.0494 85.0263 32.7508 82.5863 32.697C81.9464 32.8529 81.3052 32.8529 80.6652 32.697C79.3558 32.6755 78.2185 33.2038 77.1054 33.8074C76.1764 34.2645 75.511 35.0052 74.9289 35.8361C74.3132 36.8484 73.8265 37.9346 73.157 38.916C72.583 39.7791 72.6152 40.8478 72.1958 41.7633C71.9162 44.9105 71.8906 48.0361 72.907 51.0864C74.0685 54.5697 76.4144 56.6709 80.0468 57.3229C83.4897 57.9413 86.7565 57.4654 89.8943 55.9114C92.9231 54.411 94.2285 51.8783 94.418 48.6303C94.1115 47.7538 94.453 46.8826 94.4476 46.0075ZM87.9678 48.594C87.2835 51.0273 85.7792 52.2628 83.5449 52.3112C81.1479 52.3623 79.5051 51.1564 78.7186 48.7526C78.5452 48.2216 78.4121 47.6785 78.2615 47.1408C78.0948 47.009 78.115 46.8598 78.2199 46.7012C78.2387 45.178 78.1123 43.6495 78.5062 42.1451C79.3236 39.0303 81.7569 37.4533 84.6217 38.2196C86.5858 38.7452 87.6129 40.1716 88.074 42.0362C88.6131 44.2195 88.5768 46.4242 87.9678 48.594ZM88.7583 35.547C88.8201 35.5618 88.765 35.5551 88.7583 35.547V35.547Z" fill="white"/>
<path d="M88.6484 26.3652C88.7237 26.372 88.799 26.3773 88.8756 26.3787C88.8756 29.5057 88.8756 32.6326 88.8756 35.7596C88.8003 35.7596 88.7251 35.7609 88.6484 35.7609C88.6484 32.6299 88.6484 29.4976 88.6484 26.3652Z" fill="white"/>
<path d="M78.2166 46.7002C78.2301 46.8467 78.2448 46.9933 78.2583 47.1398C78.2301 47.3253 78.2005 47.5108 78.1481 47.855C77.9518 47.3347 77.9168 46.9986 78.2166 46.7002Z" fill="white"/>
<path d="M116.446 37.4035C114.828 34.3639 112.102 32.8918 108.682 32.6956C107.799 32.8408 106.917 32.8582 106.035 32.6875C101.128 32.7184 97.0988 36.5377 96.6149 41.6181C96.7977 41.8009 96.6875 42.0469 96.7533 42.254C96.6713 42.1168 96.7614 41.9125 96.5853 41.8117C96.3164 42.3669 96.3285 42.9584 96.3675 43.5526C96.5597 44.4412 96.5705 45.3285 96.3594 46.2144C96.3205 46.888 96.3043 47.5601 96.5839 48.1974C96.7627 48.0952 96.6713 47.8908 96.7533 47.7524C96.6969 47.9298 96.7533 48.1194 96.6834 48.2995C96.6256 48.4488 96.6592 48.2337 96.6108 48.3883C97.0504 53.6756 100.898 57.3027 106.485 57.5474C110.774 57.7356 114.577 56.5646 116.627 52.459C119.111 47.4808 119.078 42.3521 116.446 37.4035ZM111.715 48.6101C111.202 50.5123 110.028 51.8365 108.128 52.4643C107.608 52.7265 107.086 52.6942 106.56 52.4805C103.955 51.8271 102.925 49.9464 102.605 47.4674C102.393 45.8219 102.273 44.1858 102.552 42.5376C102.947 40.2011 104.045 38.4803 106.507 37.9251C107.229 37.6778 107.944 37.5998 108.639 38.0085C110.579 38.9052 111.641 40.47 111.971 42.5336C112.297 44.5689 112.252 46.6097 111.715 48.6101Z" fill="white"/>
<path d="M108.64 38.0088C107.929 37.9806 107.217 37.9537 106.508 37.9254C106.291 37.2896 106.799 37.5302 107.037 37.5114C107.63 37.4643 108.248 37.4442 108.774 37.748C109.176 37.9792 108.712 37.9295 108.64 38.0088Z" fill="white"/>
<path d="M106.56 52.481C107.083 52.4756 107.604 52.4702 108.127 52.4648C108.224 52.5173 108.32 52.5711 108.416 52.6235C107.712 52.8292 107.003 52.7862 106.295 52.649C106.308 52.6181 106.312 52.5711 106.335 52.5616C106.406 52.5267 106.484 52.5065 106.56 52.481Z" fill="white"/>
<path d="M34.7919 50.1688C35.0338 49.7601 34.9976 49.3137 34.9626 48.8688C34.8013 45.4057 34.8093 41.9426 34.9586 38.4796C34.808 36.3017 33.5819 34.8538 31.7388 33.894C30.0423 33.0107 28.2018 32.6531 26.2888 32.6867C25.4069 32.8561 24.5237 32.8454 23.6404 32.6921C19.7135 32.7029 16.5072 34.9332 15.6778 38.2309C15.7396 38.8345 16.0004 39.1007 16.6766 39.0912C18.2697 39.0711 19.8655 38.9891 21.4585 39.1329C23.0718 37.1675 25.1636 37.4511 27.2917 37.8786C28.2314 38.0668 28.9049 38.5414 29.155 39.5093C29.2316 39.5389 29.241 39.3104 29.2975 39.4421C29.3647 39.5954 29.2921 39.789 29.3459 39.9611C29.2625 39.9624 29.1993 39.9274 29.1563 39.8535C28.8592 40.847 28.0983 41.3457 27.1747 41.5931C26.1369 41.8714 25.0762 42.0636 24.0262 42.2935C24.0504 42.393 24.162 42.3984 24.2158 42.4669C24.0948 42.4629 23.9752 42.4656 23.8542 42.4548C23.7735 42.4468 23.7023 42.4158 23.6391 42.3607C21.5486 42.4226 19.61 43.0222 17.7978 44.0452C16.9469 44.5251 16.2142 45.1382 15.7006 45.9918C13.0576 50.3825 15.3928 56.1848 20.3602 57.2737C23.471 57.9553 26.6222 57.7321 29.6174 56.6042C32.3922 55.5596 34.199 53.5727 34.726 50.5627C34.5257 50.2319 34.6843 49.8596 34.5889 49.4791C34.7139 49.7197 34.5203 50.0115 34.7919 50.1688ZM24.7764 52.7123C24.1782 52.9475 23.5799 52.9502 22.9817 52.7109C21.2286 52.0576 20.6586 51.3289 20.6882 49.7843C20.7178 48.2289 21.3913 47.3671 23.186 46.8428C25.1367 46.2728 27.1653 45.9892 29.0676 45.1785C29.6322 49.6014 28.4814 51.5884 24.7764 52.7123Z" fill="white"/>
<path d="M22.9804 52.7104C23.5786 52.7104 24.1768 52.7118 24.7751 52.7118C24.9324 52.736 25.091 52.7602 25.2483 52.7844C25.2523 52.8449 25.2577 52.9067 25.2617 52.9672C24.4161 52.9672 23.5706 52.9672 22.7236 52.9632C22.7142 52.9632 22.69 52.8785 22.6994 52.8731C22.7908 52.814 22.8863 52.7629 22.9804 52.7104Z" fill="white"/>
<path d="M20.4366 49.4155C20.4366 49.7919 20.4366 50.1684 20.4366 50.6671C20.118 50.163 20.3277 49.7677 20.4366 49.4155Z" fill="white"/>
<path d="M72.1914 11.8409C72.3514 11.6849 72.5114 11.529 72.6713 11.373C73.6836 11.2507 74.1851 10.4454 74.8089 9.79074C75.6988 8.85641 76.613 7.94628 77.5178 7.02539C77.5984 7.10605 77.6791 7.18537 77.7584 7.26603C76.9504 8.15465 76.1331 9.03521 75.3399 9.93592C75.0603 10.2532 74.5615 10.5732 74.7511 11.0289C74.9783 11.576 75.5926 11.3677 76.0524 11.3717C77.7799 11.3892 79.5074 11.3946 81.2336 11.3717C82.1612 11.3596 82.8307 11.6164 82.8239 12.6865C82.8199 13.4447 81.778 14.3884 80.997 14.2392C78.8016 13.8157 76.5955 14.1142 74.3962 14.0523C72.221 13.9919 72.2196 14.0376 72.1914 11.8409Z" fill="white"/>
<path d="M51.8885 6.54852C51.3898 6.18958 50.922 6.23528 50.3237 6.42618C48.7428 6.93166 46.9211 5.87768 46.2893 4.21337C45.7811 2.87842 46.4775 1.47894 48.0222 0.723414C48.7696 0.869949 49.4432 0.369849 50.2511 0.59839C52.4411 1.21948 53.3055 2.8596 52.3429 4.86538C52.1373 5.29423 51.8079 5.62226 52.2461 6.13177C52.4828 6.40736 52.1198 6.49609 51.8885 6.54852Z" fill="white"/>
<path d="M53.1352 7.0752C54.2712 7.93558 55.3776 8.82689 56.4074 9.8271C57.0298 10.4321 57.6079 11.1015 58.4696 11.4444C59.0625 11.681 59.3999 12.2214 59.3313 12.8963C59.252 13.6773 58.6807 13.9812 57.9964 14.0161C56.9922 14.0672 55.9839 14.0242 54.9783 14.0443C53.7778 14.0672 52.58 13.9785 51.3795 14.2473C50.597 14.4221 49.8052 14.3011 49.1075 13.7405C48.5913 13.3265 48.399 12.8411 48.5671 12.2644C48.7378 11.681 49.1747 11.3691 49.8334 11.3758C51.6443 11.3946 53.4565 11.3852 55.2687 11.3785C55.6599 11.3771 56.1587 11.5049 56.3522 11.0599C56.5579 10.5867 56.1869 10.2116 55.8669 9.9212C54.8963 9.04199 53.8974 8.19639 52.9093 7.33735C52.9846 7.24727 53.0599 7.16123 53.1352 7.0752Z" fill="white"/>
</svg>
