<svg width="127" height="27" viewBox="0 0 127 27" fill="none" xmlns="http://www.w3.org/2000/svg">
<path d="M19.4004 6.37027L19.2845 10.0477L9.70018 20.4717C13.6961 20.4717 16.2442 20.4428 17.692 20.3559C17.2576 22.3249 16.9102 23.9464 16.5627 26.3787C14.6516 26.205 11.6402 26.176 8.62882 26.176C5.26995 26.176 2.34542 26.205 0 26.3787L0.0868682 22.6724L9.67123 12.3062C5.47264 12.3062 3.93798 12.3352 2.20064 12.3931C2.57706 10.5399 2.86662 8.48404 3.12722 6.42818C6.19654 6.48609 7.41268 6.544 11.3507 6.544C15.028 6.544 17.0839 6.48609 19.4004 6.37027ZM26.205 17.8947C26.205 20.3559 27.0157 21.601 28.4056 21.601C30.2588 21.601 31.7066 18.6186 31.7066 14.9701C31.7066 12.4799 30.8958 11.2638 29.5638 11.2638C27.7107 11.2638 26.205 14.2173 26.205 17.8947ZM38.8007 14.6806C38.8007 21.3694 34.0809 26.9578 27.7975 26.9578C22.1801 26.9578 19.2845 23.1357 19.2845 18.1263C19.2845 11.4665 24.0622 5.90698 30.2877 5.90698C35.992 5.90698 38.8007 9.72914 38.8007 14.6806ZM114.173 17.8947C114.173 20.3559 114.983 21.601 116.373 21.601C118.226 21.601 119.674 18.6186 119.674 14.9701C119.674 12.4799 118.863 11.2638 117.531 11.2638C115.678 11.2638 114.173 14.2173 114.173 17.8947ZM127 14.5647C127 21.3404 122.193 26.9868 115.852 26.9868C110.148 26.9868 107.252 23.1067 107.252 18.0394C107.252 11.2927 112.088 5.64637 118.4 5.64637C124.162 5.64637 127 9.52645 127 14.5647ZM71.1443 12.3931C71.6366 8.94733 71.376 5.84906 67.5538 5.84906C64.774 5.84906 61.7916 8.19448 59.6778 12.1035C60.1411 8.86046 59.8805 5.84906 56.0873 5.84906C53.2496 5.84906 50.1514 8.3103 48.0376 12.3931C48.5878 9.72914 48.4719 6.68878 48.2982 6.05176C46.0976 6.42818 44.1865 6.63087 41.4936 6.68878C41.5805 8.54195 41.4647 10.9742 41.1172 13.2617L40.2196 19.3135C39.8721 21.6879 39.4957 24.4387 39.0903 26.176H46.2424C46.2713 25.1336 46.5609 23.4831 46.7346 22.0064L47.3427 17.8368C47.8349 15.1439 50.0066 11.9298 51.6571 11.9298C52.6126 11.9298 52.5837 12.8564 52.3231 14.5937L51.6281 19.2845C51.2807 21.6589 50.9042 24.4097 50.4989 26.1471H57.7378C57.7668 25.1046 57.9984 23.4542 58.2011 21.9774L58.8092 17.8078C59.3014 15.1149 61.4731 11.9008 63.1236 11.9008C64.0791 11.9008 64.0502 12.7984 63.9054 13.9856L62.168 26.0891H68.7699L71.1443 12.3931ZM105.689 20.5007L104.907 25.2784C103.72 25.9154 101.49 26.842 98.9129 26.842C94.5406 26.842 93.6429 24.4966 94.3379 19.5451L95.4672 11.5534H93.2955L93.9035 6.37027L96.249 6.25445L97.1466 2.4902L103.806 0L102.967 6.25445H107.542C107.397 6.89147 106.847 10.453 106.702 11.5534H102.243L101.229 18.9371C100.969 20.8482 101.114 21.5141 102.417 21.5141C103.401 21.5141 104.82 20.935 105.689 20.5007Z" fill="white"/>
<path d="M80.4686 22.7591C82.9009 22.4695 84.5514 20.1241 84.9568 17.8077L85.0147 17.1706C83.9723 16.939 82.4666 16.7653 81.0188 16.939C79.6289 17.1127 78.4707 17.6918 77.8626 18.5316C77.3993 19.1396 77.1677 19.8635 77.2546 20.7032C77.3993 21.9773 78.8182 22.9618 80.4686 22.7591ZM78.3838 26.4654C74.967 26.8998 72.7085 25.5388 72.0425 22.4406C71.6082 20.5005 72.2162 18.2999 73.2297 16.9679C74.6196 15.2306 76.8492 14.1303 79.6 13.7828C81.8006 13.5222 83.6538 13.638 85.3911 13.9855L85.478 13.6959C85.5359 13.2326 85.5649 12.7404 85.5069 12.1613C85.3332 10.7135 84.175 9.81587 81.3373 10.1633C79.4262 10.395 77.5731 11.0899 76.1542 11.8717L74.7644 7.7021C76.6754 6.60178 79.1077 5.76206 81.8875 5.41459C87.1864 4.74861 90.9217 6.457 91.385 10.3371C91.5008 11.3795 91.5298 12.4798 91.385 13.4643C90.69 18.271 90.2557 21.8904 90.082 24.3227C90.053 24.6991 90.053 25.3362 90.082 26.2627H83.509C83.6538 25.8863 83.7696 25.3651 83.8854 24.7281C83.9723 24.2938 84.0012 23.7725 84.0592 23.1066C82.6982 25.0176 80.7872 26.1759 78.3838 26.4654Z" fill="white"/>
</svg>
