<svg width="1643" height="1384" viewBox="0 0 1643 1384" fill="none" xmlns="http://www.w3.org/2000/svg">
<path d="M622.301 698.668L320.896 324.844L56.2986 144.098L0 944.348H464.234C527.49 889.652 579.428 822.547 616.132 746.885L622.301 698.668Z" fill="#72A9E1"/>
<path d="M1246.72 142.527H55.2969V896.2H1246.72V142.527Z" fill="#CEE6FF"/>
<path d="M1246.72 736.809H55.2969V896.2H1246.72V736.809Z" fill="#7CB7F2"/>
<mask id="mask0_818_6134" style="mask-type:alpha" maskUnits="userSpaceOnUse" x="200" y="269" width="288" height="405">
<path d="M487.548 269.812H200.049V673.084H487.548V269.812Z" fill="white"/>
</mask>
<g mask="url(#mask0_818_6134)">
<path d="M334.107 589.254L304.728 596.569C304.728 596.569 261.392 602.93 222.863 609.257L233.804 699.017L435.849 711.215C435.849 711.215 441.229 650.235 434.641 623.102L388.837 605.515L347.19 594.947L337.705 589.254H334.107V589.254Z" fill="#72A9E1"/>
<path d="M269.941 671.1L222.861 609.258C222.861 609.258 161.508 793.974 161.508 936.707H385.82L408.336 724.284L400.119 662.433L269.941 671.1Z" fill="#72A9E1"/>
<path d="M434.647 623.102C459.665 651.552 480.639 687.546 522.775 757.624L616.823 641.829L650.914 662.424C650.914 662.424 584.943 811.763 525.011 855.393C525.011 855.393 433.191 812.092 383.712 724.274C326.411 622.586 426.508 648.435 426.508 648.435L434.647 623.102Z" fill="#72A9E1"/>
<path d="M319.572 375.411C319.572 375.411 283.287 420.131 272.569 473.796C261.851 527.461 284.941 546.975 323.701 538.84L304.732 596.568L315.382 638.213L388.851 605.506L402.867 501.427L431.732 459.959L425.135 392.474L387.197 375.402H319.572V375.411Z" fill="#FFA698"/>
<path d="M360.536 461.33C379.873 463.991 392.425 423.385 403.966 434.231C415.515 445.069 401.215 486.807 376.48 496.563C376.48 496.563 357.786 522.04 372.085 536.13C386.376 550.22 412.216 513.365 412.216 513.365C412.216 513.365 436.403 524.203 450.703 492.221C464.994 460.24 448.501 436.934 448.501 436.934C448.501 436.934 488.084 401.701 473.793 372.431C459.502 343.161 423.766 353.458 423.766 353.458C423.766 353.458 412.773 299.793 389.683 294.378C366.593 288.955 360.544 309.558 360.544 309.558C360.544 309.558 340.719 293.094 315.393 300.224C282.792 309.397 286.879 361.052 286.879 361.052C286.879 361.052 256.284 363.223 257.329 388.7C258.657 421.019 296.92 410.114 296.92 410.114C296.92 410.114 309.969 387.07 319.591 375.421C319.591 375.421 324.817 393.034 343.503 397.916C362.198 402.799 374.844 389.241 376.489 402.799C378.125 416.34 336.889 458.078 360.536 461.33Z" fill="#20211B"/>
<path d="M362.636 515.512C351.069 528.605 323.696 538.843 323.696 538.843L311.949 574.592C355.353 556.903 362.636 515.512 362.636 515.512Z" fill="#72A9E1"/>
<path d="M244.647 938.362C244.595 938.362 244.544 938.362 244.493 938.354C243.567 938.269 242.89 937.467 242.976 936.554C252.221 837.966 270.753 762.448 284.667 716.453C299.763 666.572 312.855 639.625 312.992 639.363C313.394 638.544 314.397 638.197 315.228 638.594C316.059 638.991 316.41 639.98 316.007 640.799C315.879 641.061 302.873 667.83 287.845 717.5C273.983 763.335 255.528 838.6 246.309 936.859C246.232 937.72 245.495 938.362 244.647 938.362Z" fill="#20211B"/>
<path d="M440.07 508.12C407.162 483.023 416.329 450.248 423.697 423.91C426.953 412.269 430.029 401.279 429.147 392.52C427.921 380.448 419.294 378.979 408.37 377.129C395.552 374.958 379.591 372.246 377.02 347.741C375.538 333.575 368.693 322.593 356.672 315.101C340.462 304.989 318.323 303.984 309.215 307.152L308.102 304.035C318.083 300.563 341.139 301.5 358.463 312.313C371.203 320.262 378.777 332.4 380.353 347.403C382.667 369.416 396.024 371.68 408.935 373.877C419.782 375.718 430.997 377.619 432.479 392.199C433.43 401.567 430.269 412.852 426.927 424.797C419.456 451.498 410.983 481.773 442.118 505.51L440.07 508.12Z" fill="#2F3027"/>
<path d="M398.489 430.541L396.176 428.15C396.347 427.99 413.397 411.754 410.321 400.942C409.113 396.701 404.735 393.745 397.307 392.131C367.003 385.576 365.478 381.935 355.548 358.249C354.306 355.284 352.9 351.922 351.29 348.222C348.3 341.346 343.476 336.768 336.947 334.605C318.552 328.523 292.344 343.086 292.078 343.238L290.416 340.366C291.538 339.733 318.21 324.925 338.01 331.471C345.481 333.938 350.981 339.141 354.366 346.921C355.985 350.647 357.399 354.017 358.641 356.991C368.203 379.798 369.428 382.729 398.018 388.913C406.749 390.805 411.975 394.547 413.543 400.055C417.167 412.768 399.252 429.823 398.489 430.541Z" fill="#2F3027"/>
<path d="M336.441 491.749C304.732 520.038 294.305 491.453 294.305 491.453L336.441 491.749Z" fill="#CEE6FF"/>
<path d="M385.877 478.832C385.38 478.832 384.883 478.782 384.378 478.68C381.961 478.19 380.282 476.72 379.52 474.423C377.112 467.192 384.763 452.815 388.773 448.422C392.32 444.537 397.615 442.813 401.093 444.418C402.73 445.17 405.36 447.299 404.52 453.06C404.392 453.964 403.535 454.589 402.627 454.462C401.71 454.335 401.076 453.499 401.205 452.595C401.479 450.678 401.445 448.228 399.671 447.409C397.546 446.429 393.776 447.873 391.257 450.627C387.256 455.003 380.908 468.02 382.698 473.384C383.084 474.55 383.812 475.183 385.046 475.436C388.173 476.07 391.789 472.759 393.819 469.414C395.798 466.145 396.047 463.416 395.276 462.495C394.53 461.608 392.286 461.752 389.278 462.859C388.413 463.18 387.445 462.749 387.119 461.896C386.794 461.042 387.231 460.088 388.096 459.767C392.757 458.044 396.038 458.246 397.846 460.375C400.151 463.095 398.763 467.699 396.698 471.103C394.445 474.845 390.375 478.832 385.877 478.832Z" fill="#72A9E1"/>
<path d="M253.316 628.957L222.857 609.258L74.8754 739.253L-121.352 776.894V811.975L83.5373 829.047C136.512 804.305 181.878 772.982 224.451 739.244L253.316 628.957Z" fill="#72A9E1"/>
<path d="M180.567 772.147C180.73 771.387 199.253 685.25 217.768 627.961C217.768 627.961 156.629 702.424 127.738 805.987C146.133 795.394 163.663 784.041 180.567 772.147Z" fill="#006E6A"/>
<path d="M488.816 674.334H198.789V268.57H488.816V674.334ZM201.308 671.842H486.28V271.062H201.308V671.842V671.842Z" fill="#2F3027"/>
</g>
<path d="M993.985 265.504H592.27V273.951H993.985V265.504Z" fill="#2F3027"/>
<path d="M765.201 335.719H592.27V338.211H765.201V335.719Z" fill="#2F3027"/>
<path d="M952.851 402.965H592.27V405.457H952.851V402.965Z" fill="#2F3027"/>
<path d="M868.022 470.207H592.27V472.699H868.022V470.207Z" fill="#2F3027"/>
<path d="M1022.26 537.445H592.27V539.937H1022.26V537.445Z" fill="#2F3027"/>
<path d="M772.561 604.695H592.27V607.187H772.561V604.695Z" fill="#2F3027"/>
<path d="M1108.05 671.934H592.27V674.426H1108.05V671.934Z" fill="#2F3027"/>
<path d="M487.548 229.652H200.049V232.144H487.548V229.652Z" fill="#2F3027"/>
<path d="M1198.48 783.328H103.523V791.775H1198.48V783.328Z" fill="#CEE6FF"/>
<path d="M1198.48 837.012H103.523V845.459H1198.48V837.012Z" fill="#CEE6FF"/>
<path d="M1248.99 899.011H55.0391V689.587H57.5666V896.519H1246.46V145.347H527.781V142.855H1248.99V899.011Z" fill="#2F3027"/>
<path d="M1360.49 799.709L1595.03 831.595C1624.33 835.852 1644.58 862.724 1640.26 891.621L1621.38 1017.92C1617.06 1046.81 1589.8 1066.77 1560.49 1062.52L1325.96 1030.63C1296.66 1026.37 1276.4 999.502 1280.72 970.605L1299.61 844.308C1303.93 815.421 1331.19 795.451 1360.49 799.709Z" fill="#CEE6FF"/>
<path d="M699.903 338.438L791.449 405.379L779.901 420.731L688.355 353.79L699.903 338.438Z" fill="#2F3027"/>
<path d="M343.46 89.7156C417.497 -8.70602 558.439 -29.3146 658.265 43.6708C758.09 116.656 778.992 255.626 704.966 354.048C630.93 452.47 489.987 473.088 390.162 400.093C290.336 327.098 269.424 188.137 343.46 89.7156ZM689.678 342.878C757.452 252.775 738.314 125.574 646.926 58.7438C555.537 -8.07675 426.522 10.7915 358.738 100.885C290.965 190.989 310.102 318.19 401.491 385.02C492.879 451.84 621.904 432.972 689.678 342.878Z" fill="#427DBA"/>
<path d="M707.905 405.147L755.412 341.992L1249.64 703.382L1202.13 766.537L707.905 405.147Z" fill="#427DBA"/>
<path d="M1291.09 870.503L1636.57 915.688L1636.18 918.563L1290.7 873.378L1291.09 870.503Z" fill="#2F3027"/>
<path d="M1349.32 1296.9L1343.44 1324.75L1346.5 1351.5L1308.59 1363.1L1304.67 1342.48L1312.51 1337.97L1304.67 1296.9L1344.09 1292.39L1349.32 1296.9Z" fill="#FFA698"/>
<path d="M1136.67 1290.92L1130.78 1318.78V1351.5L1092.87 1363.1L1088.95 1342.48L1096.79 1337.97L1092.01 1290.92L1131.43 1286.41L1136.67 1290.92Z" fill="#FFA698"/>
<path d="M1568.38 1064.53C1595.47 1064.53 1618.87 1044.58 1622.83 1018.12L1641.72 891.828C1643.86 877.473 1640.21 863.147 1631.44 851.506C1622.66 839.854 1609.81 832.283 1595.25 830.16L1360.7 798.274C1358.03 797.89 1355.31 797.684 1352.61 797.684C1325.53 797.684 1302.12 817.633 1298.17 844.092L1279.29 970.388C1277.14 984.744 1280.79 999.069 1289.57 1010.71C1298.34 1022.36 1311.2 1029.93 1325.76 1032.06L1560.31 1063.94C1562.97 1064.34 1565.7 1064.53 1568.38 1064.53ZM1352.6 800.584C1355.16 800.584 1357.74 800.771 1360.28 801.145L1594.84 833.031C1608.61 835.037 1620.78 842.204 1629.08 853.236C1637.39 864.258 1640.85 877.817 1638.82 891.405L1619.93 1017.7C1616.19 1042.74 1594.03 1061.63 1568.39 1061.63C1565.85 1061.63 1563.26 1061.45 1560.72 1061.07L1326.17 1029.19C1312.39 1027.18 1300.23 1020.01 1291.92 1008.98C1283.61 997.958 1280.15 984.4 1282.19 970.811L1301.08 844.515C1304.82 819.472 1326.96 800.584 1352.6 800.584Z" fill="#2F3027"/>
<path d="M1538.74 891.522L1565.03 895.091C1568.31 895.573 1570.58 898.582 1570.09 901.817L1567.98 915.965C1567.49 919.2 1564.44 921.442 1561.16 920.96L1534.87 917.391C1531.59 916.909 1529.32 913.901 1529.8 910.666L1531.92 896.517C1532.41 893.282 1535.46 891.04 1538.74 891.522Z" fill="#CEE6FF"/>
<path d="M1562.05 922.486C1565.73 922.486 1568.91 919.772 1569.44 916.184L1571.55 902.035C1571.84 900.088 1571.35 898.141 1570.16 896.558C1568.96 894.975 1567.21 893.943 1565.24 893.658L1538.94 890.079C1538.59 890.029 1538.22 890 1537.85 890C1534.17 890 1530.99 892.704 1530.46 896.302L1528.35 910.451C1527.75 914.473 1530.58 918.229 1534.66 918.819L1560.96 922.398C1561.31 922.466 1561.68 922.486 1562.05 922.486ZM1537.86 892.91C1538.08 892.91 1538.31 892.93 1538.53 892.959L1564.83 896.538C1566.02 896.715 1567.07 897.335 1567.8 898.298C1568.53 899.262 1568.83 900.442 1568.65 901.622L1566.54 915.771C1566.21 917.953 1564.28 919.595 1562.05 919.595C1561.83 919.595 1561.6 919.576 1561.38 919.546L1535.08 915.967C1532.62 915.613 1530.9 913.332 1531.26 910.884L1533.38 896.735C1533.71 894.552 1535.63 892.91 1537.86 892.91Z" fill="#2F3027"/>
<path d="M1357.43 867.678L1383.72 871.248C1387 871.729 1389.27 874.738 1388.79 877.973L1386.67 892.122C1386.18 895.357 1383.13 897.598 1379.85 897.117L1353.56 893.547C1350.28 893.066 1348.01 890.057 1348.5 886.822L1350.61 872.673C1351.09 869.439 1354.15 867.197 1357.43 867.678Z" fill="#CEE6FF"/>
<path d="M1380.73 898.64C1384.41 898.64 1387.59 895.936 1388.12 892.338L1390.23 878.179C1390.52 876.232 1390.02 874.286 1388.83 872.703C1387.64 871.12 1385.9 870.087 1383.92 869.802L1357.62 866.223C1357.27 866.174 1356.9 866.145 1356.53 866.145C1352.85 866.145 1349.68 868.848 1349.14 872.447L1347.03 886.596C1346.43 890.617 1349.26 894.373 1353.34 894.963L1379.64 898.542C1379.99 898.611 1380.36 898.64 1380.73 898.64ZM1356.54 869.065C1356.76 869.065 1356.99 869.084 1357.21 869.114L1383.51 872.693C1384.7 872.87 1385.75 873.489 1386.48 874.453C1387.21 875.416 1387.51 876.596 1387.33 877.776L1385.21 891.935C1384.89 894.117 1382.96 895.759 1380.73 895.759C1380.51 895.759 1380.28 895.74 1380.06 895.71L1353.76 892.131C1351.3 891.777 1349.58 889.496 1349.94 887.048L1352.06 872.899C1352.38 870.707 1354.32 869.065 1356.54 869.065Z" fill="#2F3027"/>
<path d="M1224.31 705.268L1290.95 739.092C1290.95 739.092 1317.77 873.224 1341.42 1037.68C1365.08 1202.14 1368.63 1318.78 1368.63 1318.78H1304.74C1304.74 1318.78 1258.61 1117 1244.41 1047.01C1230.21 977.024 1179.35 840.561 1179.35 840.561C1179.35 840.561 1169.89 1042.34 1171.07 1103C1172.26 1163.65 1166.35 1318.78 1166.35 1318.78H1094.18C1094.18 1318.78 1087.87 1233.63 1076.83 1120.5C1065.79 1007.36 1058.3 806.748 1063.82 739.092L1153.73 695.938L1215.3 706.438L1224.31 705.268Z" fill="#72A9E1"/>
<path d="M1452.63 723.539C1452.63 723.539 1436.07 737.147 1433.7 749.978C1431.34 762.809 1435.28 775.247 1438.04 775.641C1440.8 776.034 1445.53 775.641 1445.53 775.641C1445.53 775.641 1445.93 787.302 1457.76 792.749C1469.58 798.196 1472.74 788.865 1484.17 790.419C1495.6 791.972 1504.68 781.865 1507.84 771.364C1510.99 760.863 1507.44 740.264 1486.55 723.539H1452.63Z" fill="#FFA698"/>
<path d="M1128.38 1344.16C1140.18 1334.19 1148.37 1367.81 1147.66 1383.11H1003.76C1003.76 1383.11 1004.47 1368.51 1029.15 1362.25C1053.85 1355.98 1063.54 1350.43 1071.98 1344.16C1080.41 1337.9 1090.99 1329.56 1097.35 1333.73C1103.7 1337.9 1098.75 1346.25 1098.75 1346.25C1098.75 1346.25 1118.51 1352.5 1128.38 1344.16Z" fill="#20211B"/>
<path d="M1344.1 1344.16C1355.9 1334.19 1364.08 1367.81 1363.38 1383.11H1219.48C1219.48 1383.11 1220.19 1368.51 1244.87 1362.25C1269.56 1355.98 1279.26 1350.43 1287.69 1344.16C1296.13 1337.9 1306.71 1329.56 1313.06 1333.73C1319.42 1337.9 1314.47 1346.25 1314.47 1346.25C1314.47 1346.25 1334.23 1352.5 1344.1 1344.16Z" fill="#20211B"/>
<path d="M1528.27 823.384L1531.21 823.305C1530.7 805.41 1524.31 763.19 1476.47 757.576C1432.56 752.414 1415.55 786.227 1409.32 806.836L1412.14 807.662C1418.11 787.928 1434.34 755.541 1476.12 760.457C1521.7 765.796 1527.77 806.236 1528.27 823.384Z" fill="#2F3027"/>
<path d="M1063.82 739.091L1089.43 726.801L1290.96 739.091L1062.19 777.113C1062.47 762.02 1063 749.091 1063.82 739.091Z" fill="#4E8AC7"/>
<path d="M982.192 200.231C982.192 200.231 1009.8 272.932 1034.25 286.54C1058.7 300.147 1078.02 274.102 1078.02 274.102L1088.67 307.541L1153.73 289.656L1111.14 222.01C1111.14 222.01 1069.73 185.08 1063.42 183.133C1057.11 181.186 995.196 174.195 995.196 174.195L982.192 200.231Z" fill="#FFA698"/>
<path d="M1127.31 178.462C1134.01 171.078 1141.11 153.97 1135.58 145.416C1130.06 136.862 1116.26 144.639 1111.92 131.415C1107.58 118.2 1099.69 90.9842 1073.66 85.5371C1047.63 80.09 1037.78 110.806 1023.98 105.369C1010.18 99.9218 986.522 92.931 977.846 109.253C969.17 125.574 983.76 138.415 972.72 158.237C961.681 178.059 944.727 184.283 951.429 201.008C958.13 217.723 993.423 226.582 993.423 226.582C993.423 226.582 995.996 210.722 1001.91 195.177C1007.82 179.623 1022.02 178.462 1023.2 192.07C1024.39 205.678 1018.86 233.504 1033.06 226.592C1047.27 219.68 1041.74 186.24 1061.06 197.134C1080.38 208.018 1058.69 237.181 1073.67 248.459C1088.66 259.737 1111.13 256.62 1110.74 236.021C1110.74 236.021 1137.16 235.628 1142.28 218.136C1147.42 200.625 1127.31 178.462 1127.31 178.462Z" fill="#20211B"/>
<path d="M1084.52 262.824L1081.83 286.097L1078.01 274.102L1084.52 262.824Z" fill="#72A9E1"/>
<path d="M1278.34 286.097C1256.59 272.528 1204.2 281.092 1143.13 302.871C1068.79 329.379 1037.8 331.641 1001.52 382.189C965.24 432.727 947.1 500.383 878.489 502.713C809.878 505.044 765.709 419.512 765.709 419.512L738.105 442.844C738.105 442.844 761.77 589.808 869.025 610.8C976.28 631.792 1040.95 567.253 1040.95 567.253L1063.82 739.092H1290.95C1290.95 739.092 1326.45 664.445 1328.02 540.814C1328.02 540.814 1419.51 631.792 1452.63 723.548H1486.55C1486.55 723.538 1498.37 423.396 1278.34 286.097Z" fill="#72A9E1"/>
<path d="M765.701 419.511C765.701 419.511 767.964 380.142 761.462 373.436C754.96 366.731 751.41 375.767 751.41 375.767C751.41 375.767 748.747 353.31 736.331 352.435C723.916 351.559 722.43 361.185 712.078 368.471C701.726 375.757 696.112 376.052 699.363 394.714C702.614 413.375 724.793 436.412 738.107 442.823L765.701 419.511Z" fill="#FFA698"/>
<path d="M1192.95 287.63C1192.95 287.63 1172.63 276.362 1141.1 269.598L1084.52 294.542L1071.12 327.894L1192.95 287.63Z" fill="#CEE6FF"/>
<path d="M1307.5 343.262C1307.5 343.262 1373.64 437.239 1363.55 580.142C1343.26 555.965 1328.02 540.803 1328.02 540.803C1328.02 540.803 1342.79 450.562 1307.5 343.262Z" fill="#4E8AC7"/>
<path d="M972.729 158.247C983.769 138.415 969.179 125.584 977.855 109.262C986.531 92.9307 1010.19 99.9313 1023.99 105.378C1037.79 110.826 1047.64 80.1093 1073.67 85.5466C1099.7 90.9937 1107.59 118.21 1111.93 131.424C1116.26 144.639 1130.07 136.871 1135.59 145.425C1141.12 153.98 1134.02 171.088 1127.31 178.472C1127.31 178.472 1139.52 191.932 1142.49 206.15C1132.95 214.183 1121.43 218.106 1112.38 207.389C1093.21 184.666 1085.33 172.061 1071.13 169.908C1056.93 167.755 1050.55 190.428 1036.33 169.908C1022.11 149.388 1021.14 129.566 1009.37 135.849C998.907 141.434 983.41 181.412 958.039 177.636C962.547 172.356 968.142 166.477 972.729 158.247Z" fill="#2F3027"/>
<path d="M1115.75 478.219C1100.64 552.237 1065.34 587.368 1045.54 601.792L1040.94 567.251C1092.96 524.155 1115.75 478.219 1115.75 478.219Z" fill="#4E8AC7"/>
<path d="M887.404 548.719C900.408 548.719 913.931 546.605 927.922 542.358C950.341 535.564 971.901 520.029 992.016 496.195C1008.03 477.209 1023.18 452.923 1037.04 424.016C1060.61 374.854 1072.44 328.691 1072.55 328.229L1069.7 327.531C1069.58 327.993 1057.82 373.92 1034.37 422.826C1012.81 467.799 976.688 524.561 927.075 539.595C854.325 561.639 797.292 526.115 752.734 431.017L750.062 432.236C768.96 472.558 789.393 501.504 812.54 520.727C834.988 539.359 860.059 548.719 887.404 548.719Z" fill="#CEE6FF"/>
<path d="M1274.97 1134.45C1293.39 1226.04 1343.16 1289.64 1368.58 1317.21C1368.62 1318.24 1368.63 1318.78 1368.63 1318.78H1304.74C1304.74 1318.78 1258.61 1117 1244.41 1047.01C1230.21 977.025 1179.35 840.562 1179.35 840.562H1215.29C1215.3 840.563 1249.79 1009.22 1274.97 1134.45Z" fill="#4E8AC7"/>
<path d="M1228.9 836.821L1229.04 839.719L1179.35 842.053L1179.21 839.156L1228.9 836.821Z" fill="#CEE6FF"/>
<path d="M1062.4 767.949L1075.74 762.758C1075.74 762.758 1075.88 904.884 1086.01 1026.69C1096.14 1148.49 1103 1242.26 1115.75 1269.33C1122.02 1282.64 1129.85 1302.27 1136.19 1318.78H1094.19C1094.19 1318.78 1087.87 1233.63 1076.83 1120.5C1067.08 1020.59 1060.1 852.488 1062.4 767.949Z" fill="#4E8AC7"/>
<path d="M1500.11 756.474L1506.81 765.333L1508.36 769.217C1508.36 769.217 1507.15 775.352 1504.24 779.265C1501.32 783.179 1479.85 775.49 1479.85 775.49C1479.85 775.49 1464.66 773.238 1464 773.553C1463.34 773.877 1451.9 771.134 1451.9 771.134L1450.43 751.479C1450.43 751.479 1465.47 748.903 1469.06 749.227C1472.66 749.552 1482.51 751.322 1486.66 751.971C1490.79 752.61 1500.11 756.474 1500.11 756.474Z" fill="#FFA698"/>
<path d="M685.076 226.799C687.829 226.799 690.062 224.597 690.062 221.883C690.062 131.72 615.667 58.3711 524.218 58.3711C521.466 58.3711 519.232 60.5735 519.232 63.2873C519.232 66.001 521.466 68.2034 524.218 68.2034C610.172 68.2034 680.09 137.148 680.09 221.883C680.09 224.597 682.314 226.799 685.076 226.799Z" fill="#CEE6FF"/>
</svg>
