<svg width="1539" height="1363" viewBox="0 0 1539 1363" fill="none" xmlns="http://www.w3.org/2000/svg">
<path d="M702.754 591.164H421.775V382.238H598.462L614.497 468.929L702.754 504.735V591.164Z" fill="#282C2E"/>
<path opacity="0.1" d="M702.754 591.164H421.775V382.238H598.462L614.497 468.929L702.754 504.735V591.164Z" fill="white"/>
<path opacity="0.1" d="M572.389 591.164H413.084V382.238H468.098L484.132 468.929L572.389 504.735V591.164Z" fill="white"/>
<path opacity="0.2" d="M593.071 422.084L588.334 396.402H486.824L491.561 422.084H593.071Z" fill="black"/>
<path opacity="0.2" d="M493.691 433.559L497.081 451.896H598.591L595.202 433.559H493.691Z" fill="black"/>
<path opacity="0.3" d="M484.135 468.93H614.499L702.756 504.736H572.391L484.135 468.93Z" fill="white"/>
<path d="M823.428 374.328C823.428 374.328 810.652 409.308 800.875 410.438C791.097 411.567 727.523 304.932 727.523 304.932C727.523 304.932 720.223 283.77 708.186 278.034C696.149 272.298 660.385 251.962 651.173 256.568C641.961 261.174 646.828 296.371 646.828 304.367C646.828 311.406 677.246 321.748 686.371 323.487C692.279 324.706 698.414 324.162 704.014 321.922C704.014 321.922 754.987 447.417 788.056 469.405C821.125 491.392 870.924 416.608 870.924 416.608L823.428 374.328Z" fill="#F8A58D"/>
<path d="M912.989 226.585C940.452 240.578 932.587 307.931 862.364 433.687L814.26 394.578C825.695 355.492 840.466 317.461 858.41 280.903C886.873 224.152 912.989 226.585 912.989 226.585Z" fill="#7BD4BB"/>
<path opacity="0.4" d="M912.989 226.585C940.452 240.578 932.587 307.931 862.364 433.687L814.26 394.578C825.695 355.492 840.466 317.461 858.41 280.903C886.873 224.152 912.989 226.585 912.989 226.585Z" fill="white"/>
<path d="M1148.86 529.285H962.005C944.232 626.405 888.566 969.994 928.501 1276.13L991.685 1268.26C991.685 1268.26 985.818 861.837 1041.74 711.617C1048.18 792.007 1055.78 877.568 1062.43 923.107C1078.59 1035.13 1113.36 1280.04 1113.36 1280.04H1177.8C1177.8 1280.04 1164.77 1045.65 1158.51 935.492C1151.99 815.95 1149.12 553.706 1148.86 529.285Z" fill="#282C2E"/>
<path d="M899.602 227.541C918.939 223.196 1020.93 200.339 1103.23 203.555C1103.23 203.555 1129.69 474.75 1154.51 584.993L939.276 622.711C939.276 622.711 890.954 352.862 896.212 231.626C896.247 230.666 896.598 229.745 897.211 229.006C897.824 228.267 898.665 227.752 899.602 227.541V227.541Z" fill="#7BD4BB"/>
<path opacity="0.6" d="M899.602 227.541C918.939 223.196 1020.93 200.339 1103.23 203.555C1103.23 203.555 1129.69 474.75 1154.51 584.993L939.276 622.711C939.276 622.711 890.954 352.862 896.212 231.626C896.247 230.666 896.598 229.745 897.211 229.006C897.824 228.267 898.665 227.752 899.602 227.541V227.541Z" fill="white"/>
<path d="M1084.03 199.906C1084.03 199.906 1059.39 303.5 1126.74 391.494L1143.39 501.997L1162.72 593.511L1055.65 621.756L1017.28 535.848L1013.41 630.708L928.197 643.135L918.941 534.501C918.941 534.501 904.21 448.723 900.43 401.619C900.43 401.619 887.654 292.463 907.556 222.85L935.585 216.81C935.585 216.81 937.149 283.338 979.735 336.699C979.735 336.699 1020.15 230.194 1056.82 200.037L1084.03 199.906Z" fill="#7BD4BB"/>
<path opacity="0.2" d="M1084.03 199.906C1084.03 199.906 1059.39 303.5 1126.74 391.494L1143.39 501.997L1162.72 593.511L1055.65 621.756L1017.28 535.848L1013.41 630.708L928.197 643.135L918.941 534.501C918.941 534.501 904.21 448.723 900.43 401.619C900.43 401.619 887.654 292.463 907.556 222.85L935.585 216.81C935.585 216.81 937.149 283.338 979.735 336.699C979.735 336.699 1020.15 230.194 1056.82 200.037L1084.03 199.906Z" fill="black"/>
<path d="M806.004 392.147L815.043 384.891L870.013 431.386L861.191 447.16L806.004 392.147Z" fill="#7BD4BB"/>
<path opacity="0.3" d="M806.004 392.147L815.043 384.891L870.013 431.386L861.191 447.16L806.004 392.147Z" fill="white"/>
<path d="M984.819 1329.45L948.49 1333.27L941.668 1254.88L977.996 1251.01L984.819 1329.45Z" fill="#F8A58D"/>
<path d="M1166.28 1326.8H1131.04L1128.13 1245.19H1163.37L1166.28 1326.8Z" fill="#F8A58D"/>
<path d="M1126.13 1322.84H1168.94C1169.64 1322.85 1170.33 1323.09 1170.88 1323.53C1171.43 1323.98 1171.82 1324.59 1171.98 1325.27L1178.89 1356.65C1179.04 1357.32 1179.05 1358.01 1178.93 1358.68C1178.8 1359.35 1178.55 1359.99 1178.18 1360.57C1177.81 1361.14 1177.32 1361.64 1176.76 1362.02C1176.2 1362.41 1175.56 1362.68 1174.89 1362.82C1174.52 1362.86 1174.14 1362.86 1173.76 1362.82C1159.9 1362.6 1149.82 1361.78 1132.44 1361.78C1121.7 1361.78 1089.42 1362.86 1074.6 1362.86C1059.78 1362.86 1057.91 1348.26 1063.95 1346.91C1091.11 1341 1111.53 1332.79 1120.22 1325.19C1121.83 1323.69 1123.94 1322.85 1126.13 1322.84V1322.84Z" fill="#282C2E"/>
<path d="M1114.49 1328.92C1112.1 1329.1 1109.73 1328.45 1107.75 1327.1C1107.12 1326.58 1106.62 1325.91 1106.31 1325.15C1106 1324.39 1105.88 1323.57 1105.97 1322.75C1105.97 1322.27 1106.1 1321.8 1106.35 1321.39C1106.61 1320.98 1106.97 1320.66 1107.4 1320.45C1111.32 1318.41 1122.7 1325.4 1123.96 1326.23C1124.1 1326.3 1124.21 1326.42 1124.28 1326.56C1124.36 1326.7 1124.38 1326.86 1124.35 1327.01C1124.33 1327.18 1124.26 1327.34 1124.15 1327.47C1124.05 1327.6 1123.9 1327.7 1123.74 1327.75C1120.7 1328.44 1117.6 1328.84 1114.49 1328.92V1328.92ZM1109.27 1321.58C1108.89 1321.57 1108.52 1321.66 1108.19 1321.84C1107.97 1321.84 1107.67 1322.14 1107.62 1322.8C1107.56 1323.35 1107.63 1323.91 1107.83 1324.43C1108.02 1324.95 1108.34 1325.42 1108.75 1325.79C1112.7 1327.61 1117.19 1327.84 1121.31 1326.45C1117.64 1324.08 1113.56 1322.43 1109.27 1321.58Z" fill="#7BD4BB"/>
<path d="M1123.52 1327.67H1123.09C1119.48 1325.67 1112.44 1317.93 1113.14 1314.2C1113.27 1313.58 1113.61 1313.03 1114.1 1312.63C1114.59 1312.23 1115.2 1312.02 1115.83 1312.02C1116.47 1311.94 1117.11 1311.99 1117.72 1312.17C1118.34 1312.35 1118.91 1312.65 1119.4 1313.07C1123.48 1316.41 1124.31 1326.54 1124.35 1327.01C1124.35 1327.17 1124.32 1327.32 1124.25 1327.46C1124.18 1327.59 1124.08 1327.71 1123.96 1327.8C1123.8 1327.8 1123.65 1327.75 1123.52 1327.67V1327.67ZM1116.44 1313.37H1116.01C1114.96 1313.37 1114.88 1313.98 1114.79 1314.2C1114.35 1316.5 1118.83 1322.37 1122.48 1325.1C1122.18 1321.07 1120.66 1317.22 1118.14 1314.07C1117.66 1313.66 1117.07 1313.41 1116.44 1313.37V1313.37Z" fill="#7BD4BB"/>
<path d="M944.626 1321.58H987.342C988.04 1321.6 988.712 1321.85 989.254 1322.29C989.796 1322.73 990.178 1323.34 990.34 1324.02L997.293 1355.39C997.577 1356.74 997.316 1358.14 996.566 1359.3C995.817 1360.46 994.641 1361.27 993.295 1361.56H992.165C978.303 1361.3 968.222 1360.47 950.84 1360.47C940.106 1360.47 907.776 1361.6 893.001 1361.6C878.227 1361.6 876.271 1346.96 882.355 1345.61C909.514 1339.7 929.938 1331.49 938.629 1323.89C940.26 1322.38 942.406 1321.56 944.626 1321.58V1321.58Z" fill="#282C2E"/>
<path d="M932.975 1327.79C930.58 1327.98 928.193 1327.35 926.196 1326.01C925.582 1325.48 925.105 1324.81 924.802 1324.05C924.5 1323.29 924.382 1322.48 924.458 1321.67C924.447 1321.19 924.577 1320.71 924.832 1320.3C925.086 1319.89 925.455 1319.57 925.892 1319.36C929.803 1317.32 941.188 1324.32 942.448 1325.14C942.584 1325.22 942.693 1325.34 942.763 1325.48C942.833 1325.61 942.859 1325.77 942.839 1325.93C942.818 1326.1 942.744 1326.26 942.628 1326.4C942.512 1326.53 942.358 1326.62 942.187 1326.66C939.169 1327.39 936.079 1327.77 932.975 1327.79ZM927.717 1320.49C927.355 1320.46 926.99 1320.53 926.674 1320.71C926.413 1320.71 926.153 1321.02 926.109 1321.71C926.054 1322.26 926.127 1322.82 926.323 1323.34C926.519 1323.86 926.832 1324.33 927.239 1324.71C931.203 1326.47 935.682 1326.69 939.797 1325.32C936.11 1322.96 932.011 1321.33 927.717 1320.49Z" fill="#7BD4BB"/>
<path d="M941.972 1326.54H941.581C937.931 1324.58 930.935 1316.8 931.63 1313.07C931.76 1312.45 932.1 1311.9 932.59 1311.5C933.081 1311.1 933.694 1310.89 934.324 1310.89C934.955 1310.81 935.597 1310.86 936.205 1311.04C936.813 1311.23 937.373 1311.55 937.844 1311.98C941.929 1315.28 942.798 1325.41 942.842 1325.88C942.84 1326.04 942.804 1326.19 942.736 1326.32C942.668 1326.46 942.571 1326.57 942.45 1326.67C942.282 1326.67 942.116 1326.63 941.972 1326.54ZM934.889 1312.24H934.498C933.412 1312.24 933.325 1312.85 933.282 1313.07C932.847 1315.37 937.323 1321.24 940.973 1323.97C940.669 1319.94 939.155 1316.09 936.627 1312.94C936.136 1312.53 935.527 1312.28 934.889 1312.24V1312.24Z" fill="#7BD4BB"/>
<path opacity="0.2" d="M977.996 1251.01L941.668 1254.88L945.188 1295.34L981.56 1291.47L977.996 1251.01Z" fill="black"/>
<path opacity="0.2" d="M1163.37 1245.23H1128.13L1129.65 1287.29H1164.94L1163.37 1245.23Z" fill="black"/>
<path d="M921.113 1290.86L999.462 1279.21L997.072 1257.48L915.551 1268.22L921.113 1290.86Z" fill="#7BD4BB"/>
<path opacity="0.6" d="M921.113 1290.86L999.462 1279.21L997.072 1257.48L915.551 1268.22L921.113 1290.86Z" fill="white"/>
<path d="M1105.71 1280.56H1181.71V1257.83L1102.84 1256.36L1105.71 1280.56Z" fill="#7BD4BB"/>
<path opacity="0.6" d="M1105.71 1280.56H1181.71V1257.83L1102.84 1256.36L1105.71 1280.56Z" fill="white"/>
<path opacity="0.2" d="M1041.66 711.62C1032.45 738.018 1025.47 765.141 1020.8 792.705C1015.54 721.136 1036.49 645.266 1036.49 645.266L1041.66 711.62Z" fill="black"/>
<path d="M1034.58 205.815C1021.02 224.587 978.651 227.542 978.651 227.542C978.651 227.542 951.491 225.934 955.185 216.766C969.786 211.073 975.609 202.469 976.912 192.779C977.387 186.83 976.663 180.845 974.783 175.18C973.864 171.991 972.761 168.857 971.481 165.794L1014.37 117.387C1012.81 143.807 1014.33 191.258 1034.58 205.815Z" fill="#F8A58D"/>
<path opacity="0.2" d="M1007.5 143.938C1011.85 174.877 988.643 188.608 976.737 192.91C977.211 186.96 976.487 180.976 974.607 175.311L1007.5 143.938Z" fill="black"/>
<path d="M921.374 45.7782C921.374 45.7782 910.771 93.5775 935.236 114.131C959.701 134.685 965.654 44.3008 965.654 44.3008L921.374 45.7782Z" fill="#282C2E"/>
<path d="M1007.28 157.668C1001.35 165.282 993.082 170.741 983.749 173.205C974.416 175.67 964.532 175.005 955.613 171.312C944.01 166.749 934.578 157.94 929.236 146.674C928.451 145.112 927.769 143.501 927.194 141.85C916.548 111.433 916.026 59.288 948.617 41.9065C955.802 38.0484 963.854 36.0926 972.008 36.2251C980.162 36.3576 988.147 38.574 995.202 42.6635C1002.26 46.753 1008.15 52.5796 1012.32 59.5891C1016.49 66.5986 1018.79 74.5578 1019.01 82.7097C1020.53 117.69 1023.06 138.157 1007.28 157.668Z" fill="#F8A58D"/>
<path d="M967.308 97.919C967.786 100.7 966.352 103.177 964.484 103.394C962.615 103.612 960.921 101.395 960.616 98.5709C960.312 95.7463 961.616 93.3128 963.441 93.139C965.266 92.9652 967.004 95.051 967.308 97.919Z" fill="#282C2E"/>
<path d="M935.192 101.18C935.67 103.961 934.192 106.438 932.324 106.655C930.455 106.872 928.76 104.656 928.456 101.875C928.152 99.094 929.456 96.5737 931.281 96.3999C933.106 96.226 935.192 98.5291 935.192 101.18Z" fill="#282C2E"/>
<path d="M945.663 101.527C943.153 110.517 939.44 119.127 934.625 127.122C936.706 128.309 939.021 129.026 941.409 129.221C943.796 129.416 946.198 129.085 948.444 128.252L945.663 101.527Z" fill="#D58745"/>
<path d="M976.169 86.5771C975.869 86.6428 975.558 86.6336 975.262 86.5502C974.966 86.4668 974.696 86.3119 974.475 86.099C973.081 84.554 971.345 83.3563 969.406 82.6018C967.467 81.8472 965.378 81.5568 963.307 81.7536C962.902 81.7607 962.508 81.6226 962.196 81.3642C961.884 81.1057 961.675 80.7441 961.606 80.3449C961.538 79.9456 961.615 79.535 961.823 79.1876C962.032 78.8402 962.357 78.5789 962.742 78.451C965.368 78.1743 968.023 78.5265 970.486 79.4786C972.949 80.4306 975.151 81.9552 976.908 83.9263C977.063 84.0798 977.186 84.2626 977.27 84.464C977.354 84.6654 977.397 84.8814 977.397 85.0996C977.397 85.3178 977.354 85.5338 977.27 85.7352C977.186 85.9366 977.063 86.1193 976.908 86.2729C976.682 86.4182 976.432 86.5212 976.169 86.5771V86.5771Z" fill="#282C2E"/>
<path d="M920.509 91.5757C920.185 91.6819 919.835 91.6819 919.51 91.5757C919.304 91.5029 919.114 91.3898 918.951 91.2429C918.789 91.096 918.658 90.9184 918.565 90.7202C918.472 90.5221 918.419 90.3075 918.41 90.0888C918.4 89.8701 918.435 89.6518 918.51 89.4465V89.4465C919.366 86.9406 920.811 84.6771 922.724 82.8469C924.638 81.0167 926.963 79.6734 929.505 78.9304C929.716 78.8786 929.935 78.869 930.15 78.9021C930.365 78.9353 930.571 79.0105 930.757 79.1236C930.942 79.2366 931.104 79.3852 931.232 79.5609C931.36 79.7365 931.453 79.9358 931.503 80.1471C931.595 80.5788 931.515 81.0292 931.279 81.4024C931.044 81.7757 930.672 82.0425 930.243 82.1461V82.1461C928.206 82.7951 926.353 83.9228 924.841 85.4349C923.329 86.947 922.201 88.7994 921.552 90.837C921.305 91.2009 920.935 91.4632 920.509 91.5757V91.5757Z" fill="#282C2E"/>
<path d="M989.125 42.125L988.082 57.5946C990.744 58.6995 992.892 60.7658 994.1 63.3825C995.308 65.9993 995.486 68.9747 994.6 71.7171C990.255 84.7533 998.946 104.525 1009.11 111.999C1009.11 111.999 1009.11 106.35 1013.89 107.653C1018.67 108.957 1018.98 138.071 1010.5 152.367C1010.5 152.367 1023.76 139.027 1029.97 108.001C1035.75 79.3215 1035.36 55.8564 1028.93 45.0364L989.125 42.125Z" fill="#282C2E"/>
<path d="M1037.09 109.739C1035.57 113.842 1033.25 117.602 1030.27 120.802C1027.29 124.002 1023.7 126.578 1019.71 128.381C1009.11 133.204 1002.03 124.035 1003.5 113.172C1004.85 103.481 1011.93 88.9675 1023.32 88.8371C1034.7 88.7067 1040.7 99.5705 1037.09 109.739Z" fill="#F8A58D"/>
<path d="M988.075 57.5949C976.142 56.6642 964.14 57.8409 952.615 61.0712C942.621 64.281 931.942 64.7165 921.719 62.3314C921.719 62.3314 906.249 31.0446 926.716 12.0987C947.184 -6.84714 981.426 0.540018 992.507 6.97119C1003.59 13.4024 981.078 12.316 981.078 12.316C981.078 12.316 1017.32 19.0514 1033.01 32.8262C1048.69 46.6011 1044.91 69.284 1041.7 73.108C1038.48 76.9319 1035.61 68.5018 1035.61 68.5018C1028.9 71.8886 1021.39 73.3903 1013.89 72.8472C1000.37 72.6734 1006.02 60.7236 988.075 57.5949Z" fill="#282C2E"/>
<path d="M950.531 139.634C952.913 143.486 955.004 147.509 956.789 151.671C957.568 151.515 958.337 151.311 959.092 151.063C969.608 148.369 973.562 143.632 974.779 139.2C975.301 137.029 975.301 134.765 974.779 132.595C974.534 131.352 974.11 130.151 973.519 129.031C967.784 133.577 961.148 136.851 954.051 138.635L950.531 139.634Z" fill="#282C2E"/>
<path d="M954.096 138.635L956.051 142.155C965.915 139.547 972.52 136.375 974.823 132.595C974.579 131.352 974.154 130.151 973.563 129.031C967.829 133.577 961.193 136.851 954.096 138.635V138.635Z" fill="white"/>
<path d="M959.096 151.062C969.612 148.368 973.566 143.632 974.783 139.199C970.814 140.307 967.076 142.118 963.745 144.544C961.55 146.175 959.923 148.456 959.096 151.062V151.062Z" fill="#DE5753"/>
<path d="M1023.8 192.039C1012.99 205.877 999.226 217.13 983.516 224.977C978.491 218.422 975.095 210.766 973.608 202.642C965.137 206.662 957.339 211.968 950.49 218.372C951.563 228.534 955.082 238.285 960.746 246.791L982.777 231.017L1009.5 250.528C1009.5 250.528 1044.61 227.845 1052.48 204.554L1023.8 192.039Z" fill="#7BD4BB"/>
<path opacity="0.4" d="M1023.8 192.039C1012.99 205.877 999.226 217.13 983.516 224.977C978.491 218.422 975.095 210.766 973.608 202.642C965.137 206.662 957.339 211.968 950.49 218.372C951.563 228.534 955.082 238.285 960.746 246.791L982.777 231.017L1009.5 250.528C1009.5 250.528 1044.61 227.845 1052.48 204.554L1023.8 192.039Z" fill="white"/>
<path opacity="0.6" d="M1054.49 344.573L1010.94 349.25L1014.14 379.062L1057.69 374.385L1054.49 344.573Z" fill="white"/>
<path d="M1025.14 333.048L1029.49 347.432C1029.75 348.338 1030.34 349.114 1031.15 349.612C1031.95 350.109 1032.91 350.292 1033.84 350.126V350.126C1034.66 349.995 1035.42 349.604 1036.01 349.01C1036.59 348.416 1036.97 347.65 1037.09 346.823L1039.4 330.137L1025.14 333.048Z" fill="#7BD4BB"/>
<path opacity="0.4" d="M1025.14 333.048L1029.49 347.432C1029.75 348.338 1030.34 349.114 1031.15 349.612C1031.95 350.109 1032.91 350.292 1033.84 350.126V350.126C1034.66 349.995 1035.42 349.604 1036.01 349.01C1036.59 348.416 1036.97 347.65 1037.09 346.823L1039.4 330.137L1025.14 333.048Z" fill="black"/>
<path d="M1057.17 374.066C1057.17 374.066 1041.01 422.604 1034.05 433.164C1027.1 443.723 847.85 490.088 847.85 490.088C847.85 490.088 832.815 482.44 823.342 483.266C813.869 484.091 776.932 492.695 776.063 499.561C775.194 506.427 795.009 537.366 799.702 539.93C804.395 542.493 851.848 535.367 856.889 523.026C856.889 523.026 1039.96 490.175 1057.17 483.266C1074.38 476.357 1111.27 394.707 1111.27 394.707L1057.17 374.066Z" fill="#F8A58D"/>
<path d="M1103.24 203.556C1130.96 205.425 1155.16 265.131 1150.43 313.277C1145.69 361.424 1101.41 443.639 1101.41 443.639L1039.53 413.221C1039.53 413.221 1055 358.165 1072.64 306.021C1090.29 253.876 1082.29 202.122 1103.24 203.556Z" fill="#7BD4BB"/>
<path opacity="0.4" d="M1103.24 203.556C1130.96 205.425 1155.16 265.131 1150.43 313.277C1145.69 361.424 1101.41 443.639 1101.41 443.639L1039.53 413.221C1039.53 413.221 1055 358.165 1072.64 306.021C1090.29 253.876 1082.29 202.122 1103.24 203.556Z" fill="white"/>
<path d="M1032.14 418.651L1039 408.613L1111.27 433.035L1107.53 450.982L1032.14 418.651Z" fill="#7BD4BB"/>
<path opacity="0.3" d="M1032.14 418.651L1039 408.613L1111.27 433.035L1107.53 450.982L1032.14 418.651Z" fill="white"/>
<path d="M461.536 514.902H588.685C590.748 514.902 592.726 515.722 594.185 517.181C595.644 518.639 596.463 520.618 596.463 522.681V594.206H453.758V522.637C453.769 520.582 454.594 518.614 456.051 517.165C457.509 515.716 459.481 514.902 461.536 514.902V514.902Z" fill="#7BD4BB"/>
<path opacity="0.3" d="M596.246 522.637V594.162H453.758V522.637C453.758 520.586 454.573 518.618 456.023 517.168C457.474 515.717 459.441 514.902 461.493 514.902H588.685C590.706 514.948 592.629 515.783 594.042 517.228C595.455 518.674 596.246 520.615 596.246 522.637V522.637Z" fill="white"/>
<path opacity="0.4" d="M561.482 522.637V594.162H453.758V522.637C453.758 520.586 454.573 518.618 456.023 517.168C457.474 515.717 459.441 514.902 461.493 514.902H553.921C555.942 514.948 557.865 515.783 559.278 517.228C560.692 518.674 561.483 520.615 561.482 522.637V522.637Z" fill="white"/>
<path d="M1357.92 615.457H363.152V1362.82H1357.92V615.457Z" fill="#7BD4BB"/>
<path opacity="0.3" d="M1357.92 615.457H363.152V1362.82H1357.92V615.457Z" fill="white"/>
<path opacity="0.4" d="M1099.8 615.457H363.152V1362.82H1099.8V615.457Z" fill="white"/>
<path d="M1365.53 587.953H359.461C355.717 587.953 352.682 590.988 352.682 594.732V624.412C352.682 628.156 355.717 631.191 359.461 631.191H1365.53C1369.27 631.191 1372.3 628.156 1372.3 624.412V594.732C1372.3 590.988 1369.27 587.953 1365.53 587.953Z" fill="#7BD4BB"/>
<path opacity="0.2" d="M1104.8 587.953H359.461C355.717 587.953 352.682 590.988 352.682 594.732V624.412C352.682 628.156 355.717 631.191 359.461 631.191H1104.8C1108.54 631.191 1111.58 628.156 1111.58 624.412V594.732C1111.58 590.988 1108.54 587.953 1104.8 587.953Z" fill="white"/>
<path d="M1499.37 1255.1C1500.26 1253.22 1500.69 1251.15 1500.62 1249.07C1500.55 1246.99 1499.99 1244.96 1498.97 1243.14C1497.95 1241.32 1496.51 1239.78 1494.78 1238.63C1493.04 1237.48 1491.05 1236.77 1488.98 1236.55C1490.82 1231.2 1490.97 1225.41 1489.42 1219.97C1487.87 1214.53 1484.68 1209.7 1480.29 1206.13C1479.26 1205.16 1477.93 1204.56 1476.51 1204.43C1474.99 1204.6 1473.55 1205.22 1472.38 1206.22L1448.18 1223.6C1446.22 1224.77 1444.56 1226.39 1443.36 1228.33C1438.4 1237.94 1456.39 1250.06 1448.92 1258.14C1446.83 1260.4 1443.44 1260.88 1440.79 1262.49C1435.01 1266.09 1434.32 1274 1431.67 1280.26C1429.02 1286.52 1419.59 1291.34 1416.02 1285.56C1418.67 1279.57 1410.63 1274.44 1404.16 1273.66C1397.68 1272.87 1390.86 1272.53 1387.26 1266.44C1378 1274.48 1357.36 1252.02 1357.84 1242.93C1350.23 1243.5 1345.06 1250.63 1343.41 1257.71C1342.34 1265.19 1342.08 1272.77 1342.63 1280.3C1342.41 1295.03 1337.67 1309.42 1337.93 1324.11C1337.93 1335.53 1342.54 1348.22 1353.01 1352.83C1358.2 1354.69 1363.73 1355.43 1369.22 1355L1488.42 1354.26C1491.28 1354.45 1494.15 1353.97 1496.8 1352.87C1502.19 1350.05 1503.32 1342.96 1503.84 1336.92L1510.23 1259.27L1499.37 1255.1Z" fill="#7BD4BB"/>
<path opacity="0.3" d="M1499.37 1255.1C1500.26 1253.22 1500.69 1251.15 1500.62 1249.07C1500.55 1246.99 1499.99 1244.96 1498.97 1243.14C1497.95 1241.32 1496.51 1239.78 1494.78 1238.63C1493.04 1237.48 1491.05 1236.77 1488.98 1236.55C1490.82 1231.2 1490.97 1225.41 1489.42 1219.97C1487.87 1214.53 1484.68 1209.7 1480.29 1206.13C1479.26 1205.16 1477.93 1204.56 1476.51 1204.43C1474.99 1204.6 1473.55 1205.22 1472.38 1206.22L1448.18 1223.6C1446.22 1224.77 1444.56 1226.39 1443.36 1228.33C1438.4 1237.94 1456.39 1250.06 1448.92 1258.14C1446.83 1260.4 1443.44 1260.88 1440.79 1262.49C1435.01 1266.09 1434.32 1274 1431.67 1280.26C1429.02 1286.52 1419.59 1291.34 1416.02 1285.56C1418.67 1279.57 1410.63 1274.44 1404.16 1273.66C1397.68 1272.87 1390.86 1272.53 1387.26 1266.44C1378 1274.48 1357.36 1252.02 1357.84 1242.93C1350.23 1243.5 1345.06 1250.63 1343.41 1257.71C1342.34 1265.19 1342.08 1272.77 1342.63 1280.3C1342.41 1295.03 1337.67 1309.42 1337.93 1324.11C1337.93 1335.53 1342.54 1348.22 1353.01 1352.83C1358.2 1354.69 1363.73 1355.43 1369.22 1355L1488.42 1354.26C1491.28 1354.45 1494.15 1353.97 1496.8 1352.87C1502.19 1350.05 1503.32 1342.96 1503.84 1336.92L1510.23 1259.27L1499.37 1255.1Z" fill="white"/>
<path d="M1506.32 1129.12H1321.38L1322.9 1147.81L1323.99 1161.15L1326.81 1195.91L1328.42 1215.86L1330.55 1242.41L1331.46 1253.79L1331.76 1257.18L1332.85 1270.57L1334.33 1288.9L1335.24 1300.29L1336.2 1311.85L1337.28 1325.23L1338.11 1335.36L1339.02 1346.74L1339.41 1351.7H1509.15L1509.54 1346.74L1510.45 1335.4L1511.28 1325.19L1512.36 1311.8L1513.32 1300.29L1514.23 1288.9L1515.71 1270.52L1516.8 1257.18L1517.06 1253.79L1517.97 1242.41L1520.14 1215.86L1521.75 1195.96L1524.53 1161.19L1525.62 1147.85L1527.14 1129.17L1506.32 1129.12ZM1517.45 1141.38L1513.88 1137.82H1517.75L1517.45 1141.38ZM1516.53 1152.72L1516.19 1157.07L1499.63 1173.62L1480.64 1154.63L1497.63 1137.64H1501.63L1516.53 1152.72ZM1511.75 1211.9L1499.63 1224.03L1480.64 1205.04L1499.63 1186.09L1512.67 1199.13L1511.75 1211.9ZM1335.76 1199.22L1348.8 1186.18L1367.79 1205.13L1348.8 1224.11L1336.72 1211.99L1335.76 1199.22ZM1493.5 1179.92L1474.51 1198.91L1455.52 1179.92L1474.51 1160.93L1493.5 1179.92ZM1463.65 1137.82H1485.38L1474.51 1148.68L1463.65 1137.82ZM1468.34 1205.04L1449.4 1224.03L1430.58 1205.04L1449.57 1186.09L1468.34 1205.04ZM1405.29 1230.16L1424.28 1211.21L1443.23 1230.16L1424.28 1248.97L1405.29 1230.16ZM1418.11 1255.27L1399.12 1274.26L1380.17 1255.31L1399.16 1236.33L1418.11 1255.27ZM1449.4 1236.33L1468.34 1255.31L1449.4 1274.26L1430.58 1255.27L1449.4 1236.33ZM1424.28 1198.91L1405.29 1179.92L1424.28 1160.93L1443.23 1179.92L1424.28 1198.91ZM1418.11 1205.04L1399.16 1224.03L1380.17 1205.04L1399.16 1186.09L1418.11 1205.04ZM1374.09 1198.91L1355.14 1179.92L1374.09 1160.93L1393.08 1179.92L1374.09 1198.91ZM1374.09 1211.21L1393.08 1230.16L1374.09 1248.97L1355.14 1229.98L1374.09 1211.21ZM1393.08 1280.43L1374.09 1299.38L1355.14 1280.43L1374.09 1261.44L1393.08 1280.43ZM1399.21 1286.56L1418.2 1305.55L1399.25 1324.54L1380.17 1305.46L1399.21 1286.56ZM1405.38 1280.43L1424.37 1261.44L1443.31 1280.43L1424.37 1299.38L1405.38 1280.43ZM1449.48 1286.56L1468.43 1305.55L1449.48 1324.54L1430.58 1305.46L1449.48 1286.56ZM1474.6 1311.67L1493.59 1330.66L1481.29 1342.96H1467.91L1455.61 1330.66L1474.6 1311.67ZM1455.61 1280.43L1474.6 1261.44L1493.59 1280.43L1474.6 1299.38L1455.61 1280.43ZM1455.61 1230.16L1474.6 1211.21L1493.59 1230.16L1474.51 1248.97L1455.61 1230.16ZM1468.43 1154.81L1449.48 1173.8L1430.58 1154.81L1447.57 1137.82H1451.57L1468.43 1154.81ZM1424.37 1148.68L1413.5 1137.82H1435.23L1424.37 1148.68ZM1418.2 1154.81L1399.25 1173.8L1380.26 1154.81L1397.25 1137.82H1401.25L1418.2 1154.81ZM1384.95 1137.82L1374.09 1148.68L1363.27 1137.82H1384.95ZM1350.97 1137.82L1367.96 1154.81L1348.97 1173.8L1332.46 1157.24L1332.11 1152.89L1346.97 1137.99L1350.97 1137.82ZM1334.72 1137.82L1331.2 1141.34L1330.9 1137.82H1334.72ZM1333.55 1170.62L1342.85 1179.92L1334.98 1187.83L1333.55 1170.62ZM1338.72 1234.28L1337.98 1225.29L1342.85 1230.16L1338.5 1234.28H1338.72ZM1339.63 1245.71L1348.97 1236.33L1367.96 1255.31L1348.97 1274.26L1341.32 1266.61L1339.63 1245.71ZM1342.45 1280.82V1280L1342.89 1280.43L1342.5 1280.82H1342.45ZM1345.76 1321.28L1343.37 1292.16L1348.97 1286.56L1367.96 1305.55L1348.97 1324.49L1345.76 1321.28ZM1347.5 1343L1347.15 1338.66L1348.97 1336.83L1355.14 1343H1347.5ZM1355.14 1330.71L1374.09 1311.72L1393.08 1330.71L1380.78 1343H1367.4L1355.14 1330.71ZM1393.08 1343L1399.25 1336.83L1405.42 1343H1393.08ZM1417.67 1343L1405.38 1330.71L1424.37 1311.72L1443.31 1330.71L1431.06 1343H1417.67ZM1443.31 1343L1449.48 1336.83L1455.65 1343H1443.31ZM1501.19 1343H1493.55L1499.72 1336.83L1501.54 1338.66L1501.19 1343ZM1502.98 1321.28L1499.72 1324.49L1480.64 1305.46L1499.63 1286.47L1505.24 1292.08L1502.98 1321.28ZM1506.32 1279.95V1280.82L1505.93 1280.43L1506.41 1279.95H1506.32ZM1507.41 1266.61L1499.72 1274.26L1480.73 1255.31L1499.72 1236.33L1509.1 1245.71L1507.41 1266.61ZM1510.02 1234.33L1505.67 1229.98L1510.58 1225.11L1510.02 1234.33ZM1515.1 1170.75L1513.71 1188.14L1505.76 1180.18L1515.1 1170.84V1170.75Z" fill="#7BD4BB"/>
<g opacity="0.6">
<path opacity="0.6" d="M1506.32 1129.12H1321.38L1322.9 1147.81L1323.99 1161.15L1326.81 1195.91L1328.42 1215.86L1330.55 1242.41L1331.46 1253.79L1331.76 1257.18L1332.85 1270.57L1334.33 1288.9L1335.24 1300.29L1336.2 1311.85L1337.28 1325.23L1338.11 1335.36L1339.02 1346.74L1339.41 1351.7H1509.15L1509.54 1346.74L1510.45 1335.4L1511.28 1325.19L1512.36 1311.8L1513.32 1300.29L1514.23 1288.9L1515.71 1270.52L1516.8 1257.18L1517.06 1253.79L1517.97 1242.41L1520.14 1215.86L1521.75 1195.96L1524.53 1161.19L1525.62 1147.85L1527.14 1129.17L1506.32 1129.12ZM1517.45 1141.38L1513.88 1137.82H1517.75L1517.45 1141.38ZM1516.53 1152.72L1516.19 1157.07L1499.63 1173.62L1480.64 1154.63L1497.63 1137.64H1501.63L1516.53 1152.72ZM1511.75 1211.9L1499.63 1224.03L1480.64 1205.04L1499.63 1186.09L1512.67 1199.13L1511.75 1211.9ZM1335.76 1199.22L1348.8 1186.18L1367.79 1205.13L1348.8 1224.11L1336.72 1211.99L1335.76 1199.22ZM1493.5 1179.92L1474.51 1198.91L1455.52 1179.92L1474.51 1160.93L1493.5 1179.92ZM1463.65 1137.82H1485.38L1474.51 1148.68L1463.65 1137.82ZM1468.34 1205.04L1449.4 1224.03L1430.58 1205.04L1449.57 1186.09L1468.34 1205.04ZM1405.29 1230.16L1424.28 1211.21L1443.23 1230.16L1424.28 1248.97L1405.29 1230.16ZM1418.11 1255.27L1399.12 1274.26L1380.17 1255.31L1399.16 1236.33L1418.11 1255.27ZM1449.4 1236.33L1468.34 1255.31L1449.4 1274.26L1430.58 1255.27L1449.4 1236.33ZM1424.28 1198.91L1405.29 1179.92L1424.28 1160.93L1443.23 1179.92L1424.28 1198.91ZM1418.11 1205.04L1399.16 1224.03L1380.17 1205.04L1399.16 1186.09L1418.11 1205.04ZM1374.09 1198.91L1355.14 1179.92L1374.09 1160.93L1393.08 1179.92L1374.09 1198.91ZM1374.09 1211.21L1393.08 1230.16L1374.09 1248.97L1355.14 1229.98L1374.09 1211.21ZM1393.08 1280.43L1374.09 1299.38L1355.14 1280.43L1374.09 1261.44L1393.08 1280.43ZM1399.21 1286.56L1418.2 1305.55L1399.25 1324.54L1380.17 1305.46L1399.21 1286.56ZM1405.38 1280.43L1424.37 1261.44L1443.31 1280.43L1424.37 1299.38L1405.38 1280.43ZM1449.48 1286.56L1468.43 1305.55L1449.48 1324.54L1430.58 1305.46L1449.48 1286.56ZM1474.6 1311.67L1493.59 1330.66L1481.29 1342.96H1467.91L1455.61 1330.66L1474.6 1311.67ZM1455.61 1280.43L1474.6 1261.44L1493.59 1280.43L1474.6 1299.38L1455.61 1280.43ZM1455.61 1230.16L1474.6 1211.21L1493.59 1230.16L1474.51 1248.97L1455.61 1230.16ZM1468.43 1154.81L1449.48 1173.8L1430.58 1154.81L1447.57 1137.82H1451.57L1468.43 1154.81ZM1424.37 1148.68L1413.5 1137.82H1435.23L1424.37 1148.68ZM1418.2 1154.81L1399.25 1173.8L1380.26 1154.81L1397.25 1137.82H1401.25L1418.2 1154.81ZM1384.95 1137.82L1374.09 1148.68L1363.27 1137.82H1384.95ZM1350.97 1137.82L1367.96 1154.81L1348.97 1173.8L1332.46 1157.24L1332.11 1152.89L1346.97 1137.99L1350.97 1137.82ZM1334.72 1137.82L1331.2 1141.34L1330.9 1137.82H1334.72ZM1333.55 1170.62L1342.85 1179.92L1334.98 1187.83L1333.55 1170.62ZM1338.72 1234.28L1337.98 1225.29L1342.85 1230.16L1338.5 1234.28H1338.72ZM1339.63 1245.71L1348.97 1236.33L1367.96 1255.31L1348.97 1274.26L1341.32 1266.61L1339.63 1245.71ZM1342.45 1280.82V1280L1342.89 1280.43L1342.5 1280.82H1342.45ZM1345.76 1321.28L1343.37 1292.16L1348.97 1286.56L1367.96 1305.55L1348.97 1324.49L1345.76 1321.28ZM1347.5 1343L1347.15 1338.66L1348.97 1336.83L1355.14 1343H1347.5ZM1355.14 1330.71L1374.09 1311.72L1393.08 1330.71L1380.78 1343H1367.4L1355.14 1330.71ZM1393.08 1343L1399.25 1336.83L1405.42 1343H1393.08ZM1417.67 1343L1405.38 1330.71L1424.37 1311.72L1443.31 1330.71L1431.06 1343H1417.67ZM1443.31 1343L1449.48 1336.83L1455.65 1343H1443.31ZM1501.19 1343H1493.55L1499.72 1336.83L1501.54 1338.66L1501.19 1343ZM1502.98 1321.28L1499.72 1324.49L1480.64 1305.46L1499.63 1286.47L1505.24 1292.08L1502.98 1321.28ZM1506.32 1279.95V1280.82L1505.93 1280.43L1506.41 1279.95H1506.32ZM1507.41 1266.61L1499.72 1274.26L1480.73 1255.31L1499.72 1236.33L1509.1 1245.71L1507.41 1266.61ZM1510.02 1234.33L1505.67 1229.98L1510.58 1225.11L1510.02 1234.33ZM1515.1 1170.75L1513.71 1188.14L1505.76 1180.18L1515.1 1170.84V1170.75Z" fill="white"/>
</g>
<path d="M1316.69 1145.55H1531.87C1535.81 1145.55 1539 1142.36 1539 1138.42V1128.47C1539 1124.54 1535.81 1121.35 1531.87 1121.35H1316.69C1312.75 1121.35 1309.56 1124.54 1309.56 1128.47V1138.42C1309.56 1142.36 1312.75 1145.55 1316.69 1145.55Z" fill="#7BD4BB"/>
<path d="M1515.32 1338.66H1333.2C1329.26 1338.66 1326.07 1341.85 1326.07 1345.79V1355.74C1326.07 1359.67 1329.26 1362.86 1333.2 1362.86H1515.32C1519.25 1362.86 1522.44 1359.67 1522.44 1355.74V1345.79C1522.44 1341.85 1519.25 1338.66 1515.32 1338.66Z" fill="#7BD4BB"/>
<path d="M365.979 1287.3L338.559 1292.12L327.304 1254.75L317.049 1220.46L348.684 1209.43L357.853 1250.66L365.979 1287.3Z" fill="#E4897B"/>
<path opacity="0.2" d="M357.988 1251.49L327.439 1255.53L317.141 1220.86L348.689 1209.6L357.988 1251.49Z" fill="black"/>
<path d="M182.995 1299.94H155.14L150.577 1260.7L146.449 1224.94L179.475 1219.46L181.343 1262.05L182.995 1299.94Z" fill="#E4897B"/>
<path opacity="0.2" d="M181.343 1262.4L150.577 1261.05L146.449 1225.11L179.475 1219.55L181.343 1262.4Z" fill="black"/>
<path d="M220.712 1355.04C216.279 1351.49 211.246 1348.75 205.851 1346.96V1346.96C205.851 1346.96 189.686 1330.92 181.907 1282.65L160.745 1277.13C157.152 1276.27 153.383 1276.53 149.943 1277.87C146.502 1279.22 143.555 1281.58 141.494 1284.65C140.908 1285.5 140.453 1286.44 140.147 1287.43C139.051 1292.6 138.296 1297.84 137.888 1303.11C135.758 1319.45 137.583 1356.13 137.583 1356.13H141.408L142.928 1322.84C143.493 1311.54 152.141 1324.8 154.618 1336.96C157.095 1349.13 162.353 1362.08 187.122 1362.69C216.019 1363.25 228.013 1361.95 220.712 1355.04Z" fill="#282C2E"/>
<path d="M405.394 1351.78C400.96 1348.23 395.928 1345.49 390.533 1343.7V1343.7C390.533 1343.7 374.367 1327.67 366.589 1279.39L345.426 1273.87C341.834 1273.01 338.065 1273.27 334.625 1274.62C331.184 1275.96 328.236 1278.32 326.176 1281.39C325.589 1282.24 325.135 1283.18 324.829 1284.17C323.733 1289.34 322.978 1294.58 322.569 1299.86C320.44 1316.19 322.265 1352.87 322.265 1352.87H326.089L327.61 1319.58C328.175 1308.29 336.822 1321.54 339.299 1333.71C341.776 1345.87 347.034 1358.82 371.804 1359.43C400.701 1360 412.694 1358.87 405.394 1351.78Z" fill="#282C2E"/>
<path d="M360.595 1229.77L315.533 1237.67C270.036 1124.39 237.705 1029.83 214.848 951.357C202.55 909.033 192.295 871.402 184.951 837.986L186.298 961.308V1239.11H141.887C30.5998 708.971 109.47 588.126 109.47 588.126L242.659 565.965C247.904 590.596 251.619 615.528 253.783 640.619L259.78 684.768L311.926 953.66L360.595 1229.77Z" fill="#7BD4BB"/>
<g opacity="0.4">
<path opacity="0.4" d="M360.595 1229.77L315.533 1237.67C270.036 1124.39 237.705 1029.83 214.848 951.357C202.55 909.033 192.295 871.402 184.951 837.986L186.298 961.308V1239.11H141.887C30.5998 708.971 109.47 588.126 109.47 588.126L242.659 565.965C247.904 590.596 251.619 615.528 253.783 640.619L259.78 684.768L311.926 953.66L360.595 1229.77Z" fill="#5CB79D"/>
</g>
<path d="M400.309 435.08L445.241 390.67C445.241 390.67 446.805 378.764 451.151 375.461C455.496 372.159 486.349 360.948 490.26 363.424C494.171 365.901 499.255 390.844 493.997 395.406C488.739 399.969 460.667 405.792 457.799 405.314L409.173 463.021L400.309 435.08Z" fill="#F8A58D"/>
<path d="M239.356 354.125C258.736 364.424 327.525 460.587 337.694 465.367C347.862 470.147 425.299 407.312 425.299 407.312L438.335 429.604C438.335 429.604 374.63 519.423 338.867 515.078C303.104 510.733 234.098 434.688 234.098 434.688L239.356 354.125Z" fill="#282C2E"/>
<path d="M239.356 354.125C258.736 364.424 327.525 460.587 337.694 465.367C347.862 470.147 425.299 407.312 425.299 407.312L438.335 429.604C438.335 429.604 374.63 519.423 338.867 515.078C303.104 510.733 234.098 434.688 234.098 434.688L239.356 354.125Z" fill="#5CB79D"/>
<path d="M421.039 409.705L426.384 404.621L440.507 428.521L435.466 438.299L421.039 409.705Z" fill="#7BD4BB"/>
<path opacity="0.2" d="M261.649 462.757C245.571 447.418 234.012 434.686 234.012 434.686L235.228 415.567L241.269 397.012C249.582 405.606 255.758 416.034 259.298 427.454C262.839 438.875 263.644 450.968 261.649 462.757Z" fill="black"/>
<path opacity="0.2" d="M214.847 951.352C202.549 909.028 193.119 871.397 185.602 837.981C186.254 798.421 189.156 758.93 194.293 719.699C194.293 719.699 213.847 872.222 214.847 951.352Z" fill="black"/>
<path d="M245.828 557.753C251.26 462.154 248.87 409.488 246.393 383.199C243.656 355.171 239.354 354.128 239.354 354.128C239.354 354.128 208.935 351.173 182.558 351.39C162.152 352.08 141.821 354.229 121.722 357.821C102.591 361.003 83.7126 365.548 65.2305 371.423C68.3013 380.113 71.1258 388.456 73.7041 396.452C77.1805 406.794 80.2658 416.441 83.0469 425.392C88.3049 442.209 92.3462 456.722 95.6053 469.715C103.894 502.435 108.744 535.932 110.076 569.659C110.076 569.659 76.6156 657.001 70.0974 721.096L180.907 733.045L196.116 668.951L211.325 735.218L273.248 713.491L245.828 557.753Z" fill="#282C2E"/>
<path d="M245.828 557.753C251.26 462.154 248.87 409.488 246.393 383.199C243.656 355.171 239.354 354.128 239.354 354.128C239.354 354.128 208.935 351.173 182.558 351.39C162.152 352.08 141.821 354.229 121.722 357.821C102.591 361.003 83.7126 365.548 65.2305 371.423C68.3013 380.113 71.1258 388.456 73.7041 396.452C77.1805 406.794 80.2658 416.441 83.0469 425.392C88.3049 442.209 92.3462 456.722 95.6053 469.715C103.894 502.435 108.744 535.932 110.076 569.659C110.076 569.659 76.6156 657.001 70.0974 721.096L180.907 733.045L196.116 668.951L211.325 735.218L273.248 713.491L245.828 557.753Z" fill="#5CB79D"/>
<path d="M131.283 346.346C131.283 346.346 147.231 333.614 175.737 343.782L179.605 358.296C179.605 358.296 155.14 367.552 142.798 365.119C130.457 362.685 131.283 346.346 131.283 346.346Z" fill="#7BD4BB"/>
<path opacity="0.2" d="M131.283 346.346C131.283 346.346 147.231 333.614 175.737 343.782L179.605 358.296C179.605 358.296 155.14 367.552 142.798 365.119C130.457 362.685 131.283 346.346 131.283 346.346Z" fill="black"/>
<path opacity="0.2" d="M100.868 493.134C99.3907 485.834 97.6525 478.055 95.5232 469.712C94.1761 464.41 92.6987 458.848 91.1777 452.938C95.5232 438.12 99.8687 449.679 99.8687 449.679C102.573 464.012 102.911 478.692 100.868 493.134V493.134Z" fill="black"/>
<path d="M181.034 357.213C179.627 356.521 178.176 355.926 176.688 355.432C173.559 352.955 169.779 347.002 169.953 332.531C170.064 326.838 170.587 321.159 171.517 315.541L131.278 308.023C131.278 308.023 145.01 335.139 133.538 355.301C129.627 357.039 127.28 359.647 127.671 362.775C130.713 386.067 180.73 408.576 180.73 408.576C180.73 408.576 205.151 370.554 181.034 357.213Z" fill="#F8A58D"/>
<path opacity="0.2" d="M171.699 315.541C170.768 321.16 170.246 326.838 170.134 332.532C142.932 332.532 131.416 308.023 131.416 308.023L171.699 315.541Z" fill="black"/>
<path d="M153.703 182.615C153.703 182.615 200.808 176.662 209.499 214.771C212.023 225.578 211.423 236.879 207.768 247.358C204.114 257.837 197.555 267.061 188.858 273.955L153.703 182.615Z" fill="#282C2E"/>
<path d="M149.448 202.907C184.472 200.995 196.77 219.115 201.289 255.051C206.982 299.983 198.726 332.573 154.402 325.36C94.217 315.539 91.262 206.079 149.448 202.907Z" fill="#F8A58D"/>
<path d="M178.562 254.355C181.653 259.43 185.344 264.114 189.557 268.305C188.597 269.791 187.245 270.984 185.65 271.751C184.055 272.518 182.279 272.829 180.518 272.65L178.562 254.355Z" fill="#D4827D"/>
<path d="M156.965 252.659C157.183 255.527 155.792 257.96 153.88 258.134C151.968 258.308 150.23 256.091 150.013 253.18C149.795 250.269 151.186 247.879 153.098 247.705C155.01 247.531 156.748 249.791 156.965 252.659Z" fill="#282C2E"/>
<path d="M152.314 247.924L158.355 244.969C158.355 244.969 155.66 250.488 152.314 247.924Z" fill="#282C2E"/>
<path d="M192.64 249.272C192.64 252.14 191.467 254.573 189.555 254.747C187.642 254.921 185.904 252.661 185.687 249.793C185.47 246.925 186.817 244.492 188.772 244.318C190.728 244.144 192.423 246.404 192.64 249.272Z" fill="#282C2E"/>
<path d="M187.773 244.537L193.857 241.582C193.857 241.582 191.337 247.101 187.773 244.537Z" fill="#282C2E"/>
<path d="M155.266 228.501C152.479 228.316 149.687 228.773 147.103 229.835C144.519 230.897 142.213 232.537 140.361 234.628" stroke="#282C2E" stroke-width="0.686238" stroke-linecap="round" stroke-linejoin="round"/>
<path d="M180.65 225.631C183.009 224.888 185.505 224.689 187.952 225.05C190.398 225.412 192.73 226.324 194.773 227.717" stroke="#282C2E" stroke-width="0.686238" stroke-linecap="round" stroke-linejoin="round"/>
<path d="M114.382 263.999C114.382 263.999 129.2 234.364 125.506 212.289C125.506 212.289 193.339 180.133 200.639 250.355C200.639 250.355 203.985 187.434 143.714 189.519C83.4419 191.605 88.4826 279.512 121.03 304.02C121.03 303.846 105.213 282.554 114.382 263.999Z" fill="#282C2E"/>
<path d="M159.704 180.006C159.704 180.006 188.471 172.923 196.64 180.528C204.81 188.132 146.667 241.928 116.249 247.36C116.249 247.36 105.907 281.036 114.076 296.767C114.076 296.767 79.8339 284.817 78.2261 232.672C76.6183 180.528 131.284 160.886 159.704 180.006Z" fill="#282C2E"/>
<path d="M120.506 271.259C119.925 267.227 117.769 263.591 114.51 261.147C111.252 258.703 107.157 257.651 103.124 258.222C92.3473 260.004 88.3929 282.557 115.682 286.468C119.68 286.729 121.636 282.861 120.506 271.259Z" fill="#F8A58D"/>
<path d="M105.21 200.559C105.21 200.559 93.2597 170.142 61.1901 172.314C29.1205 174.487 24.2535 224.459 41.114 261.395C57.9744 298.33 46.7196 310.367 46.7196 310.367C46.7196 310.367 64.623 308.194 64.623 275.039C65.6134 282.061 65.977 289.158 65.7094 296.245C65.7094 296.245 77.6594 279.384 66.2743 247.359C54.8891 215.334 91.2607 229.977 91.2607 229.977L105.21 200.559Z" fill="#282C2E"/>
<path d="M193.901 183.18C193.901 183.18 178.692 232.065 137.975 246.709" stroke="#282C2E" stroke-width="0.686238" stroke-linecap="round" stroke-linejoin="round"/>
<path d="M153.012 285.293C155.652 287.911 158.786 289.978 162.233 291.373C165.68 292.769 169.37 293.464 173.088 293.419" stroke="#282C2E" stroke-width="0.686238" stroke-linecap="round" stroke-linejoin="round"/>
<path d="M131.285 346.345C131.285 346.345 138.498 360.989 163.094 371.418L173.132 387.626V369.158C175.902 361.004 176.793 352.329 175.739 343.781L183.908 359.207C186.381 359.783 188.632 361.069 190.384 362.906C192.136 364.743 193.314 367.052 193.773 369.549C196.38 379.022 182.387 413.003 182.387 413.003C182.387 413.003 137.673 396.969 127.634 376.85C120.204 361.858 129.112 358.251 129.112 358.251L131.285 346.345Z" fill="#7BD4BB"/>
<path d="M189.646 425.434C189.646 426.07 189.458 426.692 189.104 427.221C188.751 427.75 188.249 428.162 187.661 428.405C187.073 428.648 186.427 428.712 185.803 428.588C185.179 428.464 184.606 428.158 184.157 427.708C183.707 427.258 183.401 426.685 183.277 426.062C183.153 425.438 183.216 424.791 183.46 424.204C183.703 423.616 184.115 423.114 184.644 422.761C185.173 422.407 185.795 422.219 186.43 422.219C187.283 422.219 188.101 422.558 188.704 423.161C189.307 423.764 189.646 424.581 189.646 425.434V425.434Z" fill="#282C2E"/>
<path d="M197.463 475.712C197.463 476.348 197.274 476.969 196.921 477.498C196.567 478.027 196.065 478.439 195.477 478.683C194.89 478.926 194.243 478.99 193.62 478.866C192.996 478.742 192.423 478.435 191.973 477.986C191.523 477.536 191.217 476.963 191.093 476.339C190.969 475.715 191.033 475.069 191.276 474.481C191.519 473.894 191.932 473.391 192.46 473.038C192.989 472.685 193.611 472.496 194.247 472.496C195.1 472.496 195.918 472.835 196.521 473.438C197.124 474.041 197.463 474.859 197.463 475.712V475.712Z" fill="#282C2E"/>
<path d="M200.814 536.634C200.814 537.27 200.626 537.891 200.272 538.42C199.919 538.949 199.417 539.361 198.829 539.605C198.241 539.848 197.595 539.912 196.971 539.788C196.347 539.663 195.774 539.357 195.325 538.908C194.875 538.458 194.569 537.885 194.445 537.261C194.321 536.637 194.384 535.991 194.628 535.403C194.871 534.815 195.283 534.313 195.812 533.96C196.341 533.607 196.962 533.418 197.598 533.418C198.451 533.418 199.269 533.757 199.872 534.36C200.475 534.963 200.814 535.781 200.814 536.634V536.634Z" fill="#282C2E"/>
<path d="M203.463 600.466C203.463 601.102 203.274 601.723 202.921 602.252C202.567 602.781 202.065 603.193 201.477 603.436C200.89 603.68 200.243 603.744 199.62 603.619C198.996 603.495 198.423 603.189 197.973 602.739C197.523 602.29 197.217 601.717 197.093 601.093C196.969 600.469 197.033 599.823 197.276 599.235C197.519 598.647 197.932 598.145 198.46 597.792C198.989 597.439 199.611 597.25 200.247 597.25C201.1 597.25 201.918 597.589 202.521 598.192C203.124 598.795 203.463 599.613 203.463 600.466V600.466Z" fill="#282C2E"/>
<path d="M52.1504 550.754L105.6 517.033C105.6 517.033 109.684 505.779 114.638 503.476C119.592 501.173 152.14 496.871 155.312 500.13C158.484 503.389 158.18 528.809 152.053 532.155C145.926 535.501 117.289 535.11 114.595 534.024L54.6708 579.781L52.1504 550.754Z" fill="#F8A58D"/>
<path d="M65.188 371.422C65.188 371.422 99.9518 422.176 95.0414 465.63L48.7187 542.369L79.8323 526.465L93.955 553.059C93.955 553.059 58.1049 608.289 12.4774 595.253C-33.15 582.216 65.188 371.422 65.188 371.422Z" fill="#282C2E"/>
<path d="M65.188 371.441C65.188 371.441 99.9518 422.195 95.0414 465.649L48.7187 542.389L79.8323 526.485L93.955 553.078C93.955 553.078 58.1049 608.308 12.4774 595.272C-33.15 582.236 65.188 371.441 65.188 371.441Z" fill="#5CB79D"/>
<path d="M76.5703 524.986L94.3433 557.968L98.2977 548.538L84.1749 521.727L76.5703 524.986Z" fill="#7BD4BB"/>
</svg>
