<svg width="1438" height="1395" viewBox="0 0 1438 1395" fill="none" xmlns="http://www.w3.org/2000/svg">
<path d="M1437.75 186.348H864.559V745.451H1437.75V186.348Z" fill="#FFCEC0"/>
<path d="M1128.1 152.615C1147.21 130.963 1179.95 125.758 1211.62 131.93C1243.29 138.102 1281.21 153.516 1284.67 204.629C1287.5 246.133 1274.3 286.603 1274.3 332.911C1274.3 379.22 1328.61 492.021 1241.7 547.071C1163.6 596.515 1005.37 551.108 1000.49 449.316C996.656 368.643 1095.81 294.043 1106.25 262.114C1116.69 230.185 1107.15 176.303 1128.1 152.615Z" fill="#263238"/>
<path d="M1113.82 198.156C1113.23 221.244 1109.77 244.598 1099.99 266.384C1097.45 271.902 1094.14 277.055 1090.14 281.698C1086.3 286.369 1082.22 290.773 1078.14 295.043C1069.91 303.685 1061.79 312.259 1053.94 321.167C1038.35 338.62 1025.47 358.163 1015.7 379.186C1006.34 400.307 1001.19 422.947 1000.53 445.913C999.554 434.322 999.914 422.663 1001.6 411.148C1003.47 399.574 1006.56 388.216 1010.83 377.251C1019.84 355.281 1032.6 334.925 1048.58 317.03C1056.43 307.988 1064.76 299.347 1073.06 290.806C1081.36 282.265 1089.76 274.125 1094.91 264.116C1100.19 253.882 1104.22 243.088 1106.9 231.953C1109.94 220.838 1112.25 209.55 1113.82 198.156V198.156Z" fill="#263238"/>
<path d="M1282.49 239.496C1281.91 263.051 1280.35 286.572 1281.01 309.96C1281.29 321.608 1282.31 333.228 1284.05 344.758C1285.85 356.101 1289.37 367.445 1292.31 378.922C1295.25 390.399 1297.88 402.042 1299.81 413.786C1301.69 425.585 1302.47 437.52 1302.17 449.452C1301.6 461.442 1299.27 473.293 1295.25 484.65C1290.61 495.812 1283.68 505.957 1274.89 514.477C1282.6 505.334 1288.46 494.877 1292.17 483.649C1295.4 472.484 1297 460.942 1296.94 449.352C1295.97 426.021 1292.18 402.879 1285.67 380.39C1282.91 368.946 1279.38 357.602 1277.69 345.558C1276.1 333.757 1275.48 321.855 1275.82 309.96C1276.55 286.362 1278.78 262.83 1282.49 239.496V239.496Z" fill="#263238"/>
<path d="M1156.76 437.573C1077.24 522.049 1012.35 562.619 948.395 562.619C887.584 562.619 757.665 420.124 748.124 401.341C739.896 385.126 846.548 296.413 862.935 307.456C890.592 325.94 979.302 432.936 988.705 433.436C998.108 433.937 1032.75 411.85 1116.17 374.15C1166.85 351.296 1212.07 379.021 1156.76 437.573Z" fill="#FFA698"/>
<path d="M760.502 415.385C748.817 403.174 699.761 342.22 690.046 322.335C680.332 302.45 656.789 243.264 671.827 234.556C686.865 225.848 695.163 242.63 695.163 242.63C695.163 242.63 689.32 216.139 705.292 208.699C721.264 201.259 733.295 227.783 733.295 227.783C733.295 227.783 729.354 200.158 745.809 193.819C762.265 187.48 769.802 216.173 769.802 216.173C769.802 216.173 764.962 191.05 780.795 191.35C799.844 191.717 803.336 238.993 815.747 260.179C818.547 264.983 880.015 353.596 880.015 353.596L760.502 415.385Z" fill="#FFA698"/>
<path d="M769.146 213.74C771.808 248.471 779.206 263.251 800.26 290.843C800.675 291.376 799.949 292.077 799.465 291.577C776.199 266.354 764.168 249.138 767.314 213.773C767.556 212.038 769.008 212.072 769.146 213.74Z" fill="#263238"/>
<path d="M733.192 225.05C739.207 260.916 747.02 276.997 767.037 307.457C767.314 307.891 766.588 308.392 766.276 307.991C744.116 279.666 732.5 262.217 731.36 225.617C731.29 223.949 732.915 223.382 733.192 225.05Z" fill="#263238"/>
<path d="M696.267 244.164C704.702 278.495 712.55 296.478 735.851 323.636C736.404 324.303 735.471 325.137 734.883 324.536C708.332 299.047 698.376 276.66 695.23 244.464C695.022 242.329 695.748 241.995 696.267 244.164Z" fill="#263238"/>
<path d="M907.428 362.073C907.428 362.073 906.632 318.4 901.896 299.283C897.16 280.166 852.528 215.241 837.283 223.782C817.819 234.792 836.003 277.163 847.654 296.847C847.654 296.847 802.711 322.337 808.83 355.5C814.95 388.663 907.428 362.073 907.428 362.073Z" fill="#FFA698"/>
<path d="M832.966 228.485C822.595 250.906 839.881 275.761 849.733 295.612C849.892 295.898 849.977 296.216 849.983 296.54C849.988 296.864 849.913 297.184 849.765 297.475C849.616 297.765 849.397 298.017 849.127 298.21C848.857 298.402 848.544 298.53 848.212 298.582C830.028 310.493 808.006 332.346 807.729 354.699C807.729 354.832 807.675 354.959 807.578 355.053C807.48 355.147 807.348 355.199 807.211 355.199C807.073 355.199 806.941 355.147 806.844 355.053C806.747 354.959 806.692 354.832 806.692 354.699C803.615 330.677 823.425 307.456 844.167 295.679C833.796 275.428 817.651 249.805 832.759 228.285L832.966 228.485Z" fill="#263238"/>
<path d="M1019.65 408.881L1083.54 523.918C1083.54 523.918 1170.17 442.745 1184 408.881C1197.83 375.018 1182.93 350.429 1121.29 368.545C1086.08 378.617 1052.02 392.132 1019.65 408.881V408.881Z" fill="#FF9577"/>
<path d="M1098.3 499.933C1095.15 493.694 1092.39 487.255 1089.1 481.049C1085.82 474.844 1082.53 468.705 1079.11 462.633C1072.2 450.355 1065.28 438.044 1058.09 425.933C1054.01 419.261 1049.73 412.388 1045.27 405.915C1045.09 405.615 1044.51 405.915 1044.68 406.149C1056.4 431.471 1070.61 455.727 1084.78 479.815C1088.89 486.788 1093.56 493.427 1097.85 500.3C1097.99 500.467 1098.47 500.167 1098.3 499.933Z" fill="#263238"/>
<path d="M1184 408.882C1170.17 442.746 1083.54 523.919 1083.54 523.919L1040.49 446.549L1182.48 370.781C1190.64 378.989 1190.53 392.901 1184 408.882Z" fill="#263238"/>
<path d="M1034.2 602.555C1034.2 602.555 999.076 683.695 1011.49 745.417H1398.75C1386.17 577.633 1299.5 433.436 1248.3 386.761C1207.02 349.127 1163.57 352.497 1133.32 371.747C1126.19 376.318 1047.61 481.112 1039.11 497.694C1005.37 563.12 1034.2 602.555 1034.2 602.555Z" fill="#FF9577"/>
<path d="M1136.01 366.811C1136.01 366.811 1111.82 433.971 1125.85 437.474C1160.77 446.149 1207.61 391.133 1210.41 385.528C1211.1 384.093 1214.22 346.492 1216.53 317.233C1218.02 298.416 1219.16 283.035 1219.16 283.035L1133.01 311.561L1135.77 363.107L1136.01 366.811Z" fill="#FFA698"/>
<path d="M1132.87 311.561L1135.64 363.107C1153.16 360.739 1191.71 351.564 1216.4 317.233C1217.88 298.416 1219.02 283.035 1219.02 283.035L1208.24 286.371L1132.87 311.561Z" fill="#263238"/>
<path d="M1068.7 239.395C1067.67 265.585 1070.36 286.771 1076.97 300.85C1082.62 312.876 1091.63 323.153 1102.97 330.539C1114.32 337.924 1127.56 342.13 1141.23 342.688C1151.61 343.055 1181.48 340.419 1203.08 324.538C1219.88 312.194 1230.01 289.941 1235.75 250.805C1248.89 161.325 1206.47 131.231 1164.67 127.628C1122.88 124.024 1072.16 149.114 1068.7 239.395Z" fill="#FFA698"/>
<path d="M1092.66 219.443C1094.84 219.142 1096.85 218.542 1098.95 218.075C1101.25 217.876 1103.42 216.976 1105.14 215.506C1105.58 214.934 1105.81 214.245 1105.81 213.537C1105.81 212.83 1105.58 212.14 1105.14 211.569C1104.07 210.603 1102.74 209.931 1101.31 209.62C1099.88 209.31 1098.38 209.372 1096.98 209.801C1094 210.258 1091.3 211.768 1089.41 214.038C1088.97 214.563 1088.7 215.208 1088.64 215.885C1088.58 216.562 1088.74 217.24 1089.1 217.827C1089.45 218.415 1089.98 218.885 1090.62 219.173C1091.25 219.462 1091.97 219.556 1092.66 219.443V219.443Z" fill="#263238"/>
<path d="M1153.75 221.679C1151.62 221.319 1149.52 220.851 1147.45 220.278C1145.16 220.094 1143 219.178 1141.3 217.676C1140.87 217.104 1140.63 216.415 1140.63 215.707C1140.63 215 1140.87 214.31 1141.3 213.739C1142.38 212.776 1143.72 212.11 1145.16 211.811C1146.6 211.512 1148.1 211.59 1149.49 212.037C1152.5 212.501 1155.21 214.037 1157.1 216.341C1157.53 216.875 1157.79 217.523 1157.83 218.2C1157.87 218.876 1157.7 219.549 1157.33 220.129C1156.97 220.709 1156.43 221.168 1155.79 221.445C1155.15 221.722 1154.44 221.803 1153.75 221.679V221.679Z" fill="#263238"/>
<path d="M1138.47 244.233C1138.47 244 1138.95 244.534 1138.95 244.801C1138.44 250.906 1138.95 258.146 1144.59 260.348C1144.59 260.348 1144.59 260.715 1144.59 260.682C1137.54 259.414 1136.98 249.939 1138.47 244.233Z" fill="#263238"/>
<path d="M1144.49 238.061C1154.86 237.794 1154.58 257.646 1145.04 257.912C1135.5 258.179 1136.02 238.295 1144.49 238.061Z" fill="#263238"/>
<path d="M1148.53 239.162C1150.29 240.297 1151.99 242.299 1154.2 242.499C1156.41 242.699 1158.63 240.697 1160.29 238.695C1160.46 238.495 1160.63 238.695 1160.63 238.929C1160.63 242.732 1159.11 246.636 1154.86 247.17C1150.61 247.704 1148.29 244.234 1147.32 240.497C1147.15 239.696 1147.8 238.695 1148.53 239.162Z" fill="#263238"/>
<path d="M1104.42 241.632C1104.42 241.399 1103.94 241.932 1103.94 242.166C1103.94 248.338 1103.28 255.511 1097.5 257.446C1097.33 257.446 1097.33 257.813 1097.5 257.78C1104.59 256.846 1105.63 247.437 1104.42 241.632Z" fill="#263238"/>
<path d="M1098.75 235.194C1088.38 234.426 1087.65 254.277 1097.16 254.978C1106.66 255.679 1107.32 235.861 1098.75 235.194Z" fill="#263238"/>
<path d="M1094.53 236.36C1092.87 237.361 1091.07 239.196 1089.24 239.263C1087.4 239.329 1085.4 237.094 1084.05 234.992C1084.05 234.759 1083.74 234.992 1083.71 235.192C1083.46 238.996 1084.57 242.966 1088.34 243.867C1092.11 244.768 1094.42 241.498 1095.49 237.761C1095.56 237.027 1095.04 235.96 1094.53 236.36Z" fill="#263238"/>
<path d="M1137.85 292.011C1136.36 293.512 1134.91 295.547 1132.63 295.814C1130.26 295.831 1127.91 295.388 1125.72 294.513C1125.67 294.478 1125.62 294.459 1125.57 294.463C1125.51 294.466 1125.46 294.49 1125.42 294.53C1125.39 294.569 1125.37 294.622 1125.37 294.675C1125.37 294.728 1125.4 294.778 1125.44 294.813C1126.4 295.991 1127.67 296.897 1129.12 297.437C1130.56 297.977 1132.14 298.131 1133.67 297.883C1134.94 297.497 1136.08 296.763 1136.93 295.768C1137.78 294.773 1138.32 293.56 1138.47 292.278C1138.49 292.201 1138.48 292.121 1138.45 292.051C1138.41 291.98 1138.35 291.924 1138.28 291.892C1138.2 291.86 1138.12 291.855 1138.04 291.876C1137.96 291.898 1137.9 291.946 1137.85 292.011V292.011Z" fill="#263238"/>
<path d="M1111.82 269.22C1111.82 269.22 1110.3 278.395 1110.23 282.732C1110.23 283.132 1111.3 283.332 1112.82 283.466C1112.82 283.466 1112.82 283.466 1112.99 283.466C1116.81 284.194 1120.76 283.901 1124.42 282.619C1128.07 281.337 1131.29 279.115 1133.74 276.193C1134.05 275.792 1133.49 275.325 1133.08 275.592C1127.27 279.244 1120.4 280.998 1113.48 280.597C1113.2 279.362 1116.62 264.982 1115.9 264.916C1112.36 265.128 1108.87 265.813 1105.53 266.951C1108.12 247.767 1113.86 229.15 1116.1 210.033C1116.1 209.366 1115.17 209.132 1114.96 209.733C1107.5 228.816 1104.04 250.836 1100.82 270.554C1100.55 273.056 1109.88 269.954 1111.82 269.22Z" fill="#263238"/>
<path d="M1115.69 281.2C1117.9 284.47 1120.95 287.136 1124.54 288.94C1126.51 289.85 1128.73 290.153 1130.9 289.808C1135.63 288.974 1136.08 284.87 1135.53 281.3C1135.19 279.4 1134.64 277.542 1133.87 275.762C1128.57 279.401 1122.19 281.307 1115.69 281.2V281.2Z" fill="#263238"/>
<path d="M1124.54 288.94C1126.52 289.85 1128.74 290.153 1130.9 289.807C1135.63 288.973 1136.08 284.869 1135.53 281.3C1133.07 281.194 1130.65 281.89 1128.66 283.277C1126.66 284.663 1125.21 286.658 1124.54 288.94V288.94Z" fill="#FF98B9"/>
<path d="M1234.06 242.764C1223.86 243.065 1194.92 218.509 1189.67 171.333C1189.67 171.333 1197.45 213.371 1201.32 219.277C1205.19 225.182 1185.14 205.431 1180.34 167.463C1180.34 167.463 1159.94 184.612 1141.75 191.285C1123.57 197.957 1112.2 198.825 1110.64 197.624C1109.08 196.423 1135.81 185.68 1142.45 176.805C1142.45 176.805 1094.98 203.496 1072.3 207.099C1069.67 207.499 1074.1 168.097 1107.32 142.741C1140.54 117.385 1186.21 123.724 1202.6 136.402C1202.6 136.402 1220.51 137.303 1242.08 160.824C1263.65 184.345 1245.02 242.431 1234.06 242.764Z" fill="#263238"/>
<path d="M1220.61 257.176C1220.61 257.176 1239.59 228.05 1253.18 234.456C1266.77 240.861 1253.52 282.399 1238.28 288.705C1236.38 289.651 1234.31 290.216 1232.18 290.366C1230.04 290.516 1227.91 290.248 1225.89 289.577C1223.87 288.907 1222.01 287.848 1220.42 286.465C1218.84 285.082 1217.56 283.404 1216.67 281.531L1220.61 257.176Z" fill="#FFA698"/>
<path d="M1249.06 246.367C1249.34 246.367 1249.37 246.667 1249.06 246.768C1238.38 251.539 1233.16 261.581 1229.63 271.89C1232.71 267.82 1237 265.484 1242.6 268.954C1242.87 269.121 1242.6 269.588 1242.32 269.521C1240.4 269.067 1238.37 269.188 1236.52 269.867C1234.67 270.546 1233.08 271.752 1231.95 273.325C1230.09 276.022 1228.51 278.895 1227.25 281.899C1226.8 282.867 1225 282.466 1225.35 281.365C1225.33 281.277 1225.33 281.187 1225.35 281.098C1224.38 267.62 1234.23 248.336 1249.06 246.367Z" fill="#263238"/>
<path d="M1278.27 405.077C1316.58 447.749 1423.96 602.221 1399.07 643.959C1375.18 683.995 1321 695.272 1289.82 641.49C1267.38 603.022 1229.67 488.252 1220.3 433.202C1212.69 388.629 1242.87 365.608 1278.27 405.077Z" fill="#FFA698"/>
<path d="M1242.49 541.831L1369.44 496.824C1369.44 496.824 1298.19 402.706 1265.38 384.79C1232.57 366.873 1205.26 377.683 1215.29 439.105C1220.68 474.157 1229.8 508.58 1242.49 541.831V541.831Z" fill="#FF9577"/>
<path d="M1346.9 479.342C1339.98 481.511 1333.07 483.246 1326.15 485.514C1319.24 487.783 1312.6 490.085 1305.89 492.521C1292.31 497.392 1278.76 502.263 1265.31 507.501C1257.77 510.437 1250.23 513.606 1242.87 516.943C1242.53 516.943 1242.66 517.643 1242.87 517.543C1270.53 509.87 1297.35 499.66 1324.04 489.485C1331.79 486.515 1339.22 482.812 1346.86 479.842C1347.38 479.709 1347.14 479.242 1346.9 479.342Z" fill="#263238"/>
<path d="M1249.65 538.963C1247.14 539.499 1244.67 540.235 1242.29 541.165C1238.83 533.925 1230.64 502.097 1228.73 493.923C1224.93 477.641 1221.82 461.193 1217.84 444.912C1217.84 444.445 1216.91 444.578 1216.98 444.912C1218.16 453.953 1219.61 462.961 1221.23 471.903C1219.5 467.632 1217.78 463.328 1216.43 458.958C1216.44 458.927 1216.45 458.894 1216.44 458.861C1216.44 458.828 1216.43 458.796 1216.41 458.768C1216.39 458.74 1216.37 458.717 1216.34 458.702C1216.31 458.686 1216.27 458.678 1216.24 458.678C1216.2 458.678 1216.17 458.686 1216.14 458.702C1216.11 458.717 1216.08 458.74 1216.06 458.768C1216.04 458.796 1216.03 458.828 1216.03 458.861C1216.03 458.894 1216.03 458.927 1216.05 458.958C1217.62 464.387 1219.55 469.713 1221.82 474.905C1223.17 491.587 1238.9 544.601 1239.35 544.401C1242.9 542.845 1246.37 541.096 1249.72 539.163C1250.1 539.263 1250.1 538.93 1249.65 538.963Z" fill="#263238"/>
<path d="M1186.87 224.918L1150.74 373.752C1149.19 378.122 1151.5 381.625 1155.93 381.559L1224.9 395.104C1227.31 394.891 1229.62 394.018 1231.54 392.589C1233.46 391.159 1234.92 389.231 1235.75 387.03L1271.88 238.196C1273.44 233.826 1271.12 230.323 1266.69 230.423L1197.72 216.844C1195.31 217.057 1193 217.93 1191.08 219.359C1189.16 220.789 1187.7 222.717 1186.87 224.918V224.918Z" fill="#455A64"/>
<path d="M1192.78 225.75L1156.76 374.584C1155.2 378.954 1157.52 382.458 1161.94 382.391L1230.91 395.936C1233.33 395.726 1235.63 394.858 1237.55 393.435C1239.47 392.011 1240.93 390.09 1241.77 387.896L1277.76 239.062C1279.31 234.658 1277 231.188 1272.57 231.255L1203.64 217.676C1201.22 217.901 1198.93 218.778 1197 220.206C1195.08 221.634 1193.62 223.555 1192.78 225.75V225.75Z" fill="#37474F"/>
<path d="M1214.63 232.157C1214.66 233.492 1214.28 234.806 1213.54 235.929C1212.79 237.052 1211.71 237.933 1210.43 238.457C1209.16 238.982 1207.76 239.126 1206.4 238.871C1205.04 238.616 1203.79 237.974 1202.82 237.027C1201.84 236.081 1201.18 234.874 1200.93 233.562C1200.67 232.25 1200.82 230.894 1201.37 229.668C1201.92 228.443 1202.84 227.406 1204.01 226.689C1205.18 225.973 1206.54 225.612 1207.92 225.651C1209.71 225.66 1211.41 226.35 1212.67 227.569C1213.93 228.788 1214.63 230.438 1214.63 232.157V232.157Z" fill="#263238"/>
<path d="M1308.25 654.968C1330.69 695.004 1390.08 672.183 1399.07 643.958C1420.16 577.731 1407.09 467.632 1394.5 406.144C1390.46 386.359 1251.21 406.144 1252.04 427.529C1253 453.386 1264.28 576.23 1308.25 654.968Z" fill="#FFA698"/>
<path d="M1392.95 435.538C1399.96 406.363 1400.39 376.073 1394.19 346.725C1386.86 314.73 1362.91 246.868 1266.59 216.608C1243.74 209.401 1205.88 214.773 1238.93 239.595C1262.3 257.244 1282.63 261.615 1294.25 274.293C1294.25 274.293 1246.95 286.638 1240.39 308.991C1234.64 328.557 1230.33 348.492 1227.49 368.645C1231.19 369.984 1234.98 371.099 1238.83 371.981C1236.8 391.444 1241.49 411.008 1252.17 427.631L1392.95 435.538Z" fill="#FFA698"/>
<path d="M1382.12 317.266C1367.81 307.257 1337.18 285.971 1305.76 277.23C1270.91 267.221 1201.11 257.545 1193.85 282.401C1188.53 300.651 1214.83 306.689 1214.83 306.689C1214.83 306.689 1185.1 308.491 1184.03 325.973C1183.06 341.921 1203.7 345.424 1203.7 345.424C1203.7 345.424 1185.86 349.495 1187.97 365.042C1190.53 383.692 1227.56 372.082 1247.09 388.83C1251.48 392.5 1382.12 317.266 1382.12 317.266Z" fill="#FFA698"/>
<path d="M1301.12 314.362C1286.05 306.889 1247.26 298.448 1215.39 306.088C1214.66 306.088 1214.42 306.855 1215.11 306.855C1243.98 306.103 1272.84 308.725 1301.05 314.662C1301.23 314.729 1301.3 314.429 1301.12 314.362Z" fill="#263238"/>
<path d="M1289.85 347.993C1276.03 342.855 1235.75 335.848 1203.74 344.656C1203.01 344.857 1202.8 345.49 1203.5 345.457C1232.32 343.235 1261.32 344.197 1289.92 348.326C1289.97 348.317 1290.01 348.291 1290.04 348.254C1290.06 348.216 1290.07 348.17 1290.06 348.126C1290.05 348.082 1290.03 348.043 1289.99 348.018C1289.95 347.993 1289.9 347.984 1289.85 347.993V347.993Z" fill="#263238"/>
<path d="M1295.52 627.078C1294.49 623.742 1293.48 620.405 1292.38 617.369C1290.1 610.696 1288.13 604.024 1286.12 597.351C1282.04 584.006 1278.13 570.46 1274.71 556.848C1267.88 529.716 1262.7 502.222 1259.19 474.507C1258.22 466.834 1257.39 459.16 1256.53 451.486C1255.66 443.813 1255.39 435.839 1253.87 428.132C1253.87 427.732 1249.82 421.86 1248.23 418.957C1246.58 415.938 1245.14 412.817 1243.91 409.615C1241.32 403.082 1239.57 396.271 1238.69 389.33C1238.67 389.287 1238.64 389.25 1238.6 389.224C1238.56 389.198 1238.51 389.184 1238.46 389.184C1238.42 389.184 1238.37 389.198 1238.33 389.224C1238.29 389.25 1238.26 389.287 1238.24 389.33C1237.79 397.228 1238.82 405.14 1241.28 412.685C1243.41 418.996 1247.09 424.719 1252 429.367C1252 430.367 1252.24 442.712 1252.66 449.618C1253.07 456.524 1253.73 463.431 1254.52 470.303C1256.15 484.116 1258.15 497.895 1260.68 511.607C1265.61 539.345 1272.47 566.732 1281.21 593.581C1281.21 594.015 1281.52 594.449 1281.66 594.882C1281.66 595.883 1281.66 596.884 1281.66 597.885C1281.71 600.353 1281.92 602.815 1282.28 605.258C1282.99 610.12 1284.23 614.895 1285.98 619.504C1285.97 619.545 1285.96 619.588 1285.97 619.631C1285.97 619.674 1285.99 619.714 1286.01 619.75C1286.04 619.785 1286.07 619.814 1286.11 619.834C1286.15 619.854 1286.2 619.864 1286.24 619.864C1286.29 619.864 1286.33 619.854 1286.37 619.834C1286.41 619.814 1286.44 619.785 1286.47 619.75C1286.49 619.714 1286.51 619.674 1286.52 619.631C1286.52 619.588 1286.52 619.545 1286.5 619.504C1285.27 614.682 1284.44 609.773 1284.01 604.825L1283.39 599.753C1285.29 605.158 1287.3 610.563 1289.27 615.935C1290.65 619.671 1292.07 623.308 1293.66 626.944C1295.25 630.581 1296.49 634.118 1298.36 637.487C1298.36 637.754 1298.91 637.487 1298.84 637.287C1297.98 633.717 1296.6 630.448 1295.52 627.078Z" fill="#263238"/>
<path d="M864.562 745.415V655.734L758.947 745.415H864.562Z" fill="#FFCEC0"/>
<path d="M321.763 935.552C352.185 1063.3 415.105 1216.44 441.967 1241.29C475.95 1272.72 700.767 1330.37 711.968 1331.54C739.625 1334.24 795.388 1141.37 765.795 1137.2C720.853 1130.93 557.123 1122.35 547.34 1112.65C537.556 1102.94 468.068 1018.39 397.059 923.408C348.037 857.782 302.852 856.281 321.763 935.552Z" fill="#FFA698"/>
<path d="M689.704 1321.13C692.988 1322.74 739.97 1345.56 769.01 1353.66C790.686 1359.74 853.537 1375.58 862.836 1353.2C869.197 1337.98 833.347 1324.47 808.248 1314.36C795.008 1309.02 778.69 1295.68 782.596 1287.47C789.511 1273.12 823.494 1287.47 845.896 1300.08C889.214 1324.37 946.913 1368.11 973.36 1346.79C983.352 1338.78 971.736 1324.17 954.761 1309.86C982.418 1326.54 1011.73 1340.22 1023.18 1331.74C1029.78 1326.91 1030.09 1320.27 1026.43 1312.73C1034.93 1315.4 1042.43 1314.86 1047.69 1309.39C1056.64 1300.31 1052.29 1286.97 1042.47 1273.26C1044.15 1273.09 1045.77 1272.54 1047.19 1271.64C1048.61 1270.75 1049.79 1269.54 1050.63 1268.12C1069.61 1240.19 974.57 1160.02 941.762 1152.52C845.136 1130.33 743.289 1134.47 743.289 1134.47C705.33 1163.86 689.6 1321.07 689.704 1321.13Z" fill="#FFA698"/>
<path d="M831.79 1235.29C854.798 1238.76 876.776 1246.92 896.266 1259.21C920.777 1274.83 937.025 1293.11 957.56 1311.49C957.642 1311.6 957.683 1311.73 957.678 1311.86C957.673 1311.99 957.622 1312.11 957.532 1312.21C957.443 1312.31 957.321 1312.37 957.188 1312.4C957.054 1312.42 956.917 1312.39 956.8 1312.33C947.016 1303.59 906.429 1270.69 895.954 1263.22C877.006 1249.46 855.066 1240.03 831.79 1235.66C831.479 1235.63 831.548 1235.23 831.79 1235.29Z" fill="#263238"/>
<path d="M849.804 1195.69C875.214 1202.36 901.246 1209.03 924.823 1220.78C950.613 1233.45 970.803 1254.14 990.509 1274.16C1002.45 1286.1 1014.1 1298.33 1025.46 1310.86C1025.91 1311.39 1025.18 1312.22 1024.7 1311.69C1004.56 1291.14 983.813 1271.12 962.471 1251.64C942.718 1233.54 919.456 1219.39 894.02 1210C879.501 1204.63 864.566 1200.39 849.631 1196.12C849.424 1196.05 849.527 1195.62 849.804 1195.69Z" fill="#263238"/>
<path d="M876.944 1161.09C901.628 1165.99 923.166 1170.16 945.015 1182.91C973.951 1199.82 1001.88 1228.28 1011.67 1238.39C1022.49 1249.54 1032.93 1261.01 1043.16 1272.66C1043.58 1273.12 1042.75 1273.86 1042.3 1273.39C1018.85 1247.86 993.706 1223.82 967.036 1201.43C954.49 1190.58 940.288 1181.67 924.929 1175C909.359 1169.1 893.294 1164.5 876.909 1161.26C876.909 1161.26 876.736 1161.06 876.944 1161.09Z" fill="#263238"/>
<path d="M727.73 1126.79L658.587 1338.18C658.587 1338.18 471.384 1286.6 437.331 1251C403.279 1215.41 339.979 1031.57 321.414 942.46C302.85 853.347 349.521 855.715 392.424 911.733C435.326 967.75 542.151 1104.07 547.994 1107.04C553.836 1110.01 727.73 1126.79 727.73 1126.79Z" fill="#FF9577"/>
<path opacity="0.1" d="M727.73 1126.79L658.587 1338.18C658.587 1338.18 471.384 1286.6 437.331 1251C403.279 1215.41 339.979 1031.57 321.414 942.46C302.85 853.347 349.521 855.715 392.424 911.733C435.326 967.75 542.151 1104.07 547.994 1107.04C553.836 1110.01 727.73 1126.79 727.73 1126.79Z" fill="black"/>
<path d="M640.611 1244.27C649.012 1219.34 657.585 1194.49 664.984 1169.27C669.201 1154.95 673.488 1140.61 677.568 1126.26C677.74 1125.69 676.807 1125.39 676.6 1125.93C667.162 1150.62 657.758 1175.41 649.496 1200.49C641.233 1225.58 632.832 1250.54 624.95 1275.46C620.49 1289.74 616.446 1304.09 612.885 1318.6C612.885 1318.87 613.3 1319.03 613.403 1318.77C623.706 1294.38 632.176 1269.36 640.611 1244.27Z" fill="#263238"/>
<path d="M564.174 1309.13L555.877 1306.32C540.285 1300.95 524.382 1295.18 509.413 1289.28C507.477 1288.54 505.576 1287.77 503.709 1287.01C500.701 1285.81 497.693 1284.57 494.789 1283.34L490.433 1281.5L488.878 1280.83L484.383 1278.83C478.437 1276.2 472.802 1273.56 467.547 1270.89L464.09 1269.02C455.876 1264.95 448.134 1260.04 440.997 1254.38C440.34 1253.81 439.683 1253.24 439.095 1252.68C438.507 1252.11 437.885 1251.54 437.367 1251.01C403.141 1215.41 340.014 1031.58 321.449 942.464L320.827 939.394V938.727C319.582 932.054 318.476 923.58 317.577 914.505C314.985 870.165 336.73 862.925 363.592 882.409C430.556 1021.1 533.129 1250.27 564.174 1309.13Z" fill="#263238"/>
<path d="M467.065 1344.62L59.125 1346.69C59.4707 1338.22 117.55 1090.33 163.737 998.845C222.958 881.539 253.623 872.064 271.703 865.792C295.039 857.718 336.594 861.722 346.446 866.226C357.647 871.263 393.256 931.251 406.012 975.257C431.526 1063.77 472.804 1339.22 467.065 1344.62Z" fill="#37474F"/>
<path d="M250.789 875.066C250.789 875.066 302.646 1060.4 305.239 1072.71C309.145 1090.59 335.004 1345.76 335.004 1345.76L50.6562 1346.69C50.6562 1346.69 112.712 1110.48 158.899 1007.05C209.304 893.616 250.789 875.066 250.789 875.066Z" fill="#FF9577"/>
<g opacity="0.1">
<path opacity="0.1" d="M250.789 875.066C250.789 875.066 302.646 1060.4 305.239 1072.71C309.145 1090.59 335.004 1345.76 335.004 1345.76L50.6562 1346.69C50.6562 1346.69 112.712 1110.48 158.899 1007.05C209.304 893.616 250.789 875.066 250.789 875.066Z" fill="black"/>
</g>
<path d="M350.178 869.094C351.699 874.999 399.511 1025.57 402.83 1063.1C406.529 1104.74 439.233 1346.69 439.233 1346.69H480.719C480.719 1346.69 420.668 999.077 404.178 962.344C370.436 887.377 350.178 869.094 350.178 869.094Z" fill="#FF9577"/>
<path opacity="0.1" d="M350.178 869.094C351.699 874.999 399.511 1025.57 402.83 1063.1C406.529 1104.74 439.233 1346.69 439.233 1346.69H480.719C480.719 1346.69 420.668 999.077 404.178 962.344C370.436 887.377 350.178 869.094 350.178 869.094Z" fill="black"/>
<path d="M197.098 918.405C128.785 989.035 -37.2948 1257.01 15.3917 1305.89C68.0782 1354.76 360.585 1288.97 442.726 1251.17C467.168 1239.96 374.31 1092.9 345.581 1089.46C321.658 1086.62 199.414 1140.57 195.853 1133.8C191.878 1126.13 211.307 1069.51 240.796 966.982C274.641 848.809 227.313 887.177 197.098 918.405Z" fill="#FFA698"/>
<path d="M466.996 1042.02C526.389 1034.01 543.053 1040.78 589.344 1008.35C619.801 987.069 646.974 996.711 629.584 1030.51C601.167 1085.82 526.77 1111.65 498.214 1113.45L466.996 1042.02Z" fill="#FFA698"/>
<path d="M309.211 1097.13C309.211 1097.13 375.968 1061.37 438.404 1046.82C481.548 1036.81 578.002 1024.97 670.307 1116.88C692.191 1138.67 707.368 1184.71 658.242 1161.66C623.325 1145.28 606.385 1124.72 584.225 1118.75C584.225 1118.75 596.325 1179.51 572.851 1199.83C552.335 1217.58 530.534 1233.9 507.615 1248.67C503.846 1245.25 500.313 1241.59 497.036 1237.73C497.036 1237.73 473.251 1254.71 428.516 1250.57L309.211 1097.13Z" fill="#FFA698"/>
<path d="M481.203 1043.75C501.946 1054.13 545.194 1076.85 573.958 1107.34C605.936 1141.24 658.035 1214.77 631.864 1237.46C612.712 1253.97 590.379 1227.45 590.379 1227.45C590.379 1227.45 605.279 1262.25 584.571 1273.49C565.73 1283.77 549.62 1262.35 549.62 1262.35C549.62 1262.35 554.909 1284.93 534.754 1291.44C510.554 1299.25 503.432 1250.6 471.8 1238.06C464.574 1235.06 481.203 1043.75 481.203 1043.75Z" fill="#FFA698"/>
<path d="M531.264 1133.83C548.999 1146.68 581.565 1185.81 590.553 1226.35C590.761 1227.28 590.173 1227.92 589.793 1227.12C574.176 1193.94 554.441 1162.72 531.022 1134.13C530.745 1133.83 531.022 1133.83 531.264 1133.83Z" fill="#263238"/>
<path d="M496.764 1165.96C510.903 1178.57 542.605 1220.35 550.245 1261.75C550.418 1262.68 549.761 1263.28 549.45 1262.45C535.607 1228.55 517.828 1196.27 496.453 1166.23C496.245 1166.03 496.453 1165.8 496.764 1165.96Z" fill="#263238"/>
<path d="M584.227 1118.35C603.587 1123.86 616.171 1133.03 632.627 1143.98C640.637 1149.5 648.958 1154.59 657.553 1159.22C665.435 1163.33 677.085 1169.53 685.452 1163.09C690.153 1159.52 690.084 1153.08 688.909 1147.85C686.545 1140.26 682.951 1133.09 678.261 1126.59C678.261 1126.33 678.503 1126.03 678.71 1126.26C683.238 1132.18 687.13 1138.53 690.326 1145.21C692.419 1149.79 693.034 1154.87 692.089 1159.79C689.22 1170.07 676.636 1171.43 667.889 1168.6C662.589 1166.72 657.494 1164.34 652.678 1161.49C647.976 1158.89 643.413 1156.09 638.85 1153.15C629.654 1147.15 620.838 1140.64 611.711 1134.53C602.844 1128.79 593.606 1123.6 584.054 1118.99C583.982 1118.95 583.923 1118.9 583.889 1118.83C583.856 1118.76 583.848 1118.68 583.869 1118.6C583.889 1118.53 583.936 1118.46 584.002 1118.41C584.067 1118.37 584.147 1118.35 584.227 1118.35V1118.35Z" fill="#263238"/>
<path d="M624.776 1184.08C619.763 1173.43 592.625 1129.06 583.843 1118.79C583.811 1118.73 583.797 1118.67 583.805 1118.61C583.812 1118.55 583.84 1118.5 583.884 1118.46C583.928 1118.41 583.985 1118.39 584.047 1118.38C584.108 1118.37 584.171 1118.39 584.224 1118.42C599.331 1132.23 623.566 1168.9 629.166 1180.64C634.767 1192.38 641.197 1207.1 641.197 1220.01C641.197 1239.53 627.783 1243.36 622.84 1244.2C616.923 1245.23 610.818 1244.27 605.554 1241.46C599.395 1237.83 594.076 1233.02 589.928 1227.32C589.721 1227.05 590.101 1226.68 590.343 1226.95C597.257 1234.66 609.011 1242.23 619.97 1240.83C622.401 1240.61 624.761 1239.92 626.911 1238.8C629.061 1237.68 630.956 1236.16 632.485 1234.32C635.48 1229.63 636.633 1224.05 635.735 1218.61C634.118 1206.59 630.413 1194.91 624.776 1184.08V1184.08Z" fill="#263238"/>
<path d="M309.211 1097.14L402.83 1287.31C402.83 1287.31 36.652 1366.65 5.05396 1305.12C-26.5441 1243.6 115.682 1002.85 179.742 932.721C254.036 851.448 263.508 879.106 247.156 951.138C229.871 1026.54 196.924 1135.57 196.924 1135.57L309.211 1097.14Z" fill="#FF9577"/>
<path opacity="0.1" d="M309.211 1097.14L402.83 1287.31C402.83 1287.31 36.652 1366.65 5.05396 1305.12C-26.5441 1243.6 115.682 1002.85 179.742 932.721C254.036 851.448 263.508 879.106 247.156 951.138C229.871 1026.54 196.924 1135.57 196.924 1135.57L309.211 1097.14Z" fill="black"/>
<path d="M85.6376 1186.18C119.413 1163.54 156.502 1145.9 195.678 1133.83C206.775 1130.49 217.976 1127.33 229.177 1124.22C229.523 1124.22 229.661 1124.66 229.177 1124.76C209.641 1130.86 190.491 1138.05 171.824 1146.31C153.178 1154.32 134.74 1162.65 116.51 1171.3C106.138 1176.2 96.0435 1181.57 85.8796 1186.81C85.8114 1186.8 85.748 1186.77 85.6954 1186.72C85.6427 1186.68 85.6024 1186.62 85.5783 1186.56C85.5542 1186.5 85.547 1186.43 85.5573 1186.36C85.5677 1186.3 85.5953 1186.23 85.6376 1186.18V1186.18Z" fill="#263238"/>
<path d="M308.243 1096.63C306.411 1097.1 206.258 1129.03 202.974 1130.5C203.389 1129.03 221.366 1077.65 224.063 1070.11C224.305 1069.37 224.547 1068.61 224.823 1067.87C226.621 1064.54 228.488 1061.2 230.182 1057.86C232.325 1053.49 234.468 1049.06 236.577 1044.52H236.37L229.456 1057.43C228.384 1059.4 227.381 1061.43 226.379 1063.47C228.142 1058.16 229.836 1052.83 231.53 1047.45C234.226 1038.95 236.646 1030.34 239.032 1021.73C239.032 1021.43 238.686 1021.36 238.582 1021.73C233.258 1036.71 227.451 1051.52 222.092 1066.51C216.733 1081.49 196.129 1136.57 196.302 1136.57C196.475 1136.57 306.584 1099 308.727 1098.17C308.832 1098.14 308.929 1098.09 309.013 1098.02C309.098 1097.95 309.167 1097.87 309.219 1097.78C309.27 1097.68 309.302 1097.58 309.313 1097.48C309.323 1097.37 309.312 1097.27 309.281 1097.17C309.249 1097.07 309.197 1096.97 309.127 1096.89C309.058 1096.81 308.973 1096.74 308.877 1096.69C308.78 1096.64 308.675 1096.61 308.566 1096.6C308.457 1096.59 308.348 1096.6 308.243 1096.63V1096.63Z" fill="#263238"/>
<path d="M314.987 1220.58C304.616 1199.39 294.556 1178.07 283.458 1157.19C277.132 1145.34 270.874 1133.47 264.444 1121.69C264.202 1121.26 263.372 1121.69 263.58 1122.06C273.052 1143.74 282.594 1165.43 293.104 1186.75C303.613 1208.07 313.846 1229.12 324.529 1250.14C330.613 1262.08 337.078 1273.84 343.923 1285.4C343.923 1285.64 344.476 1285.4 344.373 1285.4C335.661 1263.32 325.393 1242 314.987 1220.58Z" fill="#263238"/>
<path d="M407.57 1290.24C403.905 1284.37 399.273 1275.96 395.366 1270.22C394.329 1268.72 393.119 1269.02 393.949 1270.59C396.749 1275.93 399.065 1281.9 401.796 1287.27C396.68 1288.27 391.425 1289.14 386.378 1290.17C380.431 1291.38 374.52 1292.61 368.574 1293.78C356.912 1296 345.25 1298.23 333.587 1300.45C309.941 1304.7 286.202 1308.44 262.371 1311.66C214.629 1318.41 166.556 1322.76 118.347 1324.71C104.864 1325.17 91.347 1325.41 77.8643 1325.24C64.5646 1325.27 51.2719 1324.65 38.0382 1323.37C37.658 1323.37 37.5888 1323.94 38.0382 1324.01C49.4256 1326.33 60.9853 1327.78 72.6094 1328.34C84.8131 1328.91 97.0513 1329.18 109.29 1329.04C133.489 1328.78 157.931 1327.24 182.166 1325.11C230.22 1320.84 278.135 1314.56 325.636 1306.46C338.958 1304.23 352.244 1301.82 365.497 1299.22C372.204 1297.91 378.876 1296.61 385.548 1295.18C392.22 1293.74 408.192 1291.24 407.57 1290.24Z" fill="#263238"/>
<path d="M350.249 938.257C326.05 944.697 282.732 910.166 265.031 881.54C263.821 879.571 266.207 858.352 267.832 832.429C268.765 816.715 269.387 799.066 268.765 783.118C268.765 779.782 373.965 803.87 373.965 803.87C373.965 803.87 364.977 837.834 366.221 865.792C366.331 868.04 366.655 870.274 367.189 872.465C367.285 872.816 367.354 873.172 367.397 873.533C369.99 885.91 373.654 932.019 350.249 938.257Z" fill="#FFA698"/>
<path d="M275.193 783.516C281.07 810.473 301.053 875.365 356.712 874.598C360.282 874.564 363.843 874.252 367.36 873.664C367.404 873.298 367.404 872.928 367.36 872.563C366.847 870.367 366.512 868.136 366.358 865.89C365.148 837.898 374.102 803.901 374.102 803.901C374.102 803.901 297.976 786.552 275.193 783.516Z" fill="#263238"/>
<path d="M386.514 734.973C385.338 759.595 402.555 780.347 424.957 781.348C447.359 782.349 466.442 763.132 467.583 738.51C468.724 713.887 451.508 693.135 429.14 692.168C406.773 691.2 387.655 710.351 386.514 734.973Z" fill="#455A64"/>
<path d="M463.472 739.871C464.756 712.481 445.603 689.396 420.692 688.308C395.782 687.221 374.548 708.543 373.264 735.933C371.98 763.323 391.133 786.409 416.043 787.496C440.953 788.584 462.188 767.261 463.472 739.871Z" fill="#37474F"/>
<path d="M282.486 655.37C264.371 688.333 263.23 793.128 284.526 820.552C315.398 860.255 376.07 874.834 413.476 836.9C449.88 800 448.843 663.411 424.124 637.487C387.79 599.219 309.244 606.693 282.486 655.37Z" fill="#FFA698"/>
<path d="M372.79 736.377C372.79 736.11 372.202 736.744 372.237 737.044C372.617 744.084 371.857 752.224 365.323 754.693C365.115 754.693 365.15 755.127 365.323 755.093C373.412 753.826 374.311 743.016 372.79 736.377Z" fill="#263238"/>
<path d="M366.077 729.168C354.289 728.567 353.908 751.354 364.798 751.888C375.688 752.422 375.965 729.668 366.077 729.168Z" fill="#263238"/>
<path d="M413.719 737.244C413.719 736.977 414.272 737.611 414.272 737.878C413.927 744.951 414.756 753.092 421.187 755.527C421.394 755.527 421.187 755.961 421.187 755.928C413.201 754.693 412.198 743.883 413.719 737.244Z" fill="#263238"/>
<path d="M420.388 730.137C432.142 729.436 432.696 752.223 421.771 752.857C410.847 753.491 410.501 730.537 420.388 730.137Z" fill="#263238"/>
<path d="M355.501 710.952C358.958 710.785 361.828 710.084 365.112 709.617C368.577 709.553 371.921 708.38 374.619 706.281C375.343 705.477 375.769 704.465 375.832 703.402C375.894 702.339 375.589 701.286 374.965 700.409C373.453 698.874 371.545 697.755 369.436 697.169C367.327 696.582 365.095 696.549 362.969 697.072C358.463 697.418 354.257 699.383 351.18 702.577C350.535 703.343 350.133 704.272 350.021 705.253C349.908 706.233 350.091 707.224 350.547 708.107C351.002 708.991 351.712 709.728 352.59 710.233C353.469 710.737 354.48 710.987 355.501 710.952Z" fill="#263238"/>
<path d="M431.487 713.455C428.331 712.785 425.215 711.949 422.152 710.953C418.752 710.557 415.581 709.091 413.129 706.782C412.509 705.901 412.21 704.846 412.279 703.783C412.348 702.721 412.781 701.71 413.51 700.91C415.201 699.543 417.238 698.634 419.413 698.276C421.587 697.919 423.821 698.125 425.886 698.875C430.307 699.771 434.225 702.221 436.88 705.748C437.397 706.586 437.657 707.548 437.628 708.523C437.6 709.498 437.284 710.445 436.719 711.254C436.153 712.062 435.361 712.698 434.434 713.088C433.508 713.478 432.485 713.605 431.487 713.455V713.455Z" fill="#263238"/>
<path d="M359.444 801.802C361.172 803.47 362.901 805.772 365.528 806.039C368.247 806.015 370.931 805.447 373.411 804.371C373.46 804.36 373.512 804.364 373.56 804.38C373.607 804.396 373.65 804.425 373.682 804.463C373.714 804.501 373.735 804.546 373.742 804.595C373.749 804.643 373.742 804.693 373.722 804.737C372.661 806.115 371.232 807.188 369.588 807.84C367.943 808.493 366.145 808.7 364.388 808.441C362.901 808.039 361.571 807.224 360.562 806.096C359.554 804.969 358.912 803.579 358.718 802.102C358.614 801.702 359.167 801.535 359.444 801.802Z" fill="#263238"/>
<path d="M367.497 780.784C369.302 783.604 371.694 786.032 374.52 787.916C377.346 789.799 380.546 791.097 383.918 791.727C386.859 792.333 389.875 792.524 392.872 792.294C393.452 792.274 394.029 792.218 394.601 792.127L396.191 791.894C396.583 791.832 396.943 791.648 397.217 791.372C397.491 791.095 397.665 790.739 397.712 790.359V790.359C397.73 790.115 397.73 789.87 397.712 789.625V789.625V788.991C397.954 783.553 397.712 775.279 397.712 775.279C399.752 776.313 410.193 781.051 410.054 778.215C409.017 754.66 407.842 728.503 401.654 705.316C401.619 705.168 401.533 705.037 401.411 704.943C401.288 704.848 401.136 704.797 400.979 704.797C400.823 704.797 400.671 704.848 400.548 704.943C400.426 705.037 400.34 705.168 400.305 705.316C400.305 727.97 404.592 750.457 405.041 773.21C401.339 771.483 397.407 770.259 393.356 769.574C392.561 769.807 394.428 785.555 394.117 787.99C394.125 788.079 394.125 788.169 394.117 788.257C384.61 789.258 377.523 786.389 368.465 780.117C367.635 779.75 367.048 780.183 367.497 780.784Z" fill="#263238"/>
<path d="M389.588 789.456C386.444 793.297 382.323 796.285 377.626 798.131C375.034 799.057 372.208 799.185 369.537 798.498C363.729 796.896 363.66 791.825 364.8 787.321C365.438 785.002 366.354 782.762 367.532 780.648C373.724 785.777 381.451 788.863 389.588 789.456V789.456Z" fill="#263238"/>
<path d="M377.626 798.13C375.034 799.056 372.208 799.184 369.537 798.497C363.729 796.895 363.66 791.824 364.8 787.32C371.058 788.054 377.177 792.258 377.626 798.13Z" fill="#FF98B9"/>
<path opacity="0.2" d="M268.9 729.367C276.022 728.266 293.1 705.012 300.326 695.77C307.551 686.528 311.734 636.984 312.391 625.707C299.713 632.626 289.331 642.877 282.452 655.267C274.363 670.08 269.696 699.207 268.9 729.367Z" fill="#263238"/>
<path d="M400.718 666.748C396.496 671.216 391.162 674.57 385.221 676.491C379.279 678.412 372.928 678.837 366.769 677.724C360.484 676.608 354.599 673.959 349.673 670.029C344.748 666.099 340.946 661.018 338.628 655.271C338.628 654.904 337.937 655.104 338.075 655.438C339.944 661.699 343.55 667.348 348.504 671.775C353.457 676.203 359.57 679.241 366.181 680.56C372.751 681.518 379.465 680.788 385.649 678.446C391.834 676.103 397.269 672.229 401.409 667.215C401.433 667.129 401.429 667.038 401.397 666.955C401.366 666.871 401.308 666.799 401.233 666.748C401.157 666.697 401.068 666.67 400.975 666.67C400.883 666.67 400.793 666.697 400.718 666.748V666.748Z" fill="#263238"/>
<path d="M365.596 577.932C344.265 577.732 324.352 588.509 316.09 602.254C311.501 610.087 309.795 619.189 311.25 628.078C311.25 628.445 312.045 628.378 312.011 628.078C311.831 620.244 313.839 612.509 317.823 605.682C321.807 598.855 327.621 593.189 334.655 589.276C342.356 584.721 351.048 581.953 360.046 581.188C369.045 580.424 378.104 581.685 386.512 584.872C394.706 587.798 401.548 593.454 405.802 600.82C406.217 601.587 407.807 601.153 407.496 600.386C402.103 587.308 384.852 578.099 365.596 577.932Z" fill="#263238"/>
<path d="M487.805 626.274C484.643 616.022 477.837 607.174 468.583 601.285C455.757 593.078 440.926 593.778 426.268 594.779C426.186 594.779 426.107 594.811 426.048 594.867C425.99 594.924 425.957 595 425.957 595.08C425.957 595.159 425.99 595.236 426.048 595.292C426.107 595.348 426.186 595.38 426.268 595.38C438.783 594.579 451.54 594.446 462.81 600.484C472.191 605.385 479.521 613.273 483.553 622.805C487.39 632.581 487.439 643.365 483.691 653.174C479.943 662.982 472.651 671.154 463.156 676.186C457.618 678.947 451.554 680.587 445.335 681.006C439.117 681.424 432.876 680.613 426.994 678.622C426.51 678.455 426.164 679.089 426.614 679.289C434.559 682.311 443.218 683.139 451.624 681.682C460.029 680.224 467.848 676.538 474.206 671.036C480.564 665.534 485.209 658.433 487.623 650.527C490.037 642.622 490.124 634.225 487.874 626.274H487.805Z" fill="#263238"/>
<path d="M274.78 675.553C274.78 675.553 255.904 638.085 273.605 617.4C283.63 605.69 315.367 608.359 315.367 608.359C315.367 608.359 326.256 591.11 352.807 586.205C379.358 581.301 410.679 597.349 410.679 597.349C410.679 597.349 436.47 584.304 459.632 598.183C491.956 617.534 486.01 665.877 452.199 680.29C428.484 690.299 397.577 669.414 397.577 669.414C394.5 669.714 362.625 686.729 340.085 659.071C340.085 659.071 320.31 674.818 303.543 662.708C300.691 667.435 296.402 671.203 291.257 673.501C286.113 675.798 280.36 676.514 274.78 675.553V675.553Z" fill="#263238"/>
<path d="M288.363 742.046C288.363 742.046 270.421 705.346 253.515 710.818C236.61 716.29 245.979 767.069 262.919 776.611C265.009 777.979 267.364 778.926 269.843 779.394C272.322 779.861 274.873 779.841 277.343 779.333C279.814 778.825 282.152 777.84 284.218 776.438C286.284 775.035 288.035 773.244 289.366 771.172L288.363 742.046Z" fill="#FFA698"/>
<path d="M256.557 725.266C256.28 725.266 256.142 725.599 256.557 725.733C268.38 732.806 273.047 745.317 275.605 757.895C272.667 752.724 267.931 749.387 260.878 752.657C260.805 752.703 260.749 752.771 260.718 752.85C260.688 752.929 260.683 753.015 260.706 753.096C260.729 753.178 260.778 753.25 260.847 753.303C260.915 753.356 260.998 753.387 261.086 753.391C263.446 753.082 265.848 753.483 267.964 754.54C270.08 755.597 271.807 757.258 272.909 759.296C274.701 762.725 276.114 766.326 277.127 770.039C277.541 771.24 279.685 770.973 279.477 769.639C279.494 769.539 279.494 769.438 279.477 769.339C282.381 753.758 273.704 729.77 256.557 725.266Z" fill="#263238"/>
<path d="M327.464 815.949L293.412 801.769L266.031 768.873L271.286 764.77L297.629 796.431L330.161 809.977L327.464 815.949Z" fill="#37474F"/>
<path d="M323.834 810.707C327.291 801.131 354.948 804.668 349.935 819.148C344.923 833.627 320.481 820.215 323.834 810.707Z" fill="#37474F"/>
<path d="M253.001 709.819C253.001 709.819 249.301 656.004 265.619 626.411C283.804 593.348 359.169 561.886 410.818 597.418C410.818 597.418 326.914 582.938 287.814 628.78C271.358 648.064 271.773 711.321 271.773 711.321L253.001 709.819Z" fill="#37474F"/>
<path d="M260.609 787.109C285.543 786.869 305.527 764.45 305.245 737.033C304.962 709.616 284.52 687.585 259.585 687.824C234.651 688.064 214.667 710.483 214.949 737.9C215.232 765.317 235.674 787.348 260.609 787.109Z" fill="#37474F"/>
<path d="M292.061 735.608C292.303 760.264 274.361 780.415 251.958 780.616C229.556 780.816 211.164 761.031 210.922 736.376C210.68 711.72 228.623 691.569 251.025 691.369C273.427 691.169 291.819 710.953 292.061 735.608Z" fill="#455A64"/>
<path d="M366.979 871.866L342.606 931.253L265.927 856.586L244.424 880.741C244.424 880.741 319.616 999.548 320.066 994.177L345.13 942.964L381.844 978.362L378.387 889.149L366.979 871.866Z" fill="#37474F"/>
<path d="M382.744 934.154C381.672 919.441 381.05 904.594 379.286 889.948C379.286 889.447 378.388 889.214 378.249 889.948C375.276 904.194 379.667 960.411 379.667 973.924H379.494C377.973 972.389 345.476 942.796 345.165 943.263C339.737 951.403 321.311 988.67 320.066 992.073C308.173 973.19 257.838 898.823 243.664 880.973C243.595 880.858 243.482 880.774 243.349 880.74C243.216 880.705 243.074 880.723 242.955 880.79C242.836 880.856 242.749 880.965 242.713 881.094C242.677 881.222 242.696 881.359 242.765 881.474C253.136 901.492 318.476 999.613 319.375 999.346C329.074 981.753 337.832 963.691 345.614 945.231C351.111 951.67 383.884 985.1 383.988 982.898C384.466 966.641 384.05 950.37 382.744 934.154V934.154Z" fill="#263238"/>
<path d="M1204.6 715.726H1097.68C1087.31 715.717 1077.37 711.738 1070.04 704.664C1062.71 697.589 1058.59 687.997 1058.58 677.992V677.992C1058.58 667.984 1062.7 658.386 1070.03 651.31C1077.36 644.233 1087.31 640.258 1097.68 640.258H1204.6C1214.97 640.258 1224.92 644.233 1232.25 651.31C1239.59 658.386 1243.7 667.984 1243.7 677.992C1243.7 682.947 1242.69 687.854 1240.73 692.432C1238.76 697.01 1235.88 701.17 1232.25 704.674C1228.62 708.178 1224.31 710.957 1219.57 712.853C1214.82 714.75 1209.74 715.726 1204.6 715.726V715.726Z" fill="#37474F"/>
<path d="M1121.04 677.326C1121.12 676.132 1121.52 674.98 1122.22 673.989L1123.19 672.622L1125.23 670.653L1127.61 668.985C1130.9 666.968 1134.56 665.596 1138.4 664.948C1147.24 663.247 1156.35 663.247 1165.19 664.948C1168.98 665.573 1172.6 666.923 1175.84 668.918C1176.67 669.452 1177.5 670.053 1178.29 670.62L1180.3 672.555C1180.82 673.286 1181.31 674.044 1181.75 674.824C1182.09 675.626 1182.37 676.451 1182.58 677.292H1165.05C1164.92 677.31 1164.78 677.283 1164.66 677.217C1164.54 677.15 1164.45 677.048 1164.4 676.925C1163.92 676.029 1163.2 675.27 1162.32 674.725C1161.44 674.18 1160.43 673.869 1159.38 673.823C1154.28 673.506 1149.17 673.506 1144.07 673.823C1143.03 673.865 1142.02 674.171 1141.15 674.71C1140.28 675.249 1139.56 676.002 1139.09 676.892C1139.09 677.126 1138.85 677.292 1138.5 677.292H1121.04V677.326Z" fill="white"/>
<path d="M1121.05 686.766V680.594H1138.33C1138.33 680.961 1138.33 681.361 1138.33 681.795V686.766C1138.38 687.057 1138.35 687.354 1138.26 687.634C1138.16 687.914 1138 688.168 1137.79 688.377C1137.57 688.585 1137.31 688.741 1137.02 688.832C1136.73 688.923 1136.42 688.947 1136.12 688.901H1123.22C1122.92 688.949 1122.62 688.926 1122.33 688.835C1122.04 688.743 1121.78 688.587 1121.56 688.378C1121.35 688.168 1121.19 687.913 1121.1 687.632C1121.01 687.352 1120.99 687.055 1121.05 686.766V686.766Z" fill="white"/>
<path d="M1165.19 686.968C1165.19 684.866 1165.19 682.764 1165.19 680.695H1182.31V681.062C1182.31 682.997 1182.31 684.966 1182.31 686.901C1182.34 687.18 1182.31 687.463 1182.21 687.729C1182.11 687.994 1181.96 688.236 1181.75 688.434C1181.55 688.633 1181.3 688.785 1181.02 688.877C1180.75 688.97 1180.45 689.001 1180.16 688.969H1167.13C1166.86 688.981 1166.59 688.936 1166.34 688.837C1166.09 688.739 1165.87 688.589 1165.68 688.399C1165.5 688.209 1165.36 687.982 1165.28 687.735C1165.19 687.488 1165.16 687.226 1165.19 686.968Z" fill="white"/>
<path d="M765.9 1350.7H742.184V1365.64H765.9V1350.7Z" fill="#455A64"/>
<path d="M796.634 1349.7H772.918V1364.64H796.634V1349.7Z" fill="#455A64"/>
<path d="M827.398 1348.7H803.682V1363.64H827.398V1348.7Z" fill="#455A64"/>
<path d="M858.167 1347.73H834.451V1362.67H858.167V1347.73Z" fill="#455A64"/>
<path d="M888.936 1346.73H865.221V1361.67H888.936V1346.73Z" fill="#455A64"/>
<path d="M919.708 1345.76H895.992V1360.7H919.708V1345.76Z" fill="#455A64"/>
<path d="M950.478 1344.76H926.762V1359.7H950.478V1344.76Z" fill="#455A64"/>
<path d="M981.239 1343.75H957.523V1358.7H981.239V1343.75Z" fill="#455A64"/>
<path d="M1011.98 1342.79H988.26V1357.73H1011.98V1342.79Z" fill="#455A64"/>
<path d="M1017.82 1374.22H736.342V1356.03L1017.82 1348.46V1374.22Z" fill="#37474F"/>
<path d="M1292.52 1302.52H827.883L901.761 968.684H1366.4L1292.52 1302.52Z" fill="#455A64"/>
<path d="M1309.7 1302.52H845.066L918.945 968.684H1383.58L1309.7 1302.52Z" fill="#37474F"/>
<path d="M1143.77 1135C1156.38 1123.76 1158.53 1106.22 1148.58 1095.83C1138.63 1085.44 1120.34 1086.12 1107.74 1097.37C1095.13 1108.61 1092.98 1126.15 1102.93 1136.54C1112.88 1146.93 1131.17 1146.25 1143.77 1135Z" fill="#263238"/>
<path d="M1178.3 1389.7H949.785V1372.55L1178.3 1365.44V1389.7Z" fill="#455A64"/>
<path d="M1240.42 1389.66H1117.73L1043.82 1202.59H1166.51L1240.42 1389.66Z" fill="#455A64"/>
<path d="M1260.61 1389.66H1137.92L1064.04 1202.59H1186.73L1260.61 1389.66Z" fill="#263238"/>
<path d="M727.663 1394.23H492.06C471.974 1394.23 501.049 1338.98 574.443 1317.8C647.838 1296.61 750.826 1373.51 727.663 1394.23Z" fill="#37474F"/>
<path d="M635.223 1394.24C635.412 1387.94 636.494 1381.7 638.438 1375.69C640.336 1369.62 642.995 1363.81 646.355 1358.37C649.736 1352.91 653.955 1347.97 658.869 1343.72C663.73 1339.47 669.337 1336.08 675.429 1333.71C672.905 1335.72 670.036 1337.05 667.72 1339.29L664.262 1342.26L660.805 1345.59C656.437 1349.99 652.609 1354.86 649.397 1360.11C646.134 1365.35 643.336 1370.85 641.031 1376.55C638.685 1382.32 636.745 1388.22 635.223 1394.24Z" fill="#263238"/>
<path d="M663.121 1341.65C677.115 1346.12 690.357 1352.54 702.429 1360.7C708.529 1364.77 714.05 1369.59 718.85 1375.05C721.207 1377.84 723.236 1380.87 724.9 1384.09C726.543 1387.31 727.484 1390.82 727.666 1394.4C726.841 1391 725.401 1387.77 723.413 1384.86C721.532 1381.94 719.33 1379.22 716.845 1376.75C711.808 1371.82 706.31 1367.36 700.423 1363.41C694.581 1359.33 688.393 1355.7 682.204 1352.1C679.093 1350.29 675.912 1348.56 672.732 1346.89C669.551 1345.22 666.336 1343.35 663.121 1341.65Z" fill="#263238"/>
<path d="M744.532 636.352C742.499 654.96 735.149 672.657 723.303 687.47C711.456 702.282 695.578 713.627 677.441 720.239C659.303 726.851 639.618 728.47 620.583 724.916C601.547 721.361 583.909 712.773 569.636 700.11L517.191 707.65L543.396 663.977C536.848 648.591 534.377 631.872 536.206 615.333C537.548 602.072 541.596 589.197 548.116 577.452C554.636 565.706 563.499 555.322 574.195 546.896C584.891 538.47 597.209 532.169 610.439 528.357C623.668 524.544 637.549 523.295 651.281 524.681C665.013 526.067 678.326 530.061 690.452 536.433C702.578 542.806 713.278 551.43 721.935 561.809C730.593 572.189 737.038 584.119 740.898 596.912C744.758 609.706 745.958 623.109 744.428 636.352H744.532Z" fill="white"/>
<path d="M744.532 636.353C742.519 654.977 735.209 672.701 723.409 687.566C720.477 691.263 717.313 694.784 713.936 698.108C710.434 701.318 706.741 704.325 702.873 707.117C695.171 712.775 686.673 717.347 677.636 720.696C668.603 724.11 659.119 726.289 649.461 727.168C644.623 727.607 639.758 727.696 634.906 727.435C630.046 727.326 625.203 726.846 620.421 726C601.095 722.578 583.139 714.029 568.564 701.311L569.809 701.678L517.503 709.452L513.734 710.119L515.636 706.783L541.702 662.977V664.712C535.586 650.361 532.942 634.853 533.971 619.368C535.001 603.883 539.676 588.828 547.643 575.35C555.61 561.871 566.657 550.324 579.944 541.587C593.232 532.849 608.41 527.152 624.323 524.928C640.235 522.704 656.464 524.013 671.774 528.754C687.084 533.495 701.072 541.544 712.673 552.288C724.274 563.032 733.183 576.188 738.721 590.755C744.26 605.323 746.283 620.917 744.635 636.353H744.532ZM744.532 636.353C746.173 621.148 744.183 605.782 738.715 591.434C733.248 577.087 724.447 564.138 712.988 553.583C701.53 543.027 687.719 535.145 672.613 530.541C657.508 525.936 641.511 524.732 625.849 527.021C610.318 529.257 595.524 534.895 582.6 543.503C569.819 552.182 559.134 563.427 551.279 576.466C543.549 589.571 538.987 604.192 537.934 619.237C536.968 634.312 539.508 649.405 545.367 663.411L545.747 664.311L545.229 665.112L518.886 708.718L517.019 706.049L569.429 698.976H570.155L570.673 699.443C584.661 712.081 602.018 720.71 620.801 724.366C625.486 725.274 630.236 725.832 635.01 726.034C639.775 726.351 644.557 726.351 649.323 726.034C658.888 725.329 668.303 723.33 677.291 720.095C686.324 716.944 694.828 712.526 702.528 706.983C706.385 704.216 710.079 701.242 713.59 698.075C716.978 694.785 720.153 691.298 723.098 687.632C735.027 672.786 742.448 655.032 744.532 636.353V636.353Z" fill="#263238"/>
<path d="M698.791 628.91C698.798 631.333 698.06 633.704 696.67 635.722C695.28 637.74 693.301 639.314 690.983 640.246C688.665 641.178 686.113 641.425 683.65 640.957C681.186 640.488 678.922 639.325 677.144 637.613C675.367 635.902 674.155 633.721 673.662 631.345C673.17 628.969 673.419 626.505 674.379 624.266C675.338 622.026 676.964 620.112 679.051 618.765C681.138 617.418 683.593 616.699 686.104 616.699C687.768 616.695 689.417 617.007 690.956 617.619C692.495 618.231 693.894 619.13 695.073 620.264C696.252 621.398 697.187 622.746 697.825 624.23C698.463 625.713 698.791 627.304 698.791 628.91V628.91Z" fill="#FF9577"/>
<path d="M653.369 628.91C653.376 631.335 652.637 633.707 651.246 635.725C649.854 637.744 647.873 639.319 645.553 640.25C643.233 641.18 640.679 641.426 638.215 640.954C635.751 640.483 633.487 639.316 631.71 637.602C629.934 635.887 628.725 633.702 628.236 631.324C627.748 628.946 628.002 626.481 628.967 624.242C629.931 622.004 631.563 620.092 633.654 618.749C635.746 617.406 638.204 616.693 640.716 616.699C644.072 616.699 647.29 617.986 649.663 620.276C652.036 622.566 653.369 625.672 653.369 628.91V628.91Z" fill="#FF9577"/>
<path d="M607.975 628.91C607.982 631.333 607.243 633.704 605.853 635.722C604.463 637.74 602.484 639.314 600.166 640.246C597.849 641.178 595.297 641.425 592.833 640.957C590.37 640.488 588.106 639.325 586.328 637.613C584.55 635.902 583.338 633.721 582.846 631.345C582.354 628.969 582.603 626.505 583.562 624.266C584.521 622.026 586.148 620.112 588.235 618.765C590.322 617.418 592.776 616.699 595.287 616.699C598.646 616.699 601.868 617.985 604.246 620.274C606.625 622.563 607.966 625.669 607.975 628.91V628.91Z" fill="#FF9577"/>
<path d="M788.883 112.478C790.917 131.085 798.265 148.782 810.109 163.596C821.953 178.409 837.827 189.757 855.962 196.375C874.097 202.993 893.78 204.62 912.816 201.076C931.853 197.532 949.496 188.955 963.779 176.302L1016.12 183.709L989.949 140.036C995.951 125.815 998.514 110.46 997.445 95.1394C996.375 79.8186 991.701 64.9346 983.777 51.6188C975.852 38.303 964.887 26.9056 951.714 18.293C938.541 9.68034 923.507 4.07902 907.754 1.91474C892.002 -0.249543 875.945 1.08016 860.805 5.8028C845.665 10.5254 831.839 18.5167 820.379 29.1693C808.919 39.8219 800.126 52.8555 794.669 67.2795C789.211 81.7036 787.233 97.1384 788.883 112.411V112.478Z" fill="white"/>
<path d="M820.209 29.038C831.609 18.1874 845.441 10.011 860.637 5.14007C875.833 0.269173 891.985 -1.1658 907.847 0.945984C923.82 2.97901 939.099 8.51416 952.513 17.1272C972.833 30.2176 987.84 49.6846 994.991 72.2303C1002.14 94.776 1001 119.014 991.751 140.839V139.104L1017.75 182.977L1019.65 186.313L1015.88 185.746L963.541 178.005L964.786 177.638C950.211 190.356 932.255 198.905 912.929 202.327C908.147 203.173 903.304 203.653 898.444 203.762C893.603 204.007 888.751 203.918 883.924 203.495C864.535 201.711 846.036 194.782 830.477 183.477C826.609 180.686 822.916 177.678 819.414 174.469C816.045 171.137 812.882 167.616 809.941 163.926C794.27 144.166 786.653 119.546 788.532 94.729C790.412 69.912 801.658 46.6222 820.14 29.2715L820.209 29.038ZM810.322 163.459C813.267 167.113 816.442 170.59 819.829 173.868C823.323 177.055 827.017 180.03 830.891 182.776C838.589 188.349 847.107 192.78 856.163 195.922C865.144 199.141 874.545 201.14 884.096 201.86C888.873 202.177 893.667 202.177 898.444 201.86C903.206 201.656 907.944 201.099 912.618 200.192C931.401 196.537 948.758 187.907 962.746 175.27L963.264 174.803H963.99L1016.4 181.876L1014.53 184.545L988.19 140.939L987.672 140.105L988.052 139.204C993.921 125.253 996.438 110.201 995.414 95.1766C994.39 80.1526 989.852 65.5477 982.14 52.4591C974.294 39.4136 963.608 28.167 950.819 19.496C937.905 10.8938 923.123 5.2562 907.605 3.01452C887.092 -0.0419713 866.102 2.9235 847.358 11.5259C828.614 20.1283 812.983 33.9704 802.494 51.2548C792.005 68.5392 787.143 88.4676 788.539 108.453C789.935 128.438 797.524 147.556 810.322 163.326V163.459Z" fill="#263238"/>
<path d="M902.314 114.313V126.925C902.342 128.181 902.107 129.43 901.622 130.596C901.137 131.762 900.412 132.821 899.491 133.709C898.571 134.598 897.473 135.297 896.265 135.765C895.057 136.233 893.763 136.461 892.461 136.433C889.851 136.424 887.35 135.42 885.504 133.639C883.659 131.857 882.618 129.444 882.609 126.925V106.907C882.609 106.706 882.816 106.706 882.816 106.506C882.816 106.306 882.609 106.306 882.609 106.139C882.678 103.639 883.739 101.259 885.572 99.4904C887.405 97.7216 889.87 96.6981 892.461 96.6307C895.561 96.8656 898.677 96.4791 901.614 95.4958C904.551 94.5125 907.245 92.9535 909.528 90.9168C911.81 88.8801 913.632 86.4098 914.877 83.661C916.123 80.9123 916.766 77.9447 916.766 74.9446C916.766 71.9444 916.123 68.9768 914.877 66.2281C913.632 63.4793 911.81 61.009 909.528 58.9723C907.245 56.9356 904.551 55.3766 901.614 54.3933C898.677 53.41 895.561 53.0236 892.461 53.2584C888.557 53.2432 884.718 54.2222 881.331 56.0967C877.944 57.9712 875.129 60.6748 873.171 63.9346C872.498 65.0385 871.604 66.002 870.542 66.7689C869.479 67.5359 868.269 68.0908 866.981 68.4014C865.694 68.712 864.356 68.772 863.044 68.5779C861.732 68.3838 860.474 67.9395 859.342 67.271C858.227 66.6379 857.253 65.7985 856.476 64.801C855.698 63.8035 855.133 62.6676 854.812 61.4585C854.49 60.2494 854.42 58.991 854.604 57.7555C854.788 56.52 855.224 55.3319 855.885 54.2593C859.383 48.4006 864.336 43.4736 870.298 39.9218C876.26 36.3699 883.043 34.3048 890.038 33.9125C897.032 33.5201 904.018 34.8127 910.366 37.674C916.715 40.5353 922.226 44.8753 926.403 50.3033C930.581 55.7314 933.295 62.0769 934.299 68.7687C935.303 75.4604 934.568 82.2882 932.158 88.6372C929.748 94.9862 925.739 100.657 920.494 105.139C915.248 109.621 908.929 112.774 902.107 114.313H902.314ZM902.314 156.785V160.121C902.347 161.379 902.115 162.63 901.632 163.798C901.149 164.966 900.424 166.027 899.502 166.916C898.581 167.806 897.481 168.505 896.271 168.971C895.06 169.438 893.764 169.662 892.461 169.63C889.848 169.63 887.342 168.628 885.494 166.845C883.647 165.062 882.609 162.643 882.609 160.121V156.785C882.644 154.274 883.694 151.875 885.534 150.1C887.374 148.324 889.859 147.311 892.461 147.276C893.759 147.263 895.047 147.5 896.248 147.973C897.45 148.446 898.542 149.146 899.459 150.032C900.377 150.917 901.102 151.971 901.592 153.13C902.083 154.29 902.328 155.533 902.314 156.785V156.785Z" fill="#FF9577"/>
</svg>
