<svg width="16" height="16" viewBox="0 0 16 16" fill="none" xmlns="http://www.w3.org/2000/svg">
<path d="M7.78481 2.26582L4.59494 2.49367L7.73418 2.64557C7.69367 3.03038 8.03797 4.0211 8.21519 4.46835C8.19831 4.51055 8.13418 4.56962 8.01266 4.46835C7.89114 4.36709 7.4557 4.24051 6.94937 4.16456C6.44304 4.08861 2.46835 4.39241 2.46835 4.39241L4.72152 4.59494C3.89114 5.20253 3.44726 6.11392 3.32911 6.49367C4.28101 5.29873 5.64979 5.38819 6.21519 5.58228C7.8962 6.06836 8.11392 8.02954 8.01266 8.94937C7.52658 10.7114 6.05485 11.135 5.37975 11.1266C4.16456 11.0861 3.35443 10.1814 3.10127 9.73418L1 11.7089L1.55696 12.1646C1.73924 12.2658 2.07173 12.1561 2.21519 12.0886L3 11.5823H3.17722L3.81013 12.1646C4.82278 12.8532 5.90295 12.6034 6.31646 12.3924C7.00844 11.9451 8.65063 11.0354 9.68354 10.9747C10.7165 10.9139 11.4979 11.8101 11.7595 12.2658L9.02532 12.4937L12.1139 12.6203L12.519 13.3291L15 12.9241V12.3924C14.9797 11.9873 14.6709 11.8354 14.519 11.8101L13.2278 11.7089C12.9443 9.7443 11.3038 8.96625 10.519 8.82279C10.4177 8.53924 10.4093 8.08017 10.4177 7.88608C12.3013 7.84557 13.6329 6.09705 14.0633 5.22785C14.3873 5.16709 14.5696 4.96625 14.6203 4.87342C14.9241 4.12405 14.7468 3.68354 14.6203 3.55696C14.3671 3.4557 14.0886 4.03798 14.0633 3.93671C14.043 3.8557 13.8523 3.83544 13.7595 3.83544C13.5975 3.8557 13.5738 4.1308 13.5823 4.26582L13.481 4.39241V4.26582V4.21519L13.3291 4.26582C12.7823 5.25823 11.2278 5.32068 10.519 5.22785C11.5316 4.84304 11.346 2.97468 11.1266 2.08861C12.1797 1.7038 12.0886 1.42194 11.9114 1.32911C11.6886 1.18734 11.0759 1.38819 10.7975 1.50633C10.7165 1.14177 10.308 1.01688 10.1139 1C8.49367 1.08101 7.88608 1.87764 7.78481 2.26582Z" fill="#673695"/>
<path d="M5.35446 8.01261L3.88611 7.45565L5.43041 8.56957L7.02535 7.02527L5.35446 8.01261Z" fill="#673695"/>
</svg>
