<svg width="200" height="200" viewBox="0 0 200 200" fill="none" xmlns="http://www.w3.org/2000/svg">
<path d="M166.668 58.3327V141.666H33.3346V58.3327H166.668ZM166.668 41.666H33.3346C24.168 41.666 16.7513 49.166 16.7513 58.3327L16.668 141.666C16.668 150.833 24.168 158.333 33.3346 158.333H166.668C175.835 158.333 183.335 150.833 183.335 141.666V58.3327C183.335 49.166 175.835 41.666 166.668 41.666ZM91.668 66.666H108.335V83.3327H91.668V66.666ZM91.668 91.666H108.335V108.333H91.668V91.666ZM66.668 66.666H83.3346V83.3327H66.668V66.666ZM66.668 91.666H83.3346V108.333H66.668V91.666ZM41.668 91.666H58.3346V108.333H41.668V91.666ZM41.668 66.666H58.3346V83.3327H41.668V66.666ZM66.668 116.666H133.335V133.333H66.668V116.666ZM116.668 91.666H133.335V108.333H116.668V91.666ZM116.668 66.666H133.335V83.3327H116.668V66.666ZM141.668 91.666H158.335V108.333H141.668V91.666ZM141.668 66.666H158.335V83.3327H141.668V66.666Z" fill="black"/>
</svg>
