<svg width="200" height="200" viewBox="0 0 200 200" fill="none" xmlns="http://www.w3.org/2000/svg">
<path d="M99.9987 49.1673C109.665 49.1673 117.499 57.0006 117.499 66.6673C117.499 76.334 109.665 84.1673 99.9987 84.1673C90.332 84.1673 82.4987 76.334 82.4987 66.6673C82.4987 57.0006 90.332 49.1673 99.9987 49.1673ZM99.9987 124.167C124.749 124.167 150.832 136.334 150.832 141.667V150.834H49.1654V141.667C49.1654 136.334 75.2487 124.167 99.9987 124.167ZM99.9987 33.334C81.582 33.334 66.6654 48.2506 66.6654 66.6673C66.6654 85.084 81.582 100.001 99.9987 100.001C118.415 100.001 133.332 85.084 133.332 66.6673C133.332 48.2506 118.415 33.334 99.9987 33.334ZM99.9987 108.334C77.7487 108.334 33.332 119.501 33.332 141.667V166.667H166.665V141.667C166.665 119.501 122.249 108.334 99.9987 108.334Z" fill="black"/>
</svg>
