<svg width="200" height="200" viewBox="0 0 200 200" fill="none" xmlns="http://www.w3.org/2000/svg">
<path d="M175.001 101.833C175.001 56.0833 139.501 25 100.001 25C60.918 25 25.0013 55.4167 25.0013 102.333C20.0013 105.167 16.668 110.5 16.668 116.667V133.333C16.668 142.5 24.168 150 33.3346 150H41.668V99.1667C41.668 66.9167 67.7513 40.8333 100.001 40.8333C132.251 40.8333 158.335 66.9167 158.335 99.1667V158.333H91.668V175H158.335C167.501 175 175.001 167.5 175.001 158.333V148.167C179.918 145.583 183.335 140.5 183.335 134.5V115.333C183.335 109.5 179.918 104.417 175.001 101.833Z" fill="black"/>
<path d="M75.0013 116.667C79.6037 116.667 83.3346 112.936 83.3346 108.333C83.3346 103.731 79.6037 100 75.0013 100C70.3989 100 66.668 103.731 66.668 108.333C66.668 112.936 70.3989 116.667 75.0013 116.667Z" fill="black"/>
<path d="M125.001 116.667C129.604 116.667 133.335 112.936 133.335 108.333C133.335 103.731 129.604 100 125.001 100C120.399 100 116.668 103.731 116.668 108.333C116.668 112.936 120.399 116.667 125.001 116.667Z" fill="black"/>
<path d="M150.006 91.9167C146.006 68.1667 125.339 50 100.422 50C75.1724 50 48.0058 70.9167 50.1724 103.75C70.7558 95.3333 86.2558 77 90.6724 54.6667C101.589 76.5833 124.006 91.6667 150.006 91.9167Z" fill="black"/>
</svg>
