<svg width="200" height="200" viewBox="0 0 200 200" fill="none" xmlns="http://www.w3.org/2000/svg">
<path d="M100.001 16.666C67.7513 16.666 41.668 42.7494 41.668 74.9994C41.668 118.749 100.001 183.333 100.001 183.333C100.001 183.333 158.335 118.749 158.335 74.9994C158.335 42.7494 132.251 16.666 100.001 16.666ZM58.3346 74.9994C58.3346 51.9994 77.0013 33.3327 100.001 33.3327C123.001 33.3327 141.668 51.9994 141.668 74.9994C141.668 98.9994 117.668 134.916 100.001 157.333C82.668 135.083 58.3346 98.7494 58.3346 74.9994Z" fill="black"/>
<path d="M100.001 95.8327C111.507 95.8327 120.835 86.5053 120.835 74.9993C120.835 63.4934 111.507 54.166 100.001 54.166C88.4954 54.166 79.168 63.4934 79.168 74.9993C79.168 86.5053 88.4954 95.8327 100.001 95.8327Z" fill="black"/>
</svg>
