<svg width="200" height="200" viewBox="0 0 200 200" fill="none" xmlns="http://www.w3.org/2000/svg">
<path d="M166.665 66.6673H141.665V33.334H24.9987C15.832 33.334 8.33203 40.834 8.33203 50.0006V141.667H24.9987C24.9987 155.501 36.1654 166.667 49.9987 166.667C63.832 166.667 74.9987 155.501 74.9987 141.667H124.999C124.999 155.501 136.165 166.667 149.999 166.667C163.832 166.667 174.999 155.501 174.999 141.667H191.665V100.001L166.665 66.6673ZM162.499 79.1673L178.832 100.001H141.665V79.1673H162.499ZM49.9987 150.001C45.4154 150.001 41.6654 146.251 41.6654 141.667C41.6654 137.084 45.4154 133.334 49.9987 133.334C54.582 133.334 58.332 137.084 58.332 141.667C58.332 146.251 54.582 150.001 49.9987 150.001ZM68.4987 125.001C63.9154 119.917 57.4154 116.667 49.9987 116.667C42.582 116.667 36.082 119.917 31.4987 125.001H24.9987V50.0006H124.999V125.001H68.4987ZM149.999 150.001C145.415 150.001 141.665 146.251 141.665 141.667C141.665 137.084 145.415 133.334 149.999 133.334C154.582 133.334 158.332 137.084 158.332 141.667C158.332 146.251 154.582 150.001 149.999 150.001Z" fill="black"/>
</svg>
