<svg width="200" height="200" viewBox="0 0 200 200" fill="none" xmlns="http://www.w3.org/2000/svg">
<path d="M182.503 74.0833L173.753 37.6667C171.92 30.1667 165.42 25 157.837 25H42.0868C34.5868 25 28.0035 30.25 26.2535 37.6667L17.5035 74.0833C15.5035 82.5833 17.3368 91.25 22.6701 98.0833C23.3368 99 24.2535 99.6667 25.0035 100.5V158.333C25.0035 167.5 32.5035 175 41.6701 175H158.337C167.503 175 175.003 167.5 175.003 158.333V100.5C175.753 99.75 176.67 99 177.337 98.1667C182.67 91.3333 184.587 82.5833 182.503 74.0833ZM157.587 41.5833L166.337 78C167.17 81.5 166.42 85 164.253 87.75C163.087 89.25 160.587 91.6667 156.42 91.6667C151.337 91.6667 146.92 87.5833 146.337 82.1667L141.503 41.6667L157.587 41.5833ZM108.337 41.6667H124.67L129.17 79.3333C129.587 82.5833 128.587 85.8333 126.42 88.25C124.587 90.4167 121.92 91.6667 118.503 91.6667C112.92 91.6667 108.337 86.75 108.337 80.75V41.6667ZM70.7535 79.3333L75.3368 41.6667H91.6701V80.75C91.6701 86.75 87.0868 91.6667 80.9201 91.6667C78.0868 91.6667 75.5035 90.4167 73.5035 88.25C71.4201 85.8333 70.4201 82.5833 70.7535 79.3333ZM33.6701 78L42.0868 41.6667H58.5035L53.6701 82.1667C53.0035 87.5833 48.6701 91.6667 43.5868 91.6667C39.5035 91.6667 36.9201 89.25 35.8368 87.75C33.5868 85.0833 32.8368 81.5 33.6701 78ZM41.6701 158.333V108.083C42.3368 108.167 42.9201 108.333 43.5868 108.333C50.8368 108.333 57.4201 105.333 62.2535 100.417C67.2535 105.417 73.9201 108.333 81.5035 108.333C88.7535 108.333 95.2535 105.333 100.087 100.583C105.003 105.333 111.67 108.333 119.17 108.333C126.17 108.333 132.837 105.417 137.837 100.417C142.67 105.333 149.253 108.333 156.503 108.333C157.17 108.333 157.753 108.167 158.42 108.083V158.333H41.6701Z" fill="black"/>
</svg>
