<svg width="200" height="200" viewBox="0 0 200 200" fill="none" xmlns="http://www.w3.org/2000/svg">
<path d="M166.666 50.0003H133.333V33.3337C133.333 24.167 125.833 16.667 116.666 16.667H83.3327C74.166 16.667 66.666 24.167 66.666 33.3337V50.0003H33.3327C24.166 50.0003 16.666 57.5003 16.666 66.667V166.667C16.666 175.834 24.166 183.334 33.3327 183.334H166.666C175.833 183.334 183.333 175.834 183.333 166.667V66.667C183.333 57.5003 175.833 50.0003 166.666 50.0003ZM83.3327 33.3337H116.666V50.0003H83.3327V33.3337ZM166.666 166.667H33.3327V66.667H166.666V166.667Z" fill="black"/>
<path d="M108.333 83.334H91.666V108.334H66.666V125.001H91.666V150.001H108.333V125.001H133.333V108.334H108.333V83.334Z" fill="black"/>
</svg>
