<svg width="200" height="200" viewBox="0 0 200 200" fill="none" xmlns="http://www.w3.org/2000/svg">
<path d="M99.9987 49.9994C90.832 49.9994 83.332 42.4994 83.332 33.3327C83.332 24.166 90.832 16.666 99.9987 16.666C109.165 16.666 116.665 24.166 116.665 33.3327C116.665 42.4994 109.165 49.9994 99.9987 49.9994ZM141.665 16.666H158.332C158.332 39.166 150.582 53.416 139.165 62.4994C134.999 65.8327 129.999 68.3327 124.999 69.9993V183.333H108.332V133.333H91.6654V183.333H74.9987V84.166C72.4987 84.9994 70.832 85.8327 69.9987 86.666C65.582 90.0827 58.332 95.2494 58.332 116.666H41.6654C41.6654 99.4994 44.582 85.166 59.2487 72.5827C68.4154 65.0827 83.332 58.3327 99.9987 58.3327C116.665 58.3327 122.332 54.4994 128.999 49.4994C132.999 46.2494 141.665 39.666 141.665 16.666ZM33.332 133.333H58.332V183.333H33.332V133.333Z" fill="black"/>
</svg>
