<svg width="200" height="200" viewBox="0 0 200 200" fill="none" xmlns="http://www.w3.org/2000/svg">
<path d="M166.668 16.666H33.3346C25.0013 16.666 16.668 24.166 16.668 33.3327V58.416C16.668 64.416 20.2513 69.5827 25.0013 72.4994V166.666C25.0013 175.833 34.168 183.333 41.668 183.333H158.335C165.835 183.333 175.001 175.833 175.001 166.666V72.4994C179.751 69.5827 183.335 64.416 183.335 58.416V33.3327C183.335 24.166 175.001 16.666 166.668 16.666ZM158.335 166.666H41.668V74.9994H158.335V166.666ZM166.668 58.3327H33.3346V33.3327H166.668V58.3327Z" fill="black"/>
<path d="M125 100H75V116.667H125V100Z" fill="black"/>
</svg>
