<svg width="200" height="200" viewBox="0 0 200 200" fill="none" xmlns="http://www.w3.org/2000/svg">
<path d="M100.001 59.416L108.085 78.4993L112.001 87.7493L122.001 88.5827L142.585 90.3327L126.918 103.916L119.335 110.499L121.585 120.333L126.251 140.416L108.585 129.749L100.001 124.416L91.418 129.583L73.7513 140.249L78.418 120.166L80.668 110.333L73.0846 103.749L57.418 90.166L78.0013 88.416L88.0013 87.5827L91.918 78.3327L100.001 59.416V59.416ZM100.001 16.666L76.5846 71.916L16.668 76.9993L62.168 116.416L48.5013 174.999L100.001 143.916L151.501 174.999L137.835 116.416L183.335 76.9993L123.418 71.916L100.001 16.666Z" fill="black"/>
</svg>
