<svg width="200" height="200" viewBox="0 0 200 200" fill="none" xmlns="http://www.w3.org/2000/svg">
<path d="M125 100H141.667C141.667 77 123 58.3333 100 58.3333V75C113.833 75 125 86.1667 125 100ZM158.333 100H175C175 58.5833 141.417 25 100 25V41.6667C132.25 41.6667 158.333 67.75 158.333 100ZM166.667 129.167C156.25 129.167 146.25 127.5 136.917 124.417C136.083 124.167 135.167 124 134.333 124C132.167 124 130.083 124.833 128.417 126.417L110.083 144.75C86.5 132.75 67.1667 113.5 55.1667 89.8333L73.5 71.4167C75.8333 69.25 76.5 66 75.5833 63.0833C72.5 53.75 70.8333 43.75 70.8333 33.3333C70.8333 28.75 67.0833 25 62.5 25H33.3333C28.75 25 25 28.75 25 33.3333C25 111.583 88.4167 175 166.667 175C171.25 175 175 171.25 175 166.667V137.5C175 132.917 171.25 129.167 166.667 129.167ZM41.9167 41.6667H54.4167C55 49 56.25 56.25 58.1667 63.1667L48.1667 73.25C44.8333 63.1667 42.6667 52.6667 41.9167 41.6667V41.6667ZM158.333 158.083C147.333 157.333 136.667 155.167 126.667 151.75L136.667 141.75C143.75 143.75 151 145 158.333 145.5V158.083Z" fill="black"/>
</svg>
