<svg width="544" height="286" viewBox="0 0 544 286" fill="none" xmlns="http://www.w3.org/2000/svg">
<path d="M33.67 285.317C33.67 285.317 -29.6005 217.385 22.9691 143.838C69.6151 78.5823 123.997 83.0415 163.898 109.524C180.891 120.803 229.885 110.913 271.588 44.5136C328.456 -46.0375 525.583 8.88229 489.64 148.197C472.247 215.615 542.575 218.068 506.741 285.458L33.67 285.317Z" fill="#F0F9FF"/>
<path d="M355.31 253.202C355.31 253.202 360.416 247.246 355.623 243.461C355.623 243.461 352.125 241.344 349.271 241.515C349.271 241.515 353.314 248.294 352.005 248.969C350.697 249.643 348.045 241.09 348.045 241.09C348.045 241.09 340.083 240.317 337.522 241.549C337.522 241.549 344.329 247.12 342.895 247.451C341.46 247.782 334.108 242.315 334.108 242.315C334.108 242.315 326.697 243.577 327.092 248.098C327.487 252.619 330.04 254.015 331.163 253.896C332.285 253.776 338.852 251.27 338.995 252.188C339.138 253.106 335.186 256.113 332.418 256.254C332.418 256.254 337.643 262.018 341.116 260.355C344.589 258.692 344.886 256.056 347.051 255.067C349.215 254.079 351.064 254.081 350.169 255.089C349.275 256.096 345.358 257.078 344.12 259.266C342.882 261.456 341.772 262.934 345.364 262.391C348.957 261.851 354.797 259.221 355.053 256.212C355.31 253.202 355.31 253.202 355.31 253.202Z" fill="#599DAD"/>
<path d="M330.733 248.218C330.733 248.218 350.862 247.444 355.309 253.199C355.309 253.199 356.293 256.142 359.318 258.825L359.79 260.11C359.79 260.11 356.302 256.433 355.053 256.211C355.053 256.211 357.004 249.079 330.733 248.218Z" fill="#599DAD"/>
<path d="M359.318 258.828C359.318 258.828 363.638 262.024 363.939 267.734L363.156 267.805C363.156 267.805 361.777 261.9 359.281 259.593C356.784 257.281 359.318 258.828 359.318 258.828Z" fill="#599DAD"/>
<path d="M373.16 245.711C373.16 245.711 365.037 241.162 368.828 234.991C368.828 234.991 371.86 231.202 375.109 230.227C375.109 230.227 373.375 239.431 375.109 239.647C376.842 239.862 376.3 229.251 376.3 229.251C376.3 229.251 384.855 225.136 388.211 225.462C388.211 225.462 382.904 234.449 384.638 234.233C386.371 234.018 392.327 224.92 392.327 224.92C392.327 224.92 401.098 223.296 402.507 228.493C403.913 233.691 401.64 236.289 400.34 236.616C399.04 236.94 390.702 236.831 390.92 237.916C391.138 238.998 396.767 240.731 399.907 239.756C399.907 239.756 396.442 248.311 391.893 247.878C387.344 247.445 385.938 244.629 383.122 244.413C380.306 244.198 378.249 244.956 379.657 245.713C381.066 246.471 385.831 245.961 388.104 247.895C390.378 249.829 392.22 251.02 387.995 251.885C383.773 252.751 376.193 252.209 374.675 248.96C373.16 245.711 373.16 245.711 373.16 245.711Z" fill="#6BB7BF"/>
<path d="M398.497 230.118C398.497 230.118 375.757 237.483 373.159 245.712C373.159 245.712 373.268 249.394 370.994 253.616V255.241C370.994 255.241 373.376 249.718 374.676 248.961C374.674 248.961 369.585 241.814 398.497 230.118Z" fill="#6BB7BF"/>
<path d="M370.994 253.616C370.994 253.616 367.487 258.942 369.487 265.425L370.39 265.184C370.39 265.184 369.515 258.044 371.348 254.453C373.182 250.861 370.994 253.616 370.994 253.616Z" fill="#6BB7BF"/>
<path d="M360.238 239.439C360.238 239.439 370.943 233.445 365.948 225.308C365.948 225.308 361.952 220.313 357.67 219.028C357.67 219.028 359.954 231.161 357.67 231.447C355.386 231.733 356.099 217.742 356.099 217.742C356.099 217.742 344.822 212.318 340.397 212.747C340.397 212.747 347.392 224.595 345.108 224.311C342.824 224.025 334.973 212.034 334.973 212.034C334.973 212.034 323.412 209.893 321.554 216.746C319.699 223.598 322.696 227.024 324.408 227.451C326.12 227.878 337.112 227.737 336.828 229.163C336.542 230.591 329.12 232.875 324.981 231.59C324.981 231.59 329.549 242.867 335.543 242.295C341.537 241.723 343.394 238.013 347.104 237.727C350.816 237.441 353.527 238.44 351.672 239.439C349.817 240.438 343.535 239.765 340.538 242.314C337.541 244.863 335.114 246.432 340.681 247.574C346.248 248.716 356.24 248.003 358.238 243.721C360.238 239.439 360.238 239.439 360.238 239.439Z" fill="#86D1CD"/>
<path d="M326.838 218.883C326.838 218.883 356.812 228.589 360.238 239.437C360.238 239.437 360.095 244.291 363.092 249.856V251.997C363.092 251.997 359.952 244.718 358.238 243.717C358.24 243.721 364.95 234.299 326.838 218.883Z" fill="#6BB7BF"/>
<path d="M363.095 249.859C363.095 249.859 367.718 256.88 365.082 265.425L363.893 265.104C363.893 265.104 365.048 255.693 362.629 250.958C360.209 246.226 363.095 249.859 363.095 249.859Z" fill="#6BB7BF"/>
<path d="M360.812 283.955C372.395 283.955 381.783 274.567 381.783 262.984H339.842C339.842 274.565 349.23 283.955 360.812 283.955Z" fill="#EE9849"/>
<path d="M365.972 283.793C365.118 283.9 364.249 283.953 363.365 283.953C351.785 283.953 342.397 274.563 342.397 262.982H347.608C347.608 273.683 355.619 282.51 365.972 283.793Z" fill="#F3B175"/>
<path d="M382.072 285.02H339.552C339.552 283.592 340.711 282.433 342.139 282.433H379.484C380.915 282.433 382.072 283.592 382.072 285.02Z" fill="#EE9849"/>
<path d="M382.259 262.982H339.152V263.625H382.259V262.982Z" fill="#EE9849"/>
<path d="M73.854 80.1915C73.7942 79.8649 73.0257 76.3577 67.6016 76.9575C67.6016 76.9575 70.3019 76.8892 70.9295 77.9886C70.9295 77.9886 68.9123 76.8102 67.5098 77.4869C66.1053 78.1636 65.6164 80.8682 65.7296 81.7178C65.8448 82.5673 67.0573 85.1823 68.0264 85.2783C68.3936 85.3146 68.797 85.2335 69.1578 85.1161C68.9657 85.5409 68.7842 86.0041 68.6199 86.5143C67.1085 91.2468 69.9561 95.2449 71.7087 94.5042C72.8336 94.0282 73.4548 95.975 73.4548 95.975L83.479 85.131C83.4812 85.1289 78.0549 77.1006 73.854 80.1915Z" fill="#2C3A64"/>
<path d="M86.9133 210.802L84.4756 211.71C84.4756 211.71 73.8857 197.023 72.5836 184.1C72.3509 181.793 72.4277 179.558 72.9315 177.494C72.9315 177.494 72.8269 176.902 72.6476 175.856C72.5643 175.368 72.4597 174.78 72.3423 174.108C71.9987 172.136 71.5248 169.438 70.9826 166.364C69.736 159.292 68.1222 150.251 66.8691 143.604L67.5266 143.393L74.6349 141.1L76.1036 136.434L81.3953 135.04C81.3953 135.04 82.5779 137.352 83.6345 148.279C83.8288 149.711 84.006 151.293 84.1404 153.007C84.5524 158.237 84.5823 164.726 83.6367 172.146C83.3933 174.046 83.0881 176.006 82.7081 178.021C82.4306 179.498 82.3879 181.511 82.5053 183.821C83.0368 194.385 86.9133 210.802 86.9133 210.802Z" fill="#2B478B"/>
<path d="M84.1385 153.01L72.6456 175.859C72.5624 175.37 72.4578 174.783 72.3404 174.111C71.9967 172.139 71.5228 169.44 70.9806 166.367C69.734 159.295 68.1202 150.254 66.8672 143.607L67.5247 143.396L74.633 141.103L76.1016 136.437L81.3934 135.043C81.3934 135.043 82.5759 137.355 83.6326 148.282C83.829 149.716 84.0061 151.296 84.1385 153.01Z" fill="#233862"/>
<path d="M79.0839 137.977L78.8171 135.695C74.36 136.88 62.4509 132.387 62.4509 132.387C62.4509 132.387 58.1325 136.182 58.7003 145.282C58.9778 149.722 59.4816 168.594 60.011 174.179C60.2009 176.202 60.3696 177.643 60.4379 178.217C60.44 178.219 60.44 178.222 60.44 178.224C60.4614 178.399 60.3995 178.565 60.3098 178.719C59.5328 180.038 58.8882 181.411 58.3609 182.817C53.1801 196.626 59.1592 213.631 59.1592 213.631L60.7111 213.005C60.7111 213.005 64.1137 194.082 66.8802 185.721C67.3498 184.303 67.8002 183.189 68.2122 182.523C69.414 180.582 70.5304 177.413 71.5422 173.643C73.457 166.513 74.9961 157.24 76.0228 150.083C76.1595 150.083 79.0839 137.977 79.0839 137.977Z" fill="#2B478B"/>
<path d="M80.5374 119.24C80.5737 119.36 80.6079 119.479 80.6591 119.599C82.401 124.506 85.5026 129.659 87.618 131.54C89.0077 132.782 92.8244 134.072 96.069 134.994C98.2229 135.626 100.146 136.085 100.936 136.283C101.188 136.347 101.333 136.373 101.333 136.373L102.057 134.236C102.057 134.236 100.37 133.181 98.3147 131.798C95.4585 129.858 91.8894 127.303 91.2042 126.205C89.6224 123.652 88.5722 115.85 87.2146 110.582C87.1484 110.298 87.078 110.023 87.0075 109.752C86.9563 109.553 86.9029 109.359 86.8517 109.165C86.841 109.126 86.8325 109.069 86.8026 109.026C86.7279 108.806 86.6724 108.608 86.6105 108.428C86.6126 108.411 86.5977 108.39 86.5827 108.366C86.3095 107.491 85.667 106.27 85.667 106.27C85.2699 105.655 84.8387 105.352 84.3691 105.457C84.3691 105.457 83.733 105.649 82.9154 106.213C82.7425 106.33 82.5632 106.462 82.3796 106.616C82.2558 106.686 82.1619 106.782 82.0701 106.881C81.4233 107.457 80.753 108.255 80.2429 109.327C79.8544 110.136 79.5491 111.094 79.3976 112.249C79.1329 114.132 79.6366 116.642 80.5374 119.24Z" fill="#FFB27D"/>
<path d="M82.9535 110.288C81.662 111.131 80.0525 111.81 78.046 112.216C70.5214 113.731 67.836 107.334 66.8818 102.966C67.9171 102.411 68.8799 102.311 69.437 102.26C69.9792 102.211 70.5491 102.185 71.0209 102.174C71.879 101.555 73.2025 98.9595 73.5953 94.8823L73.9432 94.9869L79.7878 96.7651C79.7878 96.7651 79.4655 98.6307 79.2819 100.396C79.141 101.777 79.0877 103.101 79.3396 103.432C79.7964 103.545 80.0696 103.617 80.0696 103.617C80.0696 103.617 80.0696 103.619 80.0717 103.624C80.1507 103.754 81.7794 106.614 82.9535 110.288Z" fill="#FFB27D"/>
<path d="M79.788 96.7645C79.788 96.7645 79.4635 98.628 79.2842 100.395C75.9563 99.9664 74.4962 96.7453 73.9434 94.9863L79.788 96.7645Z" fill="#ED985F"/>
<path d="M80.7337 98.5514C80.7337 98.5514 72.8249 97.8918 73.3116 92.9715C73.7983 88.0533 73.1067 84.6549 78.1764 84.8684C83.2462 85.0819 84.0403 87.0564 84.2772 88.7385C84.5163 90.4184 82.8043 98.5962 80.7337 98.5514Z" fill="#FFB27D"/>
<path d="M87.0074 109.755C86.9562 109.556 86.9028 109.362 86.8516 109.168C86.8409 109.129 86.8324 109.072 86.8025 109.029C86.7278 108.809 86.6723 108.61 86.6104 108.431C86.6125 108.414 86.5976 108.393 86.5826 108.369C86.3094 107.494 85.6669 106.273 85.6669 106.273C85.3809 105.829 85.0905 105.436 84.7746 105.293C84.527 105.137 83.1523 104.337 80.0699 103.615C80.0699 103.615 80.0699 103.618 80.072 103.622C80.151 103.803 82.2579 108.604 81.9078 109.746C81.5534 110.905 71.352 108.809 70.7053 108.085C70.1887 107.505 69.6849 104.113 69.5035 102.789C69.4586 102.461 69.433 102.258 69.433 102.258C69.433 102.258 65.7444 102.292 63.8275 103.411C63.8275 103.411 64.8841 105.039 65.4605 106.92C65.5138 107.099 65.5651 107.278 65.6099 107.46C65.7059 107.842 65.7743 108.228 65.8063 108.61C65.849 109.114 65.6547 109.597 65.3068 110.09C64.9908 110.542 64.5383 111.008 64.0239 111.511C63.6866 111.838 63.3237 112.182 62.9523 112.551C63.2468 114.822 63.947 118.526 64.105 122.562C64.1455 123.587 63.9491 124.601 63.5457 125.532C63.3856 125.903 63.1935 126.26 62.9693 126.601C61.1805 129.308 58.0832 134.638 59.349 137.49C59.8165 140.286 84.0125 140.538 83.0584 137.53C83.0584 137.53 84.1257 119.879 85.447 115.463C85.494 115.3 85.5367 115.145 85.5708 114.984C85.9401 113.307 85.6178 111.684 85.2079 110.239C85.8441 109.979 86.5293 109.831 87.0074 109.755Z" fill="#FF9843"/>
<path d="M84.3176 85.9782C83.2461 84.3773 82.2897 84.6099 81.7283 85.0027C77.6491 82.1978 74.5175 85.4275 74.5175 85.4275C73.6359 88.9048 70.8887 90.6702 70.8887 90.6702C70.8887 90.6702 72.2399 91.7033 75.6425 91.1825C76.6821 91.0224 77.6597 90.3927 78.5157 89.5964C76.9468 91.714 74.9573 93.1527 74.9573 93.1527C79.1049 91.7183 81.248 86.3646 81.4636 85.7968C81.9034 86.2771 82.7594 87.3145 82.9557 88.2644C83.2247 89.5559 83.1436 92.1516 83.9035 92.1409C83.9035 92.1388 85.925 88.3797 84.3176 85.9782Z" fill="#2C3A64"/>
<path d="M75.8542 132.7C71.1815 133.327 66.5258 129.056 63.548 125.534C63.9515 124.603 64.1457 123.589 64.1073 122.564C63.9493 118.528 63.2492 114.824 62.9546 112.553C63.3282 112.184 63.6889 111.84 64.0262 111.513C64.5406 111.01 64.991 110.544 65.3091 110.092C70.0693 115.994 82.1898 131.848 75.8542 132.7Z" fill="#ED7D2B"/>
<path d="M108.689 137.357C107.639 137.66 106.059 138.962 103.916 137.807C102.381 136.992 100.729 136.353 99.9261 136.052C99.6059 135.952 99.4224 135.882 99.4224 135.882L100.62 133.393C100.62 133.393 100.65 133.412 100.724 133.437C101.288 133.632 104.151 134.603 105.564 134.451C107.152 134.274 109.526 136.441 109.526 136.441C109.526 136.441 109.737 137.068 108.689 137.357Z" fill="#FFB27D"/>
<path d="M68.1778 214.895H55.8994C55.8994 214.895 55.6049 213.023 56.2474 211.604C56.8622 210.242 57.8249 209.623 57.5943 207.973C58.3756 208.775 59.6457 209.676 61.4217 209.437C61.6395 209.789 62.8263 211.676 63.5521 212.199C64.3526 212.778 67.9324 212.571 68.1778 214.895Z" fill="#233862"/>
<path d="M94.5448 214.895H82.2643C82.2643 214.895 81.8053 212.938 82.6122 211.604C83.3252 210.425 83.0519 209.753 82.5247 208.777C83.0818 209.006 83.8012 209.213 84.5931 209.166C85.2058 209.132 85.8526 208.852 86.4182 208.523C86.9476 209.125 89.2103 211.691 89.9169 212.199C90.7174 212.778 94.2972 212.571 94.5448 214.895Z" fill="#233862"/>
<path d="M78.8491 95.7059C78.8491 95.7059 78.9601 96.357 80.5632 96.3591C80.5632 96.3591 81.908 96.3612 81.9123 95.6525C81.9102 95.6525 80.6422 95.0677 78.8491 95.7059Z" fill="white"/>
<path d="M92.0581 134.309C92.0581 134.309 93.1105 134.271 93.8725 133.863C94.6346 133.455 97.1214 134.111 96.8824 134.441C96.6412 134.772 95.2472 134.365 95.117 134.552C94.9868 134.74 94.4766 134.979 94.4766 134.979L92.0581 134.309Z" fill="#FFB27D"/>
<path d="M155.337 172.542H106.745C99.7707 172.542 94.1182 166.888 94.1182 159.914V111.323C94.1182 104.349 99.7707 98.6968 106.745 98.6968H155.337C162.311 98.6968 167.964 104.349 167.964 111.323V159.916C167.966 166.89 162.311 172.542 155.337 172.542Z" fill="#E3F0FF"/>
<path d="M158.4 116.871V152.931C158.4 154.003 158.221 155.032 157.89 155.99C156.755 159.278 153.841 161.735 150.299 162.215C149.885 162.27 149.461 162.3 149.029 162.3H112.971C108.907 162.3 105.449 159.715 104.151 156.099C103.794 155.109 103.6 154.041 103.6 152.929V116.871C103.6 111.697 107.795 107.5 112.971 107.5H149.031C154.206 107.502 158.4 111.697 158.4 116.871Z" fill="#D2E4FF"/>
<path d="M126.291 132.358C126.291 132.358 126.107 138.002 125.386 140.531L119.667 144.521L141.193 147.742L136.059 140.648C136.059 140.648 134.509 133.079 135.322 130.281C136.136 127.482 126.291 132.358 126.291 132.358Z" fill="#FFB27D"/>
<path d="M126.259 133.137C126.259 133.135 127.961 137.235 131.167 137.143C134.373 137.054 135.103 133.427 135.103 133.427L126.259 133.137Z" fill="#ED985F"/>
<path d="M124.346 129.82C124.346 129.82 123.311 124.65 122.587 123.085C121.866 121.52 121.262 114.536 129.271 114.173C129.271 114.173 132.343 114.534 134.027 113.511C134.027 113.511 134.027 114.536 133.606 114.897C133.606 114.897 136.375 114.235 138.544 116.643C140.712 119.051 137.099 127.48 137.28 129.468L124.346 129.82Z" fill="#B64C41"/>
<path d="M130.802 135.562C128.479 135.522 124.202 132.429 124.202 128.597V122.62C124.202 121.222 125.177 120.076 126.368 120.076H135.231C136.425 120.076 137.398 121.22 137.398 122.62V128.26C137.4 132.275 133.466 135.609 130.802 135.562Z" fill="#FFB27D"/>
<path d="M124.201 125.81C124.201 125.81 124.214 122.218 127.059 121.665C129.905 121.112 136.272 123.415 137.175 120.796C138.078 118.177 124.867 118.222 124.203 119.893C123.535 121.564 124.201 125.81 124.201 125.81Z" fill="#B64C41"/>
<path d="M144.303 142.241C144.299 142.239 144.299 142.236 144.294 142.236C143.692 142.014 143.379 141.989 143.379 141.989V142C141.039 141.41 138.826 141.003 136.759 140.738C136.524 140.708 136.292 140.68 136.061 140.653C134.65 142.529 133.519 143.385 132.332 143.983C132.067 144.115 131.803 144.234 131.529 144.35C131.292 144.448 131.051 144.546 130.804 144.644C130.492 144.602 130.187 144.523 129.888 144.414C129.717 144.352 129.548 144.281 129.382 144.202C127.106 143.129 125.386 140.603 125.386 140.535C125.068 140.567 124.756 140.603 124.459 140.642C121.772 140.977 119.943 141.477 119.151 141.722C119.151 141.722 119.148 141.722 119.146 141.722C118.98 141.743 113.118 142.55 104.148 156.105C105.446 159.721 108.904 162.306 112.969 162.306H149.029C149.458 162.306 149.883 162.276 150.299 162.221C153.841 161.741 156.754 159.284 157.89 155.996C151.095 145.682 146.235 142.954 144.303 142.241Z" fill="#2F5196"/>
<path d="M125.685 139.156C125.685 139.156 124.729 139.555 124.458 140.638C124.458 140.638 128.291 144.582 130.8 144.642L125.685 139.156Z" fill="#EE9849"/>
<path d="M130.801 144.644L135.749 138.959C135.749 138.959 136.772 139.631 136.757 140.737C136.757 140.737 132.929 144.793 130.801 144.644Z" fill="#EE9849"/>
<path d="M133.015 162.302H128.069C128.652 155.664 129.362 149.095 129.704 146.024C129.774 145.4 129.828 144.92 129.864 144.613C129.868 144.561 129.875 144.514 129.879 144.474C129.883 144.452 129.883 144.429 129.885 144.41C129.9 144.286 129.907 144.222 129.907 144.222L130.402 144.213L131.181 144.201H131.183L131.514 144.196C131.514 144.196 131.518 144.248 131.527 144.348C131.531 144.401 131.538 144.47 131.546 144.553C131.55 144.617 131.557 144.689 131.563 144.771C131.593 145.133 131.638 145.661 131.693 146.32C131.962 149.526 132.496 155.915 133.015 162.302Z" fill="#EE9849"/>
<path d="M128.921 142.626C128.921 142.626 131.203 142.397 132.592 142.538C132.868 142.566 133.022 142.867 132.887 143.11C132.499 143.81 131.702 145.027 130.872 145.027C129.704 145.025 127.886 142.705 128.921 142.626Z" fill="#E58638"/>
<path d="M99.278 136.948C98.629 137.828 96.9149 139.169 94.7056 138.144C93.1238 137.422 91.4375 136.884 90.6178 136.633C90.2912 136.551 90.1055 136.492 90.1055 136.492L91.1514 133.937C91.1514 133.937 91.1813 133.954 91.2603 133.975C91.8345 134.135 94.6714 134.144 96.2319 134.978C98.0378 135.943 100.04 135.913 99.278 136.948Z" fill="#FFB27D"/>
<path d="M92.1609 134.3L91.7234 136.708C91.7234 136.708 90.9015 136.631 89.5951 136.503C89.2023 136.462 88.9782 136.428 88.9782 136.428C87.9301 136.315 86.6749 136.146 85.3088 135.969H85.2896C82.9436 135.617 80.3137 135.179 78.0809 134.633C76.5098 134.234 75.1373 133.779 74.1852 133.286C74.087 133.239 74.0102 133.19 73.912 133.124C71.6258 131.749 68.6715 127.375 66.2593 122.621C65.9242 121.966 65.6083 121.306 65.2945 120.668C64.161 118.284 63.2153 115.923 62.592 113.865C62.2078 112.64 61.9239 111.517 61.8065 110.582C61.7595 110.253 61.7147 109.942 61.7083 109.645C61.6955 109.476 61.6848 109.31 61.6763 109.147C62.6006 108.338 64.7309 106.827 67.6383 106.985C67.7002 107.09 67.7578 107.194 67.8197 107.301C69.0728 109.581 70.4411 112.554 71.7368 115.517C72.4519 117.14 73.1478 118.766 73.833 120.263C74.2279 121.172 74.6164 122.028 74.9814 122.811C75.6859 124.306 76.3092 125.512 76.8364 126.261C77.1758 126.752 78.083 127.394 79.2742 128.105C81.3448 129.352 84.3418 130.814 86.9439 131.994C88.024 132.494 89.0444 132.942 89.8918 133.314C91.258 133.916 92.1609 134.3 92.1609 134.3Z" fill="#FFB27D"/>
<path d="M67.8088 107.308C64.1863 106.64 61.6952 109.639 61.6952 109.639C61.2768 104.313 63.864 103.354 63.864 103.354C64.8929 102.823 66.2868 104.56 67.8088 107.308Z" fill="#FF9843"/>
<path d="M470.485 186.431H415.704C414.786 186.431 414.037 185.68 414.037 184.764V177.286C414.037 176.368 414.789 175.619 415.704 175.619H470.485C471.403 175.619 472.152 176.371 472.152 177.286V184.764C472.152 185.682 471.403 186.431 470.485 186.431Z" fill="#EE9849"/>
<path d="M428.12 186.431L427.43 192.758L417.436 284.346C417.408 284.667 417.182 284.908 416.913 284.908C416.401 284.908 415.999 284.376 416.055 283.764L423.981 189.972L424.282 186.429H428.12V186.431Z" fill="#EFCBAB"/>
<path d="M428.12 186.431L427.431 192.758C426.957 190.237 423.981 189.974 423.981 189.974L424.282 186.431H428.12Z" fill="#CCA07F"/>
<path d="M469.277 284.908C469.008 284.908 468.782 284.666 468.754 284.346L458.76 192.758L458.329 188.811L458.068 186.431H461.906L462.207 189.974L462.442 192.753L470.133 283.764C470.189 284.376 469.79 284.908 469.277 284.908Z" fill="#EFCBAB"/>
<path d="M462.444 192.753C461.467 189.739 458.331 188.813 458.331 188.813C458.331 188.813 458.331 188.813 458.329 188.811L458.068 186.431H461.906L462.207 189.974L462.444 192.753Z" fill="#CCA07F"/>
<path d="M98.0244 221.822H42.5773C41.843 221.822 41.2432 221.222 41.2432 220.488V216.232C41.2432 215.497 41.843 214.897 42.5773 214.897H98.0244C98.7587 214.897 99.3585 215.497 99.3585 216.232V220.488C99.3606 221.222 98.7587 221.822 98.0244 221.822Z" fill="#EE9849"/>
<path d="M55.3274 221.822L54.6379 225.876L44.6436 284.548C44.6158 284.753 44.3895 284.909 44.1206 284.909C43.6083 284.909 43.207 284.568 43.2625 284.177L51.1884 224.094L51.4893 221.824H55.3274V221.822Z" fill="#EFCBAB"/>
<path d="M55.3275 221.822L54.638 225.876C54.1642 224.262 51.1885 224.094 51.1885 224.094L51.4895 221.824H55.3275V221.822Z" fill="#CCA07F"/>
<path d="M96.4834 284.907C96.2144 284.907 95.9881 284.751 95.9604 284.546L85.966 225.874L85.5348 223.346L85.2744 221.822H89.1125L89.4135 224.091L89.6483 225.872L97.3394 284.173C97.397 284.568 96.9978 284.907 96.4834 284.907Z" fill="#EFCBAB"/>
<path d="M89.6504 225.874C88.6727 223.942 85.537 223.349 85.537 223.349C85.537 223.349 85.537 223.349 85.5348 223.346L85.2744 221.822H89.1125L89.4135 224.091L89.6504 225.874Z" fill="#CCA07F"/>
<path d="M182.392 83.1017H133.287C126.24 83.1017 120.526 77.3894 120.526 70.3408V21.2379C120.526 14.1915 126.238 8.47705 133.287 8.47705H182.392C189.438 8.47705 195.153 14.1893 195.153 21.2379V70.3408C195.15 77.3894 189.438 83.1017 182.392 83.1017Z" fill="#E3F0FF"/>
<path d="M185.487 26.8452V63.2855C185.487 64.1095 185.38 64.91 185.184 65.672C184.415 68.6328 182.248 71.03 179.431 72.1186C179.324 72.1613 179.215 72.1997 179.106 72.236C178.137 72.5712 177.098 72.7526 176.015 72.7526H139.577C139.097 72.7526 138.625 72.7163 138.164 72.6459C135.214 72.2061 132.708 70.4024 131.308 67.8984C130.543 66.5323 130.108 64.9612 130.108 63.2834V26.8452C130.108 21.6154 134.347 17.376 139.577 17.376H176.015C181.247 17.376 185.487 21.6154 185.487 26.8452Z" fill="#D2E4FF"/>
<path d="M154.698 40.5054C154.698 40.5054 154.538 45.4662 153.904 47.6884L148.879 51.1935L167.797 54.024L163.286 47.7909C163.286 47.7909 161.924 41.1393 162.639 38.6802C163.35 36.219 154.698 40.5054 154.698 40.5054Z" fill="#FFB27D"/>
<path d="M154.671 41.1899C154.671 41.1878 156.167 44.7911 158.985 44.7121C161.803 44.6331 162.443 41.4461 162.443 41.4461L154.671 41.1899Z" fill="#ED985F"/>
<path d="M152.988 38.2743C152.988 38.2743 152.079 33.7318 151.443 32.3571C150.809 30.9824 150.279 24.8432 157.315 24.5251C157.315 24.5251 160.013 24.8432 161.495 23.9424C161.495 23.9424 161.495 24.8411 161.126 25.1591C161.126 25.1591 163.559 24.5764 165.465 26.6939C167.369 28.8115 164.195 36.2186 164.355 37.9648L152.988 38.2743Z" fill="#2C3A64"/>
<path d="M164.46 31.9452V36.9018C164.46 37.7301 164.27 38.5263 163.948 39.2585H163.945C163.388 40.5222 162.443 41.5959 161.407 42.3217C160.49 42.9663 159.501 43.3356 158.66 43.3207C157.926 43.3057 156.972 42.9471 156.049 42.3366C154.805 41.5126 153.62 40.2319 153.117 38.7227L153.108 38.7013L153.089 38.6394C152.944 38.1784 152.86 37.6981 152.86 37.2007V31.9474C152.86 30.7178 153.718 29.7124 154.767 29.7124H162.554C163.602 29.7103 164.46 30.7157 164.46 31.9452Z" fill="#FFB27D"/>
<path d="M169.713 48.9791C169.713 48.9791 165.271 48.0228 163.282 47.7901C161.525 50.1212 160.266 50.7487 158.662 51.3827C156.08 51.0262 153.902 47.7603 153.902 47.6855C151.093 47.9759 149.195 48.5736 148.423 48.8169C148.423 48.8169 148.42 48.8169 148.418 48.8169C148.239 48.8404 141.359 49.7967 131.307 67.9838C132.707 70.4898 135.211 72.2915 138.164 72.7312C139.459 71.6126 142.241 69.1962 144.422 67.3007C144.399 67.9133 144.392 68.4662 144.407 68.9486C144.446 70.2507 144.486 71.5422 144.514 72.8358H171.94C171.886 72.1804 171.844 71.5465 171.814 70.9402C171.72 69.0553 171.632 67.3327 171.551 65.7616C171.549 65.7488 171.549 65.7339 171.547 65.7211C171.547 65.704 171.545 65.689 171.545 65.672C171.547 65.6741 171.549 65.6762 171.551 65.6784C171.948 66.022 172.422 66.434 172.937 66.8802C173.039 66.9698 173.144 67.0595 173.251 67.1534C173.34 67.2324 173.434 67.3135 173.528 67.3946C173.656 67.5035 173.786 67.6166 173.917 67.7319C174.151 67.9368 174.388 68.1417 174.629 68.3509C174.738 68.447 174.851 68.543 174.96 68.6391C175.018 68.6903 175.078 68.7394 175.138 68.7907C175.204 68.8483 175.272 68.9081 175.34 68.9678C175.389 69.0105 175.441 69.0532 175.492 69.098C175.609 69.1984 175.727 69.303 175.842 69.4033C175.938 69.4865 176.032 69.5698 176.128 69.6509C176.207 69.7192 176.288 69.7875 176.367 69.8558C176.655 70.1077 176.937 70.3532 177.212 70.5901C177.321 70.6841 177.43 70.778 177.537 70.8719C177.648 70.9701 177.759 71.0662 177.868 71.158C177.942 71.2241 178.019 71.2903 178.094 71.3543C178.128 71.3842 178.16 71.412 178.194 71.4397C178.31 71.5401 178.418 71.6361 178.527 71.7279C178.638 71.8261 178.747 71.92 178.85 72.0097C178.892 72.0481 178.935 72.0844 178.976 72.1185C179.02 72.1591 179.065 72.1954 179.108 72.2317C179.217 72.1954 179.324 72.157 179.432 72.1143C182.25 71.0256 184.415 68.6284 185.185 65.6677C175.767 49.4637 169.713 48.9791 169.713 48.9791Z" fill="#F99746"/>
<path d="M152.863 34.7499C152.863 34.7499 152.873 31.5928 155.373 31.1083C157.873 30.6237 163.47 32.6473 164.262 30.3441C165.056 28.0429 153.445 28.0814 152.861 29.55C152.278 31.0207 152.863 34.7499 152.863 34.7499Z" fill="#2C3A64"/>
<path d="M147.765 72.7548H144.514C144.484 71.4612 144.444 70.1697 144.407 68.8676C144.395 68.3852 144.399 67.8302 144.422 67.2197C144.427 67.083 144.433 66.9443 144.439 66.8013C144.469 66.8525 144.527 66.94 144.602 67.0638C145.088 67.8537 146.414 70.063 147.765 72.7548Z" fill="#ED7D2B"/>
<path d="M161.41 40.1359V42.3196C160.492 42.9642 159.504 43.3335 158.663 43.3186C157.929 43.3036 156.974 42.945 156.052 42.3345V40.1359C156.052 38.917 157.051 37.918 158.27 37.918H159.194C160.411 37.918 161.41 38.917 161.41 40.1359Z" fill="#2C3A64"/>
<path d="M179.43 72.1188C179.324 72.1615 179.215 72.1999 179.106 72.2362C179.063 72.1999 179.018 72.1636 178.973 72.1231C178.933 72.0868 178.89 72.0505 178.848 72.0142C178.745 71.9245 178.636 71.8306 178.525 71.7324C178.416 71.6406 178.307 71.5446 178.192 71.4442C178.16 71.4165 178.126 71.3888 178.092 71.3589C178.017 71.2948 177.94 71.2286 177.866 71.1625C177.759 71.0707 177.646 70.9746 177.535 70.8764C177.426 70.7847 177.319 70.6886 177.21 70.5947C176.937 70.3556 176.653 70.1122 176.365 69.8604C176.286 69.792 176.205 69.7237 176.126 69.6554C176.03 69.5722 175.936 69.4911 175.84 69.4078C175.725 69.3075 175.607 69.205 175.49 69.1026C175.441 69.0577 175.389 69.015 175.338 68.9724C175.272 68.9126 175.204 68.8549 175.135 68.7952C175.076 68.7439 175.018 68.6948 174.958 68.6436C174.849 68.5476 174.736 68.4515 174.627 68.3554C174.388 68.1462 174.149 67.9413 173.914 67.7364C173.784 67.6211 173.654 67.508 173.526 67.3991C173.432 67.318 173.338 67.2369 173.248 67.1579C173.142 67.0661 173.037 66.9743 172.935 66.8847C172.418 66.4385 171.946 66.0266 171.549 65.6829C171.539 65.6743 171.53 65.6679 171.521 65.6594C171.521 65.6594 171.53 65.653 171.545 65.6423C171.805 65.4587 174.177 63.8919 175.673 66.541C176.734 68.4003 178.418 70.7505 179.43 72.1188Z" fill="#ED7D2B"/>
<path d="M163.945 39.2582C162.897 41.6447 160.453 43.3524 158.66 43.3204C156.937 43.2884 153.993 41.348 153.116 38.7224L153.108 38.7011L153.088 38.6392C153.088 38.6392 154.939 40.2167 156.162 39.4354H161.302C161.302 39.4332 162.649 40.2017 163.945 39.2582Z" fill="#2C3A64"/>
<path d="M159.284 39.8686H158.176C157.922 39.8686 157.598 39.4524 157.598 39.1984C157.598 39.1984 157.92 38.9443 158.176 38.9443H159.284C159.538 38.9443 159.909 39.1557 159.969 39.3051C159.969 39.3072 159.816 39.8686 159.284 39.8686Z" fill="#FFB27D"/>
<path d="M271.668 81.5797H222.563C215.517 81.5797 209.802 75.8674 209.802 68.8188V19.7159C209.802 12.6695 215.515 6.95508 222.563 6.95508H271.668C278.715 6.95508 284.429 12.6674 284.429 19.7159V68.821C284.429 75.8674 278.717 81.5797 271.668 81.5797Z" fill="#E3F0FF"/>
<path d="M274.764 25.3235V61.7617C274.764 64.0927 273.921 66.2252 272.527 67.8753C270.791 69.9267 268.196 71.2309 265.297 71.2309H228.856C226.464 71.2309 224.28 70.3451 222.615 68.8828C220.636 67.1474 219.387 64.6008 219.387 61.7638V25.3257C219.387 20.0958 223.627 15.8564 228.856 15.8564H265.297C270.527 15.8543 274.764 20.0937 274.764 25.3235Z" fill="#D2E4FF"/>
<path d="M243.208 49.76C243.208 49.76 237.263 49.4612 237.096 46.0308C236.93 42.6005 232.02 40.0987 233.442 37.345C235.186 33.968 233.595 30.7212 235.796 28.45C238.223 25.9482 241.286 27.3058 242.904 25.8479C244.52 24.3899 247.479 23.0472 250.395 24.8467C253.311 26.6484 255.537 25.6792 257.454 27.4126C259.572 29.3295 258.769 31.7416 260.515 33.0523C262.116 34.2519 261.463 37.5329 260.114 40.199C259.143 42.1202 261.382 43.9218 257.535 46.129C255.934 47.049 256.282 49.3608 251.422 49.76C249.234 49.9393 244.484 48.9147 243.208 49.76Z" fill="#2C3A64"/>
<path d="M243.385 46.718C243.385 46.718 243.212 52.0781 242.524 54.4795L237.094 58.2685L257.535 61.3274L252.659 54.5927C252.659 54.5927 251.187 47.4054 251.959 44.7477C252.734 42.0858 243.385 46.718 243.385 46.718Z" fill="#B56F40"/>
<path d="M243.354 47.4565C243.354 47.4544 244.97 51.348 248.014 51.2626C251.058 51.1772 251.752 47.734 251.752 47.734L243.354 47.4565Z" fill="#99592E"/>
<path d="M247.667 49.7602C245.462 49.7217 241.399 46.7845 241.399 43.1449V37.469C241.399 36.1412 242.326 35.0547 243.457 35.0547H251.874C253.005 35.0547 253.932 36.1412 253.932 37.469V42.8247C253.934 46.6393 250.198 49.805 247.667 49.7602Z" fill="#B56F40"/>
<path d="M259.612 55.9567C259.612 55.9567 259.61 55.9567 259.608 55.9567C257.134 55.3355 254.809 54.8402 252.66 54.5905C250.762 57.1094 249.402 57.7818 247.665 58.467C244.875 58.0806 242.522 54.5585 242.522 54.4795C239.485 54.789 237.435 55.4337 236.601 55.6941C236.601 55.6941 236.596 55.6941 236.592 55.6962C236.347 55.7282 230.914 56.5693 222.61 68.9672C224.275 70.4316 226.461 71.3175 228.852 71.3175H232.605H235.636H261.454C261.452 71.2876 261.452 71.2598 261.45 71.2321H265.294C268.193 71.2321 270.789 69.9278 272.524 67.8764C266.693 57.8586 259.612 55.9567 259.612 55.9567Z" fill="#B64C41"/>
<path d="M241.402 39.7703C241.402 39.7703 242.932 35.0955 247.951 35.8255C252.967 36.5555 253.403 37.6271 253.936 38.8695C254.47 40.114 255.499 34.3249 255.499 34.3249L249.582 32.5659C249.582 32.5659 242.42 33.3813 241.906 34.581C241.391 35.7807 241.391 35.7807 241.391 35.7807L241.402 39.7703Z" fill="#2C3A64"/>
<path d="M253.394 40.3895C253.112 40.0458 252.651 39.8516 252.126 39.8516H249.464C248.956 39.8516 248.604 39.9946 248.412 40.2828C248.322 40.4151 248.277 40.5667 248.262 40.7225C248.262 40.7225 248.262 40.7225 248.262 40.7246C247.816 40.6136 247.381 40.6691 247.077 40.746V40.7438C247.065 40.5816 247.018 40.4215 246.926 40.2828C246.736 39.9946 246.382 39.8516 245.876 39.8516H243.212C242.687 39.8516 242.225 40.0479 241.946 40.3895C241.69 40.699 241.604 41.1046 241.698 41.5593C242.001 43.0642 243.735 43.2563 244.601 43.2563C244.868 43.2563 245.052 43.2371 245.086 43.2349C245.897 43.2328 246.467 42.7717 246.881 41.7813C246.951 41.6126 247.067 41.2946 247.084 40.9637C247.372 40.8869 247.814 40.8185 248.258 40.9402C248.271 41.2796 248.388 41.6084 248.461 41.7813C248.875 42.7717 249.447 43.2349 250.256 43.2349C250.29 43.2392 250.476 43.2563 250.743 43.2563C251.607 43.2563 253.343 43.0642 253.646 41.5593C253.733 41.1046 253.648 40.699 253.394 40.3895ZM246.902 41.0192C246.873 41.3181 246.768 41.5956 246.719 41.7151C246.335 42.633 245.814 43.062 245.082 43.062H245.071C245.064 43.0642 244.347 43.1474 243.594 42.9937C242.605 42.7931 242.027 42.3 241.869 41.5272C241.788 41.1238 241.86 40.7695 242.082 40.5026C242.33 40.2016 242.742 40.0287 243.214 40.0287H245.878C246.322 40.0287 246.627 40.1461 246.783 40.3831C246.864 40.5026 246.9 40.6478 246.909 40.7951V40.7972C246.774 40.8399 246.687 40.8783 246.676 40.8847C246.623 40.9082 246.601 40.9701 246.625 41.0235C246.642 41.0619 246.68 41.0854 246.721 41.0854C246.736 41.0854 246.751 41.0832 246.764 41.0768C246.762 41.0704 246.815 41.047 246.902 41.0192C246.902 41.0171 246.902 41.0192 246.902 41.0192ZM253.471 41.5251C253.315 42.2979 252.734 42.7909 251.746 42.9916C250.995 43.1453 250.275 43.062 250.269 43.0599H250.258C249.524 43.0599 249.003 42.6309 248.621 41.713C248.57 41.5934 248.461 41.3031 248.435 41C248.435 41 248.435 41 248.435 40.9979C248.486 41.0192 248.538 41.0405 248.587 41.0683C248.638 41.096 248.702 41.0768 248.728 41.0256C248.755 40.9744 248.734 40.9103 248.685 40.8847C248.602 40.8399 248.518 40.8079 248.435 40.778V40.7759C248.446 40.6328 248.482 40.4962 248.559 40.3809C248.715 40.144 249.02 40.0266 249.464 40.0266H252.126C252.6 40.0266 253.012 40.1995 253.259 40.5005C253.477 40.7673 253.552 41.1238 253.471 41.5251Z" fill="#2C3A64"/>
<path d="M372.702 79.8418L323.922 74.217C316.922 73.4101 311.9 67.0788 312.709 60.0794L318.333 11.2988C319.14 4.29717 325.469 -0.723488 332.471 0.0855377L381.252 5.71029C388.253 6.51719 393.274 12.8485 392.465 19.848L386.84 68.6286C386.033 75.628 379.704 80.6487 372.702 79.8418Z" fill="#E3F0FF"/>
<path d="M382.223 24.3114L378.048 60.5105C377.886 61.9257 377.418 63.23 376.718 64.3699V64.372C375.638 66.1331 374.007 67.495 372.09 68.2464C370.995 68.6754 369.806 68.906 368.574 68.8953H368.572C368.237 68.8932 367.898 68.874 367.556 68.8334L352.21 67.0638L349.177 66.7137L339.259 65.5696L337.987 65.4223L331.359 64.6581C327.794 64.2461 324.919 61.9044 323.662 58.7964C323.58 58.5936 323.504 58.3908 323.437 58.1837C323.166 57.3576 323.008 56.4867 322.981 55.5901C322.964 55.1227 322.983 54.6488 323.038 54.1685L327.214 17.9694C327.811 12.7737 332.51 9.04876 337.705 9.64646L373.904 13.8197C379.096 14.4174 382.821 19.1135 382.223 24.3114Z" fill="#D2E4FF"/>
<path d="M366.892 32.6662C366.887 32.6363 366.883 32.6085 366.877 32.5808C366.761 31.919 366.629 31.2637 366.484 30.6169C366.484 30.6169 366.484 30.6169 366.484 30.6148C367.289 25.4383 365.303 23.2268 363.585 22.104C362.661 20.3002 361.675 19.028 360.74 18.5968C359.032 17.8091 357.072 17.871 355.715 18.0674C356.035 17.6746 356.716 17.4847 356.716 17.4847C355.86 17.4292 354.041 18.4282 354.041 18.4282C341.882 14.8825 341.494 32.3758 342.081 36.3847C342.668 40.3914 338.576 42.0607 332.716 45.7514C327.392 49.105 324.526 52.7189 322.984 55.5857C323.014 56.4844 323.172 57.3532 323.441 58.1793C323.633 58.0064 323.825 57.8762 324.018 57.8057C324.005 57.842 323.86 58.2348 323.665 58.7919C324.92 61.8999 327.796 64.2416 331.363 64.6536L337.991 65.4178L339.263 65.5651L349.181 66.7093C350.222 65.2321 351.356 63.7037 352.534 62.1881C355.403 58.4909 358.539 54.8621 361.267 52.2215C362.166 51.3484 363.022 50.5864 363.807 49.9631C363.837 49.9417 363.865 49.9161 363.895 49.8948C364.277 49.216 364.586 48.4304 364.832 47.615C365.671 44.872 365.829 41.8173 365.844 41.5142C365.846 44.349 365.596 46.3129 365.271 47.6748C365.143 48.2169 365.002 48.661 364.862 49.0302C365.21 48.6524 365.517 48.2255 365.792 47.7559C367.854 44.2167 367.88 38.276 366.892 32.6662Z" fill="#163560"/>
<path d="M361.972 51.005C362.008 51.0264 357.97 52.5655 355.194 51.4512C352.584 50.4052 351.224 46.7059 351.263 46.7016C352.43 46.6056 352.94 45.075 353.694 38.3296L354.198 38.4918L362.679 41.2113C362.679 41.2113 362.166 43.9202 361.863 46.4924C361.609 48.6527 361.504 50.7169 361.972 51.005Z" fill="#FFB27D"/>
<path d="M351.179 22.2619C351.179 22.2619 355.09 17.3266 360.847 21.2116C360.847 21.2116 357.662 20.932 351.179 22.2619Z" fill="#BC3F3F"/>
<path d="M362.68 41.2112C362.68 41.2112 362.168 43.9201 361.865 46.4923C357.023 45.7964 354.968 41.0682 354.199 38.4917L362.68 41.2112Z" fill="#EF9E67"/>
<path d="M364.04 42.7589C364.04 42.7589 352.53 43.9201 351.918 36.7414C351.305 29.5626 349.405 24.8771 356.729 23.8311C364.053 22.7851 365.716 25.4043 366.503 27.7503C367.291 30.0984 367.018 42.2722 364.04 42.7589Z" fill="#FFB27D"/>
<path d="M361.963 23.2146C361.963 23.2146 359.517 31.9046 354.778 33.559C350.039 35.2133 347.83 34.0926 347.83 34.0926C347.83 34.0926 351.297 30.8288 351.634 25.6117C351.634 25.6096 359.244 19.4064 361.963 23.2146Z" fill="#163560"/>
<path d="M361.238 23.9634C361.238 23.9634 363.752 25.6455 364.482 27.4258C365.21 29.206 365.787 32.9481 366.873 32.7282C366.873 32.7282 368.769 26.8025 365.823 23.7884C362.7 20.5928 361.238 23.9634 361.238 23.9634Z" fill="#163560"/>
<path d="M371.825 50.4393C370.629 48.9408 368.185 48.1616 365.788 47.7582C365.613 47.7304 365.44 47.7027 365.267 47.6771C365.12 47.6557 364.975 47.6365 364.828 47.6173C363.816 47.4849 362.849 47.4166 362.021 47.3804C361.897 47.2053 361.822 47.0986 361.799 47.0644C361.792 47.058 361.79 47.0538 361.79 47.0538L352.056 46.2661L351.954 46.2575C351.954 46.2575 351.947 46.2575 351.934 46.2554C351.928 46.2554 351.922 46.2533 351.913 46.2533C351.179 46.1743 341.097 45.1731 339.146 48.7316C337.871 51.0562 337.846 55.5048 338.448 60.44C338.266 62.1136 338.115 63.817 337.982 65.418L339.255 65.5653L349.172 66.7094L352.205 67.0595L367.551 68.8291C367.893 68.8676 368.232 68.8889 368.567 68.891H368.57C369.801 68.9017 370.99 68.6712 372.085 68.2421C374.002 67.4907 375.633 66.1288 376.713 64.3678V64.3656C375.242 58.3267 373.396 52.4117 371.825 50.4393Z" fill="#BC3F3F"/>
<path d="M379.474 172.792H330.396C323.352 172.792 317.644 167.082 317.644 160.04V110.962C317.644 103.918 323.354 98.21 330.396 98.21H379.474C386.518 98.21 392.226 103.92 392.226 110.962V160.04C392.226 167.082 386.516 172.792 379.474 172.792Z" fill="#E3F0FF"/>
<path d="M382.566 116.568V152.987C382.566 153.896 382.438 154.778 382.199 155.61C381.102 159.416 377.68 162.238 373.567 162.439C373.413 162.448 373.259 162.452 373.104 162.452H336.685C336.621 162.452 336.554 162.452 336.49 162.448C336.429 162.448 336.364 162.445 336.303 162.443C332.174 162.281 328.727 159.472 327.606 155.668C327.354 154.818 327.22 153.92 327.22 152.989V116.568C327.22 111.34 331.457 107.103 336.683 107.103H373.104C378.329 107.103 382.566 111.34 382.566 116.568Z" fill="#D2E4FF"/>
<path d="M349.444 133.443C349.444 133.443 349.235 139.919 348.407 142.82L341.845 147.397L366.542 151.092L360.653 142.955C360.653 142.955 358.875 134.271 359.808 131.058C360.74 127.846 349.444 133.443 349.444 133.443Z" fill="#FFB27D"/>
<path d="M349.41 134.337C349.41 134.335 351.363 139.037 355.041 138.935C358.719 138.83 359.558 134.672 359.558 134.672L349.41 134.337Z" fill="#ED985F"/>
<path d="M347.213 130.529C347.213 130.529 346.026 124.599 345.196 122.802C344.368 121.006 343.676 112.991 352.863 112.577C352.863 112.577 356.388 112.991 358.322 111.817C358.322 111.817 358.322 112.991 357.837 113.405C357.837 113.405 361.016 112.645 363.502 115.407C365.989 118.172 361.844 127.842 362.051 130.123L347.213 130.529Z" fill="#2C3A64"/>
<path d="M354.618 137.118C351.952 137.071 347.047 133.521 347.047 129.126V122.267C347.047 120.662 348.165 119.349 349.534 119.349H359.703C361.071 119.349 362.19 120.662 362.19 122.267V128.737C362.192 133.346 357.675 137.171 354.618 137.118Z" fill="#FFB27D"/>
<path d="M347.047 125.929C347.047 125.929 347.062 121.807 350.325 121.175C353.589 120.541 360.896 123.184 361.931 120.178C362.967 117.173 347.811 117.224 347.047 119.143C346.285 121.06 347.047 125.929 347.047 125.929Z" fill="#2C3A64"/>
<path d="M371.247 162.451H336.685C336.621 162.451 336.555 162.451 336.491 162.446C337.364 154.529 339.241 144.979 340.741 144.351C340.741 144.351 340.912 144.287 341.243 144.185C341.247 144.182 341.251 144.182 341.251 144.182C342.035 143.937 343.698 143.48 346.114 143.111C346.118 143.111 346.127 143.109 346.131 143.109C346.829 143 347.587 142.904 348.407 142.818C348.407 142.914 351.248 147.068 354.619 147.534C356.715 146.706 358.361 145.999 360.653 142.953C361.409 143.042 362.184 143.145 362.976 143.269C364.901 143.565 366.931 143.969 369.049 144.503C369.298 144.564 369.552 144.629 369.806 144.699H369.809C369.909 144.722 370.009 144.75 370.11 144.778C370.11 144.778 370.133 144.883 370.193 145.504C370.193 145.504 370.193 145.504 370.193 145.506C370.325 146.913 370.635 150.968 371.247 162.451Z" fill="#739AF0"/>
<path d="M341.014 144.229C341.006 144.231 340.997 144.233 340.989 144.235C340.858 144.265 340.683 144.31 340.461 144.387C340.449 144.391 340.434 144.395 340.423 144.4C340.41 144.404 340.399 144.408 340.391 144.41C340.378 144.415 340.37 144.417 340.37 144.417C338.547 145.049 333.981 147.365 327.604 155.666C328.725 159.47 332.173 162.279 336.301 162.442C336.363 162.446 336.427 162.446 336.489 162.446C336.553 162.45 336.619 162.45 336.683 162.45H340.12H345.858C345.956 156.603 346.026 151.514 346.071 148.029C346.09 146.487 346.103 145.262 346.114 144.417C346.122 143.569 346.127 143.11 346.127 143.11C346.122 143.11 346.114 143.112 346.11 143.112C344.306 143.328 342.088 143.919 341.014 144.229Z" fill="#2B478B"/>
<path d="M370.11 144.778C369.646 144.605 369.328 144.534 369.168 144.507C369.164 144.507 369.164 144.507 369.162 144.505C367.941 144.197 365.185 143.533 362.976 143.269C362.976 143.269 362.976 143.269 362.976 143.271C362.976 143.32 362.982 144.374 362.997 146.193V146.195C363.008 147.361 363.02 148.84 363.035 150.571C363.065 153.794 363.11 157.887 363.17 162.452H369.723H373.104C373.26 162.452 373.414 162.448 373.568 162.44C377.679 162.241 381.103 159.419 382.2 155.611C376.238 147.803 371.979 145.469 370.11 144.778Z" fill="#2B478B"/>
<path d="M361.056 125.595C360.74 125.208 360.222 124.988 359.63 124.988H356.635C356.068 124.988 355.668 125.153 355.453 125.475C355.355 125.627 355.301 125.795 355.284 125.97V125.972C354.783 125.849 354.294 125.91 353.954 125.996V125.994C353.937 125.81 353.888 125.633 353.784 125.475C353.57 125.153 353.171 124.988 352.601 124.988H349.608C349.017 124.988 348.498 125.21 348.182 125.595C347.896 125.945 347.8 126.399 347.903 126.912C348.244 128.602 350.193 128.818 351.166 128.818C351.465 128.818 351.675 128.796 351.713 128.794C352.624 128.792 353.265 128.271 353.732 127.159C353.813 126.971 353.939 126.613 353.959 126.241C354.281 126.154 354.778 126.077 355.278 126.214C355.293 126.596 355.425 126.965 355.508 127.159C355.974 128.273 356.616 128.794 357.528 128.794C357.566 128.799 357.775 128.818 358.074 128.818C359.048 128.818 360.996 128.602 361.338 126.912C361.438 126.399 361.342 125.945 361.056 125.595ZM353.756 126.301C353.724 126.636 353.604 126.95 353.551 127.082C353.12 128.116 352.533 128.598 351.709 128.598H351.696C351.687 128.6 350.88 128.694 350.033 128.521C348.923 128.295 348.27 127.74 348.095 126.873C348.003 126.421 348.086 126.021 348.332 125.72C348.609 125.381 349.075 125.187 349.604 125.187H352.597C353.096 125.187 353.44 125.321 353.617 125.586C353.709 125.72 353.749 125.885 353.758 126.049V126.051C353.606 126.1 353.508 126.143 353.495 126.15C353.436 126.177 353.41 126.246 353.438 126.305C353.457 126.348 353.5 126.374 353.544 126.374C353.562 126.374 353.579 126.369 353.594 126.363C353.598 126.361 353.658 126.335 353.756 126.301ZM361.142 126.873C360.967 127.74 360.313 128.295 359.201 128.521C358.354 128.694 357.549 128.6 357.54 128.598H357.528C356.704 128.598 356.117 128.118 355.685 127.082C355.63 126.948 355.508 126.623 355.478 126.28C355.536 126.303 355.592 126.329 355.649 126.359C355.707 126.389 355.777 126.367 355.809 126.31C355.839 126.252 355.818 126.182 355.76 126.15C355.666 126.1 355.57 126.062 355.476 126.028C355.476 126.028 355.476 126.028 355.476 126.026C355.489 125.866 355.532 125.714 355.617 125.582C355.794 125.317 356.136 125.183 356.635 125.183H359.63C360.162 125.183 360.625 125.377 360.903 125.716C361.15 126.021 361.233 126.421 361.142 126.873Z" fill="#B64C41"/>
<path d="M260.016 181.762H203.1C194.931 181.762 188.309 175.14 188.309 166.971V110.055C188.309 101.886 194.931 95.2642 203.1 95.2642H260.016C268.185 95.2642 274.807 101.886 274.807 110.055V166.971C274.807 175.14 268.185 181.762 260.016 181.762Z" fill="#E3F0FF"/>
<path d="M263.603 116.557V158.793C263.603 163.398 260.769 167.34 256.749 168.969C256.512 169.065 256.273 169.153 256.028 169.232C254.956 169.582 253.814 169.769 252.627 169.769H210.391C204.329 169.769 199.415 164.856 199.415 158.793V116.557C199.415 110.495 204.329 105.581 210.391 105.581H252.627C258.69 105.581 263.603 110.495 263.603 116.557Z" fill="#D2E4FF"/>
<path d="M231.874 116.778C230.694 116.494 229.321 116.428 227.72 116.656C227.72 116.656 224.858 116.938 222.166 118.757C220.025 120.202 216.936 123.323 220.39 131.883L222.027 134.826C221.481 141.239 218.857 141.239 218.857 141.239C218.857 141.239 220.003 141.804 220.558 141.804C220.558 141.804 221.367 141.495 221.528 141.049C221.528 141.049 221.367 141.751 221.16 141.975C221.16 141.975 225.613 142.398 227.838 140.716C229.046 139.802 230.369 137.657 231.223 135.471L234.592 135.708C234.628 137.157 234.109 138.814 232.489 140.545C232.489 140.545 236.643 140.953 238.05 139.802C238.05 139.802 237.772 140.363 237.516 140.615C237.516 140.615 242.161 140.782 244.078 139.335C245.997 137.883 244.765 114.12 231.874 116.778Z" fill="#233862"/>
<path d="M247.967 169.768H215.083C214.684 167.217 214.438 164.837 214.594 162.553C214.789 159.684 216.054 157.103 217.549 155.005C219.984 151.585 223.024 149.451 223.024 149.451C223.024 149.451 223.101 149.436 223.231 149.412C223.466 149.372 223.871 149.306 224.305 149.267H224.309C224.719 149.052 224.885 147.562 224.934 145.818C224.947 145.333 224.954 144.829 224.951 144.328C224.949 143.894 224.945 143.457 224.934 143.028C224.93 142.827 224.924 142.629 224.919 142.432C224.917 142.377 224.915 142.321 224.915 142.266C224.913 142.182 224.911 142.099 224.907 142.018C224.905 141.954 224.902 141.892 224.9 141.828C224.898 141.728 224.894 141.632 224.89 141.536C224.885 141.405 224.879 141.279 224.875 141.153C224.873 141.126 224.87 141.1 224.87 141.072C224.866 140.955 224.86 140.84 224.855 140.727C224.849 140.59 224.843 140.455 224.834 140.33L224.83 140.231C224.819 140.029 224.808 139.836 224.8 139.666C224.798 139.619 224.796 139.574 224.794 139.529C224.789 139.476 224.789 139.427 224.785 139.377C224.781 139.331 224.781 139.284 224.776 139.241C224.768 139.098 224.759 138.976 224.753 138.878C224.753 138.857 224.751 138.835 224.749 138.814C224.747 138.79 224.744 138.767 224.744 138.748C224.74 138.658 224.736 138.609 224.736 138.609L230.286 137.512H230.288L234.092 136.758L234.538 136.671L234.649 136.649V136.656C234.645 138.082 234.722 139.401 234.863 140.601C234.98 141.617 235.14 142.55 235.328 143.388V143.391C236.02 146.458 237.098 148.304 237.875 148.61H237.877C237.904 148.623 237.928 148.631 237.954 148.638C241.734 149.412 247.487 159.232 247.967 169.768Z" fill="#D9935C"/>
<path d="M224.731 138.61C224.731 138.61 224.945 141.554 224.951 144.329C230.188 144.182 232.954 139.407 234.088 136.76L224.731 138.61Z" fill="#CB7D45"/>
<path d="M222.983 141.236C222.983 141.236 235.37 141.441 235.379 133.725C235.388 126.01 236.993 120.84 229.084 120.383C221.175 119.926 219.636 122.868 219.006 125.444C218.377 128.019 219.76 140.985 222.983 141.236Z" fill="#D9935C"/>
<path d="M223.44 120.195C223.44 120.195 226.832 129.246 232.037 130.585C237.241 131.923 239.499 130.529 239.499 130.529C239.499 130.529 235.508 127.357 234.679 121.822C234.679 121.822 226 115.886 223.44 120.195Z" fill="#233862"/>
<path d="M224.281 120.93C224.281 120.93 221.747 122.952 221.13 124.915C220.513 126.879 220.236 130.924 219.055 130.788C219.055 130.788 216.5 124.636 219.371 121.154C222.417 117.463 224.281 120.93 224.281 120.93Z" fill="#233862"/>
<path d="M223.812 121.235C223.812 121.235 226.228 130.715 232.794 133.751C232.794 133.751 226.228 127.927 225.669 121.669C225.112 115.412 223.812 121.235 223.812 121.235Z" fill="#233862"/>
<path d="M255.139 165.085C254.928 164.581 254.719 164.084 254.516 163.595C254.413 163.349 254.311 163.108 254.209 162.869C254.206 162.856 254.204 162.85 254.204 162.85C251.342 156.053 249.075 150.921 248.853 150.546C248.215 149.466 239.49 148.396 238.212 148.403C237.283 148.403 236.775 145.331 236.568 143.649C236.508 143.186 235.983 142.942 235.599 143.207C235.507 143.269 235.415 143.331 235.323 143.388C235.208 143.461 235.095 143.533 234.98 143.606C234.865 143.676 234.749 143.745 234.636 143.811C234.559 143.856 234.482 143.901 234.406 143.943C234.318 143.992 234.231 144.039 234.143 144.086C234.064 144.129 233.983 144.17 233.904 144.212C233.823 144.253 233.744 144.293 233.665 144.332C233.584 144.37 233.505 144.409 233.426 144.447C233.362 144.477 233.3 144.505 233.238 144.535C233.121 144.588 233.007 144.639 232.89 144.686C232.807 144.722 232.723 144.757 232.642 144.791C232.585 144.814 232.525 144.84 232.467 144.861C232.149 144.987 231.829 145.1 231.515 145.203C228.856 146.076 226.371 146.159 224.936 145.82C224.902 145.811 224.866 145.803 224.832 145.794C224.102 145.606 223.438 146.255 223.594 146.994C223.786 147.867 223.835 148.823 223.342 149.305C221.126 149.799 215.734 151.175 214.724 153.094C213.999 154.471 213.932 162.57 213.54 169.77H214.385H224.746H252.629C253.816 169.77 254.96 169.582 256.029 169.232C256.275 169.153 256.514 169.066 256.751 168.97C256.204 167.642 255.664 166.342 255.139 165.085Z" fill="#F99746"/>
<path d="M243.283 169.768H238.041C239.366 167.573 240.632 165.977 241.362 165.889C241.99 165.814 242.658 167.462 243.283 169.768Z" fill="#ED7D2B"/>
<path d="M238.21 148.403C238.21 148.403 231.678 152.54 226.736 151.56C226.736 151.56 225.549 150.81 227.186 150.057C228.723 149.35 232.297 147.263 231.511 145.203C232.869 144.761 234.269 144.112 235.597 143.207C235.983 142.944 236.506 143.186 236.566 143.649C236.773 145.331 237.283 148.403 238.21 148.403Z" fill="#ED7D2B"/>
<path d="M305.987 171.166C305.987 171.166 315.932 181.34 316.417 185.263C316.901 189.187 311.622 195.324 311.622 195.324L305.987 171.166Z" fill="#ED7D2B"/>
<path d="M301.545 278.995C301.545 278.995 301.201 284.525 300.132 284.604C299.989 284.615 294.705 284.615 294.705 284.615L287.96 284.577C287.96 284.577 288.005 282.95 289.975 282.606C291.947 282.263 295.248 280.877 296.443 278.271C297.698 275.528 301.545 278.995 301.545 278.995Z" fill="#163560"/>
<path d="M316.573 278.995C316.573 278.995 316.229 284.525 315.159 284.604C315.016 284.615 309.733 284.615 309.733 284.615L302.988 284.577C302.988 284.577 303.033 282.95 305.003 282.606C306.975 282.263 310.275 280.877 311.471 278.271C312.726 275.528 316.573 278.995 316.573 278.995Z" fill="#163560"/>
<path d="M294.073 219.551C294.073 219.551 295.839 230.837 302.42 250.868C309.003 270.902 309.899 279.575 309.899 279.575L316.961 279.376C316.961 279.376 317.021 257.484 313.987 247.41C310.954 237.337 313.332 211.094 313.332 211.094L294.073 219.551Z" fill="#163560"/>
<path d="M290.637 211.714C290.637 211.714 290.387 228.72 293.329 249.599C296.27 270.478 295.274 279.343 295.274 279.343L302.32 279.578C302.32 279.578 306.532 258.691 305.323 248.24C304.115 237.788 311.091 212.378 311.091 212.378L290.637 211.714Z" fill="#1C468A"/>
<path d="M304.279 171.92L300.524 174.381L295.098 173.369C295.172 172.932 295.531 171.115 295.858 169.471C295.877 169.375 295.898 169.277 295.915 169.183C296.195 167.785 296.436 166.583 296.436 166.583L301.504 164.346L303.393 163.514C303.389 163.544 303.246 165.066 303.226 165.29C302.874 169.237 304.279 171.92 304.279 171.92Z" fill="#FFB27D"/>
<path d="M296.487 170.678C296.592 170.633 303.021 168.735 303.719 168.966C304.417 169.196 304.832 170.547 304.832 170.547L294.316 172.925C294.316 172.925 295.145 171.243 296.487 170.678Z" fill="#ED7D2B"/>
<path d="M313.8 213.813C312.711 218.785 294.573 219.374 289.898 214.861C289.367 214.347 289.341 211.954 289.542 208.726C289.935 202.423 291.194 192.938 291.243 188.095C291.267 185.755 291.589 183.363 292.016 181.189C292.927 176.557 294.317 172.924 294.317 172.924C294.317 172.924 303.176 170.059 304.832 170.548C312.818 172.892 314.891 208.841 313.8 213.813Z" fill="#FF9843"/>
<path d="M289.542 208.726C289.934 202.423 291.194 192.938 291.243 188.095C291.266 185.755 291.589 183.362 292.016 181.189L297.344 180.248C297.346 180.248 302.556 201.528 289.542 208.726Z" fill="#ED7D2B"/>
<path d="M292.428 199.941C292.428 199.941 292.791 200.81 292.029 201.392C291.267 201.975 290.771 202.921 290.946 203.61C291.121 204.3 292.795 205.427 293.373 205.245C293.952 205.064 295.135 204.155 295.006 203.792C294.878 203.429 295.801 200.596 294.385 199.508C292.972 198.415 292.428 199.941 292.428 199.941Z" fill="#FFB27D"/>
<path d="M298.385 171.647C298.385 171.647 293.19 172.621 289.049 178.722C284.907 184.822 282.184 189.361 282.946 191.561C283.708 193.76 290.662 201.389 291.86 201.389C293.06 201.389 294.994 200.518 295.102 198.557C295.102 198.557 290.208 191.22 291.17 190.121C291.582 189.651 297.525 184.827 298.375 187.006C299.779 190.612 298.385 171.647 298.385 171.647Z" fill="#FF9843"/>
<path d="M302.849 165.355C301.737 167.24 297.589 168.871 295.858 169.471C295.877 169.375 295.898 169.277 295.916 169.183C296.195 167.784 296.436 166.583 296.436 166.583L301.504 164.346C302.625 164.328 303.308 164.58 302.849 165.355Z" fill="#FCA56B"/>
<path d="M294.526 166.274C294.526 166.274 302.689 168.82 304.198 163.712C305.705 158.604 307.773 155.492 302.627 153.65C297.478 151.807 295.886 153.457 294.968 155.039C294.05 156.623 292.442 165.48 294.526 166.274Z" fill="#FFB27D"/>
<path d="M295.288 154.548C295.288 154.548 295.809 160.493 297.038 160.234C298.268 159.976 299.382 159.786 299.203 161.577C299.024 163.368 298.187 166.216 301.976 166.534C305.765 166.852 310.341 156.302 309.302 154.452C306.296 149.113 290.946 148.035 295.288 154.548Z" fill="#163560"/>
<path d="M437.95 59.7775C437.95 59.7775 434.223 64.1983 429.478 62.3497C429.478 62.3497 428.457 59.88 428.442 58.0612C428.44 57.8371 428.438 57.6194 428.434 57.4145C428.408 55.3652 428.34 54.2146 428.34 54.2146C428.34 54.2146 428.342 54.2146 428.344 54.2125C428.56 54.1228 435.598 51.2326 435.593 51.4738C435.472 57.0153 437.95 59.7775 437.95 59.7775Z" fill="#FFB27D"/>
<path d="M434.887 52.7932C434.208 54.0505 431.879 56.5117 428.436 57.4126C428.41 55.3633 428.342 54.2128 428.342 54.2128C428.342 54.2128 428.344 54.2127 428.346 54.2106C428.54 54.1594 435.087 52.4239 434.887 52.7932Z" fill="#ED975D"/>
<path d="M426.867 53.9991C426.867 53.9991 434.782 55.8605 435.864 50.9124C436.946 45.9643 438.699 42.8734 433.691 41.4773C428.683 40.0813 427.285 41.7527 426.521 43.3153C425.757 44.8799 424.834 53.3886 426.867 53.9991Z" fill="#FFB27D"/>
<path d="M435.593 52.2618C435.702 52.3301 437.404 52.8531 440.629 46.4279C441.135 45.4182 441.481 43.2366 440.3 41.309C439.12 39.3814 434.936 37.8659 431.459 37.2063C427.981 36.5467 427.147 38.502 426.329 40.4701C425.469 42.5343 422.986 44.2335 422.986 44.2335C425.983 45.9092 429.595 43.512 430.846 43.9069C432.097 44.3018 432.539 46.272 432.633 46.9039C432.727 47.5357 432.872 48.0609 434.445 47.4973C436.018 46.9338 435.156 49.7259 434.904 50.2617C434.904 50.2595 434.691 51.6833 435.593 52.2618Z" fill="#A9453D"/>
<path d="M455.983 175.629H460.775C461.781 175.629 462.897 174.623 463.177 172.781C463.456 170.939 465.52 169.933 465.969 168.426C466.415 166.919 464.126 164.795 464.126 164.795L463.744 164.304L463.345 163.792L459.548 164.684C459.548 164.684 459.454 165.587 459.396 166.74C459.356 167.57 459.334 168.533 459.381 169.374C459.492 171.385 458.818 173.549 457.033 173.94C455.242 174.333 455.983 175.629 455.983 175.629Z" fill="#2C3A64"/>
<path d="M422.619 175.628H435.322C435.444 175.604 435.535 175.577 435.591 175.549C436.438 175.124 436.174 171.877 436.071 170.874C436.052 170.688 436.037 170.579 436.037 170.579C436.037 170.579 431.569 167.006 430.954 169.743C430.935 169.828 430.912 169.911 430.888 169.995V169.997C430.113 172.556 426.647 173.719 424.644 174.044C423.116 174.292 422.719 175.182 422.619 175.628Z" fill="#2C3A64"/>
<path d="M425.178 102.368C425.178 102.368 425.857 110.832 426.653 121.008C427.737 134.829 429.039 151.808 429.169 155.023C429.391 160.607 430.286 169.54 430.286 169.54C430.286 169.54 432.408 171.662 436.651 170.768C436.651 170.768 440.434 158.016 441.514 144.52C441.531 144.298 441.548 144.076 441.565 143.854C442.571 130.118 444.133 101.194 444.133 101.194L425.178 102.368Z" fill="#2B478B"/>
<path d="M425.178 102.368C425.178 102.368 425.857 110.832 426.653 121.007L441.514 144.522C441.531 144.3 441.548 144.078 441.565 143.856C442.571 130.12 444.133 101.196 444.133 101.196L425.178 102.368Z" fill="#233862"/>
<path d="M428.275 103.373C428.275 103.373 440.505 134.029 448.546 148.436C456.587 162.842 459.1 166.862 459.1 166.862C459.1 166.862 463.706 165.019 464.124 163.762C464.124 163.762 461.051 135.95 455.665 129.17C452.623 125.339 449.048 113.844 448.881 109.822C448.712 105.803 447.792 97.8447 447.792 97.8447L428.275 103.373Z" fill="#2B478B"/>
<path d="M456.165 97.8023L456.293 99.7747C456.293 99.7747 454.993 103.278 458.637 105.073C458.637 105.073 460.197 105.703 460.259 104.488C460.321 103.273 460.122 103.73 460.25 102.02C460.376 100.31 459.706 98.6945 458.575 98.1502L457.646 97.0786L456.165 97.8023Z" fill="#FFB27D"/>
<path d="M457.588 99.2386C456.235 99.674 456.017 99.5737 456.017 99.5737C456.017 99.5737 449.43 87.5792 448.762 86.482C448.096 85.3848 434.773 73.0317 434.773 73.0317L438.197 60.2666C438.197 60.2666 453.347 79.886 454.984 82.6995C457.689 87.3508 459.273 98.1563 459.273 98.1563C459.273 98.1563 458.651 98.897 457.588 99.2386Z" fill="#1E3D70"/>
<path d="M422.597 78.0443C422.644 80.6657 422.798 83.6114 423.003 86.6063C423.016 86.7835 423.029 86.9607 423.041 87.1379C423.174 88.9929 423.315 90.85 423.479 92.6623C423.545 93.3902 423.613 94.1074 423.688 94.8119L423.699 94.9079C423.705 95.1726 423.737 95.4587 423.765 95.7191C424.433 102.507 425.133 107.869 425.264 107.953C425.419 108.055 425.592 108.108 425.784 108.085C427.565 107.861 432.876 108.264 437.224 107.319C440.893 106.544 444.053 105.077 447.4 103.099C447.844 102.836 448.858 102.14 448.774 101.619C448.693 101.047 448.544 100.221 448.354 99.1836C447.694 95.5739 446.556 89.3621 446.168 82.0937C446.093 80.7404 445.982 79.4019 445.839 78.087C445.466 74.6631 444.868 71.4099 444.065 68.5196C442.575 63.151 440.383 59.0397 437.636 57.4323C437.277 57.2317 435.343 58.4612 433.569 59.599C431.93 60.6492 430.205 60.9395 428.527 60.7944L427.05 62.4274C425.261 64.5065 423.357 67.2751 422.836 71.2092C422.798 71.4995 422.764 71.8091 422.736 72.1378C422.591 73.743 422.557 75.7731 422.597 78.0443Z" fill="#2A4E96"/>
<path d="M422.597 78.044C422.644 80.6653 422.798 83.6111 423.003 86.606C423.016 86.7832 423.029 86.9603 423.041 87.1375C433.209 80.772 434.775 69.1255 434.775 69.1255C429.774 69.3454 425.799 70.4959 422.736 72.1396C422.591 73.7427 422.557 75.7727 422.597 78.044Z" fill="#1E3D70"/>
<path d="M392.553 66.835L390.702 65.8851C390.702 65.8851 389.509 61.9467 385.045 62.5103C385.045 62.5103 383.229 62.8774 383.989 64.0109C384.748 65.1444 384.62 64.6129 385.656 66.2309C386.693 67.849 388.379 68.9035 389.756 68.7156L391.306 69.1255L392.553 66.835Z" fill="#ED975D"/>
<path d="M390.74 67.3495C391.265 65.9321 392.078 66.0239 392.078 66.0239C392.078 66.0239 407.198 69.7915 408.554 69.9537C409.909 70.116 424.834 64.1262 424.834 64.1262C424.834 64.1262 430.709 61.4899 433.46 63.8978C435.851 65.9897 435.96 68.6388 435.401 70.8652C434.735 73.5164 432.491 75.476 429.778 75.8218C423.69 76.5967 411.542 78.0568 408.995 77.7024C403.328 76.9126 390.488 69.5012 390.488 69.5012C390.488 69.5012 390.328 68.4638 390.74 67.3495Z" fill="#2A4E96"/>
<path d="M177.484 180.305C177.484 180.305 177.913 175.619 172.679 175.619C172.679 175.619 174.265 176.05 175.087 176.911C175.087 176.911 171.748 174.951 168.115 177.963C164.482 180.975 166.74 188.529 165.634 189.964C164.529 191.398 160.225 191.684 160.753 196.323C161.278 200.962 174.41 206.77 173.567 210.606C173.567 210.606 178.713 203.041 175.033 199.589C175.033 199.589 176.826 201.277 177.01 203.286C177.01 203.286 177.497 199.365 175.001 198.112C172.794 197.002 170.986 192.944 171.176 192.218C171.364 191.492 177.484 180.305 177.484 180.305Z" fill="#2C3A64"/>
<path d="M172.731 202.346C171.924 198.459 166.884 197.253 164.497 200.427C164.068 200.997 163.767 201.672 163.669 202.47C163.125 206.882 170.18 224.856 171.189 226.483C173.029 229.445 183.861 239.602 183.861 239.602L185.856 238.392C185.856 238.392 178.174 225.385 176.985 224.169C175.61 222.762 174.263 209.728 172.731 202.346Z" fill="#ED985F"/>
<path d="M171.569 199.936C171.569 199.936 173.104 201.532 173.806 203.445C173.806 203.445 171.357 210.478 165.632 211.36C165.632 211.358 170.16 199.931 171.569 199.936Z" fill="#AA413E"/>
<path d="M176.002 179.645C176.073 179.358 169.801 182.479 169.483 182.832C166.542 186.095 167.381 190.354 169.063 190.395C170.143 190.42 169.934 192.215 169.934 192.215L181.962 187.129C181.96 187.129 180.513 178.684 176.002 179.645Z" fill="#2C3A64"/>
<path d="M162.779 281.615L160.176 281.233C160.176 281.233 151.424 274.279 150.122 261.302C149.99 259.981 149.962 258.64 150.06 257.289C150.071 257.133 150.054 256.977 149.969 256.847C149.969 256.847 149.966 256.845 149.966 256.843C149.687 256.414 148.989 255.338 148.045 253.808C147.115 252.301 145.522 249.451 143.772 246.253C140.617 240.494 136.943 233.608 135.682 231.415C131.666 224.424 133.602 219.724 133.602 219.724C133.602 219.724 144.803 218.616 147.872 215.931L148.978 217.634C148.978 217.634 151.405 228.378 151.29 228.429C151.409 228.794 151.531 229.165 151.655 229.545C153.57 235.456 155.773 242.846 156.974 248.864C157.649 252.249 158.008 255.199 157.816 257.21C157.749 257.9 157.83 258.958 158.014 260.267C159.096 267.975 162.779 281.615 162.779 281.615Z" fill="#2B478B"/>
<path d="M168.239 284.907H157.38C157.38 284.907 157.12 283.253 157.688 281.996C158.232 280.792 159.005 280.753 157.786 278.864C158.475 279.575 160.693 279.868 162.264 279.658C162.457 279.97 163.505 282.062 164.147 282.523C164.856 283.035 168.022 282.852 168.239 284.907Z" fill="#233862"/>
<path d="M151.653 229.543C150.705 234.775 148.463 243.48 143.769 246.253C140.614 240.494 136.941 233.608 135.679 231.415C131.664 224.424 133.6 219.724 133.6 219.724C133.6 219.724 144.8 218.616 147.87 215.931L148.976 217.634C148.976 217.634 151.403 228.378 151.287 228.429C151.409 228.794 151.531 229.165 151.653 229.543Z" fill="#233862"/>
<path d="M144.039 220.531L144.075 218.501C140.028 219.011 130.123 213.666 130.123 213.666C130.123 213.666 125.89 216.482 125.31 224.523C125.028 228.448 123.237 245.045 123.04 250.002C122.968 251.799 122.944 253.08 122.936 253.592C122.936 253.594 122.936 253.596 122.936 253.596C122.934 253.752 122.859 253.891 122.763 254.015C121.926 255.08 121.198 256.207 120.571 257.377C114.395 268.865 117.625 284.474 117.625 284.474L119.059 284.109C119.059 284.109 124.281 267.926 127.692 260.927C128.27 259.74 128.798 258.816 129.237 258.282C130.52 256.724 131.874 254.077 133.208 250.892C135.729 244.87 138.175 236.925 139.921 230.773C140.043 230.794 144.039 220.531 144.039 220.531Z" fill="#2B478B"/>
<path d="M167.718 206.976C161.103 205.458 165.329 196.162 165.714 196.326C166.629 196.138 168.642 194.531 170.444 191.387L170.687 191.598L174.749 195.161C174.749 195.161 173.81 196.546 173.02 197.904C172.403 198.967 171.878 200.013 171.962 200.371C172.286 200.628 169.481 207.381 167.718 206.976Z" fill="#FFB27D"/>
<path d="M174.748 195.161C174.748 195.161 173.809 196.544 173.019 197.904C170.494 196.348 170.489 193.221 170.686 191.601L174.748 195.161Z" fill="#ED985F"/>
<path d="M174.861 196.945C174.861 196.945 168.728 193.532 170.912 189.745C173.095 185.958 173.774 182.968 177.783 184.987C181.792 187.007 181.713 188.885 181.29 190.328C180.87 191.767 176.513 197.735 174.861 196.945Z" fill="#FFB27D"/>
<path d="M182.328 188.118C182.046 186.436 181.192 186.276 180.597 186.389C178.332 182.643 174.63 184.105 174.63 184.105C172.654 186.586 169.795 187.008 169.795 187.008C169.795 187.008 170.506 188.332 173.439 189.152C174.336 189.401 175.352 189.25 176.332 188.921C174.297 190.054 172.169 190.49 172.169 190.49C176.033 190.844 179.711 187.311 180.091 186.931C180.27 187.48 180.582 188.626 180.394 189.463C180.14 190.601 179.128 192.665 179.745 192.932C179.749 192.932 182.748 190.639 182.328 188.118Z" fill="#2C3A64"/>
<path d="M126.261 284.907H115.402C115.402 284.907 115.142 283.253 115.71 281.996C116.254 280.792 117.104 280.243 116.901 278.785C117.59 279.496 118.715 280.292 120.286 280.081C120.479 280.393 121.529 282.062 122.171 282.523C122.878 283.035 126.041 282.852 126.261 284.907Z" fill="#233862"/>
<path d="M168.495 214.346C167.099 214.835 165.137 215.101 163.131 215.319C160.275 215.631 157.327 215.844 155.783 216.459C155.22 216.683 154.844 216.961 154.727 217.315C154.057 219.328 151.106 222.434 151.106 222.434C132.198 221.574 130.123 213.665 130.123 213.665C142.845 198.872 164.384 194.59 164.384 194.59C164.384 194.59 165.923 193.939 169.797 197.017C172.382 199.072 172.043 199.862 172.043 199.862C172.043 199.862 172.606 212.911 168.495 214.346Z" fill="#C65447"/>
<path d="M163.131 215.319C160.274 215.631 157.326 215.844 155.783 216.459C155.151 207.028 159.602 199.935 159.602 199.935C159.602 199.935 162.505 211.75 163.131 215.319Z" fill="#AA413E"/>
<path d="M247.66 284.616H195.321C187.809 284.616 181.721 278.526 181.721 271.016V218.677C181.721 211.165 187.811 205.077 195.321 205.077H247.66C255.172 205.077 261.26 211.165 261.26 218.677V271.016C261.262 278.526 255.172 284.616 247.66 284.616Z" fill="#E3F0FF"/>
<path d="M250.96 224.653V263.493C250.96 266.152 249.931 268.569 248.249 270.373C246.407 272.349 243.781 273.587 240.866 273.587H202.026C199.031 273.587 196.341 272.281 194.493 270.208C192.9 268.424 191.936 266.071 191.936 263.493V224.653C191.936 219.08 196.455 214.561 202.028 214.561H240.868C246.441 214.561 250.96 219.08 250.96 224.653Z" fill="#D2E4FF"/>
<path d="M213.844 243.798C213.844 243.798 208.206 233.573 213.376 229.058C218.546 224.543 227.649 227.237 229.324 229.058C231 230.879 233.228 236.058 228.605 243.42L213.844 243.798Z" fill="#2C3A64"/>
<path d="M216.179 248.005C216.179 248.005 215.974 254.32 215.167 257.148L208.771 261.609L232.846 265.213L227.104 257.28C227.104 257.28 225.37 248.816 226.28 245.685C227.189 242.553 216.179 248.005 216.179 248.005Z" fill="#B56F40"/>
<path d="M216.145 248.878C216.145 248.876 218.049 253.461 221.635 253.361C225.221 253.26 226.036 249.205 226.036 249.205L216.145 248.878Z" fill="#99592E"/>
<path d="M221.223 251.59C218.625 251.545 213.841 248.085 213.841 243.801V237.115C213.841 235.55 214.932 234.27 216.266 234.27H226.179C227.514 234.27 228.604 235.55 228.604 237.115V243.423C228.604 247.914 224.203 251.641 221.223 251.59Z" fill="#B56F40"/>
<path d="M248.25 270.374C246.407 272.35 243.782 273.588 240.866 273.588H202.026C199.031 273.588 196.342 272.282 194.493 270.209C202.816 259.148 208.093 258.45 208.232 258.435C209.216 258.129 211.609 257.434 215.191 257.066C215.191 257.158 217.981 261.246 221.268 261.699C223.311 260.892 224.841 260.1 227.076 257.133C229.608 257.427 232.421 258.012 235.333 258.744L235.331 258.731C235.331 258.731 240.264 259.969 248.25 270.374Z" fill="#74ACBE"/>
<path d="M213.844 239.823C213.844 239.823 215.647 234.318 221.556 235.176C227.465 236.034 227.977 237.298 228.605 238.762C229.232 240.227 230.445 233.408 230.445 233.408L223.475 231.338C223.475 231.338 215.041 232.298 214.435 233.712C213.829 235.125 213.829 235.125 213.829 235.125L213.844 239.823Z" fill="#2C3A64"/>
<path d="M220.741 229.173C220.741 229.173 214.497 223.498 217.176 222.287C219.855 221.073 220.741 229.173 220.741 229.173Z" fill="#2C3A64"/>
<path d="M220.489 229.323C220.489 229.323 212.593 226.347 214.638 224.234C216.68 222.121 220.489 229.323 220.489 229.323Z" fill="#2C3A64"/>
<path d="M221.006 229.487C221.006 229.487 219.714 222.168 222.835 222.221C225.956 222.274 221.006 229.487 221.006 229.487Z" fill="#2C3A64"/>
<path d="M221.442 229.009C221.442 229.009 224.824 221.135 227.972 221.873C231.123 222.61 221.442 229.009 221.442 229.009Z" fill="#2C3A64"/>
<path d="M221.27 229.488C221.27 229.488 226.654 222.82 229.486 224.38C232.317 225.941 221.27 229.488 221.27 229.488Z" fill="#2C3A64"/>
<path d="M166.07 198.111C166.07 198.111 158.915 198.818 158.341 203.467C157.766 208.116 165.201 227.057 166.267 228.771C168.205 231.894 179.619 242.595 179.619 242.595L181.721 241.321C181.721 241.321 173.625 227.614 172.372 226.333C170.403 224.318 168.493 199.721 166.07 198.111Z" fill="#FFB27D"/>
<path d="M158.548 206.265C158.567 206.372 165.152 208.417 169.39 206.265C169.39 206.265 170.297 196.486 165.238 197.018C160.179 197.55 157.182 199.142 157.054 201.565C156.926 203.985 158.548 206.265 158.548 206.265Z" fill="#C65447"/>
<path d="M179.618 242.595C179.618 242.595 178.735 245.95 179.618 247.47C180.502 248.99 181.721 250.164 181.721 250.164V241.32L179.618 242.595Z" fill="#FFB27D"/>
<path d="M420.523 284.615H364.653L383.017 205.074H436.193L438.639 206.15L420.523 284.615Z" fill="#CCA07F"/>
<path d="M417.831 284.615H361.959L380.323 205.074H436.193L417.831 284.615Z" fill="#E3F0FF"/>
<path d="M421.193 216.258H395.409C394.839 216.258 394.265 216.723 394.134 217.293C394.002 217.863 394.361 218.328 394.931 218.328H420.715C421.285 218.328 421.859 217.863 421.989 217.293C422.119 216.723 421.763 216.258 421.193 216.258Z" fill="#CBE2F7"/>
<path d="M420.638 221.776H393.415C393.242 221.776 393.064 221.919 393.026 222.092C392.985 222.267 393.094 222.408 393.269 222.408H420.492C420.665 222.408 420.842 222.265 420.881 222.092C420.921 221.917 420.81 221.776 420.638 221.776Z" fill="#CBE2F7"/>
<path d="M420.3 223.234H393.077C392.902 223.234 392.727 223.377 392.689 223.55C392.648 223.725 392.759 223.866 392.932 223.866H420.155C420.33 223.866 420.505 223.723 420.543 223.55C420.582 223.377 420.475 223.234 420.3 223.234Z" fill="#CBE2F7"/>
<path d="M383.57 218.328H390.535C391.105 218.328 391.679 217.863 391.809 217.293C391.942 216.723 391.583 216.258 391.013 216.258H384.048C383.478 216.258 382.904 216.723 382.774 217.293C382.641 217.863 383 218.328 383.57 218.328Z" fill="#CBE2F7"/>
<path d="M416.945 232.312H391.161C390.591 232.312 390.017 232.778 389.886 233.348C389.754 233.918 390.113 234.383 390.683 234.383H416.467C417.037 234.383 417.611 233.918 417.741 233.348C417.874 232.78 417.515 232.312 416.945 232.312Z" fill="#CBE2F7"/>
<path d="M416.39 237.83H389.167C388.992 237.83 388.817 237.973 388.776 238.146C388.735 238.321 388.846 238.462 389.019 238.462H416.242C416.417 238.462 416.592 238.319 416.633 238.146C416.673 237.973 416.565 237.83 416.39 237.83Z" fill="#CBE2F7"/>
<path d="M416.055 239.288H388.832C388.657 239.288 388.482 239.431 388.444 239.604C388.403 239.779 388.512 239.92 388.687 239.92H415.91C416.085 239.92 416.26 239.777 416.301 239.604C416.337 239.431 416.228 239.288 416.055 239.288Z" fill="#CBE2F7"/>
<path d="M379.322 234.385H386.287C386.857 234.385 387.431 233.92 387.561 233.35C387.694 232.78 387.335 232.314 386.765 232.314H379.8C379.23 232.314 378.656 232.78 378.526 233.35C378.393 233.918 378.752 234.385 379.322 234.385Z" fill="#CBE2F7"/>
<path d="M413.562 248.369H387.777C387.207 248.369 386.633 248.834 386.503 249.404C386.371 249.974 386.729 250.44 387.299 250.44H413.084C413.653 250.44 414.228 249.974 414.358 249.404C414.49 248.834 414.132 248.369 413.562 248.369Z" fill="#CBE2F7"/>
<path d="M413.006 253.888H385.783C385.608 253.888 385.433 254.031 385.393 254.204C385.352 254.377 385.461 254.52 385.636 254.52H412.859C413.034 254.52 413.209 254.377 413.25 254.204C413.29 254.031 413.181 253.888 413.006 253.888Z" fill="#CBE2F7"/>
<path d="M412.67 255.345H385.447C385.272 255.345 385.097 255.488 385.056 255.661C385.016 255.834 385.127 255.977 385.3 255.977H412.523C412.698 255.977 412.873 255.834 412.913 255.661C412.954 255.488 412.845 255.345 412.67 255.345Z" fill="#CBE2F7"/>
<path d="M375.938 250.44H382.904C383.474 250.44 384.048 249.974 384.178 249.404C384.31 248.834 383.952 248.369 383.382 248.369H376.417C375.847 248.369 375.272 248.834 375.142 249.404C375.01 249.974 375.368 250.44 375.938 250.44Z" fill="#CBE2F7"/>
<path d="M409.612 265.079H383.828C383.258 265.079 382.684 265.544 382.554 266.114C382.422 266.684 382.78 267.15 383.35 267.15H409.134C409.704 267.15 410.278 266.684 410.409 266.114C410.541 265.544 410.182 265.079 409.612 265.079Z" fill="#CBE2F7"/>
<path d="M409.059 270.597H381.834C381.661 270.597 381.484 270.74 381.445 270.913C381.405 271.088 381.514 271.229 381.689 271.229H408.912C409.087 271.229 409.262 271.086 409.3 270.913C409.339 270.74 409.232 270.597 409.059 270.597Z" fill="#CBE2F7"/>
<path d="M408.722 272.055H381.499C381.324 272.055 381.149 272.198 381.111 272.371C381.07 272.546 381.181 272.687 381.354 272.687H408.577C408.752 272.687 408.927 272.544 408.966 272.371C409.006 272.198 408.895 272.055 408.722 272.055Z" fill="#CBE2F7"/>
<path d="M379.435 265.079H372.47C371.9 265.079 371.326 265.544 371.195 266.114C371.063 266.684 371.422 267.15 371.992 267.15H378.957C379.527 267.15 380.101 266.684 380.231 266.114C380.364 265.544 380.005 265.079 379.435 265.079Z" fill="#CBE2F7"/>
<path d="M416.919 210.941H395.267C393.786 210.941 392.689 209.562 393.022 208.119L393.837 204.588H420.495L419.502 208.887C419.224 210.089 418.153 210.941 416.919 210.941Z" fill="#EE9849"/>
<path d="M420.495 204.586L422.329 205.075H420.382L420.495 204.586Z" fill="#ED7D2B"/>
<path d="M433.277 282.767C433.277 283.275 433.07 283.738 432.735 284.073C432.492 284.314 432.18 284.492 431.834 284.571C431.704 284.6 431.567 284.615 431.428 284.615H379.337C378.321 284.615 377.486 283.783 377.486 282.765C377.486 282.257 377.693 281.793 378.029 281.458C378.364 281.123 378.829 280.916 379.335 280.916H431.426C431.565 280.916 431.702 280.933 431.832 280.961C432.658 281.149 433.277 281.887 433.277 282.767Z" fill="#EE9849"/>
<path d="M431.832 280.916L438.635 282.421L431.832 284.615V280.916Z" fill="#739AF0"/>
<path d="M390.813 280.916V284.615H379.335C378.319 284.615 377.484 283.783 377.484 282.765C377.484 282.257 377.691 281.793 378.026 281.458C378.361 281.123 378.827 280.916 379.332 280.916H390.813Z" fill="#739AF0"/>
<path d="M543.129 286H0.616909C0.277502 286 0 285.722 0 285.383V285.174C0 284.834 0.277502 284.557 0.616909 284.557H543.129C543.469 284.557 543.746 284.834 543.746 285.174V285.383C543.746 285.722 543.469 286 543.129 286Z" fill="#C0D4FF"/>
</svg>
