<svg width="548" height="408" viewBox="0 0 548 408" fill="none" xmlns="http://www.w3.org/2000/svg">
<path d="M350.32 2.90527H192.579C187.056 2.90527 182.579 7.38242 182.579 12.9053V310C182.579 315.522 187.056 320 192.579 320H350.32C355.843 320 360.32 315.522 360.32 310V12.9053C360.32 7.38243 355.843 2.90527 350.32 2.90527Z" fill="#0594B4"/>
<path d="M345.998 322.839H196.922C187.372 322.839 179.605 315.072 179.605 305.523V17.3166C179.605 7.76697 187.372 0 196.922 0H345.998C355.545 0 363.315 7.76697 363.315 17.3166V305.525C363.315 315.072 355.548 322.839 345.998 322.839ZM196.922 2.97111C189.013 2.97111 182.577 9.40765 182.577 17.3166V305.525C182.577 313.434 189.013 319.871 196.922 319.871H345.998C353.907 319.871 360.344 313.434 360.344 305.525V17.3166C360.344 9.40765 353.907 2.97111 345.998 2.97111H196.922Z" fill="#3660A1"/>
<mask id="mask0_409_14135" style="mask-type:alpha" maskUnits="userSpaceOnUse" x="182" y="2" width="179" height="318">
<path d="M340.729 319.87H202.191C191.358 319.87 182.577 311.089 182.577 300.253V22.5853C182.577 11.7526 191.358 2.9707 202.191 2.9707H340.729C351.562 2.9707 360.344 11.7526 360.344 22.5853V300.253C360.344 311.086 351.562 319.87 340.729 319.87Z" fill="url(#paint0_linear_409_14135)"/>
</mask>
<g mask="url(#mask0_409_14135)">
<path opacity="0.31" d="M340.729 319.87H202.191C191.358 319.87 182.577 311.089 182.577 300.253V22.5853C182.577 11.7526 191.358 2.9707 202.191 2.9707H340.729C351.562 2.9707 360.344 11.7526 360.344 22.5853V300.253C360.344 311.086 351.562 319.87 340.729 319.87Z" fill="url(#paint1_linear_409_14135)"/>
<path d="M304.784 88.8027V90.7116H333.57V121.672H335.479V88.8054H304.784V88.8027ZM207.442 121.672H209.351V90.7142H236.186V88.8054H207.442V121.672ZM333.57 190.27V221.228H304.784V223.137H335.479V190.27H333.57ZM209.351 190.27H207.442V223.137H236.186V221.228H209.351V190.27Z" fill="white"/>
<path d="M287.092 309.822H255.832C251.827 309.822 248.58 306.575 248.58 302.57V301.471C248.58 297.467 251.827 294.22 255.832 294.22H287.092C291.096 294.22 294.343 297.467 294.343 301.471V302.57C294.343 306.575 291.096 309.822 287.092 309.822Z" fill="white"/>
<g opacity="0.43">
<path opacity="0.34" d="M357.454 103.951H184.517V119.698H357.454V103.951Z" fill="white"/>
<path opacity="0.34" d="M357.454 147.575H184.517V163.322H357.454V147.575Z" fill="white"/>
<path opacity="0.34" d="M357.454 191.195H184.517V206.942H357.454V191.195Z" fill="white"/>
</g>
<path opacity="0.48" d="M215.916 206.426L326.063 207.503L326.935 118.293L216.788 117.216L215.916 206.426Z" fill="white"/>
<path d="M255.971 166.718L302.678 168.645L293.973 157.392L284.071 148.334C284.071 148.334 275.859 146.635 275.131 146.041C274.403 145.447 248.633 147.987 248.633 147.987L248.557 155.709L250.539 166.666L255.971 166.718Z" fill="#3660A1"/>
<path d="M285.761 155.549C285.761 155.549 298.077 158.283 298.14 151.834C298.203 145.387 296.781 140.735 296.781 140.735L292.042 144.295L285.761 155.549Z" fill="#EBECF2"/>
<path d="M256.124 151.146C256.124 151.146 247.294 152.529 245.861 148.695C244.428 144.862 249.214 126.099 251.433 129.649C253.652 133.195 256.124 151.146 256.124 151.146Z" fill="#EBECF2"/>
<path d="M237.947 206.649L237.966 204.89C238.144 186.632 253.089 171.979 271.345 172.155C289.602 172.334 304.256 187.279 304.079 205.537L304.061 207.296L237.947 206.649Z" fill="#3660A1"/>
<path d="M250.775 141.982C250.662 153.503 259.875 166.755 271.397 166.868C282.919 166.981 292.389 153.911 292.503 142.389C292.616 130.868 283.366 121.436 271.844 121.323C260.32 121.21 250.889 130.46 250.775 141.982Z" fill="#EBECF2"/>
<path d="M258.571 125.922C258.571 125.922 273.387 141.138 291.24 135.803L292.145 146.113C292.145 146.113 295.571 143.699 295.547 146.147C295.524 148.595 294.819 155.026 289.568 153.811L287.591 157.169L302.675 168.646C302.675 168.646 306.001 129.006 296.978 120.101C287.954 111.195 281.26 105.069 261.787 112.705L258.571 125.922Z" fill="#3660A1"/>
<path d="M261.787 112.702C261.787 112.702 237.011 119.565 241.549 166.577L256.263 166.721L252.75 150.304C252.75 150.304 246.729 149.888 247.662 144.63C248.596 139.369 248.735 136.955 252.048 140.909C252.048 140.909 258.298 127.379 258.569 126.246C258.839 125.115 261.787 112.702 261.787 112.702Z" fill="#3660A1"/>
<path d="M270.335 185.371C275.446 185.42 279.632 181.316 279.682 176.205L279.814 162.835L261.301 162.653L261.169 176.023C261.119 181.137 265.221 185.321 270.335 185.371Z" fill="#EBECF2"/>
</g>
<path d="M540.302 397.984C553.856 410.87 -13.3251 410.87 0.239506 397.984C-13.3172 385.098 553.866 385.098 540.302 397.984Z" fill="#F3F3F3"/>
<path d="M176.222 81.028L74.7436 80.0342L73.0214 256.014L199.972 257.257L201.481 103.164L176.222 81.028Z" fill="white"/>
<path d="M73.0451 78.3008L176.871 79.3157L203.201 102.39L201.668 258.984L71.2887 257.709L73.0451 78.3008ZM199.759 103.934L175.57 82.7338L76.4421 81.7636L74.7541 254.314L198.276 255.524L199.759 103.934Z" fill="#3660A1"/>
<path d="M176.222 81.0283L175.99 104.666L201.481 103.164L176.222 81.0283Z" fill="#3660A1"/>
<path d="M89.4521 166.433L185.122 167.369L185.182 161.24L89.5121 160.304L89.4521 166.433Z" fill="#BBE2EB"/>
<path d="M89.3209 180.004L184.991 180.939L185.051 174.811L89.3809 173.875L89.3209 180.004Z" fill="#BBE2EB"/>
<path d="M89.1869 193.572L184.857 194.508L184.917 188.379L89.2468 187.443L89.1869 193.572Z" fill="#BBE2EB"/>
<path d="M89.0555 207.142L184.725 208.078L184.785 201.949L89.1155 201.013L89.0555 207.142Z" fill="#BBE2EB"/>
<path d="M88.9216 220.713L184.592 221.648L184.651 215.52L88.9816 214.584L88.9216 220.713Z" fill="#BBE2EB"/>
<path d="M88.8122 232.337L126.69 232.708L126.731 228.525L88.8531 228.154L88.8122 232.337Z" fill="#BBE2EB"/>
<path d="M108.706 142.502L167.055 143.072L167.518 95.8158L109.168 95.2451L108.706 142.502Z" fill="#8DCEDD"/>
<path d="M129.925 121.471L154.667 122.491L150.055 116.531L144.809 111.732C144.809 111.732 140.46 110.833 140.074 110.518C139.687 110.202 126.036 111.548 126.036 111.548L125.997 115.64L127.046 121.445L129.925 121.471Z" fill="#3660A1"/>
<path d="M145.706 115.557C145.706 115.557 152.229 117.006 152.263 113.59C152.298 110.175 151.543 107.711 151.543 107.711L149.035 109.596L145.706 115.557Z" fill="#EBECF2"/>
<path d="M130.006 113.222C130.006 113.222 125.329 113.955 124.571 111.923C123.814 109.89 126.346 99.9541 127.524 101.831C128.699 103.714 130.006 113.222 130.006 113.222Z" fill="#EBECF2"/>
<path d="M120.378 142.627L120.386 141.697C120.48 132.026 128.397 124.262 138.068 124.356C147.738 124.451 155.503 132.368 155.408 142.038L155.398 142.969L120.378 142.627Z" fill="#3660A1"/>
<path d="M127.175 108.368C127.114 114.471 131.994 121.491 138.099 121.552C144.205 121.612 149.219 114.689 149.279 108.584C149.34 102.481 144.439 97.4832 138.336 97.4253C132.231 97.3675 127.235 102.266 127.175 108.368Z" fill="#EBECF2"/>
<path d="M131.305 99.862C131.305 99.862 139.154 107.923 148.611 105.097L149.09 110.558C149.09 110.558 150.904 109.28 150.891 110.576C150.878 111.873 150.504 115.28 147.723 114.636L146.676 116.413L154.667 122.492C154.667 122.492 156.428 101.495 151.648 96.7778C146.868 92.0608 143.321 88.8163 133.006 92.8601L131.305 99.862Z" fill="#3660A1"/>
<path d="M133.009 92.8574C133.009 92.8574 119.883 96.4938 122.287 121.396L130.083 121.472L128.221 112.774C128.221 112.774 125.032 112.554 125.526 109.769C126.02 106.982 126.094 105.704 127.85 107.797C127.85 107.797 131.161 100.63 131.305 100.03C131.445 99.4333 133.009 92.8574 133.009 92.8574Z" fill="#3660A1"/>
<path d="M137.534 131.353C140.242 131.379 142.459 129.205 142.485 126.496L142.553 119.413L132.746 119.318L132.678 126.402C132.654 129.11 134.826 131.326 137.534 131.353Z" fill="#EBECF2"/>
<path d="M449.285 81.028L347.807 80.0342L346.085 256.014L473.036 257.257L474.545 103.164L449.285 81.028Z" fill="white"/>
<path d="M346.111 78.3008L449.937 79.3157L476.267 102.39L474.734 258.984L344.355 257.709L346.111 78.3008ZM472.823 103.934L448.633 82.7338L349.506 81.7636L347.818 254.314L471.34 255.524L472.823 103.934Z" fill="#3660A1"/>
<path d="M449.285 81.0283L449.054 104.666L474.545 103.164L449.285 81.0283Z" fill="#3660A1"/>
<path d="M398.615 122.816L453.567 123.354L453.627 117.225L398.675 116.687L398.615 122.816Z" fill="#8DCEDD"/>
<path d="M398.615 134.225L453.567 134.763L453.627 128.634L398.674 128.096L398.615 134.225Z" fill="#8DCEDD"/>
<path d="M391.299 135.452H367.217V111.37H391.299V135.452ZM368.629 134.043H389.89V112.782H368.629V134.043Z" fill="#F35450"/>
<path d="M378.476 125.463L371.487 119.069L372.439 118.028L378.434 123.51L393.35 108.594L394.349 109.59L378.476 125.463Z" fill="#F35450"/>
<path d="M398.615 158.091L453.567 158.629L453.627 152.5L398.675 151.962L398.615 158.091Z" fill="#8DCEDD"/>
<path d="M398.615 169.501L453.567 170.038L453.627 163.909L398.674 163.372L398.615 169.501Z" fill="#8DCEDD"/>
<path d="M391.299 170.73H367.217V146.648H391.299V170.73ZM368.629 169.318H389.89V148.058H368.629V169.318Z" fill="#F35450"/>
<path d="M378.476 160.739L371.487 154.344L372.439 153.303L378.434 158.788L393.35 143.869L394.349 144.866L378.476 160.739Z" fill="#F35450"/>
<path d="M398.615 193.363L453.567 193.9L453.627 187.771L398.674 187.234L398.615 193.363Z" fill="#8DCEDD"/>
<path d="M398.615 204.774L453.567 205.312L453.627 199.183L398.674 198.645L398.615 204.774Z" fill="#8DCEDD"/>
<path d="M391.299 206.004H367.217V181.922H391.299V206.004ZM368.629 204.594H389.89V183.334H368.629V204.594Z" fill="#F35450"/>
<path d="M378.476 196.012L371.487 189.62L372.439 188.579L378.434 194.061L393.35 179.143L394.349 180.142L378.476 196.012Z" fill="#F35450"/>
<path d="M398.615 228.637L453.567 229.175L453.627 223.046L398.674 222.508L398.615 228.637Z" fill="#8DCEDD"/>
<path d="M398.615 240.046L453.567 240.584L453.627 234.455L398.675 233.918L398.615 240.046Z" fill="#8DCEDD"/>
<path d="M391.299 241.281H367.217V217.199H391.299V241.281ZM368.629 239.869H389.89V218.609H368.629V239.869Z" fill="#F35450"/>
<path d="M378.476 231.29L371.487 224.895L372.439 223.854L378.434 229.336L393.35 214.42L394.349 215.416L378.476 231.29Z" fill="#F35450"/>
<path d="M51.0089 284.197L61.8889 291.788L78.372 291.604L77.9067 294.428L59.0887 300.102L49.2946 294.604L51.0089 284.197Z" fill="#0C3879"/>
<g opacity="0.18">
<path opacity="0.18" d="M169.225 247.344C191.215 225.354 191.215 189.701 169.225 167.711C147.235 145.721 111.582 145.721 89.5922 167.711C67.6023 189.701 67.6023 225.354 89.5922 247.344C111.582 269.333 147.235 269.334 169.225 247.344Z" fill="white"/>
</g>
<g opacity="0.17">
<path opacity="0.17" d="M151.698 170.427C139.908 163.609 126.275 162.863 114.42 167.219C122.82 166.673 131.468 168.521 139.303 173.051C160.364 185.233 167.563 212.183 155.379 233.244C150.015 242.518 141.788 249.099 132.465 252.527C146.647 251.602 160.122 243.845 167.774 230.62C179.958 209.559 172.759 182.609 151.698 170.427Z" fill="white"/>
</g>
<path d="M99.0857 259.956C70.1764 243.233 60.2613 206.11 76.9837 177.201C93.7061 148.292 130.829 138.377 159.738 155.099C188.648 171.821 198.563 208.945 181.84 237.851C165.118 266.763 127.995 276.678 99.0857 259.956ZM155.474 162.472C130.629 148.1 98.7254 156.621 84.3537 181.466C69.9819 206.31 78.5034 238.214 103.348 252.586C128.192 266.958 160.096 258.436 174.468 233.592C188.84 208.745 180.321 176.841 155.474 162.472Z" fill="#F35450"/>
<path d="M64.2369 315.813L64.1528 315.763C61.839 314.424 60.7452 311.984 61.7101 310.315L93.1566 255.951L101.623 260.85L70.1765 315.213C69.2115 316.883 66.5507 317.151 64.2369 315.813Z" fill="#F35450"/>
<path d="M100.526 262.651L91.4081 257.376C90.8086 257.029 90.6009 256.259 90.9506 255.66L92.4309 253.101C92.7779 252.502 93.5483 252.294 94.1478 252.644L103.266 257.918C103.866 258.265 104.073 259.033 103.724 259.635L102.243 262.193C101.894 262.793 101.126 262.998 100.526 262.651Z" fill="#002A69"/>
<path d="M97.6842 264.247L91.4396 260.634C91.0295 260.398 90.8875 259.869 91.1268 259.459L92.1417 257.705C92.3809 257.292 92.9068 257.153 93.317 257.392L99.5616 261.005C99.9717 261.244 100.114 261.77 99.8745 262.18L98.8596 263.934C98.6229 264.344 98.097 264.484 97.6842 264.247Z" fill="#002A69"/>
<path d="M57.2849 396.152L60.2587 397.664L64.0028 397.08C64.0028 397.08 64.5997 399.189 62.7644 399.476C60.9292 399.762 55.8178 399.797 55.8178 399.797L53.2148 399.983L53.8774 398.151L54.2271 396.628L57.2849 396.152Z" fill="#002152"/>
<path d="M39.5529 395.928L42.5293 397.479L46.2735 396.882C46.2735 396.882 46.8703 399.046 45.0351 399.338C43.1998 399.63 38.0884 399.669 38.0884 399.669L35.4854 399.861L36.148 397.981L36.4977 396.419L39.5529 395.928Z" fill="#002152"/>
<path d="M34.7781 252.679L40.1577 255.566L43.5784 256.728L43.1262 258.058C43.1262 258.058 46.0184 262.646 41.1884 263.759L40.9833 266.233L42.6161 270.6L36.006 270.902L33.3452 269.998L34.3811 266.322C34.3811 266.325 33.0454 255.907 34.7781 252.679Z" fill="#F4996F"/>
<path d="M36.6791 253.327C36.6791 253.327 34.0892 254.754 34.0077 255.932C33.9262 257.11 38.3276 260.034 38.3276 260.034L38.0042 260.983L34.6729 259.853C34.6729 259.853 33.2583 261.491 34.6545 262.39L36.1795 262.908L34.3837 266.326L27.2451 260.507L27.3608 257.05C27.3582 257.05 35.0279 246.617 36.6791 253.327Z" fill="#002868"/>
<path d="M41.1884 263.76L38.6353 263.91L33.8921 258.441C33.8921 258.441 32.3907 260.442 35.7457 263.729L34.9228 265.293L34.3811 266.321L37.6125 267.42L40.9807 266.508L41.1884 263.76Z" fill="#DE8B65"/>
<path d="M39.8947 255.403C39.8947 255.403 39.0218 255.056 39.0034 256.26L38.5932 257.201C38.5932 257.201 40.5021 255.831 39.8947 255.403Z" fill="#5B628C"/>
<path d="M32.693 319.946L34.1313 358.287C34.1313 358.287 27.4213 372.185 36.5266 398.066L39.8816 397.587L45.1533 335.762C45.1533 335.764 41.3198 315.634 32.693 319.946Z" fill="#002152"/>
<path d="M54.9817 281.97L57.3349 301.49L63.8057 325.214L31.2154 321.859L30.7763 300.296L27.2425 285.443C26.5957 283.857 24.8157 276.758 25.9778 275.499L29.4775 271.434L32.7877 268.736L41.801 269.146L48.0325 270.585L50.9326 272.11C52.2893 272.822 53.2595 274.097 53.5882 275.594L54.9817 281.97Z" fill="#002A69"/>
<path d="M60.0116 321.373L59.0519 359.222L57.1351 397.536L53.7801 398.004C53.7801 398.004 45.1534 376.978 48.5084 357.821L43.2366 334.925C43.2366 334.925 38.8851 326.511 38.4039 322.772C38.4039 322.772 44.1937 319.972 60.0116 321.373Z" fill="#002A69"/>
<path d="M60.2114 324.737L38.4039 322.341L35.049 306.523L36.9657 322.82L59.7302 325.936L60.2114 324.737Z" fill="#002152"/>
<path d="M34.0919 267.465L41.7589 267.226L43.986 270.178L33.6107 269.142L34.0919 267.465Z" fill="#EDF6FB"/>
<path d="M35.049 300.892L27.1584 282.079C26.2592 279.936 26.5905 277.473 28.0235 275.643L30.0165 273.095L27.8605 279.326L35.049 301.851" fill="#0C3879"/>
<path d="M56.136 304.128L60.2114 323.059V324.736L63.8057 325.215L58.7732 308.201L56.136 304.128Z" fill="#0C3879"/>
<path d="M44.1648 328.335L55.7942 327.87L55.0974 326.705L43.234 327.404L44.1648 328.335Z" fill="#0C3879"/>
<path d="M47.4303 270.979L69.222 282.169L89.5439 274.073L91.019 276.837L68.896 291.179L42.8475 284.706C42.8448 284.703 34.7466 274.51 47.4303 270.979Z" fill="#0C3879"/>
<path d="M89.8542 274.654L91.7447 273.949L92.7044 272.511L94.6343 272.931V275.385L90.7798 276.389L89.8542 274.654Z" fill="#F4996F"/>
<path d="M452.494 239.599L447.578 241.152L450.944 251.805L455.86 250.251L452.494 239.599Z" fill="#F35450"/>
<path d="M454.875 255.282L453.456 250.31L451.907 248.864L452.06 247.518C452.06 247.518 451.205 246.892 451.003 248.648L449.99 248.251L449.643 246.655L448.576 248.696L450.193 251.417L452.144 252.516L452.459 255.395L454.875 255.282Z" fill="#F4996F"/>
<path d="M497.681 274.668L501.693 292.776L510.648 320.168L507.22 320.184L486.932 280.602L497.681 274.668Z" fill="#002152"/>
<path d="M547.014 371.992L508.934 376.59L507.22 323.575L541.022 322.355L547.014 371.992Z" fill="#CBCFD6"/>
<path d="M542.475 322.609L504.154 321.002L502.059 370.953L540.38 372.56L542.475 322.609Z" fill="#E8ECF5"/>
<path d="M476.07 258.849L482.625 250.062L484.121 250.033C484.121 250.033 487.271 249.97 485.93 253.096C484.316 256.862 484.316 256.862 484.316 256.862L488.854 263.451L477.359 269.666L478.673 260.469C478.671 260.469 475.573 260.632 476.07 258.849Z" fill="#DC8A64"/>
<path d="M476.407 260.125C476.407 260.125 481.857 260.49 483.911 250.717C483.911 250.717 480.516 245.332 475.997 246.963C475.997 246.963 475.129 250.205 474.921 253.549L473.885 254.893C473.756 255.058 473.872 255.3 474.082 255.303L476.407 260.125Z" fill="#F4996F"/>
<path d="M459.729 396.053L459.595 398.901L458.133 398.832L458.199 397.407L457.528 397.376L457.46 398.801L453.742 398.625C451.991 398.401 451.481 396.752 451.481 396.752L454.265 396.884L455.617 396.192L456.219 395.885L459.729 396.053Z" fill="#002A69"/>
<path d="M490.066 396.592L489.95 399.048L488.691 398.987L488.749 397.76L488.17 397.733L488.113 398.961L484.907 398.811C483.398 398.619 482.959 397.2 482.959 397.2L485.36 397.313L486.524 396.716L487.042 396.45L490.066 396.592Z" fill="#002A69"/>
<path d="M492.982 319.639C492.982 319.639 495.716 323.956 490.921 330.495L491.352 355.329C491.352 355.329 497.368 360.916 489.924 397.535L486.806 397.621L480.779 361.3L472.082 326.696L481.687 319.46L492.982 319.639Z" fill="#002152"/>
<path d="M498.267 281.155L490.584 299.702L496.447 321.786L467.996 321.352L466.46 321.328L470.288 292.963L470.988 280.887L472.649 274.277L476.641 264.945L483.963 262.395L487.55 261.285L488.538 261.141L491.704 265.332C500.804 272.079 498.267 281.155 498.267 281.155Z" fill="#002A69"/>
<path d="M489.351 321.68L478.579 320.016L466.46 321.33L461.638 360.925L455.604 396.76H458.922C464.312 386.703 476.018 368.382 471.033 361.816L485.362 334.216C485.36 334.214 490.747 328.498 489.351 321.68Z" fill="#002A69"/>
<path d="M489.351 321.68L466.715 322.568L466.941 323.673L491.149 321.706L489.351 321.68Z" fill="#E6E6E6"/>
<path d="M489.874 304.813L493.721 322.164L491.872 321.694L489.874 304.813Z" fill="#0C3879"/>
<path d="M491.249 264.811L482.512 265.195L490.492 264.285L492.009 265.34L491.249 264.811Z" fill="#E6E6E6"/>
<path d="M477.911 246.924L478.197 250.013C478.197 250.013 479.288 251.412 479.294 252.538C479.294 252.538 483.614 249.987 480.122 255.624L480.135 258.435L482.846 259.263L486.364 258.964L488.215 250.245L488.186 244.345L477.921 244.571L477.911 246.924Z" fill="#0C3A7F"/>
<path d="M477.232 246.833L475.747 247.517L475.46 244.541L488.186 244.341L488.202 247.591L478.195 250.012C478.197 250.012 478.321 247.462 477.232 246.833Z" fill="#0C3A7F"/>
<path d="M475.747 247.52C475.747 247.52 478.184 247.51 478.197 250.013L480.353 247.902L480.214 246.955L479.26 245.74L476.42 246.295L475.747 247.52Z" fill="#0C3A7F"/>
<path d="M491.967 267.992L496.419 277.658L488.331 299.596L495.004 278.036L491.967 267.992Z" fill="#0C3879"/>
<path d="M478.011 281.056L473.83 286.044L470.041 306.061L467.996 321.353L467.817 322.676L466.46 321.329L470.288 292.964L470.988 280.888L472.552 274.667L472.649 274.278L479.88 269.322L478.158 267.368C478.158 267.368 482.409 268.993 482.528 270.968C482.646 272.948 481.75 279.655 478.011 281.056Z" fill="#E6E6E6"/>
<path d="M510.648 320.169L513.604 323.093L510.18 324.581L507.22 320.185L510.648 320.169Z" fill="#F4996F"/>
<path d="M477.774 266.752L462.803 269.665L453.858 251.802L451.542 253.39L457.042 277.842L478.266 279.423C479.762 279.533 481.197 278.799 481.968 277.516C481.991 277.477 482.018 277.435 482.041 277.393C485.233 271.966 483.932 265.429 477.774 266.752Z" fill="#0C3879"/>
<path d="M486.564 260.126L478.26 263.347V265.34L487.552 261.288L486.564 260.126Z" fill="#E6E6E6"/>
<defs>
<linearGradient id="paint0_linear_409_14135" x1="182.576" y1="161.42" x2="360.345" y2="161.42" gradientUnits="userSpaceOnUse">
<stop offset="5.4e-07" stop-color="white"/>
<stop offset="0.1838"/>
<stop offset="0.8274"/>
<stop offset="1" stop-color="white"/>
</linearGradient>
<linearGradient id="paint1_linear_409_14135" x1="182.576" y1="161.42" x2="360.345" y2="161.42" gradientUnits="userSpaceOnUse">
<stop offset="5.4e-07" stop-color="white"/>
<stop offset="0.1838" stop-color="white"/>
<stop offset="0.8274" stop-color="white"/>
<stop offset="1" stop-color="white"/>
</linearGradient>
</defs>
</svg>
