<svg width="1643" height="1582" viewBox="0 0 1643 1582" fill="none" xmlns="http://www.w3.org/2000/svg">
<path d="M9.33002 57.8734C4.48704 27.5021 27.9513 0 58.7062 0H1278.63C1303.2 0 1324.13 17.8583 1328 42.1265L1564.32 1524.13C1569.16 1554.5 1545.7 1582 1514.95 1582H295.025C270.45 1582 249.519 1564.14 245.649 1539.87L9.33002 57.8734Z" fill="url(#paint0_linear_287_2518)"/>
<path d="M622.301 897.44L320.896 523.615L56.2986 342.869L0 1143.12H464.234C527.49 1088.42 579.428 1021.32 616.132 945.657L622.301 897.44Z" fill="#932CB8"/>
<path d="M1246.72 341.298H55.2969V1094.97H1246.72V341.298Z" fill="#FBE1FF"/>
<path d="M1246.72 935.579H55.2969V1094.97H1246.72V935.579Z" fill="#C361E7"/>
<mask id="mask0_287_2518" style="mask-type:alpha" maskUnits="userSpaceOnUse" x="200" y="468" width="288" height="404">
<path d="M487.546 468.582H200.047V871.854H487.546V468.582Z" fill="white"/>
</mask>
<g mask="url(#mask0_287_2518)">
<path d="M334.107 788.023L304.728 795.339C304.728 795.339 261.392 801.699 222.863 808.026L233.804 897.787L435.849 909.985C435.849 909.985 441.229 849.004 434.641 821.872L388.837 804.284L347.19 793.717L337.705 788.023H334.107Z" fill="#A81CD8"/>
<path d="M269.941 869.869L222.861 808.026C222.861 808.026 161.508 992.742 161.508 1135.48H385.82L408.336 923.053L400.119 861.202L269.941 869.869Z" fill="#A81CD8"/>
<path d="M434.647 821.871C459.665 850.321 480.639 886.315 522.775 956.394L616.823 840.599L650.914 861.193C650.914 861.193 584.943 1010.53 525.011 1054.16C525.011 1054.16 433.191 1010.86 383.712 923.044C326.411 821.356 426.508 847.204 426.508 847.204L434.647 821.871Z" fill="#A81CD8"/>
<path d="M319.574 574.181C319.574 574.181 283.289 618.901 272.571 672.567C261.853 726.232 284.943 745.745 323.703 737.61L304.734 795.339L315.384 836.984L388.853 804.276L402.869 700.198L431.734 658.73L425.137 591.245L387.199 574.173H319.574V574.181Z" fill="#FFA698"/>
<path d="M360.538 660.098C379.875 662.759 392.427 622.153 403.968 633C415.517 643.837 401.217 685.575 376.482 695.332C376.482 695.332 357.788 720.809 372.087 734.899C386.378 748.989 412.218 712.133 412.218 712.133C412.218 712.133 436.405 722.971 450.705 690.99C464.996 659.009 448.503 635.703 448.503 635.703C448.503 635.703 488.086 600.469 473.795 571.199C459.504 541.93 423.768 552.227 423.768 552.227C423.768 552.227 412.775 498.561 389.685 493.147C366.595 487.724 360.546 508.326 360.546 508.326C360.546 508.326 340.721 491.863 315.394 498.992C282.794 508.166 286.881 559.821 286.881 559.821C286.881 559.821 256.286 561.992 257.331 587.469C258.659 619.788 296.922 608.883 296.922 608.883C296.922 608.883 309.971 585.838 319.593 574.19C319.593 574.19 324.819 591.802 343.505 596.685C362.2 601.567 374.846 588.009 376.491 601.567C378.127 615.108 336.891 656.846 360.538 660.098Z" fill="#20211B"/>
<path d="M362.636 714.279C351.069 727.373 323.696 737.611 323.696 737.611L311.949 773.359C355.353 755.671 362.636 714.279 362.636 714.279Z" fill="#FF4D4D"/>
<path d="M244.647 1137.13C244.595 1137.13 244.544 1137.13 244.493 1137.12C243.567 1137.04 242.89 1136.24 242.976 1135.32C252.221 1036.74 270.753 961.218 284.667 915.222C299.763 865.341 312.855 838.394 312.992 838.133C313.394 837.313 314.397 836.967 315.228 837.364C316.059 837.761 316.41 838.749 316.007 839.569C315.879 839.83 302.873 866.6 287.845 916.27C273.983 962.104 255.528 1037.37 246.309 1135.63C246.232 1136.49 245.495 1137.13 244.647 1137.13Z" fill="#20211B"/>
<path d="M440.07 706.888C407.162 681.791 416.329 649.016 423.697 622.677C426.953 611.037 430.029 600.047 429.146 591.287C427.921 579.216 419.294 577.746 408.37 575.896C395.552 573.725 379.591 571.014 377.02 546.508C375.538 532.342 368.693 521.361 356.672 513.868C340.462 503.757 318.323 502.752 309.215 505.919L308.102 502.802C318.083 499.33 341.139 500.268 358.463 511.081C371.203 519.029 378.777 531.168 380.353 546.17C382.667 568.184 396.024 570.448 408.935 572.644C419.782 574.486 430.997 576.386 432.479 590.966C433.43 600.334 430.269 611.62 426.927 623.564C419.456 650.266 410.983 680.541 442.118 704.278L440.07 706.888Z" fill="#2F3027"/>
<path d="M398.488 629.308L396.174 626.918C396.346 626.757 413.395 610.522 410.32 599.709C409.111 595.469 404.733 592.512 397.305 590.899C367.001 584.344 365.476 580.703 355.546 557.017C354.304 554.052 352.899 550.69 351.288 546.99C348.298 540.114 343.474 535.535 336.945 533.373C318.55 527.291 292.342 541.854 292.076 542.006L290.414 539.134C291.536 538.5 318.208 523.692 338.008 530.239C345.479 532.706 350.979 537.909 354.364 545.689C355.983 549.414 357.397 552.785 358.639 555.758C368.201 578.566 369.426 581.497 398.016 587.68C406.747 589.572 411.973 593.315 413.541 598.822C417.165 611.535 399.25 628.59 398.488 629.308Z" fill="#2F3027"/>
<path d="M336.441 690.517C304.732 718.807 294.305 690.222 294.305 690.222L336.441 690.517Z" fill="#FBE1FF"/>
<path d="M385.879 677.601C385.382 677.601 384.885 677.55 384.379 677.449C381.963 676.959 380.284 675.489 379.522 673.191C377.114 665.961 384.765 651.583 388.775 647.191C392.322 643.305 397.617 641.582 401.095 643.187C402.732 643.939 405.362 646.067 404.522 651.828C404.394 652.732 403.537 653.357 402.629 653.231C401.712 653.104 401.078 652.268 401.207 651.364C401.481 649.446 401.446 646.997 399.673 646.177C397.548 645.197 393.778 646.642 391.259 649.396C387.258 653.771 380.91 666.788 382.7 672.152C383.086 673.318 383.814 673.952 385.048 674.205C388.175 674.839 391.791 671.527 393.821 668.182C395.8 664.913 396.049 662.185 395.278 661.264C394.532 660.377 392.288 660.521 389.28 661.627C388.415 661.948 387.447 661.517 387.121 660.664C386.796 659.811 387.233 658.856 388.098 658.535C392.759 656.812 396.04 657.015 397.848 659.144C400.153 661.864 398.765 666.467 396.7 669.872C394.447 673.614 390.377 677.601 385.879 677.601Z" fill="#FF4D4D"/>
<path d="M253.316 827.725L222.857 808.026L74.8754 938.021L-121.352 975.662V1010.74L83.5373 1027.82C136.512 1003.07 181.878 971.751 224.451 938.013L253.316 827.725Z" fill="#A81CD8"/>
<path d="M180.567 970.915C180.73 970.155 199.253 884.018 217.768 826.729C217.768 826.729 156.629 901.191 127.738 1004.75C146.133 994.162 163.663 982.809 180.567 970.915Z" fill="#006E6A"/>
<path d="M488.816 873.104H198.789V467.34H488.816V873.104ZM201.308 870.612H486.28V469.832H201.308V870.612Z" fill="#2F3027"/>
</g>
<path d="M993.985 464.273H592.27V472.721H993.985V464.273Z" fill="#2F3027"/>
<path d="M765.201 534.487H592.27V536.979H765.201V534.487Z" fill="#2F3027"/>
<path d="M952.851 601.735H592.27V604.227H952.851V601.735Z" fill="#2F3027"/>
<path d="M868.022 668.976H592.27V671.468H868.022V668.976Z" fill="#2F3027"/>
<path d="M1022.26 736.216H592.27V738.708H1022.26V736.216Z" fill="#2F3027"/>
<path d="M772.561 803.465H592.27V805.957H772.561V803.465Z" fill="#2F3027"/>
<path d="M1108.05 870.705H592.27V873.197H1108.05V870.705Z" fill="#2F3027"/>
<path d="M487.546 428.423H200.047V430.915H487.546V428.423Z" fill="#2F3027"/>
<path d="M1198.48 982.098H103.523V990.545H1198.48V982.098Z" fill="#FBE1FF"/>
<path d="M1198.48 1035.78H103.523V1044.23H1198.48V1035.78Z" fill="#FBE1FF"/>
<path d="M1248.99 1097.78H55.0391V888.359H57.5666V1095.29H1246.46V344.12H527.781V341.628H1248.99V1097.78Z" fill="#2F3027"/>
<path d="M1360.49 998.479L1595.03 1030.37C1624.33 1034.62 1644.58 1061.49 1640.26 1090.39L1621.38 1216.69C1617.06 1245.58 1589.8 1265.55 1560.49 1261.29L1325.96 1229.4C1296.66 1225.14 1276.4 1198.27 1280.72 1169.38L1299.61 1043.08C1303.93 1014.19 1331.19 994.222 1360.49 998.479Z" fill="#FBE1FF"/>
<path d="M699.907 537.208L791.453 604.148L779.904 619.501L688.358 552.56L699.907 537.208Z" fill="#2F3027"/>
<path d="M343.462 288.486C417.499 190.064 558.441 169.456 658.266 242.441C758.092 315.427 778.994 454.397 704.968 552.819C630.932 651.24 489.989 671.859 390.164 598.863C290.338 525.868 269.426 386.908 343.462 288.486ZM689.68 541.649C757.454 451.545 738.316 324.345 646.928 257.514C555.539 190.694 426.524 209.562 358.74 299.656C290.967 389.759 310.104 516.96 401.493 583.79C492.881 650.611 621.906 631.743 689.68 541.649Z" fill="#FF4202"/>
<path d="M707.907 603.917L755.414 540.762L1249.64 902.151L1202.13 965.306L707.907 603.917Z" fill="#FF4202"/>
<path d="M1291.09 1069.28L1636.57 1114.46L1636.18 1117.34L1290.7 1072.15L1291.09 1069.28Z" fill="#2F3027"/>
<path d="M1349.33 1495.67L1343.44 1523.53L1346.51 1550.27L1308.59 1561.87L1304.67 1541.25L1312.51 1536.74L1304.67 1495.67L1344.09 1491.16L1349.33 1495.67Z" fill="#FFA698"/>
<path d="M1136.67 1489.69L1130.79 1517.55V1550.27L1092.87 1561.87L1088.95 1541.25L1096.79 1536.74L1092.01 1489.69L1131.44 1485.18L1136.67 1489.69Z" fill="#FFA698"/>
<path d="M1568.38 1263.3C1595.47 1263.3 1618.87 1243.35 1622.83 1216.89L1641.72 1090.6C1643.87 1076.24 1640.22 1061.92 1631.44 1050.28C1622.66 1038.62 1609.81 1031.05 1595.25 1028.93L1360.7 997.043C1358.03 996.66 1355.31 996.453 1352.62 996.453C1325.53 996.453 1302.12 1016.4 1298.18 1042.86L1279.29 1169.16C1277.14 1183.51 1280.79 1197.84 1289.57 1209.48C1298.35 1221.13 1311.2 1228.7 1325.76 1230.83L1560.31 1262.71C1562.97 1263.11 1565.7 1263.3 1568.38 1263.3ZM1352.61 999.354C1355.16 999.354 1357.74 999.54 1360.28 999.914L1594.84 1031.8C1608.61 1033.81 1620.78 1040.97 1629.09 1052.01C1637.39 1063.03 1640.85 1076.59 1638.82 1090.17L1619.93 1216.47C1616.19 1241.51 1594.03 1260.4 1568.39 1260.4C1565.85 1260.4 1563.27 1260.22 1560.72 1259.84L1326.17 1227.96C1312.4 1225.95 1300.23 1218.78 1291.92 1207.75C1283.62 1196.73 1280.16 1183.17 1282.19 1169.58L1301.08 1043.28C1304.82 1018.24 1326.97 999.354 1352.61 999.354Z" fill="#2F3027"/>
<path d="M1538.74 1090.29L1565.03 1093.86C1568.31 1094.34 1570.59 1097.35 1570.1 1100.59L1567.98 1114.74C1567.5 1117.97 1564.44 1120.21 1561.16 1119.73L1534.87 1116.16C1531.59 1115.68 1529.32 1112.67 1529.81 1109.44L1531.92 1095.29C1532.41 1092.05 1535.46 1089.81 1538.74 1090.29Z" fill="#FBE1FF"/>
<path d="M1562.05 1121.25C1565.73 1121.25 1568.91 1118.54 1569.44 1114.95L1571.55 1100.8C1571.84 1098.86 1571.35 1096.91 1570.16 1095.33C1568.96 1093.74 1567.21 1092.71 1565.24 1092.43L1538.94 1088.85C1538.59 1088.8 1538.22 1088.77 1537.85 1088.77C1534.17 1088.77 1530.99 1091.47 1530.46 1095.07L1528.35 1109.22C1527.75 1113.24 1530.58 1117 1534.66 1117.59L1560.96 1121.17C1561.31 1121.24 1561.68 1121.25 1562.05 1121.25ZM1537.86 1091.68C1538.08 1091.68 1538.31 1091.7 1538.53 1091.73L1564.83 1095.31C1566.02 1095.48 1567.07 1096.1 1567.8 1097.07C1568.53 1098.03 1568.83 1099.21 1568.65 1100.39L1566.54 1114.54C1566.21 1116.72 1564.28 1118.36 1562.05 1118.36C1561.83 1118.36 1561.6 1118.34 1561.38 1118.31L1535.08 1114.74C1532.62 1114.38 1530.9 1112.1 1531.26 1109.65L1533.38 1095.5C1533.71 1093.32 1535.63 1091.68 1537.86 1091.68Z" fill="#2F3027"/>
<path d="M1357.44 1066.45L1383.72 1070.02C1387 1070.5 1389.28 1073.51 1388.79 1076.74L1386.68 1090.89C1386.19 1094.13 1383.13 1096.37 1379.85 1095.89L1353.57 1092.32C1350.29 1091.84 1348.01 1088.83 1348.5 1085.59L1350.61 1071.44C1351.09 1068.21 1354.15 1065.97 1357.44 1066.45Z" fill="#FBE1FF"/>
<path d="M1380.73 1097.41C1384.41 1097.41 1387.59 1094.71 1388.12 1091.11L1390.23 1076.95C1390.52 1075 1390.02 1073.06 1388.84 1071.47C1387.64 1069.89 1385.9 1068.86 1383.92 1068.57L1357.62 1064.99C1357.27 1064.95 1356.9 1064.92 1356.53 1064.92C1352.86 1064.92 1349.68 1067.62 1349.15 1071.22L1347.03 1085.37C1346.43 1089.39 1349.26 1093.14 1353.34 1093.73L1379.64 1097.31C1379.99 1097.38 1380.36 1097.41 1380.73 1097.41ZM1356.54 1067.84C1356.76 1067.84 1356.99 1067.86 1357.21 1067.89L1383.51 1071.46C1384.7 1071.64 1385.75 1072.26 1386.48 1073.22C1387.21 1074.19 1387.51 1075.37 1387.33 1076.55L1385.22 1090.71C1384.89 1092.89 1382.96 1094.53 1380.73 1094.53C1380.51 1094.53 1380.28 1094.51 1380.06 1094.48L1353.76 1090.9C1351.3 1090.55 1349.58 1088.27 1349.94 1085.82L1352.06 1071.67C1352.39 1069.48 1354.32 1067.84 1356.54 1067.84Z" fill="#2F3027"/>
<path d="M1224.31 904.04L1290.96 937.863C1290.96 937.863 1317.77 1072 1341.43 1236.45C1365.08 1400.91 1368.63 1517.55 1368.63 1517.55H1304.75C1304.75 1517.55 1258.62 1315.77 1244.41 1245.78C1230.21 1175.8 1179.35 1039.33 1179.35 1039.33C1179.35 1039.33 1169.89 1241.11 1171.08 1301.77C1172.26 1362.42 1166.35 1517.55 1166.35 1517.55H1094.19C1094.19 1517.55 1087.87 1432.4 1076.84 1319.27C1065.8 1206.13 1058.31 1005.52 1063.82 937.863L1153.73 894.709L1215.3 905.21L1224.31 904.04Z" fill="#A81CD8"/>
<path d="M1452.63 922.308C1452.63 922.308 1436.07 935.916 1433.71 948.747C1431.34 961.578 1435.28 974.016 1438.04 974.409C1440.81 974.802 1445.53 974.409 1445.53 974.409C1445.53 974.409 1445.93 986.07 1457.76 991.517C1469.59 996.965 1472.75 987.634 1484.18 989.187C1495.61 990.741 1504.68 980.633 1507.84 970.132C1510.99 959.631 1507.44 939.032 1486.55 922.308H1452.63Z" fill="#FFA698"/>
<path d="M1128.38 1542.94C1140.18 1532.97 1148.37 1566.58 1147.66 1581.88H1003.77C1003.77 1581.88 1004.47 1567.28 1029.16 1561.02C1053.85 1554.75 1063.54 1549.2 1071.98 1542.94C1080.42 1536.67 1091 1528.33 1097.35 1532.5C1103.7 1536.67 1098.76 1545.02 1098.76 1545.02C1098.76 1545.02 1118.51 1551.27 1128.38 1542.94Z" fill="#20211B"/>
<path d="M1344.1 1542.94C1355.9 1532.97 1364.09 1566.58 1363.38 1581.88H1219.49C1219.49 1581.88 1220.19 1567.28 1244.88 1561.02C1269.57 1554.75 1279.26 1549.2 1287.7 1542.94C1296.13 1536.67 1306.72 1528.33 1313.07 1532.5C1319.42 1536.67 1314.47 1545.02 1314.47 1545.02C1314.47 1545.02 1334.23 1551.27 1344.1 1542.94Z" fill="#20211B"/>
<path d="M1528.27 1022.16L1531.21 1022.08C1530.7 1004.18 1524.31 961.962 1476.47 956.347C1432.56 951.185 1415.55 984.999 1409.32 1005.61L1412.14 1006.43C1418.11 986.7 1434.34 954.312 1476.12 959.228C1521.7 964.567 1527.77 1005.01 1528.27 1022.16Z" fill="#2F3027"/>
<path d="M1063.82 937.863L1089.43 925.572L1290.96 937.863L1062.2 975.884C1062.48 960.792 1063 947.862 1063.82 937.863Z" fill="#79109E"/>
<path d="M982.196 399.002C982.196 399.002 1009.8 471.702 1034.25 485.31C1058.71 498.918 1078.02 472.872 1078.02 472.872L1088.67 506.312L1153.73 488.427L1111.14 420.78C1111.14 420.78 1069.74 383.85 1063.42 381.903C1057.11 379.957 995.2 372.966 995.2 372.966L982.196 399.002Z" fill="#FFA698"/>
<path d="M1127.31 377.233C1134.01 369.849 1141.11 352.741 1135.58 344.187C1130.06 335.632 1116.26 343.41 1111.92 330.185C1107.58 316.971 1099.69 289.755 1073.66 284.308C1047.64 278.86 1037.78 309.577 1023.98 304.139C1010.18 298.692 986.524 291.702 977.848 308.023C969.172 324.345 983.762 337.186 972.722 357.008C961.682 376.83 944.729 383.054 951.431 399.779C958.132 416.493 993.425 425.352 993.425 425.352C993.425 425.352 995.998 409.493 1001.91 393.948C1007.83 378.393 1022.03 377.233 1023.2 390.841C1024.39 404.449 1018.87 432.274 1033.07 425.362C1047.27 418.45 1041.74 385.01 1061.06 395.905C1080.39 406.789 1058.7 435.952 1073.67 447.229C1088.66 458.507 1111.13 455.39 1110.74 434.791C1110.74 434.791 1137.16 434.398 1142.29 416.906C1147.42 399.395 1127.31 377.233 1127.31 377.233Z" fill="#20211B"/>
<path d="M1084.52 461.595L1081.83 484.868L1078.01 472.872L1084.52 461.595Z" fill="#FF4D4D"/>
<path d="M1278.34 484.868C1256.59 471.299 1204.21 479.863 1143.13 501.642C1068.79 528.15 1037.8 530.411 1001.52 580.959C965.242 631.497 947.102 699.154 878.491 701.484C809.88 703.814 765.711 618.283 765.711 618.283L738.107 641.615C738.107 641.615 761.772 788.579 869.027 809.571C976.282 830.563 1040.95 766.023 1040.95 766.023L1063.82 937.863H1290.96C1290.96 937.863 1326.45 863.216 1328.02 739.584C1328.02 739.584 1419.51 830.563 1452.63 922.318H1486.55C1486.55 922.308 1498.38 622.166 1278.34 484.868Z" fill="#A81CD8"/>
<path d="M765.701 618.282C765.701 618.282 767.964 578.914 761.462 572.208C754.96 565.502 751.41 574.538 751.41 574.538C751.41 574.538 748.747 552.081 736.331 551.206C723.916 550.331 722.43 559.957 712.078 567.243C701.726 574.528 696.112 574.823 699.363 593.485C702.614 612.147 724.793 635.184 738.107 641.595L765.701 618.282Z" fill="#FFA698"/>
<path d="M1192.95 486.402C1192.95 486.402 1172.63 475.134 1141.1 468.369L1084.52 493.314L1071.12 526.665L1192.95 486.402Z" fill="#FBE1FF"/>
<path d="M1307.5 542.032C1307.5 542.032 1373.64 636.01 1363.56 778.913C1343.26 754.735 1328.02 739.574 1328.02 739.574C1328.02 739.574 1342.79 649.332 1307.5 542.032Z" fill="#79109E"/>
<path d="M972.729 357.017C983.769 337.186 969.179 324.354 977.855 308.033C986.531 291.701 1010.19 298.702 1023.99 304.149C1037.79 309.596 1047.64 278.88 1073.67 284.317C1099.7 289.764 1107.59 316.98 1111.93 330.195C1116.26 343.409 1130.07 335.642 1135.59 344.196C1141.12 352.75 1134.02 369.858 1127.31 377.242C1127.31 377.242 1139.52 390.703 1142.49 404.92C1132.95 412.953 1121.43 416.877 1112.38 406.159C1093.21 383.437 1085.33 370.832 1071.13 368.678C1056.93 366.525 1050.55 389.199 1036.33 368.678C1022.11 348.158 1021.14 328.336 1009.37 334.619C998.907 340.204 983.41 380.182 958.039 376.407C962.547 371.127 968.142 365.247 972.729 357.017Z" fill="#2F3027"/>
<path d="M1115.75 676.991C1100.64 751.009 1065.34 786.14 1045.54 800.564L1040.94 766.023C1092.96 722.928 1115.75 676.991 1115.75 676.991Z" fill="#79109E"/>
<path d="M887.408 747.489C900.412 747.489 913.935 745.375 927.926 741.127C950.345 734.333 971.905 718.798 992.02 694.965C1008.04 675.978 1023.18 651.692 1037.05 622.785C1060.61 573.624 1072.44 527.461 1072.56 526.999L1069.71 526.301C1069.59 526.763 1057.82 572.69 1034.37 621.596C1012.81 666.569 976.692 723.331 927.079 738.364C854.329 760.409 797.296 724.884 752.738 629.786L750.065 631.005C768.964 671.328 789.397 700.274 812.544 719.496C834.992 738.128 860.063 747.489 887.408 747.489Z" fill="#FBE1FF"/>
<path d="M1274.97 1333.22C1293.39 1424.81 1343.16 1488.41 1368.58 1515.98C1368.62 1517.01 1368.63 1517.55 1368.63 1517.55H1304.75C1304.75 1517.55 1258.62 1315.77 1244.41 1245.78C1230.21 1175.79 1179.35 1039.33 1179.35 1039.33H1215.29C1215.3 1039.33 1249.79 1207.99 1274.97 1333.22Z" fill="#79109E"/>
<path d="M1228.9 1035.59L1229.04 1038.49L1179.35 1040.82L1179.21 1037.92L1228.9 1035.59Z" fill="#FBE1FF"/>
<path d="M1062.4 966.721L1075.74 961.529C1075.74 961.529 1075.88 1103.66 1086.01 1225.46C1096.14 1347.26 1103 1441.03 1115.75 1468.1C1122.02 1481.41 1129.85 1501.04 1136.19 1517.55H1094.19C1094.19 1517.55 1087.87 1432.4 1076.83 1319.27C1067.08 1219.36 1060.1 1051.26 1062.4 966.721Z" fill="#79109E"/>
<path d="M1500.11 955.246L1506.81 964.105L1508.36 967.989C1508.36 967.989 1507.15 974.125 1504.24 978.038C1501.33 981.951 1479.86 974.262 1479.86 974.262C1479.86 974.262 1464.66 972.011 1464 972.325C1463.34 972.65 1451.9 969.906 1451.9 969.906L1450.44 950.252C1450.44 950.252 1465.48 947.675 1469.07 948C1472.67 948.324 1482.51 950.094 1486.66 950.743C1490.8 951.382 1500.11 955.246 1500.11 955.246Z" fill="#FFA698"/>
<path d="M685.076 425.569C687.829 425.569 690.062 423.366 690.062 420.652C690.062 330.49 615.667 257.141 524.218 257.141C521.466 257.141 519.232 259.343 519.232 262.057C519.232 264.771 521.466 266.973 524.218 266.973C610.172 266.973 680.09 335.917 680.09 420.652C680.09 423.366 682.314 425.569 685.076 425.569Z" fill="#FBE1FF"/>
<defs>
<linearGradient id="paint0_linear_287_2518" x1="786.826" y1="0" x2="786.826" y2="1582" gradientUnits="userSpaceOnUse">
<stop stop-color="#F3A9FF"/>
<stop offset="1" stop-color="#BD2BF0"/>
</linearGradient>
</defs>
</svg>
