<svg width="506" height="361" viewBox="0 0 506 361" fill="none" xmlns="http://www.w3.org/2000/svg">
<path d="M90.7902 359.118L22.7729 359.688C22.7729 359.688 -5.10442 321.903 0.828467 195.957C6.76136 70.0106 68.6417 4.72762 140.469 0.56444C228.093 -4.51355 235.974 26.0679 332.104 36.3692C546.285 59.3234 530.042 287.803 453.951 359.115H90.7902V359.118Z" fill="#FEEFDC"/>
<path d="M48.7292 129.966C48.7292 129.966 35.6024 108.244 4.1123 113.878C4.1123 113.876 25.3129 145.343 48.7292 129.966Z" fill="#3F9896"/>
<path d="M69.2268 135.697C69.2268 135.697 65.3169 92.1563 12.3359 77.0518C12.3359 77.054 21.3781 141.783 69.2268 135.697Z" fill="#7FC6A6"/>
<path d="M341.6 105.634L341.008 105.557L341.046 105.259C341.187 104.172 341.362 103.069 341.561 101.982L341.616 101.686L342.203 101.795L342.149 102.091C341.949 103.167 341.779 104.258 341.638 105.337L341.6 105.634ZM342.761 99.169L342.18 99.0283L342.251 98.7377C342.511 97.655 342.804 96.5767 343.119 95.5348L343.205 95.2488L343.777 95.4213L343.691 95.7073C343.378 96.7379 343.09 97.8048 342.831 98.8762L342.761 99.169ZM383.037 95.7777C382.547 95.7777 382.041 95.73 381.536 95.6369L381.241 95.5824L381.35 94.9945L381.645 95.049C382.114 95.1353 382.583 95.1784 383.037 95.1784H383.039C383.636 95.1784 384.221 95.1035 384.779 94.9536L385.067 94.8765L385.221 95.4553L384.933 95.5325C384.323 95.6937 383.686 95.7777 383.037 95.7777ZM378.601 94.6109L378.354 94.4429C377.426 93.8164 376.757 92.8743 376.369 91.6463L376.279 91.3602L376.848 91.1786L376.939 91.4647C377.286 92.5633 377.875 93.3964 378.689 93.948L378.937 94.116L378.601 94.6109ZM387.7 94.116L387.31 93.662L387.537 93.4668C388.299 92.8085 388.972 91.9777 389.537 90.9948L389.687 90.736L390.204 91.0334L390.054 91.2921C389.455 92.3341 388.739 93.2171 387.924 93.9185L387.7 94.116ZM344.634 92.8811L344.074 92.6723L344.178 92.3931C344.571 91.3398 344.997 90.307 345.444 89.324L345.569 89.0516L346.113 89.2991L345.988 89.5715C345.546 90.543 345.126 91.5623 344.739 92.6019L344.634 92.8811ZM376.592 88.6113L375.995 88.575L376.013 88.2776C376.077 87.2288 376.279 86.1165 376.612 84.9725L376.696 84.6864L377.27 84.8544L377.186 85.1404C376.866 86.2414 376.671 87.3106 376.61 88.3139L376.592 88.6113ZM391.261 88.4728L390.684 88.3116L390.764 88.0233C391.05 87.0018 391.227 85.9281 391.292 84.8363L391.31 84.5389L391.907 84.5752L391.889 84.8726C391.821 86.0076 391.637 87.1199 391.34 88.1845L391.261 88.4728ZM347.31 86.9042L346.786 86.6159L346.932 86.3549C347.476 85.3697 348.057 84.4163 348.66 83.5174L348.825 83.27L349.322 83.6036L349.156 83.8511C348.562 84.7364 347.991 85.6762 347.453 86.6455L347.31 86.9042ZM378.224 82.3801L377.685 82.1213L377.814 81.8512C378.281 80.8751 378.835 79.899 379.458 78.9479L379.622 78.6982L380.12 79.0273L379.957 79.277C379.347 80.2032 378.807 81.1566 378.351 82.1077L378.224 82.3801ZM391.197 81.9057L391.152 81.6106C391.088 81.1906 391.009 80.7707 390.911 80.3666C390.759 79.7265 390.555 79.1022 390.303 78.512L390.186 78.2374L390.734 78.0036L390.852 78.2782C391.118 78.9002 391.331 79.5562 391.492 80.2282C391.592 80.6481 391.676 81.084 391.741 81.5221L391.787 81.8172L391.197 81.9057ZM350.916 81.4562L350.456 81.0771L350.647 80.8456C351.359 79.9807 352.112 79.1545 352.889 78.3895L353.103 78.1806L353.522 78.6074L353.309 78.8162C352.547 79.5653 351.805 80.3757 351.109 81.2247L350.916 81.4562ZM381.719 76.8981L381.264 76.5122L381.456 76.2829C382.164 75.4475 382.933 74.6349 383.747 73.8676L383.965 73.6633L384.375 74.0992L384.157 74.3035C383.361 75.0548 382.606 75.8516 381.912 76.6711L381.719 76.8981ZM355.523 76.8504L355.155 76.3782L355.391 76.1944C356.266 75.5111 357.187 74.8755 358.131 74.3035L358.387 74.1491L358.695 74.6599L358.439 74.8142C357.516 75.3726 356.616 75.9969 355.758 76.6643L355.523 76.8504ZM388.834 76.0082L388.643 75.7767C387.981 74.9708 387.19 74.2331 386.294 73.5884L386.051 73.4136L386.4 72.9278L386.643 73.1026C387.58 73.7768 388.41 74.5486 389.104 75.3953L389.294 75.6269L388.834 76.0082ZM361.049 73.4182L360.8 72.8756L361.072 72.7508C362.077 72.29 363.113 71.8746 364.159 71.5136L364.44 71.416L364.635 71.9813L364.354 72.0789C363.329 72.433 362.308 72.8416 361.322 73.2933L361.049 73.4182ZM386.407 72.3717L386.044 71.8973L386.282 71.7157C387.153 71.0528 388.076 70.4195 389.024 69.8338L389.278 69.6772L389.591 70.1857L389.337 70.3423C388.405 70.9166 387.5 71.5386 386.645 72.1901L386.407 72.3717ZM383.76 72.1243L383.486 72.004C382.531 71.5885 381.497 71.2435 380.413 70.9779L380.123 70.9075L380.266 70.3264L380.556 70.3968C381.674 70.6715 382.742 71.0279 383.726 71.4569L384.001 71.5772L383.76 72.1243ZM367.198 71.2367L367.059 70.6556L367.35 70.5875C368.434 70.3287 369.534 70.1267 370.62 69.9814L370.917 69.9428L370.997 70.5353L370.699 70.5739C369.634 70.7146 368.554 70.9144 367.49 71.1686L367.198 71.2367ZM377.503 70.4672L377.206 70.4377C376.152 70.3332 375.056 70.2924 373.949 70.3173L373.65 70.3242L373.636 69.7271L373.936 69.7203C375.063 69.6931 376.186 69.7362 377.263 69.8429L377.56 69.8724L377.503 70.4672ZM391.93 68.9054L391.676 68.3651L391.945 68.238C392.93 67.7749 393.971 67.3618 395.043 67.0122L395.327 66.9192L395.513 67.4867L395.229 67.5797C394.182 67.9225 393.163 68.3243 392.202 68.7783L391.93 68.9054ZM421.347 68.2993L421.059 68.2199C420.009 67.927 418.938 67.6592 417.877 67.4186L417.584 67.3527L417.716 66.7693L418.006 66.8352C419.079 67.0758 420.158 67.3482 421.218 67.6433L421.506 67.7227L421.347 68.2993ZM414.951 66.8352L414.656 66.7852C413.566 66.5991 412.475 66.4447 411.409 66.3267L411.112 66.2926L411.177 65.6979L411.475 65.7319C412.55 65.8523 413.654 66.0089 414.754 66.195L415.049 66.245L414.951 66.8352ZM398.087 66.8057L397.965 66.22L398.257 66.1587C399.312 65.9385 400.418 65.766 401.541 65.6434L401.838 65.6116L401.904 66.2064L401.607 66.2382C400.502 66.3585 399.416 66.5287 398.38 66.7444L398.087 66.8057ZM408.442 66.077L408.143 66.0634C407.038 66.0112 405.954 65.9975 404.868 66.0248L404.569 66.0316L404.553 65.4346L404.852 65.4278C405.95 65.4005 407.05 65.4142 408.17 65.4664L408.467 65.48L408.442 66.077Z" fill="#3F9896"/>
<path d="M431.48 78.4281L434.898 75.4181C434.898 75.4181 449.835 75.7654 450.055 75.6905C450.275 75.6133 458.346 72.8121 458.346 72.8121L448.907 71.0029L433.061 71.1868L431.48 78.4281Z" fill="#FF424D"/>
<path d="M430.541 63.1006L458.346 72.8094L433.058 71.1841L430.541 63.1006Z" fill="#FD7583"/>
<path d="M434.897 75.4178L437.524 84.0166L458.346 72.8096L434.897 75.4178Z" fill="#FD7583"/>
<path d="M306.878 114.736C304.023 113.143 300.972 112.058 297.847 111.479L296.062 103.809L290.69 104.061L285.317 104.313L284.256 112.115C281.201 112.982 278.264 114.35 275.569 116.203L268.888 112.044L265.266 116.026L261.644 120.007L266.407 126.277C264.815 129.135 263.731 132.188 263.153 135.316L255.489 137.103L255.741 142.48L255.993 147.858L263.788 148.92C264.654 151.978 266.021 154.918 267.872 157.614L263.717 164.302L267.695 167.927L271.673 171.552L277.937 166.785C280.792 168.379 283.843 169.464 286.968 170.043L288.753 177.713L294.126 177.461L299.498 177.209L300.56 169.407C303.615 168.54 306.552 167.171 309.246 165.319L315.927 169.477L319.549 165.496L323.171 161.514L318.408 155.245C320 152.387 321.084 149.333 321.663 146.205L329.326 144.419L329.074 139.041L328.823 133.664L321.028 132.601C320.161 129.544 318.794 126.604 316.943 123.907L321.098 117.22L317.12 113.595L313.142 109.969L306.878 114.736ZM307.332 154.361C299.827 162.611 287.063 163.21 278.822 155.699C270.58 148.187 269.981 135.412 277.486 127.162C284.99 118.913 297.754 118.314 305.996 125.825C314.238 133.337 314.836 146.112 307.332 154.361Z" fill="#7FC6A6"/>
<path d="M265.835 64.9397C264.125 63.782 262.263 62.933 260.326 62.4018L259.617 57.4782L256.222 57.3465L252.826 57.2148L251.738 62.0681C249.767 62.4495 247.846 63.1509 246.05 64.1724L242.07 61.1919L239.575 63.5027L237.08 65.8136L239.741 70.0176C238.584 71.7292 237.736 73.5929 237.203 75.5315L232.284 76.242L232.152 79.6402L232.021 83.0383L236.869 84.1279C237.25 86.1006 237.951 88.0233 238.972 89.8211L235.994 93.805L238.303 96.302L240.611 98.799L244.812 96.1362C246.522 97.2939 248.384 98.1429 250.32 98.6741L251.03 103.598L254.425 103.729L257.82 103.861L258.909 99.0078C260.88 98.6264 262.801 97.925 264.597 96.9035L268.577 99.884L271.072 97.5732L273.567 95.2623L270.906 91.0583C272.063 89.3467 272.911 87.483 273.442 85.5444L278.361 84.8339L278.493 81.4357L278.624 78.0375L273.775 76.9479C273.394 74.9753 272.693 73.0526 271.673 71.2548L274.651 67.2709L272.342 64.7739L270.033 62.2769L265.835 64.9397ZM263.98 89.9074C258.812 94.6948 250.744 94.3815 245.961 89.2082C241.178 84.0349 241.491 75.9605 246.66 71.1731C251.829 66.3856 259.896 66.6989 264.679 71.8722C269.462 77.0456 269.149 85.1199 263.98 89.9074Z" fill="#F7AB48"/>
<path d="M84.4153 59.7838C92.2465 59.3706 119.078 58.2379 137.428 60.9596C139.809 61.3138 141.324 58.4581 139.678 56.7011C138.714 55.6751 137.072 54.8374 134.31 54.6445C134.31 54.6445 135.262 37.4992 122.321 36.3619C107.48 35.0589 107.301 51.9046 107.301 51.9046C107.301 51.9046 100.556 45.4941 95.6914 53.6207C95.6914 53.6207 87.2842 48.7561 83.0432 57.7408C82.5806 58.7214 83.3335 59.8405 84.4153 59.7838Z" fill="white"/>
<path d="M479.687 195.33C474.368 195.026 461.904 194.492 451.065 195.407C446.582 195.786 442.71 192.2 442.813 187.698C442.853 185.855 443.513 183.712 445.223 181.283C451.803 171.931 463.24 180.863 463.131 185.61C463.131 185.61 465.444 178.462 472.466 179.712C479.489 180.963 477.006 191.362 477.006 191.362C477.006 191.362 479.272 190.883 480.843 191.957C482.386 193.01 481.553 195.437 479.687 195.33Z" fill="white"/>
<path d="M69.1865 348.059V160.4C69.1865 151.484 75.3757 144.256 83.0095 144.256H394.559C402.193 144.256 408.382 151.484 408.382 160.4V348.059H69.1865Z" fill="#4CB7D8"/>
<path d="M77.126 337.965V168.342C77.126 156.172 80.5006 154.994 84.6623 154.994H392.905C397.067 154.994 400.441 158.254 400.441 162.276V337.968H77.126V337.965Z" fill="#DCF4FF"/>
<path d="M76.7197 316.096L77.5294 315.286V162.276C77.5294 158.485 80.7294 155.401 84.662 155.401V154.588C80.2826 154.588 76.7197 158.036 76.7197 162.274V316.096Z" fill="#21111D"/>
<path d="M400.727 337.966H400.158V162.277C400.158 158.42 396.903 155.281 392.905 155.281H84.6621V154.711H392.905C397.218 154.711 400.727 158.105 400.727 162.277V337.966Z" fill="#21111D"/>
<path d="M427.935 348.059H36.4531V358.837H427.935V348.059Z" fill="#128CB2"/>
<path d="M145.767 77.7871V216.688H42.418V100.644L64.6686 77.7871H145.767Z" fill="white"/>
<path d="M42.418 100.687L64.5393 77.7871V100.687H42.418Z" fill="#3AA1C9"/>
<path d="M74.6253 95.0751H119.712C120.358 95.0751 120.882 94.5507 120.882 93.9037C120.882 93.2568 120.358 92.7324 119.712 92.7324H74.6253C73.979 92.7324 73.4551 93.2568 73.4551 93.9037C73.4528 94.5507 73.9767 95.0751 74.6253 95.0751Z" fill="#3AA1C9"/>
<path d="M68.4769 104.16H125.86C126.506 104.16 127.03 103.636 127.03 102.989C127.03 102.342 126.506 101.817 125.86 101.817H68.4769C67.8305 101.817 67.3066 102.342 67.3066 102.989C67.3044 103.636 67.8305 104.16 68.4769 104.16Z" fill="#3AA1C9"/>
<path d="M53.2513 125.846H136.398C137.044 125.846 137.568 125.321 137.568 124.674C137.568 124.027 137.044 123.503 136.398 123.503H53.2513C52.6049 123.503 52.0811 124.027 52.0811 124.674C52.0788 125.321 52.6049 125.846 53.2513 125.846Z" fill="#3AA1C9"/>
<path d="M53.2513 136.101H136.398C137.044 136.101 137.568 135.577 137.568 134.93C137.568 134.283 137.044 133.759 136.398 133.759H53.2513C52.6049 133.759 52.0811 134.283 52.0811 134.93C52.0788 135.577 52.6049 136.101 53.2513 136.101Z" fill="#3AA1C9"/>
<path d="M53.2513 146.357H136.398C137.044 146.357 137.568 145.833 137.568 145.186C137.568 144.539 137.044 144.015 136.398 144.015H53.2513C52.6049 144.015 52.0811 144.539 52.0811 145.186C52.0788 145.833 52.6049 146.357 53.2513 146.357Z" fill="#3AA1C9"/>
<path d="M53.2513 158.056H136.398C137.044 158.056 137.568 157.532 137.568 156.885C137.568 156.238 137.044 155.714 136.398 155.714H53.2513C52.6049 155.714 52.0811 156.238 52.0811 156.885C52.0788 157.532 52.6049 158.056 53.2513 158.056Z" fill="#3AA1C9"/>
<path d="M53.2513 168.314H136.398C137.044 168.314 137.568 167.79 137.568 167.143C137.568 166.496 137.044 165.972 136.398 165.972H53.2513C52.6049 165.972 52.0811 166.496 52.0811 167.143C52.0788 167.79 52.6049 168.314 53.2513 168.314Z" fill="#3AA1C9"/>
<path d="M53.2513 203.502H136.398C137.044 203.502 137.568 202.977 137.568 202.33C137.568 201.684 137.044 201.159 136.398 201.159H53.2513C52.6049 201.159 52.0811 201.684 52.0811 202.33C52.0788 202.975 52.6049 203.502 53.2513 203.502Z" fill="#3AA1C9"/>
<path d="M53.2513 195.128H136.398C137.044 195.128 137.568 194.603 137.568 193.956C137.568 193.31 137.044 192.785 136.398 192.785H53.2513C52.6049 192.785 52.0811 193.31 52.0811 193.956C52.0788 194.603 52.6049 195.128 53.2513 195.128Z" fill="#3AA1C9"/>
<path d="M358.008 170.612H172.274V315.572H358.008V170.612Z" fill="white"/>
<path d="M350.325 178.611H203.209V185.991H350.325V178.611Z" fill="#D4EEF4"/>
<path d="M350.325 197.628H180.369V223.327H350.325V197.628Z" fill="#D4EEF4"/>
<path d="M350.325 222.493H180.369V307.387H350.325V222.493Z" fill="#DEF8FC"/>
<path d="M199.065 183.175C199.533 181.191 198.306 179.203 196.324 178.734C194.342 178.266 192.355 179.494 191.887 181.478C191.419 183.462 192.647 185.45 194.629 185.919C196.611 186.387 198.597 185.158 199.065 183.175Z" fill="#D4EEF4"/>
<path d="M185.475 185.714C187.356 184.934 188.25 182.775 187.47 180.892C186.691 179.008 184.534 178.114 182.652 178.894C180.77 179.674 179.877 181.833 180.656 183.717C181.436 185.6 183.593 186.494 185.475 185.714Z" fill="#D4EEF4"/>
<path d="M318.302 203.557H185.562V206.092H318.302V203.557Z" fill="white"/>
<path d="M318.302 211.747H185.562V214.283H318.302V211.747Z" fill="white"/>
<path d="M239.371 231.342H344.254C344.9 231.342 345.424 230.817 345.424 230.17C345.424 229.523 344.9 228.999 344.254 228.999H239.371C238.725 228.999 238.201 229.523 238.201 230.17C238.199 230.817 238.723 231.342 239.371 231.342Z" fill="#D4EEF4"/>
<path d="M239.371 238.463H344.254C344.9 238.463 345.424 237.938 345.424 237.291C345.424 236.644 344.9 236.12 344.254 236.12H239.371C238.725 236.12 238.201 236.644 238.201 237.291C238.199 237.938 238.723 238.463 239.371 238.463Z" fill="#D4EEF4"/>
<path d="M239.371 245.584H344.254C344.9 245.584 345.424 245.059 345.424 244.413C345.424 243.766 344.9 243.241 344.254 243.241H239.371C238.725 243.241 238.201 243.766 238.201 244.413C238.199 245.059 238.723 245.584 239.371 245.584Z" fill="#D4EEF4"/>
<path d="M239.371 259.828H344.254C344.9 259.828 345.424 259.304 345.424 258.657C345.424 258.01 344.9 257.485 344.254 257.485H239.371C238.725 257.485 238.201 258.01 238.201 258.657C238.199 259.304 238.723 259.828 239.371 259.828Z" fill="#D4EEF4"/>
<path d="M239.371 266.949H344.254C344.9 266.949 345.424 266.425 345.424 265.778C345.424 265.131 344.9 264.606 344.254 264.606H239.371C238.725 264.606 238.201 265.131 238.201 265.778C238.199 266.425 238.723 266.949 239.371 266.949Z" fill="#D4EEF4"/>
<path d="M239.371 274.07H344.254C344.9 274.07 345.424 273.546 345.424 272.899C345.424 272.252 344.9 271.728 344.254 271.728H239.371C238.725 271.728 238.201 272.252 238.201 272.899C238.199 273.546 238.723 274.07 239.371 274.07Z" fill="#D4EEF4"/>
<path d="M239.371 288.314H344.254C344.9 288.314 345.424 287.79 345.424 287.143C345.424 286.496 344.9 285.972 344.254 285.972H239.371C238.725 285.972 238.201 286.496 238.201 287.143C238.199 287.788 238.723 288.314 239.371 288.314Z" fill="#D4EEF4"/>
<path d="M239.371 295.435H344.254C344.9 295.435 345.424 294.911 345.424 294.264C345.424 293.617 344.9 293.093 344.254 293.093H239.371C238.725 293.093 238.201 293.617 238.201 294.264C238.199 294.911 238.723 295.435 239.371 295.435Z" fill="#D4EEF4"/>
<path d="M231.413 228.997H186.741V269.101H231.413V228.997Z" fill="#D4EEF4"/>
<path d="M231.413 279.623H186.741V295.436H231.413V279.623Z" fill="#D4EEF4"/>
<path d="M189.867 259.827L197.467 247.252L208.698 252.046L216.214 236.117L227.528 259.827H189.867Z" fill="#D4EEF4"/>
<path d="M204.529 242.982C206.276 242.258 207.105 240.254 206.381 238.506C205.658 236.758 203.656 235.928 201.91 236.652C200.164 237.376 199.334 239.38 200.058 241.128C200.781 242.876 202.783 243.706 204.529 242.982Z" fill="#D4EEF4"/>
<path d="M343.494 337.682H116.912V338.251H343.494V337.682Z" fill="#21111D"/>
<path d="M405.743 201.821L411.842 197.403L412.243 197.113L418.341 192.695L473.302 258.559C474.849 260.412 474.502 263.188 472.547 264.602L457.028 275.841C455.075 277.255 452.331 276.717 451.058 274.667L405.743 201.821Z" fill="#FF424D"/>
<path d="M405.864 203.968L420.451 193.404C421.412 192.707 421.628 191.361 420.932 190.398L415.815 183.32L397.742 196.409L402.859 203.487C403.557 204.449 404.902 204.665 405.864 203.968Z" fill="#F99247"/>
<path d="M409.725 201.628L419.564 194.503C421.301 193.245 421.691 190.807 420.435 189.071L416.119 183.101L415.518 183.536L419.834 189.507C420.85 190.914 420.534 192.884 419.128 193.904L409.29 201.029L409.725 201.628Z" fill="#21111D"/>
<path d="M411.517 185.117C427.438 169.182 427.438 143.345 411.517 127.41C395.596 111.475 369.783 111.475 353.862 127.41C337.942 143.345 337.942 169.182 353.862 185.117C369.783 201.053 395.596 201.053 411.517 185.117Z" fill="#D4EEF4"/>
<path d="M364.732 152.766C366.071 144.408 363.924 137.113 359.935 136.473C355.947 135.832 351.627 142.089 350.288 150.447C348.948 158.805 351.096 166.1 355.084 166.741C359.073 167.381 363.392 161.125 364.732 152.766Z" fill="#F3FFFE"/>
<path d="M419.648 193.956L419.08 194.433L473.748 259.693L474.316 259.217L419.648 193.956Z" fill="#21111D"/>
<path d="M388.468 121.408L388.677 120.696C388.588 120.668 379.66 118.106 371.502 121.697L371.801 122.375C379.705 118.898 388.382 121.383 388.468 121.408Z" fill="#21111D"/>
<path d="M389.259 126.468L389.468 125.755C389.379 125.728 380.451 123.165 372.293 126.756L372.592 127.435C380.498 123.957 389.173 126.443 389.259 126.468Z" fill="#21111D"/>
<path d="M406.591 189.319C388.35 202.531 362.863 198.438 349.664 180.18C336.465 161.923 340.554 136.413 358.795 123.201C377.036 109.99 402.523 114.083 415.722 132.34C428.921 150.6 424.835 176.11 406.591 189.319ZM420.975 128.538C405.677 107.377 376.138 102.635 354.994 117.946C333.852 133.257 329.114 162.824 344.412 183.987C359.709 205.148 389.249 209.89 410.392 194.579C431.536 179.266 436.274 149.699 420.975 128.538Z" fill="#FECC86"/>
<path d="M410.61 194.879C431.883 179.472 436.669 149.613 421.276 128.32C405.884 107.028 376.052 102.238 354.778 117.644C344.804 124.867 338.086 135.516 335.859 147.629L336.587 147.763C338.778 135.838 345.394 125.355 355.212 118.246C376.154 103.078 405.521 107.792 420.673 128.756C435.827 149.717 431.117 179.111 410.172 194.277C400.452 201.316 388.548 204.342 376.657 202.794L376.562 203.53C388.645 205.103 400.736 202.029 410.61 194.879Z" fill="#21111D"/>
<path d="M168.072 113.93L170.943 115.171L174.136 116.688C174.136 116.688 179.096 117.55 179.166 117.534C179.178 117.532 178.754 118.272 178.754 118.272C184.906 119.033 204.299 119.829 207.484 120.186C209.402 120.399 211.248 122.79 212.41 124.653L210.833 125.72C210.833 125.72 193.896 124.973 193.93 125.33C193.942 125.443 194.418 127.125 195.162 129.327C184.702 130.026 170.054 129.96 167.332 125.645C165.103 122.104 167.278 117.024 168.072 113.93Z" fill="#FE9F73"/>
<path d="M233.865 190.014L220.994 190.191L220.811 178.149L233.629 176.56L233.865 190.014Z" fill="#FE9F73"/>
<path d="M246.26 194.486L220.177 191.308L220.81 186.1C220.81 186.1 223.012 183.832 225.745 185.46C225.745 185.46 229.648 189.053 233.945 185.853L243.103 191.144C243.103 191.142 246.476 192.715 246.26 194.486Z" fill="#3AA1C9"/>
<path d="M219.955 193.13L246.905 196.415C247.052 196.433 247.186 196.329 247.204 196.181L247.361 194.894C247.379 194.746 247.275 194.612 247.127 194.594L220.177 191.31L219.955 193.13Z" fill="#472A31"/>
<path d="M236.656 187.416C235.615 188.665 233.529 191.175 232.2 192.771L230.422 192.555C231.608 191.13 234.096 188.138 235.334 186.653L236.656 187.416Z" fill="#D7E4F7"/>
<path d="M235.05 193.119L233.272 192.904C234.239 191.744 236.121 189.481 237.454 187.878L238.777 188.643C237.656 189.989 236.105 191.853 235.05 193.119Z" fill="#D7E4F7"/>
<path d="M193.84 147.076C193.84 147.076 182.762 147.258 174.998 146.992C172.506 146.906 170.288 147.083 168.975 146.79C163.57 145.59 162.239 128.705 168.376 118.359C174.513 108.014 195.983 139.776 195.983 139.776L193.84 147.076Z" fill="#FECC86"/>
<path d="M213.889 190.014L201.021 190.191L200.835 178.149L213.653 176.56L213.889 190.014Z" fill="#FE9F73"/>
<path d="M225.36 195.798L199.604 190.591L200.642 185.449C200.642 185.449 203.014 183.361 205.611 185.197C205.611 185.197 209.222 189.086 213.758 186.228L222.473 192.218C222.473 192.218 225.712 194.05 225.36 195.798Z" fill="#4CB7D8"/>
<path d="M199.24 192.391L225.852 197.771C225.997 197.8 226.14 197.705 226.17 197.56L226.426 196.288C226.455 196.143 226.36 196 226.215 195.971L199.603 190.591L199.24 192.391Z" fill="#683D46"/>
<path d="M216.336 188.001C215.202 189.165 212.923 191.503 211.476 192.99L209.721 192.636C211.016 191.306 213.728 188.52 215.08 187.136L216.336 188.001Z" fill="#D7E4F7"/>
<path d="M214.291 193.562L212.535 193.208C213.587 192.128 215.642 190.019 217.096 188.525L218.355 189.39C217.132 190.643 215.44 192.38 214.291 193.562Z" fill="#D7E4F7"/>
<path d="M205.769 124.478C205.769 124.478 232.982 126.219 233.767 129.363C234.552 132.51 236.804 165.949 235.121 180.214C235.121 180.214 224.795 180.924 219.858 179.728L218.656 144.942L210.505 144.007L191.833 121.541L205.769 124.478Z" fill="#FFB357"/>
<path d="M192.695 123.964C192.695 123.964 213.682 129.891 214.467 133.037C215.252 136.183 217.488 166.025 215.805 180.292C215.805 180.292 204.704 180.927 199.764 179.731L198.433 146.918L193.643 147.086L182.031 126.638L192.695 123.964Z" fill="#FECC86"/>
<path d="M206.428 180.677C201.522 180.677 199.774 179.937 199.69 179.901L199.581 179.853L198.293 146.848L200.32 147.806L200.159 148.148L198.697 147.458L199.951 179.597C200.482 179.781 203.026 180.516 209.036 180.237L209.054 180.616C208.093 180.659 207.22 180.677 206.428 180.677Z" fill="#21111D"/>
<path d="M201.828 173.561C201.304 171.541 201.154 151.823 201.147 150.986L201.526 150.983C201.528 151.188 201.683 171.491 202.193 173.468L201.828 173.561Z" fill="#21111D"/>
<path d="M221.33 145.685C218.842 144.88 215.415 144.759 215.381 144.757L215.392 144.378C215.426 144.378 218.905 144.501 221.445 145.325L221.33 145.685Z" fill="#21111D"/>
<path d="M226.93 180.607C222.739 180.607 219.843 179.919 219.813 179.912L219.673 179.878L218.457 144.707L220.008 145.958L219.77 146.253L218.863 145.522L220.04 179.577C220.682 179.715 223.48 180.269 227.295 180.228L227.3 180.607C227.177 180.607 227.052 180.607 226.93 180.607Z" fill="#21111D"/>
<path d="M221.65 174.294C221.128 171.241 221.625 150.573 221.647 149.694L222.026 149.703C222.022 149.919 221.509 171.212 222.024 174.231L221.65 174.294Z" fill="#21111D"/>
<path d="M185.506 147.428C180.673 147.428 174.876 147.265 168.362 146.774L168.392 146.397C187.803 147.862 200.821 146.413 200.95 146.397L200.993 146.772C200.905 146.783 195.103 147.428 185.506 147.428Z" fill="#21111D"/>
<path d="M192.15 113.374C192.525 113.367 207.599 119.857 207.599 119.857L204.56 125.675L196.101 123.816L192.15 113.374Z" fill="#FD7583"/>
<path d="M170.308 86.3318C170.308 86.3318 163.899 86.107 160.838 87.8436C156.27 90.4337 157.898 105.264 157.898 105.264C157.898 105.264 161.779 103.146 162.015 102.44C162.248 101.731 170.308 86.3318 170.308 86.3318Z" fill="#FD7583"/>
<path d="M168.753 118.522C168.76 118.525 168.769 118.527 168.776 118.529L173.491 119.61C173.586 119.632 173.681 119.571 173.702 119.478C173.722 119.385 173.665 119.29 173.57 119.267L168.855 118.186C168.76 118.164 168.665 118.225 168.644 118.318C168.624 118.404 168.674 118.491 168.753 118.522Z" fill="#21111D"/>
<path d="M166.29 115.717L169.162 116.958L172.355 118.475C172.355 118.475 177.315 119.337 177.385 119.322C177.396 119.319 176.972 120.059 176.972 120.059C183.125 120.82 202.518 121.617 205.702 121.973C207.621 122.186 209.467 124.577 210.628 126.44L209.052 127.507C209.052 127.507 192.115 126.76 192.149 127.117C192.161 127.23 192.637 128.912 193.381 131.114C182.921 131.813 168.273 131.748 165.551 127.432C163.322 123.889 165.497 118.809 166.29 115.717Z" fill="#F9B59D"/>
<path d="M164.104 87.4893C167.746 86.9853 177.36 86.6357 177.36 86.6357C177.36 86.6357 178.634 86.9694 178.228 86.781C188.844 88.6583 190.017 96.5375 190.017 96.5375L195.199 119.303L200.966 119.617C202.833 123.156 201.463 132.703 201.463 132.703L173.531 135.854C173.531 135.854 167.494 136.85 162.389 130.297C159.012 125.961 157.862 112.648 157.862 102.921C157.862 102.921 158.443 88.2747 164.104 87.4893Z" fill="#FD7583"/>
<path d="M242.337 105.118H215.741L206.468 128.758H233.061L242.337 105.118Z" fill="#E23E3D"/>
<path d="M206.468 128.758H207.856L217.129 105.118H215.741L206.468 128.758Z" fill="#CC2323"/>
<path d="M224.949 116.184C224.58 117.269 224.852 118.343 225.553 118.584C226.253 118.822 227.122 118.136 227.492 117.049C227.861 115.964 227.589 114.89 226.888 114.65C226.188 114.411 225.319 115.099 224.949 116.184Z" fill="#E2F2F1"/>
<path d="M197.677 126.85H207.613V128.759H197.677C197.151 128.759 196.723 128.332 196.723 127.803C196.723 127.279 197.149 126.85 197.677 126.85Z" fill="#CC2323"/>
<path d="M200.191 127.805H206.467V127.505H200.191V127.805Z" fill="#E23E3D"/>
<path d="M173.493 119.698C173.525 119.709 173.561 119.714 173.595 119.705C173.69 119.682 173.749 119.587 173.727 119.491C173.697 119.367 170.778 106.947 169.536 99.1318C169.52 99.0364 169.429 98.9706 169.334 98.9842C169.239 99.0001 169.173 99.0909 169.186 99.1862C170.431 107.015 173.353 119.448 173.382 119.573C173.398 119.632 173.441 119.678 173.493 119.698Z" fill="#21111D"/>
<path d="M191.559 119.494C191.595 119.508 191.636 119.51 191.674 119.497C191.767 119.467 191.819 119.367 191.79 119.274C191.747 119.136 187.415 105.382 186.51 100.626C186.492 100.531 186.399 100.467 186.304 100.486C186.209 100.504 186.145 100.597 186.163 100.692C187.073 105.468 191.409 119.24 191.452 119.379C191.468 119.438 191.509 119.476 191.559 119.494Z" fill="#21111D"/>
<path d="M173.951 93.3101C174.087 93.3237 174.225 93.3373 174.368 93.3464C174.449 93.3509 174.518 93.2919 174.524 93.2102C174.529 93.1285 174.472 93.0604 174.388 93.0535C168.313 92.6268 167.185 88.1753 167.176 88.1299C167.16 88.0527 167.086 87.9982 167.008 88.0119C166.929 88.0255 166.877 88.0958 166.888 88.1753C166.895 88.2207 168.015 92.6949 173.951 93.3101Z" fill="#21111D"/>
<path d="M192.797 116.211C192.876 116.241 192.967 116.211 193.013 116.134L194.196 114.102L194.18 114.034L190.189 96.5009C190.164 96.342 189.819 94.299 188.089 92.0471C186.467 89.936 183.267 87.2484 177.239 86.447C177.142 86.4334 177.053 86.5015 177.042 86.5991C177.028 86.6967 177.096 86.7853 177.194 86.7966C183.09 87.582 186.216 90.1925 187.799 92.2469C189.513 94.4715 189.84 96.5395 189.844 96.5599L189.846 96.5735L193.822 114.043L192.709 115.955C192.659 116.039 192.688 116.148 192.772 116.195C192.779 116.204 192.788 116.209 192.797 116.211Z" fill="#21111D"/>
<path d="M199.043 116.277C199.134 116.311 199.234 116.268 199.27 116.178C199.306 116.087 199.261 115.985 199.173 115.948L194.077 113.914C193.984 113.883 193.884 113.921 193.848 114.012C193.811 114.103 193.857 114.205 193.945 114.241L199.041 116.275C199.041 116.275 199.043 116.275 199.043 116.277Z" fill="#21111D"/>
<path d="M200.966 119.617C200.966 119.617 202.81 123.971 201.463 132.704L194.723 129.085L196.725 122.561L200.966 119.617Z" fill="#FD7583"/>
<path d="M167.4 119.854C167.421 119.861 167.443 119.866 167.468 119.866C167.72 119.859 192.676 119.108 200.841 119.782C201.043 120.318 201.964 123.089 201.705 128.16C201.7 128.258 201.775 128.342 201.873 128.347C201.97 128.351 202.052 128.276 202.059 128.179C202.351 122.431 201.179 119.659 201.129 119.544L201.086 119.446L200.982 119.437C192.912 118.744 167.713 119.503 167.459 119.509C167.362 119.512 167.285 119.593 167.289 119.691C167.289 119.768 167.335 119.832 167.4 119.854Z" fill="#21111D"/>
<path d="M178.811 73.3954L179.01 81.0793C179.01 81.0793 179.178 83.5468 177.026 83.9123L177.513 87.197C177.695 88.4182 176.994 89.61 175.828 90.0118C175.259 90.2093 174.576 90.3591 173.798 90.3795C171.331 90.4431 169.945 88.6248 169.716 87.7055C169.487 86.7838 169.988 82.3437 169.988 82.3437L169.857 80.1713L169.92 71.7383L178.811 73.3954Z" fill="#FE9F73"/>
<path d="M171.964 81.9414C171.964 81.9414 172.216 86.0705 177.384 86.3316L177.024 83.9095C177.026 83.9095 173.697 84.6677 171.964 81.9414Z" fill="#F07162"/>
<path d="M172.957 77.5791C172.933 77.5791 172.905 77.57 172.885 77.5519C172.844 77.5133 172.84 77.4475 172.878 77.4066C172.892 77.3907 174.268 75.9061 175.588 76.9163C175.634 76.9503 175.643 77.0162 175.609 77.0616C175.575 77.107 175.509 77.116 175.464 77.082C174.296 76.1876 173.082 77.4929 173.03 77.5473C173.012 77.5678 172.985 77.5791 172.957 77.5791Z" fill="#49263E"/>
<path d="M169.386 76.5914L171.617 76.9955L172.03 77.4018C172.03 77.4018 171.742 73.6835 171.304 72.9617C170.867 72.2398 169.386 76.5914 169.386 76.5914Z" fill="#4C222E"/>
<path d="M177.18 76.8497C177.15 76.8497 177.123 76.8384 177.101 76.8157C177.062 76.7748 177.064 76.709 177.107 76.6704C177.148 76.6341 178.108 75.7692 178.74 76.2845C178.783 76.3208 178.79 76.3844 178.756 76.4298C178.72 76.4752 178.656 76.4797 178.611 76.4457C178.114 76.0416 177.255 76.8157 177.246 76.8247C177.228 76.8406 177.203 76.8497 177.18 76.8497Z" fill="#49263E"/>
<path d="M175.046 77.9394C175.05 78.1097 174.916 78.2527 174.746 78.2572C174.576 78.2617 174.433 78.1278 174.429 77.9576C174.424 77.7873 174.558 77.6443 174.728 77.6398C174.901 77.6352 175.041 77.7692 175.046 77.9394Z" fill="black"/>
<path d="M178.316 77.5469C178.321 77.7172 178.187 77.8602 178.017 77.8647C177.847 77.8693 177.704 77.7354 177.699 77.5651C177.695 77.3949 177.829 77.2519 177.999 77.2473C178.171 77.2405 178.314 77.3767 178.316 77.5469Z" fill="black"/>
<path d="M172.497 77.899C172.524 78.9227 171.717 79.774 170.694 79.799C169.671 79.8262 168.821 79.0181 168.796 77.9943C168.768 76.9705 169.576 76.1216 170.599 76.0943C171.619 76.0693 172.47 76.8775 172.497 77.899Z" fill="#FE9F73"/>
<path d="M170.349 78.9838C169.964 78.9929 169.701 78.7114 169.608 78.4254C169.499 78.0871 169.605 77.7512 169.877 77.5718C170.281 77.3062 170.658 77.4606 170.85 77.5809C170.764 77.3721 170.635 77.2223 170.465 77.1337C170.095 76.943 169.646 77.0997 169.642 77.102C169.614 77.111 169.585 77.0974 169.576 77.0702C169.567 77.0429 169.58 77.0134 169.608 77.0043C169.628 76.9975 170.102 76.8296 170.512 77.0407C170.748 77.1632 170.914 77.3857 171.002 77.7035L171.052 77.8806L170.918 77.7534C170.9 77.7353 170.449 77.3176 169.936 77.6558C169.653 77.842 169.637 78.1689 169.707 78.3913C169.782 78.6229 169.993 78.8884 170.347 78.8794C170.351 78.8794 170.354 78.8794 170.358 78.8794C170.385 78.8794 170.41 78.8998 170.41 78.9293C170.413 78.9565 170.39 78.9815 170.36 78.9838C170.356 78.9838 170.351 78.9838 170.349 78.9838Z" fill="#F07162"/>
<path d="M176.189 79.994C176.167 79.994 176.146 79.9804 176.14 79.96C176.13 79.9328 176.144 79.9032 176.171 79.8942L177.194 79.5264L176.806 77.1066C176.802 77.0794 176.82 77.0521 176.849 77.0476C176.877 77.043 176.904 77.0612 176.908 77.0907L177.31 79.5945L176.208 79.9918C176.201 79.994 176.194 79.994 176.189 79.994Z" fill="#F07162"/>
<path d="M175.415 81.0178C175.447 81.011 177.449 80.9111 177.449 80.9111C177.449 80.9111 177.22 81.7465 176.474 81.7851C175.728 81.8237 175.415 81.0178 175.415 81.0178Z" fill="#FBFDFC"/>
<path d="M169.385 76.5911C169.385 76.5911 168.666 73 169.734 71.6266C170.803 70.2533 177.073 67.7358 177.86 68.3896C178.645 69.0411 177.899 69.8787 177.899 69.8787C177.899 69.8787 180.421 68.9957 181.054 71.2385C181.689 73.4812 176.243 74.5822 172.955 73.6106C172.955 73.6083 170.814 74.2962 169.385 76.5911Z" fill="#4C222E"/>
<path d="M168.664 135.33C169.079 135.486 169.469 135.609 169.827 135.704C171.986 136.278 173.495 136.04 173.558 136.029C173.653 136.013 173.719 135.922 173.703 135.827C173.687 135.731 173.597 135.665 173.501 135.681C173.486 135.684 171.991 135.917 169.9 135.359C167.972 134.844 165.128 133.529 162.525 130.188C159.259 125.995 158.066 113.088 158.036 103.309C158.036 103.211 157.957 103.132 157.86 103.132C157.762 103.132 157.683 103.211 157.683 103.309C157.712 113.143 158.925 126.141 162.246 130.404C164.432 133.209 166.791 134.619 168.664 135.33Z" fill="#21111D"/>
<path d="M223.943 325.499C223.804 325.395 220.72 322.905 220.477 322.789C218.209 324.321 218.511 328.469 216.012 330.153C217.633 330.496 218.783 330.714 219.244 330.779L220.631 333.864L220.822 334.672C220.913 335.056 221.362 335.333 221.827 335.294C222.292 335.256 222.593 334.913 222.505 334.529L222.584 334.868C222.675 335.251 223.124 335.528 223.589 335.49C224.054 335.451 224.355 335.108 224.267 334.725C224.358 335.108 224.807 335.385 225.272 335.347C225.737 335.308 226.038 334.965 225.95 334.582L225.87 334.243C225.961 334.627 226.41 334.904 226.875 334.865C226.902 334.863 226.929 334.859 226.954 334.856C226.984 334.852 227.013 334.845 227.043 334.838C227.483 334.734 227.669 334.536 227.714 334.325C227.807 333.887 227.14 331.467 226.85 330.323C226.419 328.541 225.607 326.759 223.943 325.499Z" fill="#F9956E"/>
<path d="M225.961 334.615C225.977 334.615 225.991 334.613 226.007 334.606C226.075 334.581 226.109 334.506 226.084 334.44L224.256 329.526C224.231 329.458 224.156 329.426 224.09 329.449C224.022 329.474 223.988 329.549 224.013 329.614L225.841 334.529C225.859 334.583 225.909 334.615 225.961 334.615Z" fill="#F07162"/>
<path d="M224.294 335.01C224.31 335.01 224.324 335.008 224.339 335.001C224.407 334.976 224.441 334.902 224.417 334.836L222.759 330.377C222.734 330.309 222.659 330.278 222.593 330.3C222.525 330.325 222.491 330.4 222.516 330.466L224.174 334.924C224.192 334.979 224.242 335.01 224.294 335.01Z" fill="#F07162"/>
<path d="M217.042 319.949C219.486 321.942 223.882 325.533 224.789 326.348C226.056 327.49 220.133 332.423 220.133 332.423C220.133 332.423 213.274 328.789 209.503 326.194L217.042 319.949Z" fill="#F9956E"/>
<path d="M222.564 334.918C222.579 334.918 222.593 334.915 222.609 334.908C222.677 334.883 222.711 334.809 222.686 334.743L221.352 331.161C221.327 331.093 221.253 331.061 221.187 331.083C221.119 331.108 221.085 331.183 221.11 331.249L222.443 334.831C222.461 334.886 222.511 334.918 222.564 334.918Z" fill="#F07162"/>
<path d="M241.837 330.84C241.88 330.84 241.923 330.824 241.959 330.795L244.685 328.432C244.762 328.364 244.772 328.248 244.704 328.169C244.635 328.091 244.52 328.082 244.44 328.15L241.714 330.513C241.637 330.582 241.628 330.697 241.696 330.777C241.733 330.82 241.785 330.84 241.837 330.84Z" fill="#21111D"/>
<path d="M186.667 335.271C186.667 335.271 188.837 328.695 211.945 329.916C238.362 331.312 256.356 326.747 261.032 335.271L224.426 348.873L186.667 335.271Z" fill="#FF424D"/>
<path d="M228.222 346.989C228.222 346.989 207.262 334.349 199.909 332.452C192.557 330.554 187.468 333.058 186.667 335.271C185.869 337.486 185.116 343.463 190.005 346.989C192.121 348.514 216.3 355.712 222.693 357.392C222.693 357.392 228.626 354.893 228.222 346.989Z" fill="#FF424D"/>
<path d="M223.784 344.56C223.847 344.56 223.908 344.528 223.942 344.469C223.994 344.38 223.967 344.267 223.879 344.215C203.808 332.206 197.233 331.614 196.961 331.593C196.856 331.584 196.77 331.664 196.761 331.766C196.754 331.868 196.831 331.957 196.934 331.966C196.999 331.97 203.73 332.595 223.686 344.535C223.718 344.551 223.75 344.56 223.784 344.56Z" fill="#21111D"/>
<path d="M218.432 359.437L227.912 354.604L223.353 345.645L215.62 349.588C215.62 349.588 202.833 349.479 202.223 350.078C201.608 350.675 215.461 360.951 218.432 359.437Z" fill="#FE9F73"/>
<path d="M221.686 357.777C218.964 354.774 217.483 350.42 217.02 348.872L215.617 349.587C215.617 349.587 202.83 349.478 202.22 350.077C201.608 350.677 215.46 360.953 218.431 359.439L221.686 357.777Z" fill="#472A31"/>
<path d="M219.475 346.989C219.475 346.989 240.435 334.349 247.788 332.452C255.14 330.554 260.23 333.058 261.03 335.271C261.829 337.486 262.581 343.463 257.692 346.989C255.576 348.514 229.703 356.171 223.31 357.851C223.31 357.851 219.074 354.893 219.475 346.989Z" fill="#FF424D"/>
<path d="M223.31 358.036C223.371 358.036 223.43 358.007 223.464 357.952C223.521 357.866 223.496 357.75 223.412 357.696C219.874 355.36 219.672 348.06 219.661 347.095C221.128 346.242 239.34 335.679 246.601 332.953C246.697 332.917 246.747 332.81 246.71 332.715C246.674 332.619 246.567 332.569 246.472 332.606C238.911 335.441 219.577 346.714 219.382 346.827L219.291 346.882V346.988C219.289 347.331 219.268 355.405 223.208 358.007C223.24 358.025 223.276 358.036 223.31 358.036Z" fill="#21111D"/>
<path d="M188.838 335.08C188.894 335.08 188.953 335.052 188.99 335.003C189.001 334.987 189.738 334.031 192.137 334.06C192.244 334.063 192.323 333.979 192.326 333.877C192.328 333.774 192.244 333.69 192.142 333.688C189.518 333.656 188.72 334.739 188.688 334.785C188.629 334.869 188.649 334.984 188.733 335.043C188.763 335.068 188.801 335.08 188.838 335.08Z" fill="#21111D"/>
<path d="M190.031 336.008C190.078 336.008 190.128 335.99 190.164 335.951C190.178 335.937 191.047 335.1 193.417 335.481C193.519 335.497 193.614 335.429 193.63 335.327C193.646 335.225 193.578 335.129 193.476 335.113C190.883 334.698 189.935 335.651 189.897 335.692C189.826 335.767 189.829 335.885 189.904 335.956C189.938 335.992 189.985 336.008 190.031 336.008Z" fill="#21111D"/>
<path d="M228.711 280.706C228.711 280.706 227.609 290.621 226.131 290.719C224.652 290.818 227.151 302.429 231.072 296.741C232.447 294.748 232.385 281.704 229.106 278.915C225.827 276.127 228.711 280.706 228.711 280.706Z" fill="#49263E"/>
<path d="M229.249 278.218C229.249 278.218 230.61 287.584 229.385 289.252C229.385 289.252 228.787 290.14 227.326 290.185L227.442 295.69L220.828 294.934L220.608 279.278C220.608 279.278 222.493 275.407 222.495 275.566C222.495 275.725 229.249 278.218 229.249 278.218Z" fill="#FE9F73"/>
<path d="M227.235 286.033C227.215 286.033 227.197 286.015 227.192 285.985C227.188 285.953 227.201 285.922 227.224 285.913C227.496 285.826 227.662 285.35 227.709 285.193C227.317 284.907 227.074 284.53 226.99 284.072C226.852 283.327 227.176 282.646 227.19 282.619C227.204 282.592 227.228 282.585 227.249 282.603C227.269 282.621 227.274 282.66 227.26 282.687C227.258 282.694 226.943 283.352 227.072 284.042C227.154 284.478 227.392 284.837 227.782 285.109L227.816 285.134L227.802 285.184C227.795 285.213 227.612 285.91 227.242 286.026C227.242 286.033 227.238 286.033 227.235 286.033Z" fill="#F07162"/>
<path d="M227.351 292.057L227.323 290.185C227.323 290.185 224.157 290.044 222.2 288.848C222.202 288.845 224.87 291.342 227.351 292.057Z" fill="#F07162"/>
<path d="M222.861 282.928C222.831 282.928 222.802 282.917 222.777 282.896C222.729 282.851 222.727 282.776 222.77 282.728C222.786 282.712 224.296 281.121 225.714 282.231C225.766 282.272 225.775 282.347 225.734 282.399C225.693 282.451 225.619 282.46 225.566 282.419C224.321 281.446 223.001 282.83 222.945 282.892C222.924 282.914 222.892 282.928 222.861 282.928Z" fill="#49263E"/>
<path d="M227.78 282.608C227.746 282.608 227.712 282.594 227.689 282.567C227.646 282.517 227.65 282.442 227.698 282.399C227.743 282.36 228.793 281.432 229.478 282.004C229.528 282.047 229.535 282.122 229.494 282.172C229.451 282.222 229.376 282.231 229.326 282.188C228.8 281.75 227.868 282.572 227.859 282.578C227.836 282.596 227.809 282.608 227.78 282.608Z" fill="#49263E"/>
<path d="M225.262 283.561C225.265 283.745 225.117 283.897 224.934 283.899C224.75 283.901 224.598 283.754 224.596 283.57C224.593 283.386 224.741 283.234 224.925 283.231C225.108 283.229 225.26 283.377 225.262 283.561Z" fill="black"/>
<path d="M229.163 283.516C229.165 283.7 229.018 283.852 228.834 283.854C228.65 283.856 228.498 283.709 228.496 283.525C228.494 283.341 228.641 283.189 228.825 283.187C229.009 283.184 229.158 283.332 229.163 283.516Z" fill="black"/>
<path d="M225.593 286.589C225.631 286.587 227.947 286.845 227.947 286.845C227.947 286.845 227.527 287.762 226.666 287.669C225.806 287.574 225.593 286.589 225.593 286.589Z" fill="#FBFDFC"/>
<path d="M226.382 278.398L224.776 276.169C224.776 276.169 227.357 277.785 227.142 277.851C226.926 277.917 226.382 278.398 226.382 278.398Z" fill="#FE9F73"/>
<path d="M221.566 277.341C221.566 277.341 222.026 280.835 230.386 281.538C230.386 281.538 232.327 276.369 226.258 274.642C220.187 272.915 219.636 277.575 219.758 277.532C219.881 277.489 221.566 277.341 221.566 277.341Z" fill="#49263E"/>
<path d="M222.826 279.3C222.826 279.3 221.282 281.598 220.565 283.255C220.565 283.255 223.355 297.885 217.728 297.065L216.721 297.052C211.743 296.984 215.188 286.201 215.274 280.478C215.326 276.894 219.674 273.258 222.5 275.441C225.33 277.623 222.826 279.3 222.826 279.3Z" fill="#49263E"/>
<path d="M221.445 286.393C222.175 285.662 222.175 284.478 221.445 283.748C220.715 283.017 219.532 283.017 218.802 283.748C218.072 284.478 218.072 285.662 218.802 286.393C219.532 287.123 220.715 287.123 221.445 286.393Z" fill="#FE9F73"/>
<path d="M220.005 286.226C219.613 286.23 219.347 285.94 219.257 285.647C219.15 285.299 219.261 284.959 219.542 284.78C219.942 284.523 220.311 284.664 220.511 284.786C220.427 284.589 220.302 284.444 220.139 284.357C219.769 284.162 219.32 284.314 219.316 284.316C219.284 284.328 219.25 284.31 219.239 284.28C219.227 284.248 219.243 284.214 219.275 284.203C219.295 284.196 219.778 284.03 220.193 284.251C220.434 284.378 220.597 284.607 220.683 284.929L220.738 285.136L220.583 284.986C220.565 284.968 220.118 284.546 219.604 284.877C219.32 285.059 219.3 285.386 219.368 285.608C219.44 285.842 219.651 286.112 220.01 286.103C220.041 286.101 220.071 286.128 220.071 286.162C220.071 286.196 220.046 286.223 220.012 286.223C220.014 286.226 220.01 286.226 220.005 286.226Z" fill="#F07162"/>
<path d="M229.623 276.633C229.623 276.633 232.521 279.695 231.857 288.5L229.859 279.813L229.623 276.633Z" fill="#49263E"/>
<path d="M227.683 311.159L223.655 294.228H212.678C211.512 294.228 209.907 294.997 209.839 295.029C205.434 297.376 193.317 310.744 193.92 319.168C194.469 326.816 205.468 325.295 216.427 327.068L218.863 316.928L214.901 315.865L227.683 311.159Z" fill="#7FC6A6"/>
<path d="M224.05 313.661V294.228H235.027C236.192 294.228 237.798 294.997 237.866 295.029C242.27 297.376 255.907 311.166 255.304 319.59C254.755 327.238 241.896 326.929 235.868 328.791L232.518 316.666L232.815 316.049L224.05 313.661Z" fill="#7FC6A6"/>
<path d="M241.842 316.304L241.701 337.496C241.701 337.496 222.535 341.001 205.469 336.459C205.049 336.348 206.269 318.944 206.269 318.944C206.269 318.944 206.269 315.568 208.047 314.524C209.825 313.48 224.34 307.035 224.689 307.035C225.036 307.035 241.842 316.304 241.842 316.304Z" fill="#7FC6A6"/>
<path d="M223.464 300.118C223.573 300.118 223.663 300.034 223.67 299.922C223.677 299.809 223.591 299.709 223.477 299.702C217.179 299.307 215.125 294.99 215.104 294.944C215.057 294.84 214.934 294.794 214.83 294.842C214.726 294.89 214.68 295.012 214.728 295.117C214.748 295.162 216.896 299.702 223.45 300.115C223.455 300.118 223.459 300.118 223.464 300.118Z" fill="#21111D"/>
<path d="M230.407 294.228H216.522C216.522 294.228 219.033 298.579 223.83 298.559C226.032 298.55 228.384 297.739 230.407 294.228Z" fill="#FE9F73"/>
<path d="M221.851 322.25C220.971 321.358 221.786 320.223 221.786 320.223C221.459 318.872 221.82 318.28 221.82 318.28C221.82 318.28 225.523 319.379 227.628 320.16C228.814 319.98 229.233 319.401 229.233 319.401L229.263 319.451C229.286 318.421 229.315 317.134 229.315 316.988C229.315 316.743 229.707 316.348 230.322 317.127C230.934 317.905 232.12 319.992 232.12 319.992L235.187 318.191L237.681 326.827C237.681 326.827 230.24 327.88 229.095 327.962C227.95 328.043 223.965 327.104 222.779 326.121C221.593 325.138 221.849 324.259 221.849 324.259C220.971 323.197 221.851 322.25 221.851 322.25Z" fill="#F78C63"/>
<path d="M229.929 316.539V319.213C229.929 319.213 229.14 320.383 227.627 320.16L226.478 319.733L227.382 315.845L229.929 316.539Z" fill="#FD7583"/>
<path d="M224.305 321.549C224.364 321.549 224.418 321.512 224.436 321.453C224.459 321.381 224.421 321.304 224.348 321.279C223.332 320.949 221.869 320.11 221.856 320.103C221.79 320.064 221.706 320.087 221.667 320.153C221.629 320.219 221.651 320.303 221.717 320.341C221.778 320.375 223.219 321.204 224.264 321.54C224.278 321.546 224.291 321.549 224.305 321.549Z" fill="#F07162"/>
<path d="M224.305 323.299C224.371 323.299 224.427 323.254 224.441 323.186C224.454 323.111 224.405 323.038 224.33 323.025C223.051 322.786 221.93 322.137 221.919 322.13C221.853 322.092 221.769 322.114 221.731 322.18C221.692 322.246 221.715 322.33 221.781 322.369C221.828 322.396 222.953 323.049 224.28 323.295C224.289 323.299 224.298 323.299 224.305 323.299Z" fill="#F07162"/>
<path d="M223.999 325.295C224.063 325.295 224.12 325.252 224.133 325.186C224.149 325.111 224.101 325.038 224.027 325.022C222.929 324.784 221.933 324.151 221.924 324.144C221.861 324.103 221.775 324.121 221.734 324.185C221.693 324.248 221.711 324.335 221.775 324.375C221.818 324.403 222.822 325.043 223.968 325.292C223.981 325.295 223.99 325.295 223.999 325.295Z" fill="#F07162"/>
<path d="M232.982 318.348L237.205 317.295C237.205 317.295 239.587 323.206 239.587 323.404C239.587 323.601 238.396 328.815 238.246 328.79C238.097 328.765 236.745 327.365 236.745 327.365L232.982 318.348Z" fill="#4CB7D8"/>
<path d="M240.743 314.497L242.825 314.163C242.961 314.141 243.057 314.013 243.034 313.875C243.011 313.739 242.884 313.646 242.746 313.666L240.986 313.948L237.067 307.905C236.992 307.789 236.836 307.755 236.72 307.83C236.604 307.905 236.57 308.061 236.645 308.177L240.743 314.497Z" fill="#21111D"/>
<path d="M239.964 299.75C239.899 299.75 239.835 299.718 239.794 299.662C238.234 297.419 236.903 297.412 236.903 297.414C236.789 297.414 236.696 297.321 236.696 297.208C236.696 297.094 236.787 297.001 236.903 296.999C236.978 296.999 238.47 297.031 240.134 299.426C240.2 299.519 240.178 299.648 240.082 299.714C240.046 299.739 240.005 299.75 239.964 299.75Z" fill="#21111D"/>
<path d="M239.519 301.857C239.442 301.857 239.37 301.814 239.333 301.741C238.138 299.335 236.814 299.095 236.8 299.095C236.689 299.076 236.609 298.972 236.628 298.858C236.646 298.747 236.748 298.668 236.861 298.684C236.922 298.693 238.401 298.933 239.705 301.557C239.755 301.66 239.714 301.785 239.612 301.834C239.583 301.85 239.551 301.857 239.519 301.857Z" fill="#21111D"/>
<path d="M227.849 318.714C227.792 318.725 227.731 318.7 227.701 318.648C227.663 318.582 227.686 318.498 227.751 318.46C228.679 317.926 229.935 316.805 229.949 316.793C230.006 316.743 230.094 316.748 230.144 316.805C230.194 316.861 230.189 316.95 230.133 317C230.08 317.048 228.84 318.153 227.89 318.7C227.876 318.705 227.865 318.709 227.849 318.714Z" fill="#F07162"/>
<path d="M228.212 320.426C228.149 320.439 228.083 320.405 228.056 320.344C228.026 320.274 228.06 320.192 228.13 320.165C229.332 319.668 230.294 318.8 230.305 318.791C230.362 318.739 230.448 318.744 230.5 318.8C230.553 318.857 230.548 318.943 230.491 318.996C230.45 319.032 229.484 319.904 228.237 320.419C228.228 320.421 228.219 320.424 228.212 320.426Z" fill="#F07162"/>
<path d="M228.921 322.313C228.86 322.327 228.794 322.295 228.767 322.234C228.735 322.164 228.767 322.082 228.838 322.052C229.863 321.594 230.706 320.765 230.713 320.758C230.768 320.704 230.854 320.706 230.908 320.761C230.963 320.815 230.96 320.902 230.906 320.956C230.87 320.992 230.019 321.825 228.949 322.307C228.942 322.309 228.933 322.311 228.921 322.313Z" fill="#F07162"/>
<path d="M210.068 314.362L207.961 314.467C207.822 314.474 207.704 314.367 207.698 314.228C207.691 314.09 207.797 313.972 207.936 313.965L209.716 313.877L212.301 307.155C212.351 307.026 212.496 306.96 212.626 307.01C212.755 307.06 212.821 307.205 212.771 307.335L210.068 314.362Z" fill="#21111D"/>
<path d="M218.864 316.925L216.694 327.333C216.694 327.333 212.229 323.694 212.229 323.297C212.229 322.899 213.641 318.06 213.791 317.967C213.939 317.874 218.864 316.925 218.864 316.925Z" fill="#4CB7D8"/>
<path d="M216.84 327.599L216.62 327.586C216.568 327.583 211.363 327.252 205.346 324.723C205.219 324.669 205.158 324.521 205.212 324.394C205.267 324.267 205.414 324.206 205.541 324.26C210.785 326.464 215.388 326.975 216.432 327.068L218.291 317.264L209.812 314.361C209.68 314.315 209.61 314.172 209.655 314.041C209.701 313.909 209.843 313.839 209.975 313.884L218.865 316.93L216.84 327.599Z" fill="#21111D"/>
<path d="M234.088 327.599L234.308 327.586C234.36 327.583 239.565 327.252 245.582 324.723C245.709 324.669 245.77 324.521 245.715 324.394C245.661 324.267 245.514 324.206 245.387 324.26C240.143 326.464 235.539 326.975 234.496 327.068L232.636 317.264L241.116 314.361C241.248 314.315 241.318 314.172 241.273 314.041C241.227 313.909 241.084 313.839 240.953 313.884L232.062 316.93L234.088 327.599Z" fill="#21111D"/>
<path d="M204.917 338.824H244.848C245.637 338.824 246.275 338.184 246.275 337.396V315.091C246.275 314.301 245.635 313.663 244.848 313.663H204.917C204.128 313.663 203.49 314.303 203.49 315.091V337.396C203.488 338.184 204.128 338.824 204.917 338.824Z" fill="#49263E"/>
<path d="M224.443 325.832C225.388 325.832 226.153 325.066 226.153 324.121C226.153 323.175 225.388 322.409 224.443 322.409C223.499 322.409 222.733 323.175 222.733 324.121C222.733 325.066 223.499 325.832 224.443 325.832Z" fill="white"/>
<path d="M447.251 336.359C447.251 336.359 442.575 348.134 446.496 357.041L356.607 357.795L348.311 357.041L340.999 352.508V345.569L343.031 339.832L349.667 336.359H447.251Z" fill="white"/>
<path d="M352.397 358.941H449.512C450.145 358.941 450.658 358.428 450.658 357.795C450.658 357.161 450.145 356.648 449.512 356.648H352.397C346.535 356.648 341.765 352.219 341.765 346.774C341.765 341.328 346.535 336.899 352.397 336.899H449.512C450.145 336.899 450.658 336.386 450.658 335.753C450.658 335.119 450.145 334.606 449.512 334.606H352.397C345.271 334.606 339.475 340.064 339.475 346.774C339.475 353.484 345.271 358.941 352.397 358.941Z" fill="#FF424D"/>
<path d="M445.932 347.028H398.274C398.133 347.028 398.02 346.915 398.02 346.774C398.02 346.633 398.133 346.52 398.274 346.52H445.932C446.072 346.52 446.186 346.633 446.186 346.774C446.186 346.915 446.072 347.028 445.932 347.028Z" fill="#AAC9F8"/>
<path d="M391.56 347.028H345.258C345.117 347.028 345.004 346.915 345.004 346.774C345.004 346.633 345.117 346.52 345.258 346.52H391.56C391.7 346.52 391.814 346.633 391.814 346.774C391.814 346.915 391.7 347.028 391.56 347.028Z" fill="#AAC9F8"/>
<path d="M370.26 351.593H346.503C346.362 351.593 346.249 351.48 346.249 351.339C346.249 351.198 346.362 351.085 346.503 351.085H370.26C370.4 351.085 370.514 351.198 370.514 351.339C370.514 351.48 370.4 351.593 370.26 351.593Z" fill="#AAC9F8"/>
<path d="M445.931 351.593H373.745C373.605 351.593 373.491 351.48 373.491 351.339C373.491 351.198 373.605 351.085 373.745 351.085H445.931C446.072 351.085 446.185 351.198 446.185 351.339C446.185 351.48 446.072 351.593 445.931 351.593Z" fill="#AAC9F8"/>
<path d="M357.119 313.65C357.119 313.65 361.458 324.578 357.82 332.843L441.243 333.544L448.943 332.843L455.729 328.634V322.194L453.842 316.871L447.682 313.647H357.119V313.65Z" fill="white"/>
<path d="M445.151 334.609H355.019C354.431 334.609 353.955 334.132 353.955 333.544C353.955 332.956 354.431 332.48 355.019 332.48H445.148C450.589 332.48 455.014 328.369 455.014 323.316C455.014 318.263 450.587 314.152 445.148 314.152H355.019C354.431 314.152 353.955 313.675 353.955 313.087C353.955 312.499 354.431 312.022 355.019 312.022H445.148C451.762 312.022 457.141 317.087 457.141 323.313C457.143 329.542 451.764 334.609 445.151 334.609Z" fill="#258D8C"/>
<path d="M402.575 323.572H358.344C358.203 323.572 358.09 323.458 358.09 323.318C358.09 323.177 358.203 323.063 358.344 323.063H402.575C402.716 323.063 402.829 323.177 402.829 323.318C402.829 323.458 402.716 323.572 402.575 323.572Z" fill="#AAC9F8"/>
<path d="M451.775 323.572H408.805C408.664 323.572 408.551 323.458 408.551 323.318C408.551 323.177 408.664 323.063 408.805 323.063H451.775C451.916 323.063 452.029 323.177 452.029 323.318C452.029 323.458 451.916 323.572 451.775 323.572Z" fill="#AAC9F8"/>
<path d="M450.621 327.807H428.572C428.432 327.807 428.318 327.694 428.318 327.553C428.318 327.412 428.432 327.299 428.572 327.299H450.621C450.762 327.299 450.875 327.412 450.875 327.553C450.875 327.694 450.762 327.807 450.621 327.807Z" fill="#AAC9F8"/>
<path d="M450.621 319.334H358.344C358.203 319.334 358.09 319.22 358.09 319.079C358.09 318.939 358.203 318.825 358.344 318.825H450.621C450.762 318.825 450.875 318.939 450.875 319.079C450.875 319.22 450.762 319.334 450.621 319.334Z" fill="#AAC9F8"/>
<path d="M449.512 359.195H352.397C345.131 359.195 339.221 353.623 339.221 346.774C339.221 339.925 345.131 334.353 352.397 334.353H449.512C450.283 334.353 450.911 334.981 450.911 335.753C450.911 336.525 450.283 337.154 449.512 337.154C449.372 337.154 449.258 337.04 449.258 336.899C449.258 336.759 449.372 336.645 449.512 336.645C450.004 336.645 450.403 336.246 450.403 335.753C450.403 335.261 450.004 334.861 449.512 334.861H352.397C345.412 334.861 339.731 340.205 339.731 346.772C339.731 353.339 345.414 358.682 352.397 358.682H449.512C450.004 358.682 450.403 358.283 450.403 357.79C450.403 357.298 450.004 356.898 449.512 356.898C449.372 356.898 449.258 356.785 449.258 356.644C449.258 356.503 449.372 356.39 449.512 356.39C450.283 356.39 450.911 357.018 450.911 357.79C450.911 358.567 450.286 359.195 449.512 359.195Z" fill="#21111D"/>
<path d="M445.151 334.863H355.019C354.293 334.863 353.701 334.271 353.701 333.544C353.701 332.818 354.293 332.225 355.019 332.225C355.159 332.225 355.273 332.339 355.273 332.48C355.273 332.62 355.159 332.734 355.019 332.734C354.574 332.734 354.211 333.097 354.211 333.542C354.211 333.987 354.574 334.35 355.019 334.35H445.149C451.621 334.35 456.887 329.399 456.887 323.313C456.887 317.228 451.621 312.277 445.149 312.277H355.019C354.574 312.277 354.211 312.64 354.211 313.085C354.211 313.532 354.574 313.893 355.019 313.893C355.159 313.893 355.273 314.006 355.273 314.147C355.273 314.288 355.159 314.401 355.019 314.401C354.293 314.401 353.701 313.809 353.701 313.083C353.701 312.356 354.293 311.764 355.019 311.764H445.149C451.902 311.764 457.395 316.944 457.395 323.309C457.398 329.683 451.902 334.863 445.151 334.863Z" fill="#21111D"/>
<path d="M434.12 342.209C434.12 342.209 437.18 349.836 435.415 355.45L432.929 351.607C432.929 351.607 431.233 353.645 430.192 355.45C430.192 355.45 428.294 342.91 424.615 342.209H434.12Z" fill="#7FC6A6"/>
<path d="M411.078 327.552C411.078 327.552 408.018 335.179 409.783 340.793L412.268 336.95C412.268 336.95 413.965 338.988 415.006 340.793C415.006 340.793 416.904 328.253 420.583 327.552H411.078Z" fill="#4CB7D8"/>
<path d="M445.931 342.463H346.503C346.362 342.463 346.249 342.349 346.249 342.208C346.249 342.068 346.362 341.954 346.503 341.954H445.931C446.072 341.954 446.185 342.068 446.185 342.208C446.185 342.349 446.072 342.463 445.931 342.463Z" fill="#AAC9F8"/>
<path d="M425.338 327.807H358.344C358.203 327.807 358.09 327.694 358.09 327.553C358.09 327.412 358.203 327.299 358.344 327.299H425.338C425.479 327.299 425.592 327.412 425.592 327.553C425.592 327.694 425.479 327.807 425.338 327.807Z" fill="#AAC9F8"/>
<path d="M372.793 348.885L377.186 351.357L382.436 346.186L382.579 345.348L381.293 335.941L371.071 337.846L372.793 348.885Z" fill="#FE9F73"/>
<path d="M380.298 351.63L366.209 353.55C366.08 353.548 365.973 353.541 365.894 353.53C364.513 353.303 364.83 352.402 364.83 352.402L371.006 347.289L371.051 346.661C371.124 345.651 372.29 345.138 373.287 345.678L375.882 347.081C375.882 347.081 381.983 347.169 382.577 345.349L383.128 349.784C383.13 349.784 383.779 351.133 380.298 351.63Z" fill="#3A1F33"/>
<path d="M354.588 349.488L358.981 351.958L364.234 346.789L364.374 345.952L363.088 336.545L352.869 338.449L354.588 349.488Z" fill="#FE9F73"/>
<path d="M362.093 352.232L348.004 354.153C347.875 354.15 347.768 354.146 347.689 354.132C346.308 353.905 346.625 353.004 346.625 353.004L352.801 347.892L352.846 347.263C352.919 346.253 354.084 345.74 355.082 346.28L357.677 347.683C357.677 347.683 363.778 347.772 364.372 345.951L364.923 350.387C364.927 350.384 365.576 351.735 362.093 352.232Z" fill="#3A1F33"/>
<path d="M389.13 311.916C389.13 311.916 406.702 312.742 411.582 311.659C416.463 310.574 417.665 295.329 412.122 285.99C406.582 276.649 387.195 305.326 387.195 305.326L389.13 311.916Z" fill="#49263E"/>
<path d="M378.26 289.275C378.26 289.275 353.79 293.086 353.08 295.926C352.37 298.766 350.338 328.957 351.857 341.839C351.857 341.839 361.178 342.482 365.637 341.399L366.9 311.891L374.403 312.03L390.938 288.864L378.26 289.275Z" fill="#3A1F33"/>
<path d="M390.165 291.05C390.165 291.05 371.217 296.4 370.507 299.242C369.797 302.082 367.779 329.027 369.298 341.907C369.298 341.907 379.322 342.481 383.781 341.401L384.983 311.775L389.308 311.925L399.793 293.463L390.165 291.05Z" fill="#49263E"/>
<path d="M401.911 254.915C401.911 254.915 410.286 255.055 412.232 256.206C414.178 257.357 423.095 272.062 425.021 278.3C425.021 278.3 419.988 282.713 413.504 282.881L411.946 279.939L412.837 285.961L395.853 291.003C390.09 292.715 383.928 292.513 378.288 290.431L376.523 289.779C376.523 289.779 376.551 261.164 381.656 258.14C386.205 255.446 396.059 254.029 401.911 254.915Z" fill="#FEBAC7"/>
<path d="M391.387 240.853V248.955C391.387 248.955 391.273 251.693 393.666 252.035L393.219 255.688C393.054 257.045 393.863 258.346 395.167 258.759C395.805 258.961 396.564 259.109 397.428 259.109C400.163 259.109 401.647 257.054 401.874 256.028C402.103 255.002 401.418 250.095 401.418 250.095L401.502 247.684L401.191 238.343L391.387 240.853Z" fill="#FE9F73"/>
<path d="M397.994 244.905C398.024 244.905 398.051 244.894 398.074 244.874C398.119 244.83 398.121 244.758 398.076 244.712C398.06 244.697 396.493 243.092 395.059 244.247C395.01 244.286 395.003 244.358 395.041 244.408C395.08 244.458 395.152 244.465 395.202 244.426C396.472 243.403 397.854 244.812 397.91 244.874C397.933 244.892 397.962 244.905 397.994 244.905Z" fill="#21111D"/>
<path d="M393.294 244.22C393.326 244.22 393.358 244.206 393.38 244.181C393.421 244.134 393.417 244.061 393.369 244.02C393.324 243.979 392.235 243.049 391.548 243.639C391.5 243.68 391.493 243.752 391.536 243.8C391.577 243.848 391.65 243.854 391.698 243.811C392.235 243.348 393.21 244.184 393.222 244.19C393.24 244.211 393.267 244.22 393.294 244.22Z" fill="#21111D"/>
<path d="M395.688 245.366C395.688 245.555 395.842 245.709 396.03 245.709C396.218 245.709 396.372 245.555 396.372 245.366C396.372 245.178 396.218 245.023 396.03 245.023C395.842 245.023 395.688 245.178 395.688 245.366Z" fill="black"/>
<path d="M392.052 245.023C392.052 245.212 392.206 245.366 392.394 245.366C392.582 245.366 392.737 245.212 392.737 245.023C392.737 244.835 392.582 244.681 392.394 244.681C392.206 244.681 392.052 244.835 392.052 245.023Z" fill="black"/>
<path d="M400.872 238.795L398.965 241.498C398.965 241.498 393.184 243.746 390.22 241.083C387.255 238.42 388.167 237.142 389.036 235.81C389.464 235.154 391.508 233.814 394.016 234.929C395.386 235.537 396.397 233.721 397.994 234.634C399.591 235.546 401.473 237.126 401.262 237.753C401.051 238.379 400.872 238.795 400.872 238.795Z" fill="#21111D"/>
<path d="M400.756 237.652C400.756 237.652 403.387 237.525 404.122 240.061C404.857 242.596 403.868 243.924 403.843 244.68C403.818 245.436 404.33 250.532 400.756 250.153L399.79 241.736L401.035 238.386L400.756 237.652Z" fill="#21111D"/>
<path d="M402.009 246.701C402.811 245.898 402.811 244.598 402.009 243.795C401.208 242.993 399.908 242.993 399.107 243.795C398.305 244.598 398.305 245.898 399.107 246.701C399.908 247.503 401.208 247.503 402.009 246.701Z" fill="#FE9F73"/>
<path d="M400.715 246.506C401.141 246.506 401.424 246.186 401.52 245.866C401.631 245.487 401.504 245.119 401.195 244.928C400.742 244.647 400.329 244.826 400.118 244.967C400.207 244.733 400.345 244.565 400.533 244.461C400.937 244.238 401.438 244.4 401.445 244.402C401.474 244.411 401.506 244.395 401.517 244.365C401.526 244.336 401.511 244.304 401.481 244.293C401.458 244.286 400.928 244.113 400.481 244.359C400.222 244.502 400.046 244.754 399.957 245.108L399.907 245.308L400.052 245.162C400.073 245.142 400.56 244.667 401.136 245.026C401.456 245.224 401.483 245.587 401.411 245.836C401.336 246.095 401.107 246.395 400.717 246.395C400.712 246.395 400.71 246.395 400.706 246.395C400.674 246.395 400.649 246.42 400.649 246.452C400.649 246.483 400.674 246.508 400.706 246.508C400.708 246.506 400.712 246.506 400.715 246.506Z" fill="#F07162"/>
<path d="M399.218 249.709C399.218 249.709 399.057 254.292 393.34 254.73L393.669 252.036C393.666 252.036 397.377 252.783 399.218 249.709Z" fill="#F07162"/>
<path d="M412.176 280.306C419.247 279.205 423.44 274.967 423.481 274.924L423.236 274.686C423.195 274.726 419.077 278.885 412.121 279.968L412.176 280.306Z" fill="#21111D"/>
<path d="M377.766 342.254C382.195 342.254 383.774 341.587 383.848 341.553L383.946 341.51L385.109 311.709L383.279 312.574L383.424 312.883L384.744 312.258L383.613 341.276C383.134 341.441 380.837 342.104 375.409 341.855L375.394 342.197C376.264 342.238 377.054 342.254 377.766 342.254Z" fill="#21111D"/>
<path d="M381.921 335.831C382.393 334.006 382.529 316.204 382.534 315.449L382.191 315.446C382.189 315.63 382.051 333.963 381.588 335.747L381.921 335.831Z" fill="#21111D"/>
<path d="M359.255 342.365C363.04 342.365 365.807 341.707 365.807 341.707L366.905 311.891L365.503 312.862L365.719 313.128L366.537 312.467L365.476 341.43C364.895 341.555 362.371 342.054 358.926 342.018L358.924 342.361C359.033 342.363 359.144 342.365 359.255 342.365Z" fill="#21111D"/>
<path d="M364.022 336.491C364.491 333.735 364.044 315.073 364.024 314.281L363.682 314.29C363.686 314.483 364.149 333.71 363.684 336.434L364.022 336.491Z" fill="#21111D"/>
<path d="M380.927 292.521L382.864 289.506C383.93 287.781 385.653 285.518 387.447 285.318C390.377 284.991 408.224 284.258 413.885 283.559C413.885 283.559 413.497 282.878 413.506 282.88C413.572 282.896 418.135 282.101 418.135 282.101L421.074 280.708L423.716 279.563C424.446 282.41 426.449 287.084 424.394 290.341C420.6 296.359 391.577 293.397 389.001 292.609L386.631 295.179L386.146 295.923C385.916 296.275 385.445 296.375 385.093 296.146C384.742 295.917 384.642 295.444 384.871 295.093L384.669 295.403C384.44 295.755 383.968 295.855 383.617 295.626C383.265 295.397 383.165 294.925 383.395 294.573C383.165 294.925 382.694 295.024 382.342 294.795C381.991 294.566 381.891 294.094 382.12 293.742L382.322 293.431C382.093 293.783 381.621 293.883 381.269 293.653C381.256 293.644 381.242 293.633 381.229 293.624C381.226 293.622 381.222 293.619 381.22 293.617C381.213 293.612 381.206 293.608 381.201 293.601L381.199 293.599L381.197 293.597C381.149 293.558 381.108 293.513 381.072 293.465C380.655 292.966 380.927 292.521 380.927 292.521Z" fill="#FE9F73"/>
<path d="M413.414 283.111L413.522 283.109C419.288 282.975 425.082 278.537 425.141 278.492L425.248 278.41L421.592 270.302L421.281 270.442L424.826 278.304C424.018 278.901 418.814 282.594 413.625 282.764L412.055 279.568L411.749 279.718L413.414 283.111Z" fill="#21111D"/>
<path d="M415.921 286.353C415.953 286.36 415.989 286.353 416.016 286.333C416.066 286.294 416.075 286.222 416.037 286.172L413.959 283.495C413.921 283.446 413.848 283.436 413.798 283.475C413.748 283.514 413.739 283.586 413.778 283.636L415.855 286.313C415.873 286.333 415.896 286.347 415.921 286.353Z" fill="#F07162"/>
<path d="M381.986 293.869C382.03 293.878 382.077 293.862 382.104 293.826L384.824 290.089C384.86 290.039 384.849 289.967 384.799 289.93C384.749 289.894 384.676 289.905 384.64 289.955L381.921 293.692C381.884 293.742 381.896 293.814 381.946 293.851C381.957 293.858 381.971 293.864 381.986 293.869Z" fill="#F07162"/>
<path d="M383.18 294.961C383.225 294.97 383.273 294.954 383.3 294.914L385.895 291.061C385.931 291.009 385.915 290.939 385.863 290.902C385.811 290.866 385.74 290.882 385.704 290.934L383.11 294.787C383.073 294.839 383.089 294.909 383.141 294.945C383.155 294.952 383.166 294.959 383.18 294.961Z" fill="#F07162"/>
<path d="M384.622 295.658C384.668 295.667 384.715 295.652 384.742 295.611L386.901 292.347C386.935 292.294 386.922 292.224 386.87 292.188C386.817 292.154 386.747 292.167 386.711 292.219L384.552 295.484C384.518 295.536 384.531 295.606 384.584 295.643C384.597 295.649 384.609 295.656 384.622 295.658Z" fill="#F07162"/>
<path d="M396.658 312.236C387.992 312.236 382.753 311.652 382.676 311.643L382.714 311.303C382.83 311.316 394.585 312.624 412.111 311.303L412.136 311.643C406.255 312.088 401.021 312.236 396.658 312.236Z" fill="#21111D"/>
<path d="M384.519 266.346L384.06 280.878L384.402 280.889L384.861 266.357L384.519 266.346Z" fill="#21111D"/>
<path d="M406.881 267.42L406.567 267.557L413.355 283.197L413.669 283.06L406.881 267.42Z" fill="#21111D"/>
<path d="M411.921 278.986L411.583 279.041L412.34 283.729L412.678 283.674L411.921 278.986Z" fill="#21111D"/>
<path d="M394.48 247.674C394.505 247.674 394.526 247.659 394.535 247.636C394.544 247.606 394.528 247.575 394.499 247.563L393.356 247.184L393.716 244.492C393.721 244.46 393.698 244.433 393.666 244.428C393.634 244.424 393.607 244.446 393.603 244.478L393.229 247.264L394.46 247.672C394.469 247.674 394.476 247.674 394.48 247.674Z" fill="#F07162"/>
<path d="M395.367 248.786C395.333 248.779 393.11 248.727 393.11 248.727C393.11 248.727 393.389 249.646 394.215 249.669C395.04 249.691 395.367 248.786 395.367 248.786Z" fill="#FBFDFC"/>
<path d="M347.832 270.302H374.993L384.466 294.445H357.305L347.832 270.302Z" fill="#FECC86"/>
<path d="M384.466 294.445H383.049L373.578 270.302H374.993L384.466 294.445Z" fill="#FFB357"/>
<path d="M365.589 281.604C365.966 282.714 365.689 283.811 364.972 284.054C364.256 284.297 363.369 283.595 362.992 282.487C362.616 281.377 362.893 280.281 363.609 280.038C364.326 279.793 365.213 280.497 365.589 281.604Z" fill="#E2F2F1"/>
<path d="M393.445 292.496H383.298V294.446H393.445C393.982 294.446 394.417 294.01 394.417 293.47C394.42 292.934 393.984 292.496 393.445 292.496Z" fill="#FFB357"/>
<path d="M390.875 293.165H384.466V293.471H390.875V293.165Z" fill="#FECC86"/>
<path d="M392.594 294.446H380.642V298.721H392.594V294.446Z" fill="#49263E"/>
<path d="M461.932 358.836H14.3613V360.223H461.932V358.836Z" fill="#21111D"/>
<path d="M86.6805 355.393L75.7105 355.543L75.5518 345.187L86.4809 343.82L86.6805 355.393Z" fill="#FE9F73"/>
<path d="M97.9521 357.256H75.5518V352.746C75.5518 352.746 77.1801 350.58 79.6612 351.686C79.6612 351.686 83.333 354.349 86.6419 351.166L94.9357 354.73C94.9357 354.73 97.9521 355.722 97.9521 357.256Z" fill="#33192C"/>
<path d="M75.5518 358.835H98.4737C98.7232 358.835 98.925 358.633 98.925 358.384V357.71C98.925 357.46 98.7232 357.258 98.4737 357.258H75.5518V358.835Z" fill="#472A31"/>
<path d="M89.0983 352.221C88.3476 353.395 86.8372 355.756 85.8779 357.256H84.3516C85.2088 355.915 87.0073 353.104 87.9009 351.706L89.0983 352.221Z" fill="#D7E4F7"/>
<path d="M88.3271 357.256H86.8008C87.4993 356.164 88.8578 354.037 89.8217 352.532L91.0191 353.048C90.2095 354.312 89.0891 356.064 88.3271 357.256Z" fill="#D7E4F7"/>
<path d="M67.7928 355.393L56.8205 355.543L56.6641 345.187L67.5909 343.82L67.7928 355.393Z" fill="#FE9F73"/>
<path d="M68.9611 265.748C69.324 276.442 70.9047 318.276 74.2272 345.645C74.4472 347.45 75.9735 348.81 77.7901 348.805C79.7995 348.801 82.5958 348.56 85.6938 347.613C87.1906 347.155 88.2316 345.793 88.2566 344.227L89.6082 260.945C89.6105 260.743 89.5969 260.541 89.5674 260.341L89.5039 259.93C89.1547 257.662 86.8051 256.298 84.6664 257.12L71.2676 262.273C69.832 262.822 68.9089 264.218 68.9611 265.748Z" fill="#33192C"/>
<path d="M54.2265 263.592C54.2265 263.592 53.3148 315.033 55.6916 346.765C55.805 348.268 56.9956 349.453 58.4947 349.568C60.6175 349.73 63.8539 349.707 67.4984 348.738C68.7344 348.408 69.6348 347.339 69.7459 346.064L76.1075 272.291L80.0242 251.809L54.2265 263.592Z" fill="#49263E"/>
<path d="M50.1348 247.221C50.3593 249.275 51.5885 279.764 55.0063 282.279C58.424 284.794 91.123 282.377 91.885 279.405C92.647 276.434 88.2087 244.574 88.2087 244.574L50.1348 247.221Z" fill="#FFB357"/>
<path d="M87.0547 232.855C87.4969 232.862 104.983 241.109 104.983 241.109L101.173 247.837L91.2866 245.309L87.0547 232.855Z" fill="#FFB357"/>
<path d="M62.4272 200.143C62.4272 200.143 54.8909 199.621 51.2169 201.541C45.7376 204.406 47.0575 221.93 47.0575 221.93C47.0575 221.93 51.7113 219.592 52.0152 218.771C52.3213 217.949 62.4272 200.143 62.4272 200.143Z" fill="#FFB357"/>
<path d="M55.0747 201.257C59.3837 200.81 70.7143 200.785 70.7143 200.785C70.7143 200.785 72.1998 201.23 71.7303 200.992C84.154 203.627 85.2177 212.95 85.2177 212.95L90.4044 239.961L97.181 240.56C99.2357 244.803 97.2399 255.985 97.2399 255.985L64.2325 258.572C64.2325 258.572 57.084 259.503 51.3371 251.581C47.5338 246.342 46.7151 230.622 47.1074 219.17C47.1074 219.172 48.3775 201.954 55.0747 201.257Z" fill="#FFB357"/>
<path d="M64.8359 239.553C64.8722 239.569 64.9153 239.573 64.9561 239.564C65.0695 239.541 65.1421 239.433 65.1194 239.319C65.0899 239.171 62.1507 224.432 61.0031 215.182C60.9895 215.069 60.8852 214.987 60.7718 215.001C60.6584 215.014 60.5767 215.119 60.5903 215.232C61.7402 224.498 64.6817 239.251 64.7112 239.401C64.727 239.473 64.7747 239.528 64.8359 239.553Z" fill="#21111D"/>
<path d="M85.2091 239.9C85.175 239.929 85.1319 239.95 85.0843 239.952C84.9687 239.959 84.8711 239.87 84.8643 239.757C84.8553 239.586 83.8733 222.627 82.8822 217.014C82.8618 216.9 82.9389 216.793 83.05 216.773C83.1634 216.752 83.27 216.827 83.2904 216.941C84.286 222.58 85.268 239.561 85.2771 239.734C85.2816 239.8 85.2544 239.859 85.2091 239.9Z" fill="#21111D"/>
<path d="M87.7028 236.225C87.7958 236.264 87.9024 236.232 87.9591 236.144L89.4355 233.801L89.4197 233.719L85.4236 212.919C85.4009 212.733 85.0766 210.313 83.1284 207.591C81.3028 205.04 77.6446 201.749 70.58 200.561C70.4666 200.543 70.36 200.618 70.3396 200.732C70.3215 200.845 70.3963 200.952 70.5097 200.972C77.4201 202.134 80.9943 205.333 82.7746 207.814C84.7046 210.502 85.0063 212.951 85.0086 212.974L85.0108 212.99L88.991 233.717L87.6031 235.921C87.5418 236.019 87.5713 236.146 87.6688 236.207C87.6824 236.216 87.6938 236.221 87.7028 236.225Z" fill="#21111D"/>
<path d="M59.304 237.978C59.313 237.982 59.3221 237.985 59.3312 237.987L64.84 239.449C64.9511 239.478 65.0645 239.413 65.094 239.301C65.1235 239.19 65.0577 239.077 64.9466 239.047L59.4378 237.585C59.3267 237.556 59.2133 237.621 59.1838 237.733C59.1566 237.835 59.211 237.939 59.304 237.978Z" fill="#21111D"/>
<path d="M95.0531 236.552C95.1574 236.595 95.2776 236.547 95.323 236.443C95.3684 236.338 95.3207 236.216 95.2164 236.168L89.2994 233.569C89.1905 233.528 89.0726 233.571 89.025 233.676C88.9796 233.78 89.0272 233.903 89.1316 233.95L95.0486 236.549C95.0508 236.549 95.0531 236.552 95.0531 236.552Z" fill="#21111D"/>
<path d="M119.582 256.228L100.128 254.948C99.2046 254.887 98.4267 254.067 98.5356 253.266L102.411 224.591C102.491 224.012 103.019 223.631 103.688 223.677L123.143 224.957C124.066 225.018 124.843 225.838 124.735 226.639L120.859 255.313C120.782 255.895 120.253 256.274 119.582 256.228Z" fill="#7FC6A6"/>
<path d="M110.154 250.215C110.174 249.679 109.711 249.211 109.176 249.175L105.87 248.953C105.765 248.946 105.677 248.873 105.65 248.773C105.609 248.626 105.715 248.476 105.87 248.467L110.766 248.142C111.326 248.106 111.666 247.629 111.521 247.087C111.376 246.544 110.798 246.129 110.235 246.167L105.244 246.499C105.128 246.506 105.024 246.431 104.992 246.319L104.971 246.24C104.937 246.111 105.015 245.977 105.144 245.94L110.496 244.501C111.013 244.363 111.376 243.813 111.251 243.291C111.12 242.737 110.56 242.406 110.015 242.553L104.622 244.004C104.493 244.038 104.359 243.961 104.323 243.831L104.255 243.58C104.223 243.461 104.284 243.339 104.398 243.291L109.183 241.307C109.677 241.103 109.965 240.51 109.775 240.009C109.573 239.478 108.974 239.221 108.453 239.437C108.453 239.437 101.091 242.045 99.889 242.361L102.103 241.325C103.731 242.855 101.892 240.767 100.551 240.497C99.0658 240.197 95.1422 243.834 95.1422 243.834C94.9631 244.147 95.1468 244.846 95.4303 245.373C96.5257 251.193 96.7411 252.078 97.1811 253.622L103.23 251.774C104.974 251.241 106.802 251.03 108.623 251.152L109.081 251.182C109.648 251.218 110.133 250.784 110.154 250.215Z" fill="#FE9F73"/>
<path d="M114.362 235.613C114.8 234.639 114.409 233.513 113.488 233.097C112.566 232.681 111.464 233.133 111.025 234.106C110.586 235.08 110.977 236.206 111.899 236.622C112.82 237.038 113.923 236.586 114.362 235.613Z" fill="white"/>
<path d="M100.624 240.089L100.35 242.225L102.62 241.467L102.59 239.921L100.624 240.089Z" fill="#7FC6A6"/>
<path d="M123.144 224.748L103.69 223.468C102.923 223.418 102.302 223.874 102.209 224.55L99.8662 242.393L100.349 242.225L102.613 224.63C102.676 224.153 103.118 223.844 103.688 223.883L123.142 225.163C123.255 225.17 123.346 225.084 123.346 224.968C123.346 224.855 123.255 224.757 123.144 224.748Z" fill="#21111D"/>
<path d="M97.1832 240.561C97.1832 240.561 99.1789 245.761 97.2421 255.985L95.3031 248.639L92.0713 243.854L97.1832 240.561Z" fill="#FFB357"/>
<path d="M57.6605 239.494C57.6855 239.503 57.7127 239.509 57.7399 239.509C58.037 239.509 87.4475 239.63 97.0317 240.753C97.2472 241.394 98.2201 244.694 97.7121 250.653C97.703 250.766 97.7869 250.869 97.9003 250.878C98.0137 250.887 98.1158 250.803 98.1248 250.689C98.6986 243.936 97.4286 240.624 97.3764 240.486L97.3311 240.37L97.2086 240.354C87.7355 239.214 58.0393 239.094 57.7399 239.092C57.6242 239.092 57.5313 239.185 57.5313 239.298C57.5312 239.387 57.5834 239.462 57.6605 239.494Z" fill="#21111D"/>
<path d="M69.653 257.874C81.6617 257.874 96.3623 256.324 97.2672 256.226C97.4011 256.213 97.4963 256.092 97.4827 255.961C97.4691 255.827 97.3557 255.731 97.2151 255.745C96.8885 255.779 64.3574 259.214 56.1861 256.006C48.11 252.837 47.5475 235.029 47.543 234.85C47.5385 234.716 47.4273 234.607 47.2935 234.614C47.1597 234.618 47.0554 234.729 47.0577 234.861C47.0781 235.608 47.636 253.171 56.0092 256.456C58.7035 257.516 63.8652 257.874 69.653 257.874Z" fill="#21111D"/>
<path d="M62.6794 181.584C62.6794 181.584 59.8264 183.057 61.2529 188.821L62.3325 188.265L61.9673 185.202L62.6794 181.584Z" fill="#21111D"/>
<path d="M72.6787 185.161V193.608C72.6787 193.608 72.7967 196.464 70.3155 196.82L70.7782 200.629C70.9506 202.046 70.1092 203.401 68.7598 203.832C68.0998 204.043 67.3105 204.195 66.417 204.195C63.5821 204.195 62.0467 202.055 61.8108 200.983C61.575 199.912 62.2826 194.797 62.2826 194.797L62.1964 192.285L62.5184 182.544L72.6787 185.161Z" fill="#FE9F73"/>
<path d="M65.8348 189.384C65.8053 189.384 65.7758 189.372 65.7531 189.35C65.7055 189.304 65.7055 189.229 65.7486 189.182C65.7644 189.164 67.3883 187.491 68.8738 188.696C68.9237 188.737 68.9328 188.812 68.8919 188.864C68.8511 188.916 68.7763 188.923 68.7264 188.882C67.411 187.815 65.9799 189.284 65.9187 189.347C65.8983 189.372 65.8665 189.384 65.8348 189.384Z" fill="#21111D"/>
<path d="M70.7031 188.671C70.6691 188.671 70.6373 188.657 70.6146 188.63C70.5715 188.58 70.5783 188.505 70.626 188.462C70.6736 188.421 71.8008 187.45 72.5129 188.065C72.5628 188.108 72.5673 188.183 72.5265 188.233C72.4834 188.283 72.4086 188.29 72.361 188.246C71.803 187.765 70.7938 188.635 70.7825 188.644C70.7575 188.662 70.7303 188.671 70.7031 188.671Z" fill="#21111D"/>
<path d="M68.2222 189.864C68.2222 190.062 68.0635 190.221 67.8684 190.221C67.6734 190.221 67.5146 190.062 67.5146 189.864C67.5146 189.667 67.6734 189.508 67.8684 189.508C68.0635 189.508 68.2222 189.667 68.2222 189.864Z" fill="black"/>
<path d="M71.9898 189.509C71.9898 189.706 71.8311 189.865 71.636 189.865C71.441 189.865 71.2822 189.706 71.2822 189.509C71.2822 189.311 71.441 189.152 71.636 189.152C71.8311 189.152 71.9898 189.311 71.9898 189.509Z" fill="black"/>
<path d="M61.9629 192.128C63.1366 192.128 64.088 191.17 64.088 189.987C64.088 188.805 63.1366 187.847 61.9629 187.847C60.7893 187.847 59.8379 188.805 59.8379 189.987C59.8379 191.17 60.7893 192.128 61.9629 192.128Z" fill="#FE9F73"/>
<path d="M61.8066 191.3C61.3644 191.3 61.0696 190.966 60.972 190.632C60.8564 190.237 60.9879 189.854 61.3077 189.654C61.7794 189.359 62.2058 189.55 62.4235 189.693C62.3328 189.45 62.1876 189.273 61.9949 189.166C61.5753 188.934 61.056 189.102 61.0514 189.105C61.0197 189.116 60.9879 189.098 60.9766 189.066C60.9652 189.034 60.9834 189.002 61.0129 188.991C61.0355 188.984 61.5844 188.805 62.0493 189.061C62.3169 189.209 62.5006 189.472 62.5913 189.842L62.6435 190.049L62.4938 189.899C62.4734 189.879 61.9677 189.382 61.3689 189.756C61.0378 189.963 61.0083 190.339 61.0854 190.601C61.1648 190.871 61.3984 191.184 61.8044 191.184C61.8089 191.184 61.8112 191.184 61.8157 191.184C61.8475 191.184 61.8747 191.209 61.8747 191.243C61.8747 191.275 61.8497 191.302 61.8157 191.304C61.8157 191.3 61.8112 191.3 61.8066 191.3Z" fill="#F07162"/>
<path d="M73.0896 192.264C73.0896 192.264 73.8629 197.984 70.0913 198.186C64.696 198.477 64.1721 195.376 63.8523 192.838L63.7979 187.599L63.9702 186.078C64.3512 186.512 64.5848 187.059 64.637 187.635C64.7481 188.891 65.0248 192.275 65.3355 192.425C65.7755 192.638 72.2504 191.712 73.0896 192.264Z" fill="#21111D"/>
<path d="M69.4742 192.271C69.4492 192.271 69.4265 192.255 69.4175 192.23C69.4061 192.198 69.4243 192.164 69.456 192.155L70.6399 191.76L70.2657 188.954C70.2611 188.922 70.2838 188.891 70.3155 188.888C70.3473 188.884 70.3768 188.906 70.3813 188.938L70.7691 191.842L69.4923 192.266C69.4855 192.271 69.4787 192.271 69.4742 192.271Z" fill="#F07162"/>
<path d="M68.5557 193.43C68.592 193.424 70.8939 193.369 70.8939 193.369C70.8939 193.369 70.6059 194.327 69.7486 194.35C68.8936 194.372 68.5557 193.43 68.5557 193.43Z" fill="#FBFDFC"/>
<path d="M63.9608 186.176L62.8926 185.202L61.7881 187.86C61.7881 187.86 63.1534 188.087 63.1783 189.508C63.201 190.929 62.4367 193.149 64.8951 196.337C67.3536 199.526 64.6978 191.576 64.6729 191.299C64.6479 191.025 63.9608 186.176 63.9608 186.176Z" fill="#21111D"/>
<path d="M62.6796 181.584C63.8181 180.453 67.7665 179.806 70.5856 181.507V181.504C73.7947 183.075 72.7854 186.274 72.6789 186.369L72.638 186.337C72.6539 186.41 72.6698 186.485 72.6789 186.56C72.6789 186.56 72.545 186.344 72.257 186.047L70.996 185.08C70.2885 184.682 69.3405 184.337 68.1135 184.258C66.8957 184.178 65.832 184.247 64.9588 184.514C64.7275 185.241 64.5393 186.678 64.8114 189.508C65.2242 193.828 63.3396 188.589 62.6546 186.582C62.5072 186.957 62.4006 187.379 62.3462 187.863C62.3462 187.86 60.3981 183.852 62.6796 181.584Z" fill="#21111D"/>
<path d="M72.6788 187.534C72.6788 187.534 72.7627 185.799 72.6788 185.42C72.5949 185.041 68.7394 183.949 66.628 184.24C64.5165 184.531 68.6102 186.857 68.6578 186.857C68.7054 186.857 72.6788 187.534 72.6788 187.534Z" fill="#FE9F73"/>
<path d="M65.3605 184.682L63.3193 182.784L65.2425 185.563L65.3605 184.682Z" fill="#FE9F73"/>
<path d="M65.3599 180.944C65.3599 180.944 65.7749 176.846 63.4979 177.738C61.2209 178.628 60.8285 180.517 62.8923 181.763C64.9562 183.009 65.3599 180.944 65.3599 180.944Z" fill="#21111D"/>
<path d="M56.959 208.908L60.98 202.159L68.0446 204.295L70.9113 201.244C70.9113 201.244 71.5214 204.061 71.5032 204.295C71.4851 204.529 68.2759 207.866 67.8632 207.832C67.4482 207.793 56.959 208.908 56.959 208.908Z" fill="#FFB357"/>
<path d="M57.5302 283.239C57.6549 283.239 57.7615 283.142 57.7706 283.015C57.7796 282.881 57.6799 282.765 57.5461 282.756C54.1532 282.513 53.6883 279.626 52.9172 274.843C52.7789 273.982 52.636 273.095 52.4614 272.139C51.3138 265.788 50.8081 250.397 50.8035 250.243C50.799 250.111 50.6924 250.009 50.5609 250.009C50.5586 250.009 50.5563 250.009 50.5541 250.009C50.4202 250.013 50.3159 250.125 50.3205 250.258C50.325 250.413 50.833 265.84 51.9874 272.225C52.1597 273.176 52.3026 274.064 52.441 274.92C53.2234 279.766 53.7405 282.969 57.5143 283.239C57.5188 283.239 57.5256 283.239 57.5302 283.239Z" fill="#21111D"/>
<path d="M70.4855 198.205L70.778 200.595C70.778 200.595 69.0295 203.222 67.8343 204.059C65.462 202.414 61.7903 200.11 61.7903 200.11L62.0057 197.088C57.6014 196.587 52.587 199.356 53.7346 200.784C54.8822 202.212 60.8468 202.65 62.4298 203.17C63.9924 203.683 67.9817 204.895 67.9817 204.895C69.0317 204.116 71.8485 200.802 71.8485 200.802L74.6993 201.594C74.7514 198.7 70.4855 198.205 70.4855 198.205Z" fill="#FD7583"/>
<path d="M79.0644 357.256H56.6641V352.746C56.6641 352.746 58.2924 350.58 60.7736 351.686C60.7736 351.686 64.4453 354.349 67.7542 351.166L76.048 354.73C76.048 354.73 79.0644 355.722 79.0644 357.256Z" fill="#49263E"/>
<path d="M56.6641 358.835H79.586C79.8355 358.835 80.0373 358.633 80.0373 358.384V357.71C80.0373 357.46 79.8355 357.258 79.586 357.258H56.6641V358.835Z" fill="#683D46"/>
<path d="M70.2106 352.221C69.4599 353.395 67.9495 355.756 66.9902 357.256H65.4639C66.3211 355.915 68.1196 353.104 69.0132 351.706L70.2106 352.221Z" fill="#D7E4F7"/>
<path d="M69.4374 357.256H67.9111C68.6097 356.164 69.9681 354.037 70.932 352.532L72.1295 353.048C71.3221 354.312 70.1995 356.064 69.4374 357.256Z" fill="#D7E4F7"/>
<path d="M67.9786 205.058C68.0194 205.058 68.0625 205.042 68.0942 205.011L73.0701 199.951C73.1336 199.887 73.1313 199.785 73.0678 199.721C73.0043 199.66 72.9022 199.66 72.8387 199.724L67.8629 204.784C67.7994 204.847 67.8017 204.949 67.8652 205.013C67.8969 205.042 67.9378 205.058 67.9786 205.058Z" fill="black"/>
<path d="M198.231 247.535C198.231 234.108 187.356 223.221 173.939 223.221C160.524 223.221 149.647 234.105 149.647 247.535C149.647 254.195 152.324 260.229 156.658 264.621C156.658 264.621 164.008 272.489 166.491 281.067C166.491 281.067 170.735 282.511 173.939 282.59C177.141 282.511 181.387 281.067 181.387 281.067C183.87 272.491 191.221 264.621 191.221 264.621C195.555 260.229 198.231 254.195 198.231 247.535Z" fill="#FECC86"/>
<path d="M165.838 279.129V285.63C165.838 288.561 167.643 291.067 170.201 292.102C170.458 293.938 172.029 295.355 173.937 295.355C175.842 295.355 177.413 293.941 177.672 292.102C180.23 291.067 182.035 288.561 182.035 285.63V279.129H165.838Z" fill="#4CB7D8"/>
<g opacity="0.3">
<g opacity="0.3">
<path opacity="0.3" d="M198.231 247.535C198.231 242.561 196.739 237.935 194.176 234.083C187.07 251.605 175.74 263.389 159.42 267.958C161.475 270.657 164.201 274.721 165.847 279.127H182.031C184.943 271.338 191.221 264.619 191.221 264.619C195.555 260.229 198.231 254.195 198.231 247.535Z" fill="#FECC86"/>
</g>
</g>
<path d="M177.911 279.222L177.215 279.031C177.237 278.947 179.503 270.612 181.075 262.072C183.801 247.256 182.234 244.114 181.057 243.558C179.852 242.99 178.907 243.092 178.244 243.86C178.197 243.916 178.149 243.976 178.106 244.037C179.805 245.04 180.215 246.579 180.313 247.201C180.583 248.922 179.814 250.638 178.598 251.028C178.303 251.124 177.739 251.171 177.249 250.431C176.471 249.256 176.228 246.316 177.099 244.357C176.264 244.014 175.246 243.833 174.083 243.833H173.382C172.219 243.833 171.2 244.014 170.366 244.357C171.236 246.316 170.994 249.256 170.216 250.431C169.726 251.171 169.161 251.124 168.867 251.028C167.653 250.638 166.884 248.92 167.152 247.201C167.249 246.577 167.66 245.038 169.359 244.037C169.313 243.976 169.268 243.916 169.22 243.86C168.558 243.092 167.61 242.99 166.408 243.558C165.231 244.112 163.664 247.256 166.39 262.072C167.962 270.612 170.227 278.947 170.25 279.031L169.554 279.222C169.531 279.138 167.259 270.775 165.682 262.208C163.505 250.379 163.643 244.066 166.102 242.909C168.009 242.01 169.148 242.675 169.767 243.392C169.853 243.492 169.935 243.599 170.012 243.712C170.862 243.351 171.96 243.115 173.382 243.115H174.083C175.505 243.115 176.605 243.351 177.455 243.712C177.532 243.599 177.612 243.492 177.7 243.392C178.319 242.675 179.458 242.01 181.365 242.909C183.823 244.066 183.962 250.379 181.785 262.208C180.206 270.777 177.934 279.14 177.911 279.222ZM169.717 244.677C168.692 245.276 168.043 246.175 167.864 247.315C167.628 248.815 168.306 250.093 169.086 250.345C169.159 250.368 169.352 250.431 169.613 250.036C170.279 249.029 170.454 246.37 169.717 244.677ZM177.745 244.677C177.008 246.37 177.183 249.029 177.85 250.036C178.111 250.431 178.303 250.368 178.376 250.345C179.156 250.093 179.834 248.817 179.598 247.315C179.419 246.175 178.771 245.276 177.745 244.677Z" fill="#F99247"/>
<path d="M165.721 279.297C165.528 278.743 165.439 278.539 165.249 278.096L165.145 277.853C162.112 270.764 156.585 264.803 156.529 264.744L156.511 264.726C151.97 260.113 149.469 254.012 149.469 247.535C149.469 234.029 160.446 223.042 173.94 223.042C182.224 223.042 189.883 227.189 194.428 234.135L194.126 234.333C189.65 227.489 182.102 223.403 173.94 223.403C160.645 223.403 149.829 234.229 149.829 247.535C149.829 253.925 152.301 259.948 156.787 264.494L157.023 264.733L157.007 264.737C158.064 265.92 162.761 271.368 165.476 277.713L165.58 277.955C165.775 278.407 165.864 278.614 166.061 279.181L165.721 279.297Z" fill="#21111D"/>
<path d="M156.978 236.31L156.631 236.211C156.649 236.149 158.445 230.166 164.487 227.916L164.612 228.254C158.745 230.44 156.994 236.254 156.978 236.31Z" fill="#21111D"/>
<path d="M158.091 238.476L157.744 238.376C157.762 238.314 159.558 232.331 165.6 230.081L165.725 230.419C159.858 232.603 158.107 238.417 158.091 238.476Z" fill="#21111D"/>
<path d="M174.818 292.79H173.051C168.973 292.79 165.655 289.469 165.655 285.387V278.947H182.03V279.308H166.014V285.387C166.014 289.269 169.168 292.429 173.049 292.429H174.815C176.673 292.429 178.424 291.711 179.748 290.406L180 290.663C178.612 292.034 176.77 292.79 174.818 292.79Z" fill="#21111D"/>
<path d="M174.04 295.535C170.529 295.535 170.023 292.127 170.019 292.091L170.375 292.041C170.393 292.173 170.862 295.246 174.155 295.171L174.164 295.532C174.123 295.535 174.083 295.535 174.04 295.535Z" fill="#21111D"/>
<path d="M190.597 261.146L190.382 260.856C193.589 258.474 194.092 254.5 194.097 254.461L194.455 254.504C194.453 254.545 193.931 258.67 190.597 261.146Z" fill="#21111D"/>
<path d="M189.887 259.414L189.672 259.124C192.008 257.389 192.378 254.49 192.382 254.461L192.74 254.504C192.727 254.629 192.353 257.584 189.887 259.414Z" fill="#21111D"/>
<path d="M165.094 282.369L165.09 282.008C165.228 282.006 178.883 281.829 183.206 280.217L183.333 280.555C178.949 282.189 165.657 282.362 165.094 282.369Z" fill="#21111D"/>
<path d="M165.095 285.414L165.088 285.053C165.238 285.051 180.056 284.756 182.825 283.271L182.995 283.589C180.151 285.115 165.709 285.403 165.095 285.414Z" fill="#21111D"/>
<path d="M165.838 288.54L165.836 288.179C165.97 288.177 179.267 288.039 182.829 286.195L182.995 286.515C179.357 288.397 166.389 288.536 165.838 288.54Z" fill="#21111D"/>
<path d="M143.456 243.708C143.44 243.708 143.424 243.708 143.411 243.706L134.815 242.973C134.518 242.948 134.298 242.684 134.323 242.387C134.348 242.09 134.611 241.87 134.908 241.895L143.504 242.628C143.801 242.653 144.021 242.916 143.996 243.213C143.971 243.495 143.735 243.708 143.456 243.708Z" fill="#FECC86"/>
<path d="M147.904 230.002C147.8 230.002 147.693 229.97 147.6 229.907L140.481 225.031C140.234 224.863 140.173 224.524 140.341 224.279C140.508 224.032 140.846 223.971 141.091 224.138L148.21 229.014C148.457 229.182 148.519 229.521 148.351 229.766C148.247 229.918 148.076 230.002 147.904 230.002Z" fill="#FECC86"/>
<path d="M160.772 220.168C160.559 220.168 160.357 220.041 160.27 219.83L157.023 211.83C156.909 211.553 157.043 211.238 157.32 211.126C157.597 211.013 157.912 211.147 158.023 211.424L161.271 219.423C161.384 219.7 161.25 220.016 160.974 220.127C160.908 220.156 160.84 220.168 160.772 220.168Z" fill="#FECC86"/>
<path d="M203.992 245.268C203.711 245.268 203.473 245.048 203.452 244.762C203.432 244.465 203.659 244.206 203.956 244.185L212.565 243.616C212.86 243.595 213.121 243.822 213.139 244.119C213.157 244.417 212.932 244.676 212.635 244.696L204.026 245.266C204.017 245.268 204.006 245.268 203.992 245.268Z" fill="#FECC86"/>
<path d="M199.807 231.479C199.63 231.479 199.457 231.393 199.355 231.234C199.192 230.984 199.26 230.648 199.51 230.485L206.722 225.745C206.971 225.582 207.307 225.65 207.47 225.899C207.633 226.149 207.565 226.485 207.316 226.649L200.104 231.388C200.011 231.45 199.906 231.479 199.807 231.479Z" fill="#FECC86"/>
<path d="M188.793 220.137C188.722 220.137 188.65 220.123 188.579 220.094C188.305 219.976 188.178 219.658 188.296 219.383L191.693 211.445C191.811 211.17 192.129 211.043 192.403 211.161C192.678 211.279 192.805 211.597 192.687 211.872L189.289 219.81C189.201 220.014 189.001 220.137 188.793 220.137Z" fill="#FECC86"/>
<path d="M174.935 215.935C174.932 215.935 174.93 215.935 174.926 215.935C174.626 215.93 174.388 215.685 174.393 215.385L174.526 206.75C174.531 206.455 174.771 206.217 175.066 206.217C175.068 206.217 175.071 206.217 175.075 206.217C175.375 206.221 175.613 206.467 175.608 206.766L175.474 215.401C175.47 215.699 175.229 215.935 174.935 215.935Z" fill="#FECC86"/>
<g opacity="0.5">
<g opacity="0.5">
<g opacity="0.5">
<path opacity="0.5" d="M190.253 235.811C191.103 234.491 189.553 231.976 186.79 230.194C184.027 228.412 181.099 228.038 180.248 229.358C179.398 230.679 180.949 233.194 183.711 234.976C186.474 236.758 189.403 237.132 190.253 235.811Z" fill="#F3FFFE"/>
</g>
</g>
</g>
<path d="M182.727 66.3625H223.933C224.956 66.3625 225.786 65.5317 225.786 64.5079V40.4981C225.786 39.4744 224.956 38.6436 223.933 38.6436H182.727C181.704 38.6436 180.874 39.4744 180.874 40.4981V64.5079C180.874 65.5317 181.704 66.3625 182.727 66.3625Z" fill="white"/>
<path d="M185.092 43.6898H222.543C222.801 43.6898 223.012 43.4787 223.012 43.2199C223.012 42.9611 222.801 42.75 222.543 42.75H185.092C184.834 42.75 184.623 42.9611 184.623 43.2199C184.623 43.4787 184.832 43.6898 185.092 43.6898Z" fill="#61A3C5"/>
<path d="M185.092 49.0238H222.543C222.801 49.0238 223.012 48.8127 223.012 48.5539C223.012 48.2951 222.801 48.084 222.543 48.084H185.092C184.834 48.084 184.623 48.2951 184.623 48.5539C184.623 48.8149 184.832 49.0238 185.092 49.0238Z" fill="#61A3C5"/>
<path d="M198.208 54.3617H222.54C222.799 54.3617 223.01 54.1505 223.01 53.8918C223.01 53.633 222.799 53.4219 222.54 53.4219H198.208C197.949 53.4219 197.738 53.633 197.738 53.8918C197.738 54.1505 197.949 54.3617 198.208 54.3617Z" fill="#61A3C5"/>
<path d="M184.813 54.3617H194.522C194.781 54.3617 194.992 54.1505 194.992 53.8918C194.992 53.633 194.781 53.4219 194.522 53.4219H184.813C184.555 53.4219 184.344 53.633 184.344 53.8918C184.344 54.1505 184.555 54.3617 184.813 54.3617Z" fill="#61A3C5"/>
<path d="M207.246 59.6956H222.541C222.799 59.6956 223.01 59.4845 223.01 59.2257C223.01 58.967 222.799 58.7559 222.541 58.7559H207.246C206.987 58.7559 206.776 58.967 206.776 59.2257C206.776 59.4845 206.987 59.6956 207.246 59.6956Z" fill="#61A3C5"/>
<path d="M184.813 59.6956H203.816C204.075 59.6956 204.286 59.4845 204.286 59.2257C204.286 58.967 204.075 58.7559 203.816 58.7559H184.813C184.555 58.7559 184.344 58.967 184.344 59.2257C184.344 59.4845 184.555 59.6956 184.813 59.6956Z" fill="#61A3C5"/>
<path d="M194.606 65.1363C194.561 65.3225 187.328 74.7384 187.283 74.4615C187.238 74.1846 188.118 64.3486 188.118 64.3486L194.606 65.1363Z" fill="white"/>
<path d="M177.266 347.772H104.985V348.342H177.266V347.772Z" fill="#21111D"/>
<g opacity="0.3">
<g opacity="0.3">
<g opacity="0.3">
<path opacity="0.3" d="M116.565 313.618C118.627 315.044 120.874 316.095 123.215 316.767L124.016 322.748L128.134 322.95L132.253 323.152L133.634 317.278C136.029 316.84 138.369 316.011 140.558 314.797L145.35 318.46L148.405 315.689L151.46 312.917L148.287 307.784C149.711 305.721 150.761 303.471 151.433 301.129L157.409 300.328L157.61 296.205L157.812 292.083L151.943 290.7C151.505 288.303 150.68 285.961 149.464 283.77L153.124 278.974L150.355 275.916L147.586 272.858L142.454 276.034C140.392 274.608 138.145 273.557 135.804 272.886L135.004 266.904L130.885 266.702L126.767 266.5L125.385 272.375C122.99 272.813 120.65 273.639 118.461 274.856L113.669 271.192L110.614 273.964L107.559 276.735L110.732 281.868C109.308 283.931 108.258 286.181 107.587 288.524L101.611 289.325L101.409 293.447L101.207 297.569L107.076 298.952C107.514 301.349 108.34 303.692 109.555 305.882L105.895 310.679L108.664 313.736L111.433 316.794L116.565 313.618ZM119.121 283.357C125.449 277.614 135.23 278.093 140.968 284.428C146.706 290.762 146.228 300.552 139.898 306.295C133.57 312.038 123.789 311.559 118.051 305.224C112.313 298.891 112.794 289.1 119.121 283.357Z" fill="#4CB7D8"/>
</g>
</g>
</g>
</svg>
