<svg width="1573" height="1582" viewBox="0 0 1573 1582" fill="none" xmlns="http://www.w3.org/2000/svg">
<path d="M9.22847 57.8735C4.38549 27.5022 27.8497 0 58.6047 0H1277.8C1302.37 0 1323.3 17.8583 1327.17 42.1265L1563.35 1523.26C1568.2 1553.63 1544.73 1581.13 1513.98 1581.13H294.785C270.21 1581.13 249.278 1563.27 245.409 1539L9.22847 57.8735Z" fill="url(#paint0_linear_287_1844)"/>
<path d="M511.23 1474.01H801.097V1581.82H523.213C520.047 1581.82 517.011 1580.62 514.773 1578.5C512.535 1576.37 511.277 1573.48 511.277 1570.47V1474.01H511.23Z" fill="#9409D6"/>
<path d="M801.144 1474.01H511.23L610.355 1419.71H768.087L801.144 1474.01Z" fill="#9409D6"/>
<path d="M895.041 1581.82H800.905V1474.01H906.977V1570.47C906.977 1573.48 905.719 1576.37 903.481 1578.5C901.242 1580.63 898.206 1581.82 895.041 1581.82Z" fill="#9409D6"/>
<path opacity="0.2" d="M895.041 1581.82H800.905V1474.01H906.977V1570.47C906.977 1573.48 905.719 1576.37 903.481 1578.5C901.242 1580.63 898.206 1581.82 895.041 1581.82Z" fill="black"/>
<path d="M801.143 1474.01H906.981L807.857 1419.71H768.086L801.143 1474.01Z" fill="#9409D6"/>
<path opacity="0.2" d="M801.143 1474.01H906.981L807.857 1419.71H768.086L801.143 1474.01Z" fill="black"/>
<path d="M627.135 640.162L620.421 577.524L595.803 523.485L652.965 542.902L700.895 578.011L723.788 603.368L674.505 653.993L627.135 640.162Z" fill="#9409D6"/>
<path opacity="0.2" d="M627.135 640.162L620.421 577.524L595.803 523.485L652.965 542.902L700.895 578.011L723.788 603.368L674.505 653.993L627.135 640.162Z" fill="black"/>
<path d="M665.604 596.275L682.295 523.485L843.617 555.403L920.502 649.826L939.898 783.924L924.232 902.507L886.979 986.246L796.526 666.804L665.604 596.275Z" fill="#9409D6"/>
<path opacity="0.2" d="M668.217 614.363L699.549 563.871L698.663 526.767L789.302 544.72L854.436 618.042L882.784 720.4L864.834 859.995L824.643 744.383L668.217 614.363Z" fill="black"/>
<path d="M610.349 1419.71L516.912 1352.72L476.535 1251.16L511.224 1143.35L617.808 1058.77L646.949 871.963L621.585 796.115L824.636 630.631L894.807 1031.24L906.976 1305.91L807.852 1419.71H610.349Z" fill="#9409D6"/>
<path opacity="0.2" d="M495.705 1299.39L516.919 1352.72L537.994 1367.79L608.118 1394.57L545.547 1350.24L495.705 1299.39Z" fill="black"/>
<path opacity="0.2" d="M646.95 871.965L636.973 935.977L724.674 914.832L775.169 860.838L780.857 807.154L646.95 871.965Z" fill="black"/>
<path d="M804.545 803.916L714.839 893.64L596.878 910.796L526.521 884.774L468.567 898.339L401.94 887.345L367.717 888.897L324.216 870.012L306.592 836.587L320.579 772.974L348.554 749.257L370.514 744.514L517.29 660.021L539.716 626.685L691.76 581.867L824.641 630.63L804.545 803.916Z" fill="#9409D6"/>
<path opacity="0.2" d="M314.469 851.57L363.705 857.998L401.937 887.345L367.714 888.896L324.213 870.012L314.469 851.57Z" fill="black"/>
<path opacity="0.2" d="M388.469 804.005L414.858 792.656L453.231 811.895L408.144 813.846L388.469 804.005Z" fill="black"/>
<path opacity="0.2" d="M894.814 1031.24L865.533 1107.27L845.904 1298.51L756.291 1399L700.854 1396.03L610.355 1419.71H807.859L906.983 1305.91L894.814 1031.24Z" fill="black"/>
<path d="M690.264 641.314L713.483 563.914L707.841 499.147L761.087 536.518L805.52 606.869L817.456 642.732L735.63 675.226L690.264 641.314Z" fill="#9409D6"/>
<path opacity="0.2" d="M709.195 604.964L742.998 626.375L767.057 604.964L759.69 568.746L720.059 537.36L727.053 568.746L709.195 604.964Z" fill="black"/>
<path opacity="0.2" d="M526.938 645.657L603.03 657.582L656.649 660.907L600.606 679.126L517.287 660.02L526.938 645.657Z" fill="black"/>
<path d="M1014.77 1515.81L1049.13 1527.47L1086.71 1454.95L1052.35 1443.25L1014.77 1515.81Z" fill="#FFB573"/>
<path opacity="0.2" d="M1086.71 1454.95L1067.36 1492.36L1032.96 1480.66L1052.35 1443.29L1086.71 1454.95Z" fill="black"/>
<path d="M1050.35 1523.62L1012.81 1510.89C1012.13 1510.66 1011.38 1510.65 1010.69 1510.88C1010.01 1511.1 1009.42 1511.55 1009.04 1512.13L991.319 1538.73C990.897 1539.38 990.634 1540.11 990.55 1540.87C990.465 1541.63 990.56 1542.4 990.828 1543.12C991.097 1543.83 991.532 1544.49 992.101 1545.02C992.67 1545.56 993.359 1545.97 994.116 1546.22C1007.73 1550.66 1027.59 1556.46 1044.61 1562.27C1064.47 1569.01 1070.26 1581.69 1095.01 1581.69C1115.43 1581.69 1117.49 1571.58 1111.52 1569.45C1084.15 1559.61 1075.76 1550.35 1057.67 1528.85C1055.77 1526.5 1053.24 1524.69 1050.35 1523.62Z" fill="#263238"/>
<path d="M1215.78 1140.43C1220.16 1034.61 1142.02 754.135 1142.02 754.135L1014.87 770.404C1061.22 895.592 1097.35 997.861 1112.78 1126.73C1130.36 1190.47 1024.76 1469.4 1024.76 1469.4L1082.94 1489.17C1082.94 1489.17 1211.26 1250.45 1215.78 1140.43Z" fill="#9409D6"/>
<path opacity="0.3" d="M1215.78 1140.43C1220.16 1034.61 1142.02 754.135 1142.02 754.135L1014.87 770.404C1061.22 895.592 1097.35 997.861 1112.78 1126.73C1130.36 1190.47 1024.76 1469.4 1024.76 1469.4L1082.94 1489.17C1082.94 1489.17 1211.26 1250.45 1215.78 1140.43Z" fill="black"/>
<path opacity="0.2" d="M1061.07 826.525L1043.03 847.094C1044.94 852.237 1046.52 857.379 1047.92 862.521C1068.66 920.391 1085.51 979.453 1098.37 1039.35C1100.38 975.873 1107.7 861.989 1061.07 826.525Z" fill="black"/>
<path d="M1089.89 1492.94L1020.55 1469.4L1028.53 1448.08L1098.7 1470.77L1089.89 1492.94Z" fill="#263238"/>
<path d="M1052.03 1529.29C1057.16 1532.26 1066.53 1536.87 1071.52 1534.97C1072.26 1534.71 1072.91 1534.27 1073.43 1533.71C1073.94 1533.14 1074.29 1532.46 1074.46 1531.73C1074.59 1531.3 1074.61 1530.84 1074.52 1530.4C1074.42 1529.96 1074.21 1529.55 1073.9 1529.2C1070.54 1525.57 1054.22 1527.56 1052.36 1527.78C1052.18 1527.81 1052.01 1527.88 1051.87 1528C1051.74 1528.12 1051.65 1528.28 1051.61 1528.45C1051.59 1528.61 1051.62 1528.78 1051.7 1528.93C1051.77 1529.08 1051.89 1529.2 1052.03 1529.29ZM1072.41 1530.13L1072.69 1530.35C1072.78 1530.5 1072.83 1530.67 1072.83 1530.84C1072.83 1531.01 1072.78 1531.18 1072.69 1531.33C1072.57 1531.81 1072.34 1532.26 1072.01 1532.64C1071.68 1533.02 1071.25 1533.31 1070.77 1533.5C1067.98 1534.57 1062.19 1532.97 1055.06 1529.07C1061.64 1528.54 1070.4 1528.4 1072.41 1530.13Z" fill="#9409D6"/>
<path d="M1052.03 1529.29C1052.22 1529.35 1052.44 1529.35 1052.63 1529.29C1057.3 1528.94 1068.35 1524.64 1069.09 1520.73C1069.09 1519.85 1069.09 1518.52 1066.85 1517.54C1066.07 1517.21 1065.22 1517.04 1064.36 1517.04C1063.5 1517.04 1062.65 1517.21 1061.86 1517.54C1056.18 1519.45 1051.98 1527.96 1051.79 1528.31C1051.72 1528.44 1051.69 1528.57 1051.69 1528.71C1051.69 1528.85 1051.72 1528.99 1051.79 1529.11L1052.03 1529.29ZM1066.9 1519.67C1067.51 1520.11 1067.41 1520.47 1067.37 1520.65C1066.95 1522.95 1059.25 1526.63 1054.12 1527.61C1055.89 1524.02 1058.79 1521.04 1062.42 1519.09C1063.01 1518.86 1063.63 1518.73 1064.27 1518.73C1064.9 1518.73 1065.53 1518.86 1066.11 1519.09C1066.4 1519.24 1066.67 1519.44 1066.9 1519.67Z" fill="#9409D6"/>
<path d="M973.836 1546.4H1010.34L1013.28 1466.03H976.773L973.836 1546.4Z" fill="#FFB573"/>
<path d="M1013.56 1542.37H969.036C968.317 1542.36 967.618 1542.6 967.057 1543.02C966.497 1543.45 966.109 1544.05 965.959 1544.72L958.732 1575.75C958.563 1576.5 958.575 1577.28 958.767 1578.03C958.96 1578.78 959.328 1579.47 959.844 1580.06C960.36 1580.66 961.01 1581.13 961.746 1581.45C962.482 1581.77 963.285 1581.93 964.094 1581.91C978.407 1581.69 988.851 1580.89 1006.85 1580.89C1017.95 1580.89 1051.42 1582 1066.71 1582C1082.01 1582 1084.06 1567.59 1077.76 1566.31C1049.79 1560.46 1028.48 1552.39 1019.48 1544.67C1017.87 1543.24 1015.77 1542.42 1013.56 1542.37Z" fill="#263238"/>
<path d="M1123.97 483.19L1160.33 550.483C1172.55 572.648 1185.05 595.124 1198.19 615.338L1203.18 622.564C1203.95 623.711 1204.83 624.794 1205.79 625.8C1207.38 627.263 1207.71 627.795 1209.57 628.327C1212.87 628.714 1216.22 628.302 1219.32 627.13C1224.22 625.552 1228.91 623.439 1233.3 620.835C1243.65 614.74 1253.38 607.734 1262.35 599.911C1267.01 595.877 1271.67 591.799 1276.34 587.454C1281 583.11 1285.66 578.588 1289.72 574.421L1312.19 589.316C1308.6 595.567 1305.01 601.064 1301.05 606.694C1297.09 612.324 1293.03 617.865 1288.6 623.184C1279.54 634.389 1269.21 644.603 1257.78 653.639C1251.3 658.609 1244.29 662.905 1236.85 666.45C1227.7 670.797 1217.61 673.059 1207.38 673.056C1195.34 672.886 1183.71 668.909 1174.32 661.751C1170.18 658.574 1166.41 654.977 1163.09 651.024L1156.37 642.645C1140.23 621.064 1125.4 598.626 1111.94 575.441C1098.51 552.7 1085.97 529.914 1074.17 506.286L1123.97 483.19Z" fill="#FFB573"/>
<path d="M1058.14 486.204C1052.31 518.919 1111.43 610.594 1111.43 610.594L1173.58 546.049C1173.58 546.049 1158.48 496.045 1128.54 472.329C1099.68 449.499 1064.85 448.523 1058.14 486.204Z" fill="#263238"/>
<path opacity="0.2" d="M1131.94 561.964C1118.18 532.574 1089.42 515.95 1062.98 516.57C1076.55 556.468 1111.42 610.595 1111.42 610.595L1139.17 581.824C1137.31 575.034 1134.9 568.393 1131.94 561.964Z" fill="black"/>
<path d="M1283.28 581.915L1299.69 558.642L1338.21 584.663C1338.21 584.663 1306.55 609.932 1286.92 599.115L1283.28 581.915Z" fill="#FFB573"/>
<path d="M1345.53 554.252L1374.25 564.98L1338.21 584.662L1299.7 558.641L1345.53 554.252Z" fill="#FFB573"/>
<path opacity="0.2" d="M976.777 1466.03H1013.28L1011.75 1507.48H975.238L976.777 1466.03Z" fill="black"/>
<path d="M894.857 481.374C908.126 518.09 918.49 555.698 925.863 593.883C931.132 620.481 934.908 645.971 937.799 669.244C944.513 723.504 946.051 765.086 948.709 779.05L1142.16 754.269C1139.03 551.903 1097.86 457.258 1097.86 457.258C1082.32 455.452 1066.67 454.579 1051 454.643C1047.69 454.643 1044.34 454.643 1040.93 454.865C1013.27 456.827 985.744 460.305 958.5 465.282C953.325 466.213 948.103 467.233 943.068 468.341C917.377 473.971 894.857 481.374 894.857 481.374Z" fill="#263238"/>
<path opacity="0.2" d="M937.94 524.109L911.551 533.773C917.192 554.121 921.855 574.291 925.538 593.885C926.191 597.121 926.797 600.313 927.403 603.504C940.505 579.965 942.976 553.234 937.94 524.109Z" fill="black"/>
<path d="M954.203 376.222C962.969 400.692 974.672 446.13 958.539 465.281C967.809 472.365 978.574 477.469 990.103 480.246C1001.63 483.022 1013.65 483.407 1025.35 481.372C1048.01 478.003 1047.03 462.71 1040.79 454.996C1010.29 452.07 1008.15 431.147 1010.48 410.932L954.203 376.222Z" fill="#FFB573"/>
<path d="M1007.73 484.168L1009.32 486.562L1023.12 481.464L1016.64 477.519L1007.73 484.168Z" fill="#9409D6"/>
<path d="M1035.29 480.177L1023.12 481.463L1023.82 475.478L1030.81 474.414L1035.29 480.177Z" fill="#9409D6"/>
<path d="M961.106 457.167C976.245 470.381 996.086 477.652 1016.64 477.515C1008.9 481.948 1007.73 500.211 1007.73 500.211C1007.73 500.211 965.769 491.345 951.781 465.102C954.541 462.108 957.672 459.444 961.106 457.167Z" fill="white"/>
<path d="M1033.1 452.115C1033.1 452.115 1043.5 468.118 1023.78 475.477C1039.21 478.093 1044.57 496.756 1044.57 496.756C1044.57 496.756 1060.52 481.462 1048.35 454.021C1043.32 453.037 1038.22 452.4 1033.1 452.115Z" fill="white"/>
<path opacity="0.2" d="M977.151 390.317L1010.49 410.709C1009.84 415.411 1009.65 420.16 1009.93 424.895C998.411 424.895 981.253 415.009 978.456 403.971C977.189 399.527 976.747 394.906 977.151 390.317Z" fill="black"/>
<path d="M945.678 338.763C952.719 372.543 955.003 392.668 975.611 407.829C1006.57 430.615 1048.58 409.381 1052.31 374.271C1055.67 342.664 1043.59 292.749 1006.62 283.661C998.467 281.623 989.905 281.6 981.744 283.594C973.582 285.588 966.093 289.534 959.986 295.055C953.88 300.576 949.36 307.491 946.856 315.14C944.352 322.79 943.946 330.922 945.678 338.763Z" fill="#FFB573"/>
<path d="M963.482 373.029C966.386 359.39 964.757 345.231 958.819 332.511C962.829 325.463 972.154 308.219 969.823 297.047C954.53 292.614 922.172 297.047 922.172 297.047C922.172 297.047 901.844 347.628 963.482 373.029Z" fill="#263238"/>
<path d="M942.223 309.24C959.055 311.678 1026.71 304.541 1040.97 276.214C1046.1 265.974 1028.29 275.505 1018.41 277.189C1008.52 278.874 947.585 275.46 931.127 277.455C921.195 278.696 895.505 302.369 942.223 309.24Z" fill="#263238"/>
<path d="M924.602 280.115C915.836 256.664 983.489 277.234 1003.12 266.816C1032.77 250.724 1043.31 256.487 1036.27 267.525C1029.23 278.563 1024.89 282.243 991.742 282.287C958.591 282.331 929.777 293.902 924.602 280.115Z" fill="#263238"/>
<path d="M932.763 373.209C938.626 379.837 947.004 383.995 956.075 384.779C968.104 385.754 971.834 374.982 966.566 365.318C961.903 356.452 949.921 345.636 938.591 349.226C927.261 352.817 925.862 364.963 932.763 373.209Z" fill="#FFB573"/>
<path d="M1073.43 762.914C1073.43 762.914 1069.84 1062.1 1061.07 1163.3C1051.75 1274.13 1028.43 1499.46 1028.43 1499.46H961.668C961.668 1499.46 960.269 1293.1 966.843 1184.71C974.35 1061.26 948.566 778.873 948.566 778.873L1073.43 762.914Z" fill="#9409D6"/>
<path opacity="0.3" d="M1073.43 762.914C1073.43 762.914 1069.84 1062.1 1061.07 1163.3C1051.75 1274.13 1028.43 1499.46 1028.43 1499.46H961.668C961.668 1499.46 960.269 1293.1 966.843 1184.71C974.35 1061.26 948.566 778.873 948.566 778.873L1073.43 762.914Z" fill="black"/>
<path d="M1036.5 1500.83H957.802L955.844 1477.03H1040.89L1036.5 1500.83Z" fill="#263238"/>
<path d="M1001.39 341.333C1001.76 344.081 1003.63 346.121 1005.54 345.766C1007.45 345.411 1008.66 343.062 1008.29 340.313C1007.92 337.565 1006.01 335.481 1004.14 335.88C1002.28 336.279 1000.97 338.54 1001.39 341.333Z" fill="#263238"/>
<path d="M1034.35 337.079C1034.73 339.872 1036.59 341.911 1038.5 341.512C1040.41 341.113 1041.67 338.808 1041.25 336.015C1040.83 333.222 1039.02 331.183 1037.1 331.582C1035.19 331.981 1033.98 334.331 1034.35 337.079Z" fill="#263238"/>
<path d="M1024.05 339.827C1028.71 347.939 1034.54 355.398 1041.35 361.992C1039.57 363.631 1037.43 364.877 1035.08 365.643C1032.74 366.409 1030.25 366.676 1027.78 366.425L1024.05 339.827Z" fill="#ED893E"/>
<path d="M1016.54 374.981C1017.82 374.975 1019.1 374.887 1020.37 374.715C1020.48 374.704 1020.59 374.671 1020.7 374.618C1020.8 374.564 1020.88 374.492 1020.95 374.404C1021.02 374.317 1021.07 374.217 1021.1 374.11C1021.13 374.003 1021.13 373.892 1021.11 373.784C1021.1 373.678 1021.06 373.577 1021 373.486C1020.94 373.396 1020.86 373.317 1020.77 373.255C1020.68 373.193 1020.58 373.149 1020.47 373.125C1020.36 373.102 1020.25 373.1 1020.13 373.119C1016.52 373.655 1012.81 373.372 1009.33 372.294C1005.85 371.216 1002.68 369.372 1000.09 366.913C999.922 366.766 999.705 366.685 999.48 366.685C999.255 366.685 999.038 366.766 998.874 366.913C998.792 366.987 998.727 367.076 998.683 367.176C998.638 367.275 998.615 367.381 998.615 367.489C998.615 367.597 998.638 367.703 998.683 367.802C998.727 367.901 998.792 367.991 998.874 368.065C1001.17 370.304 1003.92 372.073 1006.96 373.263C1010 374.452 1013.26 375.037 1016.54 374.981Z" fill="#263238"/>
<path d="M989.78 332.514C990.085 332.512 990.383 332.432 990.645 332.284C990.908 332.137 991.124 331.925 991.272 331.672C992.296 329.852 993.752 328.283 995.525 327.091C997.297 325.898 999.337 325.114 1001.48 324.801C1001.71 324.789 1001.93 324.736 1002.14 324.643C1002.34 324.55 1002.52 324.419 1002.68 324.258C1002.83 324.098 1002.94 323.91 1003.02 323.707C1003.1 323.503 1003.13 323.287 1003.11 323.072C1003.07 322.637 1002.85 322.235 1002.5 321.947C1002.16 321.659 1001.71 321.507 1001.25 321.52C998.536 321.866 995.947 322.817 993.694 324.296C991.441 325.776 989.589 327.741 988.288 330.032C988.172 330.22 988.097 330.429 988.067 330.646C988.038 330.862 988.053 331.082 988.114 331.293C988.175 331.503 988.28 331.7 988.421 331.872C988.563 332.044 988.74 332.187 988.941 332.293C989.199 332.427 989.486 332.503 989.78 332.514Z" fill="#263238"/>
<path d="M1047.09 324.488C1047.42 324.489 1047.74 324.397 1048.02 324.222C1048.4 323.978 1048.67 323.6 1048.77 323.169C1048.86 322.738 1048.78 322.289 1048.53 321.917C1047.06 319.715 1045.06 317.879 1042.69 316.561C1040.32 315.242 1037.66 314.48 1034.92 314.337C1034.46 314.337 1034.02 314.51 1033.7 314.817C1033.37 315.125 1033.19 315.542 1033.19 315.977C1033.19 316.412 1033.37 316.829 1033.7 317.137C1034.02 317.444 1034.46 317.617 1034.92 317.617C1037.09 317.744 1039.2 318.367 1041.06 319.431C1042.93 320.496 1044.5 321.972 1045.64 323.735C1045.8 323.965 1046.01 324.155 1046.26 324.286C1046.51 324.418 1046.8 324.487 1047.09 324.488Z" fill="#263238"/>
<path d="M1025.59 1548.44C1028.08 1548.63 1030.57 1548 1032.63 1546.67C1033.29 1546.12 1033.8 1545.44 1034.12 1544.66C1034.44 1543.89 1034.55 1543.06 1034.45 1542.23C1034.45 1541.75 1034.31 1541.28 1034.04 1540.87C1033.78 1540.45 1033.41 1540.11 1032.96 1539.88C1028.9 1537.93 1017.15 1544.8 1015.8 1545.6C1015.66 1545.69 1015.55 1545.82 1015.49 1545.97C1015.42 1546.12 1015.4 1546.29 1015.43 1546.45C1015.45 1546.61 1015.53 1546.76 1015.65 1546.87C1015.76 1546.99 1015.92 1547.08 1016.08 1547.11C1019.19 1547.89 1022.38 1548.34 1025.59 1548.44ZM1031.05 1541.26C1031.42 1541.18 1031.8 1541.18 1032.17 1541.26C1032.35 1541.36 1032.49 1541.5 1032.59 1541.67C1032.69 1541.84 1032.74 1542.04 1032.73 1542.23C1032.8 1542.79 1032.73 1543.35 1032.51 1543.86C1032.3 1544.38 1031.96 1544.84 1031.52 1545.2C1029.56 1546.8 1024.75 1547.02 1018.55 1545.87C1022.36 1543.57 1026.61 1542 1031.05 1541.26Z" fill="#9409D6"/>
<path d="M1016.26 1547.2H1016.68C1020.46 1545.25 1027.73 1537.62 1026.99 1533.9C1026.86 1533.3 1026.51 1532.76 1026.01 1532.37C1025.51 1531.98 1024.88 1531.77 1024.24 1531.77C1023.58 1531.68 1022.91 1531.73 1022.28 1531.91C1021.64 1532.08 1021.06 1532.38 1020.55 1532.79C1016.31 1536.12 1015.42 1546.09 1015.42 1546.53C1015.4 1546.68 1015.43 1546.83 1015.49 1546.96C1015.56 1547.1 1015.66 1547.21 1015.8 1547.29C1015.96 1547.3 1016.12 1547.27 1016.26 1547.2ZM1023.63 1533.15H1024C1025.12 1533.15 1025.26 1533.77 1025.26 1533.99C1025.73 1536.29 1021.11 1542.01 1017.34 1544.72C1017.59 1540.77 1019.09 1536.99 1021.63 1533.86C1022.22 1533.38 1022.99 1533.12 1023.77 1533.15H1023.63Z" fill="#9409D6"/>
<path d="M924.461 534.833L915.136 547.777C912.013 552.21 908.935 556.643 905.811 561.298C899.843 570.385 893.829 579.429 888.28 588.694C876.988 606.69 867.063 625.43 858.58 644.771L855.783 651.82L854.571 654.923C854.6 654.791 854.6 654.655 854.571 654.524C854.198 654.258 854.058 656.519 855.177 659.577C858.836 667.624 863.756 675.097 869.77 681.742C876.721 689.82 884.113 697.544 891.917 704.883C895.927 708.651 899.89 712.507 904.04 716.231L916.489 727.181L901.569 749.035C878.95 738.736 857.915 725.552 839.045 709.848C828.136 700.961 818.992 690.286 812.049 678.329C807.251 669.952 804.885 660.511 805.195 650.977C805.336 647.987 805.789 645.017 806.547 642.111L806.967 640.515L807.293 639.407L807.946 637.191L810.603 628.325C818.39 605.673 828.331 583.742 840.303 562.805C846.178 552.52 852.286 542.413 858.953 532.572C862.217 527.651 865.574 522.775 868.978 517.943C872.381 513.111 875.832 508.456 879.888 503.358L924.461 534.833Z" fill="#FFB573"/>
<path d="M894.857 481.374C862.22 492.456 825.293 577.481 825.293 577.481L905.908 612.945C920.504 590.546 930.782 565.852 936.26 540.022C945.679 494.141 934.722 468.075 894.857 481.374Z" fill="#263238"/>
<path d="M921.198 730.465L930.523 753.783L890.379 759.147C890.379 759.147 879.235 730.332 894.668 723.018H907.63C910.36 723.105 913.027 723.83 915.393 725.129C917.759 726.428 919.753 728.26 921.198 730.465Z" fill="#FFB573"/>
<path d="M925.948 780.866L895.176 785.255L890.094 759.144L930.238 753.78L925.948 780.866Z" fill="#FFB573"/>
<path d="M1443.4 402.152C1442.33 393.105 1439.99 384.234 1436.45 375.776L1440.74 374.136C1444.46 382.928 1446.93 392.158 1448.06 401.576L1443.4 402.152Z" fill="#9409D6"/>
<path d="M1424.24 354.721C1412.32 338.822 1395.84 326.513 1376.78 319.256L1378.55 315.134C1398.45 322.732 1415.63 335.631 1428.02 352.282L1424.24 354.721Z" fill="#9409D6"/>
<path d="M1336.96 519.715C1307.32 519.657 1278.92 508.421 1257.98 488.475C1237.05 468.529 1225.29 441.502 1225.29 413.323H1229.95C1229.95 440.326 1241.22 466.226 1261.28 485.341C1281.34 504.456 1308.55 515.224 1336.96 515.282V519.715Z" fill="#9409D6"/>
<path d="M1404.38 477.65C1441.61 442.248 1441.61 384.848 1404.38 349.445C1367.14 314.042 1306.77 314.042 1269.53 349.445C1232.3 384.848 1232.3 442.248 1269.53 477.65C1306.77 513.053 1367.14 513.053 1404.38 477.65Z" fill="#9409D6"/>
<path d="M1359 382.247L1346.84 386.236C1349.87 380.828 1350.05 369.967 1343.39 358.885C1342.6 357.724 1341.48 356.802 1340.15 356.228C1338.83 355.655 1337.36 355.453 1335.93 355.649C1334.02 355.796 1332.24 356.64 1330.97 358.003C1329.7 359.367 1329.04 361.144 1329.12 362.963C1329.35 373.203 1327.07 393.994 1305.15 397.984L1300.49 403.614L1318.91 453.884L1328.23 452.199C1331.82 451.8 1352.15 449.229 1365.25 447.766C1372.9 446.79 1379.89 443.137 1384.86 437.522C1389.82 431.906 1392.41 424.732 1392.11 417.4L1389.5 394.393C1389.24 392.202 1388.51 390.085 1387.36 388.176C1386.2 386.266 1384.64 384.605 1382.77 383.297C1380.91 381.99 1378.78 381.064 1376.51 380.577C1374.25 380.091 1371.91 380.056 1369.63 380.473L1359 382.247Z" fill="white"/>
<path d="M1301.89 471.847L1319.08 467.08C1321.7 466.354 1323.2 463.745 1322.44 461.254L1305.71 406.738C1304.95 404.247 1302.21 402.816 1299.58 403.543L1282.4 408.309C1279.78 409.036 1278.27 411.645 1279.04 414.136L1295.76 468.651C1296.52 471.143 1299.27 472.573 1301.89 471.847Z" fill="#263238"/>
<defs>
<linearGradient id="paint0_linear_287_1844" x1="786.291" y1="0" x2="786.291" y2="1581.13" gradientUnits="userSpaceOnUse">
<stop stop-color="#E6B0FF"/>
<stop offset="1" stop-color="#AD18F3"/>
</linearGradient>
</defs>
</svg>
