<svg width="555" height="344" viewBox="0 0 555 344" fill="none" xmlns="http://www.w3.org/2000/svg">
<path d="M244.024 0.486067C154.172 -5.15032 122.301 39.165 76.632 85.0071C30.9633 130.841 9.85368 179.225 36.3934 248.107C62.9331 316.982 125.585 334.493 223.929 334.493C322.273 334.493 423.546 344.091 474.835 306.625C526.123 269.167 543.594 183.549 469.281 138.755C425.51 112.372 368.239 8.28458 244.024 0.486067Z" fill="#FFF2DB"/>
<path d="M100.036 320.02C99.0707 308.087 95.2003 296.756 91.3465 285.5C87.5338 274.384 83.2426 262.649 83.0445 250.766C82.962 245.633 85.3057 235.193 92.6173 237.157C95.093 237.818 96.6445 240.508 97.7668 242.596C99.2357 245.352 100.391 248.282 101.406 251.228C105.243 262.352 105.937 274.268 105.904 285.945C105.879 294.726 105.268 303.548 105.986 312.32C106.027 312.84 106.811 312.857 106.811 312.32C106.778 300.016 107.463 287.728 109.634 275.597C110.665 269.812 112.076 264.101 113.735 258.465C114.329 256.443 116.211 253.357 118.282 252.82C121.36 252.02 125.165 252.878 126.353 256.204C130.776 268.615 127.03 281.976 122.912 293.909C121.171 298.943 119.446 303.977 117.209 308.813C115.386 312.757 113.595 316.719 111.837 320.705C111.325 321.868 110.814 323.04 110.327 324.212C110.121 324.707 110.921 324.913 111.119 324.435C114.247 316.908 118.142 309.679 120.898 302.005C125.016 290.509 129.621 278.708 129.101 266.288C128.986 263.54 128.515 260.817 127.822 258.168C127.195 255.783 126.46 253.976 124.315 252.631C122.805 251.69 120.874 251.616 119.165 251.83C116.987 252.102 116.244 252.68 115.072 254.454C114.626 255.131 113.578 256.138 113.364 256.864C112.943 258.25 112.539 259.637 112.151 261.031C111.325 263.978 110.599 266.948 109.939 269.944C108.734 275.415 107.859 280.961 107.232 286.523C106.259 295.089 105.978 303.721 105.994 312.337C106.267 312.337 106.547 312.337 106.82 312.337C105.994 302.252 106.836 292.085 106.721 281.976C106.589 270.546 105.326 259.059 101.225 248.315C99.7226 244.378 97.9401 239.617 94.3586 237.1C90.6532 234.5 86.5353 237.355 84.5135 240.59C81.8232 244.89 81.9965 250.609 82.5329 255.436C83.1601 261.015 84.5052 266.511 86.0484 271.892C90.6533 287.893 97.8576 303.251 99.211 320.036C99.2522 320.548 100.077 320.548 100.036 320.02Z" fill="#FFBC45"/>
<path d="M99.962 319.887C99.7556 317.601 99.4998 315.323 99.0129 313.071C98.9139 312.617 98.1712 312.716 98.2042 313.178C98.3445 315.472 98.6663 317.741 99.0294 320.011C99.112 320.539 99.9042 320.316 99.8217 319.788C99.4751 317.593 99.1615 315.398 99.0294 313.178C98.7571 313.211 98.493 313.252 98.2207 313.285C98.6911 315.464 98.9304 317.667 99.1367 319.879C99.1862 320.415 100.011 320.415 99.962 319.887Z" fill="#FFBC45"/>
<path d="M88.6891 320.202C85.1983 310.975 77.8867 304.208 71.3838 297.078C67.9013 293.257 64.6581 289.214 62.3144 284.584C60.0945 280.194 57.0907 273.6 60.1028 268.954C62.7105 264.935 68.4212 268.195 71.26 270.101C74.8828 272.544 77.7464 275.812 80.4862 279.171C88.0949 288.479 93.8138 299.397 97.1065 310.959C97.9152 313.806 98.5259 316.703 99.0046 319.616C99.0871 320.144 99.8876 319.921 99.7968 319.393C97.973 308.137 93.6653 297.458 87.6575 287.794C82.9949 280.293 77.1687 272.222 69.2382 267.89C66.6634 266.487 63.313 265.406 60.6722 267.188C57.3135 269.449 57.8499 274.376 58.7081 277.718C61.1838 287.258 67.959 294.66 74.5114 301.65C79.7847 307.27 85.1075 313.071 87.8721 320.4C88.0784 320.911 88.8789 320.705 88.6891 320.202Z" fill="#FFBC45"/>
<path d="M120.939 258.053C115.476 266.569 116.508 277.438 114.841 287.027C113.884 292.54 111.911 297.78 110.904 303.276C109.84 309.086 108.676 314.854 107.29 320.59C107.166 321.11 107.958 321.324 108.082 320.812C109.403 315.325 110.574 309.804 111.573 304.242C112.514 299.018 114.329 294.017 115.344 288.81C116.31 283.85 116.722 278.866 117.185 273.84C117.688 268.451 118.678 263.087 121.649 258.466C121.946 258.02 121.228 257.607 120.939 258.053Z" fill="#FFBC45"/>
<path d="M90.0425 245.632C90.4138 251.854 92.5182 257.746 93.9541 263.762C95.5551 270.48 96.8589 277.288 98.2123 284.055C99.5327 290.649 100.713 297.275 102.124 303.844C103.585 310.628 104.756 317.502 104.789 324.459C104.789 324.987 105.615 324.987 105.615 324.459C105.582 318.203 104.624 312.014 103.395 305.891C102.025 299.074 100.663 292.25 99.3264 285.425C98.039 278.881 96.7352 272.328 95.2827 265.817C93.7808 259.116 91.2803 252.514 90.8677 245.615C90.8347 245.104 90.0095 245.095 90.0425 245.632Z" fill="#FFBC45"/>
<path d="M69.5269 280.036C75.7409 285.953 80.8574 292.869 85.5283 300.04C87.8967 303.671 90.0423 307.475 92.1797 311.247C94.5729 315.464 95.9428 319.92 97.6758 324.418C97.8656 324.904 98.6661 324.698 98.468 324.195C96.9 320.135 95.7365 316.008 93.6404 312.171C91.437 308.136 89.1098 304.092 86.6258 300.222C81.8394 292.77 76.5331 285.565 70.1045 279.45C69.7249 279.087 69.139 279.665 69.5269 280.036Z" fill="#FFBC45"/>
<path d="M70.6655 291.152C75.6747 294.519 81.1626 297.16 85.9077 300.923C86.3203 301.253 86.9062 300.667 86.4936 300.337C81.699 296.524 76.1616 293.842 71.0864 290.434C70.6325 290.137 70.2199 290.855 70.6655 291.152Z" fill="#FFBC45"/>
<path d="M84.4641 290.51C86.2961 292.928 87.3937 296.039 88.4252 298.861C89.6961 302.319 90.5874 305.966 91.4209 309.556C91.5446 310.076 92.3369 309.853 92.2131 309.333C91.3383 305.562 90.3646 301.766 89.0359 298.127C88.0456 295.412 86.9398 292.416 85.1821 290.097C84.852 289.676 84.1423 290.089 84.4641 290.51Z" fill="#FFBC45"/>
<path d="M111.63 280.903C111.911 284.386 113.603 287.571 113.71 291.078C113.727 291.606 114.552 291.615 114.535 291.078C114.42 287.563 112.736 284.386 112.456 280.903C112.414 280.375 111.589 280.367 111.63 280.903Z" fill="#FFBC45"/>
<path d="M95.5136 251.887C94.3583 255.51 94.5151 259.463 94.0282 263.209C93.9622 263.737 94.7874 263.729 94.8534 263.209C95.332 259.537 95.1835 255.667 96.3141 252.11C96.4709 251.598 95.6787 251.384 95.5136 251.887Z" fill="#FFBC45"/>
<path d="M88.953 266.932C90.7685 269.49 92.2457 272.246 94.1108 274.763C95.8272 277.082 97.2302 279.31 97.8656 282.157C97.9811 282.677 98.7734 282.454 98.6578 281.935C98.1132 279.484 97.0981 277.643 95.6952 275.58C93.6569 272.585 91.7588 269.465 89.6627 266.511C89.3656 266.09 88.6477 266.503 88.953 266.932Z" fill="#FFBC45"/>
<path d="M102.214 276.926C101.372 282.001 100.555 287.084 100.069 292.217C100.019 292.746 100.844 292.746 100.894 292.217C101.372 287.167 102.181 282.158 103.015 277.149C103.097 276.629 102.297 276.406 102.214 276.926Z" fill="#FFBC45"/>
<path d="M123.968 263.804C121.929 269.135 118.471 273.839 116.053 278.997C115.831 279.476 116.54 279.896 116.763 279.41C119.206 274.186 122.688 269.424 124.76 264.027C124.958 263.524 124.157 263.317 123.968 263.804Z" fill="#FFBC45"/>
<path d="M418.586 332.951C416.985 329.097 414.922 325.598 412.091 322.52C408.526 318.658 403.938 316.108 400.786 311.833C397.699 307.633 395.091 302.92 392.533 298.39C391.023 295.724 389.802 293.026 389.298 289.989C388.811 287.026 388.935 283.956 389.15 280.977C388.943 281.093 388.737 281.217 388.531 281.332C390.528 282.19 391.997 283.692 393.606 285.104C395.207 286.498 397.088 287.554 398.797 288.809C402.791 291.73 406.364 295.568 409.277 299.545C411.976 303.234 413.874 307.591 415.706 311.759C417.299 315.382 418.586 319.516 420.946 322.734C421.202 323.081 421.87 322.891 421.697 322.421C418.784 314.102 417.62 305.272 417.885 296.475C418.008 292.489 418.487 288.446 419.098 284.501C419.692 280.68 420.616 276.802 422.588 273.435C422.349 273.435 422.11 273.435 421.879 273.435C422.836 275.291 423.051 277.313 423.43 279.335C423.851 281.605 424.652 283.758 425.46 285.912C427.251 290.657 428.258 295.733 429.182 300.701C430.164 305.99 430.395 310.958 429.586 316.289C428.844 321.175 427.49 325.953 426.475 330.789C426.385 331.226 427.012 331.548 427.226 331.102C428.687 328.164 430.057 325.194 431.278 322.149C432.607 318.831 433.49 315.382 434.662 312.015C436.51 306.725 439.654 301.914 444.713 299.273C450.762 296.12 464.585 292.976 466.161 302.788C466.367 302.632 466.565 302.475 466.763 302.326C457.628 298.456 450.465 306.997 445.885 313.797C442.782 318.402 439.564 322.743 436.015 327.026C434.604 328.726 433.341 330.822 431.707 332.299C430.247 333.619 427.4 335.641 425.32 335.443C424.792 335.394 424.792 336.219 425.32 336.268C428.068 336.524 431.881 333.735 433.416 331.622C436.543 327.306 440.257 323.444 443.384 319.12C448.542 312.006 455.359 298.382 466.351 303.036C466.697 303.185 467.019 302.945 466.953 302.574C465.385 292.844 452.66 295.023 446.174 297.697C441.247 299.727 437.789 303.341 435.404 308.095C433.754 311.387 432.929 314.977 431.765 318.443C430.346 322.66 428.489 326.712 426.508 330.69C426.756 330.797 427.012 330.904 427.259 331.003C428.324 325.928 429.702 320.919 430.478 315.786C431.229 310.867 430.989 306.147 430.106 301.27C429.157 296.021 428.084 290.707 426.236 285.689C425.435 283.519 424.685 281.382 424.206 279.112C423.76 277.016 423.57 274.953 422.572 273.014C422.432 272.733 422.011 272.758 421.862 273.014C418.099 279.426 417.554 287.753 417.109 295.023C416.539 304.307 417.819 313.855 420.888 322.627C421.136 322.52 421.392 322.413 421.639 322.314C419.155 318.93 417.794 314.507 416.11 310.669C414.171 306.238 412.042 301.831 409.112 297.961C406.471 294.47 403.237 291.194 399.762 288.52C397.773 286.993 395.587 285.739 393.697 284.088C392.178 282.768 390.825 281.431 388.952 280.622C388.655 280.499 388.357 280.639 388.333 280.977C387.953 286.292 388.159 291.359 390.478 296.236C392.855 301.237 395.999 306.056 399.011 310.694C400.299 312.675 401.751 314.507 403.451 316.149C405.308 317.94 407.52 319.351 409.451 321.084C413.197 324.443 415.879 328.561 417.802 333.182C417.992 333.652 418.784 333.438 418.586 332.951Z" fill="#FFBC45"/>
<path d="M412.958 333.47C408.287 325.911 404.557 315.661 395.595 312.195C390.825 310.355 385.065 311.403 380.592 313.524C375.542 315.925 371.523 320.184 367.974 324.392C367.719 324.689 367.95 325.209 368.379 325.086C376.029 322.833 385.635 322.362 392.723 326.596C396.107 328.618 398.764 332.042 401.43 334.889C403.196 336.771 404.491 339.932 407.223 340.592C407.743 340.716 407.957 339.923 407.446 339.8C405.614 339.362 404.376 337.357 403.311 335.954C402.304 334.617 401.157 333.445 400.019 332.224C397.287 329.294 394.613 326.356 390.867 324.755C383.819 321.752 375.377 322.181 368.156 324.302C368.288 324.533 368.42 324.764 368.56 324.995C375.072 317.295 384.521 309.282 395.381 313.012C399.829 314.539 403.022 318.624 405.523 322.404C407.974 326.109 409.913 330.128 412.249 333.907C412.529 334.337 413.239 333.924 412.958 333.47Z" fill="#FFBC45"/>
<path d="M400.464 297.613C403.806 304.628 409.731 309.802 413.998 316.19C416.118 319.367 417.959 322.915 419.56 326.373C421.524 330.631 420.905 335.013 420.872 339.569C420.872 340.105 421.697 340.097 421.697 339.569C421.722 335.723 422.382 331.655 421.095 327.966C419.749 324.095 417.488 320.398 415.409 316.883C411.266 309.868 404.714 304.628 401.173 297.201C400.951 296.714 400.241 297.135 400.464 297.613Z" fill="#FFBC45"/>
<path d="M389.142 318.84C395.257 322.083 401.232 325.458 405.465 331.062C406.967 333.05 408.436 335.064 409.971 337.036C410.417 337.614 411.663 339.768 412.604 339.669C413.124 339.611 413.132 338.786 412.604 338.844C411.919 338.918 409.682 335.32 409.352 334.874C407.966 333.042 406.621 331.177 405.209 329.362C401.215 324.245 395.191 321.101 389.563 318.122C389.093 317.883 388.672 318.592 389.142 318.84Z" fill="#FFBC45"/>
<path d="M423.357 296.162C423.423 299.801 424.413 303.292 424.834 306.89C425.346 311.198 424.933 315.662 424.298 319.929C423.134 327.785 423.67 335.765 421.508 343.489C421.781 343.522 422.053 343.563 422.317 343.597C422.317 343.283 422.317 342.978 422.317 342.664C422.317 342.136 421.492 342.136 421.492 342.664C421.492 342.978 421.492 343.283 421.492 343.597C421.492 344.067 422.177 344.158 422.3 343.704C424.397 336.235 424.215 328.42 425.024 320.762C425.461 316.611 425.981 312.584 425.775 308.392C425.577 304.266 424.248 300.296 424.174 296.162C424.174 295.634 423.348 295.634 423.357 296.162Z" fill="#FFBC45"/>
<path d="M450.226 301.386C443.913 305.38 439.333 312.279 435.726 318.683C432.26 324.847 429.215 332.448 422.316 335.485C421.829 335.699 422.25 336.409 422.729 336.194C428.868 333.488 432.095 327.133 435.116 321.522C438.945 314.4 443.657 306.51 450.638 302.095C451.084 301.815 450.671 301.105 450.226 301.386Z" fill="#FFBC45"/>
<path d="M278.369 165.829C278.369 170.22 274.812 173.785 270.422 173.785C266.032 173.785 262.467 170.228 262.467 165.829V160.308C262.467 155.918 266.024 152.361 270.422 152.361C274.812 152.361 278.369 155.918 278.369 160.308V165.829Z" fill="#FFBC45"/>
<path d="M359.375 252.636C357.18 241.925 347.69 212.967 324.575 202.495C301.451 192.031 279.789 200.547 271.759 205.416C263.73 210.285 254.479 229.274 250.344 247.033C246.202 264.801 232.09 264.561 221.139 268.448L226.247 286.95L339.181 287.676C339.181 287.676 339.181 287.676 339.421 284.755C368.865 283.063 361.57 263.348 359.375 252.636ZM243.883 280.992C248.389 280.992 268.467 265.898 272.601 266.385C274.672 277.46 274.912 283.302 275.159 284.029C275.407 284.763 245.104 290.119 243.883 280.992Z" fill="#FFBC45"/>
<path d="M284.006 210.532C282.545 217.506 276.546 260.187 286.762 288.253C294.709 288.905 306.56 288.253 306.56 288.253C304.29 273.49 299.743 232.599 309.151 209.229C299.743 209.394 284.006 210.532 284.006 210.532Z" fill="#FFE4B5"/>
<path d="M289.196 197.875C281.167 198.362 279.302 207.043 282.949 212.399C286.597 217.755 293.496 213.373 294.709 210.699C303.39 218.894 314.672 211.508 317.098 199.344C317.106 198.362 303.316 195.688 289.196 197.875Z" fill="#FFE4B5"/>
<path d="M312.073 153.881C311.71 145.785 303.391 130.328 283.676 131.203C269.639 132.284 267.939 145.579 267.939 145.579C267.452 147.072 264.935 150.225 264.935 150.225C264.209 143.994 268.145 127.489 285.871 127.044C305.826 126.549 315.357 142.162 315.728 153.377C314.144 156.001 312.073 153.881 312.073 153.881Z" fill="#FFBC45"/>
<path d="M272.924 138.556C266.181 143.177 262.146 150.86 265.563 158.502C268.979 166.144 269.945 169.511 266.635 175.494C261.973 183.903 260.009 191.759 263.516 198.906C284.659 195.984 293.959 193.608 293.959 193.608C293.959 193.608 285.781 137.665 272.924 138.556Z" fill="#31241C"/>
<path d="M304.307 177.053C304.307 177.053 309.539 192.807 310.034 199.466C310.488 205.573 290.286 209.641 288.85 203.246C287.357 195.629 285.137 182.689 285.137 182.689" fill="#C97440"/>
<path d="M305.982 183.63L304.307 177.053L285.137 182.689C285.137 182.689 285.822 186.667 286.696 191.651C288.124 191.924 289.593 192.056 291.103 191.981C297.342 191.701 302.731 188.433 305.982 183.63Z" fill="#AB5D2D"/>
<path d="M270.794 169.395C271.264 179.883 280.144 188.012 290.633 187.542C301.121 187.071 309.25 178.192 308.78 167.695L307.88 147.608C307.41 137.12 298.522 128.991 288.033 129.461C277.544 129.932 269.416 138.811 269.886 149.3L270.794 169.395Z" fill="#C97440"/>
<path d="M295.889 148.599C293.488 147.312 290.335 146.709 287.826 148.005C286.886 148.492 287.719 149.903 288.652 149.416C290.607 148.409 293.207 149.012 295.055 150.01C295.988 150.514 296.813 149.103 295.889 148.599Z" fill="#31241C"/>
<path d="M272.956 151.248C274.087 150.175 275.712 149.779 277.223 150.093C278.254 150.307 278.692 148.723 277.66 148.516C275.564 148.087 273.369 148.599 271.801 150.093C271.033 150.819 272.197 151.974 272.956 151.248Z" fill="#31241C"/>
<path d="M284.286 165.904C284.138 165.904 283.997 165.855 283.873 165.748L280.168 162.488C280.02 162.356 279.937 162.158 279.962 161.96C279.987 161.762 280.102 161.58 280.275 161.481L284.006 159.385C284.303 159.22 284.682 159.327 284.847 159.624C285.012 159.922 284.913 160.301 284.608 160.466L281.637 162.141L284.691 164.823C284.946 165.046 284.971 165.442 284.748 165.698C284.633 165.83 284.459 165.904 284.286 165.904Z" fill="#31241C"/>
<path d="M285.665 171.152C284.666 171.152 283.684 170.888 282.917 170.368C282.636 170.179 282.562 169.791 282.752 169.51C282.941 169.23 283.329 169.155 283.61 169.345C284.658 170.063 286.432 170.096 287.637 169.428C288.363 169.023 289.213 168.19 289.139 166.515C289.122 166.176 289.387 165.887 289.725 165.871C290.063 165.854 290.352 166.118 290.369 166.457C290.451 168.256 289.692 169.692 288.239 170.509C287.472 170.938 286.556 171.152 285.665 171.152Z" fill="#31241C"/>
<path d="M288.446 159.046C288.9 160.243 290.228 160.845 291.425 160.391C292.613 159.946 293.224 158.609 292.77 157.412C292.316 156.216 290.987 155.613 289.791 156.067C288.603 156.521 288 157.858 288.446 159.046Z" fill="#1A191F"/>
<path d="M274.632 159.88C275.086 161.068 276.414 161.679 277.611 161.225C278.799 160.779 279.41 159.434 278.956 158.246C278.502 157.049 277.173 156.455 275.977 156.901C274.78 157.355 274.178 158.683 274.632 159.88Z" fill="#1A191F"/>
<path d="M275.226 159.335C275.127 159.335 275.028 159.31 274.945 159.253L272.692 157.874C272.436 157.718 272.354 157.379 272.511 157.123C272.667 156.868 273.006 156.785 273.262 156.942L275.515 158.32C275.77 158.477 275.853 158.815 275.696 159.071C275.589 159.236 275.407 159.335 275.226 159.335Z" fill="#1A191F"/>
<path d="M291.598 158.518C291.425 158.518 291.26 158.436 291.152 158.287C290.979 158.04 291.045 157.701 291.293 157.528L293.653 155.894C293.9 155.721 294.239 155.787 294.412 156.034C294.585 156.282 294.519 156.62 294.272 156.793L291.911 158.427C291.812 158.485 291.705 158.518 291.598 158.518Z" fill="#1A191F"/>
<path d="M326.868 169.519C323.716 162.727 327.611 158.51 325.928 152.032C324.459 146.371 317.717 146.544 314.242 138.523C308.92 126.227 281.513 115.152 271.297 140.107C282.652 132.408 294.296 136.41 298.72 142.104C307.632 153.583 298.489 158.452 301.93 165.277C304.438 170.253 306.081 173.604 302.838 181.13C299.603 188.656 304.133 195.819 304.133 195.819C314.737 194.647 326.728 193.599 337.621 191.759C337.613 173.389 330.013 176.311 326.868 169.519Z" fill="#31241C"/>
<path d="M278.65 263.589C269.399 264.398 265.834 267.162 257.557 271.544C249.28 275.926 247.497 276.9 249.445 277.709C244.576 278.031 247.415 280.63 250.823 279.491C248.554 280.465 251.714 281.521 256.261 279.813C257.4 281.596 263.243 280.787 266.973 278.674C270.703 276.562 279.632 274.779 287.744 277.535C288.718 272.51 285.64 263.746 285.64 263.746L278.65 263.589Z" fill="#C97440"/>
<path d="M284.534 263.711C289.527 262.613 303.482 261.475 311.759 261.97C312.246 268.456 308.672 281.602 308.672 281.602L286.606 276.733C286.597 276.733 287.695 269.793 284.534 263.711Z" fill="#FFBC45"/>
<path d="M284.113 263.828C293.966 262.4 303.927 262.433 313.863 262.153C318.649 262.021 323.237 261.459 327.974 260.923C332.48 260.411 337.819 261.385 342.143 262.697C342.655 262.854 342.87 262.054 342.366 261.905C338.364 260.692 333.685 259.9 329.501 259.99C327.429 260.032 325.342 260.461 323.303 260.766C320.456 261.187 317.551 261.22 314.68 261.311C304.397 261.641 294.106 261.567 283.898 263.044C283.37 263.11 283.593 263.902 284.113 263.828Z" fill="#1F0E03"/>
<path d="M328.065 238.55C329.006 245.4 329.493 252.29 329.51 259.214C329.51 259.742 330.335 259.742 330.335 259.214C330.318 252.224 329.807 245.259 328.858 238.336C328.792 237.807 327.991 238.03 328.065 238.55Z" fill="#1F0E03"/>
<path d="M285.954 277.146C288.941 277.113 291.697 278.434 294.528 279.201C297.895 280.117 301.188 281.256 304.546 282.18C311.338 284.045 318.402 285.225 325.433 285.63C336.623 286.273 350.157 285.729 358.608 277.353C358.987 276.981 358.401 276.395 358.022 276.767C349.192 285.523 334.676 285.531 323.089 284.648C316.157 284.12 309.209 282.7 302.541 280.753C299.545 279.878 296.558 278.962 293.571 278.071C291.054 277.32 288.619 276.288 285.945 276.321C285.417 276.329 285.417 277.155 285.954 277.146Z" fill="#1F0E03"/>
<path d="M269.49 230.058C268.756 232.27 268.97 234.654 269.003 236.957C269.044 240.126 269.284 243.278 269.449 246.439C269.614 249.558 269.705 252.678 269.96 255.797C270.191 258.669 271.281 261.4 271.429 264.248C271.454 264.776 272.279 264.776 272.255 264.248C272.114 261.64 271.116 259.181 270.86 256.573C270.571 253.726 270.48 250.854 270.357 247.99C270.233 245.102 270.035 242.222 269.911 239.342C269.787 236.453 269.375 233.054 270.299 230.281C270.456 229.769 269.655 229.554 269.49 230.058Z" fill="#1F0E03"/>
<path d="M281.984 201.819C280.689 206.391 279.781 212.217 284.898 214.783C286.746 215.708 288.85 215.254 290.633 214.445C291.887 213.876 292.977 212.918 294.008 212.035C295.056 211.136 295.51 212.497 296.443 213.158C303.969 218.538 313.88 211.086 316.372 203.659C316.545 203.156 315.745 202.941 315.58 203.436C312.923 211.359 301.551 218.637 295.015 210.558C294.866 210.377 294.586 210.418 294.429 210.558C291.714 213.001 288.19 215.889 284.485 213.603C280.449 211.111 281.745 205.722 282.785 202.033C282.925 201.53 282.133 201.307 281.984 201.819Z" fill="#1F0E03"/>
<path d="M255.882 280.539C258.481 280.077 260.569 278.451 262.756 277.081C265.776 275.191 269.16 274.102 272.436 272.749C272.923 272.551 272.708 271.75 272.213 271.957C269.514 273.071 266.75 274.011 264.134 275.34C261.295 276.776 258.877 279.177 255.659 279.747C255.139 279.838 255.362 280.63 255.882 280.539Z" fill="#1F0E03"/>
<path d="M249.973 280.497C256.542 277.724 262.599 273.821 269.341 271.453C269.837 271.279 269.622 270.479 269.119 270.66C262.302 273.054 256.187 276.99 249.552 279.788C249.074 279.994 249.494 280.704 249.973 280.497Z" fill="#1F0E03"/>
<path d="M248.512 278.55C251.104 276.974 254.066 276.24 256.74 274.828C259.381 273.425 262.005 271.99 264.745 270.768C265.232 270.554 264.811 269.844 264.332 270.058C261.601 271.28 258.968 272.716 256.327 274.119C253.662 275.538 250.699 276.264 248.1 277.841C247.646 278.113 248.058 278.831 248.512 278.55Z" fill="#1F0E03"/>
<path d="M291.309 217.581C291.59 219.05 293.661 218.992 294.329 217.862C294.701 217.234 294.296 216.492 293.719 216.162C293.017 215.757 291.953 215.831 291.474 216.525C291.169 216.962 291.887 217.375 292.184 216.937C292.547 216.409 294.065 216.962 293.529 217.548C293.125 217.994 292.225 218.035 292.101 217.35C292.01 216.838 291.218 217.061 291.309 217.581Z" fill="#1F0E03"/>
<path d="M290.22 223.687C290.014 225.148 291.705 225.561 292.687 224.744C293.191 224.331 293.447 223.53 293.026 222.969C292.588 222.383 291.73 222.474 291.119 222.672C290.616 222.829 290.831 223.629 291.342 223.464C291.648 223.365 292.052 223.25 292.349 223.431C292.605 223.58 292.258 224.042 292.126 224.141C291.821 224.364 290.93 224.521 291.02 223.902C291.095 223.382 290.294 223.159 290.22 223.687Z" fill="#1F0E03"/>
<path d="M289.716 231.584C289.791 233.243 292.233 232.583 292.473 231.328C292.77 229.802 290.112 228.968 289.848 230.619C289.766 231.139 290.566 231.361 290.641 230.842C290.74 230.206 291.647 230.644 291.664 231.139C291.672 231.527 290.558 232.063 290.533 231.584C290.517 231.056 289.692 231.048 289.716 231.584Z" fill="#1F0E03"/>
<path d="M273.657 276.734C273.534 277.947 273.707 279.358 274.161 280.497C274.359 280.984 275.151 280.769 274.953 280.274C274.524 279.185 274.359 277.889 274.483 276.734C274.532 276.206 273.707 276.206 273.657 276.734Z" fill="#1F0E03"/>
<path d="M283.956 263.951C285.499 265.032 285.614 267.178 286.052 268.853C286.629 271.065 287.059 273.805 286.077 275.967C285.862 276.445 286.572 276.866 286.786 276.379C287.892 273.945 287.43 271.156 286.844 268.63C286.39 266.675 286.118 264.471 284.368 263.242C283.939 262.928 283.527 263.646 283.956 263.951Z" fill="#1F0E03"/>
<path d="M264.052 170.592C262.756 180.214 276.975 180.247 283.115 179.958C283.643 179.934 283.643 179.108 283.115 179.133C277.693 179.389 263.664 179.653 264.852 170.815C264.918 170.287 264.126 170.064 264.052 170.592Z" fill="#1F0E03"/>
<path d="M287.901 179.422C287.901 180.792 286.539 181.898 284.856 181.898C283.172 181.898 281.819 180.792 281.819 179.422C281.819 178.052 283.18 176.946 284.856 176.946C286.539 176.946 287.901 178.052 287.901 179.422Z" fill="#FFBC45"/>
<path d="M285.871 127.052C275.761 127.308 270.142 132.779 267.311 138.597C268.277 138.704 269.316 138.985 270.183 139.397C272.279 135.766 276.248 131.781 283.676 131.203C303.39 130.328 311.709 145.785 312.072 153.88C312.072 153.88 314.143 156.001 315.72 153.385C315.356 142.17 305.825 126.549 285.871 127.052Z" fill="#FFBC45"/>
<path d="M322.14 165.829C322.14 170.22 318.583 173.785 314.193 173.785C309.802 173.785 306.237 170.228 306.237 165.829V160.308C306.237 155.918 309.794 152.361 314.193 152.361C318.583 152.361 322.14 155.918 322.14 160.308V165.829Z" fill="#FFBC45"/>
<path d="M320.267 164.98C319.978 170.344 312.773 171.574 310.801 166.54C310.215 165.038 310.545 162.909 310.545 161.324C310.545 155.836 318.096 154.887 320.011 159.764C320.597 161.266 320.267 163.396 320.267 164.98C320.267 165.516 321.092 165.516 321.092 164.98C321.092 161.671 321.414 158.477 318.278 156.414C314.473 153.914 309.943 157.272 309.72 161.324C309.547 164.584 309.514 167.91 312.534 169.89C316.339 172.391 320.869 169.032 321.092 164.98C321.117 164.452 320.291 164.452 320.267 164.98Z" fill="#1F0E03"/>
<path d="M227.213 280.464C231.76 280.464 287.736 280.464 290.658 280.464C293.579 280.464 294.231 286.307 289.362 286.307C284.493 286.307 143.814 286.307 143.814 286.307C139.432 277.543 119.8 224.001 117.852 218.967C115.905 213.941 117.687 208.099 125.643 208.099C133.59 208.099 175.619 208.099 181.462 208.099C187.305 208.099 193.791 209.072 197.851 217.993C201.903 226.922 227.213 280.464 227.213 280.464Z" fill="#5F7E91"/>
<path d="M290.855 286.075C291.045 286.009 291.219 285.927 291.384 285.844C291.4 285.836 291.417 285.828 291.425 285.82C293.917 284.425 293.059 280.464 290.657 280.464C290.179 280.464 288.297 280.464 285.467 280.464C270.885 280.464 231.017 280.464 227.213 280.464C227.213 280.464 227.196 280.423 227.163 280.357C227.13 280.299 227.097 280.216 227.04 280.101C226.817 279.622 226.371 278.69 225.752 277.377C220.306 265.857 201.309 225.627 197.843 217.993C193.783 209.064 187.296 208.099 181.453 208.099C180.529 208.099 178.705 208.099 176.263 208.099C182.105 208.099 188.592 209.072 192.652 217.993C196.704 226.922 222.022 280.464 222.022 280.464L224.217 286.15C224.217 286.15 226.949 286.216 231.323 286.307C254.05 286.307 274.771 286.307 284.179 286.307C287.059 286.307 288.891 286.307 289.37 286.307C289.659 286.307 289.931 286.282 290.187 286.241C290.352 286.216 290.492 286.175 290.641 286.133C290.699 286.117 290.789 286.1 290.855 286.075Z" fill="#49687A"/>
<path d="M174.48 248.016C176.081 251.977 174.183 255.187 170.239 255.187C166.294 255.187 161.797 251.977 160.196 248.016C158.595 244.055 160.493 240.845 164.437 240.845C168.382 240.845 172.88 244.055 174.48 248.016Z" stroke="#1F0E03" stroke-width="0.825239" stroke-miterlimit="10"/>
<path d="M365.094 290.837H136.206V327.123C161.335 332.47 195.194 336.341 228.542 336.761C274.194 337.339 321.538 336.819 365.086 334.698V290.837H365.094Z" fill="#F5CDB3"/>
<path d="M374.593 289.937C374.593 292.1 372.835 293.857 370.673 293.857H130.627C128.465 293.857 126.708 292.1 126.708 289.937C126.708 287.775 128.465 286.018 130.627 286.018H370.665C372.835 286.009 374.593 287.767 374.593 289.937Z" fill="#C97440"/>
<path d="M108.626 150.936C114.064 156.093 118.512 156.093 118.496 150.936C118.488 145.778 118.463 137.344 118.455 132.195C118.446 127.037 113.99 122.82 108.56 122.82C103.13 122.82 94.2421 122.82 88.812 122.82C83.382 122.82 83.3902 127.037 88.8285 132.195C94.2751 137.352 103.179 145.786 108.626 150.936Z" fill="#FFBC45"/>
<path d="M238.396 101.05C238.396 118.545 224.218 132.723 206.723 132.723H90.4466C72.9515 132.723 58.7739 118.545 58.7739 101.05V59.3177C58.7739 41.8226 72.9515 27.645 90.4466 27.645H206.723C224.218 27.645 238.396 41.8226 238.396 59.3177V101.05Z" fill="#FFBC45"/>
<path d="M150.59 46.5326V59.3833H148.11V53.8991H142.282V59.3833H139.784V46.5326H142.282V51.7272H148.11V46.5326H150.59ZM162.194 57.1933V59.3833H153.27V46.5326H162.031V48.7227H155.768V51.8177H161.18V53.8448H155.768V57.1933H162.194ZM164.141 59.3833V46.5326H166.639V57.1933H173.191V59.3833H164.141ZM174.711 59.3833V46.5326H180.159C180.75 46.5326 181.293 46.6533 181.788 46.8946C182.294 47.1359 182.729 47.4617 183.091 47.872C183.453 48.2822 183.736 48.7408 183.941 49.2475C184.147 49.7543 184.249 50.2732 184.249 50.8041C184.249 51.5281 184.08 52.2159 183.742 52.8675C183.405 53.519 182.934 54.05 182.331 54.4602C181.739 54.8705 181.046 55.0756 180.249 55.0756H177.208V59.3833H174.711ZM177.208 52.8856H180.104C180.563 52.8856 180.943 52.6985 181.245 52.3245C181.558 51.9383 181.715 51.4316 181.715 50.8041C181.715 50.1405 181.54 49.6276 181.19 49.2656C180.84 48.9037 180.442 48.7227 179.996 48.7227H177.208V52.8856ZM186.223 54.5507V46.4059H188.648V54.5507H186.223ZM186.223 59.3833V56.6503H188.648V59.3833H186.223Z" fill="#C97440"/>
<path d="M221.412 68.8901H140.316V74.1634H221.412V68.8901Z" fill="#FFF2DB"/>
<path d="M210.346 81.7061H140.316V86.9793H210.346V81.7061Z" fill="#FFF2DB"/>
<path d="M186.769 94.5142H140.316V99.7874H186.769V94.5142Z" fill="#FFF2DB"/>
<path d="M215.446 107.33H140.316V112.603H215.446V107.33Z" fill="#FFF2DB"/>
<path d="M124.215 110.647C121.797 104.648 113.437 100.356 109.163 100.414H94.7374C89.9923 100.86 82.103 104.648 79.6851 110.647C85.3379 116.242 93.219 119.716 101.95 119.716C110.681 119.716 118.57 116.234 124.215 110.647Z" fill="#31241C"/>
<path d="M96.0662 88.0938C96.0662 88.0938 94.6881 99.4408 93.7308 105.861C93.0376 110.549 109.856 111.869 110.368 106.81C110.813 100.819 111.325 90.6602 111.325 90.6602" fill="#C97440"/>
<path d="M95.3813 93.3093L96.0663 88.0938L111.333 90.6602C111.333 90.6602 111.176 93.7796 110.962 97.6995C109.889 98.0379 108.775 98.2772 107.603 98.3597C102.767 98.7228 98.3192 96.701 95.3813 93.3093Z" fill="#AB5D2D"/>
<path d="M121.128 79.1229C121.739 87.235 115.649 94.2991 107.537 94.9098C99.4244 95.5122 92.3604 89.4302 91.7497 81.3181L90.5861 65.7871C89.9755 57.675 96.0657 50.6109 104.178 50.0085C112.29 49.3978 119.354 55.4881 119.965 63.5919L121.128 79.1229Z" fill="#C97440"/>
<path d="M101.075 67.4042C103.139 66.9669 104.797 66.0426 106.035 64.3178C106.654 63.4596 105.226 62.6426 104.624 63.4926C103.642 64.8708 102.256 65.4814 100.638 65.828C99.6065 66.0426 100.044 67.6271 101.075 67.4042Z" fill="#31241C"/>
<path d="M117.745 64.1868C116.59 63.9723 115.88 63.4194 115.311 62.3961C114.799 61.4718 113.388 62.297 113.9 63.2213C114.65 64.5829 115.765 65.4742 117.308 65.763C118.339 65.9611 118.777 64.3849 117.745 64.1868Z" fill="#31241C"/>
<path d="M110.367 77.819C110.219 77.819 110.07 77.7695 109.955 77.6622C109.699 77.4311 109.674 77.0433 109.905 76.7875L111.869 74.5841L109.608 73.6433C109.294 73.5112 109.146 73.1481 109.27 72.8346C109.402 72.521 109.765 72.3642 110.078 72.4962L113.14 73.7671C113.322 73.8414 113.462 74.0064 113.503 74.2045C113.544 74.4025 113.495 74.6088 113.363 74.7574L110.813 77.6127C110.714 77.7447 110.54 77.819 110.367 77.819Z" fill="#31241C"/>
<path d="M106.654 84.0744C106.464 84.0744 106.266 83.9836 106.15 83.8103C105.952 83.5297 106.018 83.1419 106.299 82.9438C108.733 81.2191 110.92 80.5259 112.81 80.8807C113.148 80.9467 113.363 81.2686 113.305 81.6069C113.239 81.9453 112.917 82.1598 112.579 82.1021C111.044 81.8132 109.171 82.4322 107.017 83.9589C106.901 84.0414 106.777 84.0744 106.654 84.0744Z" fill="#31241C"/>
<path d="M106.596 72.7854C106.356 73.7427 105.391 74.3286 104.425 74.0975C103.468 73.8582 102.882 72.8927 103.121 71.9272C103.361 70.9699 104.326 70.3757 105.284 70.615C106.249 70.8544 106.835 71.8281 106.596 72.7854Z" fill="#1A191F"/>
<path d="M117.299 72.1497C117.06 73.107 116.095 73.7012 115.129 73.4619C114.172 73.2308 113.586 72.257 113.817 71.2915C114.056 70.3342 115.022 69.7483 115.987 69.9876C116.953 70.2187 117.539 71.1925 117.299 72.1497Z" fill="#1A191F"/>
<path d="M94.5809 77.4143C95.2824 80.2861 93.5164 83.1744 90.6445 83.8759C87.7727 84.5773 84.8844 82.8113 84.1829 79.9395L83.7868 78.2973C83.0936 75.4254 84.8514 72.5371 87.7232 71.8356C90.595 71.1424 93.4834 72.9002 94.1848 75.772L94.5809 77.4143Z" fill="#C97440"/>
<path d="M86.51 72.3726C85.2556 68.7911 79.1241 54.2256 88.2347 53.7882C88.8041 48.0693 96.7512 45.0572 106.679 43.1014C116.606 41.1538 122.796 45.8082 122.045 50.4543C121.294 55.1086 115.195 56.8003 110.359 55.4222C108.973 60.4479 102.313 58.7562 100.869 57.7494C99.7551 62.6183 94.226 63.7984 94.8531 67.1901C95.4803 70.5818 95.7609 74.0396 95.8929 74.7328C96.0167 75.426 93.1284 76.7794 92.5012 75.393C91.8658 74.0066 89.3818 71.5309 86.51 72.3726Z" fill="#31241C"/>
<path d="M113.957 151.91C119.981 153.106 116.532 132.665 116.491 129.579C116.35 129.719 116.218 129.851 116.078 129.991C129.051 130.107 142.015 130.14 154.988 130.024C164.255 129.942 173.523 129.702 182.799 129.702C188.501 129.702 194.17 129.496 199.864 129.273C205.971 129.034 212.062 129.059 218.003 127.474C229.383 124.454 233.526 112.414 234.706 101.859C234.764 101.331 233.939 101.339 233.881 101.859C233.006 109.699 230.629 118.289 224.325 123.505C219.571 127.441 212.573 127.936 206.681 128.225C200.814 128.514 194.921 128.762 189.037 128.844C170.453 129.108 151.852 129.29 133.259 129.249C127.532 129.232 121.797 129.207 116.07 129.158C115.847 129.158 115.657 129.348 115.657 129.57C115.69 132.17 118.38 151.943 114.172 151.109C113.66 151.01 113.437 151.811 113.957 151.91Z" fill="#1F0E03"/>
<path d="M234.319 66.5463C234.327 76.7958 234.764 87.1031 234.063 97.3443C234.03 97.8724 234.855 97.8724 234.888 97.3443C235.59 87.1113 235.144 76.8041 235.144 66.5463C235.144 66.0099 234.319 66.0099 234.319 66.5463Z" fill="#1F0E03"/>
<path d="M554.726 200.45C554.726 218.589 540.02 233.286 521.89 233.286H401.339C383.2 233.286 368.502 218.58 368.502 200.45V157.191C368.502 139.052 383.208 124.354 401.339 124.354H521.89C540.028 124.354 554.726 139.06 554.726 157.191V200.45Z" fill="#FFBC45"/>
<path d="M405.679 252.176C400.035 257.515 395.43 257.515 395.438 252.176C395.446 246.836 395.471 238.089 395.479 232.741C395.488 227.394 400.109 223.028 405.737 223.028C411.365 223.028 420.583 223.028 426.211 223.028C431.839 223.028 431.831 227.402 426.195 232.741C420.55 238.081 411.316 246.828 405.679 252.176Z" fill="#FFBC45"/>
<path d="M403.938 148.866H399.679V159.918H397.108V148.866H392.848V146.595H403.938V148.866ZM416.795 146.595V159.918H414.224V154.232H408.182V159.918H405.592V146.595H408.182V151.98H414.224V146.595H416.795ZM423.196 146.595H425.823L430.72 159.918H428.056L426.817 156.597H422.163L420.944 159.918H418.279L423.196 146.595ZM426.348 154.776L424.509 149.278L422.595 154.776H426.348ZM434.771 151.361V159.918H432.181V146.595H434.246L441.132 155.377V146.614H443.722V159.918H441.564L434.771 151.361ZM446.493 159.918V146.614H449.083V152.937L454.675 146.595H457.527L452.423 152.506L457.846 159.918H454.919L450.772 154.176L449.083 155.94V159.918H446.493ZM466.983 150.085C466.871 149.96 466.633 149.798 466.27 149.597C465.907 149.385 465.47 149.197 464.957 149.034C464.456 148.859 463.937 148.772 463.399 148.772C461.986 148.772 461.279 149.272 461.279 150.273C461.279 150.636 461.391 150.923 461.617 151.136C461.842 151.349 462.179 151.53 462.63 151.68C463.08 151.83 463.643 151.993 464.319 152.168C465.194 152.393 465.951 152.656 466.589 152.956C467.24 153.256 467.734 153.657 468.072 154.157C468.422 154.645 468.597 155.296 468.597 156.109C468.597 157.059 468.366 157.829 467.903 158.417C467.452 158.992 466.852 159.411 466.101 159.674C465.351 159.937 464.538 160.068 463.662 160.068C462.661 160.068 461.667 159.918 460.678 159.618C459.703 159.305 458.833 158.88 458.07 158.342L459.215 156.109C459.327 156.221 459.527 156.371 459.815 156.559C460.103 156.734 460.453 156.916 460.866 157.103C461.279 157.278 461.729 157.429 462.217 157.554C462.705 157.679 463.199 157.741 463.699 157.741C465.126 157.741 465.839 157.285 465.839 156.371C465.839 155.984 465.695 155.671 465.407 155.433C465.119 155.196 464.713 154.995 464.187 154.833C463.674 154.67 463.074 154.489 462.386 154.289C461.535 154.051 460.828 153.788 460.265 153.5C459.715 153.2 459.302 152.831 459.027 152.393C458.752 151.943 458.614 151.374 458.614 150.686C458.614 149.773 458.827 149.009 459.252 148.396C459.69 147.771 460.278 147.302 461.016 146.989C461.754 146.664 462.574 146.501 463.474 146.501C464.4 146.501 465.263 146.651 466.064 146.952C466.864 147.252 467.552 147.596 468.128 147.984L466.983 150.085ZM470.798 154.908V146.464H473.312V154.908H470.798ZM470.798 159.918V157.084H473.312V159.918H470.798Z" fill="#C97440"/>
<path d="M474.439 169.404H390.363V174.867H474.439V169.404Z" fill="#FFF2DB"/>
<path d="M462.968 182.683H390.363V188.154H462.968V182.683Z" fill="#FFF2DB"/>
<path d="M438.524 195.969H390.363V201.432H438.524V195.969Z" fill="#FFF2DB"/>
<path d="M493.732 212.432C496.241 206.21 504.906 201.762 509.338 201.82H524.291C529.209 202.282 537.388 206.21 539.896 212.432C534.037 218.234 525.867 221.832 516.814 221.832C507.761 221.832 499.592 218.226 493.732 212.432Z" fill="#31241C"/>
<path d="M522.921 189.054C522.921 189.054 524.357 200.822 525.339 207.473C526.066 212.334 508.62 213.695 508.092 208.463C507.63 202.249 507.093 191.719 507.093 191.719" fill="#C97440"/>
<path d="M523.631 194.459L522.921 189.054L507.101 191.719C507.101 191.719 507.266 194.954 507.489 199.014C508.603 199.369 509.758 199.609 510.971 199.699C515.972 200.071 520.577 197.975 523.631 194.459Z" fill="#AB5D2D"/>
<path d="M496.935 179.745C496.307 188.155 502.612 195.483 511.021 196.11C519.431 196.737 526.759 190.432 527.386 182.015L528.591 165.914C529.218 157.505 522.913 150.177 514.504 149.55C506.095 148.923 498.767 155.227 498.139 163.637L496.935 179.745Z" fill="#C97440"/>
<path d="M517.838 166.114C517.012 164.521 515.172 163.415 513.348 163.621C512.309 163.745 512.3 165.379 513.348 165.255C514.636 165.107 515.832 165.792 516.418 166.931C516.913 167.871 518.325 167.046 517.838 166.114Z" fill="#31241C"/>
<path d="M501.25 165.659C501.968 164.908 503.28 164.397 504.304 164.644C505.327 164.892 505.764 163.316 504.741 163.068C503.157 162.688 501.217 163.332 500.095 164.504C499.369 165.263 500.524 166.427 501.25 165.659Z" fill="#31241C"/>
<path d="M508.083 178.375C507.91 178.375 507.745 178.309 507.621 178.169L504.98 175.214C504.848 175.066 504.79 174.859 504.84 174.661C504.881 174.463 505.021 174.306 505.203 174.224L508.38 172.904C508.694 172.772 509.057 172.92 509.189 173.242C509.321 173.556 509.172 173.919 508.851 174.051L506.482 175.033L508.545 177.335C508.776 177.591 508.752 177.979 508.496 178.21C508.38 178.317 508.232 178.375 508.083 178.375Z" fill="#31241C"/>
<path d="M507.843 186.851C506.143 186.851 504.996 185.052 504.336 181.355C504.303 181.157 504.361 180.959 504.501 180.818C504.642 180.678 504.84 180.612 505.038 180.637C506.077 180.794 507.406 180.951 509.321 180.951C510.303 180.951 511.376 180.909 512.597 180.827C512.82 180.81 513.042 180.926 513.166 181.116C513.29 181.314 513.29 181.561 513.175 181.751C511.144 185.184 509.403 186.851 507.843 186.851ZM505.723 181.974C506.242 184.301 507.002 185.613 507.843 185.613C508.388 185.613 509.552 185.134 511.483 182.131C509.255 182.238 507.555 182.197 505.723 181.974Z" fill="#31241C"/>
<path d="M511.994 173.185C512.242 174.183 513.249 174.786 514.239 174.546C515.229 174.299 515.84 173.292 515.592 172.302C515.345 171.303 514.346 170.701 513.348 170.94C512.357 171.179 511.755 172.186 511.994 173.185Z" fill="#1A191F"/>
<path d="M500.903 172.525C501.151 173.515 502.158 174.126 503.148 173.878C504.138 173.631 504.749 172.624 504.51 171.634C504.262 170.635 503.255 170.033 502.265 170.28C501.266 170.52 500.656 171.526 500.903 172.525Z" fill="#1A191F"/>
<path d="M524.465 177.979C523.739 180.958 525.571 183.953 528.542 184.68C531.521 185.406 534.516 183.582 535.243 180.603L535.655 178.903C536.382 175.924 534.558 172.928 531.579 172.202C528.6 171.476 525.604 173.308 524.878 176.279L524.465 177.979Z" fill="#C97440"/>
<path d="M532.824 172.755C534.128 169.041 540.482 153.94 531.034 153.486C530.448 147.552 522.203 144.433 511.913 142.411C501.622 140.389 495.202 145.217 495.977 150.036C496.761 154.856 503.083 156.613 508.092 155.186C509.528 160.401 516.435 158.635 517.929 157.595C519.084 162.646 524.819 163.867 524.168 167.383C523.516 170.898 523.218 174.488 523.095 175.206C522.963 175.924 525.958 177.319 526.618 175.891C527.27 174.447 529.845 171.872 532.824 172.755Z" fill="#31241C"/>
<path d="M521.501 230.861C533.624 230.382 546.613 222.666 549.196 210.139C549.303 209.619 548.503 209.396 548.404 209.916C545.895 222.08 533.277 229.565 521.509 230.027C520.973 230.052 520.973 230.877 521.501 230.861Z" fill="#1F0E03"/>
<path d="M511.474 230.926C513.686 231.009 515.898 231.05 518.109 231.1C518.646 231.108 518.637 230.283 518.109 230.274C515.898 230.225 513.686 230.184 511.474 230.101C510.946 230.076 510.946 230.902 511.474 230.926Z" fill="#1F0E03"/>
<path d="M405.489 249.147C409.648 245.409 413.816 241.687 417.719 237.685C419.527 235.836 421.136 233.418 423.323 231.949C424.618 231.083 426.219 230.943 427.729 230.852C430.7 230.679 433.696 230.761 436.675 230.72C442.072 230.646 447.461 230.357 452.866 230.365C458.651 230.373 464.436 230.637 470.213 230.901C481.469 231.413 492.75 231.949 503.981 230.786C504.501 230.728 504.51 229.903 503.981 229.961C492.486 231.141 480.949 230.563 469.437 230.035C463.388 229.763 457.331 229.523 451.273 229.531C445.868 229.54 440.463 229.845 435.057 229.903C431.369 229.944 426.236 229.127 422.918 231.223C420.863 232.527 419.32 234.805 417.686 236.529C413.667 240.771 409.261 244.642 404.92 248.545C404.507 248.925 405.093 249.502 405.489 249.147Z" fill="#1F0E03"/>
<path d="M486.71 82.1926C486.71 91.6828 479.01 99.3823 469.52 99.3823H309.481C299.991 99.3823 292.292 91.6828 292.292 82.1926V66.1912C292.292 56.7009 299.991 49.0015 309.481 49.0015H469.528C479.018 49.0015 486.718 56.7009 486.718 66.1912V82.1926H486.71Z" fill="#F5CDB3"/>
<path d="M319.029 61.0342C319.632 59.8128 320.614 59.8128 321.216 61.0342L323.139 64.9293C323.741 66.1507 325.334 67.306 326.687 67.5041L330.987 68.1312C332.332 68.3293 332.637 69.2618 331.664 70.2191L328.552 73.256C327.579 74.205 326.968 76.0783 327.199 77.4234L327.933 81.7064C328.165 83.0516 327.364 83.6292 326.159 82.9938L322.305 80.972C321.101 80.3365 319.128 80.3365 317.923 80.972L314.078 82.9938C312.873 83.6292 312.072 83.0516 312.303 81.7064L313.038 77.4234C313.269 76.0783 312.658 74.205 311.685 73.256L308.573 70.2191C307.6 69.2701 307.905 68.3293 309.25 68.1312L313.55 67.5041C314.895 67.306 316.496 66.1507 317.098 64.9293L319.029 61.0342Z" fill="#C97440"/>
<path d="M353.416 61.0332C354.019 59.8118 355.001 59.8118 355.612 61.0332L357.534 64.9283C358.137 66.1497 359.729 67.305 361.083 67.5031L365.382 68.1303C366.728 68.3283 367.033 69.2608 366.059 70.2181L362.948 73.255C361.974 74.204 361.363 76.0773 361.595 77.4225L362.329 81.7054C362.56 83.0506 361.76 83.6283 360.555 82.9928L356.709 80.971C355.504 80.3355 353.532 80.3355 352.327 80.971L348.473 82.9928C347.268 83.6283 346.468 83.0423 346.699 81.7054L347.433 77.4225C347.664 76.0773 347.054 74.204 346.08 73.255L342.969 70.2181C341.995 69.2691 342.3 68.3283 343.646 68.1303L347.945 67.5031C349.29 67.305 350.891 66.1497 351.494 64.9283L353.416 61.0332Z" fill="#C97440"/>
<path d="M387.805 61.0332C388.408 59.8118 389.398 59.8118 390 61.0332L391.923 64.9283C392.526 66.1497 394.118 67.305 395.472 67.5031L399.771 68.1303C401.116 68.3283 401.422 69.2608 400.448 70.2181L397.337 73.255C396.363 74.204 395.752 76.0773 395.983 77.4225L396.718 81.7054C396.949 83.0506 396.148 83.6283 394.943 82.9928L391.098 80.971C389.893 80.3355 387.921 80.3355 386.716 80.971L382.87 82.9928C381.665 83.6283 380.865 83.0506 381.096 81.7054L381.83 77.4225C382.061 76.0773 381.451 74.204 380.477 73.255L377.366 70.2181C376.392 69.2691 376.697 68.3283 378.043 68.1303L382.342 67.5031C383.687 67.305 385.288 66.1497 385.891 64.9283L387.805 61.0332Z" fill="#C97440"/>
<path d="M422.184 61.0332C422.786 59.8118 423.776 59.8118 424.379 61.0332L426.302 64.9283C426.904 66.1497 428.497 67.305 429.85 67.5031L434.15 68.1303C435.495 68.3283 435.8 69.2608 434.826 70.2181L431.715 73.255C430.741 74.204 430.131 76.0773 430.362 77.4225L431.096 81.7054C431.327 83.0506 430.527 83.6283 429.322 82.9928L425.476 80.971C424.271 80.3355 422.299 80.3355 421.094 80.971L417.249 82.9928C416.044 83.6283 415.243 83.0506 415.474 81.7054L416.209 77.4225C416.44 76.0773 415.829 74.204 414.855 73.255L411.744 70.2181C410.77 69.2691 411.076 68.3283 412.421 68.1303L416.72 67.5031C418.066 67.305 419.667 66.1497 420.269 64.9283L422.184 61.0332Z" fill="#C97440"/>
<path d="M456.572 61.0332C457.175 59.8118 458.165 59.8118 458.767 61.0332L460.69 64.9283C461.293 66.1497 462.885 67.305 464.239 67.5031L468.538 68.1303C469.883 68.3283 470.189 69.2608 469.215 70.2181L466.104 73.255C465.13 74.204 464.519 76.0773 464.75 77.4225L465.485 81.7054C465.716 83.0506 464.915 83.6283 463.711 82.9928L459.865 80.971C458.66 80.3355 456.688 80.3355 455.483 80.971L451.637 82.9928C450.432 83.6283 449.632 83.0506 449.863 81.7054L450.597 77.4225C450.829 76.0773 450.218 74.204 449.244 73.255L446.133 70.2181C445.159 69.2691 445.465 68.3283 446.81 68.1303L451.109 67.5031C452.454 67.305 454.055 66.1497 454.658 64.9283L456.572 61.0332Z" fill="#C97440"/>
<path d="M378.306 96.8572C381.021 96.8242 383.736 96.5849 386.451 96.5519C386.979 96.5436 386.988 95.7184 386.451 95.7266C383.736 95.7596 381.021 95.9989 378.306 96.032C377.77 96.0402 377.77 96.8655 378.306 96.8572Z" fill="#1F0E03"/>
<path d="M390.223 96.5602C399.928 96.3456 409.633 96.7748 419.329 96.618C424.174 96.5355 428.976 96.0898 433.804 95.8505C438.879 95.6029 443.971 95.6855 449.046 95.8175C453.899 95.9413 458.743 96.1311 463.604 96.2054C466.954 96.2549 470.354 96.4199 473.647 95.702C479.035 94.5384 481.33 90.1729 481.685 84.9904C481.718 84.4622 480.892 84.4622 480.859 84.9904C480.661 87.8704 479.993 90.6928 477.855 92.7559C475.908 94.6292 472.97 95.1326 470.387 95.3389C466.541 95.6442 462.597 95.3801 458.743 95.2811C454.171 95.1656 449.599 94.984 445.019 94.9097C435.884 94.7529 426.831 95.702 417.712 95.8257C408.544 95.9413 399.383 95.5369 390.223 95.7432C389.695 95.7432 389.695 96.5685 390.223 96.5602Z" fill="#1F0E03"/>
<path d="M102.288 205.731C102.288 215.221 94.5889 222.921 85.0987 222.921H17.1897C7.69948 222.921 0 215.221 0 205.731V185.736C0 176.245 7.69948 168.546 17.1897 168.546H85.0987C94.5889 168.546 102.288 176.245 102.288 185.736V205.731Z" fill="#F5CDB3"/>
<path d="M20.3111 202.013C20.3111 200.97 20.4259 200.043 20.6555 199.231C20.9028 198.418 21.3268 197.685 21.9274 197.031C22.528 196.378 23.3758 195.742 24.471 195.124C25.4426 194.611 26.2551 194.179 26.9087 193.825C27.5623 193.472 28.0569 193.136 28.3925 192.818C28.7458 192.483 28.9225 192.094 28.9225 191.653C28.9225 191.123 28.7105 190.672 28.2866 190.301C27.8626 189.913 27.262 189.718 26.4848 189.718C25.6369 189.718 24.9038 189.921 24.2856 190.328C23.685 190.734 23.1639 191.202 22.7223 191.732L20.4701 189.135C20.788 188.8 21.2649 188.438 21.9009 188.049C22.5368 187.66 23.2964 187.325 24.1796 187.042C25.0628 186.759 26.0343 186.618 27.0942 186.618C28.896 186.618 30.2915 187.042 31.2807 187.89C32.2875 188.72 32.791 189.798 32.791 191.123C32.791 191.953 32.5967 192.659 32.2081 193.242C31.8371 193.808 31.369 194.293 30.8037 194.7C30.2561 195.088 29.7262 195.433 29.2139 195.733C28.0834 196.298 27.1914 196.793 26.5378 197.217C25.9019 197.641 25.3896 198.171 25.001 198.807H33.0824V202.013H20.3111ZM42.5272 205.378V201.43H34.7902V198.277L43.6666 186.883H46.0778V198.25H48.4095V201.43H46.0778V205.378H42.5272ZM38.3408 198.25H42.9247V192.262L38.3408 198.25ZM67.1768 183.2L54.0344 202.013H50.1129L63.2288 183.2H67.1768ZM77.1989 189.798H68.6405V186.565H82.7897L73.4629 205.378H69.4354L77.1989 189.798Z" fill="#C97440"/>
<path d="M58.947 219.958C70.7149 217.077 83.8362 222.862 94.556 215.617C94.9934 215.32 94.5808 214.602 94.1434 214.907C83.5473 222.062 70.393 216.31 58.7324 219.165C58.2125 219.289 58.4271 220.081 58.947 219.958Z" fill="#1F0E03"/>
<path d="M98.4511 189.482C98.6326 191.256 98.5418 193.031 98.7894 194.805C99.07 196.86 99.3753 198.84 99.3506 200.912C99.3093 204.84 98.9792 209.015 96.7015 212.349C96.3962 212.787 97.1142 213.199 97.4112 212.762C99.4166 209.841 99.92 206.317 100.118 202.851C100.217 201.06 100.258 199.228 100.011 197.446C99.6394 194.78 99.5486 192.148 99.2763 189.482C99.2268 188.954 98.4015 188.954 98.4511 189.482Z" fill="#1F0E03"/>
</svg>
