<svg width="510" height="396" viewBox="0 0 510 396" fill="none" xmlns="http://www.w3.org/2000/svg">
<path d="M207.746 74.7016C214.986 46.7363 235.453 21.0165 261.728 8.75666C282.079 -0.741487 305.889 -2.59983 327.466 3.60752C344.075 8.39531 359.665 18.2032 369.06 32.7214C385.836 58.6477 372.441 86.9744 364.594 113.456C360.052 128.813 357.677 145.86 364.272 160.456C378.041 190.964 418.086 196.745 437.702 222.271C463.073 255.283 483.657 300.063 450.155 336.094C418.692 369.931 370.505 358.626 339.868 330.635C316.445 309.239 283.383 293.972 251.146 299.121C219.58 304.167 195.77 327.848 171.108 346.147C135.852 372.293 84.1281 361.633 55.7627 330.261C26.3004 297.676 22.8805 229.395 59.6213 200.526C75.2365 188.253 94.0392 186.563 112.842 183.324C139.207 178.781 182.633 168.586 196.402 142.918C207.449 122.334 202.081 97.9437 207.423 75.9793C207.527 75.5534 207.643 75.1275 207.746 74.7016Z" fill="#B7B7ED"/>
<path d="M1.40674 356.626H28.8687C26.8814 355.529 25.5134 353.439 25.5134 351.012V303.47C25.5134 299.921 28.3913 297.043 31.9402 297.043H66.4742C70.023 297.043 72.9009 294.166 72.9009 290.617V253.102C72.9009 249.553 75.7787 246.675 79.3276 246.675H96.4527C100.002 246.675 102.879 249.553 102.879 253.102V268.742C102.879 272.291 105.757 275.169 109.306 275.169H141.014C144.563 275.169 147.441 278.047 147.441 281.596V351.025C147.441 353.451 146.073 355.542 144.085 356.639H150.783C148.796 355.542 147.428 353.451 147.428 351.025V315.046C147.428 311.497 150.306 308.619 153.855 308.619H181.704C185.253 308.619 188.13 305.741 188.13 302.192V264.381C188.13 260.832 191.008 257.954 194.557 257.954H230.33C233.879 257.954 236.757 260.832 236.757 264.381V277.776C236.757 281.325 239.635 284.203 243.184 284.203H250.126C253.675 284.203 256.553 287.081 256.553 290.63C256.553 294.178 259.431 297.056 262.98 297.056H297.514C301.063 297.056 303.941 294.178 303.941 290.63V253.114C303.941 249.566 306.818 246.688 310.367 246.688H327.492C331.041 246.688 333.919 249.566 333.919 253.114V268.755C333.919 272.304 336.797 275.182 340.346 275.182H372.054C375.603 275.182 378.48 278.06 378.48 281.609V351.038C378.48 353.464 377.113 355.555 375.125 356.652H381.823C379.835 355.555 378.468 353.464 378.468 351.038V315.059C378.468 311.51 381.345 308.632 384.894 308.632H412.743C416.292 308.632 419.17 305.754 419.17 302.205V264.393C419.17 260.845 422.048 257.967 425.597 257.967H461.434C464.983 257.967 467.861 260.845 467.861 264.393V277.789C467.861 281.338 470.739 284.216 474.288 284.216H481.231C484.78 284.216 487.657 287.094 487.657 290.642V351.051C487.657 353.477 486.29 355.568 484.302 356.665H508.241C509.028 356.665 509.661 357.297 509.661 358.084C509.661 358.872 509.028 359.504 508.241 359.504H1.41965C0.632446 359.504 9.15527e-05 358.872 9.15527e-05 358.084C9.15527e-05 357.297 0.619507 356.626 1.40674 356.626Z" fill="#5C5CBC"/>
<path d="M166.346 120.037H58.1889C58.3438 113.623 57.5308 107.79 63.3381 103.699C67.8936 100.486 74.1912 99.3891 77.4949 104.551C82.2569 97.9953 84.0766 89.4005 91.5099 84.4579C100.04 78.7925 112.3 80.2637 117.901 88.9876C120.262 86.7679 121.424 83.2061 124.147 81.1413C129.296 77.2181 136.987 78.9345 141.904 82.7931C148.654 88.0842 148.279 98.4599 148.602 106.216C157.248 98.4599 167.947 108.319 166.346 120.037Z" fill="#5C5CBC"/>
<path d="M505.737 163.488H397.58C397.735 157.075 396.922 151.241 402.729 147.151C407.284 143.937 413.582 142.84 416.886 148.002C421.648 141.446 423.467 132.852 430.901 127.909C439.431 122.244 451.691 123.715 457.292 132.439C459.653 130.219 460.815 126.657 463.538 124.592C468.687 120.669 476.378 122.386 481.295 126.244C488.044 131.535 487.67 141.911 487.993 149.667C496.639 141.911 507.338 151.771 505.737 163.488Z" fill="#5C5CBC"/>
<path d="M189.511 63.5521C186.354 63.5521 183.794 60.9925 183.794 57.8351C183.794 54.6777 186.354 52.1182 189.511 52.1182C192.668 52.1182 195.228 54.6777 195.228 57.8351C195.228 60.9925 192.668 63.5521 189.511 63.5521Z" fill="#B7B7ED"/>
<path d="M418.228 96.8345C411.749 96.8345 406.497 91.5825 406.497 85.1038C406.497 78.6251 411.749 73.373 418.228 73.373C424.706 73.373 429.958 78.6251 429.958 85.1038C429.958 91.5825 424.706 96.8345 418.228 96.8345Z" fill="#B7B7ED"/>
<path d="M94.7998 161.552C90.7832 157.535 90.7832 151.023 94.7998 147.007C98.8165 142.99 105.329 142.99 109.345 147.007C113.362 151.023 113.362 157.535 109.345 161.552C105.329 165.569 98.8165 165.569 94.7998 161.552Z" fill="#B7B7ED"/>
<path d="M316.046 37.7156C312.888 37.7156 310.329 35.1561 310.329 31.9987C310.329 28.8413 312.888 26.2817 316.046 26.2817C319.203 26.2817 321.762 28.8413 321.762 31.9987C321.762 35.1561 319.203 37.7156 316.046 37.7156Z" fill="#E5E5FD"/>
<path d="M221.645 107.378C221.645 104.977 223.581 103.042 225.981 103.042C228.382 103.042 230.317 104.977 230.317 107.378C230.317 109.778 228.382 111.714 225.981 111.714C223.594 111.714 221.645 109.765 221.645 107.378Z" fill="#E5E5FD"/>
<path d="M336.668 126.645C336.668 124.244 338.604 122.309 341.004 122.309C343.404 122.309 345.34 124.244 345.34 126.645C345.34 129.045 343.404 130.981 341.004 130.981C338.604 130.981 336.668 129.045 336.668 126.645Z" fill="#E5E5FD"/>
<path d="M254.824 396.001C160.052 396.001 83.225 393.314 83.225 390C83.225 386.686 160.052 383.999 254.824 383.999C349.595 383.999 426.423 386.686 426.423 390C426.423 393.314 349.595 396.001 254.824 396.001Z" fill="#B1B8CA"/>
<path d="M230.317 317.68L231.143 320.209L239.699 317.783L230.317 317.68Z" fill="#C62828"/>
<path d="M158.436 243.927L158.694 241.475L176.297 186.731L181.42 194.255C182.065 195.21 183.382 195.378 184.259 194.642C184.685 194.255 184.917 193.726 184.917 193.184C184.917 192.797 184.801 192.41 184.543 192.074L184.04 191.351C184.388 191.571 184.801 191.661 185.227 191.661C185.988 191.661 186.685 191.326 187.15 190.809C187.834 191.222 188.569 191.532 189.344 191.739L176.697 217.575C164.476 241.81 166.669 270.821 182.375 292.966L190.531 304.49C191.68 306.103 192.686 307.807 193.719 309.523C193.912 309.833 194.093 310.13 194.286 310.44C196.906 314.737 201.591 317.447 206.74 317.486L214.38 317.55L228.459 317.679H230.33L231.143 320.209L204.43 330.894C202.649 331.63 201.384 333.282 201.191 335.23C201.165 335.411 201.165 335.579 201.165 335.734C201.165 336.005 201.191 336.276 201.229 336.547L199.926 336.805C188.273 335.566 178.194 328.184 173.432 317.46L171.122 312.233L165.314 299.148L163.017 291.547C158.359 276.138 156.797 259.929 158.436 243.927Z" fill="#A80F5C"/>
<path d="M142.821 252.224C144.085 251.915 145.169 251.14 145.905 250.082C153.145 239.616 158.436 227.898 161.482 215.548L168.476 187.286C171.212 184.602 172.902 180.898 172.902 176.794C172.902 173.568 171.87 170.613 170.102 168.187C170.102 168.187 184.866 168.767 189.356 177.181L188.518 176.91C186.324 176.188 183.911 176.717 182.22 178.291L176.632 183.556C175.742 184.395 175.6 185.737 176.284 186.744L158.681 241.487L158.423 243.939C156.797 259.942 158.346 276.15 163.004 291.546L165.301 299.147L171.109 312.233L173.419 317.46C178.181 328.184 188.26 335.566 199.913 336.804L201.216 336.546C201.513 338.43 202.804 340.044 204.675 340.689L210.753 342.767C216.406 344.715 222.394 345.567 228.369 345.309C229.091 345.27 229.788 345.231 230.511 345.154L262.644 342.315C264.554 342.134 266.155 340.999 266.993 339.385C267.419 338.572 267.639 337.643 267.574 336.662C266.955 326.093 262.657 316.827 262.657 316.827L260.851 318.557L259.315 315.214C262.554 314.143 265.69 312.762 268.684 311.059C280.028 304.567 285.977 292.953 285.977 281.209C285.977 277.093 285.254 272.95 283.757 269.053C281.976 264.329 279.098 259.929 275.072 256.173L255.431 237.835L304.083 238.881C304.083 238.881 309 239.384 314.2 238.997L370.531 242.004C370.867 242.029 371.189 242.068 371.499 242.107C376.338 242.842 380.003 247.024 380.003 252.018C380.003 252.018 391.541 255.244 404.846 266.136C407.504 268.33 410.24 270.821 412.989 273.66C416.976 277.802 420.951 282.693 424.668 288.423C431.095 298.334 436.734 310.775 440.309 326.338L433.65 315.924C419.454 293.74 399.929 275.467 376.855 262.755C367.898 257.838 357.974 255.36 348.025 255.36C339.727 255.36 331.403 257.09 323.634 260.561C306.457 268.24 296.83 284.926 296.83 301.999C296.83 311.73 299.979 321.615 306.638 330.029L315.4 341.102L315.671 346.561L228.652 350.781L213.889 351.503C196.97 352.316 181.201 343.438 173.057 328.855C172.361 327.629 171.741 326.351 171.147 325.048L165.56 316.401C159.52 307.097 155.558 296.76 153.79 286.075C147.518 281.003 140.033 277.351 131.864 275.647V275.621C130.716 273.273 130.2 270.821 130.2 268.395C130.187 261.039 135.103 254.147 142.821 252.224Z" fill="#E51B77"/>
<path d="M296.83 301.987C296.83 311.717 299.979 321.603 306.638 330.017L315.4 341.089L315.671 346.548L324.782 346.096C324.705 345.051 324.666 343.98 324.666 342.909C324.666 316.905 345.74 295.818 371.757 295.818C397.322 295.818 418.099 316.157 418.809 341.541L428.449 341.076C436.205 341.076 442.064 333.888 440.335 326.313L433.676 315.899C419.48 293.715 399.955 275.441 376.88 262.73C367.924 257.813 358 255.335 348.05 255.335C339.752 255.335 331.429 257.064 323.647 260.536C306.47 268.227 296.83 284.913 296.83 301.987Z" fill="#A80F5C"/>
<path d="M371.757 295.83C397.322 295.83 418.099 316.168 418.809 341.553L402.574 342.353L385.798 343.153L357.832 344.508L341.03 345.321L324.808 346.095C324.731 345.05 324.692 343.979 324.692 342.908C324.666 316.904 345.74 295.83 371.757 295.83Z" fill="#FF83C1"/>
<path d="M358.671 333.011C358.684 333.011 358.71 333.011 358.723 333.011L400.729 330.714C401.271 330.688 401.671 330.223 401.645 329.694C401.619 329.152 401.142 328.713 400.626 328.778L358.619 331.075C358.077 331.101 357.677 331.565 357.703 332.094C357.729 332.611 358.168 333.011 358.671 333.011Z" fill="white"/>
<path d="M354.812 329.152C354.825 329.152 354.851 329.152 354.864 329.152L396.87 326.855C397.412 326.829 397.812 326.365 397.786 325.836C397.761 325.294 397.296 324.868 396.767 324.919L354.761 327.216C354.219 327.242 353.819 327.707 353.845 328.236C353.87 328.752 354.309 329.152 354.812 329.152Z" fill="white"/>
<path d="M350.954 325.293C350.967 325.293 350.993 325.293 351.006 325.293L393.012 322.996C393.554 322.97 393.954 322.505 393.928 321.976C393.902 321.434 393.438 321.008 392.909 321.06L350.902 323.357C350.36 323.383 349.96 323.847 349.986 324.377C350.025 324.893 350.451 325.293 350.954 325.293Z" fill="white"/>
<path d="M347.34 321.667C347.353 321.667 347.379 321.667 347.392 321.667L389.398 319.37C389.94 319.344 390.34 318.879 390.314 318.35C390.288 317.808 389.824 317.382 389.295 317.434L347.289 319.731C346.76 319.757 346.347 320.221 346.372 320.751C346.398 321.267 346.824 321.667 347.34 321.667Z" fill="white"/>
<path d="M323.634 260.562C316.2 263.633 309.554 268.795 304.767 275.389C302.289 278.629 300.482 282.332 298.895 286.088C297.565 289.946 296.494 293.934 296.21 298.038C295.514 306.181 296.804 314.595 300.469 321.977C302.289 325.642 304.676 329.075 307.193 332.211L314.729 341.631L315.387 340.263C307.773 340.276 300.159 340.457 292.545 340.547C284.931 340.663 277.317 340.857 269.703 341.102C277.317 341.347 284.931 341.541 292.545 341.657C300.159 341.747 307.773 341.941 315.387 341.941C315.852 341.941 316.239 341.567 316.239 341.102C316.239 340.909 316.175 340.715 316.058 340.573L308.612 331.075C306.122 327.913 303.941 324.687 302.211 321.125C298.662 314.079 297.32 306.026 297.914 298.18C298.133 294.231 299.166 290.385 300.301 286.604C301.734 282.926 303.373 279.274 305.696 276.048C310.2 269.505 316.394 264.098 323.634 260.562Z" fill="#6D0944"/>
<path d="M255.443 237.823L275.085 256.161C279.111 259.917 281.976 264.317 283.77 269.041C304.689 262.859 314.226 238.985 314.226 238.985C309.025 239.372 304.108 238.869 304.108 238.869L255.443 237.823Z" fill="#A80F5C"/>
<path d="M121.076 274.499C124.767 274.499 128.38 274.886 131.852 275.609V275.622C140.033 277.325 147.506 280.977 153.777 286.049C155.545 296.734 159.507 307.071 165.547 316.376L171.135 325.022C171.715 326.326 172.335 327.603 173.045 328.829C172.864 333.088 172.193 337.179 171.044 341.089L162.94 338.289L144.976 332.094L100.066 316.57L82.1025 310.349L72.7593 307.123C80.4765 287.998 99.1888 274.499 121.076 274.499Z" fill="#FF83C1"/>
<path d="M82.1151 310.362C73.9978 318.815 69.0294 330.288 69.0294 342.922C69.0294 368.926 90.1034 390.013 116.12 390.013C142.124 390.013 163.211 368.939 163.211 342.922C163.211 341.373 163.133 339.812 162.978 338.302L145.015 332.107C146.279 335.463 146.976 339.115 146.976 342.922C146.976 359.957 133.168 373.765 116.133 373.765C99.0982 373.765 85.3027 359.957 85.3027 342.922C85.3027 331.759 91.2261 321.977 100.105 316.583L82.1151 310.362Z" fill="#3F1085"/>
<path d="M100.079 316.57C91.2002 321.965 85.2768 331.747 85.2768 342.91C85.2768 359.944 99.0723 373.753 116.107 373.753C133.142 373.753 146.95 359.944 146.95 342.91C146.95 339.103 146.253 335.45 144.989 332.095L100.079 316.57ZM102.066 342.91C102.066 335.154 108.364 328.869 116.107 328.869C123.876 328.869 130.148 335.167 130.148 342.91C130.148 350.666 123.876 356.95 116.107 356.95C108.351 356.963 102.066 350.666 102.066 342.91Z" fill="#E5E5FD"/>
<path d="M116.107 356.95C108.352 356.95 102.066 350.663 102.066 342.909C102.066 335.154 108.352 328.868 116.107 328.868C123.861 328.868 130.148 335.154 130.148 342.909C130.148 350.663 123.861 356.95 116.107 356.95Z" fill="#3A3635"/>
<path d="M116.107 356.95C108.352 356.95 102.066 350.663 102.066 342.909C102.066 335.154 108.352 328.868 116.107 328.868C123.861 328.868 130.148 335.154 130.148 342.909C130.148 350.663 123.861 356.95 116.107 356.95Z" fill="#3F1085"/>
<path d="M341.004 345.323L324.782 346.097C326.409 370.617 346.811 390 371.757 390C397.761 390 418.848 368.926 418.848 342.91C418.848 342.458 418.848 341.993 418.809 341.555L402.574 342.355C402.6 342.548 402.6 342.729 402.6 342.923C402.6 359.957 388.805 373.766 371.77 373.766C355.535 373.766 342.23 361.235 341.004 345.323Z" fill="#3F1085"/>
<path d="M357.807 344.509L341.004 345.322C342.23 361.234 355.535 373.764 371.757 373.764C388.792 373.764 402.587 359.956 402.587 342.921C402.587 342.728 402.587 342.547 402.561 342.354L385.785 343.154C385.669 350.806 379.435 356.962 371.757 356.962C364.53 356.962 358.581 351.503 357.807 344.509Z" fill="#E5E5FD"/>
<path d="M385.772 343.142L357.807 344.497C358.581 351.491 364.53 356.95 371.757 356.95C379.423 356.963 385.656 350.807 385.772 343.142Z" fill="#3F1085"/>
<path d="M147.325 162.173V191.403H154.564C153.493 178.407 154.59 162.173 154.59 162.173H147.325Z" fill="#FF83C1"/>
<path d="M168.476 187.286C171.212 184.602 172.902 180.898 172.902 176.794C172.902 173.568 171.87 170.613 170.102 168.187C169.65 167.567 169.173 166.986 168.631 166.444C165.972 163.799 162.32 162.173 158.294 162.173H154.59C154.59 162.173 153.506 178.407 154.564 191.403H158.294C162.243 191.403 165.83 189.828 168.476 187.286Z" fill="#A80F5C"/>
<path d="M336.5 235.745V240.184L371.28 242.069L372.777 242.378L393.786 235.745H336.5Z" fill="#3A3635"/>
<path d="M336.5 212.516V235.745H393.786H424.681V170.497H336.5V212.516Z" fill="#E51B77"/>
<path d="M342.398 194.372H419.764V198.953H342.398V194.372Z" fill="#A80F5C"/>
<path d="M342.398 207.896H419.764V212.477H342.398V207.896Z" fill="#A80F5C"/>
<path d="M342.398 221.434H419.764V226.015H342.398V221.434Z" fill="#A80F5C"/>
<path d="M372.635 184.628H390.766C394.522 184.628 397.58 181.582 397.58 177.814V174.368H365.821V177.814C365.821 181.582 368.866 184.628 372.635 184.628Z" fill="#A80F5C"/>
<path d="M421.39 174.381C414.808 173.981 408.227 173.788 401.645 173.633C395.064 173.452 388.482 173.426 381.9 173.4C375.319 173.426 368.737 173.452 362.156 173.62L352.283 173.891C348.992 174.046 345.702 174.149 342.411 174.368C345.702 174.588 348.992 174.678 352.283 174.846L362.156 175.117C368.737 175.297 375.319 175.323 381.9 175.336C388.482 175.31 395.064 175.285 401.645 175.104C408.227 174.962 414.808 174.781 421.39 174.381Z" fill="#6D0944"/>
<path d="M203.901 237.15L199.926 287.88L208.16 289.984L222.42 293.597L203.901 237.15Z" fill="#2E0968"/>
<path d="M205.901 211.637L205.527 216.451C209.063 211.057 215.025 207.224 222.174 206.837L286.029 203.249L283.616 200.487C282.544 199.287 281.047 198.564 279.434 198.487L224.833 196.1L223.517 196.035C214.418 195.661 206.624 202.552 205.901 211.637Z" fill="#2E0968"/>
<path d="M208.16 289.984L204.765 304.799L207.992 310.426C209.373 312.852 211.876 314.13 214.406 314.13C216.212 314.13 218.019 313.485 219.451 312.13L223.181 308.632L224.794 300.799V300.773L222.42 293.572L208.16 289.984Z" fill="#D8667C"/>
<path d="M201.191 304.025C202.378 303.173 204.043 303.522 204.765 304.799L207.992 310.426C209.372 312.852 211.876 314.13 214.405 314.13C216.212 314.13 218.019 313.484 219.451 312.129L223.181 308.632L225.091 306.851L228.472 317.653V317.678L214.367 317.536L206.727 317.472C201.578 317.433 196.893 314.71 194.273 310.426C194.08 310.116 193.899 309.819 193.706 309.51L201.191 304.025Z" fill="#303D89"/>
<path d="M250.811 62.0674C250.708 64.8291 250.076 69.5911 247.146 73.3723C248.927 73.4497 250.914 73.8756 252.347 74.8692C253.16 75.4371 253.921 76.1727 254.812 76.5985C257.264 77.8245 259.78 76.7147 262.232 76.9728C263.123 77.076 264.013 77.8632 264.529 78.6633C264.632 78.8182 264.684 78.9601 264.749 79.115L265.51 78.9214L263.445 70.7654C262.826 68.3393 260.864 66.5455 258.412 66.0034C256.464 65.5518 253.883 64.4677 250.811 62.0674Z" fill="#FD97A7"/>
<path d="M256.102 92.8202C256.515 92.7427 256.902 92.6395 257.263 92.5105C257.405 92.4718 257.534 92.433 257.676 92.3685C257.676 92.3685 260.322 92.9363 263.148 95.2205C265.806 97.3757 268.646 101.092 269.575 107.364L277.679 99.2598C280.209 96.7562 283.512 95.2334 287.022 95.0011V94.9753L281.718 89.5552C278.879 86.6386 276.673 83.1801 275.214 79.3731L273.679 75.308C273.072 75.7209 272.336 75.9532 271.562 75.9532C270.491 75.9532 269.523 75.5274 268.839 74.8047L269.872 77.3083C270.362 78.4697 269.807 79.8377 268.646 80.341C268.349 80.4571 268.039 80.5216 267.729 80.5216C266.774 80.5216 265.884 79.9538 265.535 79.0117L265.497 78.8956L264.735 79.0892C265.006 80.0054 264.193 80.5991 263.845 81.6315C263.109 83.8124 262.851 85.8901 261.574 87.9033C261.07 88.7035 260.812 89.4003 260.18 90.0585C258.993 91.2587 257.65 92.0975 256.115 92.7815L256.102 92.8202Z" fill="#FD97A7"/>
<path d="M252.94 70.4169C252.327 70.4169 251.83 69.9201 251.83 69.3071C251.83 68.6942 252.327 68.1973 252.94 68.1973C253.553 68.1973 254.05 68.6942 254.05 69.3071C254.05 69.9201 253.553 70.4169 252.94 70.4169Z" fill="#042128"/>
<path d="M251.65 65.3327C252.127 65.7973 252.566 66.107 252.966 66.4167C253.366 66.7393 253.779 66.9458 254.102 67.2813C254.528 67.4749 254.825 67.8104 255.225 68.0814C255.638 68.3524 255.999 68.7138 256.567 69.088L256.67 69.0493C256.334 67.9911 255.676 67.0103 254.76 66.3522C253.831 65.7069 252.76 65.3327 251.65 65.2036V65.3327Z" fill="#1C54D1"/>
<path d="M262.245 89.3619C261.264 90.3814 260.154 91.3105 258.876 91.9042C258.489 92.0848 258.089 92.2397 257.689 92.3816C257.689 92.3816 260.335 92.9495 263.161 95.2337C269.833 90.7685 268.129 83.2319 268.129 83.2319L262.245 89.3619Z" fill="#D8667C"/>
<path d="M250.772 59.8219C255.108 60.4284 260.658 60.0154 267.73 57.8345L293.759 75.3338C293.759 75.3338 294.262 87.4388 281.719 89.5681C281.706 89.5552 281.706 89.5552 281.693 89.5423C278.609 90.6263 275.318 87.8775 274.879 84.8964C274.66 83.3995 274.621 82.0831 274.027 80.6378C273.537 79.4505 273.692 78.5213 273.769 77.3083C273.808 76.6501 273.705 76.0306 273.705 75.3983L273.679 75.3209C273.692 75.308 273.692 75.308 273.705 75.2951C273.705 75.2047 273.705 75.1273 273.705 75.037C273.808 75.024 273.924 75.0499 274.027 75.0499C274.853 74.353 275.382 73.3077 275.382 72.1333C275.382 70.0169 273.679 68.3005 271.55 68.3005C269.433 68.3005 267.717 70.004 267.717 72.1333L268.827 74.8176L269.859 77.3212C270.349 78.4826 269.794 79.8506 268.633 80.3539C268.336 80.47 268.026 80.5345 267.717 80.5345C266.762 80.5345 265.871 79.9667 265.523 79.0246L265.484 78.9085L263.419 70.7525C262.8 68.3263 260.838 66.5325 258.386 65.9905C256.438 65.5388 253.857 64.4548 250.785 62.0673C250.824 60.7123 250.747 59.8348 250.747 59.8348V59.8219H250.772Z" fill="#1C54D1"/>
<path d="M255.057 49.3169H236.189C236.189 49.3169 238.912 58.2472 250.772 59.8216C255.108 60.4282 260.658 60.0152 267.729 57.8342L255.057 49.3169Z" fill="#FDBC0B"/>
<path d="M255.057 49.3175L267.742 57.8477L293.772 75.347L294.546 75.8761C302.573 63.6034 299.902 55.0731 296.288 50.1047C294.172 47.1752 289.333 43.8715 286.029 42.3745C262.4 31.6117 255.057 49.3175 255.057 49.3175Z" fill="#F99410"/>
<path d="M283.345 43.6133C281.473 43.7681 279.641 44.2972 277.899 45.0328C276.157 45.7684 274.531 46.8008 273.085 48.0526C271.64 49.2915 270.401 50.8014 269.51 52.492C268.543 54.1438 268.039 56.0022 267.73 57.8347C268.426 56.0925 269.097 54.3761 270.143 52.8791C271.136 51.3563 272.324 49.9626 273.705 48.7882C276.453 46.3879 279.783 44.7102 283.345 43.6133Z" fill="#AF680B"/>
<path d="M246.204 74.469C245.546 75.1659 245.313 76.1725 246.217 76.4951L246.694 76.6242C248.54 77.2952 249.766 79.0632 249.766 81.0248V82.5476V89.3615C249.766 91.4134 251.43 93.091 253.482 93.091C254.347 93.091 255.212 92.9878 256.076 92.82H256.102C257.638 92.1232 258.993 91.2843 260.18 90.0842C260.825 89.426 261.07 88.7291 261.574 87.929C262.851 85.9029 263.109 83.8252 263.845 81.6571C264.193 80.6247 265.006 80.0311 264.735 79.1148C264.671 78.96 264.619 78.818 264.516 78.6631C264.013 77.863 263.122 77.0758 262.219 76.9726C259.767 76.7145 257.251 77.8243 254.799 76.5983C253.908 76.1725 253.147 75.4369 252.334 74.8691C250.901 73.8754 248.914 73.4495 247.133 73.3721C246.849 73.7592 246.539 74.1076 246.204 74.469Z" fill="white"/>
<path d="M261.664 77.8499C261.729 77.8499 261.78 77.824 261.832 77.7853L268.452 71.4747C268.542 71.3844 268.555 71.2295 268.465 71.1263C268.362 71.036 268.22 71.0231 268.117 71.1134L261.496 77.424C261.406 77.5143 261.393 77.6692 261.483 77.7724C261.535 77.8241 261.599 77.8499 261.664 77.8499Z" fill="#424242"/>
<path d="M261.664 86.4056C261.729 86.4056 261.806 86.3798 261.845 86.3152L271.304 75.3717C271.394 75.2685 271.382 75.1136 271.278 75.0233C271.175 74.933 271.02 74.9459 270.93 75.0491L261.47 85.9926C261.38 86.0959 261.393 86.2507 261.496 86.3411C261.548 86.3798 261.612 86.4056 261.664 86.4056Z" fill="#424242"/>
<path d="M259.806 81.0758C258.902 81.2178 257.999 81.2307 257.109 81.2049C256.218 81.1662 255.315 81.0758 254.45 80.8822C252.695 80.5467 251.017 79.8757 249.353 79.1143C250.088 79.6434 250.875 80.1467 251.714 80.508C252.553 80.9081 253.443 81.1404 254.347 81.3598C256.154 81.6824 258.076 81.7211 259.806 81.0758Z" fill="#424242"/>
<path d="M260.258 83.9668C259.509 84.5604 258.709 85.0637 257.883 85.5283C257.057 85.98 256.205 86.3801 255.315 86.6769C253.56 87.335 251.676 87.5673 249.766 87.6189C250.708 87.7609 251.676 87.8641 252.644 87.748C253.611 87.6835 254.554 87.4383 255.483 87.1415C257.289 86.4575 259.006 85.4251 260.258 83.9668Z" fill="#424242"/>
<path d="M267.729 72.159L268.839 74.8432C269.523 75.5659 270.491 75.9918 271.562 75.9918C272.336 75.9918 273.072 75.7595 273.679 75.3465C274.711 74.6626 275.382 73.5011 275.382 72.159C275.382 70.0425 273.679 68.3262 271.549 68.3262C269.446 68.3262 267.729 70.0425 267.729 72.159Z" fill="#D8667C"/>
<path d="M265.071 145.227L286.029 150.312L274.685 176.342C274.685 176.342 275.266 190.602 279.447 198.487C281.06 198.564 282.557 199.287 283.628 200.487L286.042 203.249C287.384 203.171 288.687 203.675 289.616 204.63L308.574 224.207C310.2 225.897 312.11 227.291 314.213 228.362L325.905 234.234L328.202 233.395C329.854 232.788 331.274 231.769 332.345 230.44C333.416 229.123 334.126 227.523 334.371 225.794C334.991 221.38 335.3 216.941 335.3 212.502C335.3 206.772 334.797 201.042 333.752 195.39L323.802 141.446C322.563 134.632 320.485 128.025 317.659 121.753C314.82 115.481 311.245 109.558 306.974 104.099C304.702 101.208 301.824 98.9369 298.598 97.3625C295.398 95.8139 291.823 94.9492 288.132 94.9492C287.758 94.9492 287.41 94.9621 287.048 95.0137C283.538 95.246 280.234 96.7559 277.705 99.2724L269.6 107.377C268.529 108.448 268.4 110.139 269.265 111.364L271.227 114.1L265.071 145.227Z" fill="#FDBC0B"/>
<path d="M304.638 118.282C303.902 121.121 303.205 123.96 302.573 126.825C301.954 129.69 301.257 132.529 300.702 135.407L298.96 144.014L297.372 152.648L298.16 152.132C295.101 151.435 292.017 150.854 288.945 150.248C285.874 149.628 282.777 149.099 279.679 148.583C282.699 149.473 285.719 150.325 288.752 151.099C291.784 151.887 294.817 152.7 297.876 153.396L298.521 153.551L298.65 152.893L300.379 144.285L301.954 135.652C302.509 132.774 302.909 129.883 303.399 126.993C303.864 124.089 304.264 121.185 304.638 118.282Z" fill="#A34A0D"/>
<path d="M316.614 205.547C314.484 204.488 312.381 203.379 310.368 202.127C308.329 200.927 306.341 199.636 304.418 198.255C300.573 195.506 296.934 192.5 293.681 189.093C290.313 185.789 287.59 181.93 285.216 177.891L283.551 174.781C283.048 173.71 282.673 172.6 282.222 171.516L281.538 169.877L281.06 168.173C280.751 167.038 280.415 165.889 280.067 164.741C280.738 169.438 281.951 174.161 284.235 178.433C286.467 182.692 289.294 186.666 292.649 190.125C296.056 193.532 299.773 196.616 303.799 199.197C307.838 201.74 312.097 203.985 316.614 205.547Z" fill="#A34A0D"/>
<path d="M325.351 214.593C322.176 214.258 319.04 213.793 315.943 213.186C312.846 212.58 309.761 211.883 306.741 211.006C303.696 210.18 300.715 209.16 297.772 208.024C294.804 206.94 291.978 205.534 289.074 204.179C291.655 206.05 294.404 207.728 297.334 209.057C300.224 210.451 303.257 211.535 306.354 212.399C309.452 213.251 312.6 213.922 315.788 214.283C318.95 214.671 322.163 214.851 325.351 214.593Z" fill="#A34A0D"/>
<path d="M285.254 99.479C283.551 99.892 281.938 100.653 280.454 101.608C278.97 102.563 277.602 103.699 276.389 104.989C275.214 106.306 274.091 107.7 273.266 109.248C272.788 109.997 272.465 110.823 272.091 111.61C271.769 112.423 271.485 113.262 271.227 114.088C272.091 112.565 272.943 111.068 273.924 109.661L274.659 108.603L275.459 107.596C275.976 106.912 276.556 106.293 277.124 105.661C278.273 104.409 279.563 103.273 280.905 102.228C282.26 101.208 283.693 100.24 285.254 99.479Z" fill="#A34A0D"/>
<path d="M321.595 132.426C321.415 134.955 321.169 137.459 320.872 139.949C320.55 142.44 320.227 144.931 319.788 147.409C319.375 149.886 318.898 152.351 318.356 154.816C317.84 157.281 317.195 159.707 316.614 162.172C317.091 160.998 317.556 159.823 317.982 158.623C318.382 157.423 318.769 156.21 319.104 154.997C319.814 152.558 320.33 150.08 320.769 147.576C321.195 145.073 321.492 142.556 321.634 140.027C321.711 138.762 321.75 137.497 321.763 136.233C321.737 134.955 321.737 133.678 321.595 132.426Z" fill="#A34A0D"/>
<path d="M205.539 216.465C209.075 211.07 215.038 207.237 222.187 206.85L286.041 203.263C287.384 203.185 288.687 203.689 289.616 204.644L308.574 224.221C310.2 225.911 312.11 227.305 314.2 228.376L325.892 234.248C324.473 237.474 319.207 238.661 314.213 239.01C309.012 239.397 304.096 238.894 304.096 238.894L255.443 237.848L237.325 237.461L259.844 312.091L258.115 312.582L239.764 317.782L239.725 317.808L230.343 317.705L224.807 300.838V300.812L222.432 293.611L203.926 237.164L203.152 234.777C200.997 228.247 202.158 221.627 205.539 216.465Z" fill="#591C9D"/>
<path d="M201.191 335.215C201.165 335.396 201.165 335.564 201.165 335.718C201.165 335.989 201.191 336.26 201.229 336.531C201.526 338.416 202.817 340.029 204.688 340.674L210.766 342.752C216.419 344.7 222.407 345.552 228.382 345.294C229.104 345.255 229.801 345.217 230.524 345.139L262.658 342.3C264.567 342.119 266.168 340.984 267.007 339.371C267.432 338.558 267.652 337.628 267.587 336.648C266.968 326.078 262.67 316.812 262.67 316.812L260.864 318.542L259.702 319.665C256.076 323.136 250.617 323.846 246.242 321.394L239.777 317.768H239.738H239.712L231.143 320.194L204.43 330.879C202.649 331.628 201.384 333.279 201.191 335.215Z" fill="#4E58AF"/>
<path d="M258.102 312.555L259.328 315.213L260.864 318.556L259.702 319.678C256.076 323.15 250.617 323.86 246.242 321.408L239.777 317.781L239.751 317.755L258.102 312.555Z" fill="#FD97A7"/>
<path d="M203.01 336.791C204.223 337.372 205.527 337.682 206.804 338.082L210.65 339.191L218.393 341.23C221.013 341.914 223.749 342.147 226.459 342.018C229.156 341.811 231.789 341.54 234.447 341.308C239.751 340.753 245.068 340.237 250.372 339.63L258.322 338.714C258.993 338.624 259.638 338.572 260.322 338.443C260.993 338.314 261.638 338.082 262.245 337.785C262.851 337.488 263.419 337.101 263.922 336.649C264.426 336.197 264.839 335.668 265.277 335.165C264.374 336.146 263.367 337.049 262.141 337.54C261.535 337.798 260.903 337.978 260.257 338.069C259.625 338.159 258.941 338.172 258.27 338.224L250.282 338.869C244.965 339.308 239.648 339.837 234.331 340.314C231.685 340.572 229.001 340.895 226.381 341.114C223.762 341.282 221.116 341.037 218.548 340.482L210.74 338.714L206.843 337.823L204.894 337.346C204.275 337.191 203.617 337.075 203.01 336.791Z" fill="#303D89"/>
<path d="M176.632 183.556C175.742 184.395 175.6 185.737 176.284 186.743L181.407 194.254C182.052 195.209 183.369 195.377 184.246 194.641C184.672 194.254 184.904 193.725 184.904 193.183C184.904 192.796 184.788 192.409 184.53 192.073L184.027 191.351C183.304 191.002 182.788 190.305 182.672 189.466L181.82 188.266C181.446 187.763 181.678 187.04 182.285 186.847L183.794 186.356C184.724 186.047 185.743 186.137 186.608 186.614L196.222 191.738C196.596 191.931 196.983 192.073 197.371 192.151C198.261 192.37 199.216 192.267 200.068 191.893L205.527 189.505L222.135 190.667C223.103 190.744 224.097 190.783 225.065 190.821C230.782 191.015 236.486 190.641 242.1 189.673L262.064 186.214C267.665 185.259 272.401 181.53 274.672 176.329L286.016 150.299L265.058 145.215L262.257 155.165C260.993 159.617 257.883 163.321 253.714 165.321L240.745 171.58C235.466 174.122 229.866 175.993 224.123 177.116L206.74 180.497C203.668 181.078 200.481 180.884 197.513 179.891L189.357 177.168L188.518 176.897C186.324 176.174 183.911 176.703 182.22 178.278L176.632 183.556Z" fill="#FD97A7"/>
<path d="M182.285 186.86C181.678 187.054 181.446 187.776 181.82 188.28L182.672 189.48C182.646 189.338 182.633 189.209 182.633 189.067C182.633 187.635 183.782 186.486 185.214 186.486C186.647 186.486 187.821 187.635 187.821 189.067C187.821 189.751 187.563 190.345 187.137 190.809C187.821 191.222 188.557 191.532 189.331 191.738C193.125 192.861 197.371 192.164 197.371 192.164V192.138C196.984 192.061 196.597 191.919 196.222 191.725L186.608 186.602C185.73 186.138 184.724 186.034 183.795 186.344L182.285 186.86Z" fill="#D8667C"/>
<path d="M185.214 186.485C186.646 186.485 187.821 187.634 187.821 189.066C187.821 189.75 187.563 190.344 187.137 190.809C186.672 191.338 185.975 191.66 185.214 191.66C184.788 191.66 184.375 191.557 184.027 191.351C183.304 191.002 182.788 190.305 182.672 189.466C182.646 189.324 182.633 189.195 182.633 189.053C182.633 187.634 183.782 186.485 185.214 186.485Z" fill="#3A3635"/>
<path d="M262.077 186.24C265.497 186.008 268.839 184.485 271.446 182.11C272.736 180.91 273.846 179.504 274.685 177.955C275.537 176.368 276.117 174.832 276.814 173.258C278.156 170.135 279.473 166.999 280.699 163.837C281.964 160.688 283.177 157.513 284.299 154.287C282.699 157.294 281.202 160.353 279.757 163.424C278.273 166.482 276.879 169.58 275.498 172.69C274.788 174.213 274.156 175.864 273.433 177.284C272.659 178.704 271.73 180.071 270.581 181.233C268.336 183.62 265.368 185.324 262.077 186.24Z" fill="#A34A0D"/>
<path d="M352.606 135.911H417.286V170.509H352.606V135.911Z" fill="#F99410"/>
<path d="M381.087 135.911H388.804V154.287H381.087V135.911Z" fill="#AF680B"/>
<path d="M356.193 141.189H370.995V147.306H356.193V141.189Z" fill="#FFE8CA"/>
<path d="M314.213 74.0303H384.933C385.294 74.0303 385.578 73.7463 385.578 73.385C385.578 73.0237 385.294 72.7397 384.933 72.7397H314.213C313.852 72.7397 313.568 73.0237 313.568 73.385C313.568 73.7334 313.865 74.0303 314.213 74.0303Z" fill="#3F1085"/>
<path d="M306.896 82.2378H348.734C349.095 82.2378 349.379 81.9539 349.379 81.5925C349.379 81.2312 349.095 80.9473 348.734 80.9473H306.896C306.534 80.9473 306.25 81.2312 306.25 81.5925C306.25 81.941 306.534 82.2378 306.896 82.2378Z" fill="#3F1085"/>
<path d="M406.51 221.987H461.731C462.093 221.987 462.376 221.703 462.376 221.342C462.376 220.98 462.093 220.696 461.731 220.696H406.51C406.149 220.696 405.865 220.98 405.865 221.342C405.865 221.703 406.149 221.987 406.51 221.987Z" fill="#3F1085"/>
<path d="M442.799 211.779H484.65C485.012 211.779 485.296 211.495 485.296 211.134C485.296 210.772 485.012 210.488 484.65 210.488H442.812C442.451 210.488 442.167 210.772 442.167 211.134C442.154 211.495 442.451 211.779 442.799 211.779Z" fill="#3F1085"/>
<path d="M181.639 153.112H208.636C208.998 153.112 209.282 152.828 209.282 152.467C209.282 152.106 208.998 151.822 208.636 151.822H181.639C181.278 151.822 180.994 152.106 180.994 152.467C180.994 152.828 181.291 153.112 181.639 153.112Z" fill="#3F1085"/>
<path d="M189.047 143.563H235.853C236.215 143.563 236.499 143.279 236.499 142.918C236.499 142.556 236.215 142.272 235.853 142.272H189.034C188.672 142.272 188.388 142.556 188.388 142.918C188.401 143.279 188.685 143.563 189.047 143.563Z" fill="#3F1085"/>
<path d="M325.35 95.6079H381.9C382.261 95.6079 382.545 95.324 382.545 94.9626C382.545 94.6013 382.261 94.3174 381.9 94.3174H325.35C324.988 94.3174 324.705 94.6013 324.705 94.9626C324.705 95.3111 324.988 95.6079 325.35 95.6079Z" fill="#3F1085"/>
<path d="M435.456 232.363H492.006C492.368 232.363 492.652 232.079 492.652 231.718C492.652 231.356 492.368 231.072 492.006 231.072H435.456C435.095 231.072 434.811 231.356 434.811 231.718C434.811 232.079 435.095 232.363 435.456 232.363Z" fill="#3F1085"/>
</svg>
