<svg width="471" height="473" viewBox="0 0 471 473" fill="none" xmlns="http://www.w3.org/2000/svg">
<path d="M415.131 32.3538H295.681C295.681 32.3538 307.519 0 325.751 0C343.983 0 349.686 22.3303 349.686 22.3303C349.686 22.3303 361.981 10.1991 372.087 10.1991C382.192 10.1991 390.974 26.2297 390.974 26.2297C390.974 26.2297 405.248 17.6113 415.131 32.3538Z" fill="#EBEBEB"/>
<path opacity="0.5" d="M470.799 66.8727H414.979C414.979 66.8727 427.45 48.8047 437.274 48.8047C447.099 48.8047 450.003 60.8539 450.003 60.8539C450.003 60.8539 456.935 55.2333 463.364 56.2403C469.804 57.2357 470.799 66.8727 470.799 66.8727Z" fill="#EBEBEB"/>
<path opacity="0.5" d="M357.59 134.098H301.77C301.77 134.098 314.241 116.03 324.065 116.03C333.89 116.03 336.794 128.08 336.794 128.08C336.794 128.08 343.726 122.459 350.154 123.466C356.595 124.461 357.59 134.098 357.59 134.098Z" fill="#EBEBEB"/>
<path d="M108.724 147.986H0C0 147.986 14.8947 114.743 30.8199 112.67C46.745 110.597 54.368 137.366 54.368 137.366C54.368 137.366 64.6374 127.904 72.7171 127.904C80.7968 127.904 87.0263 140.375 87.0263 140.375C87.0263 140.375 103.186 131.827 108.724 147.986Z" fill="#EBEBEB"/>
<path opacity="0.5" d="M158.385 50.2936H84.9304C84.9304 50.2936 97.5417 26.2068 111.23 25.8555C124.919 25.5042 132.109 44.0875 132.109 44.0875C132.109 44.0875 153.409 27.003 158.385 50.2936Z" fill="#EBEBEB"/>
<path d="M276.395 164.874H232.741V393.728H276.395V164.874Z" fill="#DBDBDB"/>
<path d="M248.011 172.308H239.522V181.043H248.011V172.308Z" fill="#EBEBEB"/>
<path d="M258.866 172.308H250.376V181.043H258.866V172.308Z" fill="#EBEBEB"/>
<path d="M248.011 187.144H239.521V195.879H248.011V187.144Z" fill="#EBEBEB"/>
<path d="M258.866 187.144H250.376V195.879H258.866V187.144Z" fill="#EBEBEB"/>
<path d="M248.011 201.981H239.521V210.717H248.011V201.981Z" fill="#EBEBEB"/>
<path d="M258.866 201.981H250.376V210.717H258.866V201.981Z" fill="#EBEBEB"/>
<path d="M248.011 216.816H239.521V225.552H248.011V216.816Z" fill="#EBEBEB"/>
<path d="M258.866 216.816H250.376V225.552H258.866V216.816Z" fill="#EBEBEB"/>
<path d="M248.011 231.652H239.521V240.388H248.011V231.652Z" fill="#EBEBEB"/>
<path d="M258.866 231.652H250.376V240.388H258.866V231.652Z" fill="#EBEBEB"/>
<path d="M248.011 246.488H239.521V255.224H248.011V246.488Z" fill="#EBEBEB"/>
<path d="M258.866 246.488H250.376V255.224H258.866V246.488Z" fill="#EBEBEB"/>
<path d="M248.011 261.325H239.521V270.061H248.011V261.325Z" fill="#EBEBEB"/>
<path d="M258.866 261.325H250.376V270.061H258.866V261.325Z" fill="#EBEBEB"/>
<path d="M248.011 276.161H239.521V284.897H248.011V276.161Z" fill="#EBEBEB"/>
<path d="M258.866 276.161H250.376V284.897H258.866V276.161Z" fill="#EBEBEB"/>
<path d="M248.011 290.998H239.521V299.733H248.011V290.998Z" fill="#EBEBEB"/>
<path d="M258.866 290.998H250.376V299.733H258.866V290.998Z" fill="#EBEBEB"/>
<path d="M248.011 305.834H239.521V314.569H248.011V305.834Z" fill="#EBEBEB"/>
<path d="M258.866 305.834H250.376V314.569H258.866V305.834Z" fill="#EBEBEB"/>
<path d="M248.011 320.671H239.521V329.406H248.011V320.671Z" fill="#EBEBEB"/>
<path d="M258.866 320.671H250.376V329.406H258.866V320.671Z" fill="#EBEBEB"/>
<path d="M248.011 335.505H239.521V344.24H248.011V335.505Z" fill="#EBEBEB"/>
<path d="M258.866 335.505H250.376V344.24H258.866V335.505Z" fill="#EBEBEB"/>
<path d="M248.011 350.342H239.521V359.077H248.011V350.342Z" fill="#EBEBEB"/>
<path d="M258.866 350.342H250.376V359.077H258.866V350.342Z" fill="#EBEBEB"/>
<path d="M248.011 365.179H239.521V373.914H248.011V365.179Z" fill="#EBEBEB"/>
<path d="M261.132 373.905H269.621V365.17H261.132V373.905Z" fill="#EBEBEB"/>
<path d="M261.132 359.071H269.621V350.336H261.132V359.071Z" fill="#EBEBEB"/>
<path d="M261.132 344.234H269.621V335.499H261.132V344.234Z" fill="#EBEBEB"/>
<path d="M261.132 329.399H269.621V320.664H261.132V329.399Z" fill="#EBEBEB"/>
<path d="M261.132 314.564H269.621V305.829H261.132V314.564Z" fill="#EBEBEB"/>
<path d="M261.132 299.729H269.621V290.993H261.132V299.729Z" fill="#EBEBEB"/>
<path d="M261.132 284.895H269.621V276.159H261.132V284.895Z" fill="#EBEBEB"/>
<path d="M261.132 270.058H269.621V261.322H261.132V270.058Z" fill="#EBEBEB"/>
<path d="M261.132 255.223H269.621V246.487H261.132V255.223Z" fill="#EBEBEB"/>
<path d="M261.132 240.387H269.621V231.651H261.132V240.387Z" fill="#EBEBEB"/>
<path d="M261.132 225.553H269.621V216.817H261.132V225.553Z" fill="#EBEBEB"/>
<path d="M261.132 210.716H269.621V201.98H261.132V210.716Z" fill="#EBEBEB"/>
<path d="M261.132 195.881H269.621V187.145H261.132V195.881Z" fill="#EBEBEB"/>
<path d="M261.132 181.044H269.621V172.309H261.132V181.044Z" fill="#EBEBEB"/>
<path d="M258.866 365.179H250.376V373.914H258.866V365.179Z" fill="#EBEBEB"/>
<path d="M310.821 164.874H276.395V393.728H310.821V164.874Z" fill="#A6A6A6"/>
<path d="M300.262 373.907H307.276V365.172H300.262V373.907Z" fill="#C7C7C7"/>
<path d="M291.301 373.907H298.303V365.172H291.301V373.907Z" fill="#C7C7C7"/>
<path d="M300.262 359.073H307.276V350.338H300.262V359.073Z" fill="#C7C7C7"/>
<path d="M291.301 359.073H298.303V350.338H291.301V359.073Z" fill="#C7C7C7"/>
<path d="M300.262 344.236H307.276V335.501H300.262V344.236Z" fill="#C7C7C7"/>
<path d="M291.301 344.236H298.303V335.501H291.301V344.236Z" fill="#C7C7C7"/>
<path d="M300.262 329.4H307.276V320.665H300.262V329.4Z" fill="#C7C7C7"/>
<path d="M291.301 329.4H298.303V320.665H291.301V329.4Z" fill="#C7C7C7"/>
<path d="M300.262 314.566H307.276V305.831H300.262V314.566Z" fill="#C7C7C7"/>
<path d="M291.301 314.566H298.303V305.831H291.301V314.566Z" fill="#C7C7C7"/>
<path d="M300.262 299.73H307.276V290.995H300.262V299.73Z" fill="#C7C7C7"/>
<path d="M291.301 299.73H298.303V290.995H291.301V299.73Z" fill="#C7C7C7"/>
<path d="M300.262 284.896H307.276V276.161H300.262V284.896Z" fill="#C7C7C7"/>
<path d="M291.301 284.896H298.303V276.161H291.301V284.896Z" fill="#C7C7C7"/>
<path d="M300.262 270.06H307.276V261.324H300.262V270.06Z" fill="#C7C7C7"/>
<path d="M291.301 270.06H298.303V261.324H291.301V270.06Z" fill="#C7C7C7"/>
<path d="M300.262 255.225H307.276V246.489H300.262V255.225Z" fill="#C7C7C7"/>
<path d="M291.301 255.225H298.303V246.489H291.301V255.225Z" fill="#C7C7C7"/>
<path d="M300.262 240.389H307.276V231.653H300.262V240.389Z" fill="#C7C7C7"/>
<path d="M291.301 240.389H298.303V231.653H291.301V240.389Z" fill="#C7C7C7"/>
<path d="M300.262 225.554H307.276V216.818H300.262V225.554Z" fill="#C7C7C7"/>
<path d="M291.301 225.554H298.303V216.818H291.301V225.554Z" fill="#C7C7C7"/>
<path d="M300.262 210.718H307.276V201.982H300.262V210.718Z" fill="#C7C7C7"/>
<path d="M291.301 210.718H298.303V201.982H291.301V210.718Z" fill="#C7C7C7"/>
<path d="M300.262 195.882H307.276V187.146H300.262V195.882Z" fill="#C7C7C7"/>
<path d="M291.301 195.882H298.303V187.146H291.301V195.882Z" fill="#C7C7C7"/>
<path d="M300.262 181.047H307.276V172.311H300.262V181.047Z" fill="#C7C7C7"/>
<path d="M289.416 172.309H282.414V181.044H289.416V172.309Z" fill="#C7C7C7"/>
<path d="M289.416 187.146H282.414V195.881H289.416V187.146Z" fill="#C7C7C7"/>
<path d="M289.416 201.983H282.414V210.719H289.416V201.983Z" fill="#C7C7C7"/>
<path d="M289.416 216.818H282.414V225.554H289.416V216.818Z" fill="#C7C7C7"/>
<path d="M289.416 231.654H282.414V240.39H289.416V231.654Z" fill="#C7C7C7"/>
<path d="M289.416 246.49H282.414V255.226H289.416V246.49Z" fill="#C7C7C7"/>
<path d="M289.416 261.327H282.414V270.063H289.416V261.327Z" fill="#C7C7C7"/>
<path d="M289.416 276.164H282.414V284.899H289.416V276.164Z" fill="#C7C7C7"/>
<path d="M289.416 291H282.414V299.735H289.416V291Z" fill="#C7C7C7"/>
<path d="M289.416 305.836H282.414V314.571H289.416V305.836Z" fill="#C7C7C7"/>
<path d="M289.416 320.673H282.414V329.408H289.416V320.673Z" fill="#C7C7C7"/>
<path d="M289.416 335.508H282.414V344.243H289.416V335.508Z" fill="#C7C7C7"/>
<path d="M289.416 350.344H282.414V359.079H289.416V350.344Z" fill="#C7C7C7"/>
<path d="M289.416 365.181H282.414V373.916H289.416V365.181Z" fill="#C7C7C7"/>
<path d="M291.301 181.047H298.303V172.311H291.301V181.047Z" fill="#C7C7C7"/>
<path d="M119.427 159.884H73.8879V393.738H119.427V159.884Z" fill="#EBEBEB"/>
<path d="M119.439 155.224H72.7991V159.884H119.439V155.224Z" fill="#C7C7C7"/>
<path d="M82.6234 166.748H78.0098V393.728H82.6234V166.748Z" fill="white"/>
<path d="M90.7967 166.747H86.1831V393.727H90.7967V166.747Z" fill="white"/>
<path d="M98.9701 166.747H94.3564V393.727H98.9701V166.747Z" fill="white"/>
<path d="M107.143 166.747H102.53V393.727H107.143V166.747Z" fill="white"/>
<path d="M115.316 166.747H110.703V393.727H115.316V166.747Z" fill="white"/>
<path d="M82.6234 172.624H78.0098V181.816H82.6234V172.624Z" fill="#EBEBEB"/>
<path d="M90.797 172.623H86.1833V181.815H90.797V172.623Z" fill="#EBEBEB"/>
<path d="M98.9703 172.623H94.3567V181.815H98.9703V172.623Z" fill="#EBEBEB"/>
<path d="M107.144 172.623H102.53V181.815H107.144V172.623Z" fill="#EBEBEB"/>
<path d="M115.317 172.623H110.703V181.815H115.317V172.623Z" fill="#EBEBEB"/>
<path d="M82.6234 187.568H78.0098V196.76H82.6234V187.568Z" fill="#EBEBEB"/>
<path d="M90.797 187.567H86.1833V196.759H90.797V187.567Z" fill="#EBEBEB"/>
<path d="M98.9703 187.567H94.3567V196.759H98.9703V187.567Z" fill="#EBEBEB"/>
<path d="M107.144 187.567H102.53V196.759H107.144V187.567Z" fill="#EBEBEB"/>
<path d="M115.317 187.567H110.703V196.759H115.317V187.567Z" fill="#EBEBEB"/>
<path d="M82.6234 202.509H78.0098V211.701H82.6234V202.509Z" fill="#EBEBEB"/>
<path d="M90.797 202.507H86.1833V211.699H90.797V202.507Z" fill="#EBEBEB"/>
<path d="M98.9703 202.507H94.3567V211.699H98.9703V202.507Z" fill="#EBEBEB"/>
<path d="M107.144 202.507H102.53V211.699H107.144V202.507Z" fill="#EBEBEB"/>
<path d="M115.317 202.507H110.703V211.699H115.317V202.507Z" fill="#EBEBEB"/>
<path d="M82.6236 217.448H78.01V226.64H82.6236V217.448Z" fill="#EBEBEB"/>
<path d="M90.797 217.449H86.1833V226.641H90.797V217.449Z" fill="#EBEBEB"/>
<path d="M98.9701 217.449H94.3564V226.641H98.9701V217.449Z" fill="#EBEBEB"/>
<path d="M107.143 217.449H102.53V226.641H107.143V217.449Z" fill="#EBEBEB"/>
<path d="M115.317 217.449H110.703V226.641H115.317V217.449Z" fill="#EBEBEB"/>
<path d="M82.6234 232.391H78.0098V241.583H82.6234V232.391Z" fill="#EBEBEB"/>
<path d="M90.7967 232.39H86.1831V241.582H90.7967V232.39Z" fill="#EBEBEB"/>
<path d="M98.9698 232.39H94.3562V241.582H98.9698V232.39Z" fill="#EBEBEB"/>
<path d="M107.143 232.39H102.53V241.582H107.143V232.39Z" fill="#EBEBEB"/>
<path d="M115.316 232.39H110.703V241.582H115.316V232.39Z" fill="#EBEBEB"/>
<path d="M82.6231 247.319H78.0095V256.511H82.6231V247.319Z" fill="#EBEBEB"/>
<path d="M90.7967 247.319H86.1831V256.511H90.7967V247.319Z" fill="#EBEBEB"/>
<path d="M98.9698 247.319H94.3562V256.511H98.9698V247.319Z" fill="#EBEBEB"/>
<path d="M107.143 247.319H102.53V256.511H107.143V247.319Z" fill="#EBEBEB"/>
<path d="M115.316 247.319H110.703V256.511H115.316V247.319Z" fill="#EBEBEB"/>
<path d="M82.6231 262.262H78.0095V271.454H82.6231V262.262Z" fill="#EBEBEB"/>
<path d="M90.7967 262.262H86.1831V271.454H90.7967V262.262Z" fill="#EBEBEB"/>
<path d="M98.9701 262.262H94.3564V271.454H98.9701V262.262Z" fill="#EBEBEB"/>
<path d="M107.143 262.262H102.53V271.454H107.143V262.262Z" fill="#EBEBEB"/>
<path d="M115.316 262.262H110.703V271.454H115.316V262.262Z" fill="#EBEBEB"/>
<path d="M82.6234 277.204H78.0098V286.396H82.6234V277.204Z" fill="#EBEBEB"/>
<path d="M90.797 277.204H86.1833V286.396H90.797V277.204Z" fill="#EBEBEB"/>
<path d="M98.9703 277.204H94.3567V286.396H98.9703V277.204Z" fill="#EBEBEB"/>
<path d="M107.144 277.204H102.53V286.396H107.144V277.204Z" fill="#EBEBEB"/>
<path d="M115.317 277.204H110.703V286.396H115.317V277.204Z" fill="#EBEBEB"/>
<path d="M82.6236 292.146H78.01V301.338H82.6236V292.146Z" fill="#EBEBEB"/>
<path d="M90.797 292.146H86.1833V301.338H90.797V292.146Z" fill="#EBEBEB"/>
<path d="M98.9701 292.146H94.3564V301.338H98.9701V292.146Z" fill="#EBEBEB"/>
<path d="M107.143 292.146H102.53V301.338H107.143V292.146Z" fill="#EBEBEB"/>
<path d="M115.317 292.146H110.703V301.338H115.317V292.146Z" fill="#EBEBEB"/>
<path d="M82.6236 307.087H78.01V316.279H82.6236V307.087Z" fill="#EBEBEB"/>
<path d="M90.797 307.087H86.1833V316.279H90.797V307.087Z" fill="#EBEBEB"/>
<path d="M98.9703 307.087H94.3567V316.279H98.9703V307.087Z" fill="#EBEBEB"/>
<path d="M107.144 307.087H102.53V316.279H107.144V307.087Z" fill="#EBEBEB"/>
<path d="M115.316 307.087H110.703V316.279H115.316V307.087Z" fill="#EBEBEB"/>
<path d="M82.6234 322.031H78.0098V331.223H82.6234V322.031Z" fill="#EBEBEB"/>
<path d="M90.797 322.029H86.1833V331.221H90.797V322.029Z" fill="#EBEBEB"/>
<path d="M98.9703 322.029H94.3567V331.221H98.9703V322.029Z" fill="#EBEBEB"/>
<path d="M107.144 322.029H102.53V331.221H107.144V322.029Z" fill="#EBEBEB"/>
<path d="M115.317 322.029H110.703V331.221H115.317V322.029Z" fill="#EBEBEB"/>
<path d="M82.6234 336.959H78.0098V346.151H82.6234V336.959Z" fill="#EBEBEB"/>
<path d="M90.797 336.958H86.1833V346.15H90.797V336.958Z" fill="#EBEBEB"/>
<path d="M98.9703 336.958H94.3567V346.15H98.9703V336.958Z" fill="#EBEBEB"/>
<path d="M107.144 336.958H102.53V346.15H107.144V336.958Z" fill="#EBEBEB"/>
<path d="M115.317 336.958H110.703V346.15H115.317V336.958Z" fill="#EBEBEB"/>
<path d="M82.6236 351.899H78.01V361.092H82.6236V351.899Z" fill="#EBEBEB"/>
<path d="M90.797 351.899H86.1833V361.092H90.797V351.899Z" fill="#EBEBEB"/>
<path d="M98.9701 351.899H94.3564V361.092H98.9701V351.899Z" fill="#EBEBEB"/>
<path d="M107.143 351.899H102.53V361.092H107.143V351.899Z" fill="#EBEBEB"/>
<path d="M115.317 351.899H110.703V361.092H115.317V351.899Z" fill="#EBEBEB"/>
<path d="M82.6234 366.84H78.0098V393.725H82.6234V366.84Z" fill="#EBEBEB"/>
<path d="M90.797 366.84H86.1833V393.725H90.797V366.84Z" fill="#EBEBEB"/>
<path d="M98.9703 366.84H94.3567V393.725H98.9703V366.84Z" fill="#EBEBEB"/>
<path d="M107.144 366.84H102.53V393.725H107.144V366.84Z" fill="#EBEBEB"/>
<path d="M115.317 366.84H110.703V393.725H115.317V366.84Z" fill="#EBEBEB"/>
<path d="M148.678 159.884H119.439V393.738H148.678V159.884Z" fill="#DBDBDB"/>
<path d="M149.942 155.224H119.439V159.884H149.942V155.224Z" fill="#C7C7C7"/>
<path d="M128.163 166.745H123.549V393.725H128.163V166.745Z" fill="#C7C7C7"/>
<path d="M136.336 166.746H131.722V393.726H136.336V166.746Z" fill="#C7C7C7"/>
<path d="M144.509 166.746H139.895V393.726H144.509V166.746Z" fill="#C7C7C7"/>
<path d="M128.162 172.623H123.549V181.815H128.162V172.623Z" fill="#DBDBDB"/>
<path d="M136.336 172.622H131.722V181.814H136.336V172.622Z" fill="#DBDBDB"/>
<path d="M144.509 172.622H139.896V181.814H144.509V172.622Z" fill="#DBDBDB"/>
<path d="M128.162 187.566H123.549V196.759H128.162V187.566Z" fill="#DBDBDB"/>
<path d="M136.336 187.565H131.722V196.758H136.336V187.565Z" fill="#DBDBDB"/>
<path d="M144.509 187.565H139.896V196.758H144.509V187.565Z" fill="#DBDBDB"/>
<path d="M128.162 202.51H123.549V211.702H128.162V202.51Z" fill="#DBDBDB"/>
<path d="M136.336 202.507H131.722V211.699H136.336V202.507Z" fill="#DBDBDB"/>
<path d="M144.509 202.507H139.896V211.699H144.509V202.507Z" fill="#DBDBDB"/>
<path d="M128.162 217.448H123.549V226.64H128.162V217.448Z" fill="#DBDBDB"/>
<path d="M136.336 217.449H131.722V226.641H136.336V217.449Z" fill="#DBDBDB"/>
<path d="M144.509 217.449H139.895V226.641H144.509V217.449Z" fill="#DBDBDB"/>
<path d="M128.162 232.39H123.549V241.582H128.162V232.39Z" fill="#DBDBDB"/>
<path d="M136.336 232.389H131.722V241.581H136.336V232.389Z" fill="#DBDBDB"/>
<path d="M144.509 232.389H139.896V241.581H144.509V232.389Z" fill="#DBDBDB"/>
<path d="M128.162 247.32H123.549V256.512H128.162V247.32Z" fill="#DBDBDB"/>
<path d="M136.336 247.319H131.722V256.511H136.336V247.319Z" fill="#DBDBDB"/>
<path d="M144.509 247.319H139.896V256.511H144.509V247.319Z" fill="#DBDBDB"/>
<path d="M128.162 262.262H123.549V271.454H128.162V262.262Z" fill="#DBDBDB"/>
<path d="M136.336 262.262H131.722V271.454H136.336V262.262Z" fill="#DBDBDB"/>
<path d="M144.509 262.262H139.896V271.454H144.509V262.262Z" fill="#DBDBDB"/>
<path d="M128.162 277.203H123.549V286.395H128.162V277.203Z" fill="#DBDBDB"/>
<path d="M136.336 277.203H131.722V286.395H136.336V277.203Z" fill="#DBDBDB"/>
<path d="M144.509 277.203H139.896V286.395H144.509V277.203Z" fill="#DBDBDB"/>
<path d="M128.162 292.145H123.549V301.337H128.162V292.145Z" fill="#DBDBDB"/>
<path d="M136.336 292.145H131.722V301.337H136.336V292.145Z" fill="#DBDBDB"/>
<path d="M144.509 292.145H139.895V301.337H144.509V292.145Z" fill="#DBDBDB"/>
<path d="M128.162 307.086H123.549V316.278H128.162V307.086Z" fill="#DBDBDB"/>
<path d="M136.336 307.086H131.722V316.278H136.336V307.086Z" fill="#DBDBDB"/>
<path d="M144.509 307.086H139.896V316.278H144.509V307.086Z" fill="#DBDBDB"/>
<path d="M128.162 322.027H123.549V331.219H128.162V322.027Z" fill="#DBDBDB"/>
<path d="M136.336 322.027H131.722V331.219H136.336V322.027Z" fill="#DBDBDB"/>
<path d="M144.509 322.027H139.896V331.219H144.509V322.027Z" fill="#DBDBDB"/>
<path d="M128.162 336.957H123.549V346.149H128.162V336.957Z" fill="#DBDBDB"/>
<path d="M136.336 336.957H131.722V346.149H136.336V336.957Z" fill="#DBDBDB"/>
<path d="M144.509 336.957H139.896V346.149H144.509V336.957Z" fill="#DBDBDB"/>
<path d="M128.162 351.899H123.549V361.092H128.162V351.899Z" fill="#DBDBDB"/>
<path d="M136.336 351.899H131.722V361.092H136.336V351.899Z" fill="#DBDBDB"/>
<path d="M144.509 351.899H139.895V361.092H144.509V351.899Z" fill="#DBDBDB"/>
<path d="M128.162 366.841H123.549V393.726H128.162V366.841Z" fill="#DBDBDB"/>
<path d="M136.336 366.841H131.722V393.726H136.336V366.841Z" fill="#DBDBDB"/>
<path d="M144.509 366.841H139.896V393.726H144.509V366.841Z" fill="#DBDBDB"/>
<path d="M53.3491 229.92H10.1521V393.727H53.3491V229.92Z" fill="#EBEBEB"/>
<path d="M53.3485 219.053H16.2991V229.919H53.3485V219.053Z" fill="#C7C7C7"/>
<path d="M48.6074 235.587H14.8835V358.047H48.6074V235.587Z" fill="#DBDBDB"/>
<path d="M48.6069 247.272H14.8831V250.165H48.6069V247.272Z" fill="white"/>
<path d="M48.6069 259.265H14.8831V262.157H48.6069V259.265Z" fill="white"/>
<path d="M48.6069 271.242H14.8831V274.134H48.6069V271.242Z" fill="white"/>
<path d="M48.6069 283.233H14.8831V286.126H48.6069V283.233Z" fill="white"/>
<path d="M48.6069 295.225H14.8831V298.117H48.6069V295.225Z" fill="white"/>
<path d="M48.6069 307.203H14.8831V310.095H48.6069V307.203Z" fill="white"/>
<path d="M48.6069 319.194H14.8831V322.087H48.6069V319.194Z" fill="white"/>
<path d="M48.6069 331.185H14.8831V334.077H48.6069V331.185Z" fill="white"/>
<path d="M48.6069 343.163H14.8831V346.055H48.6069V343.163Z" fill="white"/>
<path d="M48.6069 355.154H14.8831V358.047H48.6069V355.154Z" fill="white"/>
<path d="M80.398 229.92H53.3486V393.727H80.398V229.92Z" fill="#DBDBDB"/>
<path d="M76.3467 219.053H53.3489V229.919H76.3467V219.053Z" fill="#A6A6A6"/>
<path d="M77.8687 235.587H57.0723V358.047H77.8687V235.587Z" fill="#C7C7C7"/>
<path d="M77.8689 247.272H57.0725V250.165H77.8689V247.272Z" fill="white"/>
<path d="M77.8689 259.265H57.0725V262.157H77.8689V259.265Z" fill="white"/>
<path d="M77.8689 271.242H57.0725V274.134H77.8689V271.242Z" fill="white"/>
<path d="M77.8689 283.233H57.0725V286.126H77.8689V283.233Z" fill="white"/>
<path d="M77.8689 295.225H57.0725V298.117H77.8689V295.225Z" fill="white"/>
<path d="M77.8689 307.203H57.0725V310.095H77.8689V307.203Z" fill="white"/>
<path d="M77.8689 319.194H57.0725V322.087H77.8689V319.194Z" fill="white"/>
<path d="M77.8689 331.185H57.0725V334.077H77.8689V331.185Z" fill="white"/>
<path d="M77.8689 343.163H57.0725V346.055H77.8689V343.163Z" fill="white"/>
<path d="M77.8689 355.154H57.0725V358.047H77.8689V355.154Z" fill="white"/>
<path d="M419.171 232.685H396.103V259.933H419.171V232.685Z" fill="#DBDBDB"/>
<path d="M433.797 232.685H419.171V260.94H433.797V232.685Z" fill="#C7C7C7"/>
<path d="M434.768 244.709H420.248V260.927H434.768V244.709Z" fill="#DBDBDB"/>
<path d="M443.82 244.709H434.769V260.927H443.82V244.709Z" fill="#C7C7C7"/>
<path d="M424.558 258.163H387.25V393.738H424.558V258.163Z" fill="#EBEBEB"/>
<path d="M403.245 263.981H391.512V268.771H403.245V263.981Z" fill="white"/>
<path d="M418.258 263.982H406.525V268.772H418.258V263.982Z" fill="white"/>
<path d="M403.246 272.121H391.513V276.91H403.246V272.121Z" fill="white"/>
<path d="M418.258 272.121H406.525V276.91H418.258V272.121Z" fill="white"/>
<path d="M403.246 280.259H391.513V285.048H403.246V280.259Z" fill="white"/>
<path d="M418.258 280.259H406.525V285.048H418.258V280.259Z" fill="white"/>
<path d="M403.246 288.397H391.513V293.187H403.246V288.397Z" fill="white"/>
<path d="M418.258 288.397H406.525V293.187H418.258V288.397Z" fill="white"/>
<path d="M403.246 296.535H391.513V301.324H403.246V296.535Z" fill="white"/>
<path d="M418.258 296.535H406.525V301.324H418.258V296.535Z" fill="white"/>
<path d="M403.246 304.674H391.513V309.463H403.246V304.674Z" fill="white"/>
<path d="M418.258 304.674H406.525V309.463H418.258V304.674Z" fill="white"/>
<path d="M403.246 312.811H391.513V317.6H403.246V312.811Z" fill="white"/>
<path d="M418.258 312.811H406.525V317.6H418.258V312.811Z" fill="white"/>
<path d="M403.246 320.951H391.513V325.74H403.246V320.951Z" fill="white"/>
<path d="M418.258 320.951H406.525V325.74H418.258V320.951Z" fill="white"/>
<path d="M403.246 329.087H391.513V333.876H403.246V329.087Z" fill="white"/>
<path d="M418.258 329.087H406.525V333.876H418.258V329.087Z" fill="white"/>
<path d="M403.246 337.226H391.513V342.015H403.246V337.226Z" fill="white"/>
<path d="M418.258 337.226H406.525V342.015H418.258V337.226Z" fill="white"/>
<path d="M403.246 345.354H391.513V350.143H403.246V345.354Z" fill="white"/>
<path d="M418.258 345.354H406.525V350.143H418.258V345.354Z" fill="white"/>
<path d="M403.246 353.491H391.513V358.28H403.246V353.491Z" fill="white"/>
<path d="M418.258 353.491H406.525V358.28H418.258V353.491Z" fill="white"/>
<path d="M403.246 361.629H391.513V366.418H403.246V361.629Z" fill="white"/>
<path d="M418.258 361.629H406.525V366.418H418.258V361.629Z" fill="white"/>
<path d="M403.246 369.767H391.513V374.556H403.246V369.767Z" fill="white"/>
<path d="M418.258 369.767H406.525V374.556H418.258V369.767Z" fill="white"/>
<path d="M454.781 258.163H424.558V393.738H454.781V258.163Z" fill="#C7C7C7"/>
<path d="M442.122 374.564H451.748V369.775H442.122V374.564Z" fill="#EBEBEB"/>
<path d="M429.8 374.564H439.426V369.775H429.8V374.564Z" fill="#EBEBEB"/>
<path d="M442.122 366.427H451.748V361.638H442.122V366.427Z" fill="#EBEBEB"/>
<path d="M429.8 366.427H439.426V361.638H429.8V366.427Z" fill="#EBEBEB"/>
<path d="M442.122 358.292H451.748V353.503H442.122V358.292Z" fill="#EBEBEB"/>
<path d="M429.8 358.292H439.426V353.503H429.8V358.292Z" fill="#EBEBEB"/>
<path d="M442.122 350.156H451.748V345.367H442.122V350.156Z" fill="#EBEBEB"/>
<path d="M429.8 350.156H439.426V345.367H429.8V350.156Z" fill="#EBEBEB"/>
<path d="M442.122 342.007H451.748V337.218H442.122V342.007Z" fill="#EBEBEB"/>
<path d="M429.8 342.007H439.426V337.218H429.8V342.007Z" fill="#EBEBEB"/>
<path d="M442.122 333.87H451.748V329.081H442.122V333.87Z" fill="#EBEBEB"/>
<path d="M429.8 333.87H439.426V329.081H429.8V333.87Z" fill="#EBEBEB"/>
<path d="M442.122 325.734H451.748V320.945H442.122V325.734Z" fill="#EBEBEB"/>
<path d="M429.8 325.734H439.426V320.945H429.8V325.734Z" fill="#EBEBEB"/>
<path d="M442.122 317.598H451.748V312.808H442.122V317.598Z" fill="#EBEBEB"/>
<path d="M429.8 317.598H439.426V312.808H429.8V317.598Z" fill="#EBEBEB"/>
<path d="M442.122 309.462H451.748V304.673H442.122V309.462Z" fill="#EBEBEB"/>
<path d="M429.8 309.462H439.426V304.673H429.8V309.462Z" fill="#EBEBEB"/>
<path d="M442.122 301.326H451.748V296.537H442.122V301.326Z" fill="#EBEBEB"/>
<path d="M429.8 301.326H439.426V296.537H429.8V301.326Z" fill="#EBEBEB"/>
<path d="M442.122 293.189H451.748V288.4H442.122V293.189Z" fill="#EBEBEB"/>
<path d="M429.8 293.189H439.426V288.4H429.8V293.189Z" fill="#EBEBEB"/>
<path d="M442.122 285.053H451.748V280.263H442.122V285.053Z" fill="#EBEBEB"/>
<path d="M429.8 285.053H439.426V280.263H429.8V285.053Z" fill="#EBEBEB"/>
<path d="M442.122 276.916H451.748V272.127H442.122V276.916Z" fill="#EBEBEB"/>
<path d="M429.8 276.916H439.426V272.127H429.8V276.916Z" fill="#EBEBEB"/>
<path d="M442.122 268.779H451.748V263.99H442.122V268.779Z" fill="#EBEBEB"/>
<path d="M429.8 268.779H439.426V263.99H429.8V268.779Z" fill="#EBEBEB"/>
<path d="M169.767 232.685H146.699V259.933H169.767V232.685Z" fill="#DBDBDB"/>
<path d="M184.392 232.685H169.766V260.94H184.392V232.685Z" fill="#C7C7C7"/>
<path d="M185.376 244.709H170.856V260.927H185.376V244.709Z" fill="#DBDBDB"/>
<path d="M194.415 244.709H185.364V260.927H194.415V244.709Z" fill="#C7C7C7"/>
<path d="M175.153 258.163H137.846V393.738H175.153V258.163Z" fill="#EBEBEB"/>
<path d="M153.841 263.981H142.108V268.771H153.841V263.981Z" fill="white"/>
<path d="M168.853 263.982H157.12V268.772H168.853V263.982Z" fill="white"/>
<path d="M153.841 272.121H142.108V276.91H153.841V272.121Z" fill="white"/>
<path d="M168.853 272.121H157.12V276.91H168.853V272.121Z" fill="white"/>
<path d="M153.841 280.259H142.108V285.048H153.841V280.259Z" fill="white"/>
<path d="M168.853 280.259H157.12V285.048H168.853V280.259Z" fill="white"/>
<path d="M153.841 288.397H142.108V293.187H153.841V288.397Z" fill="white"/>
<path d="M168.853 288.397H157.12V293.187H168.853V288.397Z" fill="white"/>
<path d="M153.841 296.535H142.108V301.324H153.841V296.535Z" fill="white"/>
<path d="M168.853 296.535H157.12V301.324H168.853V296.535Z" fill="white"/>
<path d="M153.841 304.674H142.108V309.463H153.841V304.674Z" fill="white"/>
<path d="M168.853 304.674H157.12V309.463H168.853V304.674Z" fill="white"/>
<path d="M153.841 312.811H142.108V317.6H153.841V312.811Z" fill="white"/>
<path d="M168.853 312.811H157.12V317.6H168.853V312.811Z" fill="white"/>
<path d="M153.841 320.951H142.108V325.74H153.841V320.951Z" fill="white"/>
<path d="M168.853 320.951H157.12V325.74H168.853V320.951Z" fill="white"/>
<path d="M153.841 329.087H142.108V333.876H153.841V329.087Z" fill="white"/>
<path d="M168.853 329.087H157.12V333.876H168.853V329.087Z" fill="white"/>
<path d="M153.841 337.226H142.108V342.015H153.841V337.226Z" fill="white"/>
<path d="M168.853 337.226H157.12V342.015H168.853V337.226Z" fill="white"/>
<path d="M153.841 345.354H142.108V350.143H153.841V345.354Z" fill="white"/>
<path d="M168.853 345.354H157.12V350.143H168.853V345.354Z" fill="white"/>
<path d="M153.841 353.491H142.108V358.28H153.841V353.491Z" fill="white"/>
<path d="M168.853 353.491H157.12V358.28H168.853V353.491Z" fill="white"/>
<path d="M153.841 361.629H142.108V366.418H153.841V361.629Z" fill="white"/>
<path d="M168.853 361.629H157.12V366.418H168.853V361.629Z" fill="white"/>
<path d="M153.841 369.767H142.108V374.556H153.841V369.767Z" fill="white"/>
<path d="M168.853 369.767H157.12V374.556H168.853V369.767Z" fill="white"/>
<path d="M205.376 258.163H175.153V393.738H205.376V258.163Z" fill="#C7C7C7"/>
<path d="M192.722 374.564H202.348V369.775H192.722V374.564Z" fill="#EBEBEB"/>
<path d="M180.401 374.564H190.026V369.775H180.401V374.564Z" fill="#EBEBEB"/>
<path d="M192.722 366.427H202.348V361.638H192.722V366.427Z" fill="#EBEBEB"/>
<path d="M180.401 366.427H190.026V361.638H180.401V366.427Z" fill="#EBEBEB"/>
<path d="M192.722 358.292H202.348V353.503H192.722V358.292Z" fill="#EBEBEB"/>
<path d="M180.401 358.292H190.026V353.503H180.401V358.292Z" fill="#EBEBEB"/>
<path d="M192.722 350.156H202.348V345.367H192.722V350.156Z" fill="#EBEBEB"/>
<path d="M180.401 350.156H190.026V345.367H180.401V350.156Z" fill="#EBEBEB"/>
<path d="M192.722 342.007H202.348V337.218H192.722V342.007Z" fill="#EBEBEB"/>
<path d="M180.401 342.007H190.026V337.218H180.401V342.007Z" fill="#EBEBEB"/>
<path d="M192.722 333.87H202.348V329.081H192.722V333.87Z" fill="#EBEBEB"/>
<path d="M180.401 333.87H190.026V329.081H180.401V333.87Z" fill="#EBEBEB"/>
<path d="M192.722 325.734H202.348V320.945H192.722V325.734Z" fill="#EBEBEB"/>
<path d="M180.401 325.734H190.026V320.945H180.401V325.734Z" fill="#EBEBEB"/>
<path d="M192.722 317.598H202.348V312.808H192.722V317.598Z" fill="#EBEBEB"/>
<path d="M180.401 317.598H190.026V312.808H180.401V317.598Z" fill="#EBEBEB"/>
<path d="M192.722 309.462H202.348V304.673H192.722V309.462Z" fill="#EBEBEB"/>
<path d="M180.401 309.462H190.026V304.673H180.401V309.462Z" fill="#EBEBEB"/>
<path d="M192.722 301.326H202.348V296.537H192.722V301.326Z" fill="#EBEBEB"/>
<path d="M180.401 301.326H190.026V296.537H180.401V301.326Z" fill="#EBEBEB"/>
<path d="M192.722 293.189H202.348V288.4H192.722V293.189Z" fill="#EBEBEB"/>
<path d="M180.401 293.189H190.026V288.4H180.401V293.189Z" fill="#EBEBEB"/>
<path d="M192.722 285.053H202.348V280.263H192.722V285.053Z" fill="#EBEBEB"/>
<path d="M180.401 285.053H190.026V280.263H180.401V285.053Z" fill="#EBEBEB"/>
<path d="M192.722 276.916H202.348V272.127H192.722V276.916Z" fill="#EBEBEB"/>
<path d="M180.401 276.916H190.026V272.127H180.401V276.916Z" fill="#EBEBEB"/>
<path d="M192.722 268.779H202.348V263.99H192.722V268.779Z" fill="#EBEBEB"/>
<path d="M180.401 268.779H190.026V263.99H180.401V268.779Z" fill="#EBEBEB"/>
<path d="M235.4 473C346.743 473 437.005 463.983 437.005 452.859C437.005 441.736 346.743 432.719 235.4 432.719C124.056 432.719 33.7942 441.736 33.7942 452.859C33.7942 463.983 124.056 473 235.4 473Z" fill="#EBEBEB"/>
<path d="M349.124 305.386H305.131V393.724H349.124V305.386Z" fill="#37474F"/>
<path d="M319.837 313.034H312.051V318.443H319.837V313.034Z" fill="#455A64"/>
<path d="M319.837 324.59H312.051V329.999H319.837V324.59Z" fill="#455A64"/>
<path d="M319.837 336.148H312.051V341.558H319.837V336.148Z" fill="#455A64"/>
<path d="M319.837 347.718H312.051V353.127H319.837V347.718Z" fill="#455A64"/>
<path d="M319.837 359.274H312.051V364.684H319.837V359.274Z" fill="#455A64"/>
<path d="M319.837 370.833H312.051V376.242H319.837V370.833Z" fill="#455A64"/>
<path d="M319.837 382.39H312.051V387.799H319.837V382.39Z" fill="#455A64"/>
<path d="M331.032 313.033H323.246V318.442H331.032V313.033Z" fill="#455A64"/>
<path d="M331.032 324.59H323.246V329.999H331.032V324.59Z" fill="#455A64"/>
<path d="M331.032 336.148H323.246V341.558H331.032V336.148Z" fill="#455A64"/>
<path d="M331.032 347.718H323.246V353.127H331.032V347.718Z" fill="#455A64"/>
<path d="M331.032 359.274H323.246V364.684H331.032V359.274Z" fill="#455A64"/>
<path d="M331.032 370.833H323.246V376.242H331.032V370.833Z" fill="#455A64"/>
<path d="M331.032 382.39H323.246V387.799H331.032V382.39Z" fill="#455A64"/>
<path d="M342.214 313.033H334.428V318.442H342.214V313.033Z" fill="#455A64"/>
<path d="M342.214 324.59H334.428V329.999H342.214V324.59Z" fill="#455A64"/>
<path d="M342.214 336.148H334.428V341.558H342.214V336.148Z" fill="#455A64"/>
<path d="M342.214 347.718H334.428V353.127H342.214V347.718Z" fill="#455A64"/>
<path d="M342.214 359.274H334.428V364.684H342.214V359.274Z" fill="#455A64"/>
<path d="M342.214 370.833H334.428V376.242H342.214V370.833Z" fill="#455A64"/>
<path d="M342.214 382.39H334.428V387.799H342.214V382.39Z" fill="#455A64"/>
<path d="M349.136 296.183H319.838V305.386H349.136V296.183Z" fill="#455A64"/>
<path d="M349.124 290.479H330.552V296.182H349.124V290.479Z" fill="#37474F"/>
<path d="M379.991 305.387H349.124V393.725H379.991V305.387Z" fill="#263238"/>
<path d="M370.499 386.938H376.833V381.528H370.499V386.938Z" fill="#37474F"/>
<path d="M370.499 375.386H376.833V369.977H370.499V375.386Z" fill="#37474F"/>
<path d="M370.499 363.824H376.833V358.415H370.499V363.824Z" fill="#37474F"/>
<path d="M370.499 352.261H376.833V346.852H370.499V352.261Z" fill="#37474F"/>
<path d="M370.499 340.7H376.833V335.291H370.499V340.7Z" fill="#37474F"/>
<path d="M370.499 329.138H376.833V323.729H370.499V329.138Z" fill="#37474F"/>
<path d="M370.499 317.587H376.833V312.178H370.499V317.587Z" fill="#37474F"/>
<path d="M361.387 386.938H367.721V381.528H361.387V386.938Z" fill="#37474F"/>
<path d="M361.387 375.386H367.721V369.977H361.387V375.386Z" fill="#37474F"/>
<path d="M361.387 363.824H367.721V358.415H361.387V363.824Z" fill="#37474F"/>
<path d="M361.387 352.261H367.721V346.852H361.387V352.261Z" fill="#37474F"/>
<path d="M361.387 340.7H367.721V335.291H361.387V340.7Z" fill="#37474F"/>
<path d="M361.387 329.138H367.721V323.729H361.387V329.138Z" fill="#37474F"/>
<path d="M361.387 317.587H367.721V312.178H361.387V317.587Z" fill="#37474F"/>
<path d="M352.295 386.938H358.629V381.528H352.295V386.938Z" fill="#37474F"/>
<path d="M352.295 375.386H358.629V369.977H352.295V375.386Z" fill="#37474F"/>
<path d="M352.295 363.824H358.629V358.415H352.295V363.824Z" fill="#37474F"/>
<path d="M352.295 352.261H358.629V346.852H352.295V352.261Z" fill="#37474F"/>
<path d="M352.295 340.7H358.629V335.291H352.295V340.7Z" fill="#37474F"/>
<path d="M352.295 329.138H358.629V323.729H352.295V329.138Z" fill="#37474F"/>
<path d="M352.295 317.588H358.629V312.179H352.295V317.588Z" fill="#37474F"/>
<path d="M375.319 296.182H349.124V305.385H375.319V296.182Z" fill="#37474F"/>
<path d="M363.316 290.479H349.124V296.182H363.316V290.479Z" fill="#263238"/>
<path d="M337.157 52.2705H349.03C323 52.2705 301.91 73.6875 301.91 100.105C301.91 126.533 323 147.95 349.03 147.95H337.157C311.126 147.95 290.037 126.533 290.037 100.105C290.037 73.6875 311.126 52.2705 337.157 52.2705Z" fill="#FFC727"/>
<g opacity="0.1">
<path opacity="0.1" d="M337.157 52.2705H349.03C323 52.2705 301.91 73.6875 301.91 100.105C301.91 126.533 323 147.95 349.03 147.95H337.157C311.126 147.95 290.037 126.533 290.037 100.105C290.037 73.6875 311.126 52.2705 337.157 52.2705Z" fill="black"/>
</g>
<path d="M349.03 283.713H337.156C384.991 227.975 429.792 166.898 423.211 99.45C418.925 55.7612 389.276 12.248 337.156 12.248H349.03C401.138 12.248 430.799 55.7612 435.073 99.45C441.665 166.898 396.864 227.987 349.03 283.713Z" fill="#FFC727"/>
<g opacity="0.1">
<path opacity="0.1" d="M349.03 283.713H337.156C384.991 227.975 429.792 166.898 423.211 99.45C418.925 55.7612 389.276 12.248 337.156 12.248H349.03C401.138 12.248 430.799 55.7612 435.073 99.45C441.665 166.898 396.864 227.987 349.03 283.713Z" fill="black"/>
</g>
<path d="M423.199 99.449C429.792 166.897 384.991 227.986 337.157 283.724C289.381 227.986 244.58 166.897 251.161 99.449C255.447 55.7602 285.095 12.2588 337.157 12.2588C389.265 12.2588 418.925 55.7602 423.199 99.449ZM337.157 147.962C363.246 147.962 384.335 126.545 384.335 100.116C384.335 73.6995 363.246 52.2825 337.157 52.2825C311.126 52.2825 290.037 73.6995 290.037 100.116C290.037 126.545 311.126 147.962 337.157 147.962Z" fill="#FFC727"/>
<path d="M2.23608 399.16L60.5268 398.879L118.818 398.773L235.399 398.586L351.981 398.773L410.271 398.879L468.562 399.16L410.271 399.452L351.981 399.558L235.399 399.745L118.818 399.558L60.5268 399.452L2.23608 399.16Z" fill="#263238"/>
<path d="M468.773 393.725H2.02588V399.158H468.773V393.725Z" fill="#C7C7C7"/>
<path d="M15.5269 393.726C15.7142 394.627 15.7493 395.54 15.7611 396.442C15.7493 397.343 15.7142 398.257 15.5269 399.158C15.3396 398.257 15.3044 397.343 15.2927 396.442C15.2927 395.54 15.3396 394.627 15.5269 393.726Z" fill="#263238"/>
<path d="M31.2298 393.726C31.4171 394.627 31.4522 395.54 31.4639 396.442C31.4522 397.343 31.4171 398.257 31.2298 399.158C31.0424 398.257 31.0073 397.343 30.9956 396.442C30.9956 395.54 31.0424 394.627 31.2298 393.726Z" fill="#263238"/>
<path d="M46.9324 393.726C47.1197 394.627 47.1549 395.54 47.1666 396.442C47.1549 397.343 47.1197 398.257 46.9324 399.158C46.7451 398.257 46.71 397.343 46.6982 396.442C46.71 395.54 46.7451 394.627 46.9324 393.726Z" fill="#263238"/>
<path d="M62.6348 393.726C62.8221 394.627 62.8573 395.54 62.869 396.442C62.8573 397.343 62.8221 398.257 62.6348 399.158C62.4475 398.257 62.4123 397.343 62.4006 396.442C62.4123 395.54 62.4475 394.627 62.6348 393.726Z" fill="#263238"/>
<path d="M78.3491 393.726C78.5365 394.627 78.5716 395.54 78.5833 396.442C78.5716 397.343 78.5365 398.257 78.3491 399.158C78.1618 398.257 78.1267 397.343 78.115 396.442C78.115 395.54 78.1618 394.627 78.3491 393.726Z" fill="#263238"/>
<path d="M94.0525 393.726C94.2398 394.627 94.275 395.54 94.2867 396.442C94.275 397.343 94.2398 398.257 94.0525 399.158C93.8652 398.257 93.8301 397.343 93.8184 396.442C93.8184 395.54 93.8652 394.627 94.0525 393.726Z" fill="#263238"/>
<path d="M109.755 393.726C109.942 394.627 109.977 395.54 109.989 396.442C109.977 397.343 109.942 398.257 109.755 399.158C109.568 398.257 109.532 397.343 109.521 396.442C109.532 395.54 109.568 394.627 109.755 393.726Z" fill="#263238"/>
<path d="M125.457 393.726C125.645 394.627 125.68 395.54 125.691 396.442C125.68 397.343 125.645 398.257 125.457 399.158C125.27 398.257 125.235 397.343 125.223 396.442C125.235 395.54 125.27 394.627 125.457 393.726Z" fill="#263238"/>
<path d="M141.172 393.726C141.359 394.627 141.394 395.54 141.406 396.442C141.394 397.343 141.359 398.257 141.172 399.158C140.985 398.257 140.949 397.343 140.938 396.442C140.938 395.54 140.985 394.627 141.172 393.726Z" fill="#263238"/>
<path d="M156.875 393.726C157.062 394.627 157.097 395.54 157.109 396.442C157.097 397.343 157.062 398.257 156.875 399.158C156.687 398.257 156.652 397.343 156.64 396.442C156.64 395.54 156.687 394.627 156.875 393.726Z" fill="#263238"/>
<path d="M172.577 393.726C172.765 394.627 172.8 395.54 172.811 396.442C172.8 397.343 172.765 398.257 172.577 399.158C172.39 398.257 172.355 397.343 172.343 396.442C172.355 395.54 172.39 394.627 172.577 393.726Z" fill="#263238"/>
<path d="M188.28 393.726C188.467 394.627 188.503 395.54 188.514 396.442C188.503 397.343 188.467 398.257 188.28 399.158C188.093 398.257 188.058 397.343 188.046 396.442C188.058 395.54 188.093 394.627 188.28 393.726Z" fill="#263238"/>
<path d="M203.994 393.726C204.181 394.627 204.216 395.54 204.228 396.442C204.216 397.343 204.181 398.257 203.994 399.158C203.807 398.257 203.771 397.343 203.76 396.442C203.76 395.54 203.807 394.627 203.994 393.726Z" fill="#263238"/>
<path d="M219.697 393.726C219.885 394.627 219.92 395.54 219.931 396.442C219.92 397.343 219.885 398.257 219.697 399.158C219.51 398.257 219.475 397.343 219.463 396.442C219.463 395.54 219.51 394.627 219.697 393.726Z" fill="#263238"/>
<path d="M235.399 393.726C235.587 394.627 235.622 395.54 235.634 396.442C235.622 397.343 235.587 398.257 235.399 399.158C235.212 398.257 235.177 397.343 235.165 396.442C235.177 395.54 235.212 394.627 235.399 393.726Z" fill="#263238"/>
<path d="M251.102 393.726C251.29 394.627 251.325 395.54 251.336 396.442C251.325 397.343 251.29 398.257 251.102 399.158C250.915 398.257 250.88 397.343 250.868 396.442C250.88 395.54 250.915 394.627 251.102 393.726Z" fill="#263238"/>
<path d="M266.817 393.726C267.004 394.627 267.039 395.54 267.051 396.442C267.039 397.343 267.004 398.257 266.817 399.158C266.63 398.257 266.594 397.343 266.583 396.442C266.583 395.54 266.63 394.627 266.817 393.726Z" fill="#263238"/>
<path d="M282.519 393.726C282.707 394.627 282.742 395.54 282.753 396.442C282.742 397.343 282.707 398.257 282.519 399.158C282.332 398.257 282.297 397.343 282.285 396.442C282.285 395.54 282.332 394.627 282.519 393.726Z" fill="#263238"/>
<path d="M298.222 393.726C298.409 394.627 298.444 395.54 298.456 396.442C298.444 397.343 298.409 398.257 298.222 399.158C298.035 398.257 298 397.343 297.988 396.442C298 395.54 298.035 394.627 298.222 393.726Z" fill="#263238"/>
<path d="M313.925 393.726C314.112 394.627 314.148 395.54 314.159 396.442C314.148 397.343 314.112 398.257 313.925 399.158C313.738 398.257 313.703 397.343 313.691 396.442C313.703 395.54 313.738 394.627 313.925 393.726Z" fill="#263238"/>
<path d="M329.627 393.726C329.815 394.627 329.85 395.54 329.861 396.442C329.85 397.343 329.815 398.257 329.627 399.158C329.44 398.257 329.405 397.343 329.393 396.442C329.405 395.54 329.452 394.627 329.627 393.726Z" fill="#263238"/>
<path d="M345.342 393.726C345.529 394.627 345.564 395.54 345.576 396.442C345.564 397.343 345.529 398.257 345.342 399.158C345.154 398.257 345.119 397.343 345.107 396.442C345.107 395.54 345.154 394.627 345.342 393.726Z" fill="#263238"/>
<path d="M361.045 393.726C361.232 394.627 361.267 395.54 361.279 396.442C361.267 397.343 361.232 398.257 361.045 399.158C360.857 398.257 360.822 397.343 360.811 396.442C360.822 395.54 360.857 394.627 361.045 393.726Z" fill="#263238"/>
<path d="M376.747 393.726C376.934 394.627 376.97 395.54 376.981 396.442C376.97 397.343 376.934 398.257 376.747 399.158C376.56 398.257 376.525 397.343 376.513 396.442C376.525 395.54 376.56 394.627 376.747 393.726Z" fill="#263238"/>
<path d="M392.45 393.726C392.637 394.627 392.672 395.54 392.684 396.442C392.672 397.343 392.637 398.257 392.45 399.158C392.262 398.257 392.227 397.343 392.216 396.442C392.227 395.54 392.274 394.627 392.45 393.726Z" fill="#263238"/>
<path d="M408.164 393.726C408.351 394.627 408.386 395.54 408.398 396.442C408.386 397.343 408.351 398.257 408.164 399.158C407.977 398.257 407.941 397.343 407.93 396.442C407.93 395.54 407.977 394.627 408.164 393.726Z" fill="#263238"/>
<path d="M423.867 393.726C424.054 394.627 424.089 395.54 424.101 396.442C424.089 397.343 424.054 398.257 423.867 399.158C423.679 398.257 423.644 397.343 423.633 396.442C423.644 395.54 423.679 394.627 423.867 393.726Z" fill="#263238"/>
<path d="M439.569 393.726C439.757 394.627 439.792 395.54 439.804 396.442C439.792 397.343 439.757 398.257 439.569 399.158C439.382 398.257 439.347 397.343 439.335 396.442C439.347 395.54 439.382 394.627 439.569 393.726Z" fill="#263238"/>
<path d="M455.272 393.726C455.46 394.627 455.495 395.54 455.506 396.442C455.495 397.343 455.46 398.257 455.272 399.158C455.085 398.257 455.05 397.343 455.038 396.442C455.05 395.54 455.097 394.627 455.272 393.726Z" fill="#263238"/>
<path d="M50.9136 393.725H25.1758C25.1758 393.725 25.2343 389.896 27.7636 388.877C30.2929 387.858 31.8035 389.849 31.8035 389.849C31.8035 389.849 32.8339 382.8 37.5529 382.8C42.2719 382.8 44.5202 388.877 44.5202 388.877C44.5202 388.877 45.574 387.039 48.197 387.378C50.8083 387.73 50.9136 393.725 50.9136 393.725Z" fill="#37474F"/>
<path d="M464.745 393.726C464.745 393.726 463.961 390.049 462.38 389.475C460.799 388.913 459.851 390.564 459.851 390.564C459.851 390.564 459.476 387.051 457.239 385.997C455.003 384.944 453.328 387.098 453.328 387.098C453.328 387.098 451.619 382.637 448.551 382.637C445.483 382.637 443.937 389.171 443.937 389.171C443.937 389.171 442.134 387.227 440.272 388.328C438.422 389.428 438.422 393.738 438.422 393.738H464.745V393.726Z" fill="#37474F"/>
<path d="M224.381 393.726C224.381 393.726 223.596 390.049 222.015 389.475C220.435 388.913 219.486 390.564 219.486 390.564C219.486 390.564 219.111 387.051 216.875 385.997C214.638 384.944 212.964 387.098 212.964 387.098C212.964 387.098 211.254 382.637 208.186 382.637C205.118 382.637 203.573 389.171 203.573 389.171C203.573 389.171 201.769 387.227 199.908 388.328C198.057 389.428 198.057 393.738 198.057 393.738H224.381V393.726Z" fill="#37474F"/>
<path d="M29.7892 393.725H6.05371C6.05371 393.725 6.83826 390.376 8.40736 390.142C9.97645 389.908 10.7142 391.453 10.7142 391.453C10.7142 391.453 10.6439 386.781 13.583 385.997C16.5222 385.2 18.9929 389.322 18.9929 389.322C18.9929 389.322 20.8313 386.969 23.3489 387.121C25.8548 387.273 26.4988 391.161 26.4988 391.161C26.4988 391.161 28.7822 389.814 29.7892 393.725Z" fill="#455A64"/>
<path d="M203.175 393.726H179.439C179.439 393.726 180.224 390.377 181.793 390.143C183.362 389.909 184.1 391.454 184.1 391.454C184.1 391.454 184.029 386.782 186.969 385.998C189.908 385.201 192.378 389.323 192.378 389.323C192.378 389.323 194.217 386.97 196.734 387.122C199.24 387.274 199.884 391.162 199.884 391.162C199.884 391.162 202.168 389.815 203.175 393.726Z" fill="#455A64"/>
<path d="M440.131 393.725H425.553C425.553 393.725 425.588 391.558 427.016 390.973C428.445 390.399 429.3 391.523 429.3 391.523C429.3 391.523 429.885 387.53 432.555 387.53C435.225 387.53 436.501 390.973 436.501 390.973C436.501 390.973 437.098 389.931 438.586 390.13C440.073 390.329 440.131 393.725 440.131 393.725Z" fill="#455A64"/>
<path d="M261.711 393.725H247.133C247.133 393.725 247.168 391.558 248.596 390.973C250.025 390.399 250.88 391.523 250.88 391.523C250.88 391.523 251.465 387.53 254.135 387.53C256.805 387.53 258.081 390.973 258.081 390.973C258.081 390.973 258.678 389.931 260.165 390.13C261.653 390.329 261.711 393.725 261.711 393.725Z" fill="#455A64"/>
<path d="M201.277 456.784C198.549 457.662 120.692 456.678 117.752 454.746C116.628 454.032 116.101 442.685 115.879 428.95C115.879 428.809 115.879 428.657 115.879 428.517C115.82 425.683 115.785 422.767 115.785 419.816C115.785 419.407 115.785 419.008 115.773 418.599L119.544 378.212L171.629 378.727L166.5 418.739L166.441 420.32L166.125 428.599L166.09 429.453C166.09 429.453 195.727 443.165 198.736 445.613C201.711 448.06 204.006 455.906 201.277 456.784Z" fill="#DD6A57"/>
<path d="M201.277 456.785C198.549 457.663 120.692 456.68 117.752 454.747C116.628 454.033 116.101 442.686 115.879 428.951C115.879 428.81 115.879 428.658 115.879 428.518C115.82 425.684 115.785 422.768 115.785 419.817C115.785 419.408 115.785 419.009 115.773 418.6L166.488 418.728L166.43 420.309L166.113 428.588L166.078 429.443C166.078 429.443 195.715 443.155 198.725 445.602C201.711 448.061 204.006 455.907 201.277 456.785Z" fill="#EBEBEB"/>
<path d="M201.29 456.772C199.884 457.229 178.737 457.182 158.057 456.772C153.9 456.69 149.767 456.596 145.821 456.491C131.078 456.093 118.889 455.484 117.764 454.746C116.64 454.044 116.125 443.001 115.903 429.524C115.903 429.336 115.891 429.137 115.891 428.95C115.891 428.809 115.891 428.657 115.879 428.505H115.938L166.114 428.587L166.09 429.442C166.09 429.442 195.727 443.142 198.725 445.601C201.711 448.06 204.018 455.906 201.29 456.772Z" fill="#FFC727"/>
<path d="M200.435 453.749C187.32 453.257 134.346 452.519 121.348 453.035C121.242 453.035 121.242 453.117 121.348 453.117C134.346 453.889 187.308 454.194 200.435 453.96C200.716 453.96 200.716 453.761 200.435 453.749Z" fill="#263238"/>
<path d="M171.699 428.808C166.547 427.778 160.224 428.492 156.231 432.122C156.079 432.262 156.278 432.485 156.442 432.426C161.559 430.881 166.325 429.92 171.664 429.464C172.051 429.429 172.074 428.878 171.699 428.808Z" fill="#263238"/>
<path d="M175.4 431.103C170.248 430.072 163.924 430.787 159.931 434.417C159.779 434.557 159.978 434.78 160.142 434.721C165.259 433.176 170.025 432.215 175.365 431.759C175.751 431.724 175.774 431.173 175.4 431.103Z" fill="#263238"/>
<path d="M179.1 433.399C173.948 432.368 167.624 433.083 163.631 436.713C163.479 436.853 163.678 437.076 163.842 437.017C168.959 435.471 173.725 434.511 179.065 434.055C179.451 434.019 179.463 433.469 179.1 433.399Z" fill="#263238"/>
<path d="M158.057 456.772C153.9 456.69 149.767 456.596 145.821 456.491C131.078 456.093 118.889 455.484 117.764 454.746C116.64 454.044 116.125 443.001 115.903 429.524C115.903 429.336 115.891 429.137 115.891 428.95C115.891 428.809 115.891 428.657 115.879 428.505H115.938C122.811 433.329 147.039 449.453 158.057 456.772Z" fill="#263238"/>
<path d="M169.111 428.774L113.033 428.786C113.033 428.786 124.298 297.825 123.853 295.53C123.291 292.602 119.977 279.347 115.563 262.029C114.181 256.607 112.694 250.799 111.136 244.768C106.956 228.48 102.342 210.67 98.3259 195.178C92.2954 171.969 87.5881 153.937 87.5881 153.937L135.106 153.925C135.106 153.925 140.645 171.478 147.635 194.323C159.017 231.443 174.228 282.532 175.727 294.956C178.174 315.015 169.111 428.774 169.111 428.774Z" fill="#455A64"/>
<path d="M166.628 419.207C158.069 419.031 160.528 418.961 151.956 418.879C147.764 418.844 120.223 418.609 116.312 419.254C116.23 419.265 116.23 419.417 116.312 419.429C120.223 420.073 147.776 419.827 151.956 419.792C160.516 419.71 158.057 419.64 166.628 419.453C166.781 419.453 166.781 419.207 166.628 419.207Z" fill="#263238"/>
<path d="M134.403 287.521C132.565 279.418 129.813 271.467 127.425 263.516C122.565 247.357 117.659 231.198 112.741 215.05C110.282 206.97 107.823 198.902 105.34 190.834C104.087 186.759 102.834 182.684 101.558 178.621C100.305 174.64 98.888 170.694 97.7639 166.677C97.3072 165.05 97.0496 165.94 97.6468 168.012C98.8295 172.193 100 176.385 101.218 180.553C103.63 188.82 106.066 197.076 108.513 205.319C113.373 221.748 118.314 238.153 123.232 254.558C125.703 262.79 128.186 271.01 130.656 279.231C131.839 283.165 132.998 287.111 133.689 291.163C134.415 295.39 134.45 299.664 134.193 303.938C133.654 312.521 132.67 321.081 131.874 329.641C131.078 338.212 130.293 346.795 129.497 355.367C127.916 372.44 126.347 389.501 124.813 406.573C124.614 408.74 124.427 410.906 124.263 413.072C124.204 413.798 125.305 413.74 125.375 413.049C127.214 396.175 128.631 379.231 130.211 362.334C131.781 345.507 133.361 328.692 134.93 311.866C135.329 307.638 135.774 303.411 135.774 299.161C135.774 295.249 135.282 291.362 134.403 287.521Z" fill="#263238"/>
<path d="M129.72 153.925C126.43 179.452 120.153 227.309 115.575 262.029C104.849 219.967 87.6003 153.937 87.6003 153.937L129.72 153.925Z" fill="#263238"/>
<path d="M140.867 457.546C138.139 458.436 60.2813 457.733 57.3305 455.813C56.1946 455.11 55.6443 443.752 55.3633 430.016C55.3633 429.876 55.3633 429.735 55.3633 429.583C55.3047 426.749 55.2462 423.834 55.2344 420.883C55.2344 420.473 55.2345 420.075 55.211 419.665C55.0237 399.84 56.4523 379.278 56.4523 379.278L107.342 379.594L105.926 419.606L105.867 421.187L105.586 429.466L105.563 430.321C105.563 430.321 135.247 443.927 138.268 446.363C141.265 448.822 143.596 456.668 140.867 457.546Z" fill="#DD6A57"/>
<path d="M140.867 457.546C138.139 458.436 60.2812 457.733 57.3304 455.813C56.1945 455.11 55.6442 443.752 55.3632 430.016C55.3632 429.876 55.3632 429.735 55.3632 429.583C55.3046 426.749 55.2461 423.834 55.2344 420.883C55.2344 420.473 55.2344 420.075 55.2109 419.665L105.926 419.606L105.867 421.187L105.586 429.466L105.563 430.321C105.563 430.321 135.247 443.927 138.268 446.363C141.265 448.822 143.596 456.668 140.867 457.546Z" fill="#EBEBEB"/>
<path d="M140.867 457.545C138.138 458.435 60.2809 457.732 57.33 455.812C56.1942 455.109 55.6438 443.751 55.3628 430.015C55.3628 429.875 55.3628 429.734 55.3628 429.582L105.597 429.477L105.574 430.331C105.574 430.331 135.258 443.938 138.279 446.374C141.265 448.821 143.595 456.666 140.867 457.545Z" fill="#FFC727"/>
<path d="M140.012 454.512C126.886 454.067 73.9227 453.529 60.9133 454.091C60.8079 454.091 60.8079 454.173 60.9133 454.173C73.911 454.899 126.874 455.004 140 454.735C140.281 454.723 140.293 454.524 140.012 454.512Z" fill="#263238"/>
<path d="M111.183 429.688C106.03 428.681 99.7071 429.407 95.7258 433.06C95.5736 433.201 95.7726 433.423 95.9483 433.365C101.054 431.807 105.831 430.812 111.171 430.343C111.534 430.297 111.557 429.758 111.183 429.688Z" fill="#263238"/>
<path d="M114.895 431.96C109.743 430.953 103.42 431.679 99.4384 435.333C99.2861 435.473 99.4852 435.696 99.6492 435.637C104.755 434.08 109.532 433.084 114.872 432.616C115.235 432.581 115.258 432.03 114.895 431.96Z" fill="#263238"/>
<path d="M118.595 434.243C113.443 433.236 107.12 433.962 103.138 437.616C102.986 437.756 103.185 437.979 103.349 437.92C108.455 436.363 113.232 435.367 118.572 434.899C118.946 434.864 118.97 434.314 118.595 434.243Z" fill="#263238"/>
<path d="M133.584 153.924C133.584 153.924 132.495 176.664 127.295 194.674C126.874 196.161 126.429 197.624 125.937 199.029C125.937 199.029 120.516 200.997 112.237 206.067C112.237 206.067 111.698 224.358 111.148 244.767C110.551 267.578 109.918 293.011 110.047 298.41C110.527 318.597 107.553 429.605 107.553 429.605L51.4871 429.839C51.4871 429.839 61.5925 305.88 61.5223 298.48C61.4169 286.594 64.2272 234.053 66.3935 195.739C67.7167 172.132 68.8174 153.936 68.8174 153.936L133.584 153.924Z" fill="#455A64"/>
<path d="M105.633 419.629C97.0731 419.488 99.5321 419.406 90.9606 419.36C86.7685 419.336 59.2274 419.219 55.3164 419.886C55.2344 419.898 55.2344 420.05 55.3164 420.062C59.2391 420.694 86.7803 420.331 90.9723 420.273C99.5321 420.156 97.0731 420.097 105.645 419.875C105.797 419.875 105.797 419.641 105.633 419.629Z" fill="#263238"/>
<path d="M73.5367 162.062C72.518 193.339 71.429 224.615 70.0355 255.88C68.6421 287.25 66.7568 318.609 64.1339 349.909C62.6702 367.391 61.3001 391.982 59.4149 409.429C59.4032 409.546 59.5788 409.593 59.6022 409.464C63.6772 378.433 65.9489 340.073 67.9395 308.855C69.9419 277.637 71.2885 246.36 72.3541 215.107C72.9513 197.425 73.4079 179.732 73.9349 162.05C73.9349 161.793 73.5484 161.816 73.5367 162.062Z" fill="#263238"/>
<path d="M128.256 197.671C122.67 199.884 117.331 202.917 112.225 206.067C112.026 206.196 112.178 206.5 112.389 206.395C117.799 203.772 123.314 201.231 128.572 198.315C129.005 198.093 128.689 197.507 128.256 197.671Z" fill="#263238"/>
<path d="M128.572 178.387C128.197 180.378 127.717 182.357 127.284 184.336C126.886 186.198 126.581 188.095 126.09 189.933C125.609 191.713 124.86 193.352 123.49 194.617C122.764 195.296 121.956 195.893 121.183 196.514C120.762 196.854 120.317 197.17 119.872 197.509C119.93 197.252 119.977 196.982 120.024 196.713C120.153 195.964 120.282 195.203 120.41 194.441C120.691 192.767 120.961 191.081 121.218 189.395C121.722 186.092 122.19 182.743 122.881 179.476C122.905 179.348 122.705 179.289 122.67 179.43C121.851 182.673 120.937 185.882 120.223 189.149C119.872 190.753 118.619 198.68 118.56 199.231C118.502 199.804 118.455 200.39 118.431 200.975C118.408 201.549 118.303 202.193 118.431 202.755C118.467 202.896 118.642 202.872 118.701 202.779C118.701 202.779 118.701 202.779 118.713 202.79C119.005 202.287 119.075 201.631 119.216 201.069C119.357 200.507 119.485 199.933 119.591 199.359C119.626 199.149 119.661 198.938 119.684 198.727C120.469 198.247 121.195 197.626 121.921 197.1C122.705 196.526 123.513 195.975 124.251 195.355C125.68 194.16 126.57 192.685 127.097 190.905C127.647 189.067 127.811 187.111 128.033 185.214C128.279 182.966 128.467 180.706 128.783 178.458C128.795 178.305 128.595 178.247 128.572 178.387Z" fill="#263238"/>
<path d="M113.396 95.2838C116.499 103.949 127.459 123.387 144.251 138.703C150.738 144.605 199.087 140.729 203.877 138.867C207.226 137.556 213.479 113.188 209.954 110.986C203.35 106.865 160.129 116.385 158.291 115.413C155.481 113.914 136.874 101.443 124.883 89.5929C116.136 80.9395 108.232 80.8575 113.396 95.2838Z" fill="#DD6A57"/>
<path d="M125.819 120.892L153.255 109.991C153.255 109.991 128.641 88.8312 119.648 84.6509C109.519 79.9436 109.332 86.1497 112.892 96.1498C116.44 106.15 125.819 120.892 125.819 120.892Z" fill="#37474F"/>
<path d="M147.448 106.664C146.441 106.898 137.835 110.154 135.984 110.903C134.134 111.652 126.523 114.638 124.673 115.575C124.591 115.622 124.626 115.739 124.72 115.716C126.699 115.154 134.38 112.156 136.289 111.43C138.198 110.704 146.629 107.285 147.507 106.781C147.589 106.746 147.518 106.652 147.448 106.664Z" fill="#263238"/>
<path d="M136.394 116.686L125.82 120.89C125.82 120.89 116.441 106.147 112.881 96.1588C110.282 88.852 109.684 83.5592 113.502 83.0908L136.394 116.686Z" fill="#263238"/>
<path d="M62.5646 178.679C62.7402 178.878 140.305 179.381 141.008 178.597C142.003 177.484 124.778 93.3855 116.851 82.9756C115.153 80.7507 104.462 77.7179 98.2557 82.7765C85.0706 93.5143 73.6302 130.376 70.9721 141.501C66.581 159.826 61.9206 177.953 62.5646 178.679Z" fill="#FFC727"/>
<path opacity="0.1" d="M117.296 83.6298H97.2727C97.6006 83.3254 97.9285 83.0444 98.2563 82.775C98.4554 82.6111 98.6662 82.4589 98.8769 82.3184H116.125C116.441 82.5408 116.687 82.7633 116.851 82.9741C117.004 83.1615 117.144 83.3839 117.296 83.6298Z" fill="black"/>
<path opacity="0.1" d="M119.17 87.3994H93.8184C94.1814 86.9427 94.5444 86.4977 94.9191 86.0762H118.596C118.783 86.486 118.971 86.931 119.17 87.3994Z" fill="black"/>
<path opacity="0.1" d="M120.622 91.1699H91.1016C91.406 90.7132 91.6988 90.2799 92.0032 89.8467H120.142C120.294 90.2682 120.458 90.7132 120.622 91.1699Z" fill="black"/>
<path opacity="0.1" d="M121.898 94.9287H88.7949C89.0525 94.4837 89.3101 94.0387 89.5795 93.6055H121.465C121.617 94.0387 121.758 94.4837 121.898 94.9287Z" fill="black"/>
<path opacity="0.1" d="M123.092 98.7011H86.7336C86.9678 98.2562 87.1903 97.8112 87.4362 97.3779H122.682C122.811 97.8112 122.952 98.2562 123.092 98.7011Z" fill="black"/>
<path opacity="0.1" d="M124.205 102.472H84.8486C85.0594 102.027 85.2702 101.582 85.4927 101.148H123.818C123.947 101.582 124.076 102.027 124.205 102.472Z" fill="black"/>
<path opacity="0.1" d="M125.271 106.229H83.1157C83.3148 105.784 83.5139 105.351 83.7129 104.906H124.896C125.025 105.34 125.142 105.784 125.271 106.229Z" fill="black"/>
<path opacity="0.1" d="M126.289 109.999H81.488C81.6754 109.554 81.8628 109.109 82.0501 108.676H125.938C126.055 109.109 126.172 109.554 126.289 109.999Z" fill="black"/>
<path opacity="0.1" d="M127.285 113.77H79.9658C80.1298 113.325 80.3054 112.892 80.4928 112.447H126.945C127.05 112.881 127.168 113.325 127.285 113.77Z" fill="black"/>
<path opacity="0.1" d="M128.245 117.529H78.5137C78.6776 117.084 78.8415 116.651 79.0172 116.206H127.917C128.022 116.651 128.139 117.084 128.245 117.529Z" fill="black"/>
<path opacity="0.1" d="M129.193 121.301H77.1438C77.296 120.856 77.46 120.423 77.6239 119.978H128.865C128.971 120.423 129.076 120.856 129.193 121.301Z" fill="black"/>
<path opacity="0.1" d="M130.107 125.059H75.844C75.9845 124.625 76.1367 124.18 76.3007 123.747H129.79C129.896 124.18 130.001 124.625 130.107 125.059Z" fill="black"/>
<path opacity="0.1" d="M131.008 128.829H74.6028C74.7433 128.396 74.8838 127.951 75.0243 127.506H130.692C130.798 127.951 130.903 128.384 131.008 128.829Z" fill="black"/>
<path opacity="0.1" d="M131.887 132.6H73.4319C73.5607 132.166 73.6895 131.721 73.83 131.276H131.594C131.688 131.721 131.793 132.166 131.887 132.6Z" fill="black"/>
<path opacity="0.1" d="M132.765 136.358H72.3311C72.4482 135.937 72.577 135.504 72.7058 135.047H132.46C132.554 135.492 132.659 135.925 132.765 136.358Z" fill="black"/>
<path opacity="0.1" d="M133.608 140.13H71.3123C71.4176 139.72 71.5347 139.275 71.6518 138.807H133.315C133.409 139.252 133.514 139.685 133.608 140.13Z" fill="black"/>
<path opacity="0.1" d="M134.451 143.9H70.3989C70.5043 143.467 70.6097 143.022 70.7151 142.577H134.158C134.252 143.022 134.345 143.467 134.451 143.9Z" fill="black"/>
<path opacity="0.1" d="M135.27 147.658H69.4854C69.5907 147.225 69.6961 146.792 69.8015 146.347H134.989C135.083 146.78 135.177 147.225 135.27 147.658Z" fill="black"/>
<path opacity="0.1" d="M136.067 151.429H68.5723C68.6777 150.984 68.783 150.55 68.8884 150.105H135.786C135.891 150.55 135.985 150.984 136.067 151.429Z" fill="black"/>
<path opacity="0.1" d="M136.863 155.199H67.6589C67.7643 154.766 67.8697 154.321 67.9751 153.876H136.594C136.687 154.321 136.781 154.766 136.863 155.199Z" fill="black"/>
<path opacity="0.1" d="M137.636 158.958H66.7456C66.851 158.525 66.9564 158.08 67.0618 157.635H137.367C137.46 158.08 137.554 158.525 137.636 158.958Z" fill="black"/>
<path opacity="0.1" d="M138.397 162.728H65.8206C65.9377 162.295 66.043 161.85 66.1484 161.405H138.128C138.221 161.85 138.315 162.295 138.397 162.728Z" fill="black"/>
<path opacity="0.1" d="M139.135 166.498H64.9309C65.0363 166.065 65.13 165.631 65.2471 165.175H138.878C138.959 165.631 139.053 166.065 139.135 166.498Z" fill="black"/>
<path opacity="0.1" d="M139.838 170.258H64.0525C64.1462 169.825 64.2516 169.391 64.3569 168.935H139.592C139.674 169.391 139.756 169.825 139.838 170.258Z" fill="black"/>
<path opacity="0.1" d="M140.493 174.029H63.2209C63.3029 173.619 63.3966 173.174 63.5137 172.706H140.271C140.353 173.174 140.423 173.608 140.493 174.029Z" fill="black"/>
<path opacity="0.1" d="M141.032 177.799H62.5417C62.5769 177.447 62.6471 177.003 62.7408 176.476H140.868C140.95 177.014 140.997 177.459 141.032 177.799Z" fill="black"/>
<path d="M120.61 180.892L133.01 127.87L137.905 80.3408L163.619 87.1676L185.118 82.8584L204.334 91.0786L231.699 84.8842L213.186 135.084L205.388 185.915L184.697 191.032L163.889 182.11L142.799 189.007L120.61 180.892Z" fill="#EBEBEB"/>
<path d="M142.799 189.008L163.619 87.1685L185.118 82.8594L163.888 182.111L142.799 189.008Z" fill="#DBDBDB"/>
<path d="M184.697 191.032L204.334 91.0782L231.699 84.8838L213.186 135.083L205.388 185.915L184.697 191.032Z" fill="#DBDBDB"/>
<path d="M226.547 107.599C227.402 112.634 231.149 119.66 230.564 123.407C230.025 126.791 226.981 127.177 226.981 127.177C226.981 127.177 230.095 130.011 228.995 133.325C228.433 135.034 225.213 135.632 225.213 135.632C225.213 135.632 227.601 138.009 226.454 140.901C225.529 143.208 222.437 143.454 222.437 143.454C222.437 143.454 223.667 146.803 221.981 148.852C218.55 152.997 198.069 147.201 197.039 138.77C196.559 134.835 201.489 136.522 201.489 136.522C201.489 136.522 194.99 132.388 196.079 128.137C197.168 123.887 203.433 126.463 203.433 126.463C203.433 126.463 197.168 122.4 198.737 118.102C200.376 113.629 206.196 117.283 206.196 117.283C206.196 117.283 202.519 112.903 204.475 109.894C207.707 104.917 216.102 114.671 220.915 114.882L223.362 107.681L226.547 107.599Z" fill="#DD6A57"/>
<path d="M228.398 115.07C228.011 110.234 231.7 109.239 232.625 104.637C233.655 99.5317 227.367 99.157 223.421 107.412L220.88 114.871L228.398 115.07Z" fill="#DD6A57"/>
<path d="M221.945 143.559C222.016 143.571 222.004 143.677 221.934 143.677C214.732 143.419 206.899 140.913 201.184 136.452C200.997 136.311 201.149 135.936 201.395 136.054C208.163 139.531 214.451 142.072 221.945 143.559Z" fill="#263238"/>
<path d="M225.294 135.703C225.376 135.715 225.353 135.855 225.259 135.855C217.835 135.539 209.1 132.495 203.116 126.57C202.905 126.371 202.929 125.984 203.186 126.195C207.46 129.825 218.538 134.403 225.294 135.703Z" fill="#263238"/>
<path d="M205.879 116.699C211.828 122.155 218.936 125.153 226.676 127.19C226.781 127.214 226.734 127.354 226.64 127.354C222.589 127.39 217.788 125.586 214.17 123.865C210.704 122.214 207.917 120.024 205.692 116.909C205.61 116.781 205.75 116.582 205.879 116.699Z" fill="#263238"/>
<path d="M87.8697 89.6971C74.2162 104.838 47.7523 143.889 52.8461 154.253C59.6962 168.21 85.6917 189.042 95.0009 192.438C99.0173 193.902 116.289 164.803 112.577 162.133C108.127 158.925 83.3966 141.337 83.6425 139.686C83.8767 138.117 91.6636 119.006 95.9025 102.238C100.832 82.765 95.3639 81.3832 87.8697 89.6971Z" fill="#DD6A57"/>
<path d="M95.6918 159.38C95.6918 159.38 108.245 155.996 116.558 154.169C121.195 153.15 129.31 152.108 133.057 152.916C138.666 154.134 161.36 162.776 159.381 168.326C157.589 173.35 139.041 163.443 139.041 163.443C139.041 163.443 158.643 171.781 155.376 177.436C152.109 183.08 132.636 169.099 132.636 169.099C132.636 169.099 152.589 178.127 148.292 183.42C145.048 187.425 126.699 175.75 126.699 175.75C126.699 175.75 143.795 183.619 140.634 187.881C137.144 192.589 119.533 182.881 119.533 182.881C109.685 192.354 100.844 194.134 94.9892 192.448C93.5607 192.015 95.6918 159.38 95.6918 159.38Z" fill="#DD6A57"/>
<path d="M132.46 160.115C134.802 161.017 137.167 161.907 139.416 163.008C141.664 164.108 143.877 165.291 146.02 166.591C151.266 169.799 154.041 172.621 153.854 172.469C149.345 168.781 141.348 164.717 139.088 163.617C136.839 162.516 134.65 161.31 132.401 160.209C132.355 160.174 132.401 160.092 132.46 160.115Z" fill="#263238"/>
<path d="M128.326 168.173C131.265 169.449 134.228 170.608 137.109 172.013C139.977 173.407 142.577 174.988 145.34 176.58C145.551 176.697 145.422 176.779 145.2 176.662C142.378 175.187 139.65 174.028 136.816 172.587C133.982 171.147 131.183 169.59 128.303 168.243C128.244 168.22 128.279 168.149 128.326 168.173Z" fill="#263238"/>
<path d="M123.549 174.449C128.139 176.17 132.402 178.723 136.523 181.346C136.734 181.474 136.547 181.556 136.324 181.428C132.05 179.05 128.725 177.165 123.491 174.613C123.409 174.566 123.455 174.413 123.549 174.449Z" fill="#263238"/>
<path d="M90.3992 122.694L61.4529 116.933C61.4529 116.933 81.8394 91.6748 89.9308 85.9371C99.0409 79.485 100.352 85.5507 98.6545 96.0308C96.9683 106.488 90.3992 122.694 90.3992 122.694Z" fill="#37474F"/>
<path d="M90.6568 117.635C89.6849 117.284 80.6802 115.422 78.713 115.059C76.7458 114.696 68.7246 113.127 66.6637 112.928C66.57 112.916 66.5349 113.045 66.6286 113.068C68.6075 113.654 76.6989 115.258 78.6896 115.668C80.6802 116.077 89.6381 117.728 90.6451 117.775C90.7271 117.775 90.7271 117.658 90.6568 117.635Z" fill="#263238"/>
<path d="M107.436 77.1449C101.054 76.4306 93.4314 81.8873 99.0755 89.2878C104.72 96.6883 110.844 98.1052 114.158 97.0748C118.151 95.8335 119.649 87.7421 118.654 83.9365C117.659 80.1426 112.881 77.7538 107.436 77.1449Z" fill="#455A64"/>
<path d="M112.682 94.4155C110.012 94.8137 102.179 89.9307 99.2043 84.6614C99.0053 84.2984 100.34 69.7198 100.317 66.8041C100.305 66.2069 118.654 71.0313 118.654 71.0313C118.654 71.0313 116.933 77.1672 117.015 82.2492C117.026 82.6707 117.073 83.0689 117.155 83.4436C117.167 83.5021 117.179 83.5607 117.179 83.6426C117.577 85.9143 116.593 93.8301 112.682 94.4155Z" fill="#DD6A57"/>
<path d="M101.488 66.8848C102.225 71.2993 105.188 83.653 115.305 83.7701C115.984 83.7701 116.605 83.735 117.179 83.6413C117.167 83.571 117.155 83.5008 117.143 83.4422C117.073 83.0675 117.026 82.6694 117.015 82.2479C116.921 77.1659 118.642 71.03 118.642 71.03C118.642 71.03 105.551 67.5873 101.488 66.8848Z" fill="#263238"/>
<path d="M127.132 38.5498C127.132 38.5498 132.659 42.2266 132.554 48.5616C132.448 54.8848 129.802 61.0207 129.205 61.2314C128.619 61.4422 127.132 38.5498 127.132 38.5498Z" fill="#263238"/>
<path d="M102.097 42.1564C98.818 48.0932 98.291 67.1215 101.944 72.1683C107.237 79.4752 117.823 82.3089 124.521 75.5056C131.008 68.913 131.265 44.1002 127.003 39.3227C120.727 32.2852 106.933 33.3976 102.097 42.1564Z" fill="#DD6A57"/>
<path d="M117.623 57.3067C117.612 57.2598 117.518 57.3652 117.518 57.412C117.518 58.6999 117.295 60.1634 116.125 60.5498C116.09 60.5615 116.09 60.6318 116.136 60.6201C117.565 60.4796 117.834 58.5243 117.623 57.3067Z" fill="#263238"/>
<path d="M116.522 55.9364C114.462 55.7139 114.169 59.8469 116.078 60.046C117.951 60.245 118.255 56.1237 116.522 55.9364Z" fill="#263238"/>
<path d="M124.685 57.7306C124.697 57.6837 124.779 57.8008 124.779 57.8477C124.65 59.1238 124.708 60.6108 125.832 61.1142C125.867 61.1259 125.856 61.1962 125.821 61.1845C124.416 60.8801 124.357 58.9131 124.685 57.7306Z" fill="#263238"/>
<path d="M125.925 56.4766C127.998 56.4649 127.857 60.6096 125.937 60.6096C124.052 60.6213 124.193 56.4766 125.925 56.4766Z" fill="#263238"/>
<path d="M114.778 54.5554C115.352 54.45 115.867 54.2627 116.417 54.1105C117.05 53.9349 117.565 53.8529 117.998 53.3378C118.232 53.0568 118.185 52.5299 117.928 52.2723C117.342 51.6752 116.523 51.7103 115.762 51.8977C114.93 52.0967 114.345 52.4596 113.83 53.1387C113.338 53.7944 114.017 54.6959 114.778 54.5554Z" fill="#263238"/>
<path d="M127.67 53.5954C127.108 53.4666 126.605 53.2441 126.055 53.0568C125.434 52.8461 124.931 52.729 124.521 52.1904C124.298 51.8977 124.38 51.3709 124.65 51.125C125.259 50.563 126.078 50.6449 126.839 50.8674C127.659 51.1133 128.221 51.5113 128.701 52.2255C129.157 52.9163 128.42 53.771 127.67 53.5954Z" fill="#263238"/>
<path d="M115.258 68.7714C115.539 69.0876 115.82 69.5325 116.277 69.6027C116.722 69.673 117.261 69.509 117.67 69.3803C117.717 69.3685 117.752 69.4154 117.717 69.4505C117.354 69.9188 116.628 70.1764 116.043 70.0242C115.469 69.8837 115.223 69.3568 115.118 68.8183C115.118 68.748 115.223 68.7246 115.258 68.7714Z" fill="#263238"/>
<path d="M116.874 65.0366C117.506 66.1959 118.525 66.875 119.637 67.1795C120.141 67.32 120.668 67.3785 121.195 67.3668C121.3 67.3668 121.406 67.3668 121.499 67.3551C121.593 67.3551 121.675 67.3434 121.78 67.3317C121.933 67.32 122.026 67.2029 122.061 67.0624V67.0507C122.061 67.0038 122.061 66.9687 122.061 66.9219C122.061 66.9219 122.061 66.9219 122.061 66.9102V66.7931C122.155 65.8094 122.167 64.3106 122.167 64.3106C122.518 64.5214 124.286 65.4699 124.298 64.9546C124.345 60.6806 124.403 55.9148 123.548 51.6524C123.525 51.5119 123.314 51.5236 123.314 51.6642C123.104 55.7743 123.619 59.8961 123.467 64.0296C122.893 63.7603 121.968 63.2802 121.452 63.2567C121.312 63.2919 121.476 66.1607 121.406 66.6057C121.406 66.6057 121.406 66.6291 121.394 66.6525C119.719 66.7462 118.513 66.1607 116.991 64.9312C116.921 64.8492 116.815 64.9312 116.874 65.0366Z" fill="#263238"/>
<path d="M120.668 66.8274C120.668 66.8274 119.708 67.9397 118.479 68.2793C118.022 68.408 117.554 68.4315 117.062 68.2676C116.055 67.928 116.102 66.9914 116.348 66.1952C116.547 65.5513 116.898 65.001 116.898 65.001C116.898 65.001 118.28 66.5113 120.668 66.8274Z" fill="#263238"/>
<path d="M118.478 68.2774C118.022 68.4062 117.554 68.4296 117.062 68.2657C116.055 67.9262 116.102 66.9895 116.348 66.1934C117.436 66.3924 118.467 67.212 118.478 68.2774Z" fill="#FF9CBD"/>
<path d="M99.8248 60.072C102.096 60.8214 104.883 54.0064 105.691 51.3717C106.394 49.0532 107.319 41.6761 107.448 41.1726C107.565 40.669 117.272 47.9408 123.08 46.3834C128.888 44.826 132.858 39.7323 132.987 37.3201C133.115 34.9079 126.101 28.6081 119.907 28.1631C113.712 27.7064 105.153 35.3997 105.153 35.3997C105.153 35.3997 108.08 32.0624 107.986 31.7814C107.893 31.5004 103.853 33.0109 103.057 35.8447C103.057 35.8447 103.935 32.2849 103.63 32.2147C103.326 32.1444 100.153 35.1421 100.797 37.4723C100.797 37.4723 97.1315 40.5051 96.7217 43.9126C96.3119 47.3318 97.155 59.1938 99.8248 60.072Z" fill="#263238"/>
<path d="M127.202 45.2846C125.434 46.0574 123.654 46.9005 121.71 47.1113C119.614 47.3455 117.448 46.7717 115.516 45.9755C113.537 45.1675 111.757 44.0199 110.141 42.6265C108.724 41.4087 107.483 39.945 105.961 38.856C105.586 38.5866 105.118 39.1253 105.352 39.4883C107.612 43.048 111.687 46.0691 115.645 47.4274C119.813 48.856 123.771 48.0012 127.226 45.3314C127.237 45.308 127.226 45.2729 127.202 45.2846Z" fill="#263238"/>
<path d="M114.134 64.1229C111.64 63.713 109.626 61.6638 109.391 59.0292C109.122 55.9144 111.429 53.1626 114.532 52.8816C117.647 52.6005 120.399 54.9074 120.68 58.0221C120.949 61.1369 118.642 63.8887 115.539 64.1697C115.059 64.2165 114.591 64.1931 114.134 64.1229ZM115.832 53.6778C115.434 53.6193 115.024 53.5959 114.614 53.631C111.921 53.8652 109.918 56.254 110.153 58.9589C110.387 61.6521 112.776 63.6545 115.481 63.4203C118.174 63.1861 120.176 60.7973 119.942 58.0924C119.731 55.809 117.986 54.0291 115.832 53.6778Z" fill="#FFC727"/>
<path d="M127.132 64.6258C124.989 64.2746 123.408 61.7687 123.537 58.8178C123.607 57.3307 124.087 55.9373 124.907 54.9068C125.75 53.8412 126.851 53.2909 127.998 53.3377C129.158 53.3846 130.188 54.0403 130.937 55.1761C131.663 56.2768 132.026 57.6937 131.956 59.1808C131.816 62.3073 129.813 64.7547 127.495 64.661C127.378 64.661 127.249 64.6376 127.132 64.6258ZM128.256 54.1223C128.162 54.1106 128.069 54.0988 127.975 54.0871C127.073 54.052 126.195 54.5087 125.504 55.3752C124.79 56.2768 124.357 57.5064 124.298 58.8413C124.181 61.5462 125.633 63.8179 127.542 63.8998C129.45 63.9818 131.101 61.8507 131.218 59.1457C131.277 57.8108 130.961 56.5462 130.317 55.586C129.766 54.7663 129.04 54.2511 128.256 54.1223Z" fill="#FFC727"/>
<path d="M120.469 58.6769L120.012 58.0798C120.902 57.4007 122.928 56.5109 124.251 58.0564L123.677 58.5481C122.495 57.1549 120.551 58.6067 120.469 58.6769Z" fill="#FFC727"/>
<path d="M96.2886 59.2757L95.6328 58.901C95.8085 58.5965 97.401 55.9033 99.0989 55.7042C100.691 55.5169 109.684 56.6644 110.118 56.723L110.012 57.4724C107.12 57.0743 100.422 56.3131 99.1925 56.4537C98.0684 56.5825 96.7101 58.538 96.2886 59.2757Z" fill="#FFC727"/>
<path d="M102.846 57.9282C102.846 57.9282 99.8251 51.1834 96.8392 52.1554C93.8532 53.1273 95.3403 62.3428 98.2795 64.1343C101.219 65.9142 102.928 63.221 102.928 63.221L102.846 57.9282Z" fill="#DD6A57"/>
<path d="M97.3306 54.7757C97.2838 54.764 97.2603 54.8343 97.2955 54.8577C99.3447 56.1809 100.129 58.4643 100.539 60.7594C100.036 59.8109 99.2159 59.1903 97.9746 59.764C97.9044 59.7992 97.9512 59.8929 98.0098 59.8929C98.9583 59.8694 99.5789 60.1505 100.059 61.0053C100.399 61.6025 100.574 62.3168 100.762 62.9725C100.832 63.195 101.207 63.1481 101.171 62.9139C101.171 62.8905 101.16 62.8788 101.16 62.8554C101.769 60.0334 100.317 55.6422 97.3306 54.7757Z" fill="#263238"/>
<path d="M203.702 41.7337C202.179 56.2771 189.147 66.8392 174.603 65.317C168.725 64.6964 163.502 62.2022 159.451 58.4785L146.196 60.4223L152.823 48.9703C151.219 45.0593 150.54 40.7033 151.008 36.2185C152.53 21.675 165.563 11.1129 180.107 12.6352C194.662 14.1574 205.224 27.1903 203.702 41.7337Z" fill="white"/>
<path d="M203.702 41.7332C203.151 46.5693 201.383 51.3117 198.362 55.1642C197.671 56.1712 196.77 57.0143 195.962 57.9277C195.037 58.724 194.182 59.6139 193.163 60.293C191.231 61.7802 189.053 62.9511 186.77 63.8528C184.51 64.8013 182.074 65.258 179.638 65.5507C178.409 65.621 177.191 65.7263 175.962 65.621C174.732 65.5975 173.503 65.457 172.296 65.2345C167.449 64.3563 162.858 62.0846 159.193 58.7708L159.51 58.8645L146.278 60.902L145.317 61.0542L145.809 60.2111L152.402 48.7356L152.367 49.1923C149.158 41.6278 149.884 32.6348 153.994 25.5856C156.043 22.061 158.912 19.0164 162.285 16.7565C165.657 14.4848 169.58 13.0562 173.585 12.5176C177.601 11.9906 181.723 12.3536 185.564 13.63C189.393 14.9181 192.906 17.0843 195.774 19.8947C201.618 25.4216 204.557 33.7589 203.702 41.7332ZM203.702 41.7332C204.51 33.7472 201.512 25.4685 195.657 19.9766C192.753 17.2366 189.24 15.1523 185.446 13.9462C181.641 12.7518 177.578 12.4707 173.666 13.0679C169.755 13.6651 165.962 15.1288 162.73 17.3888C159.498 19.6605 156.769 22.623 154.802 26.0305C152.8 29.4264 151.758 33.3257 151.442 37.2367C151.196 41.1594 151.84 45.129 153.303 48.7707L153.397 49.0049L153.268 49.2157L146.605 60.6443L146.137 59.9418L159.404 58.0799L159.591 58.0565L159.72 58.1736C163.221 61.464 167.659 63.7591 172.402 64.7076C173.585 64.9418 174.791 65.094 175.997 65.1409C177.203 65.2697 178.409 65.176 179.627 65.1409C182.027 64.8949 184.439 64.4851 186.699 63.5835C188.971 62.7404 191.161 61.6162 193.093 60.1408C194.112 59.4617 194.966 58.5951 195.891 57.8106C196.699 56.909 197.601 56.0776 198.304 55.0705C201.313 51.2766 203.116 46.5693 203.702 41.7332Z" fill="#263238"/>
<path d="M174.264 54.0744L162.952 42.634L166.746 38.8752L173.362 45.5615L187.086 24.0391L191.594 26.9079L174.264 54.0744Z" fill="#FFC727"/>
</svg>
