<svg width="1621" height="1582" viewBox="0 0 1621 1582" fill="none" xmlns="http://www.w3.org/2000/svg">
<path d="M10.0019 57.8734C5.15891 27.5021 28.6231 0 59.3781 0H1278.82C1303.39 0 1324.33 17.8583 1328.19 42.1265L1564.42 1523.55C1569.27 1553.92 1545.8 1581.43 1515.05 1581.43H295.605C271.031 1581.43 250.099 1563.57 246.229 1539.3L10.0019 57.8734Z" fill="url(#paint0_linear_576_3804)"/>
<path d="M403.601 573.14C378.014 515.736 322.48 478.062 269.105 492.351C154.588 522.964 170.164 696.089 87.9211 808.031C-11.435 943.275 -12.6396 1056.96 73.8401 1073.45C170.704 1091.89 261.213 988.01 250.912 770.44C244.473 634.365 273.175 586.183 310.019 575.715C337.101 568.031 367.339 600.637 367.339 600.637L403.601 573.14Z" fill="#263238"/>
<path d="M249.298 695.136C248.758 716.776 250.669 738.376 251.791 759.933C252.912 781.491 254.532 802.965 255.197 824.44C255.987 845.874 255.696 867.334 254.324 888.739C253.158 910.025 249.832 931.137 244.397 951.75C239.309 972.312 230.312 991.702 217.897 1008.86C204.683 1025.75 188.649 1040.22 170.503 1051.65C152.198 1063.29 131.464 1070.56 109.901 1072.91C99.0378 1074.11 88.0662 1073.92 77.2528 1072.33C71.8291 1071.57 66.4699 1070.4 61.2195 1068.84C55.8953 1067.5 50.7902 1065.4 46.0586 1062.61C55.3376 1068.78 65.7625 1073.02 76.7128 1075.07C87.7215 1077.43 98.9851 1078.38 110.233 1077.9C121.504 1077.28 132.661 1075.32 143.462 1072.04C154.286 1068.67 164.694 1064.08 174.491 1058.38C184.254 1052.74 193.461 1046.19 201.988 1038.81L208.218 1033.16L214.241 1027.31C218.275 1023.33 222.035 1019.08 225.498 1014.6C238.853 996.581 248.573 976.138 254.117 954.409C265.415 911.501 265.705 867.181 262.964 824.191C261.593 802.55 259.226 781.034 256.609 759.559C253.992 738.085 251.043 716.652 249.298 695.136Z" fill="#263238"/>
<path d="M378.515 539.911C369.457 527.941 358.92 517.167 347.155 507.844C335.53 498.843 322.01 492.602 307.618 489.594C293.226 486.586 278.339 486.89 264.081 490.482C256.958 492.324 250.009 494.784 243.313 497.834C236.687 500.738 230.369 504.3 224.455 508.467C213.007 517.274 203.169 527.997 195.379 540.16C187.591 552.623 181.118 565.861 176.065 579.662C165.39 607.325 157.996 636.567 149.357 665.518C141.13 694.829 130.66 723.464 118.038 751.167C104.339 778.313 88.549 804.352 70.8105 829.049C53.6973 853.971 35.9195 878.187 22.337 904.771C15.1964 917.877 9.73956 931.833 6.09606 946.307L3.68695 957.232C3.1885 960.928 2.93927 964.667 2.56543 968.363L2.15007 973.763V979.412L2.39928 990.669C-2.5436 960.762 4.18538 929.485 17.1449 902.029C30.1044 874.573 47.0929 849.194 63.2508 823.815C79.4086 798.436 95.5249 773.182 107.944 746.183C120.026 718.881 130.077 690.726 138.017 661.946C146.823 633.244 154.258 603.795 165.681 575.425C171.252 561.01 178.309 547.214 186.74 534.262C195.483 521.242 206.584 509.971 219.471 501.032C226.008 496.736 232.967 493.117 240.239 490.233C247.403 487.221 254.828 484.871 262.42 483.213C277.599 479.755 293.383 479.963 308.466 483.82C323.548 487.677 337.494 495.073 349.149 505.394C360.53 515.444 370.418 527.067 378.515 539.911Z" fill="#263238"/>
<path d="M425.831 583.817C425.831 572.893 417.523 558.895 410.587 557.275C403.65 555.655 351.646 579.206 347.492 592.747C343.338 606.288 366.848 617.669 366.848 617.669L425.831 583.817Z" fill="#9D23D7"/>
<path d="M374.406 1015.01C404.479 1195.07 449.463 1338.79 497.064 1375.92C535.486 1405.91 590.938 1429.26 648.466 1447.12C710.032 1465.42 772.736 1479.66 836.171 1489.73C855.694 1492.97 871.976 1495.3 883.523 1497.09C912.101 1501.24 974.614 1315.36 956.13 1290.57C951.976 1284.87 933.284 1279.27 906.992 1273.7C818.477 1255.22 633.181 1240.72 623.503 1229.84C613.825 1218.96 524.396 1087.7 452.495 986.682C402.153 915.986 357.75 915.155 374.406 1015.01Z" fill="#F7A9A0"/>
<path d="M827.446 1473.25C830.893 1475.2 879.824 1501.37 910.312 1511.67C933.074 1519.39 999.2 1539.83 1010 1515.61C1017.52 1499 980.052 1482.38 953.801 1470.17C940.01 1463.69 923.313 1448.16 927.84 1439.31C935.815 1423.82 971.371 1441.31 994.59 1456.22C1039.49 1485.04 1098.76 1536.01 1127.96 1513.87C1138.97 1505.56 1127.34 1488.95 1109.94 1472.33C1138.47 1492.02 1169.09 1508.51 1181.71 1499.71C1188.94 1494.68 1189.61 1487.24 1186.07 1478.94C1195.01 1482.3 1203.02 1482.09 1208.88 1476.4C1218.85 1466.85 1214.86 1451.94 1205.1 1436.36C1206.9 1436.24 1208.65 1435.7 1210.2 1434.77C1211.75 1433.85 1213.06 1432.57 1214.03 1431.05C1235.59 1401.18 1138.43 1308.26 1103.83 1298.42C1002.07 1269.34 892.243 1273.5 892.243 1273.5C850.582 1303.82 827.362 1473.16 827.446 1473.25Z" fill="#F7A9A0"/>
<path d="M982.918 1384.07C1007.3 1388.8 1030.34 1398.87 1050.37 1413.56C1073.63 1431.09 1091.7 1454.47 1113.05 1474.08C1113.63 1474.62 1112.76 1475.49 1112.18 1474.95C1102.21 1464.86 1091.12 1455.72 1080.7 1445.87C1070.27 1436.03 1060.63 1426.56 1049.83 1417.79C1030.33 1401.71 1007.42 1390.27 982.835 1384.36C982.42 1384.44 982.669 1384.02 982.918 1384.07Z" fill="#263238"/>
<path d="M1004.06 1341.28C1030.73 1349.88 1058.06 1358.61 1082.65 1372.48C1109.48 1387.68 1129.96 1411.48 1150.1 1434.37C1162.18 1448.21 1173.96 1462.23 1185.45 1476.4C1185.95 1476.99 1185.12 1477.86 1184.62 1477.28C1164.19 1453.63 1143.06 1430.62 1121.24 1408.24C1101.16 1387.39 1077.16 1370.71 1050.62 1359.15C1035.42 1352.54 1019.76 1347.14 1004.1 1341.78C1004.07 1341.79 1004.04 1341.78 1004.01 1341.77C1003.97 1341.76 1003.95 1341.75 1003.92 1341.72C1003.9 1341.7 1003.87 1341.68 1003.86 1341.65C1003.84 1341.62 1003.84 1341.59 1003.83 1341.55C1003.83 1341.52 1003.83 1341.49 1003.84 1341.46C1003.85 1341.43 1003.87 1341.4 1003.89 1341.37C1003.91 1341.35 1003.94 1341.33 1003.97 1341.31C1004 1341.3 1004.03 1341.29 1004.06 1341.28Z" fill="#263238"/>
<path d="M1034.63 1304.4C1060.63 1310.96 1083.35 1316.61 1105.99 1331.69C1135.94 1351.71 1164.14 1384.4 1174.19 1396.03C1185.16 1408.82 1195.71 1421.99 1206.05 1435.28C1206.47 1435.82 1205.51 1436.57 1205.1 1436.03C1181.38 1406.78 1155.8 1379.1 1128.5 1353.16C1115.69 1340.59 1101.01 1330.08 1084.97 1322.01C1068.69 1314.78 1051.82 1308.96 1034.55 1304.61C1034.55 1304.61 1034.5 1304.4 1034.63 1304.4Z" fill="#263238"/>
<path d="M403.018 1203.54L559.612 1111.21C559.612 1111.21 492.78 1003.21 435.666 952.247C378.553 901.281 355.5 941.281 364.181 1015.34C372.863 1089.4 403.018 1203.54 403.018 1203.54Z" fill="#9D23D7"/>
<path d="M454.405 1156.57C453.423 1162.8 451.548 1168.86 448.839 1174.56C448.382 1175.47 447.966 1176.43 447.51 1177.34L441.071 1181.12C442.027 1178.21 443.19 1175.35 444.436 1172.52C446.976 1166.75 450.334 1161.38 454.405 1156.57ZM390.646 1074.04C384.956 1071.31 378.896 1069.43 372.66 1068.47C382.419 1076.54 394.118 1081.91 406.596 1084.05C401.776 1079.98 396.406 1076.61 390.646 1074.04ZM444.353 982.657C446.459 988.588 449.411 994.184 453.117 999.271C451.93 986.661 447.446 974.585 440.116 964.256C440.653 970.586 442.079 976.808 444.353 982.74V982.657ZM516.336 1057.01C511.128 1057.71 506.015 1058.99 501.092 1060.83C495.164 1062.96 489.57 1065.93 484.477 1069.63C490.777 1069.13 496.973 1067.73 502.878 1065.48C507.781 1063.7 512.474 1061.39 516.876 1058.59C516.747 1058.07 516.566 1057.57 516.336 1057.09V1057.01Z" fill="white"/>
<path d="M534.949 1087.74C510.027 1100.58 442.862 1137.59 402.612 1167.37C402.363 1167.37 402.986 1168.57 403.235 1168.45C440.619 1148.88 512.02 1104.36 535.863 1089.32C536.32 1089.03 535.447 1087.49 534.949 1087.74Z" fill="#263238"/>
<path d="M546.746 1118.85L403.07 1203.55C403.07 1203.55 372.873 1089.45 364.192 1015.34C358.626 967.536 366.227 933.932 387.701 929.82L546.746 1118.85Z" fill="#263238"/>
<path d="M558.154 1581.47H88.9805C88.9805 1581.47 149.023 1080.64 253.114 958.31C255.44 955.486 257.849 952.869 260.258 950.377C260.757 949.795 261.172 949.38 261.671 948.881C269.725 940.271 279.106 933.007 289.459 927.365C291.286 926.369 293.114 925.455 295.025 924.624C335.108 906.182 377.434 921.467 408.005 947.635C417.683 955.943 527.423 1098.7 537.143 1153.12C545.45 1201.18 513.052 1252.81 513.052 1252.81L558.154 1581.47Z" fill="#9D23D7"/>
<path d="M325.559 985.187C324.563 991.433 322.675 997.504 319.952 1003.21C317.412 1008.99 314.04 1014.36 309.941 1019.16C310.931 1012.93 312.82 1006.87 315.549 1001.18C318.103 995.396 321.474 990.011 325.559 985.187ZM247.636 1228.26C244.945 1233.96 243.071 1240.02 242.07 1246.25C250.135 1236.49 255.505 1224.79 257.647 1212.31C253.577 1217.13 250.207 1222.5 247.636 1228.26ZM183.669 1481.93C180.936 1487.63 179.06 1493.7 178.103 1499.95C186.117 1490.15 191.48 1478.45 193.68 1465.98C189.61 1470.8 186.24 1476.16 183.669 1481.93ZM444.438 1172.52C441.715 1178.23 439.826 1184.3 438.83 1190.54C442.938 1185.74 446.311 1180.35 448.841 1174.55C451.55 1168.86 453.425 1162.8 454.407 1156.57C450.335 1161.38 446.978 1166.75 444.438 1172.52ZM526.473 1338.25C523.821 1343.89 521.975 1349.87 520.99 1356.03C523.57 1353.05 525.838 1349.83 527.761 1346.39L526.473 1338.25ZM329.298 1456.09C326.606 1461.81 324.733 1467.88 323.732 1474.12C327.84 1469.31 331.213 1463.92 333.742 1458.12C336.433 1452.42 338.307 1446.37 339.308 1440.14C335.238 1444.96 331.868 1450.33 329.298 1456.09ZM390.647 1073.95C384.958 1071.22 378.898 1069.35 372.662 1068.38C382.421 1076.45 394.12 1081.82 406.598 1083.96C401.773 1079.92 396.403 1076.58 390.647 1074.03V1073.95ZM424.874 1280.1C419.17 1277.41 413.115 1275.53 406.888 1274.53C411.698 1278.62 417.07 1281.99 422.839 1284.54C428.542 1287.23 434.597 1289.11 440.824 1290.11C435.999 1286.07 430.63 1282.73 424.874 1280.18V1280.1ZM437.335 1505.52C431.617 1502.83 425.548 1500.95 419.308 1499.95C429.088 1508.01 440.799 1513.38 453.285 1515.53C448.46 1511.49 443.091 1508.15 437.335 1505.6V1505.52ZM186.909 1315.78C181.191 1313.09 175.122 1311.21 168.882 1310.21C173.7 1314.31 179.087 1317.68 184.874 1320.22C190.578 1322.91 196.633 1324.79 202.859 1325.79C198.034 1321.75 192.665 1318.41 186.909 1315.86V1315.78ZM523.565 1214.18C523.893 1218.41 524.687 1222.59 525.933 1226.64C526.639 1224.9 527.387 1223.07 528.093 1221.2C526.766 1218.77 525.253 1216.45 523.565 1214.26V1214.18ZM513.514 1454.68C515.637 1460.6 518.588 1466.19 522.278 1471.29C521.781 1465 520.383 1458.82 518.124 1452.93C515.987 1447.01 513.022 1441.41 509.318 1436.32C509.85 1442.63 511.262 1448.84 513.514 1454.76V1454.68ZM245.227 1106.14C247.333 1112.07 250.285 1117.67 253.991 1122.76C253.485 1116.47 252.086 1110.29 249.838 1104.4C247.683 1098.48 244.719 1092.89 241.032 1087.78C241.534 1094.1 242.947 1100.31 245.227 1106.22V1106.14ZM327.428 1319.23C329.552 1325.15 332.503 1330.74 336.193 1335.84C335.716 1329.55 334.316 1323.36 332.039 1317.48C329.933 1311.55 326.981 1305.95 323.275 1300.87C323.773 1307.18 325.172 1313.39 327.428 1319.31V1319.23ZM104.168 1406.16C106.288 1412.09 109.239 1417.68 112.932 1422.78C112.43 1416.48 111.031 1410.28 108.778 1404.38C106.623 1398.46 103.66 1392.87 99.9727 1387.76C100.479 1394.07 101.892 1400.26 104.168 1406.16ZM423.005 1396.61C428.934 1394.48 434.529 1391.51 439.619 1387.8C433.329 1388.28 427.143 1389.68 421.26 1391.96C415.329 1394.06 409.733 1397.01 404.645 1400.72C410.929 1400.23 417.111 1398.84 423.005 1396.61ZM122.901 1232.41C122.236 1234.37 121.53 1236.28 120.866 1238.23L123.566 1237.32C129.506 1235.21 135.104 1232.24 140.18 1228.51C134.267 1229 128.451 1230.31 122.901 1232.41ZM493.243 1064.31C490.131 1065.83 487.168 1067.64 484.396 1069.71C488.138 1069.48 491.843 1068.84 495.445 1067.8C494.697 1066.64 493.95 1065.48 493.243 1064.31ZM247.885 1396.61C253.803 1394.45 259.394 1391.49 264.5 1387.8C258.21 1388.28 252.024 1389.68 246.141 1391.96C240.216 1394.08 234.621 1397.03 229.526 1400.72C235.81 1400.23 241.992 1398.84 247.885 1396.61ZM332.87 1165.37C338.788 1163.22 344.379 1160.25 349.484 1156.57C343.194 1157.04 337.008 1158.44 331.125 1160.72C325.2 1162.84 319.606 1165.79 314.51 1169.49C320.777 1168.97 326.942 1167.59 332.828 1165.37H332.87Z" fill="white"/>
<path d="M435.382 1234.28C413.325 1236.44 391.458 1240.23 369.962 1245.62C359.328 1248.45 348.903 1251.73 338.477 1255.26C333.285 1257.05 328.051 1258.62 322.776 1260.16C317.33 1261.97 311.678 1263.08 305.954 1263.48C305.871 1263.51 305.798 1263.56 305.747 1263.64C305.696 1263.71 305.668 1263.79 305.668 1263.88C305.668 1263.97 305.696 1264.05 305.747 1264.12C305.798 1264.19 305.871 1264.25 305.954 1264.27C311.37 1264.51 316.797 1264.37 322.195 1263.86C327.419 1263.17 332.594 1262.14 337.688 1260.78C348.487 1258.04 359.162 1254.76 369.962 1251.9C391.769 1246.08 413.534 1240.31 435.673 1236.07C436.67 1235.9 436.421 1234.16 435.382 1234.28Z" fill="#263238"/>
<path d="M490.046 1253.31C471.865 1251.59 453.601 1250.88 435.342 1251.19C426.162 1251.19 417.107 1252.11 408.01 1253.06C403.857 1253.52 399.329 1254.06 395.009 1254.64C390.689 1255.22 385.58 1256.55 380.804 1257.13C380.305 1257.13 380.347 1258 380.804 1257.92C385.29 1257.51 389.9 1257.92 394.428 1257.71L408.093 1257.22C417.19 1256.92 426.287 1256.72 435.425 1256.34C453.659 1255.55 471.811 1254.97 490.046 1254.85C491.084 1254.81 491.001 1253.44 490.046 1253.31Z" fill="#263238"/>
<path d="M240.154 965.746C158.036 1053.68 -25.6817 1369.65 37.4959 1430.5C100.673 1491.35 497.724 1492.52 568.461 1492.52C600.652 1492.52 534.692 1280.68 500.175 1276.52C471.431 1272.99 262.459 1266.22 258.223 1257.75C253.404 1248.2 280.694 1171.1 304.827 1040.89C330.704 901.281 276.291 926.909 240.154 965.746Z" fill="#F7A9A0"/>
<path d="M614.742 1232.91C686.102 1222.94 706.123 1231.37 761.741 1191C798.335 1164.5 830.942 1176.5 810.09 1218.58C775.905 1287.45 686.518 1319.6 652.25 1321.84L614.742 1232.91Z" fill="#F7A9A0"/>
<path d="M425.164 1301.62C425.164 1301.62 505.372 1257.09 580.346 1238.94C632.225 1226.48 753.513 1206.75 858.975 1326.16C892.204 1363.8 893.99 1417.01 843.025 1385.23C803.44 1360.56 782.132 1335.93 755.548 1328.49C755.548 1328.49 770.128 1404.13 741.924 1429.43C717.274 1451.53 691.081 1471.85 663.544 1490.24C659.01 1485.97 654.764 1481.4 650.834 1476.57C650.834 1476.57 622.256 1497.71 568.466 1492.6L425.164 1301.62Z" fill="#F7A9A0"/>
<path d="M631.766 1234.91C656.688 1247.83 708.651 1276.11 743.251 1314.08C781.631 1356.24 844.227 1447.83 812.825 1475.86C789.772 1496.38 762.981 1463.4 762.981 1463.4C762.981 1463.4 780.883 1506.73 756.003 1520.72C733.324 1533.48 714.009 1506.81 714.009 1506.81C714.009 1506.81 720.323 1534.97 696.148 1543.07C667.073 1552.79 658.516 1492.23 620.51 1476.61C611.828 1473.21 631.766 1234.91 631.766 1234.91Z" fill="#F7A9A0"/>
<path d="M690.753 1347.8C712.102 1363.8 751.23 1412.52 762.03 1462.99C762.279 1464.15 761.573 1464.94 761.116 1463.94C742.353 1422.64 718.641 1383.76 690.503 1348.18C690.171 1347.93 690.545 1347.6 690.753 1347.8Z" fill="#263238"/>
<path d="M650.498 1387.26C667.445 1402.96 705.534 1454.97 714.755 1506.51C714.963 1507.64 714.174 1508.38 713.758 1507.39C697.161 1465.16 675.812 1424.95 650.124 1387.55C649.875 1387.26 650.124 1387.01 650.498 1387.26Z" fill="#263238"/>
<path d="M584.248 1493.31C592.701 1493.2 601.138 1492.54 609.502 1491.31C617.876 1490.33 626.053 1488.09 633.76 1484.67H633.968C642.199 1492.2 649.644 1500.55 656.19 1509.59C659.484 1514.12 662.481 1518.87 665.162 1523.79C667.675 1528.69 670.988 1533.12 674.965 1536.92C678.896 1540.66 684.008 1542.9 689.419 1543.27C694.821 1543.34 700.036 1541.3 703.957 1537.58C707.751 1533.75 710.324 1528.88 711.351 1523.59C712.525 1518.26 712.917 1512.79 712.514 1507.35L712.265 1503.77L714.508 1506.56C719.908 1513.81 727.426 1519.21 736.024 1522.01C740.31 1523.15 744.821 1523.15 749.108 1522.01C753.383 1520.93 757.269 1518.67 760.323 1515.49C766.138 1508.84 767.093 1499.12 766.512 1490.23C765.802 1481.14 763.889 1472.19 760.821 1463.61L758.37 1456.5L763.147 1462.32C768.833 1469.59 776.262 1475.3 784.746 1478.93C788.927 1480.64 793.465 1481.28 797.955 1480.8C802.392 1480.19 806.606 1478.48 810.209 1475.82C813.704 1473.06 816.282 1469.31 817.602 1465.06C818.899 1460.7 819.433 1456.15 819.181 1451.6C818.596 1442.33 816.622 1433.2 813.324 1424.52C806.642 1406.98 797.988 1390.26 787.529 1374.68C777.222 1358.95 766.017 1343.84 753.968 1329.4L750.229 1324.96L756.003 1326.7C762.495 1328.86 768.734 1331.72 774.611 1335.22C780.427 1338.57 786.089 1342.17 791.6 1346.02C802.649 1353.62 812.908 1362.26 823.542 1370.11C833.868 1378.29 845.101 1385.26 857.021 1390.88C862.836 1393.2 869.482 1395.03 874.549 1392.04C879.617 1389.05 881.153 1382.49 880.738 1376.26C880.276 1369.83 878.775 1363.51 876.294 1357.56C873.654 1351.59 870.426 1345.9 866.657 1340.58C858.981 1329.81 850.333 1319.77 840.821 1310.59C831.349 1301.32 821.349 1292.61 810.873 1284.5C800.468 1276.32 789.487 1268.89 778.017 1262.28L776.19 1261.24L777.685 1259.74C789.802 1248.14 800.07 1234.75 808.132 1220.04C812.125 1212.8 814.292 1204.7 814.445 1196.44C814.452 1192.43 813.406 1188.5 811.413 1185.02C810.41 1183.35 809.086 1181.9 807.517 1180.74C805.949 1179.59 804.167 1178.75 802.275 1178.29C794.156 1177.08 785.867 1178.66 778.765 1182.78C771.273 1186.55 763.98 1190.71 756.917 1195.24C742.836 1204.29 729.046 1214.88 712.514 1220.16C704.36 1222.52 696.024 1224.2 687.592 1225.19C679.284 1226.35 670.769 1227.35 662.379 1228.38C645.764 1230.42 628.817 1232.54 612.119 1235.28C578.625 1240.19 545.749 1248.65 514.051 1260.53C545.637 1248.25 578.442 1239.36 611.912 1234.03C628.526 1231.13 645.349 1228.76 662.13 1226.51L687.052 1223.07C695.408 1222.1 703.664 1220.4 711.725 1218C727.758 1212.93 741.257 1202.47 755.463 1193.08C762.607 1188.47 769.876 1184.11 777.477 1180.2C785.174 1175.72 794.183 1174.03 802.981 1175.42C807.471 1176.55 811.345 1179.38 813.781 1183.32C816.033 1187.2 817.222 1191.62 817.228 1196.11C817.146 1204.83 814.905 1213.39 810.707 1221.03C802.583 1236.1 792.172 1249.82 779.845 1261.7L779.554 1259.2C791.147 1265.84 802.252 1273.29 812.784 1281.51C823.398 1289.67 833.535 1298.44 843.147 1307.76C852.876 1317.04 861.72 1327.21 869.565 1338.12C873.504 1343.65 876.885 1349.55 879.658 1355.74C882.335 1362.09 883.963 1368.84 884.476 1375.72C884.753 1379.3 884.344 1382.91 883.272 1386.35C882.134 1390.01 879.696 1393.13 876.418 1395.11C873.108 1396.95 869.275 1397.63 865.536 1397.02C862.052 1396.58 858.643 1395.67 855.401 1394.32C843.107 1388.72 831.544 1381.63 820.967 1373.22C810.209 1365.16 800.198 1356.61 789.232 1349.05C783.833 1345.27 778.267 1341.66 772.618 1338.37C767.084 1334.97 761.192 1332.18 755.048 1330.07L756.917 1327.08C768.98 1341.65 780.199 1356.91 790.52 1372.77C801.045 1388.6 809.727 1405.59 816.397 1423.4C819.769 1432.4 821.771 1441.85 822.337 1451.44C822.572 1456.34 821.968 1461.24 820.551 1465.93C819.072 1470.73 816.176 1474.98 812.244 1478.1C808.219 1481.08 803.501 1482.98 798.537 1483.63C793.594 1484.11 788.607 1483.4 783.999 1481.55C775.062 1477.69 767.247 1471.63 761.278 1463.94L763.604 1462.65C766.711 1471.48 768.638 1480.69 769.336 1490.02C769.68 1494.75 769.401 1499.5 768.506 1504.15C767.634 1508.92 765.513 1513.38 762.358 1517.07C758.947 1520.53 754.669 1523.01 749.97 1524.25C745.272 1525.49 740.326 1525.45 735.65 1524.13C726.584 1521.14 718.663 1515.42 712.971 1507.76L714.965 1506.97C715.354 1512.67 714.907 1518.39 713.635 1523.96C712.481 1529.7 709.579 1534.93 705.328 1538.96C701.024 1542.94 695.325 1545.07 689.461 1544.89C683.653 1544.45 678.186 1541.98 674.009 1537.92C669.974 1533.95 666.62 1529.35 664.082 1524.29C661.486 1519.4 658.586 1514.66 655.401 1510.13C649.009 1501.03 641.717 1492.6 633.635 1484.96H633.968C626.164 1488.3 617.903 1490.46 609.461 1491.35C601.107 1492.54 592.685 1493.19 584.248 1493.31Z" fill="#263238"/>
<path d="M111.434 1119.68L282.441 1181.28C282.441 1181.28 322.898 1060.82 325.681 984.395C328.464 907.967 283.022 915.693 231.517 969.65C180.011 1023.61 111.434 1119.68 111.434 1119.68Z" fill="#9D23D7"/>
<path d="M325.558 985.187C324.562 991.433 322.674 997.504 319.951 1003.21C317.411 1008.99 314.039 1014.36 309.94 1019.16C310.93 1012.93 312.819 1006.87 315.548 1001.18C318.102 995.396 321.473 990.011 325.558 985.187ZM137.562 1129.11L142.09 1130.73C144.594 1125.37 146.328 1119.68 147.241 1113.83C143.285 1118.42 140.024 1123.57 137.562 1129.11ZM245.226 1106.22C247.332 1112.16 250.284 1117.75 253.99 1122.84C253.484 1116.55 252.085 1110.37 249.837 1104.48C247.682 1098.56 244.718 1092.97 241.031 1087.87C241.541 1094.15 242.954 1100.34 245.226 1106.22ZM193.886 1020.62C190.175 1022.01 186.566 1023.66 183.087 1025.56L180.304 1029.05C185.544 1028.33 190.685 1027.02 195.631 1025.14C201.571 1023.04 207.17 1020.07 212.246 1016.34C205.954 1016.89 199.772 1018.33 193.886 1020.62Z" fill="white"/>
<path d="M284.599 1147.31C258.721 1136.18 187.569 1108.14 138.846 1096.26C138.555 1096.26 138.14 1097.3 138.389 1097.42C177.309 1113.71 257.184 1140.29 283.768 1149.01C284.599 1149.18 285.263 1147.52 284.599 1147.31Z" fill="#263238"/>
<path d="M317.835 1082.51C317.835 1082.26 317.545 1082.13 317.42 1082.51C314.346 1088.41 311.605 1094.39 309.113 1100.49C312.103 1087.12 314.776 1073.72 317.129 1060.29C317.129 1060.19 317.09 1060.09 317.02 1060.02C316.95 1059.95 316.855 1059.91 316.755 1059.91C316.656 1059.91 316.561 1059.95 316.491 1060.02C316.421 1060.09 316.382 1060.19 316.382 1060.29C304.917 1099.7 292.456 1138.96 281.823 1178.62C277.462 1178.42 273.059 1178.13 268.739 1177.54C268.601 1177.54 268.464 1177.58 268.353 1177.66C268.242 1177.74 268.165 1177.86 268.135 1178C268.105 1178.13 268.124 1178.28 268.189 1178.4C268.254 1178.52 268.361 1178.62 268.49 1178.67C273.225 1179.83 277.877 1181.32 282.488 1182.82C283.013 1183.07 283.613 1183.1 284.163 1182.92C284.713 1182.73 285.17 1182.34 285.437 1181.82C293.76 1159.28 300.696 1136.26 306.205 1112.87C307.991 1109.3 309.736 1105.73 311.273 1102.03C313.952 1095.7 316.146 1089.17 317.835 1082.51Z" fill="#263238"/>
<path d="M327.262 934.51C328.093 943.773 362.527 1008.03 403.731 1011.98C417.148 1013.26 427.324 940.284 427.324 940.284L429.318 935.05L456.982 862.028L376.525 792.454L364.811 783.108C364.811 783.108 358.539 803.586 351.021 829.173C350.647 830.336 350.274 831.54 349.941 832.786C349.609 834.033 348.986 835.611 348.654 836.94C347.449 840.762 346.286 844.666 345.165 848.57C344.334 851.52 343.503 854.386 342.714 857.542C341.925 860.699 341.094 863.731 340.222 866.888C332.413 897.958 327.013 930.357 327.262 934.51Z" fill="#F7A9A0"/>
<path d="M351.062 829.134C355.637 851.41 365.012 872.423 378.534 890.708C392.056 908.993 409.4 924.111 429.359 935.011L457.023 861.989L376.566 792.415L364.853 783.069C364.853 783.069 358.539 803.547 351.062 829.134Z" fill="#263238"/>
<path d="M576.978 756.154C569.917 893.226 487.134 904.275 457.643 902.696C430.851 901.284 339.803 893.101 332.658 756.196C325.514 619.29 391.433 579.332 452.866 579.332C514.299 579.332 584.039 619.29 576.978 756.154Z" fill="#F7A9A0"/>
<path d="M558.742 731.519C555.663 730.818 552.626 729.944 549.645 728.903C546.315 728.423 543.236 726.861 540.881 724.458C540.295 723.557 540.019 722.491 540.094 721.419C540.169 720.347 540.591 719.329 541.297 718.518C542.965 717.15 544.967 716.249 547.098 715.906C549.228 715.563 551.411 715.791 553.425 716.566C557.723 717.544 561.509 720.073 564.059 723.669C564.607 724.518 564.894 725.51 564.884 726.52C564.873 727.531 564.565 728.516 563.998 729.353C563.431 730.19 562.63 730.842 561.696 731.227C560.761 731.612 559.734 731.714 558.742 731.519Z" fill="#263238"/>
<path d="M471.521 725.705C474.719 725.705 477.71 724.874 480.867 724.417C484.241 724.442 487.528 723.346 490.212 721.302C490.93 720.498 491.361 719.479 491.436 718.403C491.511 717.328 491.227 716.258 490.628 715.362C489.19 713.759 487.349 712.571 485.296 711.921C483.244 711.27 481.054 711.182 478.956 711.666C474.556 711.997 470.432 713.933 467.367 717.107C466.718 717.88 466.306 718.823 466.181 719.824C466.056 720.826 466.223 721.842 466.662 722.75C467.101 723.659 467.793 724.421 468.655 724.945C469.517 725.469 470.512 725.733 471.521 725.705Z" fill="#263238"/>
<path d="M485.27 759.557C485.27 759.183 484.481 759.972 484.481 760.346C484.481 769.692 482.57 780.325 473.972 783.025C473.681 783.025 473.681 783.565 473.972 783.524C484.356 782.61 486.599 768.363 485.27 759.557Z" fill="#263238"/>
<path d="M477.416 749.422C462.463 747.511 459.805 777.5 473.636 779.287C487.468 781.073 489.919 751 477.416 749.422Z" fill="#263238"/>
<path d="M471.52 750.462C468.737 751.916 465.912 754.616 462.714 754.616C459.516 754.616 456.525 751.252 454.406 748.012C454.406 747.679 453.908 748.012 453.866 748.302C453.285 754.035 454.946 760.14 461.052 761.553C467.158 762.965 471.104 758.105 473.056 752.456C473.306 751.75 472.517 749.881 471.52 750.462Z" fill="#263238"/>
<path d="M536.234 762.135C536.234 761.803 536.899 762.634 536.858 763.049C535.653 772.27 535.819 783.111 543.96 787.016C544.21 787.016 543.96 787.597 543.96 787.514C533.825 784.981 533.825 770.733 536.234 762.135Z" fill="#263238"/>
<path d="M545.451 753.248C560.488 753.58 558.743 783.653 544.828 783.362C530.914 783.071 532.824 752.998 545.451 753.248Z" fill="#263238"/>
<path d="M551.596 755.571C553.881 757.316 556.082 760.348 558.907 760.722C561.731 761.095 564.805 758.022 567.214 754.99C567.463 754.699 567.671 754.99 567.671 755.363C567.463 761.095 565.22 766.994 559.654 767.824C554.089 768.655 551.139 763.38 550.101 757.565C549.769 756.443 550.683 754.906 551.596 755.571Z" fill="#263238"/>
<path d="M478.331 831.21C480.241 833.661 482.069 836.942 485.392 837.69C488.83 838.085 492.313 837.745 495.61 836.693C495.681 836.658 495.763 836.65 495.839 836.67C495.916 836.69 495.983 836.737 496.028 836.803C496.073 836.868 496.094 836.947 496.086 837.026C496.077 837.105 496.041 837.178 495.984 837.233C494.416 838.885 492.426 840.076 490.229 840.677C488.032 841.277 485.713 841.264 483.523 840.639C481.699 839.904 480.137 838.642 479.034 837.014C477.932 835.386 477.34 833.467 477.334 831.501C477.292 830.919 478.04 830.67 478.331 831.21Z" fill="#263238"/>
<path d="M517.998 805.085C517.998 805.085 518.828 819.124 518.33 825.853C518.33 826.435 493.989 829.509 484.81 812.562C484.7 812.424 484.649 812.248 484.668 812.073C484.688 811.898 484.776 811.737 484.914 811.627C485.051 811.517 485.227 811.466 485.402 811.485C485.578 811.505 485.738 811.593 485.848 811.731C493.768 818.093 503.526 821.734 513.678 822.115C514.259 820.329 511.435 798.107 512.473 798.107C517.53 798.945 522.449 800.468 527.094 802.634C526.181 773.309 520.615 744.483 520.158 715.199C520.176 714.998 520.26 714.808 520.398 714.66C520.535 714.511 520.718 714.413 520.918 714.38C521.117 714.346 521.322 714.38 521.5 714.476C521.678 714.572 521.82 714.724 521.902 714.908C529.877 744.815 531.663 778.501 533.366 808.74C533.823 812.354 520.531 806.373 517.998 805.085Z" fill="#263238"/>
<path d="M334.197 753.245C343.593 751.238 352.307 746.826 359.486 740.44C366.665 734.055 372.063 725.915 375.152 716.817C492.452 713.951 531.248 641.179 531.248 641.179C553.761 702.445 573.865 712.954 577.146 722.175C577.146 722.175 586.907 669.05 569.171 628.551C553.47 592.705 513.179 554.325 449.794 562.466C413.865 567.077 383.626 598.188 383.626 598.188C383.626 598.188 344.789 602.342 328.88 633.577C302.214 686.08 334.197 753.245 334.197 753.245Z" fill="#263238"/>
<path d="M533.035 636.525C528.766 651.802 520.741 665.768 509.691 677.148C498.638 688.595 485.461 697.78 470.896 704.189L459.764 708.343C455.984 709.63 452.121 710.419 448.3 711.458C440.655 713.46 432.863 714.849 424.998 715.612C417.147 716.318 409.255 716.193 401.405 716.484C393.596 715.778 385.787 715.238 378.02 714.407C385.87 714.158 393.637 714.407 401.405 714.158C409.131 713.369 416.898 713.078 424.541 711.998C439.833 709.968 454.782 705.888 468.985 699.869C483.124 693.86 496.036 685.299 507.074 674.615C518.321 663.894 527.169 650.913 533.035 636.525Z" fill="#263238"/>
<path d="M454.652 804.583C446.68 802.889 439.344 798.991 433.478 793.334C427.613 787.676 423.453 780.485 421.473 772.58C419.492 764.674 419.771 756.372 422.277 748.617C424.783 740.862 429.416 733.966 435.648 728.715C441.88 723.463 449.461 720.066 457.528 718.911C465.595 717.756 473.825 718.889 481.28 722.18C488.736 725.472 495.117 730.79 499.699 737.53C504.281 744.27 506.878 752.161 507.196 760.304C507.634 771.835 503.481 783.068 495.648 791.541C487.814 800.013 476.939 805.032 465.41 805.496C461.801 805.616 458.19 805.309 454.652 804.583ZM471.516 725.123C468.444 724.482 465.306 724.217 462.17 724.333C452.604 724.723 443.546 728.744 436.841 735.577C430.135 742.411 426.286 751.543 426.078 761.115C425.869 770.687 429.317 779.978 435.718 787.097C442.12 794.216 450.994 798.628 460.535 799.433C470.075 800.239 479.563 797.378 487.068 791.434C494.573 785.489 499.53 776.907 500.929 767.436C502.329 757.965 500.066 748.316 494.601 740.455C489.137 732.594 480.881 727.111 471.516 725.123Z" fill="#455A64"/>
<path d="M554.136 813.346C537.853 809.857 526.638 790.044 528.757 767.448C529.562 756.62 533.746 746.32 540.719 737.998C543.483 734.236 547.17 731.252 551.424 729.332C555.679 727.413 560.357 726.624 565.006 727.041C569.654 727.459 574.117 729.069 577.961 731.716C581.805 734.363 584.901 737.958 586.95 742.152C592.265 751.618 594.473 762.515 593.263 773.304C591.02 797.188 574.738 815.298 556.96 813.636C556.005 813.678 555.05 813.553 554.136 813.346ZM566.597 733.263C565.888 733.089 565.165 732.978 564.437 732.93C560.721 732.743 557.015 733.453 553.631 735C550.248 736.547 547.287 738.886 544.998 741.819C538.842 749.231 535.154 758.379 534.447 767.988C532.495 788.756 542.755 806.617 557.417 807.987C572.08 809.358 585.455 793.616 587.365 772.93C588.454 763.359 586.522 753.686 581.841 745.267C580.286 742.323 578.135 739.735 575.525 737.668C572.914 735.601 569.902 734.101 566.68 733.263H566.597Z" fill="#455A64"/>
<path d="M505.288 765.167L501.965 760.39C509.068 755.489 524.935 749.508 534.488 761.802L529.878 765.375C521.363 754.326 505.952 764.752 505.288 765.167Z" fill="#455A64"/>
<path d="M311.186 758.271L306.285 755.114C307.739 752.83 320.989 732.768 334.115 731.895C346.576 731.106 423.336 745.644 426.617 746.267L425.537 751.958C403.481 747.804 343.959 737.046 334.489 737.71C325.849 738.292 314.717 752.747 311.186 758.271Z" fill="#455A64"/>
<path d="M354.881 757.65C354.881 757.65 331.122 711.17 310.437 719.062C289.752 726.954 303.5 791.461 324.892 803.008C327.535 804.678 330.489 805.796 333.575 806.295C336.662 806.793 339.817 806.662 342.852 805.909C345.887 805.157 348.737 803.797 351.233 801.914C353.729 800.031 355.817 797.662 357.374 794.95L354.881 757.65Z" fill="#F7A9A0"/>
<path d="M314.841 737.462C314.467 737.462 314.343 737.877 314.633 738.043C329.587 746.642 335.859 762.467 339.555 778.5C335.651 771.979 329.711 767.908 321.072 772.394C320.981 772.454 320.913 772.542 320.877 772.644C320.841 772.747 320.839 772.858 320.872 772.961C320.905 773.065 320.97 773.154 321.059 773.217C321.147 773.28 321.254 773.312 321.362 773.308C324.271 772.806 327.265 773.219 329.929 774.491C332.592 775.764 334.795 777.832 336.232 780.411C338.604 784.724 340.512 789.277 341.923 793.994C342.463 795.53 345.121 795.115 344.831 793.412C344.811 793.288 344.811 793.162 344.831 793.038C347.987 772.893 336.232 742.488 314.841 737.462Z" fill="#263238"/>
<path d="M914.046 1539.08C900.564 1537.82 887.167 1535.78 873.921 1532.97C860.619 1530.36 847.484 1526.97 834.586 1522.8C861.56 1525.49 888.186 1530.95 914.046 1539.08Z" fill="#263238"/>
<path d="M1029.6 1503.64C1027.98 1487.73 1027.61 1471.83 1027.52 1455.92C1027.41 1439.97 1028.1 1424.03 1029.6 1408.15C1031.1 1424.03 1031.79 1439.97 1031.68 1455.92C1031.59 1471.83 1031.22 1487.73 1029.6 1503.64Z" fill="#263238"/>
<path d="M989.019 1504.31C980.001 1492.29 971.613 1479.81 963.89 1466.92C956.006 1454.11 948.81 1440.88 942.332 1427.3C960.254 1451.5 975.884 1477.33 989.019 1504.43V1504.31Z" fill="#263238"/>
<path d="M843.48 1430.88C852.702 1437.98 861.632 1445.41 870.521 1452.89C879.41 1460.37 888.091 1468.01 896.772 1475.73C905.454 1483.46 914.01 1491.27 922.4 1499.29L934.862 1511.29C939.015 1515.44 943.169 1519.6 947.323 1523.75C942.712 1520.22 938.226 1516.52 933.699 1512.91L920.324 1501.74C911.435 1494.3 902.754 1486.62 894.072 1478.89C885.391 1471.17 876.835 1463.36 868.444 1455.34C860.054 1447.32 851.58 1439.27 843.48 1430.88Z" fill="#263238"/>
<path d="M1105.03 1531.8C1117.92 1527.66 1131.04 1524.26 1144.32 1521.63C1157.58 1518.8 1170.99 1516.76 1184.49 1515.52C1158.62 1523.64 1132 1529.1 1105.03 1531.8Z" fill="#263238"/>
<path d="M1168.91 1422.73C1160.85 1431.03 1152.3 1439.13 1143.99 1447.11C1135.68 1455.08 1126.96 1462.89 1118.36 1470.66C1109.76 1478.43 1101 1486.07 1092.07 1493.51L1078.74 1504.68C1074.17 1508.29 1069.72 1511.99 1065.07 1515.52C1069.22 1511.37 1073.38 1507.21 1077.53 1503.06L1089.99 1491.05C1098.3 1483.04 1107.02 1475.27 1115.62 1467.5C1124.22 1459.74 1132.98 1452.09 1141.91 1444.66C1150.84 1437.22 1159.73 1429.83 1168.91 1422.73Z" fill="#263238"/>
<path d="M769.92 430.167C767.499 453.34 758.687 475.385 744.466 493.841C730.246 512.297 711.178 526.439 689.388 534.688C667.599 542.938 643.945 544.971 621.068 540.56C598.19 536.15 576.988 525.469 559.827 509.711L496.898 519.139L528.383 464.726C520.523 445.583 517.554 424.784 519.744 404.207C521.357 387.697 526.22 371.668 534.054 357.045C541.887 342.422 552.536 329.494 565.388 319.003C578.239 308.513 593.038 300.669 608.934 295.923C624.829 291.176 641.507 289.621 658.006 291.347C674.505 293.072 690.499 298.045 705.068 305.978C719.638 313.911 732.493 324.648 742.896 337.571C753.298 350.493 761.041 365.346 765.679 381.273C770.317 397.201 771.758 413.888 769.92 430.375V430.167Z" fill="white"/>
<path d="M769.92 430.169C767.494 453.341 758.711 475.392 744.541 493.886C737.617 503.233 729.295 511.457 719.868 518.268C701.184 532.334 678.974 540.96 655.693 543.191C649.878 543.696 644.036 543.807 638.206 543.523C632.365 543.389 626.544 542.778 620.802 541.695C597.58 537.467 576 526.836 558.497 510.999L559.992 511.456L497.147 521.093L492.578 521.799L494.863 517.645L526.181 463.149V465.309C518.796 447.27 515.655 427.775 517.002 408.329C518.348 388.884 524.147 370.008 533.949 353.159C543.742 336.384 557.204 322.042 573.326 311.207C593.379 297.875 616.81 290.519 640.885 289.995C664.96 289.471 688.688 295.802 709.302 308.249C729.917 320.696 746.568 338.746 757.316 360.296C768.063 381.846 772.463 406.006 770.003 429.961L769.92 430.169ZM769.92 430.169C771.891 411.239 769.501 392.109 762.931 374.246C756.362 356.383 745.788 340.263 732.021 327.121C718.254 313.98 701.659 304.167 683.511 298.434C665.362 292.702 646.142 291.203 627.324 294.053C608.662 296.832 590.886 303.851 575.361 314.572C559.985 325.356 547.144 339.36 537.729 355.61C528.476 371.92 523.024 390.108 521.779 408.819C520.616 427.512 523.638 446.229 530.626 463.606L531.083 464.727L530.501 465.766L498.809 520.055L496.566 516.732L559.536 507.926H560.408L561.031 508.507C577.829 524.244 598.689 534.976 621.259 539.494C626.882 540.663 632.592 541.358 638.331 541.571C644.055 541.986 649.803 541.986 655.527 541.571C667.016 540.672 678.325 538.184 689.13 534.177C699.986 530.239 710.203 524.725 719.452 517.812C724.107 514.392 728.546 510.688 732.744 506.721C736.824 502.634 740.639 498.292 744.167 493.72C758.458 475.323 767.372 453.325 769.92 430.169Z" fill="#263238"/>
<path d="M714.969 420.908C714.969 423.923 714.075 426.87 712.399 429.377C710.724 431.884 708.344 433.838 705.558 434.992C702.773 436.146 699.708 436.447 696.751 435.859C693.793 435.271 691.077 433.819 688.945 431.687C686.813 429.555 685.362 426.839 684.773 423.882C684.185 420.925 684.487 417.86 685.641 415.075C686.795 412.289 688.749 409.908 691.255 408.233C693.762 406.558 696.71 405.664 699.725 405.664C701.728 405.659 703.713 406.049 705.565 406.813C707.417 407.578 709.099 408.7 710.516 410.117C711.933 411.533 713.055 413.216 713.819 415.068C714.583 416.92 714.974 418.905 714.969 420.908Z" fill="#263238"/>
<path d="M660.386 420.908C660.386 423.925 659.491 426.874 657.814 429.382C656.138 431.889 653.754 433.843 650.966 434.996C648.179 436.148 645.111 436.448 642.153 435.856C639.195 435.265 636.479 433.809 634.349 431.673C632.218 429.536 630.77 426.816 630.186 423.857C629.603 420.897 629.911 417.83 631.071 415.046C632.231 412.261 634.191 409.883 636.704 408.213C639.216 406.543 642.167 405.656 645.184 405.664C647.184 405.664 649.164 406.059 651.011 406.825C652.858 407.592 654.536 408.715 655.948 410.132C657.361 411.548 658.48 413.228 659.241 415.078C660.003 416.927 660.392 418.908 660.386 420.908Z" fill="#263238"/>
<path d="M605.851 420.908C605.851 423.923 604.957 426.87 603.282 429.377C601.607 431.884 599.226 433.838 596.441 434.992C593.655 436.146 590.59 436.447 587.633 435.859C584.676 435.271 581.96 433.819 579.828 431.687C577.696 429.555 576.244 426.839 575.656 423.882C575.068 420.925 575.37 417.86 576.524 415.075C577.677 412.289 579.631 409.908 582.138 408.233C584.645 406.558 587.592 405.664 590.607 405.664C592.611 405.659 594.595 406.049 596.447 406.813C598.299 407.578 599.982 408.7 601.399 410.117C602.815 411.533 603.938 413.216 604.702 415.068C605.466 416.92 605.857 418.905 605.851 420.908Z" fill="#263238"/>
<path d="M981.426 599.309H642.734V786.1H981.426V599.309Z" fill="#455A64"/>
<path d="M916.129 786.1H981.425V833.327L916.129 786.1Z" fill="#455A64"/>
<path d="M837.499 633.785H683.938V637.98H837.499V633.785Z" fill="white"/>
<path d="M941.84 656.504H683.938V660.699H941.84V656.504Z" fill="white"/>
<path d="M941.84 679.222H683.938V683.417H941.84V679.222Z" fill="white"/>
<path d="M892.411 701.944H683.938V706.14H892.411V701.944Z" fill="white"/>
<path d="M941.84 724.667H683.938V728.862H941.84V724.667Z" fill="white"/>
<path d="M778.808 747.386H683.938V751.581H778.808V747.386Z" fill="white"/>
<path d="M1094.74 854.056H758.328V992.623H1094.74V854.056Z" fill="#9D23D7"/>
<path d="M1094.74 1037.11V992.58H1027.2L1094.74 1037.11Z" fill="#9D23D7"/>
<path d="M1054.32 888.526H799.246V892.722H1054.32V888.526Z" fill="white"/>
<path d="M944.791 911.251H799.246V915.446H944.791V911.251Z" fill="white"/>
<path d="M995.965 933.971H799.246V938.166H995.965V933.971Z" fill="white"/>
<path d="M867.782 956.689H799.246V960.885H867.782V956.689Z" fill="white"/>
<path d="M853.609 1544.86H819.84V1566.92H853.609V1544.86Z" fill="#EBEBEB"/>
<path d="M897.387 1543.41H863.617V1565.46H897.387V1543.41Z" fill="#EBEBEB"/>
<path d="M941.215 1541.96H907.445V1564.01H941.215V1541.96Z" fill="#EBEBEB"/>
<path d="M984.992 1540.51H951.223V1562.56H984.992V1540.51Z" fill="#EBEBEB"/>
<path d="M1028.81 1539.05H995.043V1561.1H1028.81V1539.05Z" fill="#EBEBEB"/>
<path d="M1072.59 1537.6H1038.82V1559.65H1072.59V1537.6Z" fill="#EBEBEB"/>
<path d="M1116.37 1536.14H1082.6V1558.2H1116.37V1536.14Z" fill="#EBEBEB"/>
<path d="M1160.2 1534.69H1126.43V1556.74H1160.2V1534.69Z" fill="#EBEBEB"/>
<path d="M1203.97 1533.23H1170.2V1555.29H1203.97V1533.23Z" fill="#EBEBEB"/>
<path d="M1212.24 1581.47H811.578V1554.6L1212.24 1543.43V1581.47Z" fill="#DBDBDB"/>
<path d="M1511.06 1472.66H952.801L1041.57 1057.05H1599.82L1511.06 1472.66Z" fill="#EBEBEB"/>
<path d="M1531.7 1472.66H973.445L1062.21 1057.05H1620.46L1531.7 1472.66Z" fill="#DBDBDB"/>
<path d="M1332.35 1264.1C1347.5 1250.1 1350.09 1228.27 1338.13 1215.33C1326.17 1202.39 1304.2 1203.25 1289.05 1217.24C1273.91 1231.24 1271.32 1253.07 1283.28 1266.01C1295.24 1278.95 1317.21 1278.1 1332.35 1264.1Z" fill="white"/>
<path d="M1373.82 1581.65H1099.26V1560.3L1373.82 1551.45V1581.65Z" fill="#EBEBEB"/>
<path d="M1448.46 1581.16H1301.04L1212.24 1348.26H1359.65L1448.46 1581.16Z" fill="#EBEBEB"/>
<path d="M1472.71 1581.16H1325.3L1236.54 1348.26H1383.95L1472.71 1581.16Z" fill="#A6A6A6"/>
<path d="M774.732 1582H491.824C467.691 1582 502.624 1513.21 590.807 1486.84C678.989 1460.46 802.728 1556.2 774.732 1582Z" fill="#DBDBDB"/>
<path d="M663.832 1582C664.059 1574.16 665.359 1566.39 667.695 1558.91C669.99 1551.36 673.199 1544.12 677.248 1537.35C681.282 1530.54 686.34 1524.39 692.243 1519.11C698.083 1513.81 704.82 1509.59 712.139 1506.65C709.107 1509.14 705.66 1510.81 702.877 1513.59L698.723 1517.29L694.569 1521.44C689.321 1526.92 684.721 1532.98 680.862 1539.51C676.942 1546.04 673.58 1552.89 670.81 1559.99C667.992 1567.16 665.661 1574.51 663.832 1582Z" fill="#263238"/>
<path d="M697.391 1516.54C705.771 1519.24 713.935 1522.57 721.814 1526.5C729.742 1530.42 737.352 1534.95 744.576 1540.05C751.906 1545.11 758.539 1551.12 764.306 1557.91C767.137 1561.39 769.588 1565.16 771.617 1569.16C773.561 1573.18 774.677 1577.54 774.898 1582C773.904 1577.78 772.19 1573.76 769.831 1570.12C767.543 1566.49 764.884 1563.11 761.897 1560.03C755.845 1553.89 749.241 1548.33 742.167 1543.41C735.148 1538.34 727.712 1533.82 720.277 1529.33C716.539 1527.09 712.759 1524.93 708.896 1522.85C705.033 1520.77 701.254 1518.65 697.391 1516.54Z" fill="#263238"/>
<path opacity="0.6" d="M249.712 1409.15C249.712 1409.15 350.646 1362.63 350.646 1300.28C350.646 1237.94 219.722 1197.81 219.722 1149.09C219.722 1100.37 276.835 1071.67 276.835 1071.67C276.835 1071.67 186.617 1102.49 186.617 1164.13C186.617 1225.77 272.931 1267.51 281.197 1306.76C292.661 1361.22 249.712 1409.15 249.712 1409.15Z" fill="#DBDBDB"/>
<path opacity="0.6" d="M254.695 1409.15C254.695 1409.15 153.719 1372.6 153.719 1323.58C153.719 1274.57 284.601 1243 284.601 1204.66C284.601 1166.33 227.53 1143.81 227.53 1143.81C227.53 1143.81 317.831 1168.03 317.831 1216.5C317.831 1264.98 218.724 1298.29 211.621 1337.66C204.601 1376.25 254.695 1409.15 254.695 1409.15Z" fill="#DBDBDB"/>
<path d="M298.764 1565.95H202.73V1580.95H298.764V1565.95Z" fill="#455A64"/>
<path d="M298.764 1565.95H202.73V1575.84H298.764V1565.95Z" fill="#263238"/>
<path d="M88.7554 1525.62C94.5843 1534.25 102.776 1541.03 112.351 1545.13C121.927 1549.23 132.481 1550.49 142.753 1548.76C146.076 1548.15 149.331 1547.21 152.473 1545.97C157.251 1544.1 161.807 1541.71 166.055 1538.83L153.844 1520.72C151.593 1522.34 149.186 1523.73 146.658 1524.87C123.771 1535.26 109.275 1517.19 106.45 1513.08C93.5321 1494.55 88.6723 1452.31 101.839 1436.03C102.712 1434.82 106.575 1432.91 122.026 1436.23C124.892 1436.86 128.132 1437.56 131.788 1438.6C134.626 1439.57 137.567 1440.19 140.552 1440.47L140.967 1429.63L142.006 1418.79C141.009 1418.79 139.472 1418.16 137.437 1417.58C130.288 1415.49 122.981 1413.97 115.588 1413.06C104.207 1411.85 92.286 1413.06 84.9755 1422.23C63.4594 1448.78 72.2652 1502.44 88.7554 1525.62Z" fill="#455A64"/>
<path d="M153.928 1520.72C151.677 1522.34 149.27 1523.73 146.742 1524.88L152.557 1546.02C157.336 1544.15 161.891 1541.75 166.14 1538.87L153.928 1520.72Z" fill="#263238"/>
<path d="M115.754 1413.06L122.192 1436.23C125.058 1436.86 128.298 1437.56 131.953 1438.6C134.791 1439.57 137.733 1440.19 140.718 1440.47L141.133 1429.63L142.171 1418.79C141.174 1418.79 139.638 1418.16 137.602 1417.58C130.453 1415.49 123.147 1413.97 115.754 1413.06Z" fill="#263238"/>
<path d="M378.517 1384.73C378.517 1384.73 366.969 1482.59 347.073 1523.84C327.177 1565.08 299.43 1569.53 282.151 1569.53H219.347C202.11 1569.53 174.321 1564.92 154.425 1523.84C134.529 1482.76 123.023 1384.73 123.023 1384.73H378.517Z" fill="#455A64"/>
<path d="M164.73 1412.69C164.73 1414.93 164.065 1417.12 162.819 1418.99C161.573 1420.85 159.802 1422.3 157.73 1423.16C155.658 1424.02 153.378 1424.24 151.178 1423.81C148.978 1423.37 146.958 1422.29 145.372 1420.7C143.786 1419.12 142.706 1417.1 142.269 1414.9C141.831 1412.7 142.056 1410.42 142.914 1408.35C143.772 1406.27 145.226 1404.5 147.09 1403.26C148.955 1402.01 151.148 1401.35 153.39 1401.35C154.88 1401.35 156.354 1401.64 157.73 1402.21C159.106 1402.78 160.356 1403.61 161.409 1404.67C162.462 1405.72 163.297 1406.97 163.867 1408.35C164.437 1409.72 164.73 1411.2 164.73 1412.69ZM253.494 1398.98C251.251 1398.98 249.059 1399.64 247.194 1400.89C245.329 1402.14 243.876 1403.91 243.018 1405.98C242.16 1408.05 241.935 1410.33 242.372 1412.53C242.81 1414.73 243.89 1416.75 245.476 1418.34C247.062 1419.92 249.082 1421 251.282 1421.44C253.482 1421.88 255.762 1421.65 257.834 1420.79C259.906 1419.94 261.677 1418.48 262.923 1416.62C264.169 1414.75 264.834 1412.56 264.834 1410.32C264.834 1407.31 263.639 1404.43 261.512 1402.3C259.386 1400.17 256.502 1398.98 253.494 1398.98ZM253.494 1541.41C251.251 1541.41 249.059 1542.07 247.194 1543.32C245.329 1544.57 243.876 1546.34 243.018 1548.41C242.16 1550.48 241.935 1552.76 242.372 1554.96C242.81 1557.16 243.89 1559.18 245.476 1560.77C247.062 1562.35 249.082 1563.43 251.282 1563.87C253.482 1564.31 255.762 1564.08 257.834 1563.22C259.906 1562.37 261.677 1560.91 262.923 1559.05C264.169 1557.18 264.834 1554.99 264.834 1552.75C264.834 1549.74 263.639 1546.86 261.512 1544.73C259.386 1542.6 256.502 1541.41 253.494 1541.41ZM335.737 1477.23C333.494 1477.23 331.302 1477.9 329.437 1479.14C327.572 1480.39 326.119 1482.16 325.261 1484.23C324.402 1486.31 324.178 1488.59 324.615 1490.79C325.053 1492.99 326.133 1495.01 327.719 1496.59C329.305 1498.18 331.325 1499.26 333.525 1499.7C335.725 1500.13 338.005 1499.91 340.077 1499.05C342.149 1498.19 343.92 1496.74 345.166 1494.87C346.412 1493.01 347.077 1490.82 347.077 1488.57C347.077 1485.57 345.882 1482.68 343.755 1480.56C341.629 1478.43 338.745 1477.23 335.737 1477.23ZM209.839 1510.67C207.596 1510.67 205.404 1511.34 203.539 1512.58C201.674 1513.83 200.221 1515.6 199.363 1517.67C198.504 1519.74 198.28 1522.02 198.717 1524.22C199.155 1526.42 200.235 1528.44 201.821 1530.03C203.407 1531.61 205.427 1532.69 207.627 1533.13C209.826 1533.57 212.106 1533.35 214.178 1532.49C216.25 1531.63 218.021 1530.18 219.267 1528.31C220.513 1526.45 221.179 1524.25 221.179 1522.01C221.179 1519 219.984 1516.12 217.857 1513.99C215.731 1511.87 212.846 1510.67 209.839 1510.67ZM342.757 1398.98C340.514 1398.98 338.322 1399.64 336.457 1400.89C334.592 1402.14 333.139 1403.91 332.28 1405.98C331.422 1408.05 331.198 1410.33 331.635 1412.53C332.073 1414.73 333.153 1416.75 334.739 1418.34C336.324 1419.92 338.345 1421 340.545 1421.44C342.744 1421.88 345.024 1421.65 347.096 1420.79C349.168 1419.94 350.939 1418.48 352.185 1416.62C353.431 1414.75 354.096 1412.56 354.096 1410.32C354.096 1407.31 352.902 1404.43 350.775 1402.3C348.649 1400.17 345.764 1398.98 342.757 1398.98ZM251.999 1475.41C249.756 1475.41 247.564 1476.07 245.699 1477.32C243.834 1478.56 242.381 1480.33 241.522 1482.41C240.664 1484.48 240.44 1486.76 240.877 1488.96C241.315 1491.16 242.395 1493.18 243.981 1494.76C245.566 1496.35 247.587 1497.43 249.787 1497.87C251.986 1498.31 254.266 1498.08 256.338 1497.22C258.41 1496.36 260.181 1494.91 261.427 1493.05C262.673 1491.18 263.338 1488.99 263.338 1486.75C263.339 1483.76 262.161 1480.89 260.061 1478.77C257.962 1476.65 255.109 1475.44 252.123 1475.41H251.999ZM166.018 1477.19C163.775 1477.19 161.582 1477.86 159.718 1479.1C157.853 1480.35 156.399 1482.12 155.541 1484.19C154.683 1486.26 154.458 1488.54 154.896 1490.74C155.333 1492.94 156.413 1494.96 157.999 1496.55C159.585 1498.14 161.606 1499.22 163.805 1499.65C166.005 1500.09 168.285 1499.87 170.357 1499.01C172.429 1498.15 174.2 1496.7 175.446 1494.83C176.692 1492.97 177.357 1490.77 177.357 1488.53C177.346 1485.55 176.164 1482.7 174.065 1480.58C171.967 1478.47 169.121 1477.27 166.142 1477.23L166.018 1477.19ZM298.645 1439.23C296.402 1439.23 294.21 1439.89 292.345 1441.14C290.48 1442.38 289.027 1444.16 288.168 1446.23C287.31 1448.3 287.085 1450.58 287.523 1452.78C287.961 1454.98 289.041 1457 290.626 1458.59C292.212 1460.17 294.233 1461.25 296.432 1461.69C298.632 1462.13 300.912 1461.9 302.984 1461.04C305.056 1460.19 306.827 1458.73 308.073 1456.87C309.319 1455 309.984 1452.81 309.984 1450.57C309.984 1447.58 308.807 1444.72 306.707 1442.59C304.607 1440.47 301.755 1439.26 298.769 1439.23H298.645ZM295.571 1512.54C293.326 1512.53 291.13 1513.19 289.26 1514.43C287.39 1515.67 285.93 1517.44 285.065 1519.51C284.2 1521.58 283.97 1523.86 284.403 1526.07C284.836 1528.27 285.912 1530.29 287.496 1531.88C289.081 1533.47 291.101 1534.56 293.302 1535C295.503 1535.44 297.785 1535.22 299.859 1534.36C301.934 1533.5 303.707 1532.05 304.955 1530.18C306.203 1528.32 306.869 1526.12 306.869 1523.88C306.869 1520.9 305.697 1518.04 303.607 1515.92C301.516 1513.8 298.674 1512.58 295.696 1512.54H295.571ZM204.19 1439.23C201.945 1439.22 199.749 1439.88 197.879 1441.12C196.008 1442.36 194.549 1444.13 193.684 1446.2C192.819 1448.27 192.589 1450.55 193.022 1452.75C193.454 1454.96 194.531 1456.98 196.115 1458.57C197.7 1460.16 199.72 1461.24 201.921 1461.69C204.122 1462.13 206.404 1461.9 208.478 1461.05C210.553 1460.19 212.326 1458.74 213.574 1456.87C214.822 1455.01 215.488 1452.81 215.488 1450.57C215.488 1447.6 214.322 1444.74 212.24 1442.62C210.159 1440.5 207.327 1439.28 204.356 1439.23H204.19Z" fill="#37474F"/>
<defs>
<linearGradient id="paint0_linear_576_3804" x1="787.212" y1="0" x2="787.212" y2="1581.43" gradientUnits="userSpaceOnUse">
<stop stop-color="#E6B0FF"/>
<stop offset="1" stop-color="#AD18F3"/>
</linearGradient>
</defs>
</svg>
