<svg width="501" height="451" viewBox="0 0 501 451" fill="none" xmlns="http://www.w3.org/2000/svg">
<path d="M213.327 229.983L372.734 229.983V219.559L213.327 219.559V229.983Z" fill="#D7E1FC"/>
<path d="M370.525 224.774H366.619V443.874H370.525V224.774Z" fill="#D7E1FC"/>
<path d="M361.841 192.118V209.192C361.841 211.013 360.356 212.498 358.534 212.498C356.72 212.498 355.228 211.013 355.228 209.192V192.118H361.841Z" fill="#D7E1FC"/>
<path d="M361.841 184.993H355.228V192.126H361.841V184.993Z" fill="#D7E1FC"/>
<path d="M347.868 184.993H341.263V192.126H347.868V184.993Z" fill="#D7E1FC"/>
<path d="M347.869 192.118V209.192C347.869 211.013 346.384 212.498 344.562 212.498C342.748 212.498 341.256 211.013 341.256 209.192V192.118H347.869Z" fill="#F75B37"/>
<path d="M333.904 184.993H327.291V192.126H333.904V184.993Z" fill="#D7E1FC"/>
<path d="M333.896 192.118V209.192C333.896 211.013 332.411 212.498 330.59 212.498C328.776 212.498 327.283 211.013 327.283 209.192V192.118H333.896Z" fill="#D7E1FC"/>
<path d="M319.931 184.993H313.318V192.126H319.931V184.993Z" fill="#D7E1FC"/>
<path d="M319.931 192.118V209.192C319.931 211.013 318.446 212.498 316.625 212.498C314.811 212.498 313.318 211.013 313.318 209.192V192.118H319.931Z" fill="#F75B37"/>
<path d="M305.952 184.993H299.347V192.126H305.952V184.993Z" fill="#D7E1FC"/>
<path d="M305.96 192.118V209.192C305.96 211.013 304.475 212.498 302.653 212.498C300.839 212.498 299.347 211.013 299.347 209.192V192.118H305.96Z" fill="#F75B37"/>
<path d="M291.987 192.118V209.192C291.987 211.013 290.502 212.498 288.681 212.498C286.866 212.498 285.374 211.013 285.374 209.192V192.118H291.987Z" fill="#D7E1FC"/>
<path d="M291.988 184.993H285.382V192.126H291.988V184.993Z" fill="#D7E1FC"/>
<path d="M278.014 184.994H271.408V192.127H278.014V184.994Z" fill="#D7E1FC"/>
<path d="M278.015 192.118V209.192C278.015 211.013 276.53 212.498 274.709 212.498C272.895 212.498 271.402 211.013 271.402 209.192V192.118H278.015Z" fill="#F75B37"/>
<path d="M267.318 190.848H368.02V188.558H267.318V190.848Z" fill="#6D72A0"/>
<path d="M364.88 219.669H368.011V188.557H364.88V219.669Z" fill="#6D72A0"/>
<path d="M265.748 219.669H268.879V188.557H265.748V219.669Z" fill="#6D72A0"/>
<path d="M426.531 311.022C427.658 316.991 430.525 322.419 432.215 328.235C434.475 336.003 434.585 344.27 436.026 352.251C439.669 372.485 451.798 391.153 450.554 411.709C440.876 383.933 431.191 356.157 421.513 328.374C417.57 317.057 413.576 304.789 416.699 293.194C419.026 284.577 425.075 277.35 426.699 268.557C427.906 262.024 426.582 255.009 428.908 248.82C429.238 247.942 429.677 247.05 430.437 246.56C431.908 245.609 444.058 223.407 444.9 224.994C449.23 233.18 434.241 270.722 431.761 278.74C428.565 289.098 424.439 299.946 426.531 311.022Z" fill="#4DB4E8"/>
<path d="M444.358 421.27C444.482 421.599 444.599 421.95 444.724 422.279C455.228 450.86 441.234 447.882 436.794 435.322C435.148 430.655 433.524 425.959 431.907 421.27H444.358Z" fill="#FF9985"/>
<path d="M403.634 224.159L405.207 221.233L438.688 220.392L439.091 220.64C439.237 220.662 439.376 220.677 439.522 220.692C443.524 221.167 446.121 225.205 444.921 229.119L443.67 233.215C417.672 303.881 419.735 303.998 433.326 347.289C444.168 381.81 448.498 393.156 453.743 418.877C454.519 422.673 451.754 426.711 448.235 426.901L432.339 427.772C428.732 427.969 425.602 425.738 424.351 422.073C404.036 362.637 391.249 344.254 390.832 317.312C390.335 284.729 394.46 252.206 403.634 224.159Z" fill="#4DB4E8"/>
<path d="M463.816 292.792C466.142 284.175 472.192 276.955 473.823 268.154C475.03 261.622 473.706 254.606 476.032 248.418C476.361 247.54 476.8 246.647 477.561 246.157C478.234 245.726 481.124 240.876 484.145 235.872V263.26C481.804 270.042 479.69 275.74 478.885 278.337C475.688 288.688 471.563 299.537 473.647 310.619C474.774 316.589 477.642 322.017 479.331 327.832C481.592 335.601 481.702 343.867 483.143 351.848C486.786 372.082 498.914 390.751 497.671 411.307C487.993 383.531 478.307 355.755 468.629 327.971C464.679 316.655 460.685 304.394 463.816 292.792Z" fill="#4DB4E8"/>
<path d="M491.629 421.27C491.702 421.467 491.775 421.679 491.848 421.877C502.353 450.457 488.359 447.48 483.918 434.92C482.316 430.384 480.744 425.827 479.171 421.27H491.629Z" fill="#FF9985"/>
<path d="M433.099 251.489C434.804 243.713 448.381 231.007 450.758 223.75L452.331 220.824L484.145 220.026V251.094C465.294 303.874 468.147 307.692 480.451 346.88C491.292 381.401 495.623 392.747 500.868 418.467C501.643 422.264 498.878 426.302 495.36 426.492L479.464 427.363C475.857 427.56 472.726 425.329 471.475 421.664C451.161 362.228 438.374 343.845 437.957 316.902C437.657 297.261 439.039 277.641 442.192 259.002C442.917 254.73 432.192 255.652 433.099 251.489Z" fill="#4DB4E8"/>
<path d="M479.142 428.665C479.31 428.665 479.478 428.658 479.646 428.651C480.253 428.614 480.722 428.073 480.685 427.429C480.656 426.792 480.144 426.266 479.529 426.332C476.457 426.485 473.721 424.569 472.631 421.394C465.44 400.34 459.149 384.342 454.094 371.489C444.957 348.234 439.442 334.203 439.178 317.012C438.827 294.364 440.151 275.184 443.224 258.359C443.319 257.846 443.077 257.334 442.638 257.108L435.85 253.509C435.316 253.216 434.65 253.443 434.372 254.021C434.101 254.591 434.314 255.286 434.862 255.579L440.912 258.79C437.92 275.564 436.633 294.635 436.976 317.056C437.247 334.686 442.821 348.878 452.06 372.382C457.108 385.22 463.384 401.189 470.553 422.191C471.921 426.171 475.257 428.665 479.142 428.665Z" fill="#2186C4"/>
<path d="M465.909 441.635L472.449 439.257C479.888 444.685 491.38 442.673 495.879 435.197C495.887 435.205 495.989 447.772 495.989 447.772C496.216 448.57 495.309 449.323 494.094 449.338L468.893 449.66C462.28 449.733 460.049 443.763 465.909 441.635Z" fill="#4DB4E8"/>
<path d="M472.448 439.258L489.346 433.113C490.254 432.784 494.24 432.813 495.908 435.154C491.38 442.674 479.888 444.678 472.448 439.258Z" fill="#FF9985"/>
<path d="M418.565 442.147L425.104 439.77C432.544 445.198 444.036 443.186 448.535 435.71C448.535 435.717 448.645 448.285 448.645 448.285C448.872 449.082 447.965 449.836 446.75 449.85L421.556 450.165C414.936 450.253 412.705 444.276 418.565 442.147Z" fill="#4DB4E8"/>
<path d="M425.104 439.77L442.003 433.625C442.91 433.296 446.897 433.325 448.565 435.666C444.036 443.186 432.544 445.191 425.104 439.77Z" fill="#FF9985"/>
<path d="M479.003 183.831C481.029 188.623 482.097 193.751 483.158 198.842C484.767 206.596 486.377 214.35 487.993 222.104C489.069 227.298 490.158 232.536 490.122 237.84C490.078 244.387 488.337 250.788 487.547 257.284C486.881 262.77 486.911 268.344 487.62 273.831C488.015 276.896 488.63 280.027 487.964 283.041C487.298 286.055 484.921 288.973 481.841 289.076C480.927 253.077 476.552 217.167 468.813 182.002C467.606 176.53 466.311 171 466.45 165.397C466.479 164.102 466.655 162.668 467.606 161.797C470.773 158.886 471.651 168.557 472.353 170.327C474.204 174.994 477.05 179.208 479.003 183.831Z" fill="white"/>
<path d="M358.22 106.94L386.457 134.672C387.108 135.316 388.213 135.06 388.52 134.197L401.102 98.791L402.119 98.7983L403.758 99.347L403.092 101.344L413.458 128.542L414.958 129.405L400.488 154.643C398.644 157.796 395.857 159.778 392.829 160.078C392.558 160.108 392.28 160.122 392.01 160.122C389.508 160.122 387.116 158.966 385.243 156.867L354.409 126.172C349.208 120.993 350.064 112.332 356.187 108.279L358.22 106.94Z" fill="#FBE9DC"/>
<path d="M408.572 168.74C408.908 166.969 409.201 165.177 409.471 163.385C411.081 155.711 412.207 147.942 412.346 140.005C412.5 138.374 412.222 134.658 411.724 132.573L410.144 123.934L401.037 98.8129C411.907 79.0764 425.082 74.3361 433.217 72.0756L444.643 71.5563C447.92 71.41 451.227 71.7757 454.336 72.8218C455.506 73.2168 456.64 73.6484 457.745 74.102C461.366 75.4114 464.65 77.3499 467.554 79.5372C468.023 79.881 475.001 84.9212 475.001 84.9212C475.001 84.9212 478.696 95.7698 478.674 96.1648L477.211 126.882C477.211 126.882 470.766 145.214 469.793 155.06C467.086 182.353 486.238 195.411 485.945 224.401L486.406 284.123C486.428 287.115 484.014 289.544 481.029 289.544H456.838C453.143 289.544 450.144 286.544 450.144 282.843L450.115 251.526L419.625 251.497L415.565 283.172C415.484 285.03 413.414 289.551 408.967 288.578C408.967 288.578 392.076 285.915 392.039 283.172L399.998 224.943C399.925 213.531 402.61 208.015 403.919 199.785C405.755 188.22 406.655 178.878 408.572 168.74Z" fill="#FBE9DC"/>
<path d="M392.046 284.013C392.009 284.013 391.965 284.013 391.929 284.006C391.453 283.94 391.124 283.501 391.19 283.033C391.292 282.287 401.344 208.198 402.638 200.063C403.392 195.309 403.992 190.934 404.562 186.706C405.382 180.678 406.157 174.994 407.284 169.01C407.62 167.247 407.913 165.47 408.176 163.692C409.983 155.067 410.919 147.474 411.044 140.422C411.19 138.857 410.941 135.265 410.444 133.202L406.201 108.842C406.12 108.367 406.435 107.92 406.903 107.84C407.364 107.745 407.825 108.067 407.905 108.542L412.134 132.851C412.616 134.863 412.938 138.688 412.763 140.517C412.638 147.613 411.695 155.316 409.866 163.999C409.603 165.755 409.31 167.554 408.973 169.339C407.854 175.272 407.079 180.941 406.267 186.947C405.689 191.183 405.096 195.572 404.336 200.341C403.041 208.461 392.99 282.528 392.887 283.275C392.843 283.699 392.47 284.013 392.046 284.013Z" fill="#F9C29D"/>
<path d="M427.869 73.9194C427.869 73.8828 440.327 68.6963 440.356 68.6963L454.248 72.8367C454.292 72.8367 454.255 73.8974 454.248 73.9413L450.056 251.475H419.632L427.869 73.9194Z" fill="#2186C4"/>
<path d="M452.12 156.67C452.054 156.67 451.996 156.663 451.93 156.648C451.462 156.538 451.169 156.077 451.271 155.609L463.144 102.822C463.349 101.93 462.969 100.993 462.2 100.496L459.479 98.7184C458.916 98.3527 458.557 97.7309 458.528 97.0579C458.492 96.3849 458.791 95.7338 459.311 95.3095L464.578 91.0886C464.951 90.7887 465.031 90.2474 464.746 89.8596L454.117 73.6417C453.854 73.2394 453.963 72.7054 454.366 72.442C454.761 72.1787 455.302 72.2884 455.565 72.6907L466.18 88.8794C466.977 89.9913 466.75 91.5714 465.661 92.4419L460.394 96.6628C460.262 96.7653 460.255 96.8969 460.255 96.9701C460.255 97.0432 460.284 97.1749 460.423 97.2627L463.144 99.0403C464.512 99.9328 465.192 101.608 464.834 103.203L452.961 155.99C452.881 156.399 452.522 156.67 452.12 156.67Z" fill="#F9C29D"/>
<path d="M423.136 150.224C422.711 150.224 422.338 149.91 422.28 149.471L415.572 99.0905C415.367 97.5762 415.952 96.0693 417.049 95.2573L419.185 93.6772C419.229 93.6406 419.288 93.5455 419.302 93.4065C419.317 93.2675 419.28 93.1359 419.222 93.0627L415.425 88.8711C414.635 87.9932 414.533 86.5594 415.191 85.528L425.542 73.9918C425.864 73.6407 426.413 73.6041 426.771 73.926C427.13 74.2479 427.159 74.7965 426.837 75.155L416.574 86.5741C416.428 86.8301 416.449 87.408 416.72 87.708L420.517 91.8923C420.912 92.3312 421.102 92.9384 421.043 93.5675C420.985 94.182 420.685 94.7306 420.231 95.0671L418.095 96.6472C417.518 97.0788 417.188 97.9859 417.305 98.8564L424.013 149.237C424.079 149.712 423.743 150.151 423.267 150.21C423.209 150.224 423.172 150.224 423.136 150.224Z" fill="#F9C29D"/>
<path d="M403.853 29.947C406.67 20.3348 416.772 13.2097 429.537 10.4226C429.596 10.2982 429.603 10.1812 429.669 10.0568C431.161 7.05024 433.978 5.14096 437.277 3.79495C443.334 1.32971 447.672 5.03123 453.005 3.60475C455.046 3.05611 456.377 1.14683 458.345 0.37141C460.883 -0.630781 463.678 0.546977 465.631 2.09781C467.584 3.64865 469.215 5.61645 471.615 6.58207C473.67 7.40138 476.084 7.38675 478.213 8.05244C480.349 8.71812 482.324 10.5469 481.71 12.5952C481.417 13.5681 480.591 14.3875 480.298 15.3531C479.479 18.0817 482.895 19.8154 484.914 21.7832C487.174 23.9851 487.847 27.4379 486.596 30.4152C485.697 32.5586 483.868 34.7531 484.621 36.838C485.221 38.4766 487.328 39.4715 487.386 41.2345C487.467 43.8167 483.334 45.0091 482.149 47.4451C481.315 49.1569 482.134 51.015 482.339 52.8072C482.719 56.1576 480.678 59.7933 477.372 61.6367C475.602 62.6243 473.48 63.1656 472.112 64.5848C470.349 66.4209 470.298 69.2812 468.257 70.8686C464.014 74.1605 460.21 69.8079 455.506 68.7472C449.588 67.4085 441.856 71.5855 437.511 67.8693C436.494 66.9988 435.748 65.726 434.358 65.4333C432.939 65.1334 431.403 65.9966 429.947 65.8357C427.218 65.5431 426.458 62.1707 424.512 60.6711C424.285 60.576 423.034 59.9689 422.822 59.9542C408.623 53.429 400.452 41.549 403.853 29.947Z" fill="#000543"/>
<path d="M444.482 48.8211C444.226 51.4545 443.597 53.7515 442.602 55.6023C437.891 52.6396 437.065 48.0237 437.065 48.0237C437.928 46.9922 438.22 44.9879 437.694 42.8664C436.991 40.0501 435.126 38.0969 433.517 38.5065C433.392 38.5358 433.312 38.6528 433.202 38.7187L441.666 26.29C444.16 30.9499 445.514 38.0457 444.482 48.8211Z" fill="#000543"/>
<path d="M409.23 26.1875C406.407 29.8378 405.163 34.6513 406.363 39.4428L409.399 51.6007C411.476 59.9035 419.984 64.995 428.308 62.9101C436.633 60.8253 441.747 52.3249 439.669 44.0221L436.728 32.2665L409.23 26.1875Z" fill="#FF9985"/>
<path d="M446.428 80.4739L437.65 82.6758C436.443 82.9757 435.133 81.9442 434.746 80.3861L427.408 51.0592C427.021 49.4937 427.686 47.9722 428.893 47.6649L437.672 45.463C438.879 45.1631 440.188 46.1945 440.576 47.7527L447.906 77.0723C448.308 78.645 447.635 80.1739 446.428 80.4739Z" fill="#FF9985"/>
<path d="M420.321 34.5855L424.007 33.6784C424.549 33.5467 425.097 33.8759 425.229 34.4172C425.361 34.9586 425.032 35.5072 424.49 35.6389L420.803 36.546C420.262 36.6777 419.713 36.3485 419.582 35.8071C419.45 35.2658 419.779 34.7172 420.321 34.5855Z" fill="#000543"/>
<path d="M406.838 37.8916L409.699 37.1894C410.116 37.0869 410.569 37.4454 410.701 37.9794C410.832 38.5207 410.598 39.0401 410.181 39.1425L407.321 39.8448C406.904 39.9472 406.451 39.5888 406.319 39.0548C406.187 38.5207 406.421 37.994 406.838 37.8916Z" fill="#000543"/>
<path d="M414.738 48.419L414.775 48.0605C415.046 48.7848 415.638 49.348 416.37 49.3992L418.147 49.5309C418.762 49.5748 419.201 49.1505 419.384 48.5872L419.464 48.7628C419.947 49.8382 419.296 51.0306 418.272 50.9501L416.494 50.8184C415.433 50.7453 414.607 49.6114 414.738 48.419Z" fill="#FA694F"/>
<path d="M422.412 40.7221C422.638 41.6585 423.319 42.2949 423.926 42.1486C424.533 42.0023 424.84 41.1172 424.613 40.1808C424.387 39.2445 423.706 38.608 423.099 38.7543C422.492 38.9006 422.185 39.7858 422.412 40.7221Z" fill="#000543"/>
<path d="M423.099 38.7539L421.227 39.2148L422.66 40.0853L423.099 38.7539Z" fill="#000543"/>
<path d="M409.179 43.9633C409.406 44.8997 410.086 45.5361 410.693 45.3898C411.301 45.2435 411.608 44.3584 411.381 43.422C411.154 42.4857 410.474 41.8492 409.867 41.9955C409.26 42.1492 408.952 43.027 409.179 43.9633Z" fill="#000543"/>
<path d="M409.867 42.0039L407.994 42.4575L409.428 43.3353L409.867 42.0039Z" fill="#000543"/>
<path d="M437.811 37.7384C440.173 37.1459 442.668 38.9747 443.377 41.8276C444.087 44.6806 442.748 47.4677 440.385 48.0602C438.023 48.6528 435.528 46.824 434.819 43.971C434.109 41.1181 435.44 38.3309 437.811 37.7384Z" fill="#FF9985"/>
<path d="M438.733 25.7778C436.158 22.6762 434.57 18.3528 430.861 16.8239C428.564 15.8803 425.953 16.2753 423.59 16.9995C420.744 17.8627 418.052 19.1721 415.375 20.4743C413.429 21.4179 411.483 22.3616 409.537 23.3126C409.311 23.4223 409.084 23.5394 408.93 23.7369C408.762 23.9563 408.725 24.2489 408.696 24.5269C408.572 25.6023 407.745 28.3382 408.264 29.3038C408.85 30.3791 410.313 30.0646 411.293 29.889C421.366 28.1041 428.564 32.4347 431.556 35.2145C434.021 37.5042 435.777 40.4961 438.294 42.7273C439.925 44.1757 441.863 45.2657 443.934 45.9167C444.021 45.946 444.109 45.9606 444.197 45.9826L446.428 32.186C443.773 30.1523 440.861 28.3528 438.733 25.7778Z" fill="#000543"/>
<path d="M422.837 52.7715C422.961 53.8395 423.093 54.9002 420.921 55.7561C420.921 55.7561 418.47 57.1094 417.051 54.6881L422.837 52.7715Z" fill="white"/>
<path d="M447.35 70.7217C447.35 70.7217 442.902 81.1532 437.401 82.47L440.496 95.0303C440.496 95.0303 452.412 87.4371 451.615 72.0019L447.35 70.7217Z" fill="#FBE9DC"/>
<path d="M432.763 71.7979C432.763 71.7979 433.48 79.713 437.679 82.6318L433.341 93.7217C433.341 93.7217 427.394 84.8044 428.176 73.7144L432.763 71.7979Z" fill="#FBE9DC"/>
<path d="M486.639 110.005C486.032 114.358 483.684 118.264 482.623 122.529C481.504 126.999 481.826 131.754 480.516 136.165C479.258 140.408 476.559 144.095 475.176 148.301C474.137 151.468 473.874 154.841 472.872 158.023C471.877 161.205 469.902 164.358 466.764 165.47C468.527 164.841 470.751 150.547 471.314 148.345C472.835 142.39 474.306 136.428 475.725 130.452C477.137 124.475 478.497 118.484 479.807 112.478C480.531 109.157 481.16 97.6792 484.02 96.1064C486.215 99.9543 487.254 105.609 486.639 110.005Z" fill="white"/>
<path d="M364.475 103.985L358.711 130.123C358.367 131.681 356.816 132.668 355.265 132.325C353.714 131.981 352.719 130.43 353.063 128.872L358.828 102.734L364.475 103.985Z" fill="#D7E1FC"/>
<path d="M358.404 103.32L364.732 104.717C364.827 104.739 364.922 104.68 364.944 104.578L365.112 103.802C365.134 103.707 365.076 103.612 364.973 103.59L358.645 102.193C358.55 102.171 358.455 102.23 358.433 102.332L358.265 103.107C358.243 103.203 358.309 103.298 358.404 103.32Z" fill="#D7E1FC"/>
<path d="M352.252 116.588C352.325 117.437 353.078 118.117 353.927 118.117L361.213 118.066C362.054 118.059 362.683 117.364 362.61 116.515C362.537 115.667 361.784 114.986 360.935 114.986L353.649 115.038C352.808 115.045 352.179 115.74 352.252 116.588Z" fill="#FF9985"/>
<path d="M351.527 113.561C351.6 114.409 352.354 115.089 353.202 115.089L363.144 115.016C363.985 115.009 364.614 114.314 364.541 113.465C364.468 112.617 363.714 111.937 362.866 111.937L352.924 112.01C352.083 112.024 351.454 112.719 351.527 113.561Z" fill="#FF9985"/>
<path d="M351.147 107.584C351.22 108.433 351.973 109.113 352.822 109.113L362.763 109.04C363.604 109.032 364.234 108.337 364.16 107.489C364.087 106.64 363.334 105.96 362.485 105.96L352.544 106.033C351.695 106.04 351.066 106.735 351.147 107.584Z" fill="#FF9985"/>
<path d="M351.417 110.641C351.49 111.49 352.244 112.17 353.092 112.17L363.963 112.089C364.804 112.082 365.433 111.387 365.36 110.539C365.287 109.69 364.533 109.01 363.685 109.01L352.814 109.09C351.966 109.098 351.337 109.792 351.417 110.641Z" fill="#FF9985"/>
<path d="M399.589 110.847C399.713 110.043 399.464 109.238 399.216 108.463C398.265 105.478 398.228 105.361 396.37 99.699C396.224 99.2528 395.653 99.1211 395.324 99.4503C394.709 100.065 394.227 101.125 394.644 102.318C394.943 103.181 395.997 105.888 396.085 106.78C396.187 107.863 396.107 109.004 395.587 109.948L399.113 112.091C399.347 111.711 399.523 111.301 399.589 110.847Z" fill="#FF9985"/>
<path d="M399.113 110.533C398.989 109.582 398.448 108.74 397.914 107.936C395.865 104.841 395.785 104.724 391.842 98.8867C391.527 98.4258 390.84 98.4551 390.576 98.9452C390.079 99.8377 389.874 101.198 390.73 102.427C391.352 103.312 393.422 106.056 393.81 107.036C394.278 108.228 394.556 109.56 394.271 110.796L398.967 112.098C399.113 111.593 399.179 111.074 399.113 110.533Z" fill="#FF9985"/>
<path d="M398.66 108.916C398.199 108.075 397.387 107.489 396.597 106.933C393.561 104.797 393.444 104.71 387.643 100.708C387.182 100.394 386.561 100.672 386.487 101.22C386.356 102.237 386.656 103.583 387.907 104.41C388.806 105.01 391.74 106.809 392.457 107.585C393.327 108.528 394.073 109.669 394.256 110.928L399.099 110.43C399.04 109.903 398.916 109.391 398.66 108.916Z" fill="#FF9985"/>
<path d="M397.16 107.379C398.601 108.206 399.142 109.976 400.071 111.351C400.847 112.507 404.409 120.781 405.338 122.463C404.27 123.443 403.173 124.438 401.856 125.053C398.586 126.574 394.446 124.445 392.939 121.351C392.712 120.89 392.522 120.385 392.112 120.078C392.068 120.049 393.034 116.355 393.034 116.355C393.568 116.267 394.065 116.069 394.475 115.726C395.565 114.782 395.558 112.982 394.76 111.783C393.963 110.583 392.58 109.888 391.19 109.493C390.174 109.208 386.735 109.2 385.66 109.157C384.16 109.098 383.195 108.11 382.778 107.174C382.551 106.669 382.939 106.099 383.495 106.128C384.892 106.209 386.018 106.267 386.955 106.318C386.984 106.801 386.713 107.291 386.275 107.54C385.492 107.928 384.592 107.496 383.751 107.481C384.592 107.503 385.492 107.928 386.275 107.54C386.713 107.291 386.984 106.801 386.955 106.318C390.73 106.53 391.41 106.574 394.373 106.764C395.324 106.823 396.318 106.896 397.16 107.379Z" fill="#FF9985"/>
<path d="M397.476 125.214L404.052 119.801L413.606 122.376L411.85 131.41L397.476 125.214Z" fill="#FF9985"/>
<path d="M386.897 106.062L383.48 106.121L386.941 106.34C386.941 106.245 386.926 106.15 386.897 106.062Z" fill="#FFB288"/>
<path d="M391.726 106.231C390.804 106.078 389.875 106.012 388.946 106.026L386.897 106.063C386.927 106.151 386.941 106.246 386.941 106.341L395.676 106.89L391.726 106.231Z" fill="#FF9985"/>
<path d="M379.984 108.96C379.815 109.363 379.355 109.546 378.952 109.37L365.799 103.752C365.265 103.525 364.453 102.845 364.058 102.172C363.817 101.769 363.451 101.455 363.02 101.272L362.698 101.133C362.529 101.06 362.42 100.892 362.449 100.709C362.486 100.438 362.764 100.299 362.998 100.394L363.349 100.54C363.78 100.723 364.256 100.775 364.709 100.672C365.463 100.497 366.516 100.614 367.043 100.84L380.196 106.459C380.598 106.627 380.781 107.095 380.613 107.49L379.984 108.96Z" fill="#D7E1FC"/>
<path d="M371.279 103.196L370.423 105.193L366.473 103.504C366.473 103.496 365.917 103.255 365.917 103.255C365.551 103.101 364.995 102.633 364.725 102.172C364.564 101.894 364.308 101.682 364.015 101.55L363.796 101.455C363.679 101.404 363.605 101.287 363.62 101.163C363.649 100.98 363.839 100.877 364 100.951L364.242 101.053C364.534 101.177 364.864 101.214 365.178 101.141C365.698 101.024 366.414 101.104 366.78 101.258L369.406 102.377C369.392 102.392 371.279 103.196 371.279 103.196Z" fill="#F75B37"/>
<path d="M380.211 106.378L378.938 109.363C378.829 109.626 378.953 109.934 379.216 110.043C379.48 110.153 379.787 110.036 379.897 109.773L381.169 106.788C381.279 106.525 381.155 106.217 380.891 106.108C380.628 105.991 380.321 106.115 380.211 106.378Z" fill="#443C60"/>
<path d="M381.118 106.897L389.64 110.54C390.277 110.811 390.526 111.674 390.196 112.45C389.867 113.225 389.07 113.642 388.433 113.371L379.911 109.728L381.118 106.897Z" fill="#554E7A"/>
<path d="M390.144 118.228C388.952 116.707 387.76 115.178 386.575 113.656C386.311 113.32 386.033 112.947 386.216 112.449C386.333 112.135 386.597 111.893 386.918 111.783C387.555 111.564 388.213 111.798 388.791 112.098C389.552 112.5 390.239 113.034 390.817 113.671C391.498 114.417 392.017 115.302 392.705 116.041C393.027 116.392 393.4 116.707 393.809 116.948L393.268 121.93C392.851 121.505 390.364 118.514 390.144 118.228Z" fill="#FF9985"/>
<path d="M401.893 128.41L406.655 118.74C407.248 117.533 408.718 117.057 409.91 117.679L450.832 139.259C452.244 140.005 453.985 139.274 454.446 137.752L464.504 104.577L473.151 83.5459L474.863 84.6139C488.762 93.3045 485.009 107.664 484.972 107.803L470.488 161.717L470.4 161.966C469.427 164.167 467.562 165.865 465.28 166.618C464.409 166.903 463.509 167.05 462.617 167.05C461.146 167.05 459.683 166.669 458.367 165.923L403.268 133.063C401.666 132.112 401.066 130.086 401.893 128.41Z" fill="#FBE9DC"/>
<path d="M462.902 167.913C461.271 167.913 459.654 167.481 458.228 166.669L403.115 133.809C401.139 132.631 400.393 130.093 401.403 128.03L406.165 118.359C406.553 117.562 407.233 116.977 408.074 116.699C408.916 116.428 409.815 116.501 410.598 116.918L451.52 138.498C451.959 138.732 452.478 138.754 452.946 138.564C453.407 138.374 453.758 137.986 453.904 137.503L463.963 104.329C464.102 103.868 464.577 103.612 465.046 103.751C465.499 103.89 465.763 104.372 465.624 104.833L455.565 138.008C455.272 138.981 454.563 139.771 453.619 140.166C452.676 140.561 451.622 140.517 450.722 140.034L409.801 118.454C409.435 118.264 409.018 118.228 408.623 118.352C408.228 118.484 407.913 118.754 407.731 119.127L402.961 128.798C402.347 130.056 402.8 131.607 404 132.324L459.098 165.177C460.956 166.23 463.253 166.472 465.294 165.799C467.306 165.133 468.974 163.641 469.852 161.709C470.057 161.271 470.569 161.088 471 161.278C471.432 161.475 471.629 161.995 471.432 162.426C470.349 164.797 468.308 166.618 465.843 167.437C464.892 167.752 463.897 167.913 462.902 167.913Z" fill="#F9C29D"/>
<path d="M98.5652 301.329L61.8133 112.339C60.1966 103.934 65.2222 97.0576 72.991 97.0576H149.582C157.343 97.0576 165.024 103.934 166.641 112.339L207.292 299.442L98.5652 301.329Z" fill="#F9C29D"/>
<path d="M128.479 299.442L92.1219 112.339C90.5052 103.934 95.5308 97.0576 103.3 97.0576H179.89C187.652 97.0576 195.333 103.934 196.95 112.339L237.6 299.442H128.479Z" fill="#FBE9DC"/>
<path d="M108.748 115.398H181.374L174.937 85.7566C173.686 79.2752 167.768 73.9717 161.777 73.9717H102.713C96.7222 73.9717 92.8451 79.2752 94.096 85.7566L98.1633 106.671C99.1508 111.74 103.584 115.398 108.748 115.398Z" fill="#F9C29D"/>
<path d="M121.997 115.398H181.002C187.205 115.398 191.821 109.67 190.504 103.613L186.627 85.7566C185.376 79.2752 179.458 73.9717 173.467 73.9717H114.404C108.413 73.9717 104.535 79.2752 105.786 85.7566L109.554 105.135C110.71 111.097 115.925 115.398 121.997 115.398Z" fill="#FBE9DC"/>
<path d="M188.624 443.874H99.868C95.3545 443.874 92.1065 440.07 92.6113 435.381L105.515 315.265H194.432L188.624 443.874Z" fill="#52587F"/>
<path d="M267.293 443.875H175.706C171.287 443.875 168.054 440.554 168.5 436.45L181.521 315.258H289.326L276.327 436.26C275.866 440.466 271.828 443.875 267.293 443.875Z" fill="#6D72A0"/>
<path d="M194.982 301.306C194.616 301.306 194.243 301.255 193.87 301.153C191.917 300.611 190.834 298.783 191.441 297.064L212.868 236.961C214.996 230.985 221.214 226.969 228.325 226.969H295.003C297.052 226.969 298.705 228.432 298.705 230.231C298.705 232.031 297.044 233.494 295.003 233.494H228.332C224.47 233.494 221.097 235.674 219.941 238.915L198.515 299.017C198.018 300.414 196.555 301.306 194.982 301.306Z" fill="#6D72A0"/>
<path d="M334.922 438.987H259.362C255.419 438.987 252.193 435.761 252.193 431.818C252.193 427.875 255.419 424.649 259.362 424.649H334.922C338.865 424.649 342.091 427.875 342.091 431.818C342.083 435.761 338.865 438.987 334.922 438.987Z" fill="#FBE9DC"/>
<path d="M312.157 424.657L278.419 312.763C276.1 304.467 268.514 297.679 261.55 297.679H192.867C185.903 297.679 182.099 304.467 184.418 312.763L212.925 414.313C214.644 420.429 220.219 424.657 226.576 424.657H312.157Z" fill="#F9C29D"/>
<path d="M248.865 424.657H333.81L300.072 312.763C297.753 304.467 290.167 297.679 283.203 297.679H214.52C207.556 297.679 203.752 304.467 206.071 312.763L234.403 413.699C236.224 420.173 242.135 424.657 248.865 424.657Z" fill="#FBE9DC"/>
<path d="M270.592 303.867C270.577 300.012 265.091 296.889 258.332 296.889H249.392H116.942H98.5664V306.998C98.5664 314.087 101.975 319.273 117.14 319.273H125.896H239.583H244.594C253.555 319.273 270.643 312.894 270.607 305.053L270.592 303.867Z" fill="#F9C29D"/>
<path d="M306.326 296.566H286.048H238.909H200.884L208.119 320.034L238.909 319.609H286.048H305.009C314.175 319.609 315.404 313.699 315.404 306.398V303.801C315.397 299.375 310.942 296.566 306.326 296.566Z" fill="#FBE9DC"/>
<path d="M204.725 153.788C204.755 153.86 204.733 153.817 204.711 153.78C204.711 153.78 204.718 153.78 204.725 153.788Z" fill="white"/>
<path d="M261.096 438.987H230.072C226.129 438.987 222.903 435.761 222.903 431.818C222.903 427.875 226.129 424.649 230.072 424.649H261.096C265.039 424.649 268.265 427.875 268.265 431.818C268.258 435.761 265.039 438.987 261.096 438.987Z" fill="#F9C29D"/>
<path d="M99.6196 436.179C98.8588 436.179 98.3102 435.557 98.4052 434.796L99.4294 426.654C99.5245 425.893 100.227 425.271 100.988 425.271C101.748 425.271 102.297 425.893 102.202 426.654L101.178 434.796C101.083 435.557 100.38 436.179 99.6196 436.179Z" fill="#6D72A0"/>
<path d="M105.419 436.179C104.659 436.179 104.11 435.557 104.205 434.796L105.229 426.654C105.324 425.893 106.027 425.271 106.787 425.271C107.548 425.271 108.097 425.893 108.002 426.654L106.978 434.796C106.882 435.557 106.187 436.179 105.419 436.179Z" fill="#6D72A0"/>
<path d="M111.228 436.179C110.467 436.179 109.919 435.557 110.014 434.796L111.038 426.654C111.133 425.893 111.835 425.271 112.596 425.271C113.357 425.271 113.905 425.893 113.81 426.654L112.786 434.796C112.691 435.557 111.989 436.179 111.228 436.179Z" fill="#6D72A0"/>
<path d="M117.037 436.179C116.276 436.179 115.727 435.557 115.822 434.796L116.846 426.654C116.941 425.893 117.644 425.271 118.405 425.271C119.165 425.271 119.714 425.893 119.619 426.654L118.595 434.796C118.5 435.557 117.797 436.179 117.037 436.179Z" fill="#6D72A0"/>
<path d="M122.837 436.179C122.077 436.179 121.528 435.557 121.623 434.796L122.647 426.654C122.742 425.893 123.445 425.271 124.205 425.271C124.966 425.271 125.515 425.893 125.42 426.654L124.396 434.796C124.3 435.557 123.605 436.179 122.837 436.179Z" fill="#6D72A0"/>
<path d="M128.646 436.179C127.885 436.179 127.337 435.557 127.432 434.796L128.456 426.654C128.551 425.893 129.253 425.271 130.014 425.271C130.775 425.271 131.323 425.893 131.228 426.654L130.204 434.796C130.109 435.557 129.407 436.179 128.646 436.179Z" fill="#6D72A0"/>
<path d="M134.455 436.179C133.694 436.179 133.145 435.557 133.24 434.796L134.264 426.654C134.359 425.893 135.062 425.271 135.822 425.271C136.583 425.271 137.132 425.893 137.037 426.654L136.013 434.796C135.918 435.557 135.215 436.179 134.455 436.179Z" fill="#6D72A0"/>
<path d="M140.262 436.179C139.501 436.179 138.953 435.557 139.048 434.796L140.072 426.654C140.167 425.893 140.869 425.271 141.63 425.271C142.391 425.271 142.94 425.893 142.844 426.654L141.82 434.796C141.718 435.557 141.023 436.179 140.262 436.179Z" fill="#6D72A0"/>
<path d="M146.064 436.179C145.303 436.179 144.754 435.557 144.85 434.796L145.874 426.654C145.969 425.893 146.671 425.271 147.432 425.271C148.193 425.271 148.741 425.893 148.646 426.654L147.622 434.796C147.527 435.557 146.825 436.179 146.064 436.179Z" fill="#6D72A0"/>
<path d="M151.872 436.179C151.111 436.179 150.562 435.557 150.657 434.796L151.681 426.654C151.776 425.893 152.479 425.271 153.239 425.271C154 425.271 154.549 425.893 154.454 426.654L153.43 434.796C153.335 435.557 152.632 436.179 151.872 436.179Z" fill="#6D72A0"/>
<path d="M157.68 436.179C156.919 436.179 156.371 435.557 156.466 434.796L157.49 426.654C157.585 425.893 158.287 425.271 159.048 425.271C159.809 425.271 160.358 425.893 160.262 426.654L159.238 434.796C159.136 435.557 158.441 436.179 157.68 436.179Z" fill="#6D72A0"/>
<path d="M163.481 436.179C162.72 436.179 162.172 435.557 162.274 434.796L163.298 426.654C163.393 425.893 164.096 425.271 164.856 425.271C165.617 425.271 166.166 425.893 166.063 426.654L165.039 434.796C164.944 435.557 164.242 436.179 163.481 436.179Z" fill="#6D72A0"/>
<path d="M129.137 329.14H114.887C113.519 329.14 112.399 328.021 112.399 326.653C112.399 325.285 113.519 324.166 114.887 324.166H129.137C130.505 324.166 131.624 325.285 131.624 326.653C131.624 328.021 130.505 329.14 129.137 329.14Z" fill="#88DCE5"/>
<path d="M141.016 329.14H136.883C135.515 329.14 134.396 328.021 134.396 326.653C134.396 325.285 135.515 324.166 136.883 324.166H141.016C142.384 324.166 143.503 325.285 143.503 326.653C143.496 328.021 142.384 329.14 141.016 329.14Z" fill="#000543"/>
<path d="M165.143 278.747C165.516 278.893 165.925 279.025 166.313 279.157C165.574 278.893 165.143 278.747 165.143 278.747Z" fill="#FFB288"/>
<path d="M164.264 278.665C164.629 278.811 165.032 278.936 165.412 279.06C164.695 278.811 164.264 278.665 164.264 278.665Z" fill="#FFB288"/>
<path d="M287.278 227.957H219.685C218.946 227.957 218.339 227.35 218.339 226.611V219.932C218.339 219.193 218.946 218.586 219.685 218.586H287.278C288.017 218.586 288.624 219.193 288.624 219.932V226.611C288.624 227.35 288.017 227.957 287.278 227.957Z" fill="#F9C29D"/>
<path d="M207.19 231.358C205.727 231.358 204.534 230.165 204.534 228.702C204.534 227.239 205.727 226.047 207.19 226.047C208.653 226.047 209.845 227.239 209.845 228.702C209.845 230.165 208.653 231.358 207.19 231.358ZM207.19 227.612C206.59 227.612 206.1 228.102 206.1 228.702C206.1 229.302 206.59 229.792 207.19 229.792C207.789 229.792 208.28 229.302 208.28 228.702C208.28 228.095 207.789 227.612 207.19 227.612Z" fill="#52587F"/>
<path d="M216.993 222.273H239.992C240.3 222.273 240.548 222.024 240.548 221.717C240.548 221.409 240.3 221.161 239.992 221.161H216.993C214.747 221.161 212.897 219.332 212.86 217.093L212.758 210.02C212.721 207.584 214.521 205.55 216.942 205.287L242.626 202.485C242.926 202.456 243.145 202.178 243.116 201.878C243.087 201.578 242.86 201.3 242.509 201.388L216.825 204.189C213.833 204.518 211.609 207.028 211.653 210.034L211.755 217.101C211.799 219.954 214.147 222.273 216.993 222.273Z" fill="#353B54"/>
<path d="M271.645 399.631C267.709 424.869 281.667 424.174 283.203 413.076C283.825 408.614 284.403 404.122 284.973 399.631H271.645Z" fill="#FF9985"/>
<path d="M292.391 344.189C289.984 327.62 288.389 308.33 281.82 291.49C273.949 271.307 250.335 264.987 230.716 263.685C211.469 262.405 186.89 262.2 160.299 261.373C160.299 261.373 158.434 267.028 160.285 275.499C163.225 288.959 175.456 298.352 189.238 298.476C210.109 298.666 233.445 298.044 245.515 298.11C245.961 300.766 248.573 301.709 249.311 305.879C250.014 309.837 249.962 313.941 252.728 317.737C253.825 319.244 255.31 320.612 256.224 322.163C257.343 324.05 257.497 326.003 257.541 327.861C257.782 337.423 255.844 346.706 259.267 356.632C260.811 361.102 263.408 365.564 264.498 370.012C267.241 381.234 260.27 391.548 267.087 402.506C267.57 403.282 268.536 404.182 269.341 404.247C269.341 404.313 285.822 404.313 285.822 404.313C288.28 404.313 289.999 402.967 290.174 400.926C291.74 382.631 295.054 362.543 292.391 344.189Z" fill="#000543"/>
<path d="M285.996 412.133L301.132 416.727C304.833 417.853 305.535 420.165 304.065 421.884L268.988 421.153L270.393 414.262C270.642 413.033 271.849 412.133 273.253 412.133H285.996Z" fill="#6D72A0"/>
<path d="M268.989 421.146L268.601 422.316C268.36 423.04 269.34 423.72 270.649 423.735L297.906 423.998C300.883 424.028 303.019 423.106 304.066 421.884L268.989 421.146Z" fill="#000543"/>
<path d="M272.771 420.414H279.07C279.216 420.414 279.333 420.297 279.333 420.151V418.483C279.333 418.337 279.216 418.22 279.07 418.22H272.771C272.625 418.22 272.508 418.337 272.508 418.483V420.151C272.508 420.297 272.632 420.414 272.771 420.414Z" fill="#000543"/>
<path d="M314.673 399.63C310.737 424.868 324.695 424.173 326.231 413.075C326.853 408.613 327.431 404.121 328.001 399.63H314.673Z" fill="#FF9985"/>
<path d="M335.42 344.188C333.013 327.619 331.418 308.329 324.849 291.489C316.978 271.306 293.364 264.986 273.745 263.684C254.498 262.404 224.198 262.031 197.607 261.204V284.05C199.202 284.628 200.212 285.001 197.739 284.167C203.54 286.127 208.397 288.234 212.801 292.733C213.321 293.267 213.825 293.837 214.316 294.43C237.871 295.374 273.196 298.022 288.543 298.11C288.99 300.765 291.601 301.709 292.34 305.878C293.042 309.836 292.991 313.94 295.756 317.736C296.854 319.243 298.339 320.611 299.253 322.162C300.372 324.05 300.526 326.003 300.57 327.861C300.811 337.422 298.873 346.705 302.296 356.632C303.84 361.101 306.437 365.564 307.527 370.011C310.27 381.233 303.298 391.547 310.116 402.506C310.599 403.281 311.565 404.181 312.369 404.247C312.369 404.313 328.851 404.313 328.851 404.313C331.308 404.313 333.028 402.967 333.203 400.926C334.776 382.63 338.082 362.542 335.42 344.188Z" fill="#000543"/>
<path d="M329.031 412.133L344.167 416.727C347.868 417.853 348.57 420.165 347.1 421.884L312.023 421.153L313.428 414.262C313.677 413.033 314.884 412.133 316.288 412.133H329.031Z" fill="#6D72A0"/>
<path d="M312.024 421.146L311.636 422.316C311.395 423.04 312.375 423.72 313.685 423.735L340.941 423.998C343.919 424.028 346.055 423.106 347.101 421.884L312.024 421.146Z" fill="#000543"/>
<path d="M315.806 420.414H322.105C322.251 420.414 322.368 420.297 322.368 420.151V418.483C322.368 418.337 322.251 418.22 322.105 418.22H315.806C315.66 418.22 315.543 418.337 315.543 418.483V420.151C315.543 420.297 315.66 420.414 315.806 420.414Z" fill="#000543"/>
<path d="M142.281 123.304C142.457 123.267 142.625 123.209 142.801 123.18C156.956 120.641 170.972 117.774 182.413 120.041L227.102 267.576C217.446 269.105 208.74 272.133 198.258 273.764L142.281 123.304Z" fill="white"/>
<path d="M191.088 123.106C195.667 125.161 199.515 127.327 202.741 129.514C213.407 136.741 218.425 150.179 218.271 163.939C217.767 208.694 229.705 224.524 237.591 254.144C239.456 261.137 236.962 266.448 231.468 267.004C229.983 267.158 228.528 267.355 227.086 267.582L182.397 120.048C185.506 120.655 188.425 121.628 191.088 123.106Z" fill="#444F81"/>
<path d="M142.281 123.304L209.011 271.599C199.457 275.227 181.55 275.432 170.54 273.866C168.06 273.515 165.515 273.632 162.991 271.789C162.025 271.065 160.899 269.558 159.757 267.766C156.517 262.667 154.476 257.275 153.554 252.199C145.756 209.397 130.131 194.137 121.499 172.996C114.564 156.01 128.982 126.383 142.281 123.304Z" fill="#444F81"/>
<path d="M209.187 206.581C207.46 206.084 205.683 205.901 203.92 206.084C203.13 206.165 202.925 207.247 203.635 207.606C204.483 208.03 206.795 208.857 206.787 209.837C206.787 210.312 206.136 210.444 205.661 210.422C203.444 210.305 201.228 210.137 199.019 209.903C197.592 209.749 197.146 209.91 196.246 211.161C194.856 213.085 194.286 214.394 196.136 216.837C197.797 219.025 200.928 221.461 203.166 221.98C207.468 222.99 215.368 218.791 217.585 215.14C218.733 213.246 219.033 209.734 216.253 209.061C211.228 207.847 212.34 207.489 209.187 206.581Z" fill="#FF9985"/>
<path d="M212.641 140.407L256.379 204.182C261.543 212.104 255.859 222.602 246.4 222.602H219.568C214.491 222.602 210.68 217.949 211.682 212.975L212.97 206.559L223.387 202.872C223.394 202.865 199.956 157.145 212.641 140.407Z" fill="#444F81"/>
<path d="M224.132 204.43C224.6 204.298 224.753 203.984 224.658 203.698C216.626 180.238 204.102 155.469 203.971 155.22C203.832 154.949 203.503 154.832 203.225 154.979C202.954 155.118 202.844 155.447 202.983 155.725C203.108 155.973 215.602 180.677 223.605 204.064C223.685 204.283 223.898 204.43 224.132 204.43Z" fill="#353B54"/>
<path d="M171.249 119.113L155.112 120.261C152.435 120.451 152.025 123.589 154.439 125.44L170.833 138.022C173.056 139.727 175.902 138.915 175.851 136.574L175.587 122.843C175.558 120.846 173.371 118.966 171.249 119.113Z" fill="#FF9985"/>
<path d="M102.377 302.295C101.997 302.295 101.616 302.244 101.236 302.141C99.224 301.6 98.1121 299.771 98.7412 298.052L120.797 237.95C122.991 231.973 129.385 227.957 136.707 227.957H205.325C207.431 227.957 209.136 229.42 209.136 231.22C209.136 233.019 207.431 234.482 205.325 234.482H136.707C132.735 234.482 129.261 236.662 128.075 239.903L106.02 300.005C105.501 301.402 104.001 302.295 102.377 302.295Z" fill="#6D72A0"/>
<path d="M189.925 227.957H122.332C121.593 227.957 120.986 227.35 120.986 226.611V219.932C120.986 219.193 121.593 218.586 122.332 218.586H189.925C190.664 218.586 191.271 219.193 191.271 219.932V226.611C191.271 227.35 190.664 227.957 189.925 227.957Z" fill="#F9C29D"/>
<path d="M197.966 73.9638C197.6 73.4151 197.059 73.0055 196.737 72.4203C196.02 71.1255 196.62 69.5819 196.678 68.1262C196.737 66.6705 195.362 64.7831 194.279 65.5951C195.04 63.5615 195.764 61.0743 194.52 59.1723C192.187 55.5878 186.21 58.4262 183.54 55.1197C182.743 54.1321 182.421 52.7495 181.499 51.9009C180.226 50.7232 178.273 51.0524 177.008 52.0546C176.152 52.7349 175.508 53.6493 174.879 54.571C174.754 54.6222 174.63 54.6808 174.491 54.7173C173.365 54.988 172.816 54.7027 171.609 54.2638C169.327 53.4372 166.934 55.0319 165.34 57.3508C164.667 58.3238 163.079 56.6339 162.333 57.5337C160.629 59.5966 157.512 60.2842 156.605 62.8885C156.108 64.3003 156.4 66.0194 155.742 67.3435C155.04 68.748 153.372 69.4576 152.984 71.0157C152.362 73.4883 154.33 76.0779 154.147 78.5578C154.06 79.7209 154.981 80.9425 154.952 81.3741C154.901 82.4129 155.193 83.3639 155.574 84.1539C155.61 86.9411 155.881 90.072 156.481 93.6272C156.898 96.1071 157.651 98.2358 158.719 99.9257C158.727 99.9403 160.358 102.215 160.358 102.193C160.424 100.43 160.651 98.9381 160.943 97.6945C160.468 96.0778 160.256 94.3807 160.395 92.6323C158.032 92.23 156.576 89.677 157.059 86.9264C157.527 84.271 159.634 82.4275 161.828 82.6616L164.784 83.8467C174.762 83.8394 173.569 73.1372 182.655 72.9762C188.558 72.8738 191.887 74.4685 193.503 75.5951C194.337 78.0091 194.63 80.6426 194.235 83.3493C194.33 83.2615 195.618 82.4348 195.661 81.4473C195.691 81.4839 195.727 81.5204 195.757 81.557C197.585 80.4597 199.48 76.2169 197.966 73.9638Z" fill="#895147"/>
<path d="M182.64 72.9764C173.554 73.13 174.747 83.8395 164.769 83.8468L161.813 82.6618C159.619 82.4277 157.512 84.2711 157.044 86.9266C156.561 89.6771 158.017 92.2301 160.299 92.6325C160.24 94.3808 160.46 96.078 160.928 97.6946C162.713 103.818 168.426 108.697 174.9 109.831C183.518 111.345 190.313 105.69 191.879 96.8095L194.161 83.8103C194.191 83.6567 194.191 83.5103 194.212 83.3567C194.607 80.6574 194.315 78.0166 193.481 75.6026C191.872 74.4687 188.543 72.874 182.64 72.9764Z" fill="#FF9985"/>
<path d="M158.331 123.356L169.83 124.424C171.367 124.658 172.222 127.65 172.464 126.062L177.855 90.8027C178.097 89.2152 177.036 87.7302 175.5 87.4888L164.3 85.7697C162.757 85.5357 161.301 86.633 161.059 88.2204L155.668 123.458C155.419 125.045 156.787 123.121 158.331 123.356Z" fill="#FF9985"/>
<path d="M180.511 80.1294L176.956 79.5222C176.437 79.4345 175.939 79.7856 175.851 80.305C175.764 80.8244 176.115 81.3218 176.634 81.4096L180.189 82.0167C180.709 82.1045 181.206 81.7534 181.294 81.234C181.382 80.7146 181.031 80.2172 180.511 80.1294Z" fill="#000543"/>
<path d="M194.564 82.3179L191.009 81.7107C190.489 81.6229 189.992 81.9741 189.904 82.4935C189.816 83.0128 190.167 83.5103 190.687 83.5981L194.242 84.2052C194.761 84.293 195.259 83.9419 195.347 83.4225C195.434 82.9031 195.083 82.4057 194.564 82.3179Z" fill="#000543"/>
<path d="M191.366 86.9481C191.205 87.8771 190.591 88.5428 189.991 88.4404C189.391 88.338 189.025 87.504 189.186 86.575C189.347 85.6459 189.962 84.9802 190.562 85.0827C191.169 85.1924 191.527 86.0263 191.366 86.9481Z" fill="#000543"/>
<path d="M177.987 84.9285C177.827 85.8576 177.212 86.5232 176.612 86.4208C176.012 86.3184 175.647 85.4845 175.808 84.5554C175.968 83.6264 176.583 82.9607 177.183 83.0631C177.79 83.1655 178.148 83.9995 177.987 84.9285Z" fill="#000543"/>
<path d="M186.042 91.5562L185.962 91.2197C185.735 91.922 185.15 92.4853 184.352 92.5657L182.414 92.7632C181.748 92.8291 181.214 92.4414 180.958 91.9147L180.885 92.0902C180.468 93.1363 181.309 94.2409 182.428 94.1312L184.367 93.9337C185.53 93.8093 186.313 92.6901 186.042 91.5562Z" fill="#FA694F"/>
<path d="M176.43 96.5674L181.638 98.9375C181.638 98.9302 177.82 100.554 176.43 96.5674Z" fill="white"/>
<path d="M253.781 151.644H246.21H245.873H238.302H232.435H226.29H224.527H218.383C216.393 151.644 213.803 153.172 212.362 155.806L185.127 205.842C183.847 208.198 185.574 211.065 188.258 211.073C221.652 211.219 225.032 212.448 227.183 208.49L255.288 156.786C256.378 154.767 255.471 151.644 253.781 151.644Z" fill="#000543"/>
<path d="M140.05 195.345C137.358 193.728 136.18 190.341 137.687 187.298L151.85 158.769L144.769 150.992L130.701 132.075C126.166 136.589 120.014 147.679 119.472 148.937C97.2267 200.685 96.0709 206.281 99.3408 212.016C99.5968 212.47 99.8894 212.916 100.197 213.392L100.57 213.97C103.767 218.922 120.95 220.341 140.036 220.1V195.345H140.05Z" fill="#444F81"/>
<path d="M140.049 196.618V195.381C139.347 194.877 138.761 194.226 138.352 193.443C137.496 191.826 137.488 189.939 138.322 188.256L152.748 159.208C152.88 158.937 152.763 158.622 152.492 158.491C152.207 158.366 151.885 158.476 151.753 158.739L137.328 187.788C136.34 189.778 136.355 192.016 137.371 193.933C137.979 195.089 138.922 195.989 140.049 196.618Z" fill="#353B54"/>
<path d="M140.049 219.822C123.905 220.063 109.142 219.054 103.115 215.543C102.859 215.389 102.515 215.47 102.354 215.726C102.2 215.982 102.281 216.311 102.544 216.464C108.074 219.683 121.147 220.78 135.741 220.78C137.167 220.78 138.608 220.766 140.049 220.744V219.822Z" fill="#353B54"/>
<path d="M191.733 209.23C179.816 208.286 153.752 204.921 138.938 202.836C136.81 201.241 133.584 200.312 130.299 199.683C125.522 198.762 120.577 200.89 118.69 204.775C116.363 209.566 116.217 214.292 116.59 215.535C119.172 224.167 189.106 217.533 193.949 216.362L191.733 209.23Z" fill="#FF9985"/>
<path d="M203.736 204.972C204.014 205.74 203.597 206.589 202.814 206.874L195.719 209.391C194.936 209.669 194.065 209.274 193.787 208.505C193.509 207.737 193.926 206.889 194.709 206.603L201.805 204.087C202.588 203.809 203.458 204.204 203.736 204.972Z" fill="#FF9985"/>
<path d="M196.473 221.029C197.716 221.109 198.989 221.065 199.86 220.56C200.533 220.173 200.913 219.536 201.235 218.907C202.062 217.276 202.625 215.513 202.91 213.662C203.174 211.965 203.027 209.866 201.162 208.373C199.355 206.932 196.999 206.471 194.937 206.676C191.023 207.071 189.633 207.254 187.175 209.332C184.095 211.936 183.817 215.147 188.836 217.788C191.418 219.149 193.766 220.846 196.473 221.029Z" fill="#FF9985"/>
<path d="M199.933 210.583L209.648 215.865C210.306 216.223 211.118 215.974 211.454 215.316C211.791 214.658 211.528 213.824 210.869 213.465L201.154 208.184C200.496 207.825 199.684 208.074 199.348 208.732C199.011 209.391 199.274 210.225 199.933 210.583Z" fill="#FF9985"/>
<path d="M199.245 214.365L208.96 219.647C209.618 220.005 210.43 219.757 210.767 219.098C211.103 218.44 210.84 217.606 210.182 217.248L200.467 211.966C199.809 211.608 198.997 211.856 198.66 212.515C198.324 213.173 198.587 214.007 199.245 214.365Z" fill="#FF9985"/>
<path d="M196.048 217.247L205.763 222.529C206.421 222.887 207.233 222.639 207.57 221.98C207.906 221.322 207.643 220.488 206.985 220.129L197.27 214.848C196.612 214.489 195.8 214.738 195.463 215.396C195.134 216.055 195.397 216.889 196.048 217.247Z" fill="#FF9985"/>
<path d="M192.194 218.732L201.908 224.013C202.567 224.372 203.379 224.123 203.715 223.465C204.052 222.806 203.788 221.972 203.13 221.614L193.415 216.332C192.757 215.974 191.945 216.222 191.608 216.881C191.272 217.539 191.535 218.373 192.194 218.732Z" fill="#FF9985"/>
<path d="M68.4786 261.481H41.3171C38.7494 261.481 36.6572 263.581 36.6572 266.141C36.6572 268.709 38.7567 270.801 41.3171 270.801H68.4786C71.039 270.801 73.1384 268.702 73.1384 266.141C73.1384 263.581 71.039 261.481 68.4786 261.481Z" fill="#F75B37"/>
<path d="M122.121 221.525C121.279 221.525 120.504 220.976 120.248 220.128C114.74 201.664 128.214 197.011 128.353 196.968C129.385 196.631 130.482 197.194 130.819 198.218C131.155 199.243 130.599 200.34 129.582 200.684C129.136 200.837 119.619 204.327 123.993 219.016C124.301 220.047 123.715 221.137 122.684 221.444C122.494 221.496 122.304 221.525 122.121 221.525Z" fill="#000543"/>
<path d="M123.482 216.821H118.844C118.573 216.821 118.354 216.602 118.354 216.331C118.354 216.046 118.573 215.826 118.844 215.826H123.482C123.752 215.826 123.972 216.046 123.972 216.316C123.972 216.602 123.752 216.821 123.482 216.821Z" fill="white"/>
<path d="M131.104 210.881L125.896 210.471C124.959 210.398 124.484 209.608 125.032 209.045L127.754 206.258C128.01 205.994 128.441 205.855 128.88 205.885L134.089 206.294C135.025 206.368 135.501 207.158 134.952 207.721L132.231 210.508C131.975 210.771 131.543 210.91 131.104 210.881Z" fill="white"/>
<path d="M159.407 303.639H0V314.063H159.407V303.639Z" fill="#D7E1FC"/>
<path d="M6.11533 308.854H2.20898V440.111H6.11533V308.854Z" fill="#D7E1FC"/>
<path d="M68.113 303.64H16.0356C14.2288 303.64 12.7218 302.177 12.6706 300.362L11.7562 267.407C11.705 265.6 13.1315 264.13 14.9384 264.13H67.0157C68.8226 264.13 70.3295 265.593 70.3807 267.407L71.2951 300.362C71.3463 302.177 69.9272 303.64 68.113 303.64Z" fill="#9AA0C1"/>
<path d="M107.907 303.64H55.8295C54.0227 303.64 52.1134 302.177 51.572 300.362L41.6672 267.407C41.1259 265.6 42.15 264.13 43.9569 264.13H96.0342C97.8411 264.13 99.7504 265.593 100.292 267.407L110.197 300.362C110.745 302.177 109.721 303.64 107.907 303.64Z" fill="#EBF0FC"/>
<path d="M45.5377 300.341H27.1544C26.7667 300.341 26.4521 300.027 26.4521 299.639C26.4521 299.251 26.7667 298.937 27.1544 298.937H45.5377C45.9254 298.937 46.2399 299.251 46.2399 299.639C46.2399 300.027 45.9254 300.341 45.5377 300.341Z" fill="#52587F"/>
<path d="M51.3681 269.338C50.0221 269.338 48.9248 270.435 48.9248 271.781C48.9248 273.127 50.0221 274.224 51.3681 274.224H64.5648L63.2335 269.338H51.3681Z" fill="#F75B37"/>
<path d="M95.9467 269.338H63.2256L64.557 274.224H95.9467C97.2928 274.224 98.39 273.127 98.39 271.781C98.39 270.435 97.2928 269.338 95.9467 269.338Z" fill="white"/>
<path d="M98.8799 279.002H82.1572L83.7154 283.889H98.8799C100.226 283.889 101.323 282.791 101.323 281.445C101.323 280.099 100.219 279.002 98.8799 279.002Z" fill="white"/>
<path d="M54.2939 279.002C52.9479 279.002 51.8506 280.099 51.8506 281.445C51.8506 282.791 52.9479 283.889 54.2939 283.889H83.7086L82.1504 279.002H54.2939Z" fill="#F75B37"/>
<path d="M95.2078 295.849H90.4455C89.0191 295.849 87.8486 294.679 87.8486 293.252C87.8486 291.826 89.0191 290.655 90.4455 290.655H95.2078C96.6343 290.655 97.8047 291.826 97.8047 293.252C97.8047 294.679 96.6343 295.849 95.2078 295.849Z" fill="white"/>
<path d="M93.7599 294.145C93.2259 294.145 92.6919 294.137 92.1433 294.115C91.6019 294.093 91.185 293.64 91.1996 293.098C91.2215 292.557 91.5873 292.162 92.2164 292.155C100.592 292.462 107.717 290.26 112.246 285.951C120.292 278.285 119.268 265.739 118.449 260.706C117.688 255.995 116.298 251.306 114.952 246.771C113.687 242.491 112.377 238.073 111.573 233.581C110.183 225.813 110.863 219.404 113.599 214.533C116.715 208.995 124.148 204.679 130.717 207.386C131.214 207.59 131.455 208.161 131.251 208.658C131.046 209.156 130.468 209.397 129.978 209.192C124.382 206.888 118.003 210.677 115.303 215.491C112.794 219.953 112.187 225.922 113.497 233.238C114.279 237.612 115.574 241.987 116.832 246.215C118.193 250.809 119.597 255.556 120.38 260.392C122.209 271.687 119.736 281.518 113.592 287.371C108.99 291.767 101.99 294.145 93.7599 294.145Z" fill="#F75B37"/>
<path d="M35.5881 289.573H27.5267C25.4638 289.573 23.7812 287.89 23.7812 285.827C23.7812 283.765 25.4638 282.082 27.5267 282.082H35.5881C37.651 282.082 39.3335 283.765 39.3335 285.827C39.3408 287.89 37.651 289.573 35.5881 289.573Z" fill="#EBF0FC"/>
</svg>
