<svg width="556" height="344" viewBox="0 0 556 344" fill="none" xmlns="http://www.w3.org/2000/svg">
<path d="M65.462 20.4995C93.077 -1.38013 130.788 -5.39013 163.001 6.77259C205.793 22.9358 237.285 63.8701 278.845 83.5314C308.034 97.3342 341.555 99.8084 372.156 90.4138C387.049 85.8445 401.534 78.5165 416.996 78.0236C430.685 77.5875 444.213 82.6687 455.845 90.5939C490.096 113.915 507.283 163.646 495.746 206.031C489.565 228.716 476.302 248.425 460.841 264.948C428.912 299.095 386.556 321.287 342.285 327.061C317.58 330.284 292.506 328.54 267.887 324.577C214.24 315.941 161.38 296.384 117.203 261.877C64.315 220.573 11.9005 148.526 31.7041 73.4258C37.2498 52.4089 49.2798 33.3258 65.462 20.4995Z" fill="#BCDFFD"/>
<path d="M480.046 81.1718C478.302 76.7258 476.861 71.0757 479.79 67.4639C480.89 66.1083 482.454 65.3025 484.066 64.8664C491.811 62.7713 499.404 68.7342 504.798 75.1711C509.823 81.1529 514.098 87.8836 517.492 95.1168C519.227 98.8045 520.744 102.71 521.104 106.843C521.464 110.977 520.535 115.404 517.909 118.39C500.248 138.497 484.862 93.4862 480.046 81.1718Z" fill="#BCDFFD"/>
<path d="M335.478 207.417C345.366 197.738 358.723 229.391 363.349 241.478L372.601 230.86C366.127 223.144 342.759 193.273 361.927 185.708C375.123 180.503 374.82 216.716 374.365 228.832L386.859 214.489C383.636 207.037 368.193 168.9 389.532 167.241C403.828 166.132 392.49 201.435 388.603 212.488L401.904 197.226C406.833 185.3 421.082 153.95 430.713 163.913C444.269 177.934 414.891 194.391 403.999 199.804L391.315 214.365C402.491 207.72 432.467 191.272 434.221 204.971C436.913 225.95 397.391 219.01 388.793 217.266L375.256 232.804C384.669 230.377 424.314 220.992 421.764 235.761C418.086 257.034 380.953 237.582 374.298 233.903L364.657 244.966C364.714 245.128 364.761 245.27 364.809 245.393C375.426 246.995 413.81 253.707 405.895 266.069C394.585 283.739 369.065 253.697 363.311 246.512L341.953 271.027L339.488 268.875L361.14 244.009C350.352 238.264 321.552 221.03 335.478 207.417Z" fill="#35C4A6"/>
<path d="M386.613 322.738C375.73 322.738 365.122 319.752 361.197 310.784C352.561 291.066 375.72 273.708 390.765 266.57C396.453 263.868 402.416 261.583 408.179 259.374C413.441 257.355 418.882 255.269 424.068 252.89C437.861 246.548 450.261 237.836 460.926 226.991C461.589 226.318 462.585 226.119 463.457 226.498C464.338 226.877 464.879 227.749 464.841 228.707C464.215 243.856 463.153 258.559 457.162 271.992C452.621 282.183 445.104 291.871 433.529 302.498C427.566 307.978 419.48 314.756 409.867 318.557C404.094 320.851 395.268 322.738 386.613 322.738ZM424.959 254.805C419.707 257.222 414.237 259.317 408.938 261.346C403.212 263.545 397.287 265.811 391.675 268.475C377.313 275.291 355.149 291.701 363.14 309.94C369.748 325.032 398.301 320.87 409.099 316.595C418.389 312.917 426.277 306.3 432.107 300.944C443.464 290.516 450.82 281.045 455.247 271.129C461.087 258.038 462.13 243.543 462.746 228.612C462.746 228.584 462.755 228.489 462.632 228.432C462.528 228.384 462.471 228.441 462.442 228.46C451.588 239.495 438.98 248.359 424.959 254.805Z" fill="#35C4A6"/>
<path d="M198.256 263.747C188.369 254.068 175.012 285.721 170.385 297.808L161.133 287.19C167.608 279.474 190.976 249.603 171.807 242.038C158.611 236.833 158.915 273.046 159.37 285.162L146.875 270.819C150.098 263.367 165.541 225.23 144.202 223.571C129.906 222.462 141.244 257.765 145.131 268.818L131.831 253.556C126.901 241.63 112.653 210.28 103.021 220.243C89.4649 234.264 118.843 250.721 129.736 256.134L142.42 270.695C131.243 264.05 101.267 247.602 99.5136 261.301C96.8213 282.28 136.343 275.341 144.941 273.596L158.479 289.134C149.065 286.707 109.42 277.322 111.97 292.092C115.648 313.364 152.781 293.912 159.436 290.234L169.077 301.297C169.02 301.458 168.973 301.6 168.925 301.723C158.308 303.325 119.924 310.037 127.84 322.399C139.149 340.069 164.669 310.028 170.423 302.842L191.782 327.357L194.246 325.205L172.575 300.339C183.373 294.594 212.173 277.36 198.256 263.747Z" fill="#35C4A6"/>
<path d="M162.621 248.133C159.967 233.136 154.563 218.641 146.771 205.559C146.192 204.592 147.131 203.426 148.202 203.758C162.223 208.052 176.376 212.83 187.781 221.969C197.773 229.979 205.044 240.91 211.035 252.229C215.453 260.59 219.32 269.435 220.458 278.82C222.051 291.93 218.003 320.152 201.498 322.759C180.813 326.03 170.385 299.467 167.418 283.806C165.19 272.004 164.716 259.955 162.621 248.133Z" fill="#35C4A6"/>
<path d="M145.795 56.6367H108.785C106.339 56.6367 104.349 58.618 104.349 61.0733V84.9342C104.349 87.3801 106.33 89.3708 108.785 89.3708H119.801L123.28 95.4001L127.29 102.349L131.3 95.4001L134.779 89.3708H145.795C148.241 89.3708 150.231 87.3895 150.231 84.9342V61.0733C150.231 58.618 148.25 56.6367 145.795 56.6367Z" fill="white"/>
<path d="M119.904 125.49C112.169 120.721 107.353 130.021 107.325 130.078C107.296 130.021 102.471 120.721 94.7448 125.49C85.8621 130.969 94.5457 148.26 107.325 152.46C120.104 148.26 128.787 130.96 119.904 125.49Z" fill="#FF5C5B"/>
<path d="M68.5614 75.549C71.7657 75.9471 75.0267 75.9661 78.2404 75.6058C79.0178 75.5205 79.8141 75.4068 80.4682 74.9897C81.1318 74.582 81.6153 73.8615 81.4446 73.1031C82.0324 73.0937 82.5064 72.6576 82.9235 72.25C83.0941 72.0793 83.2648 71.9087 83.3691 71.6906C83.4923 71.4442 83.5113 71.1598 83.4923 70.8848C83.4449 70.0127 83.0373 69.2069 82.2789 68.7803C82.9709 68.5718 83.5492 68.003 83.7577 67.3109C83.9663 66.6189 83.8051 65.8226 83.3406 65.2633C83.0373 64.8935 82.6676 64.7134 82.222 64.5333C82.5348 64.2489 82.9804 64.1067 83.2269 63.7654C83.5681 63.2914 83.388 62.571 82.9519 62.1728C82.5159 61.7747 81.9091 61.6325 81.3214 61.5756C80.2502 61.4808 79.1789 61.623 78.1077 61.6609C77.0365 61.6988 75.8799 61.4997 74.9319 61.0068C74.7234 59.5943 75.0647 58.1154 74.6855 56.7408C74.2209 55.0534 72.5999 53.7452 70.8556 53.6409C70.5238 53.6219 70.1446 53.6598 69.9266 53.9158C69.7654 54.1054 69.737 54.3708 69.737 54.6173C69.7275 55.7549 70.1635 56.8546 70.4195 57.9637C70.6849 59.0729 70.7513 60.3337 70.0972 61.2722C69.8412 61.6419 69.4905 61.9358 69.2819 62.334C68.9975 62.8743 69.026 63.5284 68.8743 64.1257C68.7226 64.7229 68.2581 65.3486 67.6514 65.2822L68.5614 75.549Z" fill="white"/>
<path d="M68.0309 76.7439H64.201C63.9071 76.7439 63.6606 76.5069 63.6606 76.2035V62.8558C63.6606 62.5619 63.8976 62.3154 64.201 62.3154H68.0309C68.3248 62.3154 68.5712 62.5524 68.5712 62.8558V76.2035C68.5712 76.5069 68.3342 76.7439 68.0309 76.7439Z" fill="#121B46"/>
<path d="M66.0025 64.713C66.3324 64.713 66.5997 64.4456 66.5997 64.1158C66.5997 63.786 66.3324 63.5186 66.0025 63.5186C65.6727 63.5186 65.4053 63.786 65.4053 64.1158C65.4053 64.4456 65.6727 64.713 66.0025 64.713Z" fill="white"/>
<path d="M461.153 97.1348H424.144C421.698 97.1348 419.707 99.1161 419.707 101.571V125.432C419.707 127.878 421.688 129.869 424.144 129.869H435.159L438.638 135.898L442.648 142.847L446.658 135.898L450.138 129.869H461.153C463.599 129.869 465.59 127.888 465.59 125.432V101.571C465.59 99.1161 463.599 97.1348 461.153 97.1348Z" fill="#FDB32C"/>
<path d="M439.691 124.152C442.895 124.551 446.156 124.57 449.37 124.209C450.147 124.124 450.944 124.01 451.598 123.593C452.261 123.186 452.745 122.465 452.574 121.707C453.162 121.697 453.636 121.261 454.053 120.853C454.224 120.683 454.394 120.512 454.498 120.294C454.622 120.048 454.641 119.763 454.622 119.488C454.574 118.616 454.167 117.81 453.408 117.384C454.1 117.175 454.679 116.606 454.887 115.914C455.096 115.222 454.935 114.426 454.47 113.867C454.167 113.497 453.787 113.317 453.351 113.137C453.664 112.852 454.11 112.71 454.356 112.369C454.698 111.895 454.517 111.174 454.081 110.776C453.645 110.378 453.039 110.236 452.451 110.179C451.38 110.084 450.308 110.226 449.237 110.264C448.166 110.302 447.009 110.103 446.061 109.61C445.853 108.198 446.194 106.719 445.815 105.344C445.35 103.657 443.729 102.349 441.985 102.244C441.653 102.225 441.274 102.263 441.056 102.519C440.895 102.709 440.866 102.974 440.866 103.221C440.857 104.358 441.293 105.458 441.549 106.567C441.814 107.676 441.881 108.937 441.227 109.876C440.971 110.245 440.62 110.539 440.411 110.937C440.127 111.478 440.155 112.132 440.004 112.729C439.852 113.326 439.387 113.952 438.781 113.886L439.691 124.152Z" fill="white"/>
<path d="M439.169 125.347H435.339C435.045 125.347 434.799 125.11 434.799 124.807V111.459C434.799 111.165 435.036 110.919 435.339 110.919H439.169C439.463 110.919 439.709 111.156 439.709 111.459V124.807C439.709 125.11 439.472 125.347 439.169 125.347Z" fill="#121B46"/>
<path d="M437.737 112.719C437.737 113.051 437.472 113.317 437.14 113.317C436.808 113.317 436.543 113.051 436.543 112.719C436.543 112.387 436.808 112.122 437.14 112.122C437.463 112.122 437.737 112.387 437.737 112.719Z" fill="white"/>
<path d="M441.719 322.71H430.95C431.794 329.336 432.467 334.389 432.751 336.532C432.751 336.532 425.234 341.632 420.133 340.978C419.849 340.94 419.555 341.035 419.384 341.272C419.157 341.584 418.996 342.087 419.489 342.713C419.631 342.893 419.858 342.997 420.095 342.997H440.382C441.141 342.997 441.785 342.438 441.899 341.689C442.032 340.788 442.108 338.731 441.558 336.854L441.719 322.71Z" fill="#CC6F49"/>
<path d="M429.85 338.333C429.85 338.333 431.642 339.509 431.916 340.75C432.059 341.376 434.002 341.262 435.898 341.006C437.832 340.741 439.624 339.907 441.216 338.788C441.52 338.57 441.804 338.437 441.994 338.475C442.686 338.617 442.619 342.826 441.785 343.168C441.027 343.49 422.408 343.215 419.46 343.177C419.232 343.177 419.052 342.997 419.052 342.77C419.043 342.059 419.166 340.637 420.247 340.485C421.707 340.267 429.85 338.333 429.85 338.333Z" fill="#121B46"/>
<path d="M466.499 322.71H455.73L458.365 336.835C458.147 338.722 458.583 340.779 458.877 341.67C459.114 342.419 459.863 342.978 460.622 342.978H477.477C477.477 342.258 477.496 341.537 477.515 340.817C472.737 339.935 467.125 336.522 467.125 336.522C467.03 334.389 466.812 329.336 466.499 322.71Z" fill="#CC6F49"/>
<path d="M470.433 338.332C470.433 338.332 468.642 339.508 468.367 340.749C468.225 341.375 466.281 341.261 464.385 341.005C462.451 340.74 460.66 339.906 459.067 338.787C458.764 338.569 458.479 338.436 458.29 338.474C457.598 338.616 457.664 342.826 458.498 343.167C459.257 343.489 477.875 343.214 480.823 343.176C481.051 343.176 481.231 342.996 481.231 342.769C481.24 342.058 481.117 340.636 480.037 340.484C478.586 340.266 470.433 338.332 470.433 338.332Z" fill="#121B46"/>
<path d="M428.912 196.513C428.912 196.513 422.655 202.22 423.205 206.827C423.755 211.425 427.992 225.418 426.703 234.992C425.414 244.567 422.465 252.852 423.205 262.977C423.944 273.102 430.201 329.251 430.201 329.251C430.201 329.251 444.373 324.464 449.35 326.672C454.318 328.881 467.94 330.72 469.789 329.99C469.789 329.99 466.661 254.331 456.346 240.149C456.346 240.149 454.507 219.805 456.299 215.246C458.091 210.686 455.882 198.125 451.332 196.608C446.762 195.082 428.912 196.513 428.912 196.513Z" fill="#FDB32C"/>
<path d="M433.443 203.577C436.922 203.141 440.354 202.733 443.748 202.136C445.444 201.851 447.132 201.482 448.81 201.102C450.488 200.685 452.128 200.192 453.806 199.643C450.848 201.576 447.388 202.61 443.937 203.226C442.202 203.51 440.449 203.709 438.695 203.776C436.95 203.842 435.187 203.814 433.443 203.577Z" fill="#121B46"/>
<path d="M437.376 293.807C439.765 290.858 442.164 287.986 444.411 284.99C446.686 282.014 448.8 278.923 450.99 275.823C449.568 279.35 447.567 282.62 445.292 285.654C442.989 288.678 440.382 291.484 437.376 293.807Z" fill="#121B46"/>
<path d="M444.639 292.337C445.122 290.706 445.871 289.256 446.705 287.853C447.558 286.469 448.488 285.123 449.71 283.947C449.246 285.559 448.478 287.019 447.644 288.431C446.791 289.825 445.852 291.18 444.639 292.337Z" fill="#121B46"/>
<path d="M444.913 236.104C444.98 235.232 439.178 233.687 439.405 233.099C439.605 232.577 441.074 232.378 441.842 232.407C442.003 232.416 442.126 232.284 442.107 232.122C442.069 231.8 441.88 231.336 441.083 231.25C440.041 231.146 437.983 230.975 435.576 231.677C435.576 231.677 435.576 231.677 435.566 231.677C435.282 231.516 432.722 230.113 428.911 228.018C428.238 230.293 427.612 232.606 426.759 234.777C429.319 235.27 431.907 235.63 434.523 235.81V235.791V235.782C435.936 237.099 439.386 240.171 441.301 240.759C441.453 240.806 441.586 240.673 441.529 240.522C441.415 240.19 440.998 239.574 439.614 238.54C439.614 238.54 442.989 239.962 443.605 239.706C444.221 239.46 440.183 237.042 440.183 237.042C440.183 237.042 444.145 238.227 444.572 237.801C444.999 237.374 440.733 235.469 440.733 235.469C440.733 235.469 444.894 236.455 444.913 236.104Z" fill="#CC6F49"/>
<path d="M426.883 198.354C426.883 198.354 418.872 206.544 414.36 212.896C409.847 219.247 408.928 222.745 410.037 226.698C411.146 230.661 418.047 232.955 420.067 233.6C422.095 234.244 432.03 236.084 432.03 236.084L433.689 230.197L422.19 223.57L433.974 206.629L426.883 198.354Z" fill="#FDB32C"/>
<path d="M417.982 222.007C418.769 222.017 419.499 222.168 420.219 222.358C420.94 222.548 421.632 222.813 422.314 223.098L421.67 223.875C421.215 223.022 420.807 222.121 420.608 221.116C421.414 221.761 422.03 222.529 422.58 223.325L423.48 224.624L421.945 224.102C421.243 223.865 420.551 223.59 419.897 223.259C419.224 222.898 418.57 222.529 417.982 222.007Z" fill="#121B46"/>
<path d="M428.125 216.973C428.609 215.902 429.32 215.067 430.088 214.3C430.884 213.551 431.728 212.859 432.818 212.413C432.344 213.484 431.624 214.319 430.856 215.086C430.069 215.835 429.216 216.518 428.125 216.973Z" fill="#121B46"/>
<path d="M457.777 239.401H422.986V218.508C422.986 217.645 423.687 216.943 424.55 216.943H456.213C457.076 216.943 457.777 217.645 457.777 218.508V239.401Z" fill="#DFDFDF"/>
<path d="M457.777 239.032H422.986V241.611H457.777V239.032Z" fill="#A1B0CF"/>
<path d="M443.51 229.096C443.51 230.821 442.107 232.225 440.381 232.225C438.656 232.225 437.253 230.821 437.253 229.096C437.253 227.371 438.656 225.968 440.381 225.968C442.107 225.968 443.51 227.361 443.51 229.096Z" fill="white"/>
<path d="M459.786 234.689L459.208 233.959C459.066 233.987 458.933 234.025 458.791 234.054C458.573 233.912 458.345 233.779 458.127 233.637C457.938 233.997 457.805 234.234 457.767 234.31C455.359 235.04 453.728 236.31 452.913 236.974C452.287 237.486 452.382 237.979 452.534 238.263C452.61 238.405 452.78 238.443 452.913 238.348C453.539 237.903 454.876 237.268 455.331 237.599C455.843 237.969 451.842 242.444 452.373 243.136C452.591 243.41 455.52 240.311 455.52 240.311C455.52 240.311 452.999 244.245 453.586 244.368C454.174 244.491 456.838 241.325 456.838 241.325C456.838 241.325 454.781 245.553 455.435 245.43C456.079 245.306 458.127 242.263 458.127 242.263C457.539 243.885 457.53 244.633 457.615 244.975C457.653 245.136 457.833 245.174 457.938 245.051C459.217 243.505 460.412 239.05 460.876 237.173L460.886 237.182L460.895 237.192C461.341 236.85 461.767 236.49 462.204 236.139C461.388 235.675 460.582 235.182 459.786 234.689Z" fill="#CC6F49"/>
<path d="M452.838 197.708C452.838 197.708 455.966 198.997 457.72 200.097C459.464 201.206 475.95 215.284 476.13 219.332C476.31 223.38 461.682 237.562 461.682 237.562L457.909 233.789L463.796 221.455L447.775 206.638L452.838 197.708Z" fill="#FDB32C"/>
<path d="M465.816 218.695C465.693 219.302 465.446 219.833 465.19 220.345C464.915 220.847 464.612 221.331 464.252 221.776L463.389 222.857L463.276 221.52C463.238 221.075 463.238 220.62 463.276 220.165C463.313 219.71 463.38 219.245 463.541 218.781C463.787 219.207 463.949 219.643 464.081 220.089C464.205 220.525 464.309 220.971 464.356 221.416L463.38 221.151C463.693 220.677 464.062 220.241 464.451 219.814C464.849 219.397 465.276 218.999 465.816 218.695Z" fill="#121B46"/>
<path d="M458.64 233.126C459.55 233.278 460.252 233.695 460.906 234.169C461.541 234.681 462.129 235.249 462.498 236.093C461.588 235.942 460.887 235.524 460.233 235.05C459.607 234.538 459.019 233.96 458.64 233.126Z" fill="#121B46"/>
<path d="M456.431 214.687L451.046 211.786L455.947 216.621L456.431 214.687Z" fill="#121B46"/>
<path d="M452.431 179.565C452.127 178.607 451.103 177.84 450.089 178.086C450.544 164.767 439.443 166.568 439.443 166.568C432.475 167.175 431.679 174.578 431.736 178.351C431.509 178.219 431.3 178.124 431.186 178.096C430.162 177.84 429.139 178.607 428.835 179.574C428.589 180.342 428.759 181.205 429.195 181.878C429.556 182.437 430.143 182.959 430.779 183.196C430.921 183.253 431.509 183.347 431.992 183.338C433.073 192.04 440.96 191.187 440.96 191.187C447.795 191.529 449.568 186.751 449.966 183.3C450.222 183.272 450.43 183.224 450.506 183.196C451.132 182.959 451.729 182.437 452.089 181.878C452.506 181.186 452.677 180.323 452.431 179.565Z" fill="#CC6F49"/>
<path d="M446.487 185.111C447.717 185.111 448.714 184.113 448.714 182.883C448.714 181.653 447.717 180.655 446.487 180.655C445.256 180.655 444.259 181.653 444.259 182.883C444.259 184.113 445.256 185.111 446.487 185.111Z" fill="#C4533A"/>
<path d="M435.385 185.112C436.616 185.112 437.613 184.114 437.613 182.884C437.613 181.654 436.616 180.656 435.385 180.656C434.155 180.656 433.158 181.654 433.158 182.884C433.158 184.114 434.155 185.112 435.385 185.112Z" fill="#C4533A"/>
<path d="M443.727 179.88C444.083 179.88 444.372 179.29 444.372 178.562C444.372 177.834 444.083 177.244 443.727 177.244C443.371 177.244 443.083 177.834 443.083 178.562C443.083 179.29 443.371 179.88 443.727 179.88Z" fill="#121B46"/>
<path d="M445.045 176.827C444.94 177.045 444.789 177.225 444.609 177.386C444.429 177.547 444.192 177.67 443.936 177.737H443.926C443.793 177.765 443.67 177.689 443.642 177.556C443.613 177.424 443.689 177.301 443.822 177.272C443.841 177.263 443.86 177.263 443.888 177.263C444.248 177.282 444.647 177.054 444.921 176.741V176.732C444.95 176.703 444.997 176.694 445.026 176.722C445.045 176.751 445.054 176.798 445.045 176.827Z" fill="#121B46"/>
<path d="M438.144 179.879C438.5 179.879 438.788 179.289 438.788 178.561C438.788 177.833 438.5 177.243 438.144 177.243C437.788 177.243 437.499 177.833 437.499 178.561C437.499 179.289 437.788 179.879 438.144 179.879Z" fill="#121B46"/>
<path d="M436.968 176.74C437.243 177.062 437.641 177.28 438.002 177.261C438.134 177.252 438.248 177.356 438.248 177.489C438.258 177.622 438.153 177.735 438.021 177.735C438.002 177.735 437.983 177.735 437.954 177.726H437.945C437.689 177.669 437.452 177.536 437.272 177.375C437.091 177.214 436.949 177.024 436.836 176.816C436.817 176.778 436.836 176.731 436.873 176.712C436.902 176.702 436.94 176.712 436.968 176.74Z" fill="#121B46"/>
<path d="M443.359 182.55C443.131 182.986 442.799 183.356 442.392 183.649C441.984 183.943 441.472 184.133 440.951 184.123C440.429 184.114 439.918 183.934 439.519 183.63C439.311 183.488 439.14 183.299 438.96 183.138C438.808 182.938 438.657 182.749 438.524 182.55C438.723 182.692 438.903 182.853 439.083 183.005C439.282 183.128 439.462 183.28 439.671 183.384C440.069 183.612 440.505 183.735 440.941 183.744C441.377 183.754 441.813 183.612 442.221 183.403C442.629 183.166 443.008 182.882 443.359 182.55Z" fill="#121B46"/>
<path d="M441.614 184.882C441.434 185.043 441.178 185.1 440.932 185.109C440.685 185.1 440.439 185.034 440.249 184.882C440.486 184.92 440.704 184.967 440.932 184.958C441.159 184.967 441.377 184.929 441.614 184.882Z" fill="#121B46"/>
<path d="M439.33 173.991C439.027 173.726 438.686 173.64 438.335 173.621C437.984 173.612 437.614 173.659 437.273 173.773C436.922 173.877 436.61 174.076 436.335 174.313C436.06 174.541 435.861 174.835 435.699 175.129C435.614 175.28 435.671 175.47 435.823 175.546C435.946 175.612 436.088 175.593 436.183 175.508L436.211 175.479C436.42 175.29 436.619 175.11 436.847 174.977C437.065 174.835 437.302 174.749 437.548 174.693C437.795 174.636 438.05 174.607 438.306 174.617C438.562 174.626 438.837 174.636 439.122 174.569L439.207 174.55C439.378 174.512 439.482 174.332 439.444 174.162C439.416 174.086 439.378 174.029 439.33 173.991Z" fill="#121B46"/>
<path d="M442.544 173.99C442.847 173.725 443.189 173.639 443.539 173.62C443.89 173.611 444.26 173.658 444.601 173.772C444.952 173.876 445.265 174.075 445.54 174.312C445.814 174.54 446.014 174.834 446.175 175.128C446.26 175.279 446.203 175.469 446.051 175.545C445.928 175.611 445.786 175.592 445.691 175.507L445.663 175.478C445.454 175.289 445.255 175.109 445.028 174.976C444.81 174.834 444.573 174.748 444.326 174.692C444.08 174.635 443.824 174.606 443.568 174.616C443.312 174.625 443.037 174.635 442.752 174.568L442.667 174.549C442.496 174.511 442.392 174.331 442.43 174.161C442.468 174.085 442.496 174.028 442.544 173.99Z" fill="#121B46"/>
<path d="M441.083 176.541C441.197 177.034 441.282 177.527 441.377 178.02C441.472 178.503 441.567 178.996 441.699 179.451C441.728 179.565 441.766 179.679 441.813 179.793C441.851 179.887 441.927 180.058 441.927 180.219C441.946 180.551 441.737 180.873 441.462 180.997C441.187 181.148 440.875 181.129 440.619 181.044C440.363 180.949 440.145 180.816 439.955 180.646C440.42 180.816 440.96 180.959 441.282 180.712C441.443 180.589 441.538 180.418 441.51 180.238C441.5 180.143 441.472 180.087 441.415 179.944C441.368 179.821 441.32 179.698 441.282 179.575C441.14 179.072 441.064 178.57 441.036 178.058C441.007 177.555 441.017 177.053 441.083 176.541Z" fill="#121B46"/>
<path d="M429.632 180.277C429.622 179.974 429.707 179.642 429.973 179.405C430.257 179.168 430.665 179.196 430.968 179.31C431.291 179.424 431.565 179.642 431.774 179.898C431.992 180.154 432.144 180.429 432.276 180.741C432.324 180.855 432.267 180.978 432.153 181.026C432.068 181.064 431.973 181.035 431.916 180.978L431.897 180.959C431.679 180.741 431.414 180.514 431.158 180.438C431.035 180.4 430.94 180.41 430.845 180.476C430.75 180.542 430.684 180.675 430.627 180.817C430.513 181.102 430.447 181.443 430.693 181.576C430.949 181.727 431.328 181.689 431.67 181.642C431.347 181.784 430.997 181.898 430.599 181.784C430.399 181.718 430.229 181.49 430.219 181.282C430.2 181.073 430.229 180.884 430.286 180.694C430.343 180.514 430.418 180.315 430.599 180.154C430.779 179.993 431.073 179.955 431.272 180.011C431.689 180.135 431.973 180.381 432.229 180.656L431.85 180.874C431.651 180.372 431.319 179.841 430.836 179.604C430.599 179.49 430.314 179.433 430.087 179.556C429.85 179.699 429.707 179.983 429.632 180.277Z" fill="#121B46"/>
<path d="M451.909 180.277C451.919 179.974 451.833 179.642 451.568 179.405C451.284 179.168 450.876 179.196 450.573 179.31C450.25 179.424 449.975 179.642 449.767 179.898C449.549 180.154 449.397 180.429 449.264 180.741C449.217 180.855 449.274 180.978 449.388 181.026C449.473 181.064 449.568 181.035 449.625 180.978L449.644 180.959C449.862 180.741 450.127 180.514 450.383 180.438C450.506 180.4 450.601 180.41 450.696 180.476C450.791 180.542 450.857 180.675 450.914 180.817C451.028 181.102 451.094 181.443 450.847 181.576C450.591 181.727 450.212 181.689 449.871 181.642C450.193 181.784 450.544 181.898 450.942 181.784C451.141 181.718 451.312 181.49 451.321 181.282C451.34 181.073 451.312 180.884 451.255 180.694C451.198 180.514 451.122 180.315 450.942 180.154C450.762 179.993 450.468 179.955 450.269 180.011C449.852 180.135 449.568 180.381 449.312 180.656L449.691 180.874C449.89 180.372 450.222 179.841 450.705 179.604C450.942 179.49 451.227 179.433 451.454 179.556C451.691 179.699 451.833 179.983 451.909 180.277Z" fill="#121B46"/>
<path d="M454.346 197.747C454.308 197.737 454.27 197.728 454.232 197.718C451.786 197.017 450.383 194.429 450.876 191.935C451.739 187.527 453.199 179.593 452.933 177.374C452.564 174.246 450.45 165.316 442.164 164.671C433.879 164.027 428.816 169.553 427.802 177.554C426.788 185.565 429.461 194.211 429.461 194.211C429.385 195.462 425.157 199.462 423.915 200.619C423.764 200.761 423.821 201.017 424.02 201.083C436.552 205.046 450.829 199.737 454.393 198.258C454.64 198.154 454.602 197.813 454.346 197.747ZM440.932 190.618C436.125 190.618 432.229 186.105 432.229 180.541C432.229 174.976 436.125 170.463 440.932 170.463C445.738 170.463 449.634 174.976 449.634 180.541C449.634 186.105 445.738 190.618 440.932 190.618Z" fill="#121B46"/>
<path d="M425.414 200.565C429.082 199.2 432.675 197.759 436.116 196.014C437.832 195.133 439.491 194.166 441.093 193.104C442.667 192.004 444.165 190.791 445.577 189.426C444.525 191.085 443.141 192.535 441.615 193.796C440.069 195.028 438.373 196.081 436.628 196.991C434.865 197.872 433.035 198.631 431.158 199.228C429.272 199.835 427.366 200.328 425.414 200.565Z" fill="white"/>
<path d="M435.538 189.236C434.391 188.848 433.348 188.146 432.476 187.274C431.595 186.411 430.884 185.35 430.41 184.193C429.964 183.036 429.661 181.795 429.708 180.562C429.661 179.946 429.803 179.339 429.869 178.733C429.993 178.135 430.182 177.557 430.372 176.988C430.419 177.595 430.372 178.183 430.41 178.771C430.467 179.358 430.448 179.937 430.561 180.496L430.685 181.34L430.884 182.164C430.931 182.439 431.035 182.705 431.121 182.97C431.216 183.236 431.282 183.51 431.415 183.757C431.822 184.809 432.41 185.776 433.102 186.686C433.813 187.615 434.619 188.459 435.538 189.236Z" fill="white"/>
<path d="M433.974 174.419C433.974 174.419 441.292 171.063 447.919 174.419C447.919 174.419 441.15 163.65 433.974 174.419Z" fill="white"/>
<path d="M371.104 343.32H195.479C184.805 343.32 176.149 334.665 176.149 323.99V25.7524C176.149 15.078 184.805 6.42285 195.479 6.42285H371.104C381.778 6.42285 390.433 15.078 390.433 25.7524V323.99C390.433 334.665 381.778 343.32 371.104 343.32Z" fill="#DFDFDF"/>
<path d="M308.138 14.5186H258.435V18.1968H308.138V14.5186Z" fill="#ADADAD"/>
<path d="M306.849 324.54H259.724V334.115H306.849V324.54Z" fill="#ADADAD"/>
<path d="M385.277 28.1416H181.297V318.388H385.277V28.1416Z" fill="white"/>
<path d="M385.277 28.1416H181.297V39.1857H385.277V28.1416Z" fill="#121B46"/>
<path d="M199.431 242.065C203.955 242.065 207.622 238.398 207.622 233.874C207.622 229.351 203.955 225.684 199.431 225.684C194.908 225.684 191.241 229.351 191.241 233.874C191.241 238.398 194.908 242.065 199.431 242.065Z" fill="#6DB2E3"/>
<path d="M199.431 310.274C203.955 310.274 207.622 306.607 207.622 302.083C207.622 297.56 203.955 293.893 199.431 293.893C194.908 293.893 191.241 297.56 191.241 302.083C191.241 306.607 194.908 310.274 199.431 310.274Z" fill="#3CDEBC"/>
<path d="M222.079 242.065C226.603 242.065 230.27 238.398 230.27 233.874C230.27 229.351 226.603 225.684 222.079 225.684C217.556 225.684 213.889 229.351 213.889 233.874C213.889 238.398 217.556 242.065 222.079 242.065Z" fill="#6DB2E3"/>
<path d="M278.503 227.523H234.876V231.761H278.503V227.523Z" fill="#BCDFFD"/>
<path d="M373.862 247.402H192.71V251.64H373.862V247.402Z" fill="#BCDFFD"/>
<path d="M373.862 256.057H192.71V260.294H373.862V256.057Z" fill="#BCDFFD"/>
<path d="M236.337 264.713H192.71V268.95H236.337V264.713Z" fill="#BCDFFD"/>
<path d="M254.566 295.36H210.94V299.598H254.566V295.36Z" fill="#BCDFFD"/>
<path d="M207.397 80.1264C208.44 75.725 205.718 71.3113 201.316 70.2681C196.915 69.225 192.501 71.9475 191.458 76.3489C190.415 80.7503 193.137 85.164 197.539 86.2071C201.94 87.2503 206.354 84.5278 207.397 80.1264Z" fill="#FF5C5B"/>
<path d="M254.566 71.5029H210.94V75.7404H254.566V71.5029Z" fill="#BCDFFD"/>
<path d="M305.198 235.439H234.876V239.677H305.198V235.439Z" fill="#BCDFFD"/>
<path d="M385.276 89.2676H181.296V221.816H385.276V89.2676Z" fill="#FF5C5B"/>
<path d="M328.719 233.665C322.159 233.665 315.532 230.622 310.328 228.233C303.512 225.105 299.132 216.621 300.564 209.321C301.55 204.259 305.294 199.974 309.882 198.666C310.375 198.523 310.878 198.41 311.371 198.305C312.148 198.135 312.878 197.974 313.57 197.699C316.111 196.694 318.092 194.106 318.888 190.759C319.571 187.877 319.372 184.806 319.192 181.839L319.163 181.346C318.85 176.236 318.689 170.833 320.557 165.875C322.273 161.296 326.529 156.49 332.16 156.063C332.833 156.016 333.516 156.025 334.17 156.034C335.099 156.053 335.981 156.072 336.853 155.921C340.901 155.21 343.479 150.982 345.555 147.588C347.631 144.185 350.968 139.672 355.737 139.748C358.685 139.805 361.567 141.834 362.903 144.801C364.051 147.341 364.145 150.479 363.15 153.627C362.875 154.499 362.524 155.399 362.183 156.262C361.102 158.992 360.088 161.58 361.112 163.979C361.567 165.05 362.392 165.922 363.264 166.842C363.586 167.173 363.899 167.515 364.202 167.865C368.487 172.814 369.075 180.711 365.586 186.237C363.273 189.897 359.548 192.437 355.936 194.902C351.385 198.012 347.091 200.941 345.641 205.851C344.892 208.401 345.072 211.046 345.271 213.852C345.441 216.251 345.612 218.735 345.138 221.152C344.181 226.025 340.531 230.319 335.601 232.357C333.345 233.286 331.041 233.665 328.719 233.665ZM333.25 157.134C332.909 157.134 332.568 157.144 332.226 157.172C327.088 157.561 323.173 162.016 321.581 166.273C319.798 171.032 319.95 176.293 320.253 181.289L320.282 181.782C320.471 184.834 320.67 187.991 319.95 191.025C319.078 194.722 316.841 197.604 313.968 198.732C313.191 199.035 312.385 199.215 311.598 199.386C311.124 199.49 310.641 199.595 310.176 199.727C305.986 200.931 302.554 204.865 301.644 209.53C300.327 216.251 304.517 224.356 310.792 227.229C317.656 230.376 327.06 234.689 335.165 231.333C339.754 229.437 343.157 225.456 344.048 220.934C344.493 218.668 344.323 216.26 344.162 213.928C343.963 211.151 343.764 208.278 344.569 205.539C346.124 200.249 350.788 197.064 355.301 193.992C358.818 191.594 362.448 189.11 364.638 185.65C367.88 180.512 367.331 173.184 363.359 168.586C363.065 168.254 362.761 167.922 362.458 167.6C361.557 166.652 360.628 165.666 360.088 164.405C358.884 161.59 360.041 158.67 361.15 155.854C361.481 155.011 361.823 154.139 362.088 153.295C362.998 150.403 362.922 147.55 361.889 145.256C360.723 142.668 358.239 140.905 355.708 140.857C351.499 140.81 348.428 144.99 346.484 148.166C344.294 151.75 341.574 156.215 337.033 157.011C336.056 157.182 335.089 157.163 334.141 157.144C333.829 157.144 333.544 157.134 333.25 157.134Z" fill="#FF9F9E"/>
<path d="M365.718 133.169C363.661 133.169 361.993 131.501 361.993 129.443C361.993 127.386 363.661 125.718 365.718 125.718C367.775 125.718 369.444 127.386 369.444 129.443C369.444 131.501 367.775 133.169 365.718 133.169ZM365.718 126.817C364.268 126.817 363.092 127.993 363.092 129.443C363.092 130.894 364.268 132.069 365.718 132.069C367.169 132.069 368.344 130.894 368.344 129.443C368.344 128.002 367.169 126.817 365.718 126.817Z" fill="#FF9F9E"/>
<path d="M349.29 113.564C349.29 114.322 348.673 114.948 347.906 114.948C347.147 114.948 346.521 114.332 346.521 113.564C346.521 112.796 347.138 112.18 347.906 112.18C348.673 112.189 349.29 112.805 349.29 113.564Z" fill="#FF9F9E"/>
<path d="M200.863 195.024C201.853 195.024 202.655 194.222 202.655 193.232C202.655 192.243 201.853 191.44 200.863 191.44C199.873 191.44 199.071 192.243 199.071 193.232C199.071 194.222 199.873 195.024 200.863 195.024Z" fill="#FF9F9E"/>
<path d="M365.443 203.034C363.538 203.034 361.993 201.489 361.993 199.584C361.993 197.678 363.538 196.133 365.443 196.133C367.349 196.133 368.894 197.678 368.894 199.584C368.894 201.489 367.349 203.034 365.443 203.034ZM365.443 197.232C364.145 197.232 363.092 198.285 363.092 199.584C363.092 200.882 364.145 201.935 365.443 201.935C366.742 201.935 367.794 200.882 367.794 199.584C367.785 198.285 366.733 197.232 365.443 197.232Z" fill="#FF9F9E"/>
<path d="M252.727 192.73C252.727 192.73 242.053 210.401 238.924 225.683H310.905C310.905 225.683 305.378 199.177 299.122 192.911L252.727 192.73Z" fill="#121B46"/>
<path d="M250.984 197.925C253.079 197.802 255.174 197.745 257.269 197.659L263.554 197.508C267.744 197.403 271.934 197.394 276.115 197.375C280.305 197.384 284.495 197.403 288.676 197.498L294.961 197.65C297.056 197.745 299.151 197.792 301.246 197.925C299.151 198.048 297.056 198.105 294.961 198.2L288.676 198.351C284.486 198.456 280.296 198.465 276.115 198.475C271.925 198.465 267.735 198.446 263.554 198.342L257.269 198.19C255.174 198.105 253.079 198.048 250.984 197.925Z" fill="white"/>
<path d="M258.302 198.341C258.046 199.725 257.553 201.062 256.946 202.332C256.34 203.612 255.572 204.816 254.643 205.915C253.695 206.987 252.576 207.982 251.211 208.56C249.874 209.176 248.31 209.281 246.974 208.826C248.386 208.816 249.694 208.475 250.822 207.792C251.951 207.129 252.927 206.209 253.799 205.195C255.553 203.157 256.928 200.777 258.302 198.341Z" fill="white"/>
<path d="M279.841 197.793C280.002 201.338 280.125 204.884 280.191 208.42L280.305 213.738L280.343 219.056V219.265L280.191 219.417C278.267 221.36 276.361 223.322 274.418 225.247L273.479 226.176L273.489 224.858C273.536 220.374 273.517 215.881 273.622 211.397C273.707 206.913 273.811 202.419 274.029 197.935C274.247 202.419 274.352 206.913 274.437 211.397C274.541 215.881 274.522 220.374 274.57 224.858L273.641 224.469C275.565 222.526 277.527 220.621 279.471 218.696L279.319 219.047L279.357 213.729L279.471 208.41C279.556 204.874 279.679 201.329 279.841 197.793Z" fill="white"/>
<path d="M296.127 197.925C296.279 199.205 296.497 200.446 296.81 201.641C297.142 202.826 297.568 203.973 298.232 204.94C298.886 205.916 299.824 206.637 300.915 207.073C302.005 207.566 303.266 207.613 304.555 207.727C303.332 208.059 301.967 208.286 300.649 207.898C299.322 207.575 298.109 206.703 297.331 205.566C296.573 204.419 296.146 203.11 295.976 201.812C295.795 200.503 295.824 199.186 296.127 197.925Z" fill="white"/>
<path d="M335.544 120.113L326.662 120.379C326.662 120.379 323.789 133.442 319.855 150.876C318.556 148.809 317.333 146.856 316.215 145.036C312.252 152.8 307.398 160.033 302.166 167.001C305.133 172.035 308.536 177.524 312.404 183.249C312.461 183.325 312.508 183.411 312.565 183.486C319.428 193.611 335.26 189.895 336.871 177.77C336.89 177.628 336.909 177.495 336.928 177.353C339.336 159.171 339.744 139.253 335.544 120.113Z" fill="#F7BB8B"/>
<path d="M330.292 106.965C330.093 104.652 329.79 102.234 329.411 102.31C328.785 102.443 328.415 104.055 328.15 106.102C328.88 106.33 329.6 106.624 330.292 106.965Z" fill="#F28766"/>
<path d="M334.046 109.809C334.009 107.325 333.828 102.462 333.004 102.016C332.359 101.666 331.648 104.775 331.165 107.439C332.293 108.103 333.298 108.908 334.046 109.809Z" fill="#F28766"/>
<path d="M340.237 106.519C339.649 106.946 338.654 108.14 337.374 111.515C337.374 111.515 338.237 103.922 337.384 102.841C336.701 101.988 335.014 107.771 334.341 110.207C334.767 110.785 335.099 111.401 335.279 112.037C335.545 113.013 335.611 113.895 335.516 114.681C336.568 117.535 334.815 120.881 331.772 121.924C330.587 122.332 329.373 122.389 328.169 122.227C327.231 122.55 326.226 122.645 325.325 122.493C326.008 123.697 326.832 124.92 327.828 126.133L334.009 124.958C334.009 124.958 340.777 112.179 340.863 106.832C340.863 106.491 340.521 106.32 340.237 106.519Z" fill="#F7BB8B"/>
<path d="M318.547 164.651C318.471 162.338 318.575 160.034 318.737 157.74C318.812 156.593 318.926 155.446 319.04 154.309C319.163 153.171 319.296 152.024 319.457 150.886L320.348 151.18C319.23 152.887 318.092 154.574 316.803 156.176C317.609 154.28 318.547 152.479 319.523 150.687L320.547 148.801L320.415 150.981C320.348 152.128 320.244 153.275 320.14 154.413C320.016 155.56 319.903 156.698 319.751 157.835C319.438 160.12 319.078 162.395 318.547 164.651Z" fill="#121B46"/>
<path d="M321.685 103.316L332.34 123.271C332.795 124.134 333.79 124.551 334.729 124.286C336.691 123.736 339.81 122.494 340.578 119.982C341.725 116.237 332.103 97.5996 332.103 97.5996L321.685 103.316Z" fill="#DFDFDF"/>
<path d="M310.233 77.416L306.63 78.4967C305.54 78.819 304.867 79.8998 305.038 81.0184C305.531 84.2795 306.971 91.4084 311.067 100.879C311.522 101.941 312.707 102.49 313.806 102.159L317.001 101.201L310.233 77.416Z" fill="#28AD92"/>
<path d="M327.97 67.7754L311.001 72.8471C308.508 73.596 308.602 81.2843 311.219 90.0152C313.835 98.7557 317.969 105.231 320.471 104.482L337.44 99.4098L327.97 67.7754Z" fill="#35C4A6"/>
<path d="M337.222 82.2426C339.838 90.9831 339.933 98.6618 337.44 99.4107C334.947 100.16 330.804 93.6754 328.188 84.9444C325.571 76.2039 325.476 68.5252 327.97 67.7763C330.463 67.0368 334.605 73.5116 337.222 82.2426Z" fill="#3CDEBC"/>
<path d="M359.973 47.3555L328.547 71.6051L328.652 73.7665C329.059 81.9761 331.695 90.1572 336.141 97.0017L375.312 97.2387L359.973 47.3555Z" fill="#DFDFDF"/>
<path d="M380.716 68.3818C384.887 82.3077 383.114 95.1435 376.763 97.049C371.843 98.5184 365.614 93.0011 361.121 83.9667C359.813 81.3408 358.656 78.4115 357.708 75.2642C356.864 72.4297 356.258 69.6331 355.888 66.9787C354.447 56.5603 356.608 48.1137 361.661 46.5969C368.022 44.7009 376.554 54.4558 380.716 68.3818Z" fill="#C4C4C4"/>
<path d="M367.738 72.2687C370.326 80.9238 370.62 89.1429 368.951 94.5939C364.562 90.9536 360.296 83.9195 357.708 75.2643C355.12 66.6092 354.817 58.3806 356.494 52.9297C360.884 56.57 365.15 63.6135 367.738 72.2687Z" fill="#919191"/>
<path d="M367.889 66.0293L371.292 77.4052L361.13 83.9748C359.822 81.3488 358.665 78.4195 357.717 75.2722C356.873 72.4377 356.267 69.6412 355.897 66.9868L367.889 66.0293Z" fill="#EBEBEB"/>
<path d="M372.183 70.9393C373.122 74.0772 372.724 76.978 371.292 77.4046C369.861 77.8312 367.936 75.6319 366.998 72.494C366.059 69.3562 366.458 66.4553 367.889 66.0287C369.321 65.5927 371.245 67.792 372.183 70.9393Z" fill="#35C4A6"/>
<path d="M331.705 69.7471C332.122 72.155 332.634 74.5344 333.174 76.9044C333.733 79.2649 334.321 81.6159 335.07 83.9101C335.809 86.2137 336.644 88.4794 337.658 90.6692C338.71 92.8401 339.895 94.9447 341.374 96.8975C339.573 95.2291 338.094 93.2193 336.89 91.0579C335.696 88.887 334.795 86.5834 334.018 84.2419C333.278 81.8908 332.728 79.4924 332.33 77.0656C331.932 74.6482 331.705 72.2024 331.705 69.7471Z" fill="#121B46"/>
<path d="M317.987 101.229C320.225 100.11 322.557 99.3043 324.917 98.5838C327.287 97.8918 329.676 97.2851 332.16 96.9912C329.923 98.1193 327.59 98.9156 325.23 99.6361C322.869 100.328 320.481 100.944 317.987 101.229Z" fill="#121B46"/>
<path d="M370.733 71.0362C370.866 71.586 370.98 72.1453 371.036 72.7236C371.055 73.008 371.084 73.3019 371.046 73.6052C371.027 73.7569 370.999 73.9181 370.932 74.0792C370.866 74.2309 370.743 74.43 370.496 74.5058C370.25 74.5817 370.013 74.5058 369.851 74.4205C369.681 74.3352 369.548 74.2214 369.425 74.1077C369.188 73.8707 368.998 73.6242 368.837 73.3588C368.524 72.8279 368.297 72.2591 368.155 71.6714C368.012 71.0836 367.955 70.4769 367.993 69.8607C368.012 69.5478 368.069 69.2445 368.174 68.9222C368.23 68.761 368.297 68.6093 368.411 68.4482C368.515 68.2965 368.685 68.1164 368.941 68.069C369.197 68.0311 369.396 68.1448 369.529 68.2491C369.671 68.3629 369.757 68.4861 369.851 68.6093C370.022 68.8653 370.136 69.1307 370.25 69.3962C370.449 69.9365 370.6 70.4864 370.733 71.0362ZM370.733 71.0362C370.6 70.4864 370.382 69.9555 370.088 69.472C369.946 69.235 369.766 69.017 369.577 68.8274C369.396 68.6473 369.112 68.5335 369.055 68.5999C369.008 68.6378 368.922 68.8463 368.913 69.0833C368.884 69.3203 368.913 69.5763 368.932 69.8417C368.989 70.3631 369.093 70.8845 369.216 71.3964C369.349 71.9083 369.482 72.4297 369.671 72.9132C369.766 73.1502 369.87 73.3967 370.003 73.5958C370.126 73.8043 370.297 73.956 370.363 73.9655C370.449 74.0034 370.648 73.7664 370.724 73.5294C370.809 73.2829 370.866 72.9985 370.885 72.7236C370.923 72.1643 370.866 71.586 370.733 71.0362Z" fill="#121B46"/>
<path d="M362.638 47.6582C365.131 48.1986 367.482 49.3646 369.54 50.9288C370.554 51.7251 371.473 52.6541 372.27 53.6779C373.085 54.7018 373.73 55.8014 374.412 56.8822C377.038 61.2808 379.114 65.9923 380.707 70.8745C381.456 73.3298 382.015 75.8514 382.366 78.4015C382.717 80.9516 382.774 83.5681 382.347 86.1372C381.911 88.6778 381.171 91.2089 379.712 93.3893C378.944 94.4415 377.939 95.3706 376.716 95.8446C375.502 96.3375 374.109 96.2901 372.933 95.7972C373.54 95.9963 374.175 96.0626 374.801 96.0152C375.427 95.9868 376.043 95.8256 376.602 95.5697C377.73 95.0483 378.602 94.1192 379.266 93.0859C380.555 90.9719 381.19 88.4692 381.503 86.0139C382.129 81.0464 381.124 75.9937 379.645 71.2063C378.166 66.3905 376.1 61.7359 373.673 57.3182C373.047 56.228 372.44 55.0999 371.71 54.1045C370.981 53.0997 370.137 52.1706 369.189 51.3554C367.312 49.6869 365.056 48.4356 362.638 47.6582Z" fill="#121B46"/>
<path d="M326.187 124.475C326.187 124.475 322.509 116.379 322.869 114.53C323.239 112.691 327.429 108.179 329.401 108.918C331.382 109.657 328.339 115.364 328.339 115.364C328.339 115.364 333.259 121.346 332.709 124.389C332.169 127.423 326.187 124.475 326.187 124.475Z" fill="#F7BB8B"/>
<path d="M290.25 117.954C290.25 117.954 306.308 126.458 309.067 129.766C311.826 133.084 319.192 148.726 319.192 148.726L303.171 170.264C303.171 170.264 286.069 144.773 290.25 117.954Z" fill="#FDB32C"/>
<path d="M293.435 123.537C292.752 122.399 292.534 121.281 292.648 120.247C291.738 119.593 290.932 118.863 290.202 117.982C289.918 116.958 289.264 114.455 288.771 111.64C288.335 109.118 288.022 106.35 288.24 104.169V104.16C288.344 103.089 288.572 102.16 288.979 101.477L264.578 87.7598C264.597 87.8451 264.606 87.9114 264.625 87.9968C265.014 90.2625 267.953 108.037 264.938 117.47C263.099 118.314 260.843 118.911 258.046 119.015C255.032 119.119 252.074 120.191 249.884 122.257C247.514 124.485 245.41 128.239 245.372 134.496C247.609 134.771 249.837 135.216 252.064 135.614C258.719 136.809 265.365 138.089 272.039 139.188C280.637 140.61 289.463 140.923 298.165 141.89C297.777 135.406 296.506 128.685 293.435 123.537Z" fill="#F7BB8B"/>
<path d="M288.771 111.639C275.508 113.317 268.787 97.4761 268.541 96.8789C270.986 100.766 274.541 102.737 278.011 103.667C282.277 104.833 286.42 104.444 288.164 104.188C288.192 104.178 288.221 104.178 288.249 104.169C288.022 106.349 288.325 109.117 288.771 111.639Z" fill="#EBA771"/>
<path d="M264.332 117.252C264.332 117.252 279.983 134.553 284.581 131.794C289.178 129.035 290.344 118.475 290.344 118.475C290.344 118.475 306.119 132.154 308.328 136.572C310.537 140.99 310.356 149.645 304.83 163.267C299.303 176.89 301.379 195.3 301.379 195.3H250.889C250.889 195.3 255.127 186.465 253.837 176.151C252.548 165.846 240.395 132.884 240.395 132.884C240.395 132.884 238.006 117.802 264.332 117.252Z" fill="#FDB32C"/>
<path d="M263.867 119.091C265.109 120.437 266.351 121.783 267.659 123.054C268.939 124.352 270.257 125.613 271.631 126.808C273.006 127.993 274.399 129.168 275.878 130.183C277.348 131.216 278.902 132.145 280.542 132.761C282.182 133.387 283.927 133.576 285.5 132.903C287.074 132.287 288.24 130.903 289.065 129.348C289.89 127.775 290.373 126.021 290.705 124.239C291.065 122.456 291.226 120.636 291.293 118.807C291.586 122.447 291.349 126.239 289.823 129.718C289.065 131.434 287.757 133.064 285.908 133.861C284.998 134.259 283.993 134.439 282.998 134.392C282.012 134.344 281.054 134.117 280.163 133.794C278.381 133.112 276.769 132.126 275.272 131.026C273.774 129.917 272.371 128.713 271.053 127.424C268.418 124.864 265.991 122.077 263.867 119.091Z" fill="#121B46"/>
<path d="M300.298 139.463C301.161 141.909 302.327 144.165 303.522 146.45C304.697 148.725 305.816 151.199 306.072 153.872C306.347 156.527 305.986 159.181 305.294 161.693C304.602 164.215 303.597 166.604 302.517 168.936C303.199 166.443 303.929 163.978 304.46 161.485C304.972 159.001 305.256 156.47 304.981 153.986C304.763 151.502 303.777 149.161 302.754 146.81C302.242 145.634 301.72 144.44 301.294 143.217C300.877 141.985 300.507 140.733 300.298 139.463Z" fill="#121B46"/>
<path d="M276.665 168.414C278.437 167.779 280.333 167.656 282.191 167.798C284.04 167.969 285.889 168.414 287.529 169.343C285.652 169.258 283.888 169.031 282.097 168.898C280.305 168.727 278.523 168.642 276.665 168.414Z" fill="#121B46"/>
<path d="M235.162 163.913C234.128 162.946 233.085 161.998 232.062 161.031C227.312 156.528 222.411 152.243 217.709 147.759C216.401 149.181 215.074 150.65 213.728 152.167C210.694 155.589 207.604 159.248 204.513 163.116C200.579 168.055 200.418 175.004 204.124 180.123C206.58 183.508 209.158 186.873 211.888 190.172C219.823 199.785 228.914 208.857 239.257 216.374L245.703 210.279C245.703 210.279 236.659 194.135 225.814 174.369C229.019 170.776 232.156 167.268 235.162 163.913Z" fill="#F7BB8B"/>
<path d="M238.831 214.554C238.831 214.554 242.253 228.603 245.741 232.651C245.969 232.907 246.339 232.812 246.414 232.48C246.576 231.769 246.519 230.215 245.239 226.849C245.239 226.849 249.638 233.106 250.993 233.343C252.349 233.58 247.893 224.84 247.893 224.84C247.893 224.84 253.581 231.343 254.814 231.049C256.046 230.764 250.614 222.659 250.614 222.659C250.614 222.659 256.861 229.02 257.297 228.432C258.378 226.972 249.846 217.805 250.908 217.009C251.846 216.308 254.662 217.578 255.989 218.478C256.264 218.668 256.624 218.583 256.776 218.279C257.07 217.682 257.25 216.639 255.923 215.606C253.875 214.004 249.401 210.62 242.679 209.567L238.831 214.554Z" fill="#F7BB8B"/>
<path d="M221.616 170.082C222.631 170.48 223.408 171.115 224.119 171.807C224.811 172.528 225.446 173.296 225.844 174.31C224.83 173.912 224.053 173.277 223.332 172.585C222.65 171.874 222.014 171.096 221.616 170.082Z" fill="#121B46"/>
<path d="M213.329 151.494L231.739 168.434L254.936 144.498C254.936 144.498 256.444 119.66 251.467 119.215C244.082 118.542 220.325 141.369 213.329 151.494Z" fill="#FDB32C"/>
<path d="M247.115 152.499L256.5 143.664L249.694 160.699L247.115 152.499Z" fill="#121B46"/>
<path d="M301.246 81.9208C300.971 74.7256 300.099 67.3313 297.624 60.9608C294.439 52.7701 279.413 49.5849 268.948 58.6856C264.084 62.9136 263.061 70.5829 263.345 77.579C263.089 77.4558 262.861 77.361 262.719 77.3231C260.586 76.7922 258.444 78.3943 257.809 80.404C257.297 81.9967 257.648 83.8073 258.558 85.2104C259.316 86.3764 260.548 87.4666 261.857 87.969C262.188 88.0922 263.658 88.3387 264.701 88.2534C265.705 92.8606 268.047 97.1076 271.678 100.122C276.257 103.924 282.115 105.45 287.945 104.237C292.477 103.298 299.179 100.397 300.847 95.6856C301.284 94.4533 301.321 93.1356 301.34 91.8368C301.35 91.5334 301.35 91.2396 301.35 90.9362C301.369 88.0354 301.369 84.9923 301.246 81.9208Z" fill="#F7BB8B"/>
<path d="M301.339 90.934C300.96 91.0382 300.552 91.0856 300.144 91.0856C297.575 91.0856 295.49 89.0001 295.49 86.431C295.49 83.862 297.575 81.7764 300.144 81.7764C300.524 81.7764 300.893 81.8238 301.244 81.9091C301.367 84.9901 301.367 88.0331 301.339 90.934Z" fill="#EBA771"/>
<path d="M272.321 86.4388C272.321 89.0079 274.407 91.0934 276.976 91.0934C279.545 91.0934 281.631 89.0079 281.631 86.4388C281.631 83.8697 279.545 81.7842 276.976 81.7842C274.407 81.7842 272.321 83.8697 272.321 86.4388Z" fill="#EBA771"/>
<path d="M293.044 77.4054C293.044 78.9222 293.641 80.1546 294.39 80.1546C295.13 80.1546 295.736 78.9222 295.736 77.4054C295.736 75.8886 295.139 74.6562 294.39 74.6562C293.641 74.6563 293.044 75.8886 293.044 77.4054Z" fill="#121B46"/>
<path d="M297.13 73.7848C296.902 74.2304 296.608 74.6191 296.22 74.9603C295.84 75.3016 295.357 75.5671 294.817 75.6903L294.798 75.6998C294.532 75.7567 294.267 75.5955 294.2 75.3301C294.143 75.0646 294.305 74.7992 294.57 74.7328C294.617 74.7234 294.655 74.7234 294.703 74.7234C295.452 74.7518 296.286 74.2968 296.855 73.6332L296.864 73.6237C296.921 73.5573 297.025 73.5478 297.092 73.6047C297.149 73.6332 297.158 73.7185 297.13 73.7848Z" fill="#121B46"/>
<path d="M277.896 77.0356C278.465 77.6992 279.299 78.1542 280.048 78.1258C280.323 78.1163 280.55 78.3249 280.569 78.5998C280.579 78.8747 280.37 79.1022 280.095 79.1212C280.048 79.1212 280.01 79.1212 279.963 79.1117L279.934 79.1022C279.394 78.979 278.91 78.7135 278.531 78.3723C278.152 78.031 277.849 77.6423 277.621 77.1967C277.583 77.1209 277.612 77.0166 277.688 76.9787C277.754 76.9408 277.839 76.9598 277.887 77.0166L277.896 77.0356Z" fill="#121B46"/>
<path d="M279.677 78.1933C280.142 77.6909 280.635 77.3591 281.213 77.1126C281.782 76.8661 282.417 76.7429 283.043 76.7903C283.659 76.8472 284.256 77.0273 284.778 77.3022C285.043 77.4349 285.28 77.615 285.526 77.7667L286.19 78.3165C286.313 78.4208 286.332 78.6104 286.228 78.7337C286.124 78.8569 285.953 78.8759 285.83 78.7905L285.801 78.7716L285.157 78.3165C284.92 78.2028 284.702 78.0511 284.465 77.9658C283.991 77.7572 283.498 77.6624 283.014 77.653C282.531 77.653 282.057 77.7857 281.63 78.0037C281.213 78.2123 280.796 78.563 280.54 78.8948L280.512 78.9327C280.322 79.1697 279.971 79.2077 279.734 79.0181C279.497 78.8285 279.459 78.4777 279.649 78.2407C279.658 78.2217 279.668 78.2028 279.677 78.1933Z" fill="#121B46"/>
<path d="M293.613 85.7305C293.149 86.6405 292.438 87.4179 291.585 88.0341C290.732 88.6503 289.67 89.039 288.58 89.0295C287.489 89.001 286.418 88.6313 285.584 87.9962C285.148 87.7118 284.797 87.3041 284.427 86.9629C284.115 86.5552 283.802 86.1476 283.527 85.7305C283.944 86.0338 284.323 86.3561 284.702 86.669C285.129 86.9249 285.508 87.2378 285.935 87.4558C286.769 87.9298 287.679 88.1953 288.589 88.2142C289.509 88.2332 290.419 87.9488 291.262 87.4937C292.087 87.0292 292.874 86.432 293.613 85.7305Z" fill="#121B46"/>
<path d="M289.983 90.6123C289.604 90.9536 289.073 91.0768 288.57 91.0958C288.058 91.0768 287.546 90.9441 287.158 90.6123C287.651 90.6881 288.106 90.7924 288.57 90.7735C289.035 90.7924 289.49 90.7071 289.983 90.6123Z" fill="#121B46"/>
<path d="M285.205 67.8612C284.579 67.3019 283.868 67.1218 283.119 67.0934C282.38 67.0744 281.621 67.1597 280.901 67.4062C280.171 67.6242 279.507 68.0319 278.948 68.5248C278.37 68.9988 277.953 69.6245 277.611 70.2312C277.441 70.544 277.554 70.9327 277.858 71.1034C278.104 71.2456 278.408 71.1982 278.607 71.018L278.664 70.9706C279.1 70.5725 279.517 70.1933 279.991 69.9184C280.446 69.615 280.948 69.4444 281.46 69.3117C281.972 69.1979 282.503 69.1315 283.053 69.16C283.593 69.1789 284.162 69.2074 284.75 69.0652L284.92 69.0273C285.281 68.9419 285.499 68.5722 285.413 68.212C285.375 68.0698 285.3 67.9466 285.205 67.8612Z" fill="#121B46"/>
<path d="M291.926 67.8603C292.552 67.3009 293.263 67.1208 294.012 67.0924C294.751 67.0734 295.51 67.1587 296.23 67.4052C296.96 67.6233 297.624 68.0309 298.183 68.5238C298.761 68.9978 299.178 69.6235 299.52 70.2302C299.69 70.5431 299.577 70.9317 299.273 71.1024C299.027 71.2446 298.723 71.1972 298.524 71.0171L298.467 70.9697C298.031 70.5715 297.614 70.1923 297.14 69.9174C296.685 69.614 296.183 69.4434 295.671 69.3107C295.159 69.1969 294.628 69.1306 294.078 69.159C293.538 69.178 292.969 69.2064 292.381 69.0642L292.211 69.0263C291.85 68.941 291.632 68.5712 291.718 68.211C291.746 68.0688 291.822 67.9456 291.926 67.8603Z" fill="#121B46"/>
<path d="M288.873 73.1973C289.11 74.2306 289.29 75.2639 289.48 76.2877C289.679 77.3021 289.868 78.3164 290.153 79.2834C290.219 79.5298 290.295 79.7668 290.38 79.9944C290.447 80.184 290.617 80.5442 290.617 80.8855C290.655 81.568 290.21 82.2506 289.65 82.516C289.081 82.8383 288.418 82.7909 287.896 82.6108C287.366 82.4212 286.911 82.1368 286.503 81.7766C287.47 82.1368 288.598 82.4212 289.271 81.9093C289.612 81.6533 289.792 81.3026 289.745 80.9234C289.726 80.7338 289.669 80.6105 289.546 80.3167C289.442 80.0607 289.347 79.7953 289.271 79.5393C288.977 78.487 288.826 77.4348 288.769 76.373C288.712 75.3113 288.74 74.259 288.873 73.1973Z" fill="#121B46"/>
<path d="M259.495 81.9009C259.476 81.2658 259.656 80.5737 260.215 80.0808C260.813 79.5973 261.647 79.6447 262.292 79.8817C262.974 80.1187 263.533 80.5832 263.97 81.1046C264.415 81.6355 264.747 82.2043 265.012 82.8584C265.107 83.0954 264.993 83.3608 264.756 83.4556C264.576 83.5315 264.387 83.4841 264.254 83.3513L264.225 83.3229C263.78 82.8679 263.221 82.3844 262.68 82.2327C262.415 82.1664 262.216 82.1758 262.036 82.3085C261.846 82.4413 261.694 82.7257 261.571 83.0195C261.334 83.6262 261.192 84.3278 261.713 84.6122C262.254 84.9155 263.04 84.8492 263.751 84.7544C263.088 85.0482 262.348 85.2947 261.514 85.0577C261.088 84.9155 260.756 84.4415 260.727 84.0055C260.689 83.5694 260.746 83.1712 260.86 82.7825C260.974 82.4033 261.135 81.9957 261.514 81.6544C261.893 81.3132 262.5 81.2278 262.927 81.3606C263.799 81.626 264.387 82.1284 264.936 82.7067L264.15 83.1712C263.733 82.1189 263.04 81.0193 262.036 80.5263C261.533 80.2893 260.945 80.1661 260.471 80.4315C259.96 80.6875 259.656 81.2942 259.495 81.9009Z" fill="#121B46"/>
<path d="M298.999 63.3494C298.402 60.7613 297.33 58.3629 295.501 56.3722C291.605 52.1062 285.376 50.9496 279.603 50.8169C275.716 50.7221 271.716 51.0065 268.218 52.7034C262.691 55.3673 259.373 61.0078 255.316 65.6056C249.258 72.4785 241.02 77.3796 232.099 79.4368C224.8 81.1147 217.206 80.9062 209.736 81.5792C202.266 82.2428 194.549 83.9682 188.814 88.8029C184.349 92.557 181.296 98.0458 176.092 100.691C173.21 102.17 169.921 102.615 166.688 103.042L161.408 103.724C153.644 104.748 149.245 113.432 153.331 120.125C153.35 120.172 153.388 120.21 153.407 120.267C156.089 124.571 160.412 127.917 162.043 132.733C163.531 137.141 162.507 141.966 162.858 146.602C163.436 153.892 167.579 160.651 173.305 165.192C179.04 169.733 186.235 172.169 193.507 172.966C196.17 173.259 198.853 173.345 201.536 173.212C201.185 169.676 202.19 166.036 204.522 163.106C207.613 159.239 210.703 155.589 213.737 152.148C213.784 152.091 213.831 152.034 213.888 151.986L213.339 151.475C220.335 141.36 244.082 118.522 251.467 119.195C253.249 118.788 254.917 118.797 256.425 119.139C256.956 119.053 257.496 119.006 258.036 118.987C260.833 118.892 263.099 118.304 264.928 117.461C267.857 108.313 265.184 91.334 264.653 88.2341C263.61 88.3194 262.179 88.0824 261.847 87.9592C260.539 87.4662 259.307 86.3666 258.558 85.2005C257.638 83.7975 257.297 81.9963 257.809 80.3942C258.397 78.5457 260.274 77.0573 262.236 77.2469C263.155 78.8206 264.274 80.271 265.563 81.5508C265.961 81.9489 266.445 82.3566 267.014 82.3187C267.744 82.2807 268.218 81.5508 268.559 80.8967C269.005 80.0624 269.763 79.2092 270.208 78.375C275.451 78.6784 280.779 76.3463 284.116 72.2889C285.139 71.047 285.974 69.663 286.808 68.2884C287.926 66.4493 289.036 64.6102 290.154 62.7711C292.628 65.5297 296.544 70.5257 300.222 70.9617C300.222 70.9902 300.345 67.3688 298.999 63.3494Z" fill="#121B46"/>
<path d="M122.721 313.165C120.815 313.857 119.242 314.416 118.151 314.815C115.601 313.459 113.231 313.279 112.075 313.212C111.241 313.165 110.975 313.611 110.899 313.933C110.861 314.094 110.966 314.246 111.127 314.265C111.914 314.359 113.383 314.805 113.516 315.374C113.658 316.018 107.496 316.644 107.439 317.545C107.411 317.905 111.809 317.583 111.809 317.583C111.809 317.583 107.164 318.825 107.534 319.336C107.904 319.848 112.132 319.28 112.132 319.28C112.132 319.28 107.648 321.081 108.235 321.441C108.823 321.801 112.482 320.901 112.482 320.901C110.918 321.735 110.397 322.304 110.226 322.617C110.15 322.768 110.255 322.929 110.425 322.901C112.056 322.673 114.909 320.986 116.843 319.754V319.763L116.853 319.829C119.441 320.066 122.029 320.133 124.607 320.066C123.887 317.801 123.271 315.497 122.721 313.165Z" fill="#F28766"/>
<path d="M150.876 283.436L139.557 306.766L118.568 313.809L119.393 320.853C119.393 320.853 144.249 319.336 148.25 315.326C152.25 311.325 159.844 291.996 160.128 290.062C160.403 288.128 150.876 283.436 150.876 283.436Z" fill="#FDB32C"/>
<path d="M157.853 280.079C157.853 280.079 152.61 285.445 152.81 289.654C153.018 293.863 153.359 316.994 153.359 316.994L151.217 318.027L146.799 316.435C146.799 316.435 148.942 291.995 149.008 289.369C149.074 286.743 149.833 282.743 152.326 281.634C154.81 280.534 157.853 280.079 157.853 280.079Z" fill="#FDB32C"/>
<path d="M89.8445 326.864C80.5257 328.049 74.1457 328.912 74.1457 328.912L72.0791 337.804L90.7545 338.013C90.2805 334.315 89.9961 330.599 89.8445 326.864Z" fill="#F08D6E"/>
<path d="M75.4443 328.502C75.4443 328.502 73.4535 326.426 72.6382 324.615C71.8229 322.805 72.278 314.671 68.2111 315.211V334.019L69.8796 335.688H68.0215V339.442C68.0215 339.442 72.1832 340.892 74.7143 339.537C74.7143 339.537 72.278 336.825 73.3587 333.839C74.4489 330.853 75.4443 328.502 75.4443 328.502Z" fill="#FDB32C"/>
<path d="M85.019 326.237V338.845H174.49C174.49 338.845 171.362 320.805 164.091 318.501C156.82 316.207 85.019 326.237 85.019 326.237Z" fill="#FF5C5B"/>
<path d="M92.1191 324.123L79.0747 331.385L78.0225 337.603L81.0181 341.102L83.8811 340.154C83.8811 340.154 83.9284 340.135 84.0232 340.097C84.9618 339.708 90.3558 337.49 97.9492 334.323C95.9016 330.986 93.9298 327.602 92.1191 324.123Z" fill="#FA9778"/>
<path d="M79.4639 330.198C79.4639 330.198 76.7432 329.26 75.1884 328.027C73.6337 326.795 70.3063 319.353 66.9409 321.704L75.5676 338.417L77.8239 339.138L76.1744 339.991L77.8997 343.328C77.8997 343.328 82.2605 342.702 83.8815 340.342C83.8815 340.342 80.4688 339.052 80.0611 335.905C79.663 332.739 79.4639 330.198 79.4639 330.198Z" fill="#FDB32C"/>
<path d="M84.877 327.07L90.1194 337.839L123.119 324.719C123.119 324.719 161.086 345.84 171.305 341.84C181.525 337.839 182.074 318.225 177.932 315.884C173.789 313.533 151.189 316.671 151.189 316.671L150.042 317.685C150.042 317.685 127.537 308.158 122.152 308.433C116.777 308.708 84.877 327.07 84.877 327.07Z" fill="#FF5C5B"/>
<path d="M90.5464 337.423C93.2008 336.162 95.8836 334.986 98.5853 333.839C101.268 332.673 103.989 331.583 106.71 330.493C109.43 329.412 112.17 328.36 114.91 327.345C117.668 326.359 120.418 325.336 123.205 324.426L123.138 324.691C122.579 323.923 122.02 323.155 121.479 322.378C122.133 323.07 122.769 323.771 123.404 324.482L123.555 324.653L123.337 324.757C120.674 325.99 117.962 327.108 115.27 328.255C112.559 329.374 109.847 330.464 107.117 331.526C104.387 332.578 101.647 333.631 98.8887 334.598C96.1111 335.583 93.343 336.55 90.5464 337.423Z" fill="#121B46"/>
<path d="M153.644 338.807C152.326 338.323 151.037 337.783 149.729 337.271L145.871 335.631C143.292 334.541 140.761 333.365 138.22 332.19C135.699 330.995 133.168 329.791 130.684 328.521L126.949 326.606C125.726 325.933 124.474 325.288 123.271 324.587C124.588 325.07 125.877 325.611 127.186 326.123L131.044 327.763C133.613 328.853 136.154 330.028 138.694 331.204C141.216 332.398 143.747 333.602 146.231 334.873L149.966 336.788C151.189 337.461 152.431 338.096 153.644 338.807Z" fill="#121B46"/>
<path d="M150.194 317.818C151.9 318.245 153.436 318.956 154.943 319.752C156.432 320.568 157.882 321.468 159.171 322.653C157.465 322.236 155.929 321.516 154.422 320.719C152.924 319.894 151.483 319.003 150.194 317.818Z" fill="#121B46"/>
<path d="M161.513 320.853C160.081 321.052 158.707 320.919 157.351 320.71C155.996 320.464 154.659 320.142 153.37 319.478C154.801 319.279 156.176 319.412 157.531 319.62C158.887 319.867 160.224 320.198 161.513 320.853Z" fill="#121B46"/>
<path d="M177.713 282.135C176.633 281.121 175.182 280.59 173.694 280.543C172.319 280.495 171.22 280.201 170.319 279.794C168.821 275.158 170.272 266.399 170.461 265.29C170.471 265.252 170.471 265.214 170.48 265.176L158.469 271.925C158.668 272.257 158.782 272.722 158.83 273.243C158.934 274.314 158.782 275.68 158.574 276.921C158.327 278.315 158.005 279.547 157.863 280.04C156.886 281.225 155.587 281.832 153.853 282.771C153.872 283.216 153.843 283.681 153.758 284.164C153.246 286.961 154.156 290.876 154.023 293.777C153.872 297.161 153.758 300.517 153.786 303.911C153.824 308.129 153.995 312.158 154.298 316.225H177.059C176.405 310.158 177.95 301.133 179.657 291.189C180.52 286.221 179.221 283.557 177.713 282.135Z" fill="#FA9778"/>
<path d="M158.574 276.911C165.105 277.736 168.404 269.943 168.528 269.649C167.324 271.564 165.579 272.531 163.864 272.996C161.759 273.574 159.721 273.375 158.868 273.252C158.858 273.252 158.839 273.252 158.83 273.242C158.943 274.314 158.792 275.669 158.574 276.911Z" fill="#FA7C55"/>
<path d="M157.796 280.277C157.796 280.277 155.246 285.548 157.095 286.752C158.934 287.947 170.442 279.756 170.442 279.756C170.442 279.756 176.699 280.495 178.453 284.913C180.197 289.331 177.714 316.671 177.714 316.671C177.714 316.671 156.545 317.96 151.208 316.671C151.208 316.671 151.303 303.143 150.658 298.905C150.013 294.668 150.402 287.51 151.72 284.619C152.393 283.102 157.796 280.277 157.796 280.277Z" fill="white"/>
<path d="M170.623 279.433C170.623 279.433 160.821 283.993 161.788 288.96C162.755 293.928 167.03 343.223 167.03 343.223C167.03 343.223 179.875 343.64 184.701 341.157C189.536 338.673 178.624 304.981 179.174 301.806C179.724 298.63 182.625 284.41 178.482 281.784C174.349 279.158 170.623 279.433 170.623 279.433Z" fill="#FDB32C"/>
<path d="M167.675 338.483C170.566 339.497 173.495 340.123 176.453 340.141C177.932 340.179 179.401 340.028 180.852 339.715C182.321 339.449 183.715 338.909 185.165 338.388C183.942 339.307 182.577 340.113 181.07 340.549C180.34 340.843 179.553 340.928 178.785 341.099C178.008 341.175 177.221 341.27 176.434 341.241C174.87 341.213 173.306 340.985 171.818 340.521C170.348 340.047 168.917 339.402 167.675 338.483Z" fill="#121B46"/>
<path d="M135.597 293.112L136.983 291.735L128.986 283.683L127.601 285.059L135.597 293.112Z" fill="#121B46"/>
<path d="M131.206 293.814C131.206 293.814 131.652 294.649 131.983 294.8C132.315 294.952 134.031 295.369 134.097 295.36C134.173 295.426 135.747 296.753 138.098 298.687C138.828 297.711 139.577 296.734 140.345 295.758C140.866 295.094 141.359 294.421 141.861 293.739C140.828 293.265 139.956 292.876 139.292 292.573L137.795 291.407C137.121 290.572 135.178 287.425 134.268 287.491C133.168 287.567 133.235 288.003 133.235 288.003C133.235 288.003 134.932 290.174 134.552 291.037C134.192 291.852 130.467 287.795 130.467 287.795L129.481 287.008C129.481 287.008 129.31 289.283 130.125 290.041C130.125 290.041 129.642 291.283 130.542 292.231C130.533 292.222 130.58 293.445 131.206 293.814Z" fill="#FA9778"/>
<path d="M169.656 283.026L162.205 301.664L138.316 291.445C138.316 291.445 134.173 296.687 134.59 296.829C135.007 296.971 156.128 317.543 164.964 316.016C173.799 314.5 179.733 288.544 179.733 288.544L169.656 283.026Z" fill="#FDB32C"/>
<path d="M164.641 316.111C164.641 316.111 167.314 315.836 169.059 313.438C170.803 311.049 177.069 298.346 177.069 298.346C177.069 298.346 173.666 320.349 164.641 316.111Z" fill="#121B46"/>
<path d="M165.932 303.408C165.183 303.351 164.5 303.142 163.837 302.915C163.173 302.678 162.538 302.384 161.922 302.052L160.632 301.351L162.026 301.057C162.955 300.858 163.912 300.734 164.927 300.839C164.102 301.436 163.211 301.796 162.301 302.09L162.396 301.095C163.04 301.37 163.656 301.692 164.254 302.071C164.841 302.45 165.42 302.858 165.932 303.408Z" fill="#121B46"/>
<path d="M141.264 302.764C143.16 303.674 144.847 304.859 146.478 306.101C148.099 307.371 149.663 308.708 151.019 310.31C149.123 309.4 147.435 308.215 145.805 306.973C144.183 305.702 142.619 304.366 141.264 302.764Z" fill="#121B46"/>
<path d="M145.493 294.393C146.47 294.364 147.313 294.649 148.119 294.999C148.906 295.379 149.664 295.843 150.281 296.601C149.295 296.63 148.46 296.355 147.655 295.995C146.868 295.606 146.109 295.151 145.493 294.393Z" fill="#121B46"/>
<path d="M166.206 287.576C166.253 286.742 166.5 285.946 166.841 285.188C167.182 284.429 167.638 283.709 168.216 283.083C168.804 282.467 169.505 281.926 170.32 281.614C171.145 281.31 172.046 281.263 172.842 281.5C172.036 281.727 171.335 282.002 170.709 282.382C170.093 282.799 169.543 283.273 169.031 283.832C168.51 284.363 168.064 284.988 167.6 285.614L166.206 287.576Z" fill="#121B46"/>
<path d="M173.808 261.547C173.495 260.561 172.443 259.774 171.391 260.03C171.315 260.049 171.201 260.097 171.078 260.154C171.22 256.712 170.718 252.939 168.319 250.854C163.162 246.37 155.777 247.943 154.204 251.972C152.412 256.58 152.317 262.287 152.383 267.169C152.393 267.804 152.412 268.458 152.62 269.065C153.436 271.378 156.744 272.809 158.972 273.274C161.844 273.871 164.726 273.122 166.973 271.245C168.755 269.757 169.912 267.671 170.405 265.405C170.917 265.453 171.637 265.33 171.798 265.263C172.443 265.017 173.05 264.476 173.419 263.908C173.893 263.225 174.064 262.334 173.808 261.547Z" fill="#FA9778"/>
<path d="M156.138 260.067C156.138 260.815 155.844 261.422 155.474 261.422C155.104 261.422 154.811 260.815 154.811 260.067C154.811 259.318 155.104 258.711 155.474 258.711C155.844 258.711 156.138 259.318 156.138 260.067Z" fill="#121B46"/>
<path d="M161.209 261.422C161.576 261.422 161.873 260.815 161.873 260.067C161.873 259.318 161.576 258.711 161.209 258.711C160.843 258.711 160.545 259.318 160.545 260.067C160.545 260.815 160.843 261.422 161.209 261.422Z" fill="#121B46"/>
<path d="M155.863 264.162C156.09 264.608 156.441 264.996 156.858 265.3C157.275 265.603 157.797 265.793 158.337 265.793C158.877 265.783 159.399 265.594 159.806 265.281C160.024 265.139 160.195 264.939 160.375 264.769C160.527 264.57 160.679 264.371 160.821 264.162C160.612 264.314 160.432 264.475 160.243 264.627C160.034 264.75 159.844 264.911 159.636 265.015C159.228 265.252 158.773 265.376 158.328 265.385C157.873 265.394 157.427 265.252 157.01 265.034C156.612 264.807 156.223 264.513 155.863 264.162Z" fill="#121B46"/>
<path d="M157.644 266.569C157.834 266.74 158.09 266.797 158.336 266.806C158.583 266.797 158.839 266.73 159.038 266.569C158.791 266.607 158.573 266.655 158.336 266.645C158.109 266.655 157.891 266.617 157.644 266.569Z" fill="#121B46"/>
<path d="M159.996 255.375C160.309 255.1 160.65 255.014 161.02 254.995C161.38 254.986 161.759 255.033 162.11 255.147C162.47 255.261 162.793 255.46 163.068 255.697C163.352 255.924 163.56 256.237 163.722 256.541C163.807 256.692 163.75 256.882 163.598 256.967C163.475 257.034 163.333 257.015 163.229 256.92L163.2 256.891C162.982 256.692 162.774 256.512 162.546 256.37C162.328 256.218 162.072 256.142 161.826 256.076C161.57 256.019 161.314 255.991 161.048 256C160.783 256.01 160.498 256.019 160.214 255.953L160.129 255.934C159.949 255.886 159.844 255.706 159.882 255.536C159.911 255.469 159.949 255.412 159.996 255.375Z" fill="#121B46"/>
<path d="M156.688 255.375C156.375 255.1 156.034 255.014 155.664 254.995C155.304 254.986 154.924 255.033 154.574 255.147C154.214 255.261 153.891 255.46 153.616 255.697C153.332 255.924 153.123 256.237 152.962 256.541C152.877 256.692 152.934 256.882 153.085 256.967C153.209 257.034 153.351 257.015 153.455 256.92L153.484 256.891C153.702 256.692 153.91 256.512 154.138 256.37C154.356 256.218 154.612 256.142 154.858 256.076C155.114 256.019 155.37 255.991 155.635 256C155.901 256.01 156.185 256.019 156.47 255.953L156.555 255.934C156.735 255.886 156.839 255.706 156.801 255.536C156.773 255.469 156.735 255.412 156.688 255.375Z" fill="#121B46"/>
<path d="M157.01 257.878C156.896 258.39 156.811 258.892 156.716 259.395C156.621 259.897 156.526 260.4 156.384 260.874C156.355 260.997 156.318 261.111 156.27 261.224C156.232 261.319 156.156 261.499 156.156 261.66C156.137 262.002 156.356 262.333 156.63 262.466C156.915 262.627 157.237 262.599 157.493 262.514C157.749 262.419 157.977 262.277 158.176 262.106C157.702 262.286 157.142 262.428 156.811 262.172C156.64 262.049 156.555 261.878 156.574 261.689C156.583 261.594 156.611 261.537 156.668 261.385C156.716 261.262 156.763 261.13 156.801 261.006C156.943 260.494 157.019 259.973 157.048 259.452C157.085 258.911 157.076 258.39 157.01 257.878Z" fill="#121B46"/>
<path d="M173.04 262.152C173.049 261.839 172.964 261.498 172.689 261.251C172.395 261.014 171.978 261.033 171.665 261.157C171.334 261.27 171.059 261.498 170.841 261.754C170.623 262.01 170.461 262.294 170.329 262.617C170.281 262.73 170.338 262.863 170.452 262.91C170.537 262.948 170.632 262.92 170.698 262.863L170.717 262.844C170.935 262.616 171.21 262.379 171.476 262.304C171.609 262.266 171.703 262.275 171.798 262.342C171.893 262.408 171.959 262.55 172.026 262.692C172.139 262.986 172.215 263.337 171.959 263.47C171.694 263.621 171.305 263.583 170.954 263.536C171.286 263.678 171.646 263.801 172.054 263.688C172.263 263.621 172.433 263.384 172.443 263.166C172.462 262.948 172.433 262.759 172.376 262.569C172.32 262.379 172.244 262.18 172.054 262.019C171.865 261.849 171.571 261.811 171.362 261.877C170.935 262.01 170.642 262.256 170.376 262.541L170.765 262.768C170.973 262.247 171.315 261.706 171.808 261.469C172.054 261.356 172.348 261.289 172.576 261.422C172.803 261.555 172.955 261.858 173.04 262.152Z" fill="#121B46"/>
<path d="M174.339 256.606C173.941 255.346 173.334 253.905 172.026 253.677C172.519 252.587 172.51 251.269 171.988 250.179C171.533 249.241 170.728 248.492 169.855 247.913C168.642 247.108 167.248 246.567 165.798 246.359C163.589 246.036 161.333 246.472 159.153 246.899C158.015 247.117 156.593 247.307 155.455 247.525C154.318 246.634 152.517 247.108 151.597 248.217C150.668 249.335 150.45 250.881 150.478 252.322C150.554 255.184 151.474 257.934 152.507 260.607C152.583 259.498 152.706 258.398 152.867 257.308C153.266 256.123 153.967 255.023 154.839 254.123C157.598 256.919 162.025 257.915 165.713 256.588C165.826 257.507 166.054 258.341 166.424 259.194C166.86 260.199 167.59 261.223 168.67 261.422C169.144 261.508 169.723 261.356 169.884 260.91C170.026 260.503 171.059 260.105 171.059 260.142C171.183 260.086 171.287 260.048 171.372 260.019C172.424 259.754 173.467 260.55 173.78 261.536C174.036 262.323 173.865 263.214 173.42 263.897C173.041 264.475 172.443 265.015 171.799 265.252C171.638 265.319 170.917 265.442 170.396 265.394C170.14 266.589 169.704 267.736 169.069 268.76C169.96 268.855 170.879 268.807 171.676 268.381C172.804 267.783 173.458 266.579 174.008 265.432C174.501 264.408 174.965 263.366 175.145 262.247C175.458 260.37 174.908 258.455 174.339 256.606Z" fill="#121B46"/>
<path d="M106.851 116.503C104.718 113.962 101.552 112.265 98.2244 112.246C94.2902 112.227 90.1285 114.19 86.5925 112.464C81.8526 110.151 81.4734 102.7 76.6576 100.548C73.3017 99.0504 69.5003 100.87 65.8979 101.553C59.7644 102.719 53.081 100.235 49.1943 95.3532C47.687 93.4667 46.5778 91.2674 44.8714 89.561C41.6862 86.3757 36.6524 85.3993 32.3201 86.6506C27.9972 87.902 24.4043 91.1726 22.2429 95.1162C20.565 98.1687 19.3326 101.97 16.1094 103.278C12.4122 104.776 8.00409 102.112 4.29744 103.582C1.63359 104.643 0.145245 107.63 0.0125264 110.493C-0.0822727 112.531 0.37276 114.531 0.979474 116.493H106.851V116.503Z" fill="#E3F2FF"/>
<path d="M556 163.903C555.289 162.121 553.545 160.68 551.8 160.121C549.25 159.306 546.444 159.495 544.065 158.159C541.401 156.661 539.258 153.276 536.301 153.608C533.931 153.874 532.215 156.519 529.873 157.049C525.038 158.149 521.815 150.053 516.886 150.044C513.947 150.044 511.492 152.992 508.553 153.106C504.742 153.239 502.23 148.849 499.907 145.389C496.457 140.261 490.484 135.995 485.375 138.753C481.981 140.583 480.246 144.849 478.397 148.593C476.549 152.338 473.743 156.225 469.989 156.234C466.045 156.244 462.073 151.892 458.632 154.111C457.011 155.153 456.233 157.419 456.243 159.552C456.252 161.04 456.584 162.5 457.001 163.922H556V163.903Z" fill="#E3F2FF"/>
</svg>
