<svg width="1633" height="1587" viewBox="0 0 1633 1587" fill="none" xmlns="http://www.w3.org/2000/svg">
<path d="M9.22845 57.8733C4.38547 27.5021 27.8497 0 58.6047 0H1282.36C1306.94 0 1327.87 17.8583 1331.74 42.1265L1568.79 1528.72C1573.64 1559.1 1550.17 1586.6 1519.42 1586.6H295.657C271.082 1586.6 250.15 1568.74 246.281 1544.47L9.22845 57.8733Z" fill="url(#paint0_linear_287_3028)"/>
<path d="M1401.71 1143.66C1412.2 1139.28 1421.12 1132 1427.39 1122.74C1433.65 1113.48 1436.97 1102.65 1436.94 1091.57C1437.36 1060.31 1413.18 1034.64 1382.91 1034.27C1352.64 1033.89 1327.82 1058.93 1327.43 1090.19C1327.11 1101.37 1330.22 1112.39 1336.35 1121.86C1342.49 1131.32 1351.39 1138.81 1361.91 1143.38C1277.65 1154.98 1280.57 1243.92 1280.57 1243.92L1479.84 1246.47C1479.84 1246.47 1485.06 1156.58 1401.71 1143.66Z" fill="white"/>
<path d="M181.125 877.466L192.301 875.145L209.462 836.512L204.76 814.543C204.76 814.543 221.799 809.902 225.952 839.133C230.105 868.365 230.716 860.56 230.716 860.56C230.716 860.56 267.359 853.056 271.115 855.557C273.832 857.365 282.535 893.076 287.116 912.483C288.368 917.139 288.005 922.075 286.084 926.504C284.164 930.934 280.797 934.601 276.52 936.923C275.309 937.529 274.027 937.985 272.703 938.279C263.542 940.177 215.264 942.618 215.264 942.618L195.966 946.656L181.125 877.466Z" fill="white"/>
<path d="M146.891 878.444L170.009 950.55L189.178 946.642L173.286 874.624L146.891 878.444Z" fill="white"/>
<path d="M632.671 425.744H470.019C466.618 425.744 463.356 427.05 460.951 429.375C458.546 431.7 457.195 434.854 457.195 438.142V542.363C457.195 545.651 458.546 548.804 460.951 551.129C463.356 553.454 466.618 554.76 470.019 554.76H555.657L596.376 594.092V554.905H632.671C635.19 554.896 637.603 553.921 639.381 552.196C641.159 550.47 642.157 548.133 642.157 545.698V435.097C642.177 433.879 641.946 432.669 641.479 431.537C641.012 430.405 640.317 429.375 639.434 428.505C638.552 427.635 637.5 426.943 636.339 426.469C635.178 425.995 633.931 425.749 632.671 425.744Z" fill="white"/>
<path d="M588.279 501.835C593.559 501.835 597.84 497.696 597.84 492.591C597.84 487.485 593.559 483.347 588.279 483.347C582.999 483.347 578.719 487.485 578.719 492.591C578.719 497.696 582.999 501.835 588.279 501.835Z" fill="#C339F2"/>
<path d="M540.852 492.591C540.844 494.429 541.402 496.228 542.454 497.76C543.506 499.292 545.004 500.487 546.76 501.194C548.515 501.901 550.448 502.087 552.314 501.73C554.179 501.374 555.893 500.489 557.238 499.189C558.582 497.889 559.497 496.232 559.866 494.428C560.235 492.625 560.042 490.756 559.311 489.059C558.58 487.362 557.344 485.913 555.76 484.896C554.175 483.879 552.314 483.34 550.413 483.347C547.877 483.347 545.445 484.321 543.652 486.054C541.859 487.788 540.852 490.139 540.852 492.591Z" fill="#C339F2"/>
<path d="M512.577 501.835C517.857 501.835 522.138 497.696 522.138 492.591C522.138 487.485 517.857 483.347 512.577 483.347C507.296 483.347 503.016 487.485 503.016 492.591C503.016 497.696 507.296 501.835 512.577 501.835Z" fill="#C339F2"/>
<path d="M1599.85 204.216C1599.07 200.491 1596.96 197.15 1593.88 194.787C1590.81 192.423 1586.96 191.188 1583.03 191.301C1579.11 191.414 1575.34 192.867 1572.42 195.403C1569.49 197.939 1567.59 201.395 1567.04 205.158C1566.46 201.405 1564.52 197.971 1561.57 195.465C1558.62 192.96 1554.85 191.542 1550.92 191.464C1547 191.386 1543.17 192.652 1540.11 195.039C1537.06 197.425 1534.98 200.778 1534.23 204.506C1533.45 210.035 1534.9 215.642 1538.28 220.166C1541.64 224.615 1545.57 228.635 1549.98 232.129C1555.98 237.277 1561.49 242.098 1567.45 247.245C1573.38 242.062 1578.4 237.168 1584.33 231.984C1588.72 228.458 1592.63 224.401 1595.95 219.912C1599.28 215.358 1600.68 209.738 1599.85 204.216Z" fill="white"/>
<path d="M1092.77 1586.06L978.3 1178.38L637.697 1175.23C603.952 1293.8 583.892 1445.08 574.781 1586.06" fill="#A016D1"/>
<path d="M714.677 1476.8C718.049 1478.63 721.671 1480 725.438 1480.86C729.972 1481.67 734.651 1481.26 738.961 1479.68C743.272 1478.09 747.047 1475.39 749.874 1471.87C752.701 1468.34 754.471 1464.13 754.988 1459.7C755.506 1455.27 754.752 1450.79 752.809 1446.75C751.053 1443.42 748.791 1440.36 746.097 1437.68C746.097 1437.68 747.184 1438.15 748.722 1439.46C750.924 1441.35 752.743 1443.63 754.083 1446.17C756.087 1449.98 757.043 1454.22 756.858 1458.49C756.646 1463.75 754.746 1468.82 751.421 1472.99C748.044 1477.13 743.438 1480.16 738.223 1481.69C733.986 1482.92 729.49 1483.07 725.175 1482.13C722.301 1481.5 719.569 1480.37 717.114 1478.79C715.426 1477.67 714.602 1477.01 714.677 1476.8Z" fill="#C339F2"/>
<path d="M828.962 1376.38C827.054 1375.29 824.838 1374.79 822.625 1374.97C821.511 1375.18 820.464 1375.63 819.571 1376.31C818.678 1376.98 817.964 1377.85 817.488 1378.85C816.926 1380.06 816.758 1381.4 817.005 1382.7C817.252 1384.01 817.903 1385.2 818.871 1386.14C819.839 1387.08 821.079 1387.71 822.426 1387.94C823.773 1388.18 825.163 1388.02 826.412 1387.48C827.445 1387.02 828.349 1386.33 829.047 1385.47C829.746 1384.6 830.218 1383.59 830.424 1382.51C830.602 1380.37 830.091 1378.23 828.962 1376.38C828.962 1376.38 829.637 1376.64 830.424 1377.65C831.503 1379.11 831.984 1380.91 831.774 1382.69C831.637 1384.04 831.141 1385.34 830.333 1386.45C829.524 1387.56 828.432 1388.45 827.162 1389.04C825.588 1389.76 823.819 1390 822.1 1389.71C820.38 1389.43 818.794 1388.64 817.561 1387.44C816.327 1386.25 815.506 1384.72 815.211 1383.06C814.916 1381.39 815.162 1379.68 815.914 1378.16C816.522 1376.94 817.444 1375.88 818.593 1375.1C819.742 1374.32 821.078 1373.84 822.475 1373.7C824.32 1373.5 826.177 1373.96 827.687 1375.01C828.699 1375.73 829.037 1376.35 828.962 1376.38Z" fill="#C339F2"/>
<path d="M896.83 1540.64C894.919 1539.54 892.705 1539.05 890.493 1539.22C889.377 1539.42 888.327 1539.88 887.433 1540.55C886.539 1541.23 885.826 1542.1 885.356 1543.1C884.794 1544.31 884.626 1545.65 884.873 1546.95C885.12 1548.26 885.771 1549.46 886.739 1550.39C887.707 1551.33 888.947 1551.96 890.294 1552.2C891.641 1552.43 893.031 1552.27 894.28 1551.73C895.309 1551.27 896.21 1550.58 896.908 1549.72C897.606 1548.85 898.08 1547.84 898.292 1546.76C898.477 1544.62 897.966 1542.48 896.83 1540.64C896.83 1540.64 897.505 1540.89 898.292 1541.9C899.362 1543.36 899.843 1545.14 899.642 1546.91C899.479 1548.25 898.963 1549.53 898.142 1550.62C897.321 1551.71 896.224 1552.58 894.955 1553.14C893.381 1553.87 891.612 1554.11 889.892 1553.82C888.173 1553.54 886.587 1552.74 885.354 1551.55C884.12 1550.36 883.299 1548.82 883.004 1547.16C882.709 1545.5 882.955 1543.79 883.706 1542.27C884.309 1541.04 885.23 1539.98 886.38 1539.2C887.529 1538.42 888.869 1537.94 890.268 1537.81C892.112 1537.6 893.97 1538.07 895.48 1539.11C896.567 1539.98 896.905 1540.56 896.83 1540.64Z" fill="#C339F2"/>
<path d="M631.364 1444.61C631.364 1444.79 629.976 1444.79 627.614 1445.44C624.32 1446.39 621.437 1448.35 619.403 1451.02C617.765 1453.18 616.775 1455.72 616.54 1458.39C616.306 1461.05 616.837 1463.72 618.074 1466.11C619.311 1468.5 621.207 1470.51 623.552 1471.92C625.897 1473.34 628.601 1474.09 631.364 1474.12C634.13 1474.1 636.838 1473.35 639.189 1471.94C641.539 1470.53 643.44 1468.51 644.682 1466.12C645.924 1463.73 646.458 1461.06 646.225 1458.39C645.992 1455.73 645.001 1453.18 643.362 1451.02C641.314 1448.34 638.418 1446.38 635.113 1445.44C632.788 1444.79 631.364 1444.79 631.364 1444.61C632.657 1444.3 634.007 1444.3 635.301 1444.61C638.926 1445.35 642.165 1447.3 644.449 1450.12C646.171 1452.22 647.312 1454.71 647.764 1457.35C648.217 1460 647.966 1462.71 647.036 1465.23C645.889 1468.36 643.768 1471.07 640.965 1472.98C638.162 1474.9 634.814 1475.92 631.382 1475.92C627.951 1475.92 624.603 1474.9 621.8 1472.98C618.997 1471.07 616.876 1468.36 615.728 1465.23C614.798 1462.71 614.548 1460 615.001 1457.35C615.453 1454.71 616.594 1452.22 618.315 1450.12C620.582 1447.3 623.81 1445.34 627.427 1444.61C628.719 1444.3 630.071 1444.3 631.364 1444.61Z" fill="#C339F2"/>
<path d="M882.47 1447.69C882.47 1447.69 881.046 1447.69 878.721 1448.52C875.416 1449.46 872.52 1451.42 870.472 1454.1C868.795 1456.26 867.771 1458.82 867.516 1461.5C867.262 1464.19 867.786 1466.89 869.03 1469.3C870.274 1471.71 872.189 1473.74 874.56 1475.16C876.931 1476.58 879.664 1477.33 882.452 1477.33C885.24 1477.33 887.972 1476.58 890.343 1475.16C892.714 1473.74 894.629 1471.71 895.873 1469.3C897.117 1466.89 897.642 1464.19 897.387 1461.5C897.132 1458.82 896.109 1456.26 894.431 1454.1C892.405 1451.42 889.519 1449.46 886.22 1448.52C883.858 1447.87 882.47 1447.87 882.47 1447.69C883.765 1447.39 885.113 1447.39 886.407 1447.69C890.029 1448.41 893.27 1450.35 895.556 1453.16C897.262 1455.27 898.39 1457.76 898.836 1460.4C899.281 1463.05 899.03 1465.75 898.106 1468.28C896.968 1471.41 894.852 1474.12 892.051 1476.04C889.251 1477.96 885.903 1478.99 882.47 1478.99C879.038 1478.99 875.69 1477.96 872.889 1476.04C870.089 1474.12 867.973 1471.41 866.835 1468.28C865.911 1465.75 865.66 1463.05 866.105 1460.4C866.551 1457.76 867.679 1455.27 869.385 1453.16C871.671 1450.35 874.911 1448.41 878.533 1447.69C879.828 1447.4 881.176 1447.4 882.47 1447.69Z" fill="#C339F2"/>
<path d="M651.533 1543.72C655.737 1543.72 659.145 1540.42 659.145 1536.36C659.145 1532.29 655.737 1529 651.533 1529C647.33 1529 643.922 1532.29 643.922 1536.36C643.922 1540.42 647.33 1543.72 651.533 1543.72Z" fill="#C339F2"/>
<path d="M790.002 1334.12C794.206 1334.12 797.613 1330.82 797.613 1326.76C797.613 1322.69 794.206 1319.4 790.002 1319.4C785.798 1319.4 782.391 1322.69 782.391 1326.76C782.391 1330.82 785.798 1334.12 790.002 1334.12Z" fill="#C339F2"/>
<path d="M939.983 1383.74C944.186 1383.74 947.594 1380.45 947.594 1376.38C947.594 1372.32 944.186 1369.02 939.983 1369.02C935.779 1369.02 932.371 1372.32 932.371 1376.38C932.371 1380.45 935.779 1383.74 939.983 1383.74Z" fill="#C339F2"/>
<path d="M762.823 1366.6C762.446 1367.38 761.994 1368.14 761.473 1368.84L757.236 1374.97L741.601 1397.05L741.001 1397.88L740.364 1397.05C733.727 1388.42 725.891 1378.23 717.417 1367.14H718.917L706.768 1382.76L695.745 1397.26L694.92 1398.32L694.17 1397.23L673.248 1367.14H674.485L654.838 1388.89L649.326 1394.8C648.696 1395.53 647.992 1396.2 647.227 1396.79C647.733 1395.99 648.31 1395.22 648.951 1394.51L654.163 1388.31L673.285 1366.27L673.96 1365.51L674.56 1366.34C680.784 1375.15 687.983 1385.27 695.745 1396.29H694.208L705.193 1382L717.417 1366.27L718.167 1365.25L718.954 1366.27L741.451 1396.39H740.176L756.374 1374.64L760.948 1368.73C761.475 1367.95 762.105 1367.23 762.823 1366.6Z" fill="#C339F2"/>
<path d="M838.26 1508.95C838.115 1509.81 837.863 1510.65 837.51 1511.45C836.798 1513.23 835.936 1515.55 834.848 1518.34L824.875 1543.28L824.462 1544.26L823.637 1543.57L794.204 1519.57L795.704 1519.21C793.079 1525.01 790.379 1531.07 787.605 1537.34L780.106 1553.65L779.543 1554.85L778.569 1553.98C768.445 1544.91 759.146 1536.54 751.047 1529.32L752.285 1529.11L738.299 1554.48C736.687 1557.35 735.337 1559.67 734.287 1561.48C733.864 1562.33 733.349 1563.13 732.75 1563.87C733.036 1562.97 733.413 1562.09 733.875 1561.26L737.624 1554.01C740.961 1547.6 745.536 1538.86 751.01 1528.31L751.497 1527.4L752.285 1528.09L779.993 1552.53L778.494 1552.85L785.805 1536.54C788.617 1530.34 791.317 1524.29 793.941 1518.41L794.466 1517.25L795.441 1518.09L824.65 1542.38L823.412 1542.67C827.799 1532.52 831.399 1524.1 834.023 1517.98L837.06 1511.2C837.376 1510.41 837.778 1509.66 838.26 1508.95Z" fill="#C339F2"/>
<path d="M967.354 1444.61C968.157 1444.99 968.912 1445.47 969.604 1446.02L975.715 1450.41L997.687 1466.65L998.549 1467.26L997.65 1467.84L965.592 1488.47V1486.98L981.264 1499.56L995.4 1510.95L996.45 1511.78L995.287 1512.43L963.117 1531.1V1529.91L984.414 1549.99L990.263 1555.64C990.996 1556.26 991.639 1556.96 992.175 1557.75C991.381 1557.21 990.629 1556.61 989.926 1555.97L983.814 1550.6L961.992 1531.03L961.242 1530.34L962.142 1529.8L994.125 1510.84V1512.36L979.99 1501.01C974.59 1496.7 969.379 1492.46 964.317 1488.43L963.342 1487.6L964.429 1486.95L996.675 1466.61V1467.81C987.788 1460.96 980.477 1455.23 975.115 1451.06L969.229 1446.38C967.991 1445.26 967.279 1444.68 967.354 1444.61Z" fill="#C339F2"/>
<g opacity="0.2">
<path opacity="0.2" d="M586.781 1450.66L1045.45 1417.6L1035.52 1382.15H595.593L586.781 1450.66Z" fill="black"/>
</g>
<path d="M827.686 1555.32C827.161 1555.32 827.049 1524.65 827.461 1486.84C827.874 1449.03 828.699 1418.36 829.224 1418.4C829.748 1418.43 829.861 1449.03 829.448 1486.84C829.036 1524.65 828.211 1555.32 827.686 1555.32Z" fill="#263238"/>
<path d="M923.488 1555.32C922.796 1553.75 922.244 1552.12 921.839 1550.46C920.826 1546.83 919.514 1542.45 918.089 1537.05C914.864 1525.74 910.327 1510.15 905.115 1492.97C899.903 1475.78 894.879 1460.34 891.242 1449.14L886.967 1435.87C886.375 1434.27 885.924 1432.62 885.617 1430.94C886.481 1432.42 887.173 1433.99 887.679 1435.62C888.879 1438.7 890.567 1443.16 892.554 1448.7C896.528 1459.83 901.703 1475.24 906.99 1492.46C912.277 1509.68 916.514 1525.3 919.401 1536.72C920.864 1542.41 921.988 1547.05 922.701 1550.28C923.15 1551.93 923.414 1553.62 923.488 1555.32Z" fill="#263238"/>
<path d="M1305.33 1017.61L1237.13 1060.57V398.522H1305.33V1017.61Z" fill="white"/>
<path d="M1236.76 978.894C1268.03 886.129 1254.04 782.488 1288.65 690.375C1291.95 681.53 1295.77 672.467 1294.8 663.223C1293.56 655.216 1289.91 647.74 1284.3 641.727C1278.15 634.477 1268.96 628.024 1258.46 628.713C1254.18 629.151 1250.09 630.653 1246.59 633.074C1243.09 635.494 1240.29 638.75 1238.48 642.524C1235.59 649.623 1234.31 657.238 1234.73 664.855C1234.17 693.021 1234.32 721.188 1234.51 749.319C1234.88 820.201 1235.27 891.047 1235.67 961.856" fill="white"/>
<path d="M1236.49 567.558V543.053L1304.69 524.166V552.442L1236.49 567.558Z" fill="white"/>
<path d="M409.813 669.313C409.813 669.313 404.901 632.483 407.113 619.469C409.475 605.621 433.359 576.294 433.359 576.294C433.022 575.026 429.085 571.835 416.862 576.294C404.638 580.753 400.364 589.055 388.778 597.03L329.461 561.468L310.039 621.499L360.432 698.205L409.813 669.313Z" fill="#FFAD9D"/>
<path d="M671.857 528.479C641.224 557.48 670.657 602.612 651.01 631.758C639.124 649.412 613.515 657.967 608.153 678.34C605.454 688.454 608.491 699.039 610.103 709.334C611.715 719.629 611.34 731.52 603.579 738.77C599.658 741.749 595.537 744.474 591.243 746.926C579.245 755.445 575.195 771.323 576.545 785.642C577.895 799.961 583.669 813.446 587.794 827.294C599.158 866.643 596.638 908.531 580.632 946.341C587.666 946.376 594.616 944.863 600.956 941.917C607.296 938.972 612.86 934.671 617.227 929.34C616.889 938.946 616.515 948.516 616.14 958.123C629.338 958.92 642.086 952.069 650.897 942.535C659.244 932.593 665.602 921.234 669.645 909.039C690.426 854.914 697.272 796.713 689.592 739.458" fill="#263238"/>
<path d="M924.649 445.611C942.145 470.717 949.472 501.169 945.234 531.163C942.797 548.02 936.76 565.529 942.759 581.551C947.896 595.327 961.507 606.564 960.869 621.21C960.007 637.885 940.547 649.159 938.822 665.762C936.385 688.781 968.331 704.26 967.993 727.388C967.806 739.314 958.957 749.138 952.995 759.506C947.034 769.874 944.147 784.882 953.745 792.313L842.461 784.628L862.258 448.258L924.649 445.611Z" fill="#263238"/>
<path d="M1250.22 732.173H1248.98L1253.89 716.332L1269.6 655.793C1270.29 653.085 1269.9 650.227 1268.51 647.783C1267.12 645.34 1264.84 643.489 1262.11 642.598L1250.86 642.235L1212.2 624.726C1210.52 624.093 1208.71 623.832 1206.91 623.963C1205.11 624.093 1203.37 624.613 1201.8 625.482C1200.24 626.351 1198.89 627.549 1197.87 628.987C1196.85 630.424 1196.17 632.065 1195.89 633.789C1194.46 644.918 1186.63 674.788 1178.3 664.312C1178.3 664.094 1177.89 663.877 1177.7 663.623C1166.01 648.072 1151.46 639.662 1145.42 639.879C1144.13 639.989 1142.9 640.456 1141.88 641.223C1140.85 641.991 1140.08 643.027 1139.65 644.208C1139.22 645.389 1139.15 646.665 1139.45 647.884C1139.75 649.102 1140.4 650.212 1141.33 651.081C1141.94 651.831 1142.69 652.459 1143.55 652.929C1143.92 653.111 1144.37 653.473 1144.78 653.727C1149.95 658.178 1154.62 663.135 1158.73 668.517C1162.49 673.245 1165.37 678.568 1167.24 684.25C1169.31 690.557 1170.99 696.031 1172.01 700.708L1169.01 731.63" fill="#FFAD9D"/>
<path d="M1147.03 457.936C1147.03 457.936 1192.02 449.562 1257.15 392.685C1322.28 335.807 1354.04 258.557 1361.76 259.028C1369.49 259.5 1403.72 245.398 1464.01 382.281C1524.3 519.163 1498.06 549.831 1485.27 549.215C1472.49 548.599 1386.4 522.861 1331.99 527.465C1277.59 532.069 1207.1 557.372 1207.1 557.372L1147.03 457.936Z" fill="#455A64"/>
<path d="M1049.43 528.988L1063.94 557.554L1070.43 570.35C1074.71 578.813 1082.19 585.364 1091.33 588.649C1100.46 591.934 1110.55 591.704 1119.51 588.004L1216.73 558.206L1164.24 432.924L1066.76 480.05C1057.79 484.362 1050.94 491.918 1047.7 501.079C1044.46 510.241 1045.08 520.268 1049.43 528.988Z" fill="#263238"/>
<path d="M1103.61 575.607L1132.59 634.551L1148.08 630.926L1245.94 712.49L1275.49 660.253C1275.49 660.253 1216.99 633.971 1206.65 613.127C1196.3 592.283 1209.08 588.114 1209.08 588.114L1182.12 556.757L1103.61 575.607Z" fill="#263238"/>
<path d="M1458.76 384.456C1490.78 458.588 1503.12 524.202 1486.25 530.981C1469.37 537.76 1429.78 483.239 1397.72 409.106C1365.66 334.973 1353.36 269.36 1370.24 262.617C1387.11 255.874 1426.7 310.323 1458.76 384.456Z" fill="#263238"/>
<path d="M1039.98 569.443L1066.3 562.229L1051.04 532.104L1031.13 543.342L1039.98 569.443Z" fill="#455A64"/>
<path d="M1191.39 567.559L1120 608.884L1111.71 592.064L1191.39 567.559Z" fill="#455A64"/>
<path d="M1051.04 532.104L1066.3 562.229L1060.9 563.715L1048.64 533.446L1051.04 532.104Z" fill="#455A64"/>
<path d="M1068.82 539.464C1069.19 540.298 1082.35 535.839 1098.21 529.314C1114.08 522.789 1126.71 517.025 1126.34 516.191C1125.96 515.357 1112.84 519.816 1096.94 526.341C1081.04 532.866 1068.48 538.63 1068.82 539.464Z" fill="#455A64"/>
<path d="M1061.31 521.555C1061.69 522.389 1073.61 517.93 1087.94 511.55C1102.26 505.17 1113.58 499.406 1113.17 498.609C1112.76 497.811 1100.87 502.234 1086.55 508.614C1072.22 514.994 1060.94 520.758 1061.31 521.555Z" fill="#455A64"/>
<path d="M1078.38 558.278C1078.38 558.713 1081.64 558.097 1086.63 556.756C1089.1 556.103 1092.06 555.233 1095.36 554.255C1098.66 553.276 1102 551.681 1105.6 550.194C1120.07 544.177 1131.17 538.196 1130.83 537.471C1130.5 536.746 1118.61 541.096 1104.29 547.222C1100.54 548.672 1097.35 550.303 1094.24 551.463C1091.13 552.623 1088.24 553.638 1085.88 554.581C1081.15 556.466 1078.27 557.843 1078.38 558.278Z" fill="#455A64"/>
<path d="M1389.51 366.258C1389.51 366.258 1429.25 343.928 1449.09 395.513C1468.92 447.098 1427.64 454.348 1427.64 454.348C1410.7 426.867 1397.86 397.211 1389.51 366.258Z" fill="#455A64"/>
<path d="M1349.76 304.343C1349.89 307.635 1350.32 310.91 1351.04 314.13C1352.09 320.402 1353.55 329.501 1355.72 340.666C1357.22 346.176 1358.84 352.194 1360.6 358.791C1361.5 362.054 1362.4 365.389 1363.34 368.833C1363.82 370.537 1364.31 372.458 1364.8 374.053C1365.28 375.648 1366.03 377.678 1366.63 379.345C1369.26 386.596 1372 393.846 1374.81 401.567C1375.52 403.488 1376.23 405.446 1376.98 407.403C1377.73 409.361 1378.71 411.246 1379.57 413.167C1381.33 417.046 1383.32 420.961 1385.01 424.913C1386.69 428.864 1388.76 432.779 1390.48 436.622C1391.42 438.543 1392.21 440.5 1393.26 442.313C1394.31 444.125 1395.36 445.938 1396.37 447.751L1408.22 468.377C1409.19 470.045 1410.05 471.676 1411.07 473.235L1414.18 477.766L1420.14 486.394L1430.9 501.837C1438.1 510.79 1444.14 517.859 1448.3 522.753C1450.34 525.354 1452.61 527.78 1455.09 530.003C1453.42 527.127 1451.5 524.398 1449.35 521.847C1445.34 516.627 1439.68 509.304 1432.78 500.278C1429.59 495.529 1426.14 490.309 1422.43 484.726C1420.59 481.935 1418.68 479.071 1416.65 476.099L1413.65 471.567C1412.68 470.045 1411.82 468.377 1410.88 466.746C1407.13 460.184 1403.38 453.261 1399.29 446.119L1396.22 440.754C1395.17 438.942 1394.42 437.129 1393.48 435.063L1388.08 423.426C1386.24 419.511 1384.33 415.632 1382.65 411.79C1381.78 409.869 1380.77 408.165 1380.06 406.062C1379.35 403.96 1378.6 402.183 1377.88 400.298C1374.98 392.662 1372.22 385.315 1369.6 378.258C1368.96 376.482 1368.21 374.633 1367.65 373.038C1367.08 371.443 1366.67 369.413 1366.15 367.854C1365.17 364.446 1364.2 361.148 1363.26 357.958C1361.39 351.553 1359.65 345.62 1358.05 340.158L1352.39 313.913C1351.81 310.653 1350.93 307.45 1349.76 304.343Z" fill="#263238"/>
<path d="M1155.46 719.158L1135.89 887.144L1038.22 792.892C1038.22 792.892 985.95 898.019 985.238 902.26C984.75 905.124 1040.05 957.978 1081.15 988.465C1103.38 1004.99 1133.42 1030.55 1161.13 1026.24C1207.32 1018.99 1234.77 989.588 1238.78 944.492L1256.47 721.623L1155.46 719.158Z" fill="#A016D1"/>
<path d="M644.152 875.254L572.5 829.216C592.11 722.748 751.162 712.09 751.162 712.09L872.27 710.024C872.27 710.024 962.033 698.206 1017.53 758.527C1074.93 820.878 1118.24 870.106 1118.24 870.106L1039.5 953.266L962.445 894.793C974.291 911.338 980.814 930.899 981.193 951.018C981.193 985.674 954.459 1018.81 954.459 1018.81L947.785 1078L977.443 1192.74L634.404 1193.64C657.763 1157.79 674.523 1126.76 695.333 1073.76L663.275 962.256L644.152 875.254Z" fill="#A016D1"/>
<path d="M649.359 743.81L475.609 832.696L412.73 666.632L336.016 701.904L390.271 913.282C401.069 955.296 447.075 980.563 489.107 965.591C490.531 965.084 491.919 964.54 493.306 963.96L681.605 885.151L649.359 743.81Z" fill="#A016D1"/>
<path d="M765.032 874.349C761.21 874.911 757.487 875.985 753.971 877.539C749.883 879.592 746.455 882.69 744.064 886.497C741.672 890.304 740.407 894.672 740.407 899.126C740.407 903.58 741.672 907.949 744.064 911.756C746.455 915.562 749.883 918.661 753.971 920.714C757.487 922.268 761.21 923.342 765.032 923.904C763.98 924.105 762.897 924.105 761.845 923.904C758.909 923.696 756.037 922.971 753.371 921.765C749.357 919.953 745.895 917.168 743.323 913.681C740.158 909.383 738.457 904.239 738.457 898.963C738.457 893.688 740.158 888.543 743.323 884.246C745.896 880.768 749.358 877.995 753.371 876.198C756.031 874.975 758.906 874.249 761.845 874.059C762.917 873.953 764 874.051 765.032 874.349Z" fill="#C339F2"/>
<path d="M887.453 932.096C889.222 935.416 891.483 938.469 894.165 941.159C897.178 943.902 900.83 945.904 904.813 946.995C909.691 948.318 914.87 948.177 919.664 946.591C924.458 945.005 928.641 942.049 931.658 938.114C934.129 934.917 935.751 931.182 936.382 927.238C936.781 923.515 936.63 919.755 935.932 916.073C936.509 916.962 936.916 917.945 937.132 918.973C937.866 921.729 938.082 924.59 937.77 927.42C937.284 931.666 935.684 935.722 933.12 939.201C929.941 943.486 925.459 946.707 920.298 948.416C915.138 950.124 909.555 950.236 904.325 948.735C900.039 947.554 896.156 945.289 893.077 942.174C891.019 940.139 889.366 937.755 888.203 935.141C887.755 934.181 887.5 933.148 887.453 932.096Z" fill="#C339F2"/>
<path d="M799.598 1121.18C802.967 1123.02 806.591 1124.39 810.359 1125.24C814.891 1126.04 819.563 1125.62 823.866 1124.03C828.169 1122.44 831.938 1119.74 834.761 1116.22C837.585 1112.7 839.355 1108.5 839.879 1104.07C840.402 1099.65 839.659 1095.17 837.731 1091.13C835.975 1087.8 833.713 1084.74 831.019 1082.06C831.019 1082.06 832.069 1082.53 833.644 1083.84C835.844 1085.73 837.651 1088 838.968 1090.55C841.002 1094.35 841.972 1098.6 841.78 1102.87C841.568 1108.13 839.668 1113.2 836.343 1117.37C832.965 1121.51 828.36 1124.54 823.145 1126.07C818.908 1127.3 814.412 1127.45 810.097 1126.51C807.223 1125.88 804.491 1124.75 802.036 1123.17C800.348 1122.05 799.523 1121.29 799.598 1121.18Z" fill="#C339F2"/>
<path d="M1160.12 830.412C1163.49 832.231 1167.12 833.585 1170.88 834.436C1175.41 835.233 1180.07 834.814 1184.37 833.225C1188.67 831.636 1192.43 828.938 1195.25 825.425C1198.08 821.911 1199.85 817.717 1200.38 813.297C1200.9 808.878 1200.17 804.404 1198.25 800.361C1196.5 797.018 1194.24 793.95 1191.54 791.262C1192.52 791.691 1193.41 792.293 1194.16 793.038C1196.36 794.94 1198.17 797.228 1199.49 799.781C1201.52 803.568 1202.49 807.806 1202.3 812.07C1202.07 817.354 1200.14 822.438 1196.78 826.61C1193.42 830.783 1188.8 833.836 1183.55 835.342C1179.32 836.547 1174.84 836.684 1170.54 835.741C1167.66 835.145 1164.93 834.026 1162.48 832.442C1161.57 831.906 1160.77 831.219 1160.12 830.412Z" fill="#C339F2"/>
<path d="M1192.66 999.956C1191.83 996.308 1190.46 992.793 1188.61 989.516C1186.45 986.085 1183.45 983.221 1179.87 981.178C1176.8 979.435 1173.39 978.341 1169.85 977.967C1166.32 977.594 1162.74 977.95 1159.35 979.012C1155.97 980.074 1152.86 981.818 1150.22 984.128C1147.59 986.439 1145.49 989.264 1144.06 992.416C1142.7 995.911 1141.84 999.57 1141.51 1003.29C1141.19 1002.3 1141.06 1001.25 1141.14 1000.21C1141.18 997.358 1141.74 994.536 1142.79 991.872C1144.36 987.918 1146.94 984.413 1150.29 981.686C1153.24 979.328 1156.69 977.629 1160.4 976.709C1164.1 975.789 1167.98 975.671 1171.74 976.363C1175.5 977.056 1179.05 978.541 1182.15 980.715C1185.25 982.888 1187.81 985.695 1189.66 988.936C1191.11 991.422 1192.05 994.154 1192.43 996.984C1192.71 997.951 1192.78 998.961 1192.66 999.956Z" fill="#C339F2"/>
<path d="M927.609 786.838C930.117 789.634 933.021 792.075 936.233 794.088C939.806 796.111 943.833 797.268 947.969 797.459C951.524 797.617 955.073 797.044 958.382 795.779C961.69 794.513 964.684 792.583 967.164 790.116C969.645 787.65 971.556 784.702 972.771 781.469C973.987 778.235 974.479 774.789 974.216 771.359C973.762 767.613 972.751 763.95 971.216 760.483C971.981 761.208 972.593 762.07 973.016 763.021C974.412 765.541 975.291 768.298 975.603 771.141C976.131 775.378 975.511 779.676 973.803 783.611C971.686 788.476 968.052 792.581 963.408 795.356C958.764 798.13 953.341 799.436 947.894 799.09C943.484 798.811 939.222 797.438 935.521 795.103C933.058 793.547 930.911 791.569 929.184 789.266C927.984 787.925 927.497 786.91 927.609 786.838Z" fill="#C339F2"/>
<path d="M587.01 877.284C589.511 880.087 592.415 882.528 595.633 884.534C599.588 886.806 604.11 887.987 608.71 887.947C613.31 887.908 617.81 886.65 621.722 884.31C625.634 881.971 628.808 878.639 630.898 874.678C632.988 870.716 633.915 866.276 633.578 861.841C633.115 858.097 632.105 854.436 630.579 850.966C631.322 851.721 631.93 852.591 632.378 853.54C633.737 856.062 634.613 858.8 634.965 861.624C635.482 865.876 634.849 870.185 633.128 874.13C631.013 878.989 627.385 883.09 622.749 885.864C618.113 888.638 612.698 889.947 607.257 889.609C602.846 889.33 598.585 887.957 594.883 885.622C592.421 884.066 590.273 882.088 588.547 879.785C587.497 878.335 586.897 877.32 587.01 877.284Z" fill="#C339F2"/>
<path d="M448.764 883.954C450.553 880.626 451.816 877.058 452.513 873.369C453.127 868.956 452.475 864.465 450.631 860.385C448.786 856.306 445.818 852.794 442.051 850.233C438.284 847.671 433.863 846.159 429.268 845.86C424.673 845.561 420.081 846.487 415.993 848.537C412.646 850.404 409.601 852.737 406.957 855.461C406.957 855.461 407.369 854.41 408.644 852.851C410.495 850.625 412.775 848.766 415.356 847.377C419.188 845.239 423.53 844.102 427.954 844.078C433.409 844.063 438.737 845.67 443.214 848.682C447.66 851.728 451.014 856.035 452.813 861.007C454.285 865.041 454.66 869.373 453.9 873.586C453.372 876.388 452.331 879.077 450.826 881.525C449.776 883.193 448.989 884.027 448.764 883.954Z" fill="#C339F2"/>
<path d="M836.347 906.683C834.452 905.587 832.249 905.092 830.049 905.269C828.93 905.462 827.878 905.916 826.983 906.592C826.088 907.268 825.377 908.146 824.912 909.148C824.351 910.355 824.182 911.699 824.429 913.001C824.676 914.304 825.327 915.502 826.295 916.439C827.263 917.375 828.503 918.004 829.85 918.243C831.196 918.482 832.586 918.319 833.835 917.775C834.865 917.321 835.764 916.632 836.457 915.767C837.149 914.902 837.613 913.886 837.809 912.809C838.032 910.667 837.518 908.514 836.347 906.683C836.347 906.683 837.059 906.936 837.847 907.951C838.91 909.419 839.389 911.208 839.196 912.99C839.053 914.341 838.554 915.633 837.746 916.744C836.939 917.854 835.85 918.746 834.585 919.334C833.011 920.038 831.251 920.258 829.544 919.965C827.836 919.671 826.263 918.877 825.036 917.692C823.81 916.506 822.989 914.985 822.686 913.333C822.382 911.682 822.609 909.981 823.338 908.459C823.949 907.23 824.877 906.175 826.033 905.394C827.189 904.613 828.533 904.133 829.936 904C831.78 903.796 833.637 904.261 835.147 905.305C836.085 906.03 836.422 906.61 836.347 906.683Z" fill="#C339F2"/>
<path d="M956.706 849.879C954.812 848.747 952.585 848.25 950.369 848.465C949.25 848.655 948.196 849.108 947.3 849.785C946.405 850.461 945.695 851.34 945.233 852.344C944.683 853.55 944.524 854.888 944.776 856.183C945.028 857.479 945.68 858.669 946.646 859.599C947.612 860.529 948.847 861.154 950.187 861.393C951.528 861.631 952.912 861.472 954.156 860.935C955.189 860.481 956.093 859.792 956.792 858.927C957.49 858.063 957.962 857.048 958.168 855.969C958.351 853.841 957.839 851.711 956.706 849.879C956.706 849.879 957.381 850.133 958.168 851.111C959.248 852.572 959.729 854.367 959.518 856.15C959.37 857.504 958.87 858.799 958.063 859.915C957.257 861.031 956.17 861.931 954.906 862.53C953.332 863.234 951.572 863.454 949.865 863.161C948.157 862.867 946.583 862.074 945.357 860.888C944.13 859.702 943.31 858.181 943.006 856.53C942.702 854.879 942.93 853.177 943.658 851.655C944.266 850.432 945.189 849.379 946.337 848.599C947.486 847.818 948.823 847.335 950.219 847.196C952.069 847.003 953.926 847.481 955.431 848.538C956.444 849.263 956.781 849.879 956.706 849.879Z" fill="#C339F2"/>
<path d="M1218 755.627C1216.11 754.531 1213.91 754.037 1211.71 754.213C1210.58 754.404 1209.52 754.857 1208.62 755.533C1207.72 756.209 1207 757.087 1206.53 758.092C1205.97 759.299 1205.8 760.643 1206.05 761.946C1206.29 763.248 1206.95 764.447 1207.91 765.383C1208.88 766.319 1210.12 766.948 1211.47 767.187C1212.82 767.426 1214.21 767.263 1215.46 766.72C1216.49 766.265 1217.39 765.576 1218.09 764.712C1218.79 763.847 1219.26 762.832 1219.47 761.753C1219.68 759.612 1219.16 757.463 1218 755.627C1218 755.627 1218.72 755.881 1219.47 756.896C1220.55 758.356 1221.03 760.151 1220.82 761.934C1220.68 763.287 1220.18 764.582 1219.38 765.694C1218.57 766.806 1217.47 767.696 1216.2 768.278C1214.63 769.005 1212.86 769.242 1211.14 768.957C1209.42 768.672 1207.84 767.878 1206.6 766.686C1205.37 765.493 1204.55 763.96 1204.25 762.298C1203.96 760.635 1204.2 758.925 1204.96 757.403C1205.57 756.175 1206.5 755.119 1207.65 754.338C1208.81 753.557 1210.15 753.077 1211.56 752.944C1213.4 752.741 1215.26 753.206 1216.77 754.249C1217.74 754.902 1218.08 755.627 1218 755.627Z" fill="#C339F2"/>
<path d="M923.184 1028.56C921.289 1027.46 919.086 1026.97 916.885 1027.15C915.765 1027.34 914.71 1027.8 913.81 1028.48C912.91 1029.15 912.19 1030.02 911.711 1031.02C911.149 1032.23 910.981 1033.58 911.228 1034.88C911.474 1036.18 912.125 1037.38 913.094 1038.31C914.062 1039.25 915.302 1039.88 916.649 1040.12C917.996 1040.36 919.386 1040.19 920.635 1039.65C921.668 1039.2 922.572 1038.51 923.27 1037.64C923.968 1036.78 924.441 1035.76 924.647 1034.69C924.824 1032.55 924.314 1030.41 923.184 1028.56C923.184 1028.56 923.897 1028.81 924.647 1029.83C925.726 1031.29 926.207 1033.08 925.996 1034.87C925.86 1036.22 925.363 1037.51 924.555 1038.63C923.747 1039.74 922.655 1040.63 921.385 1041.21C919.81 1041.94 918.042 1042.17 916.322 1041.89C914.603 1041.6 913.017 1040.81 911.783 1039.62C910.55 1038.43 909.729 1036.89 909.434 1035.23C909.139 1033.57 909.384 1031.86 910.136 1030.34C910.75 1029.11 911.68 1028.06 912.835 1027.27C913.99 1026.49 915.333 1026.01 916.735 1025.88C918.567 1025.68 920.409 1026.15 921.91 1027.18C922.922 1027.91 923.259 1028.52 923.184 1028.56Z" fill="#C339F2"/>
<path d="M517.005 906.683C515.109 905.587 512.906 905.093 510.706 905.269C509.582 905.46 508.523 905.913 507.621 906.589C506.72 907.265 506.002 908.143 505.531 909.148C504.969 910.355 504.801 911.699 505.048 913.002C505.295 914.304 505.946 915.503 506.914 916.439C507.882 917.375 509.122 918.004 510.469 918.243C511.816 918.482 513.206 918.319 514.455 917.776C515.488 917.321 516.392 916.632 517.09 915.768C517.789 914.903 518.261 913.888 518.467 912.809C518.645 910.67 518.134 908.53 517.005 906.683C517.005 906.683 517.717 906.937 518.467 907.952C519.546 909.412 520.027 911.207 519.817 912.991C519.68 914.343 519.184 915.638 518.375 916.75C517.567 917.862 516.475 918.752 515.205 919.335C513.631 920.062 511.862 920.299 510.143 920.013C508.423 919.728 506.837 918.935 505.604 917.742C504.37 916.549 503.549 915.016 503.254 913.354C502.959 911.691 503.205 909.981 503.956 908.459C504.568 907.231 505.496 906.175 506.652 905.394C507.808 904.613 509.152 904.133 510.556 904C512.388 903.806 514.23 904.27 515.73 905.305C516.742 906.03 517.08 906.611 517.005 906.683Z" fill="#C339F2"/>
<path d="M739.424 1074.89C739.424 1074.89 737.999 1074.89 735.675 1075.72C732.365 1076.65 729.466 1078.62 727.426 1081.3C725.749 1083.46 724.725 1086.02 724.471 1088.7C724.216 1091.39 724.74 1094.09 725.984 1096.5C727.228 1098.91 729.143 1100.94 731.514 1102.36C733.885 1103.78 736.617 1104.53 739.405 1104.53C742.193 1104.53 744.926 1103.78 747.296 1102.36C749.667 1100.94 751.582 1098.91 752.826 1096.5C754.071 1094.09 754.595 1091.39 754.34 1088.7C754.085 1086.02 753.062 1083.46 751.384 1081.3C749.339 1078.63 746.461 1076.66 743.173 1075.68C740.811 1075.03 739.424 1075.03 739.424 1074.89C740.654 1074.58 741.944 1074.58 743.173 1074.89C746.782 1075.62 750.008 1077.56 752.284 1080.36C754.006 1082.46 755.146 1084.95 755.599 1087.6C756.052 1090.24 755.801 1092.95 754.871 1095.48C753.724 1098.6 751.603 1101.31 748.8 1103.22C745.997 1105.14 742.649 1106.17 739.218 1106.17C735.786 1106.17 732.439 1105.14 729.636 1103.22C726.833 1101.31 724.712 1098.6 723.564 1095.48C722.634 1092.95 722.384 1090.24 722.836 1087.6C723.289 1084.95 724.43 1082.46 726.151 1080.36C728.442 1077.55 731.68 1075.62 735.3 1074.89C736.647 1074.51 738.076 1074.51 739.424 1074.89Z" fill="#C339F2"/>
<path d="M1094.16 874.348C1094.16 874.529 1092.74 874.529 1090.41 875.182C1087.1 876.115 1084.2 878.077 1082.16 880.764C1080.68 882.707 1079.72 884.979 1079.37 887.372C1079.02 889.765 1079.3 892.204 1080.18 894.467C1080.89 896.464 1082.04 898.288 1083.55 899.811C1085.06 901.333 1086.9 902.518 1088.94 903.282C1090.97 904.046 1093.16 904.371 1095.34 904.235C1097.51 904.098 1099.64 903.502 1101.55 902.49C1103.47 901.478 1105.14 900.073 1106.43 898.374C1107.73 896.675 1108.63 894.723 1109.06 892.654C1109.5 890.585 1109.46 888.449 1108.95 886.395C1108.44 884.341 1107.48 882.42 1106.12 880.764C1104.09 878.087 1101.21 876.127 1097.91 875.182C1095.55 874.529 1094.16 874.529 1094.16 874.348C1095.45 874.036 1096.81 874.036 1098.1 874.348C1101.72 875.083 1104.94 877.036 1107.21 879.858C1108.93 881.959 1110.07 884.449 1110.52 887.093C1110.98 889.737 1110.73 892.45 1109.8 894.975C1108.65 898.101 1106.53 900.808 1103.73 902.722C1100.92 904.636 1097.58 905.664 1094.14 905.664C1090.71 905.664 1087.36 904.636 1084.56 902.722C1081.76 900.808 1079.64 898.101 1078.49 894.975C1077.56 892.45 1077.31 889.737 1077.76 887.093C1078.21 884.449 1079.36 881.959 1081.08 879.858C1083.36 877.033 1086.6 875.081 1090.23 874.348C1091.52 874.041 1092.87 874.041 1094.16 874.348Z" fill="#C339F2"/>
<path d="M713.666 965.264C714.723 964.271 716.06 963.602 717.508 963.34C718.957 963.077 720.453 963.233 721.81 963.788C723.168 964.343 724.326 965.273 725.14 966.46C725.954 967.648 726.389 969.041 726.389 970.466C726.389 971.891 725.954 973.284 725.14 974.472C724.326 975.659 723.168 976.589 721.81 977.144C720.453 977.699 718.957 977.854 717.508 977.592C716.06 977.33 714.723 976.66 713.666 975.668C712.946 974.992 712.374 974.184 711.983 973.29C711.592 972.396 711.391 971.436 711.391 970.466C711.391 969.496 711.592 968.535 711.983 967.642C712.374 966.748 712.946 965.94 713.666 965.264Z" fill="#C339F2"/>
<path d="M433.393 919.263C437.596 919.263 441.004 915.968 441.004 911.904C441.004 907.84 437.596 904.545 433.393 904.545C429.189 904.545 425.781 907.84 425.781 911.904C425.781 915.968 429.189 919.263 433.393 919.263Z" fill="#C339F2"/>
<path d="M1216.74 869.853C1220.94 869.853 1224.35 866.559 1224.35 862.495C1224.35 858.43 1220.94 855.136 1216.74 855.136C1212.53 855.136 1209.12 858.43 1209.12 862.495C1209.12 866.559 1212.53 869.853 1216.74 869.853Z" fill="#C339F2"/>
<path d="M928.471 743.845C929.528 742.853 930.865 742.183 932.313 741.921C933.762 741.658 935.258 741.814 936.615 742.369C937.973 742.924 939.131 743.854 939.945 745.041C940.759 746.229 941.193 747.622 941.193 749.047C941.193 750.472 940.759 751.865 939.945 753.053C939.131 754.24 937.973 755.169 936.615 755.724C935.258 756.279 933.762 756.435 932.313 756.173C930.865 755.911 929.528 755.241 928.471 754.249C927.751 753.573 927.178 752.764 926.788 751.871C926.397 750.977 926.195 750.017 926.195 749.047C926.195 748.077 926.397 747.116 926.788 746.223C927.178 745.329 927.751 744.521 928.471 743.845Z" fill="#C339F2"/>
<path d="M754.197 1161.64C755.255 1160.64 756.591 1159.97 758.04 1159.71C759.488 1159.45 760.984 1159.6 762.342 1160.16C763.699 1160.71 764.857 1161.64 765.671 1162.83C766.486 1164.02 766.92 1165.41 766.92 1166.84C766.92 1168.26 766.486 1169.66 765.671 1170.84C764.857 1172.03 763.699 1172.96 762.342 1173.51C760.984 1174.07 759.488 1174.23 758.04 1173.96C756.591 1173.7 755.255 1173.03 754.197 1172.04C753.477 1171.36 752.905 1170.55 752.514 1169.66C752.123 1168.77 751.922 1167.81 751.922 1166.84C751.922 1165.87 752.123 1164.91 752.514 1164.01C752.905 1163.12 753.477 1162.31 754.197 1161.64Z" fill="#C339F2"/>
<path d="M870.845 996.875C870.48 997.658 870.027 998.399 869.495 999.086L865.295 1005.25L849.623 1027.29L849.023 1028.16L848.385 1027.33L825.439 997.419H826.976L814.79 1013.19C811.041 1018.08 807.291 1022.83 803.767 1027.43L802.979 1028.49L802.229 1027.4L781.27 997.31H782.47L762.822 1019.06L757.273 1024.97C756.67 1025.7 755.978 1026.36 755.211 1026.93C755.684 1026.12 756.25 1025.36 756.898 1024.68L762.11 1018.48L781.27 996.44L781.907 995.679L782.507 996.512L803.729 1026.42H802.154L813.178 1012.17L825.364 996.404L826.151 995.425L826.901 996.44L849.398 1026.53H848.16L864.358 1004.78L868.895 998.869C870.17 997.491 870.77 996.802 870.845 996.875Z" fill="#C339F2"/>
<path d="M946.32 1120.38C946.168 1121.24 945.903 1122.08 945.532 1122.88C944.857 1124.69 943.957 1126.98 942.87 1129.77C940.395 1136 936.983 1144.49 932.897 1154.71L932.522 1155.69L931.659 1155L902.226 1131L903.726 1130.68C901.138 1136.48 898.401 1142.49 895.627 1148.8L888.128 1165.08L887.603 1166.27L886.59 1165.4L859.069 1140.75L860.344 1140.54L846.321 1165.91L842.459 1172.84C842.036 1173.68 841.521 1174.49 840.922 1175.23C841.185 1174.32 841.563 1173.44 842.047 1172.62L845.796 1165.37C849.133 1158.99 853.708 1150.22 859.182 1139.67L859.632 1138.8L860.419 1139.49L888.165 1163.88L886.628 1164.21L894.127 1147.9C896.902 1141.7 899.639 1135.64 902.263 1129.77L902.751 1128.65L903.763 1129.44L932.934 1153.73L931.734 1154.02C936.084 1143.87 939.683 1135.46 942.345 1129.33C943.583 1126.58 944.557 1124.33 945.382 1122.56C945.628 1121.81 945.942 1121.08 946.32 1120.38Z" fill="#C339F2"/>
<path d="M1008.98 799.128C1009.8 799.484 1010.58 799.921 1011.3 800.433L1017.64 804.529L1040.36 819.718L1041.26 820.335L1040.4 820.951L1009.35 843.028V841.541L1025.62 853.359L1040.28 864.234L1041.37 864.995L1040.25 865.72L1009.05 885.876V884.643L1031.32 903.711L1037.4 909.113C1038.16 909.705 1038.85 910.373 1039.46 911.106C1038.6 910.65 1037.81 910.089 1037.1 909.439L1030.72 904.4L1008 885.803L1007.21 885.151L1008.08 884.571L1039.08 864.198V865.72L1024.39 855.027L1008.15 843.172L1007.1 842.411L1008.15 841.686L1039.38 819.936V821.132L1016.89 805.399L1011.19 800.904C1010.4 800.374 1009.66 799.78 1008.98 799.128Z" fill="#C339F2"/>
<path d="M1102.22 967.223C1102.4 966.374 1102.67 965.547 1103.04 964.758L1105.86 957.871C1108.48 951.744 1112.04 943.37 1116.35 933.148L1116.77 932.169L1117.59 932.894L1146.5 957.472L1145 957.798C1147.74 952.034 1150.59 946.053 1153.47 939.89C1156.14 934.38 1158.69 929.015 1161.2 923.722L1161.76 922.562L1162.74 923.469L1189.73 948.663L1188.46 948.844L1203 923.722C1204.69 920.895 1206.04 918.611 1207.13 916.835C1207.57 915.989 1208.11 915.198 1208.74 914.479C1208.44 915.376 1208.04 916.239 1207.54 917.052L1203.79 924.302L1189.88 949.678L1189.39 950.584L1188.61 949.859L1161.39 924.919L1162.92 924.629L1155.42 940.796C1152.5 946.923 1149.65 952.904 1146.87 958.668L1146.35 959.792L1145.38 958.958L1116.73 934.126L1117.93 933.836L1106.68 958.342L1103.53 965.012C1103.17 965.789 1102.73 966.529 1102.22 967.223Z" fill="#C339F2"/>
<path d="M507.969 861.661C508.157 860.81 508.446 859.982 508.831 859.196L511.606 852.344L522.142 827.585L522.517 826.643L523.342 827.331L552.25 851.946L550.75 852.236L559.262 834.364L566.948 818.196L567.51 817L568.485 817.906L595.482 843.1L594.207 843.282L608.755 818.16C610.442 815.369 611.829 813.085 612.879 811.272C613.328 810.434 613.869 809.644 614.491 808.916C614.198 809.817 613.795 810.681 613.292 811.49L609.542 818.74L595.631 844.115L595.144 844.985L594.357 844.297L567.173 819.32L568.673 819.03C566.198 824.25 563.648 829.688 561.174 835.198L552.663 853.069L552.1 854.229L551.163 853.396L522.479 828.528L523.754 828.129C519.18 838.17 515.355 846.508 512.506 852.598C511.193 855.317 510.143 857.528 509.319 859.304C508.977 860.143 508.523 860.935 507.969 861.661Z" fill="#C339F2"/>
<path d="M777.703 818.232C778.404 817.699 779.143 817.214 779.915 816.782L786.439 812.976L810.361 799.563L811.298 799.02L811.523 800.071C813.661 810.583 816.21 823.054 819.022 836.611L817.673 835.959L835.633 826.751L851.943 818.486L853.143 817.87V819.139C855.167 832.334 856.892 844.514 858.692 855.027L857.567 854.447C868.815 849.771 878.114 845.928 884.901 843.064L892.4 840.019C893.278 839.628 894.195 839.324 895.137 839.113C894.341 839.65 893.486 840.1 892.587 840.454L885.088 843.862L858.017 855.861L857.08 856.259V855.281C855.355 844.732 853.33 832.588 851.193 819.429L852.618 820.117L836.345 828.419L818.31 837.59L817.185 838.17L816.923 836.938C814.298 823.38 811.898 810.91 809.836 800.361L810.998 800.868L786.889 813.629L780.14 817.072C779.384 817.561 778.565 817.951 777.703 818.232Z" fill="#C339F2"/>
<path d="M870.131 731.992C870.919 699.366 872.343 664.457 872.343 664.457C872.343 664.457 923.636 658.185 925.848 607.615C927.536 569.081 928.211 508.542 928.473 481.826C928.492 477.941 927.22 474.153 924.844 471.02C922.468 467.887 919.113 465.575 915.275 464.425L829.937 439.05L758.134 490.308L756.447 730.252C756.222 760.775 776.844 779.589 808.377 779.589C839.273 779.661 869.456 761.862 870.131 731.992Z" fill="#FFAD9D"/>
<path d="M872.455 664.456C848.151 663.831 824.564 656.36 804.59 642.959C804.59 642.959 820.525 679.826 871.593 676.853L872.455 664.456Z" fill="#E88B79"/>
<path d="M867.729 605.512C868.188 604.556 868.375 603.498 868.272 602.448C868.169 601.398 867.779 600.393 867.141 599.537C866.504 598.681 865.642 598.005 864.645 597.577C863.648 597.149 862.551 596.985 861.467 597.102C861.196 594.793 860.042 592.664 858.232 591.135C856.421 589.606 854.085 588.786 851.681 588.837C849.28 589.018 847.006 589.957 845.211 591.509C843.416 593.062 842.198 595.142 841.745 597.429C841.403 599.739 841.751 602.095 842.747 604.221C843.744 606.347 845.347 608.153 847.369 609.428C849.419 610.65 851.743 611.377 854.144 611.547C856.546 611.717 858.955 611.326 861.167 610.406C862.934 609.775 864.501 608.711 865.717 607.32C866.932 605.929 867.755 604.257 868.104 602.467" fill="#E88B79"/>
<path d="M908.939 529.857C908.969 531.665 908.262 533.413 906.972 534.722C905.681 536.031 903.909 536.797 902.039 536.853C901.12 536.938 900.192 536.842 899.312 536.571C898.431 536.301 897.617 535.861 896.917 535.279C896.216 534.697 895.645 533.984 895.236 533.183C894.828 532.382 894.591 531.51 894.54 530.618C894.519 528.803 895.232 527.052 896.528 525.738C897.824 524.424 899.6 523.652 901.476 523.586C902.396 523.507 903.323 523.608 904.201 523.883C905.079 524.158 905.891 524.601 906.587 525.187C907.284 525.772 907.851 526.488 908.255 527.29C908.659 528.093 908.892 528.966 908.939 529.857Z" fill="#263238"/>
<path d="M917.674 524.058C916.774 524.965 911.337 521.05 903.613 521.086C895.889 521.122 890.227 524.711 889.403 523.914C888.578 523.116 889.89 521.883 892.365 520.288C895.668 518.073 899.592 516.884 903.613 516.881C907.669 516.881 911.616 518.153 914.861 520.506C917.449 521.992 918.124 523.623 917.674 524.058Z" fill="#263238"/>
<path d="M869.757 580.862C873.831 579.617 878.052 578.874 882.319 578.651C884.306 578.47 886.069 578.071 886.481 576.766C886.669 574.795 886.21 572.816 885.169 571.111L879.357 556.611C871.22 535.912 865.37 518.91 866.233 518.584C867.095 518.258 874.37 534.788 882.469 555.487L888.056 569.987C889.312 572.291 889.671 574.953 889.068 577.491C888.787 578.164 888.35 578.765 887.791 579.249C887.232 579.733 886.566 580.086 885.844 580.283C884.756 580.569 883.634 580.715 882.506 580.718C878.278 581.257 873.998 581.305 869.757 580.862Z" fill="#263238"/>
<path d="M847.037 586.01C848.274 586.01 848.312 594.058 855.473 599.822C862.635 605.586 871.596 604.679 871.633 605.803C871.633 606.311 869.646 607.398 865.897 607.471C860.984 607.554 856.2 605.948 852.398 602.939C848.73 600.064 846.374 595.912 845.837 591.375C845.499 587.968 846.437 585.974 847.037 586.01Z" fill="#263238"/>
<path d="M845.648 520.324C844.823 522.281 838.336 520.831 830.65 521.303C822.963 521.774 816.402 523.695 815.652 521.81C815.239 520.904 816.477 519.091 819.176 517.315C822.584 515.138 826.533 513.886 830.612 513.69C834.636 513.454 838.648 514.307 842.198 516.155C844.71 517.677 845.985 519.381 845.648 520.324Z" fill="#263238"/>
<path d="M919.398 505.749C917.748 507.453 911.262 505.749 903.5 505.749C895.739 505.749 889.177 506.873 887.678 505.097C887.003 504.227 888.015 502.559 890.902 500.928C894.877 498.93 899.325 497.98 903.8 498.173C908.264 498.188 912.642 499.365 916.473 501.581C919.211 503.176 920.11 504.916 919.398 505.749Z" fill="#263238"/>
<path d="M843.432 534.861C843.132 534.861 842.232 533.52 840.02 532.034C837.142 530.127 833.675 529.231 830.196 529.496C826.676 529.857 823.295 531.025 820.335 532.904C817.973 534.317 816.586 535.405 816.586 535.187C816.586 534.97 817.411 533.592 819.698 531.816C822.677 529.42 826.338 527.954 830.196 527.611C832.15 527.447 834.117 527.661 835.984 528.24C837.851 528.819 839.58 529.751 841.07 530.982C843.132 532.976 843.62 534.789 843.432 534.861Z" fill="#263238"/>
<path d="M817.001 551.97C816.738 552.405 815.613 552.224 814.526 551.571C813.439 550.919 812.764 550.049 813.064 549.614C813.364 549.179 814.451 549.324 815.538 549.976C816.626 550.629 817.301 551.535 817.001 551.97Z" fill="#E88B79"/>
<path d="M830.388 552.876C829.826 552.876 829.564 551.825 829.713 550.701C829.863 549.577 830.463 548.671 830.988 548.743C831.513 548.816 831.813 549.795 831.663 550.955C831.513 552.115 830.913 552.949 830.388 552.876Z" fill="#E88B79"/>
<path d="M823.075 574.375C822.588 574.157 822.55 573.251 823.075 572.381C823.6 571.511 824.237 570.931 824.724 571.148C825.211 571.366 825.249 572.236 824.724 573.142C824.199 574.049 823.712 574.592 823.075 574.375Z" fill="#E88B79"/>
<path d="M908.935 550.809C908.635 551.245 907.773 551.208 907.023 550.809C906.272 550.411 905.897 549.577 906.197 549.142C906.497 548.707 907.36 548.743 908.11 549.142C908.86 549.541 909.236 550.374 908.935 550.809Z" fill="#E88B79"/>
<path d="M917.453 549.615C917.003 549.361 917.078 548.346 917.678 547.368C918.278 546.389 919.102 545.809 919.59 546.062C920.077 546.316 919.964 547.331 919.365 548.31C918.765 549.289 917.903 549.869 917.453 549.615Z" fill="#E88B79"/>
<path d="M911.711 571.147C911.186 571.147 910.961 569.806 911.223 568.319C911.486 566.833 912.086 565.745 912.648 565.854C913.21 565.963 913.398 567.195 913.136 568.645C912.873 570.096 912.236 571.219 911.711 571.147Z" fill="#E88B79"/>
<path d="M908.938 650.5C908.938 650.5 910.55 651.116 913.474 651.914C917.578 653.044 921.867 653.401 926.11 652.965C932.387 652.253 938.347 649.911 943.358 646.186C949.432 641.659 953.73 635.266 955.543 628.061C957.256 620.825 956.735 613.263 954.044 606.311C951.843 600.582 947.828 595.673 942.57 592.282C938.994 590.038 934.947 588.59 930.722 588.04C927.722 587.678 926.035 588.04 925.998 587.678C926.394 587.533 926.811 587.448 927.235 587.424C928.42 587.32 929.612 587.32 930.797 587.424C935.231 587.706 939.529 589.024 943.32 591.267C948.969 594.667 953.314 599.759 955.693 605.767C958.699 613.074 959.301 621.1 957.418 628.75C955.57 636.442 950.977 643.258 944.445 647.999C939.154 651.845 932.854 654.18 926.26 654.742C921.847 655.068 917.413 654.487 913.249 653.038C911.655 652.471 910.19 651.609 908.938 650.5Z" fill="#A016D1"/>
<g opacity="0.2">
<path opacity="0.2" d="M837.21 987.124C838.26 987.595 835.785 995.679 826.749 1005.83C821.348 1011.74 815.022 1016.79 808.002 1020.8C790.689 1030.95 770.016 1034.31 750.222 1030.19C742.323 1028.57 734.734 1025.77 727.725 1021.89C715.765 1015.18 710.703 1008.33 711.528 1007.39C712.353 1006.45 719.027 1011.01 730.8 1015.76C745.828 1022.07 762.427 1024.04 778.586 1021.41C794.744 1018.79 809.768 1011.69 821.837 1000.97C831.211 992.997 835.898 986.363 837.21 987.124Z" fill="black"/>
</g>
<g opacity="0.2">
<path opacity="0.2" d="M649.32 898.636C649.32 898.636 714.747 1046.28 711.26 1065.61C707.773 1084.93 661.956 1147.82 661.956 1147.82L695.325 1073.76C676.93 1016.18 661.576 957.727 649.32 898.636Z" fill="black"/>
</g>
<path d="M1149.47 928.942C1142.04 916.221 1137.11 902.285 1134.92 887.834C1135.48 887.834 1138.03 897.114 1142.04 908.424C1146.05 919.735 1149.92 928.689 1149.47 928.942Z" fill="#263238"/>
<path d="M1157.42 918.755C1152.41 914.03 1148.09 908.677 1144.55 902.84C1140.48 897.345 1137.21 891.331 1134.84 884.969C1135.33 884.715 1139.94 892.545 1146.09 901.825C1152.24 911.106 1157.98 918.392 1157.42 918.755Z" fill="#263238"/>
<path d="M918.578 1051.51C917.095 1052.84 915.503 1054.05 913.816 1055.13L900.505 1063.76L856.524 1092.76L812.655 1122.19L799.345 1131.08C797.768 1132.23 796.086 1133.25 794.32 1134.12C795.734 1132.79 797.264 1131.57 798.895 1130.5C801.932 1128.21 806.394 1125.02 811.868 1121.11C822.891 1113.28 838.114 1102.69 855.399 1091.2C872.684 1079.71 888.282 1069.45 899.756 1062.45C905.492 1058.83 910.142 1056 913.404 1054.04C915.06 1053.07 916.789 1052.22 918.578 1051.51Z" fill="#263238"/>
<path d="M457.652 871.086C459.02 864.116 461.301 857.343 464.439 850.93C467.004 844.284 470.445 837.985 474.675 832.188C475.162 832.442 470.926 840.961 466.239 851.655C463.734 858.274 460.868 864.76 457.652 871.086Z" fill="#263238"/>
<path d="M470.023 887.216C469.664 884.484 469.664 881.719 470.023 878.987C470.023 873.912 470.661 866.879 471.636 859.194C472.61 851.509 473.81 844.694 474.898 839.583C475.3 836.848 476.043 834.17 477.11 831.607C477.107 834.359 476.819 837.104 476.247 839.8C475.535 844.803 474.523 851.726 473.548 859.412C472.573 867.097 471.898 873.912 471.373 879.059C471.231 881.818 470.779 884.553 470.023 887.216Z" fill="#263238"/>
<path d="M829.488 409.324C837.001 422.508 839.869 437.699 837.656 452.598C835.444 467.498 828.273 481.295 817.227 491.903C805.979 502.343 790.531 509.449 783.482 522.97C775.983 537.18 779.995 554.363 785.357 569.407C790.718 584.451 797.505 599.967 795.218 615.736C792.406 635.347 776.17 651.152 772.721 670.655C766.122 707.957 807.628 740.873 802.717 778.429C800.617 794.886 789.856 808.879 780.52 822.799C771.184 836.72 762.71 852.924 765.934 869.237C767.472 876.958 774.258 883.737 773.433 891.676C770.396 923.431 723.94 927.673 717.191 922.126C725.665 906.502 715.654 882.251 714.642 881.018C713.156 887.936 709.462 894.229 704.08 899.009C698.699 903.789 691.901 906.816 684.646 907.662C686.463 895.516 685.451 883.131 681.684 871.412C678.893 875.881 675.13 879.71 670.657 882.634C666.183 885.557 661.105 887.504 655.775 888.341C664.562 844.176 659.05 798.465 639.989 757.44C633.278 743.157 624.729 728.439 626.904 712.779C629.753 692.623 649.401 678.921 658.549 660.65C668.935 640.096 665.448 615.881 662.599 593.151C659.749 570.422 658.324 545.482 671.823 526.704C680.071 515.249 693.12 507.31 699.756 494.912C705.943 483.421 705.68 469.754 709.43 457.32C716.254 434.772 733.351 409.324 756.298 401.639C779.245 393.954 814.94 386.522 829.375 409.324" fill="#263238"/>
<path d="M665.37 840.998C659.746 856.658 654.121 872.899 655.246 889.429C656.371 905.959 666.495 923.106 683.03 927.71C689.292 929.45 696.64 929.558 701.065 934.199C702.758 936.243 703.873 938.678 704.301 941.264C704.728 943.85 704.453 946.5 703.502 948.952C701.539 953.833 698.695 958.337 695.103 962.256C705.421 957.546 714.136 950.089 720.225 940.76C721.667 947.124 721.474 953.732 719.663 960.007C717.853 966.283 714.48 972.033 709.839 976.757C722.474 977.228 733.498 968.818 742.459 960.154C762.856 940.361 779.954 914.224 777.442 886.42C774.93 858.616 753.333 834.618 753.408 806.669C753.408 795.793 756.745 785.535 757.157 774.841C757.569 764.147 754.72 752.293 745.496 746.384" fill="#263238"/>
<path d="M824.28 411.246C829.805 405.004 836.845 400.185 844.769 397.218C852.693 394.251 861.254 393.229 869.686 394.244C886.654 396.519 902.163 404.751 913.255 417.372C924.227 429.97 932.019 444.863 936.014 460.873C937.562 465.552 938.16 470.475 937.776 475.373C937.58 477.805 936.799 480.158 935.498 482.247C934.196 484.337 932.409 486.104 930.278 487.409C927.923 488.487 925.339 489.016 922.734 488.953C920.129 488.89 917.576 488.237 915.28 487.046C910.718 484.649 906.579 481.565 903.019 477.911C901.867 482.738 899.103 487.065 895.153 490.222C891.204 493.378 886.289 495.189 881.168 495.375C876.047 495.561 871.005 494.111 866.822 491.249C862.639 488.387 859.548 484.273 858.025 479.542C855.255 486.021 850.401 491.464 844.181 495.067C837.961 498.669 830.706 500.239 823.491 499.544C816.276 498.848 809.485 495.924 804.123 491.205C798.761 486.486 795.114 480.223 793.722 473.343C791.134 460.728 796.496 447.75 803.995 437.093C811.494 426.435 821.205 417.445 828.929 406.968" fill="#263238"/>
<path d="M631.25 747.324C632.262 746.172 633.201 744.961 634.062 743.699C636.35 740.007 637.711 735.848 638.037 731.555C638.404 724.751 637.976 717.929 636.762 711.218C636.171 706.942 636.02 702.619 636.312 698.313C636.743 693.433 638.252 688.698 640.736 684.429C645.873 675.403 654.909 668.008 664.733 661.011C669.645 657.386 674.744 653.761 679.731 649.665C684.754 645.506 688.948 640.493 692.104 634.874C695.133 628.834 696.661 622.193 696.566 615.48C696.433 608.424 695.605 601.396 694.091 594.491C692.666 587.422 690.942 580.172 690.342 572.741C689.322 565.08 689.844 557.3 691.879 549.83C693.023 546.048 694.824 542.481 697.203 539.281C699.598 536.187 702.439 533.44 705.64 531.125C711.965 526.929 718.623 523.22 725.549 520.032C732.126 517.052 738.086 512.937 743.134 507.888C747.653 502.794 750.396 496.451 750.971 489.763C751.833 483.238 751.608 476.749 751.796 470.405C751.809 464.265 752.744 458.16 754.57 452.28C758.005 441.604 764.429 432.056 773.13 424.693C780.265 418.586 788.881 414.321 798.177 412.295C805.196 410.818 812.484 411.029 819.399 412.911C823.754 414.117 827.776 416.247 831.172 419.147C832.039 419.904 832.842 420.729 833.572 421.612C834.059 422.192 834.322 422.518 834.284 422.554C834.247 422.59 833.234 421.322 830.91 419.437C827.479 416.716 823.492 414.727 819.211 413.6C812.397 411.895 805.258 411.808 798.402 413.346C789.339 415.409 780.966 419.663 774.067 425.708C765.606 432.94 759.388 442.302 756.108 452.751C754.36 458.558 753.476 464.575 753.483 470.623C753.593 477.143 753.355 483.665 752.77 490.162C752.131 497.18 749.248 503.831 744.522 509.193C739.333 514.407 733.21 518.669 726.449 521.772C719.62 524.903 713.052 528.539 706.802 532.648C703.757 534.849 701.055 537.461 698.778 540.405C696.535 543.431 694.837 546.802 693.754 550.374C691.791 557.609 691.295 565.142 692.291 572.559C693.004 579.81 694.729 587.06 696.041 594.31C697.563 601.323 698.392 608.46 698.516 615.625C698.587 622.62 696.969 629.533 693.791 635.817C690.518 641.609 686.171 646.769 680.968 651.042C676.056 655.32 670.882 658.909 665.97 662.425C656.109 669.313 647.223 676.526 642.198 685.227C639.766 689.319 638.27 693.868 637.812 698.567C637.474 702.795 637.574 707.046 638.112 711.255C639.258 718.047 639.572 724.946 639.049 731.809C638.634 736.176 637.129 740.381 634.662 744.061C633.726 745.33 632.572 746.434 631.25 747.324Z" fill="#455A64"/>
<path d="M720.981 830.522C720.358 829.142 719.869 827.71 719.518 826.244C718.713 821.959 718.879 817.556 720.006 813.339C721.855 806.759 724.25 800.334 727.167 794.126C730.129 786.876 733.841 778.103 732.379 768.279C731.454 763.201 729.477 758.355 726.567 754.033C723.386 749.276 719.957 744.678 716.294 740.258C712.32 735.468 708.912 730.264 706.133 724.742C701.722 715.32 699.758 704.999 700.412 694.676C701.065 684.353 704.316 674.341 709.882 665.509C717.868 652.93 730.579 643.758 741.677 633.137C747.244 627.973 752.017 622.064 755.85 615.592C757.63 612.413 759.014 609.043 759.975 605.55C760.831 602.096 761.246 598.553 761.212 595.001C760.837 580.755 754.95 567.668 753.001 554.437C751.783 548.134 752.036 541.647 753.742 535.451C755.448 529.254 758.564 523.505 762.862 518.621C770.341 510.284 778.956 502.968 788.47 496.871C796.203 491.896 803.513 486.332 810.329 480.231C815.47 475.636 819.801 470.261 823.152 464.317C825.887 459.187 827.46 453.552 827.764 447.787C827.888 449.283 827.888 450.786 827.764 452.282C827.288 456.586 826.018 460.773 824.015 464.644C820.738 470.742 816.429 476.268 811.267 480.993C804.495 487.226 797.196 492.901 789.445 497.958C780.123 504.001 771.675 511.218 764.324 519.418C760.195 524.143 757.21 529.701 755.589 535.684C753.967 541.668 753.749 547.926 754.95 554.002C756.9 566.943 762.862 579.993 763.312 594.784C763.336 598.445 762.908 602.096 762.037 605.659C761.028 609.302 759.581 612.818 757.725 616.135C753.804 622.814 748.918 628.917 743.215 634.261C731.966 645.136 719.368 654.09 711.644 666.27C706.238 674.852 703.071 684.577 702.418 694.605C701.765 704.634 703.644 714.666 707.895 723.836C710.602 729.261 713.921 734.379 717.794 739.098C721.543 743.81 725.067 748.305 728.029 753.054C731.009 757.551 733.023 762.581 733.954 767.844C735.378 778.176 731.404 787.057 728.367 794.307C725.371 800.445 722.864 806.796 720.868 813.303C719.694 817.42 719.426 821.73 720.081 825.954C720.531 829.036 721.093 830.486 720.981 830.522Z" fill="#455A64"/>
<path d="M917.448 472.037C917.11 472.037 916.36 466.056 914.523 456.522C913.429 450.976 911.771 445.548 909.574 440.318C906.906 433.957 902.793 428.257 897.538 423.642C892.179 419.173 885.558 416.357 878.528 415.558C872.741 414.824 866.88 414.824 861.093 415.558C851.157 416.791 845.083 418.205 845.008 417.878C846.354 417.304 847.762 416.878 849.207 416.61C853.058 415.614 856.964 414.827 860.906 414.253C866.799 413.268 872.805 413.073 878.753 413.673C886.133 414.471 893.089 417.416 898.7 422.12C904.188 426.923 908.449 432.892 911.149 439.556C913.312 444.923 914.859 450.502 915.76 456.195C916.585 461.017 916.96 464.968 917.185 467.687C917.437 469.123 917.525 470.582 917.448 472.037Z" fill="#455A64"/>
<path d="M868.107 482.658C868.156 478.816 868.431 474.979 868.932 471.167C869.955 462.046 869.179 452.82 866.645 443.979C865.155 439.195 862.695 434.747 859.409 430.892C856.687 427.786 853.362 425.224 849.623 423.352C846.055 421.77 842.265 420.707 838.375 420.198C839.422 419.901 840.524 419.839 841.599 420.017C844.571 420.226 847.479 420.95 850.185 422.156C854.212 423.949 857.801 426.543 860.721 429.769C864.256 433.743 866.899 438.385 868.482 443.399C871.109 452.464 871.722 461.965 870.282 471.276C869.832 474.901 869.307 477.692 868.894 479.65C868.82 480.69 868.553 481.709 868.107 482.658Z" fill="#455A64"/>
<path d="M1304.69 341.282V206.574H329.492V1386.93H1304.69V983.463L1236.49 1026.96V1180.16H401.22V339.868H1236.49V409.614C1256.74 396.745 1286.4 365.678 1304.69 341.282Z" fill="white"/>
<path d="M427.167 272.623C429.029 271.827 430.608 270.52 431.708 268.864C432.808 267.207 433.38 265.275 433.353 263.307C433.436 262.017 433.245 260.725 432.791 259.51C432.338 258.295 431.632 257.182 430.717 256.241C429.802 255.3 428.697 254.55 427.47 254.037C426.244 253.524 424.922 253.26 423.586 253.26C422.25 253.26 420.927 253.524 419.701 254.037C418.475 254.55 417.37 255.3 416.455 256.241C415.54 257.182 414.834 258.295 414.38 259.51C413.927 260.725 413.735 262.017 413.818 263.307C413.784 265.29 414.357 267.239 415.464 268.909C416.572 270.579 418.164 271.896 420.042 272.695C416.978 273.047 414.089 274.267 411.741 276.202C409.392 278.137 407.688 280.701 406.844 283.571C410.372 287.386 415.178 289.876 420.417 290.603H426.454C431.789 289.882 436.669 287.305 440.178 283.353C439.352 280.52 437.674 277.988 435.358 276.077C433.042 274.167 430.191 272.965 427.167 272.623Z" fill="#455A64"/>
<path d="M423.533 290.928C423.533 290.928 425.52 290.928 428.857 289.949C433.588 288.648 437.741 285.87 440.668 282.047C442.807 279.258 444.194 275.998 444.704 272.562C445.215 269.126 444.833 265.62 443.592 262.362C442.063 258.392 439.315 254.968 435.716 252.55C432.117 250.133 427.84 248.837 423.458 248.837C419.075 248.837 414.798 250.133 411.199 252.55C407.6 254.968 404.852 258.392 403.323 262.362C402.103 265.628 401.739 269.134 402.262 272.569C402.785 276.004 404.18 279.26 406.323 282.047C409.258 285.861 413.429 288.617 418.171 289.877C421.545 290.747 423.533 290.674 423.533 290.855C423.533 291.037 423.045 290.855 422.108 290.855C420.73 290.871 419.356 290.713 418.021 290.384C413.006 289.314 408.536 286.583 405.385 282.663C403.185 279.984 401.669 276.842 400.961 273.491C400.184 269.592 400.494 265.563 401.861 261.819C403.372 257.659 406.142 254.034 409.81 251.415C413.749 248.581 418.529 247.051 423.439 247.051C428.349 247.051 433.129 248.581 437.068 251.415C440.748 254.023 443.52 257.652 445.017 261.819C446.41 265.557 446.734 269.59 445.954 273.491C445.305 276.88 443.812 280.065 441.605 282.772C438.448 286.683 434.003 289.433 429.007 290.565C427.665 290.857 426.295 291.015 424.92 291.037C424.02 291 423.533 291 423.533 290.928Z" fill="#455A64"/>
<path d="M1236.15 247.464C1236.16 248.396 1235.88 249.309 1235.35 250.088C1234.82 250.867 1234.07 251.476 1233.18 251.84C1232.29 252.203 1231.31 252.303 1230.37 252.129C1229.42 251.954 1228.55 251.511 1227.86 250.857C1227.17 250.204 1226.7 249.367 1226.51 248.455C1226.31 247.542 1226.4 246.594 1226.76 245.73C1227.13 244.866 1227.74 244.125 1228.54 243.602C1229.34 243.078 1230.28 242.794 1231.24 242.787C1231.88 242.782 1232.52 242.9 1233.11 243.132C1233.7 243.365 1234.24 243.708 1234.7 244.142C1235.16 244.576 1235.52 245.093 1235.77 245.663C1236.02 246.233 1236.15 246.845 1236.15 247.464Z" fill="#455A64"/>
<path d="M1236.15 264.358C1236.17 265.291 1235.9 266.208 1235.37 266.992C1234.85 267.775 1234.09 268.391 1233.21 268.76C1232.32 269.128 1231.34 269.234 1230.39 269.064C1229.44 268.893 1228.56 268.454 1227.87 267.801C1227.18 267.149 1226.71 266.313 1226.51 265.399C1226.31 264.485 1226.4 263.535 1226.76 262.669C1227.12 261.803 1227.74 261.061 1228.54 260.535C1229.34 260.01 1230.28 259.725 1231.24 259.718C1232.53 259.708 1233.77 260.191 1234.69 261.06C1235.61 261.929 1236.13 263.114 1236.15 264.358Z" fill="#455A64"/>
<path d="M1236.49 281.287C1236.51 282.22 1236.24 283.137 1235.71 283.92C1235.19 284.704 1234.43 285.319 1233.55 285.688C1232.66 286.057 1231.68 286.163 1230.73 285.992C1229.78 285.822 1228.9 285.382 1228.21 284.73C1227.52 284.077 1227.05 283.241 1226.85 282.328C1226.65 281.414 1226.74 280.464 1227.1 279.598C1227.46 278.732 1228.08 277.989 1228.88 277.464C1229.68 276.938 1230.62 276.654 1231.58 276.647C1232.87 276.637 1234.11 277.119 1235.03 277.988C1235.95 278.858 1236.47 280.043 1236.49 281.287Z" fill="#455A64"/>
<path d="M900.577 269.868C900.577 270.412 804.44 270.811 685.919 270.811C567.398 270.811 471.262 270.412 471.262 269.868C471.262 269.325 567.361 268.926 685.957 268.926C804.552 268.926 900.577 269.361 900.577 269.868Z" fill="#263238"/>
<path d="M552.81 1283.83L542.911 1279.59C537.674 1282.27 531.676 1283.2 525.835 1282.27C519.994 1281.33 514.633 1278.56 510.572 1274.4C506.512 1270.23 503.976 1264.89 503.353 1259.2C502.731 1253.51 504.056 1247.77 507.126 1242.88C510.196 1237.98 514.841 1234.19 520.349 1232.1C525.858 1230 531.927 1229.7 537.626 1231.26C543.324 1232.81 548.339 1236.13 551.901 1240.7C555.463 1245.27 557.376 1250.85 557.347 1256.57C557.399 1263.08 554.97 1269.38 550.523 1274.26L552.81 1283.83ZM529.675 1232.11C525.666 1231.96 521.677 1232.73 518.032 1234.35C514.387 1235.97 511.187 1238.4 508.692 1241.43C506.197 1244.47 504.476 1248.03 503.668 1251.83C502.86 1255.63 502.989 1259.56 504.043 1263.31C505.097 1267.05 507.047 1270.5 509.736 1273.38C512.424 1276.26 515.776 1278.48 519.52 1279.88C523.264 1281.27 527.294 1281.8 531.286 1281.41C535.278 1281.02 539.119 1279.73 542.498 1277.64L542.911 1277.42L550.185 1280.54L548.535 1273.61L548.873 1273.29C552.208 1269.73 554.399 1265.31 555.18 1260.57C555.96 1255.83 555.296 1250.97 553.268 1246.59C551.24 1242.2 547.937 1238.49 543.76 1235.89C539.584 1233.29 534.716 1231.93 529.75 1231.96L529.675 1232.11Z" fill="#263238"/>
<path d="M616.329 1279.67L605.081 1252.99L583.746 1234.14L635.264 1233.7L616.329 1279.67ZM588.508 1236.17L606.618 1252.26L616.291 1275.03L632.414 1235.88L588.508 1236.17Z" fill="#263238"/>
<path d="M633.299 1234.01L605.25 1251.69L606.274 1253.21L634.323 1235.53L633.299 1234.01Z" fill="#263238"/>
<path d="M1234.09 1280.5L1212.57 1260.09L1192.55 1279.85L1191.98 1220.8L1233.53 1220.43L1234.09 1280.5ZM1212.57 1257.52L1213.24 1258.17L1231.99 1276.3L1231.5 1222.39L1193.75 1222.72L1194.23 1275.57L1212.57 1257.52Z" fill="#263238"/>
<path d="M471.751 1239.97C471.008 1236.4 468.976 1233.19 466.018 1230.93C463.06 1228.66 459.367 1227.49 455.596 1227.61C451.826 1227.73 448.222 1229.14 445.426 1231.59C442.631 1234.04 440.825 1237.37 440.331 1240.99C439.76 1237.39 437.891 1234.1 435.052 1231.71C432.214 1229.32 428.591 1227.97 424.826 1227.91C421.061 1227.86 417.397 1229.09 414.483 1231.4C411.57 1233.71 409.595 1236.94 408.91 1240.52C408.117 1245.79 409.46 1251.15 412.66 1255.49C415.875 1259.75 419.657 1263.59 423.908 1266.91L440.668 1281.41C446.33 1276.4 451.129 1271.73 456.791 1266.72C461.037 1263.34 464.817 1259.44 468.039 1255.12C471.241 1250.72 472.569 1245.3 471.751 1239.97Z" fill="#A016D1"/>
<path d="M329.492 652.458C333.654 655.322 335.416 657.062 339.503 660.035C341.406 661.673 343.739 662.773 346.245 663.215C348.752 663.656 351.336 663.421 353.714 662.536C358.513 660.144 360.088 654.09 359.375 648.87C358.663 643.65 356.226 638.864 355.139 633.753C356.76 634.351 358.539 634.42 360.205 633.948C361.87 633.477 363.33 632.492 364.362 631.143C365.333 629.742 366.003 628.166 366.332 626.51C366.66 624.853 366.641 623.149 366.274 621.5C365.597 618.237 364.462 615.078 362.9 612.111C364.137 613.996 367.512 613.308 368.637 611.35C369.501 609.23 369.501 606.872 368.637 604.753C367.567 599.237 364.766 594.173 360.613 590.252C358.499 588.339 355.806 587.134 352.93 586.814C350.054 586.494 347.147 587.077 344.64 588.476C340.891 591.014 333.992 594.747 332.867 599.097C328.93 614.395 330.28 636.943 329.117 652.676" fill="white"/>
<path d="M1224.91 613.416C1226.98 614.254 1228.64 615.833 1229.54 617.825C1230.44 619.817 1230.51 622.068 1229.74 624.11C1226.63 632.266 1221.61 645.027 1217.86 652.784C1216.79 655.342 1215.22 657.68 1213.25 659.672C1212.27 660.76 1210.96 661.527 1209.51 661.865C1208.07 662.202 1206.54 662.094 1205.16 661.556C1203.78 661.017 1202.6 660.074 1201.8 658.859C1201 657.644 1200.61 656.217 1200.69 654.778C1200.65 651.858 1201.22 648.96 1202.37 646.259C1205.03 638.646 1209.57 627.264 1213.62 618.02C1214.5 615.984 1216.17 614.362 1218.27 613.501C1220.38 612.641 1222.74 612.61 1224.87 613.416H1224.91Z" fill="#FFAD9D"/>
<path d="M1237.28 628.423C1239.41 629.247 1241.12 630.852 1242.04 632.889C1242.95 634.927 1242.99 637.231 1242.16 639.298C1239.04 647.455 1234.02 660.215 1230.27 667.973C1229.17 670.526 1227.6 672.861 1225.62 674.86C1224.65 675.957 1223.35 676.73 1221.9 677.073C1220.45 677.415 1218.92 677.308 1217.54 676.767C1216.16 676.226 1214.98 675.279 1214.19 674.059C1213.39 672.838 1213.01 671.407 1213.1 669.966C1213.07 667.05 1213.63 664.157 1214.75 661.447C1217.41 653.871 1221.98 642.452 1226 633.208C1226.88 631.172 1228.55 629.55 1230.65 628.69C1232.75 627.829 1235.12 627.799 1237.24 628.604L1237.28 628.423Z" fill="#FFAD9D"/>
<path d="M1248.86 637.959C1250.67 638.669 1252.12 640.032 1252.9 641.758C1253.69 643.483 1253.74 645.436 1253.06 647.203C1250.36 654.271 1246.02 665.328 1242.75 672.034C1241.82 674.25 1240.48 676.278 1238.78 678.016C1237.94 678.966 1236.81 679.637 1235.55 679.934C1234.29 680.231 1232.97 680.139 1231.77 679.67C1230.57 679.202 1229.55 678.381 1228.85 677.323C1228.16 676.265 1227.83 675.024 1227.91 673.774C1227.89 671.291 1228.37 668.829 1229.33 666.524C1231.65 659.927 1235.59 650.066 1239 642.055C1239.37 641.162 1239.92 640.35 1240.62 639.665C1241.32 638.979 1242.15 638.435 1243.07 638.064C1243.99 637.693 1244.97 637.502 1245.97 637.503C1246.96 637.503 1247.95 637.695 1248.86 638.067V637.959Z" fill="#FFAD9D"/>
<path d="M1263.79 641.147C1265.61 641.857 1267.08 643.232 1267.86 644.974C1268.65 646.717 1268.69 648.688 1267.99 650.463C1265.29 657.532 1260.94 668.588 1257.64 675.403C1256.71 677.627 1255.35 679.658 1253.63 681.385C1252.76 682.245 1251.67 682.862 1250.47 683.168C1249.26 683.475 1248 683.46 1246.81 683.125C1245.61 682.604 1244.59 681.765 1243.87 680.706C1243.14 679.648 1242.74 678.412 1242.72 677.144C1242.72 674.658 1243.22 672.196 1244.18 669.893C1246.47 663.26 1250.44 653.363 1253.85 645.315C1254.22 644.411 1254.77 643.586 1255.47 642.891C1256.18 642.196 1257.01 641.644 1257.94 641.269C1258.87 640.894 1259.86 640.702 1260.87 640.706C1261.87 640.71 1262.87 640.909 1263.79 641.292V641.147Z" fill="#FFAD9D"/>
<path d="M1214.18 659.997C1215.5 654.721 1217.45 649.612 1219.99 644.772C1221.92 639.68 1224.43 634.815 1227.49 630.271C1226.2 635.549 1224.26 640.66 1221.72 645.497C1219.79 650.594 1217.26 655.459 1214.18 659.997Z" fill="#E88B79"/>
<path d="M1227.57 672.467C1229.09 666.472 1231.24 660.641 1233.98 655.067C1236.11 649.265 1238.85 643.69 1242.15 638.428C1240.64 644.409 1238.5 650.226 1235.78 655.792C1233.65 661.611 1230.9 667.2 1227.57 672.467Z" fill="#E88B79"/>
<path d="M1241.63 674.099C1243.26 668.923 1245.32 663.88 1247.78 659.019C1249.62 653.901 1251.88 648.932 1254.53 644.156C1252.27 654.851 1247.89 665.02 1241.63 674.099Z" fill="#E88B79"/>
<path d="M1304.7 341.282C1304.7 341.282 1304.7 338.418 1304.7 332.69C1304.7 326.963 1304.7 318.444 1304.7 307.315C1304.7 284.694 1304.7 251.017 1304.51 206.755L1304.85 207.082L329.645 207.589L330.507 206.755C330.507 486.574 330.507 812.142 330.507 1157.57V1387.11L329.533 1386.21H1304.73L1303.95 1386.97C1303.95 1127.38 1304.21 913.354 1304.28 764.182C1304.28 689.651 1304.28 631.323 1304.51 591.592C1304.51 571.763 1304.51 556.574 1304.51 546.315C1304.51 536.056 1304.51 530.836 1304.51 530.836C1304.51 530.836 1304.51 536.093 1304.51 546.315C1304.51 556.538 1304.51 571.691 1304.51 591.592C1304.51 631.468 1304.51 689.469 1304.51 764.182C1304.51 913.354 1304.73 1127.38 1304.88 1386.97V1387.77H1304.06H328.858H327.883V1157.39C327.883 811.779 327.883 486.393 327.883 206.574V205.74H328.745L1303.95 206.248H1304.32V206.574C1304.32 250.836 1304.32 284.513 1304.32 307.133C1304.32 318.444 1304.32 326.902 1304.32 332.509C1304.77 338.418 1304.7 341.282 1304.7 341.282Z" fill="#263238"/>
<path d="M309.582 617.513C310.093 616.63 310.784 615.858 311.613 615.241C312.442 614.625 313.392 614.178 314.406 613.927C315.419 613.676 316.474 613.627 317.508 613.782C318.541 613.937 319.531 614.294 320.418 614.83C326.755 618.709 333.616 622.805 339.578 626.539C342.3 627.915 344.65 629.89 346.439 632.303C347.28 633.52 347.629 634.993 347.422 636.443C347.215 637.892 346.465 639.218 345.315 640.169C343.888 640.839 342.317 641.168 340.732 641.13C339.147 641.092 337.594 640.688 336.203 639.952C335.266 639.589 320.343 630.889 312.057 626.032C310.578 625.203 309.492 623.849 309.03 622.258C308.567 620.667 308.766 618.965 309.582 617.513Z" fill="#FFAD9D"/>
<path d="M307.787 597.573C308.339 596.526 309.118 595.606 310.069 594.874C311.021 594.143 312.123 593.617 313.303 593.332C314.482 593.047 315.711 593.009 316.907 593.222C318.103 593.434 319.238 593.892 320.235 594.565C327.471 599.495 335.233 604.715 342.132 609.427C345.267 611.253 347.944 613.729 349.968 616.677C350.926 618.179 351.311 619.957 351.058 621.704C350.804 623.451 349.928 625.058 348.581 626.248C346.939 627.038 345.114 627.407 343.282 627.318C341.45 627.229 339.672 626.686 338.12 625.74C337.07 625.305 320.047 614.212 310.599 608.05C308.877 606.937 307.639 605.25 307.12 603.312C306.602 601.373 306.839 599.318 307.787 597.537V597.573Z" fill="#FFAD9D"/>
<path d="M310.936 580.682C311.498 579.642 312.284 578.732 313.242 578.011C314.199 577.291 315.305 576.777 316.485 576.506C317.665 576.234 318.892 576.211 320.082 576.437C321.273 576.664 322.399 577.134 323.385 577.818C330.546 582.821 338.383 588.186 345.094 592.971C348.184 594.815 350.82 597.289 352.818 600.221C353.753 601.746 354.111 603.538 353.831 605.291C353.55 607.043 352.649 608.647 351.281 609.827C349.629 610.583 347.805 610.92 345.982 610.806C344.158 610.692 342.394 610.13 340.857 609.175C339.807 608.704 322.935 597.393 313.561 591.05C311.862 589.908 310.655 588.203 310.171 586.258C309.688 584.313 309.96 582.264 310.936 580.501V580.682Z" fill="#FFAD9D"/>
<path d="M312.619 561.25C313.218 560.054 314.081 558.999 315.147 558.159C316.214 557.32 317.457 556.717 318.79 556.392C320.123 556.067 321.514 556.029 322.864 556.279C324.214 556.53 325.491 557.063 326.605 557.842C334.742 563.534 343.591 569.587 351.277 575.061C354.839 577.177 357.863 580.038 360.126 583.435C361.211 585.178 361.651 587.226 361.371 589.242C361.092 591.259 360.11 593.123 358.589 594.528C355.289 596.884 350.602 595.579 346.853 593.912C345.653 593.368 326.455 580.535 315.806 573.394C313.86 572.073 312.468 570.122 311.883 567.893C311.299 565.665 311.56 563.308 312.619 561.25Z" fill="#FFAD9D"/>
<path d="M349.439 596.124C344.037 593.622 338.932 590.559 334.216 586.989C329.138 583.917 324.412 580.332 320.117 576.295C325.52 578.797 330.624 581.86 335.341 585.43C340.437 588.477 345.166 592.063 349.439 596.124Z" fill="#E88B79"/>
<path d="M344.678 611.241C339.531 609.089 334.661 606.364 330.168 603.121C325.313 600.374 320.797 597.103 316.707 593.369C321.865 595.538 326.746 598.275 331.255 601.526C336.098 604.258 340.602 607.518 344.678 611.241Z" fill="#E88B79"/>
<path d="M345.016 630.308C339.872 628.134 335.004 625.398 330.505 622.152C325.654 619.43 321.149 616.17 317.082 612.437C322.229 614.588 327.099 617.314 331.592 620.557C336.44 623.297 340.944 626.569 345.016 630.308Z" fill="#E88B79"/>
<path d="M1236.49 409.614C1236.49 409.614 1236.49 408.127 1236.49 405.118C1236.49 402.11 1236.49 397.687 1236.49 391.814C1236.49 380.069 1236.49 362.814 1236.49 339.867L1236.79 340.157L401.522 340.737L402.422 339.867C402.422 492.7 402.422 660.505 402.422 835.958C402.422 954.86 402.422 1070.21 402.422 1180.05L401.484 1179.14L1236.75 1179.54L1236.23 1180.05C1236.23 1109.51 1236.42 1054.01 1236.49 1016.16C1236.49 997.237 1236.49 982.737 1236.49 972.949C1236.49 968.055 1236.49 964.358 1236.49 961.857C1236.49 959.355 1236.49 958.231 1236.49 958.231C1236.49 958.231 1236.49 959.464 1236.49 961.857C1236.49 964.249 1236.49 968.055 1236.49 972.949C1236.49 982.737 1236.49 997.237 1236.49 1016.16C1236.49 1054.01 1236.49 1109.51 1236.72 1180.05V1180.56H1236.19L400.922 1180.96H399.984V1180.05C399.984 1070.21 399.984 954.86 399.984 835.958C399.984 660.505 399.984 492.7 399.984 339.867V338.961H400.884L1236.15 339.541H1236.45V339.867C1236.45 362.633 1236.45 380.069 1236.45 391.814C1236.45 397.687 1236.45 402.11 1236.45 405.118C1236.45 408.127 1236.49 409.614 1236.49 409.614Z" fill="#263238"/>
<path d="M1236.49 628.422C1235.97 628.422 1235.52 610.297 1235.52 587.967C1235.52 565.636 1235.97 547.511 1236.49 547.511C1237.02 547.511 1237.47 565.636 1237.47 587.967C1237.47 610.297 1237.06 628.422 1236.49 628.422Z" fill="#263238"/>
<path d="M1632.4 1586.06C1632.4 1586.6 1284.9 1587 856.258 1587C427.618 1587 80.1172 1586.6 80.1172 1586.06C80.1172 1585.51 427.506 1585.12 856.258 1585.12C1285.01 1585.12 1632.4 1585.55 1632.4 1586.06Z" fill="#263238"/>
<path d="M1463.15 745.765C1463.31 746.162 1463.42 746.576 1463.49 746.998C1463.69 748.196 1463.79 749.408 1463.79 750.623C1463.58 755.326 1462.15 759.903 1459.63 763.927C1455.6 769.971 1450.64 775.386 1444.93 779.986L1424.19 798.873L1423.63 799.416L1423.03 798.873L1402.78 781.472C1395.77 775.382 1387.52 768.857 1383.62 759.106C1382.3 756.146 1381.66 752.943 1381.74 749.719C1381.83 746.495 1382.63 743.328 1384.11 740.436C1385.62 737.72 1387.72 735.345 1390.25 733.47C1392.78 731.595 1395.7 730.262 1398.81 729.561C1401.74 728.975 1404.76 729.015 1407.67 729.679C1410.58 730.343 1413.3 731.614 1415.64 733.404C1420.06 736.65 1423.01 741.414 1423.89 746.708H1422.28C1422.95 742.861 1424.7 739.267 1427.35 736.324C1429.99 733.381 1433.43 731.203 1437.28 730.032C1440.25 729.206 1443.37 729.054 1446.41 729.589C1449.44 730.123 1452.31 731.33 1454.79 733.114C1457.98 735.319 1460.48 738.345 1461.99 741.85C1462.53 743.061 1462.87 744.345 1463 745.657C1463 745.657 1462.62 744.315 1461.54 742.031C1459.94 738.75 1457.46 735.936 1454.38 733.875C1452.02 732.23 1449.3 731.138 1446.43 730.685C1443.56 730.232 1440.62 730.43 1437.84 731.265C1434.25 732.383 1431.05 734.437 1428.59 737.199C1426.13 739.962 1424.5 743.328 1423.89 746.925L1423.11 752.182L1422.28 746.925C1421.41 742.071 1418.64 737.724 1414.56 734.781C1412.42 733.144 1409.93 731.986 1407.27 731.39C1404.61 730.794 1401.85 730.777 1399.18 731.337C1396.36 731.979 1393.7 733.196 1391.4 734.909C1389.1 736.622 1387.2 738.791 1385.84 741.27C1384.49 743.917 1383.76 746.815 1383.69 749.763C1383.62 752.712 1384.21 755.64 1385.42 758.344C1389.17 767.516 1397.01 773.896 1404.17 780.095L1424.34 797.64H1423.18L1444.1 778.935C1449.79 774.499 1454.77 769.27 1458.88 763.419C1461.42 759.566 1462.96 755.176 1463.37 750.623C1463.45 747.505 1463 745.802 1463.15 745.765Z" fill="#263238"/>
<path d="M1355.2 685.989C1355.2 685.989 1355.2 686.895 1355.2 688.599C1355.2 690.303 1355.2 692.877 1355.2 696.139C1355.2 702.737 1355.2 712.416 1355.2 724.814C1355.2 749.645 1355.43 785.425 1355.58 829.542L1354.86 828.853H1450.21H1451.07V829.687C1451.07 843.535 1451.07 858.289 1451.07 873.478L1449.54 872.861L1494.79 829.034L1495.09 828.78H1632.02L1631.05 829.723C1631.05 778.972 1631.05 730.65 1631.05 686.17L1631.95 687.04L1432.48 686.642L1375.34 686.388H1360.08H1356.14H1354.75H1359.89H1374.89L1431.84 686.134L1631.87 685.699H1632.77V686.569C1632.77 731.049 1632.77 779.371 1632.77 830.122V831.064H1495.84L1496.52 830.811L1451.19 874.601L1449.61 876.088V873.949C1449.61 858.76 1449.61 844.006 1449.61 830.158L1450.48 830.992H1355.13H1354.41V830.303C1354.41 786.041 1354.71 750.08 1354.79 725.176C1354.79 712.851 1354.79 703.426 1354.79 696.647C1354.79 693.457 1354.79 690.992 1354.79 689.397C1354.79 687.802 1355.2 685.989 1355.2 685.989Z" fill="#263238"/>
<path d="M1508.03 760.157H1496.33V771.032H1493.6V760.157H1481.9V757.583H1493.6V746.708H1496.33V757.583H1508.03V760.157Z" fill="#263238"/>
<path d="M1525.72 738.008V779.66H1522.58V740.763H1512.04V738.008H1525.72Z" fill="#263238"/>
<path d="M1536.6 758.853C1536.6 745.803 1543.58 737.719 1553.47 737.719C1563.37 737.719 1570.35 745.803 1570.35 758.853C1570.35 771.903 1563.37 779.987 1553.47 779.987C1543.58 779.987 1536.6 771.867 1536.6 758.853ZM1567.2 758.853C1567.2 747.253 1561.61 740.51 1553.47 740.51C1545.34 740.51 1539.75 747.253 1539.75 758.853C1539.75 770.453 1545.34 777.159 1553.47 777.159C1561.61 777.159 1567.2 770.453 1567.2 758.853Z" fill="#263238"/>
<path d="M1577.09 758.853C1577.09 745.803 1584.07 737.719 1593.97 737.719C1603.86 737.719 1610.84 745.803 1610.84 758.853C1610.84 771.903 1603.86 779.987 1593.97 779.987C1584.07 779.987 1577.09 771.867 1577.09 758.853ZM1607.69 758.853C1607.69 747.253 1602.1 740.51 1593.97 740.51C1585.83 740.51 1580.24 747.253 1580.24 758.853C1580.24 770.453 1585.83 777.159 1593.97 777.159C1602.1 777.159 1607.69 770.453 1607.69 758.853Z" fill="#263238"/>
<path d="M78.4297 348.965H381.576V505.967H232.234L182.666 553.854V505.967H78.4297V348.965Z" fill="#A016D1"/>
<path d="M129.797 423.135C129.797 423.135 129.797 424.222 130.097 426.18C130.397 428.137 130.472 431.038 130.734 434.481C131.222 441.731 131.934 451.99 132.759 464.388L131.972 463.736L143.745 463.083C153.756 463.953 164.968 465.186 176.779 465.621C177.473 465.641 178.167 465.568 178.841 465.403C179.52 465.319 180.186 465.161 180.828 464.932C182.142 464.43 183.331 463.664 184.315 462.684C186.434 460.683 187.76 458.028 188.065 455.18C188.194 453.697 188.194 452.205 188.065 450.722C188.065 449.163 187.802 447.64 187.69 446.082C187.427 442.964 187.127 439.81 186.865 436.62C186.602 433.43 186.152 429.37 185.703 425.745C185.44 424.005 185.215 422.12 184.84 420.561C184.755 420.167 184.642 419.78 184.503 419.401C184.503 419.401 184.503 419.401 184.503 419.184C184.503 418.966 184.503 419.184 184.203 419.184C183.387 419.004 182.56 418.87 181.728 418.785C174.796 418.422 167.85 418.422 160.918 418.785L161.743 418.096C161.759 418.241 161.759 418.386 161.743 418.531V418.821L161.443 419.075C161.354 419.157 161.248 419.22 161.131 419.257C161.014 419.295 160.89 419.307 160.768 419.292H160.281V419.075V418.749C160.269 418.616 160.269 418.482 160.281 418.35C160.249 417.915 160.249 417.479 160.281 417.045V414.58C160.281 412.985 160.281 411.39 160.281 409.831C160.47 406.849 160.47 403.859 160.281 400.877C160.072 398.146 159.17 395.506 157.656 393.192C156.936 392.194 155.977 391.379 154.86 390.817C153.744 390.255 152.503 389.963 151.244 389.965L151.919 389.204C152.144 393.989 152.332 398.339 152.519 402.363V402.581C146.332 411.68 141.57 418.603 138.458 423.171H133.396H131.634C132.153 423.067 132.68 423.007 133.209 422.99L138.421 422.555H138.196C141.158 417.915 145.695 410.882 151.657 401.638V402.001C151.432 397.977 151.169 393.627 150.869 388.878V388.153H151.582C153.097 388.079 154.607 388.371 155.976 389.004C157.344 389.637 158.527 390.591 159.418 391.778C161.141 394.276 162.174 397.159 162.418 400.152C162.693 403.213 162.781 406.288 162.68 409.36C162.68 410.882 162.68 412.441 162.68 414.036V416.392C162.68 416.755 162.68 417.153 162.68 417.48C162.695 417.539 162.695 417.601 162.68 417.661C162.68 417.661 162.68 417.661 162.418 417.661C162.155 417.661 161.968 418.06 162.005 417.951C162.043 417.842 162.005 417.697 161.705 417.733L161.331 417.516V416.863H161.968C168.999 416.482 176.047 416.482 183.078 416.863C184.054 416.951 185.02 417.121 185.965 417.371C186.311 417.484 186.639 417.642 186.94 417.842C187.196 418.12 187.399 418.439 187.54 418.785C187.695 419.236 187.82 419.696 187.915 420.162C188.327 421.975 188.59 423.787 188.815 425.564C189.302 429.189 189.64 432.814 190.014 436.439C190.389 440.064 190.539 442.783 190.839 445.937L191.177 450.577C191.329 452.168 191.329 453.77 191.177 455.362C190.833 458.609 189.367 461.648 187.015 463.989C185.84 465.124 184.436 466.012 182.89 466.599C181.361 467.129 179.752 467.41 178.128 467.433C166.055 466.926 154.994 465.621 144.945 464.606L133.171 465.149H132.459V464.424C131.934 451.845 131.522 441.514 131.184 434.046C131.184 430.675 130.997 427.956 130.959 425.854C130.466 424.993 130.076 424.081 129.797 423.135Z" fill="#F1A5FF"/>
<path d="M110.113 420.524C111.442 420.343 112.783 420.258 114.125 420.27C116.824 420.27 120.873 420.053 126.01 419.98H126.61V420.597C127.397 431.037 128.335 446.262 129.234 463.191V464.678V465.656H128.26L116.599 466.2H115.699V465.366C113.825 452.316 112.363 440.897 111.388 432.741C110.938 429.116 110.563 425.962 110.263 423.424C110.064 422.372 109.989 421.302 110.038 420.234C110.36 421.428 110.61 422.638 110.788 423.859C111.238 426.421 111.8 429.575 112.475 433.321C113.825 441.332 115.7 452.316 117.612 464.931L116.599 464.17L128.26 463.554L127.322 464.533V463.046C126.422 446.117 125.71 430.892 125.335 420.415L126.01 421.032C121.211 421.032 117.312 420.705 114.537 420.597C113.062 420.649 111.585 420.625 110.113 420.524Z" fill="#F1A5FF"/>
<path d="M245.583 430.058H232.76V442.093H229.761V430.058H216.938V427.267H229.761V415.159H232.76V427.267H245.583V430.058Z" fill="#F1A5FF"/>
<path d="M265.041 405.843V451.41H261.291V408.852H250.043V405.843H265.041Z" fill="#F1A5FF"/>
<path d="M276.812 428.646C276.812 414.363 284.312 405.518 295.261 405.518C306.21 405.518 313.709 414.363 313.709 428.646C313.709 442.928 306.21 451.737 295.261 451.737C284.312 451.737 276.812 442.892 276.812 428.646ZM310.259 428.646C310.259 415.922 304.147 408.599 295.261 408.599C286.374 408.599 280.262 415.849 280.262 428.646C280.262 441.442 286.412 448.692 295.261 448.692C304.11 448.692 310.259 441.333 310.259 428.646Z" fill="#F1A5FF"/>
<path d="M321.281 428.646C321.281 414.363 328.78 405.518 339.729 405.518C350.677 405.518 358.176 414.363 358.176 428.646C358.176 442.928 350.677 451.737 339.729 451.737C328.78 451.737 321.281 442.892 321.281 428.646ZM354.764 428.646C354.764 415.922 348.615 408.599 339.766 408.599C330.917 408.599 324.768 415.849 324.768 428.646C324.768 441.442 330.88 448.692 339.766 448.692C348.652 448.692 354.577 441.333 354.577 428.646H354.764Z" fill="#F1A5FF"/>
<defs>
<linearGradient id="paint0_linear_287_3028" x1="789.011" y1="0" x2="789.011" y2="1586.6" gradientUnits="userSpaceOnUse">
<stop stop-color="#F3A9FF"/>
<stop offset="1" stop-color="#BD2BF0"/>
</linearGradient>
</defs>
</svg>
