<svg width="1574" height="1582" viewBox="0 0 1574 1582" fill="none" xmlns="http://www.w3.org/2000/svg">
<path d="M9.22846 57.8734C4.38548 27.5021 27.8497 0 58.6047 0H1278.53C1303.1 0 1324.03 17.8583 1327.9 42.1265L1564.22 1524.13C1569.06 1554.5 1545.6 1582 1514.84 1582H294.924C270.349 1582 249.417 1564.14 245.547 1539.87L9.22846 57.8734Z" fill="url(#paint0_linear_287_1691)"/>
<path d="M1215.36 325.244H1159.6V355.036H1215.36V325.244Z" fill="#263238"/>
<path d="M1223.22 315.223H1151.71V334.715H1223.22V315.223Z" fill="#455A64"/>
<path d="M1090.68 354.691L1075.49 369.018L1099.49 391.649L1114.68 377.322L1090.68 354.691Z" fill="#263238"/>
<path d="M1087.09 342.848L1062.95 365.609L1078.63 380.393L1102.77 357.631L1087.09 342.848Z" fill="#455A64"/>
<path d="M1260.27 377.295L1275.46 391.622L1299.47 368.991L1284.27 354.664L1260.27 377.295Z" fill="#263238"/>
<path d="M1272.12 357.645L1296.26 380.406L1311.94 365.623L1287.8 342.862L1272.12 357.645Z" fill="#455A64"/>
<path d="M1319.37 508.233C1336.47 439.512 1291.24 370.737 1218.36 354.619C1145.47 338.501 1072.53 381.143 1055.43 449.864C1038.34 518.584 1083.56 587.359 1156.45 603.478C1229.33 619.596 1302.28 576.953 1319.37 508.233Z" fill="#455A64"/>
<path d="M1185.82 598.905C1257.24 598.905 1315.14 544.313 1315.14 476.971C1315.14 409.629 1257.24 355.037 1185.82 355.037C1114.4 355.037 1056.5 409.629 1056.5 476.971C1056.5 544.313 1114.4 598.905 1185.82 598.905Z" fill="#263238"/>
<path d="M1300.46 494.083C1309.59 435.229 1266.38 380.54 1203.96 371.933C1141.54 363.326 1083.54 404.06 1074.41 462.915C1065.28 521.769 1108.48 576.458 1170.91 585.065C1233.33 593.672 1291.33 552.938 1300.46 494.083Z" fill="white"/>
<path opacity="0.5" d="M1301.7 478.54H1187.58V370.933C1217.84 370.933 1246.87 382.27 1268.28 402.45C1289.68 422.63 1301.7 450 1301.7 478.54Z" fill="#A30FD7"/>
<path d="M1188.59 378.648H1186.37V394.974H1188.59V378.648Z" fill="#F0F0F0"/>
<path d="M1135.44 391.442L1133.52 392.487L1142.18 406.626L1144.1 405.58L1135.44 391.442Z" fill="#F0F0F0"/>
<path d="M1096.24 427.646L1095.13 429.456L1110.12 437.619L1111.23 435.808L1096.24 427.646Z" fill="#F0F0F0"/>
<path d="M1098.85 477.493H1081.54V479.584H1098.85V477.493Z" fill="#F0F0F0"/>
<path d="M1114.04 520.451L1098.98 528.614L1100.09 530.433L1115.15 522.27L1114.04 520.451Z" fill="#F0F0F0"/>
<path d="M1142.19 550.39L1133.54 564.532L1135.46 565.577L1144.11 551.434L1142.19 550.39Z" fill="#F0F0F0"/>
<path d="M1188.59 562.103H1186.37V578.428H1188.59V562.103Z" fill="#F0F0F0"/>
<path d="M1232.72 550.335L1230.8 551.38L1239.46 565.518L1241.38 564.473L1232.72 550.335Z" fill="#F0F0F0"/>
<path d="M1264.76 519.338L1263.65 521.148L1278.65 529.311L1279.75 527.501L1264.76 519.338Z" fill="#F0F0F0"/>
<path d="M1293.42 477.493H1276.11V479.584H1293.42V477.493Z" fill="#F0F0F0"/>
<path d="M1278.65 427.631L1263.66 435.794L1264.76 437.605L1279.76 429.442L1278.65 427.631Z" fill="#F0F0F0"/>
<path d="M1239.46 391.483L1230.81 405.624L1232.73 406.669L1241.39 392.528L1239.46 391.483Z" fill="#F0F0F0"/>
<path d="M1188.26 400.6L1193.35 484.933L1181.87 484.779L1185.16 400.569L1188.26 400.6Z" fill="#A30FD7"/>
<path d="M1191.39 478.54C1191.39 479.277 1191.16 479.997 1190.72 480.61C1190.29 481.222 1189.67 481.699 1188.95 481.979C1188.22 482.26 1187.43 482.332 1186.66 482.186C1185.9 482.04 1185.19 481.682 1184.64 481.159C1184.09 480.636 1183.72 479.97 1183.57 479.246C1183.42 478.523 1183.51 477.774 1183.81 477.095C1184.11 476.415 1184.62 475.836 1185.28 475.431C1185.93 475.026 1186.7 474.813 1187.48 474.819C1187.99 474.819 1188.51 474.916 1188.98 475.103C1189.46 475.291 1189.89 475.565 1190.26 475.911C1190.62 476.257 1190.91 476.667 1191.1 477.118C1191.3 477.569 1191.4 478.052 1191.39 478.54Z" fill="#A30FD7"/>
<path d="M1270.27 479.799L1180.82 484.564L1180.99 473.742L1270.3 476.847L1270.27 479.799Z" fill="#263238"/>
<path d="M1191.39 478.54C1191.39 479.277 1191.16 479.997 1190.72 480.61C1190.29 481.222 1189.67 481.699 1188.95 481.979C1188.22 482.26 1187.43 482.332 1186.66 482.186C1185.9 482.04 1185.19 481.682 1184.64 481.159C1184.09 480.636 1183.72 479.97 1183.57 479.246C1183.42 478.523 1183.51 477.774 1183.81 477.095C1184.11 476.415 1184.62 475.836 1185.28 475.431C1185.93 475.026 1186.7 474.813 1187.48 474.819C1187.99 474.819 1188.51 474.916 1188.98 475.103C1189.46 475.291 1189.89 475.565 1190.26 475.911C1190.62 476.257 1190.91 476.667 1191.1 477.118C1191.3 477.569 1191.4 478.052 1191.39 478.54Z" fill="#A30FD7"/>
<path d="M723.042 710.017C739.835 770.431 761.715 809.877 776.389 823.527C811.54 856.24 887.255 863.496 929.84 880.159C943.699 885.601 982.013 802.713 967.828 795.457C957.361 790.077 835.8 775.565 825.463 772.583C820.148 771.046 779.812 721.516 756.987 693.661C720.205 649.02 713.847 677.028 723.042 710.017Z" fill="#F7A9A0"/>
<path d="M996.397 891.781C989.876 891.628 989.648 894.856 998.745 901.958C1007.84 909.06 1050.2 929.628 1041.3 943.002C1032.4 956.377 973.083 926.37 958.898 913.518C944.714 900.667 926.486 875.21 926.486 875.21C939.301 878.869 971.289 884.925 996.397 891.781Z" fill="#F7A9A0"/>
<path d="M957.593 792.844C1020.72 802.067 1045.83 813.719 1073.48 844.157C1076.64 847.445 1078.54 851.632 1078.89 856.055C1091.55 869.46 1088.68 879.144 1088.68 879.144C1096.37 895.039 1091.94 904.54 1091.94 904.54C1091.94 904.54 1106.61 920.435 1097.87 930.396C1088.09 941.587 1069.44 917.053 1050.43 909.49C1006.83 892.119 939.561 878.96 926.518 875.148L957.593 792.844Z" fill="#F7A9A0"/>
<path d="M1018.18 861.098C1031.01 866.021 1043.46 871.774 1055.45 878.315C1068.09 886.228 1080.08 895.025 1091.32 904.633C1091.39 904.674 1091.48 904.69 1091.57 904.677C1091.66 904.665 1091.74 904.626 1091.8 904.565C1091.86 904.505 1091.89 904.427 1091.9 904.344C1091.91 904.262 1091.89 904.179 1091.84 904.11C1072.06 883.531 1046.67 868.463 1018.44 860.544C1017.79 860.36 1017.53 860.821 1018.18 861.098Z" fill="#263238"/>
<path d="M1025.45 834.749C1037.55 840.59 1058.68 851.013 1088.25 879.482C1088.25 879.482 1088.55 879.482 1088.45 879.482C1072.4 859.233 1050.69 843.594 1025.74 834.318C1024.96 833.888 1024.67 834.349 1025.45 834.749Z" fill="#263238"/>
<path d="M1029.66 820.668C1049.77 831.368 1061.02 840.499 1078.73 856.117C1078.73 856.117 1078.99 856.117 1078.89 855.963C1060.8 836.225 1051.86 830.999 1029.98 819.961C1029.2 819.592 1028.87 820.238 1029.66 820.668Z" fill="#263238"/>
<path d="M794.652 737.411L736.513 788.786C736.513 788.786 713.035 709.095 713.198 683.885C713.198 655.446 728.719 661.718 749.067 680.81C769.414 699.903 794.652 737.411 794.652 737.411Z" fill="#A30FD7"/>
<path opacity="0.1" d="M794.652 737.411L736.513 788.786C736.513 788.786 713.035 709.095 713.198 683.885C713.198 655.446 728.719 661.718 749.067 680.81C769.414 699.903 794.652 737.411 794.652 737.411Z" fill="black"/>
<path d="M782.748 729.294C774.4 734.89 751.868 754.997 748.086 758.286C746.097 760.039 738.532 767.264 736.542 768.986C736.282 769.201 736.543 769.539 736.934 769.324C740.749 766.065 744.923 763.175 748.738 759.885C752.553 756.596 776.291 736.95 783.008 729.571C783.172 729.417 782.943 729.171 782.748 729.294Z" fill="#263238"/>
<path d="M1102.76 1353.9C1094.87 1356.33 867.658 1347.76 859.147 1342.56C858.104 1341.98 854.061 1300.78 854.061 1300.78L880.342 1142.47L1029.52 1144.35L1000.73 1279.63C1000.73 1279.63 1033.6 1293.89 1060.7 1306.34C1077.39 1313.97 1091.9 1320.95 1095.23 1323.5C1103.97 1330.08 1110.68 1351.51 1102.76 1353.9Z" fill="#F7A9A0"/>
<path d="M1102.79 1353.91C1094.9 1356.34 867.627 1347.76 859.149 1342.59C858.138 1341.98 854.029 1300.78 854.029 1300.78L862.149 1252.02L1005.26 1258.17L1000.63 1279.5C1000.63 1279.5 1033.47 1293.77 1060.6 1306.19C1077.29 1313.82 1091.8 1320.79 1095.13 1323.35C1103.93 1330.11 1110.65 1351.54 1102.79 1353.91Z" fill="#EBEBEB"/>
<path d="M1102.66 1354.12C1094.61 1356.49 865.9 1351.48 857.324 1346.07C854.063 1344.07 852.857 1312.59 852.596 1274.52V1273.36L1000.21 1275.05V1277.38C1000.21 1277.38 1086.85 1316.24 1095.62 1323.13C1104.39 1330.02 1110.72 1351.85 1102.66 1354.12Z" fill="#F0F0F0"/>
<path d="M1089.62 1354.74C1039.57 1355.23 864.628 1350.8 857.324 1346.1C854.063 1344.1 852.857 1312.62 852.596 1274.55V1273.39L945.039 1274.43L1089.62 1354.74Z" fill="#A6A6A6"/>
<path d="M1100.28 1345.76C1061.74 1344.01 906.137 1340.41 867.92 1341.45C867.594 1341.45 867.594 1341.67 867.92 1341.7C906.071 1344.19 1061.68 1346.59 1100.25 1346.34C1101.07 1346.34 1101.1 1345.79 1100.28 1345.76Z" fill="#263238"/>
<path d="M1012.47 1278.12C997.371 1275.05 978.752 1276.89 966.818 1286.85C966.362 1287.22 966.818 1287.84 967.438 1287.68C982.046 1283.6 997.077 1281 1012.27 1279.93C1012.51 1279.92 1012.73 1279.83 1012.9 1279.68C1013.07 1279.53 1013.17 1279.33 1013.2 1279.11C1013.22 1278.89 1013.16 1278.67 1013.03 1278.49C1012.89 1278.31 1012.7 1278.18 1012.47 1278.12Z" fill="#263238"/>
<path d="M1023.26 1284.58C1008.17 1281.5 989.547 1283.38 977.613 1293.31C977.156 1293.68 977.613 1294.29 978.232 1294.17C992.875 1290.1 1007.94 1287.52 1023.17 1286.48C1023.43 1286.5 1023.7 1286.41 1023.9 1286.24C1024.09 1286.07 1024.21 1285.83 1024.23 1285.58C1024.24 1285.32 1024.14 1285.08 1023.96 1284.89C1023.78 1284.7 1023.53 1284.59 1023.26 1284.58Z" fill="#263238"/>
<path d="M1034.06 1291.03C1018.96 1287.96 1000.34 1289.83 988.408 1299.76C987.951 1300.16 988.408 1300.75 989.027 1300.63C1003.64 1296.53 1018.67 1293.92 1033.86 1292.85C1034.1 1292.84 1034.32 1292.75 1034.49 1292.59C1034.66 1292.44 1034.76 1292.24 1034.79 1292.02C1034.81 1291.8 1034.75 1291.58 1034.62 1291.4C1034.48 1291.22 1034.28 1291.09 1034.06 1291.03Z" fill="#263238"/>
<path d="M1013.25 1259.15L846.725 1252.02C846.725 1252.02 904.278 1031.67 898.147 1024.51C891.626 1016.82 650.524 1073.7 602.33 1017.31C552.962 959.543 577.711 876.378 577.711 876.378H742.152C742.152 876.378 738.891 897.192 741.109 907.123C741.109 907.123 972.624 873.734 1022.97 898.883C1032.75 903.833 1068.62 931.626 1069.21 957.975C1072.37 1074.34 1013.25 1259.15 1013.25 1259.15Z" fill="#455A64"/>
<path d="M1014.92 1230.71C995.159 1228.38 975.367 1226.96 955.508 1225.55C935.65 1224.13 915.792 1223.03 895.934 1222.32C884.717 1221.89 873.5 1221.98 862.283 1221.61C862.225 1221.63 862.176 1221.67 862.14 1221.71C862.105 1221.76 862.086 1221.82 862.086 1221.87C862.086 1221.93 862.105 1221.99 862.14 1222.03C862.176 1222.08 862.225 1222.12 862.283 1222.13C872.261 1222.81 882.206 1224.01 892.184 1224.75L921.727 1226.78C941.585 1228.01 961.443 1229.05 981.301 1230.19C992.486 1230.83 1003.67 1231.17 1014.89 1231.42C1014.97 1231.4 1015.04 1231.36 1015.1 1231.29C1015.15 1231.23 1015.18 1231.16 1015.18 1231.08C1015.19 1231 1015.16 1230.92 1015.12 1230.85C1015.07 1230.79 1015 1230.74 1014.92 1230.71Z" fill="#263238"/>
<path d="M923.809 1008.86C891.821 1009.84 859.996 1012.45 828.17 1015.41C796.345 1018.36 764.324 1021.55 732.238 1023.52C716.326 1024.48 700.348 1025.09 684.37 1025.18C671.099 1025.72 657.816 1024.41 644.948 1021.31C632.171 1017.79 621.251 1009.89 614.329 999.172C607.37 988.307 602.812 976.229 600.927 963.662C596.721 938.236 600.927 912.256 605.851 887.168C606.47 884.094 607.09 881.02 607.677 877.699C607.677 877.422 607.253 877.299 607.155 877.699C600.634 903.002 594.536 929.043 596.493 955.176C597.293 968 600.609 980.572 606.275 992.254C611.385 1003.61 620.174 1013.14 631.383 1019.49C642.828 1025.64 656.36 1027.46 669.501 1028.07C684.827 1028.81 700.348 1028.07 715.674 1027.43C748.477 1025.92 781.15 1022.72 813.758 1019.53C846.365 1016.33 878.81 1013.19 911.581 1011.65C915.2 1011.47 918.82 1011.35 922.439 1011.22C917.483 1038.89 875.517 1203.63 873.169 1216.66C872.941 1217.95 874.245 1218.35 874.604 1217.03C881.777 1191.36 922.504 1026.41 925.211 1010.3C925.254 1010.11 925.249 1009.92 925.196 1009.73C925.143 1009.55 925.044 1009.38 924.907 1009.24C924.769 1009.1 924.598 1008.99 924.407 1008.92C924.216 1008.85 924.011 1008.83 923.809 1008.86Z" fill="#263238"/>
<path d="M1052.19 1360.33H696.309V1397.44H1052.19V1360.33Z" fill="#A30FD7"/>
<path d="M383.566 1034.78H403.751L534.181 1175.46H513.997L383.566 1034.78Z" fill="#DBDBDB"/>
<path d="M637.775 1023.62H357.283V1034.74H637.775V1023.62Z" fill="#DBDBDB"/>
<path d="M459.672 1034.78H479.856L610.287 1175.46H590.103L459.672 1034.78Z" fill="#DBDBDB"/>
<path d="M589.451 1294.14C690.796 1294.14 749.523 1360.52 749.523 1438.64C749.523 1516.76 695.133 1581.63 596.299 1581.63C486.933 1581.63 434.695 1499.61 434.695 1437.93C434.695 1376.26 486.868 1294.14 589.451 1294.14Z" fill="#37474F"/>
<path d="M573.866 1294.14C670.222 1294.14 726.014 1360.52 726.014 1438.64C726.014 1516.76 674.331 1581.63 580.323 1581.63C476.337 1581.63 426.74 1499.48 426.74 1437.81C426.74 1376.14 476.337 1294.14 573.866 1294.14Z" fill="#263238"/>
<path d="M574.844 1350.25C633.538 1350.25 667.548 1390.71 667.548 1438.3C667.548 1485.89 636.049 1525.4 578.79 1525.4C515.401 1525.4 485.141 1475.41 485.141 1437.81C485.141 1400.21 515.401 1350.25 574.844 1350.25Z" fill="#F0F0F0"/>
<path d="M876.334 1118.98V1106.41L535.29 1116.77V1145.06C535.29 1145.06 436.521 1247.9 426.543 1354.8L768.533 1361.62L823.477 1360.33H890.942V1295.71C890.942 1295.71 839.944 1260.66 848.878 1189.05C851.845 1165.29 876.334 1118.98 876.334 1118.98Z" fill="#A30FD7"/>
<path d="M736.672 1346.65C733.118 1352.8 681.239 1361.62 582.894 1364.11C494.364 1366.36 428.236 1364.51 423.116 1359.13C417.997 1353.75 431.04 1258.6 490.973 1207.07C550.906 1155.54 635.751 1148.13 691.706 1178.88C740.911 1205.84 777.627 1274.37 736.672 1346.65Z" fill="#A30FD7"/>
<path opacity="0.1" d="M753.37 1256.57C748.112 1234.04 735.985 1213.44 718.48 1197.32C700.931 1180.75 679.019 1168.87 654.992 1162.92C628.192 1156.61 600.123 1156.9 573.473 1163.75C560.136 1167.05 547.239 1171.76 535.029 1177.8C522.137 1184.33 509.987 1192.09 498.769 1200.95C495.769 1203.29 492.736 1205.62 489.769 1208.02C489.508 1208.21 489.769 1208.55 490.16 1208.36C501.448 1199 513.667 1190.69 526.648 1183.55C538.494 1177.17 551.061 1172.07 564.115 1168.33C589.994 1160.7 617.477 1159.24 644.101 1164.09C668.164 1168.65 690.465 1179.27 708.632 1194.83C726.137 1209.69 739.012 1228.77 745.87 1250.02C754.022 1275.91 751.348 1304.41 743.229 1329.96C742.153 1333.4 740.979 1336.78 739.772 1340.16C739.772 1340.53 740.229 1340.66 740.359 1340.32C751.316 1313.79 759.5 1285.19 753.37 1256.57Z" fill="black"/>
<path d="M516.308 1373.92C456.93 1373.92 425.496 1372.2 409.551 1366.23L416.953 1348.68C435.604 1355.66 494.005 1355.54 587.98 1354.52C657.402 1353.75 708.629 1347.57 740.584 1336.07L747.725 1353.72C713.161 1366.02 660.989 1372.54 588.208 1373.34C560.59 1373.71 536.786 1373.92 516.308 1373.92Z" fill="#DBDBDB"/>
<path d="M881.944 1114.68C881.944 1114.68 884.226 1044.34 881.944 1041.57C879.661 1038.8 534.41 1032.93 524.074 1033.79C513.737 1034.65 512.694 1116.8 513.476 1120.65C514.259 1124.49 872.944 1115.42 881.944 1114.68Z" fill="#37474F"/>
<path d="M914.287 1042.99C913.276 1041.88 869.517 1040.71 867.104 1040.65C864.691 1040.59 863.843 1115.57 865.147 1115.51C866.452 1115.45 912.689 1116.07 914.222 1114.47C915.755 1112.87 916.472 1045.38 914.287 1042.99Z" fill="#455A64"/>
<path d="M672.469 1033.85C671.232 1035.07 670.424 1036.62 670.154 1038.28C669.745 1040.04 669.451 1041.81 669.274 1043.6C668.85 1047.17 668.622 1050.79 668.426 1054.39C668.1 1061.65 667.904 1068.93 667.774 1076.25C667.643 1083.57 667.448 1090.82 667.774 1098.05C667.803 1101.63 668.064 1105.2 668.556 1108.75C668.752 1110.46 669.18 1112.15 669.828 1113.76C670.067 1114.48 670.488 1115.14 671.056 1115.68C671.624 1116.21 672.322 1116.61 673.089 1116.83C672.228 1116.81 671.393 1116.56 670.682 1116.1C669.971 1115.64 669.415 1115 669.078 1114.25C668.166 1112.64 667.454 1110.94 666.959 1109.18C666.036 1105.57 665.436 1101.9 665.165 1098.2C664.563 1090.84 664.367 1083.45 664.578 1076.07C664.774 1068.72 665.1 1061.34 665.98 1053.99C666.404 1050.32 667.024 1046.66 667.839 1043.05C668.294 1041.26 668.849 1039.49 669.502 1037.76C670.024 1036.25 670.937 1034.38 672.469 1033.85Z" fill="#455A64"/>
<path d="M370.264 1023.46H696.309V832.35H370.264V1023.46Z" fill="#37474F"/>
<path d="M370.264 1023.46H605.822V832.35H370.264V1023.46Z" fill="#263238"/>
<path d="M500.727 832.32H475.391V1023.43H500.727V832.32Z" fill="#A30FD7"/>
<path d="M605.851 814.643H363.641V832.321H605.851V814.643Z" fill="#37474F"/>
<path d="M703.613 814.643H605.822V832.321H703.613V814.643Z" fill="#263238"/>
<path d="M502.846 814.643H473.238V832.321H502.846V814.643Z" fill="#A30FD7"/>
<path d="M404.793 815.442H642.797V675.922H404.793V815.442Z" fill="#37474F"/>
<path d="M404.796 815.442H576.736V675.922H404.796V815.442Z" fill="#263238"/>
<path d="M500.006 675.953H481.518V815.473H500.006V675.953Z" fill="#A30FD7"/>
<path d="M576.733 663.039H399.934V675.952H576.733V663.039Z" fill="#37474F"/>
<path d="M648.115 663.039H576.736V675.952H648.115V663.039Z" fill="#263238"/>
<path d="M501.57 663.039H479.951V675.952H501.57V663.039Z" fill="#A30FD7"/>
<path d="M1333.82 1292.97C1435.2 1292.97 1493.89 1359.35 1493.89 1437.47C1493.89 1515.59 1439.5 1580.37 1340.63 1580.37C1231.24 1580.37 1179 1498.35 1179 1436.7C1179 1375.06 1231.24 1292.97 1333.82 1292.97Z" fill="#37474F"/>
<path d="M1318.23 1292.97C1414.59 1292.97 1470.41 1359.35 1470.41 1437.47C1470.41 1515.59 1418.7 1580.37 1324.72 1580.37C1220.74 1580.37 1171.07 1498.35 1171.07 1436.7C1171.07 1375.06 1220.74 1292.97 1318.23 1292.97Z" fill="#263238"/>
<path d="M1319.21 1349.08C1377.9 1349.08 1411.95 1389.54 1411.95 1437.13C1411.95 1484.73 1380.45 1524.23 1323.16 1524.23C1259.8 1524.23 1229.54 1474.24 1229.54 1436.67C1229.54 1399.1 1259.8 1349.08 1319.21 1349.08Z" fill="#F0F0F0"/>
<path d="M1169.84 966.614H1129.96L1102.63 928.798H1149.36L1169.84 966.614Z" fill="#A30FD7"/>
<path d="M1102.63 928.798L1118.64 950.934L1129.96 966.614H1169.84L1159.04 946.691L1149.33 928.798H1102.63Z" fill="#A30FD7"/>
<path opacity="0.1" d="M1102.63 928.798L1118.64 950.934L1159.04 946.691L1149.33 928.798H1102.63Z" fill="black"/>
<path d="M1266.75 1248.82L1227.91 1257.25L1192.3 1226.13L1237.82 1216.29L1266.75 1248.82Z" fill="#A30FD7"/>
<path d="M1192.3 1226.13L1213.14 1244.36L1227.88 1257.25L1266.78 1248.82L1251.52 1231.7L1237.82 1216.29L1192.3 1226.13Z" fill="#A30FD7"/>
<path opacity="0.1" d="M1192.3 1226.13L1213.14 1244.36L1251.52 1231.7L1237.82 1216.29L1192.3 1226.13Z" fill="black"/>
<path d="M1485.09 1311.42L1447.36 1330.11C1447.36 1330.11 1338.09 1311.42 1268.02 1325.56C1197.94 1339.7 1179.03 1375 1179.03 1375H1143.62C1143.62 1375 1174.01 1273.2 1225.56 1236.25C1277.12 1199.29 1359.97 1207.56 1405.79 1230.84C1451.6 1254.11 1485.09 1311.42 1485.09 1311.42Z" fill="#A30FD7"/>
<path opacity="0.1" d="M1443.38 1323.07C1436.07 1315.87 1428.16 1309.25 1419.71 1303.27C1411.34 1297.13 1402.49 1291.61 1393.23 1286.73C1375.29 1277.33 1355.61 1271.23 1335.26 1268.77C1295.41 1264.16 1253.74 1275.11 1224.39 1303.98C1207.89 1320.33 1196.15 1340.41 1185 1360.67C1184.84 1360.98 1185.29 1361.22 1185.46 1360.92C1194.9 1343.1 1206.84 1326.56 1220.93 1311.72C1234.52 1297.74 1251.42 1286.99 1270.27 1280.36C1307.87 1267.36 1348.53 1272.34 1384.66 1288.05C1395 1292.47 1404.99 1297.61 1414.53 1303.42C1424.28 1309.62 1433.7 1316.28 1442.73 1323.38C1442.79 1323.43 1442.86 1323.46 1442.94 1323.47C1443.02 1323.48 1443.1 1323.47 1443.17 1323.43C1443.24 1323.4 1443.3 1323.35 1443.34 1323.28C1443.37 1323.22 1443.39 1323.14 1443.38 1323.07Z" fill="black"/>
<path d="M1028.78 946.261C1028.19 947.552 949.443 961.203 949.443 961.203C949.443 961.203 936.4 952.902 944.454 942.387L1023.46 926.308C1026.5 928.657 1028.66 931.865 1029.61 935.457C1030.57 939.05 1030.28 942.837 1028.78 946.261Z" fill="#263238"/>
<path d="M1194.06 850.276V938.36C1194.06 938.36 1143.62 934.209 1130.18 933.779C1116.75 933.349 1057.04 940.635 1057.04 940.635L1052.41 920.897C1052.41 920.897 1098.46 905.74 1118.02 893.903C1137.59 882.066 1160.12 859.438 1172.21 854.427C1179.06 851.476 1186.54 850.056 1194.06 850.276Z" fill="#A30FD7"/>
<path d="M1057.24 918.406C1060.24 921.314 1062.5 924.825 1063.86 928.674C1065.21 932.524 1065.63 936.613 1065.07 940.635C1065.07 940.635 1027.47 947.122 1027.01 947.122C1027.32 942.951 1026.25 938.793 1023.94 935.223C1021.64 931.653 1018.21 928.848 1014.13 927.199L1057.24 918.406Z" fill="#DBDBDB"/>
<path d="M1194.55 938.36C1208.2 938.36 1219.27 918.648 1219.27 894.333C1219.27 870.018 1208.2 850.307 1194.55 850.307C1180.9 850.307 1169.83 870.018 1169.83 894.333C1169.83 918.648 1180.9 938.36 1194.55 938.36Z" fill="#DBDBDB"/>
<path d="M1196.08 933.625C1207.77 933.625 1217.25 916.033 1217.25 894.333C1217.25 872.633 1207.77 855.041 1196.08 855.041C1184.4 855.041 1174.92 872.633 1174.92 894.333C1174.92 916.033 1184.4 933.625 1196.08 933.625Z" fill="white"/>
<path d="M1202.51 966.736C1210.73 978.081 1243.63 1132.36 1250.08 1140.11C1256.54 1147.85 1268.9 1148.41 1268.9 1148.41L1290.65 1199.38C1290.65 1199.38 1236.62 1215.46 1206.62 1238.7C1167.85 1268.74 1132.01 1368.33 1132.01 1368.33C1126.14 1372.2 1053.3 1400.45 1033.31 1401.56C1033.31 1401.56 1126.21 1305.39 1133.77 1172.3C1136.71 1120.74 1103.06 1048.12 1100.87 1012.15C1098.46 973.531 1110.85 966.736 1132.6 966.736H1202.51Z" fill="#A30FD7"/>
<path d="M1028.84 1412.54L1014.3 1399.56C1095.82 1318.21 1125.88 1190.04 1123.5 1155.05C1122.26 1137.13 1116.16 1117.08 1109.67 1095.83C1102.76 1073.18 1094.94 1047.5 1091.61 1019.62C1088.51 993.731 1091.61 977.006 1100.97 967.014C1110.33 957.022 1123.17 957.053 1131.72 957.083H1209.32V975.961H1131.68C1124.22 975.961 1119.13 976.207 1115.9 979.619C1112.67 983.032 1108.47 991.917 1111.53 1017.53C1114.79 1043.81 1121.93 1067.61 1128.95 1090.61C1135.73 1112.87 1141.99 1133.87 1143.49 1153.82C1146.03 1191.17 1114.76 1327.16 1028.84 1412.54Z" fill="#DBDBDB"/>
<path d="M1250.48 1182.2C1255.04 1198.06 1269.42 1208.15 1282.59 1204.76C1295.77 1201.38 1302.78 1185.79 1298.18 1169.96C1293.58 1154.13 1279.2 1143.98 1266.03 1147.36C1252.86 1150.75 1245.88 1166.36 1250.48 1182.2Z" fill="#DBDBDB"/>
<path d="M1255.36 1180.94C1259.44 1195.08 1271.9 1204.18 1283.18 1201.29C1294.46 1198.4 1300.26 1184.59 1296.22 1170.54C1292.18 1156.49 1279.69 1147.3 1268.44 1150.19C1257.19 1153.08 1251.29 1166.79 1255.36 1180.94Z" fill="white"/>
<path opacity="0.1" d="M1192.79 1179.65C1189.17 1163.69 1185.26 1147.79 1181.87 1131.81C1178.48 1115.82 1175.34 1099.8 1172.7 1083.72C1170.13 1068.75 1167.36 1053.62 1166.35 1038.47C1165.33 1022.63 1166.35 1006.64 1174.5 992.348C1174.51 992.32 1174.53 992.289 1174.53 992.257C1174.53 992.224 1174.53 992.192 1174.52 992.16C1174.51 992.129 1174.5 992.099 1174.48 992.074C1174.46 992.048 1174.43 992.026 1174.4 992.01C1174.37 991.994 1174.34 991.984 1174.3 991.98C1174.27 991.975 1174.23 991.978 1174.2 991.986C1174.17 991.995 1174.14 992.01 1174.11 992.029C1174.08 992.049 1174.06 992.074 1174.04 992.102C1165.66 1003.63 1162.92 1017.5 1162.46 1031.24C1162.51 1046.39 1163.93 1061.51 1166.7 1076.44C1171.46 1109.21 1177.99 1141.72 1186.27 1173.87C1191 1192.04 1197.09 1209.9 1203.62 1227.55C1203.62 1227.6 1203.64 1227.66 1203.68 1227.7C1203.73 1227.74 1203.78 1227.76 1203.84 1227.76C1203.9 1227.76 1203.96 1227.74 1204.01 1227.7C1204.05 1227.66 1204.07 1227.6 1204.07 1227.55C1200.18 1211.5 1196.42 1195.53 1192.79 1179.65Z" fill="black"/>
<path opacity="0.1" d="M890.939 1295.7V1360.27H832.506V1311.38C832.506 1311.38 799.898 1295.86 793.377 1239.38C787.508 1188.22 830.811 1119.94 839.028 1107.55L876.233 1106.41V1118.98C876.233 1118.98 851.745 1165.29 848.777 1189.05C839.941 1260.66 890.939 1295.7 890.939 1295.7Z" fill="black"/>
<path d="M1037.91 1375.37C1030.01 1377.76 802.772 1369.22 794.261 1364.02C793.25 1363.44 789.207 1322.21 789.207 1322.21L815.489 1163.9L964.669 1165.78L935.877 1301.06C935.877 1301.06 968.712 1315.29 995.842 1327.74C1012.54 1335.4 1027.05 1342.38 1030.37 1344.9C1039.08 1351.54 1045.8 1372.97 1037.91 1375.37Z" fill="#F7A9A0"/>
<path d="M1037.93 1375.37C1030.01 1377.76 802.767 1369.22 794.289 1364.02C793.246 1363.44 789.17 1322.24 789.17 1322.24L797.289 1273.45L940.404 1279.6L935.872 1300.87C935.872 1300.87 968.708 1315.14 995.838 1327.56C1012.5 1335.21 1027.04 1342.19 1030.37 1344.71C1039.08 1351.57 1045.79 1372.97 1037.93 1375.37Z" fill="#EBEBEB"/>
<path d="M1037.77 1375.64C1029.75 1378.01 801.01 1372.97 792.434 1367.56C789.173 1365.56 787.999 1334.1 787.738 1296.04V1294.84L935.321 1296.53V1298.9C935.321 1298.9 1021.96 1337.73 1030.73 1344.62C1039.5 1351.51 1045.83 1373.27 1037.77 1375.64Z" fill="#F0F0F0"/>
<path d="M1035.39 1367.19C996.883 1365.47 841.279 1361.87 803.063 1362.91C802.737 1362.91 802.737 1363.13 803.063 1363.13C841.214 1365.65 996.818 1368.05 1035.39 1367.8C1036.21 1367.77 1036.21 1367.22 1035.39 1367.19Z" fill="#263238"/>
<path d="M947.612 1299.55C932.515 1296.48 913.896 1298.35 901.961 1308.28C901.472 1308.68 901.961 1309.27 902.581 1309.14C917.188 1305.05 932.219 1302.44 947.416 1301.36C947.65 1301.35 947.871 1301.26 948.04 1301.11C948.21 1300.96 948.316 1300.76 948.34 1300.54C948.363 1300.32 948.303 1300.1 948.169 1299.92C948.036 1299.74 947.838 1299.61 947.612 1299.55Z" fill="#263238"/>
<path d="M958.406 1306.04C943.309 1302.96 924.69 1304.81 912.756 1314.74C912.299 1315.14 912.756 1315.75 913.375 1315.6C927.993 1311.5 943.035 1308.89 958.243 1307.82C958.367 1307.83 958.493 1307.82 958.611 1307.78C958.73 1307.75 958.84 1307.69 958.936 1307.61C959.031 1307.54 959.11 1307.44 959.167 1307.34C959.225 1307.24 959.26 1307.12 959.27 1307C959.281 1306.89 959.267 1306.77 959.23 1306.66C959.192 1306.55 959.131 1306.44 959.051 1306.35C958.971 1306.26 958.873 1306.19 958.762 1306.13C958.651 1306.08 958.53 1306.05 958.406 1306.04Z" fill="#263238"/>
<path d="M969.201 1312.49C954.104 1309.42 935.485 1311.26 923.55 1321.23C923.094 1321.59 923.55 1322.21 924.17 1322.06C938.782 1317.98 953.812 1315.39 969.006 1314.31C969.239 1314.3 969.46 1314.21 969.63 1314.05C969.799 1313.9 969.905 1313.7 969.929 1313.48C969.952 1313.26 969.892 1313.04 969.759 1312.86C969.625 1312.68 969.427 1312.55 969.201 1312.49Z" fill="#263238"/>
<path d="M948.458 1280.61L781.93 1273.45C781.93 1273.45 839.516 1053.1 833.385 1045.94C826.864 1038.22 607.283 1095.13 559.057 1038.74C509.689 980.972 559.057 884.279 559.057 884.279H727.867C727.867 884.279 727.867 901.988 716.389 928.49C716.389 928.49 907.796 895.071 958.24 920.22C968.186 925.201 1003.89 952.994 1004.48 979.342C1007.41 1095.87 948.458 1280.61 948.458 1280.61Z" fill="#455A64"/>
<path d="M950.061 1252.17C930.301 1249.83 910.475 1248.39 890.617 1247.01C870.759 1245.62 850.934 1244.49 831.043 1243.75C819.858 1243.35 808.641 1243.44 797.424 1243.04C797.346 1243.04 797.272 1243.07 797.217 1243.12C797.162 1243.17 797.131 1243.24 797.131 1243.32C797.131 1243.39 797.162 1243.46 797.217 1243.51C797.272 1243.56 797.346 1243.59 797.424 1243.59C807.402 1244.27 817.348 1245.44 827.326 1246.18C837.304 1246.91 846.89 1247.59 856.868 1248.21C876.694 1249.47 896.552 1250.48 916.41 1251.65C927.627 1252.29 938.811 1252.63 950.029 1252.88C950.111 1252.86 950.184 1252.82 950.237 1252.75C950.291 1252.69 950.322 1252.62 950.325 1252.54C950.329 1252.46 950.305 1252.38 950.258 1252.31C950.21 1252.25 950.141 1252.2 950.061 1252.17Z" fill="#263238"/>
<path d="M629.658 897.592C629.437 898.24 629.154 898.868 628.81 899.467C628.773 899.511 628.753 899.565 628.753 899.621C628.753 899.677 628.773 899.731 628.81 899.775C626.854 905.524 626.039 911.611 624.148 917.391C622.351 923.527 618.367 928.891 612.865 932.579C601.322 940.143 587.464 943.555 574.03 946.691C573.949 946.714 573.878 946.761 573.828 946.824C573.777 946.888 573.75 946.965 573.75 947.045C573.75 947.124 573.777 947.202 573.828 947.265C573.878 947.329 573.949 947.376 574.03 947.398C581.774 947.439 589.477 946.329 596.855 944.109C603.787 942.299 610.323 939.343 616.159 935.377C621.639 931.466 625.549 925.916 627.245 919.636C628.066 916.297 628.708 912.921 629.169 909.521C629.924 905.612 630.371 901.655 630.506 897.684C630.458 897.624 630.398 897.573 630.329 897.536C630.259 897.498 630.183 897.474 630.103 897.466C630.024 897.457 629.944 897.464 629.867 897.485C629.79 897.507 629.719 897.543 629.658 897.592Z" fill="#263238"/>
<path d="M743.556 920.62C734.373 923.118 725.429 926.337 716.817 930.243L716.393 930.428C716.57 929.927 716.701 929.412 716.785 928.89C716.785 928.276 716.98 927.691 717.111 927.076C717.241 926.462 717.111 925.816 717.306 925.17V924.186C718.416 924.119 719.499 923.835 720.487 923.354C721.474 922.872 722.345 922.203 723.045 921.389C724.846 919.03 726.061 916.318 726.6 913.456C727.611 909.89 728.556 906.262 729.371 902.634C730.187 899.006 731.067 894.548 731.752 890.336C732.58 886.352 733.071 882.312 733.219 878.254C733.219 878.107 733.157 877.966 733.047 877.862C732.937 877.759 732.788 877.7 732.632 877.7C732.476 877.7 732.327 877.759 732.217 877.862C732.107 877.966 732.045 878.107 732.045 878.254C731.034 881.974 730.578 885.817 729.828 889.568C729.078 893.319 728.23 897.1 727.317 900.851C726.404 904.602 725.426 908.353 724.317 912.042C723.208 915.732 722.361 920.128 718.317 921.266C709.97 923.51 713.72 905.893 714.078 902.388C714.926 894.395 715.448 886.217 716.948 878.284C716.948 877.977 716.459 877.823 716.393 878.284C714.567 885.571 712.513 892.734 711.144 900.113C710.459 903.741 709.97 907.4 709.546 911.028C708.869 914.171 709.14 917.43 710.328 920.436C710.846 921.451 711.618 922.331 712.579 923.001C713.539 923.671 714.658 924.109 715.839 924.279L715.578 925.109C715.383 925.693 715.187 926.277 715.024 926.861C714.861 927.445 714.73 928.06 714.6 928.644C714.313 929.338 714.212 930.088 714.307 930.827C714.379 931.035 714.53 931.21 714.73 931.319C711.176 932.764 707.589 934.209 704.068 935.777C699.64 937.417 695.356 939.38 691.253 941.65C690.764 941.865 691.253 942.48 691.612 942.387C696.203 941.173 700.693 939.641 705.046 937.806C709.513 936.208 713.915 934.486 718.35 932.734C727.134 929.693 735.632 925.959 743.751 921.573C743.885 921.549 744.004 921.475 744.08 921.368C744.157 921.262 744.185 921.131 744.159 921.004C744.133 920.878 744.055 920.766 743.942 920.694C743.829 920.622 743.69 920.596 743.556 920.62Z" fill="#263238"/>
<path d="M999.525 959.327C993.749 943.316 982.06 929.796 966.591 921.234C950.711 912.964 932.19 910.75 914.419 910.227C893.746 909.643 872.942 910.658 852.301 911.888C830.324 913.179 808.346 915.147 786.499 918.037C764.652 920.927 743.196 924.462 721.707 928.828C716.555 929.873 711.436 931.165 706.316 932.517C705.925 932.517 705.99 933.317 706.316 933.255C727.674 930.427 748.935 927.106 770.293 924.339C791.651 921.572 813.237 919.389 834.823 917.852C856.41 916.315 877.768 915.454 899.256 915.147C916.864 914.901 935.125 915.147 951.853 920.496C960.124 922.988 967.785 927.012 974.385 932.333C980.867 937.798 986.18 944.383 990.036 951.733C998.84 968.058 999.655 986.782 1000.54 1004.86C1003.08 1058.51 962.157 1228.99 954.885 1256.38C954.866 1256.62 954.937 1256.86 955.085 1257.05C955.233 1257.25 955.448 1257.38 955.693 1257.44C955.939 1257.5 956.198 1257.48 956.426 1257.37C956.654 1257.27 956.836 1257.09 956.939 1256.88C965.124 1225.95 1005.85 1064.9 1005.85 1016.51C1005.88 997.204 1006.63 977.528 999.525 959.327Z" fill="#263238"/>
<path d="M857.842 1027.37C828.006 1028.35 798.333 1030.96 768.66 1033.91C738.987 1036.87 709.085 1040.06 679.217 1042.03C664.347 1042.98 649.446 1043.6 634.544 1043.69C622.154 1044.24 609.751 1042.93 597.795 1039.82C585.653 1036.12 575.446 1028.22 569.231 1017.71C562.707 1006.7 558.468 994.617 556.742 982.109C552.829 956.683 556.742 930.703 561.34 905.616C561.927 902.541 562.481 899.467 563.068 896.177C563.068 895.87 562.644 895.747 562.579 896.177C556.351 921.48 550.775 947.521 552.797 973.654C553.537 986.426 556.615 998.98 561.894 1010.76C566.496 1021.91 574.683 1031.43 585.306 1037.97C596.247 1043.49 608.441 1046.43 620.849 1046.55C635.209 1047.06 649.588 1046.84 663.924 1045.9C694.51 1044.4 724.965 1041.2 755.388 1038C785.811 1034.81 816.039 1031.67 846.494 1030.13C849.755 1029.98 853.244 1029.82 856.603 1029.73C852.005 1057.25 812.876 1222.1 810.691 1235.14C810.463 1236.43 811.702 1236.83 812.028 1235.54C818.549 1209.84 856.7 1044.92 859.211 1028.78C859.255 1028.6 859.251 1028.41 859.2 1028.22C859.149 1028.04 859.052 1027.87 858.917 1027.74C858.783 1027.6 858.615 1027.49 858.428 1027.43C858.24 1027.36 858.039 1027.34 857.842 1027.37Z" fill="#263238"/>
<path d="M549.376 903.926C549.832 904.541 772.902 920.713 775.249 918.745C778.51 915.947 756.435 700.457 736.511 668.851C732.24 662.118 715.903 658.582 701.588 658.705C697.861 658.688 694.14 658.987 690.469 659.597H690.111C687.148 660.072 684.292 661.018 681.665 662.395C638.819 687.605 593.103 787.157 581.592 817.287C562.517 866.971 547.713 901.712 549.376 903.926Z" fill="#A30FD7"/>
<path d="M726.24 696.336C715.154 696.336 696.437 679.457 692.72 663.624C692.459 662.517 697.056 653.078 702.013 641.334C705.013 634.17 708.176 626.177 710.491 618.675C710.947 617.107 756.892 643.793 756.892 643.793C751.152 652.404 746.552 661.645 743.196 671.31C742.894 672.316 742.687 673.345 742.577 674.385C742.59 674.559 742.59 674.733 742.577 674.907C741.696 681.148 738.077 696.49 726.24 696.336Z" fill="#F7A9A0"/>
<path d="M742.577 674.477C742.59 674.651 742.59 674.826 742.577 675C740.818 674.758 739.084 674.377 737.393 673.862C708.046 665.192 711.111 628.36 712.35 619.167C720.861 622.795 756.99 643.763 756.99 643.763C751.255 652.38 746.646 661.619 743.262 671.279C742.945 672.327 742.716 673.396 742.577 674.477Z" fill="#263238"/>
<path d="M714.568 561.059C706.514 577.6 708.992 628.698 720.372 641.365C736.905 659.811 767.556 665.376 785.131 645.884C802.153 626.976 797.685 560.536 784.642 548.577C765.371 530.991 726.503 536.679 714.568 561.059Z" fill="#F7A9A0"/>
<path d="M761.783 597.46C761.783 597.46 761.522 597.644 761.522 597.798C761.783 601.211 761.522 605.208 758.262 606.468C758.262 606.468 758.262 606.683 758.262 606.653C762.272 605.976 762.599 600.688 761.783 597.46Z" fill="#263238"/>
<path d="M758.36 594.018C752.49 593.803 752.523 604.932 757.968 605.117C763.414 605.301 763.316 594.171 758.36 594.018Z" fill="#263238"/>
<path d="M782.913 598.015C782.913 598.015 783.207 598.168 783.174 598.322C783.174 601.735 783.566 605.701 786.859 606.838C786.859 606.838 786.859 607.054 786.859 607.023C782.816 606.5 782.163 601.243 782.913 598.015Z" fill="#263238"/>
<path d="M786.173 594.417C792.01 593.987 792.499 605.086 787.054 605.455C781.608 605.824 781.249 594.725 786.173 594.417Z" fill="#263238"/>
<path d="M753.728 588.944C755.268 588.51 756.781 587.997 758.261 587.407C759.948 587.1 761.476 586.266 762.598 585.039C762.875 584.589 762.988 584.064 762.917 583.547C762.846 583.03 762.596 582.55 762.206 582.18C761.318 581.567 760.272 581.19 759.177 581.087C758.082 580.984 756.977 581.16 755.978 581.596C753.804 582.172 751.941 583.501 750.761 585.316C750.523 585.743 750.421 586.226 750.465 586.706C750.51 587.186 750.699 587.645 751.012 588.027C751.324 588.409 751.746 588.698 752.227 588.861C752.709 589.023 753.23 589.052 753.728 588.944Z" fill="#263238"/>
<path d="M790.704 588.79C789.116 588.501 787.548 588.121 786.009 587.652C784.301 587.49 782.703 586.785 781.476 585.654C781.146 585.242 780.967 584.74 780.967 584.224C780.967 583.708 781.146 583.206 781.476 582.795C782.304 582.107 783.313 581.641 784.397 581.446C785.481 581.252 786.601 581.335 787.639 581.688C789.855 582.081 791.833 583.244 793.182 584.947C793.456 585.34 793.606 585.799 793.615 586.27C793.623 586.741 793.49 587.204 793.231 587.606C792.971 588.009 792.596 588.333 792.149 588.543C791.702 588.752 791.201 588.838 790.704 588.79Z" fill="#263238"/>
<path d="M758.458 629.405C759.339 630.204 760.219 631.311 761.719 631.434C763.075 631.396 764.408 631.092 765.632 630.542C765.632 630.542 765.86 630.542 765.795 630.727C765.274 631.404 764.569 631.935 763.754 632.265C762.939 632.595 762.044 632.712 761.165 632.602C760.414 632.422 759.738 632.032 759.226 631.483C758.714 630.935 758.39 630.253 758.295 629.528C758.067 629.374 758.328 629.282 758.458 629.405Z" fill="#263238"/>
<path d="M773.389 623.134C771.857 625.039 769.822 626.534 767.487 627.469C766.209 627.937 764.809 628.022 763.477 627.715C760.575 627.007 760.477 624.64 760.998 622.303C761.31 621.167 761.747 620.064 762.303 619.014C765.436 621.47 769.322 622.914 773.389 623.134Z" fill="#263238"/>
<path d="M767.487 627.468C766.209 627.936 764.809 628.022 763.477 627.714C760.575 627.007 760.477 624.639 760.998 622.303C762.539 622.35 764.017 622.885 765.195 623.822C766.372 624.76 767.18 626.044 767.487 627.468Z" fill="#FF9BBC"/>
<path d="M792.433 565.455C790.444 561.089 788.129 556.692 785.325 555.801C782.521 554.909 780.727 561.366 774.369 561.765C765.825 562.319 761.684 554.909 749.717 554.11C732.5 553.003 724.935 566.408 724.544 589.528C724.185 610.065 711.012 612.002 711.012 612.002C711.012 612.002 703.023 566.715 716.555 551.712C730.087 536.708 761.163 530.19 782.032 544.395C789.629 549.59 792.433 565.455 792.433 565.455Z" fill="#263238"/>
<path d="M722 603.948C722 603.948 711.99 586.516 703.74 589.682C695.49 592.849 701.62 617.353 710.261 621.442C711.344 622.055 712.547 622.456 713.798 622.619C715.05 622.782 716.323 622.705 717.542 622.392C718.76 622.078 719.899 621.536 720.89 620.797C721.88 620.058 722.701 619.137 723.304 618.091L722 603.948Z" fill="#F7A9A0"/>
<path d="M705.695 596.601V596.816C711.793 599.89 714.467 606.039 716.13 611.973C715.832 611.329 715.39 610.753 714.833 610.286C714.277 609.818 713.619 609.47 712.906 609.266C712.193 609.061 711.442 609.005 710.704 609.101C709.965 609.196 709.258 609.442 708.63 609.821C708.434 609.821 708.63 610.19 708.63 610.159C709.796 609.948 711.003 610.08 712.088 610.536C713.172 610.993 714.082 611.752 714.695 612.711C715.683 614.34 716.492 616.061 717.108 617.845C717.336 618.399 718.412 618.245 718.249 617.599V617.446C719.358 609.759 714.336 598.322 705.695 596.601Z" fill="#263238"/>
<path d="M790.377 551.958C785.323 550.821 757.313 551.62 744.727 556.724C732.14 561.828 709.771 578.891 708.63 579.783C707.488 580.674 701.717 537.139 739.183 529.207C779.976 520.537 790.377 551.958 790.377 551.958Z" fill="#A30FD7"/>
<path d="M710.785 577.999C710.785 577.999 735.534 547.254 749.295 540.183C763.055 533.111 793.87 529.176 812.945 537.108C827.782 543.257 791.522 561.274 791.522 561.274C791.179 559.798 790.475 558.419 789.468 557.245C788.46 556.071 787.176 555.134 785.718 554.51C776.457 551.035 758.849 553.71 748.806 556.877C736.154 560.905 710.785 577.999 710.785 577.999Z" fill="#A30FD7"/>
<path opacity="0.2" d="M710.785 578.154C710.785 578.154 735.534 547.224 749.295 540.184C763.055 533.143 793.87 529.177 812.945 537.109C827.782 543.258 791.522 561.275 791.522 561.275C791.179 559.799 790.475 558.42 789.468 557.246C788.46 556.072 787.176 555.135 785.718 554.511C776.457 551.037 758.849 553.711 748.806 556.878C736.154 560.906 710.785 578.154 710.785 578.154Z" fill="black"/>
<path d="M667.549 719.887C665.462 780.516 689.2 894.056 706.678 901.773C763.089 926.615 858.01 928.183 890.52 928.46C904.541 928.46 926.063 834.442 912.172 829.154C902.944 825.649 763.774 825.618 761.328 820.945C758.883 816.272 725.721 748.756 711.406 711.371C692.396 661.656 668.755 684.284 667.549 719.887Z" fill="#F7A9A0"/>
<path d="M897.234 827.893C897.234 827.893 939.852 830.352 967.602 833.181C983.123 834.749 1009.44 839.699 1020.23 845.755C1036.53 854.979 1097.97 902.572 1086.03 916.899C1075.21 929.842 1027.86 882.526 1027.86 882.526C1027.86 882.526 1080.03 926.276 1064.06 939.65C1048.08 953.024 1002.1 892.795 1002.1 892.795C1002.1 892.795 1054.73 938.912 1035.85 950.226C1021.6 958.743 976.699 906.446 976.699 906.446C976.699 906.446 1021.67 946.414 1007.38 955.637C991.601 965.998 946.961 920.158 946.961 920.158C906.43 938.236 879.3 931.195 860.616 924.032C856.018 922.433 897.234 827.893 897.234 827.893Z" fill="#F7A9A0"/>
<path d="M1010.8 866.293C1017.13 871.212 1023.59 876.162 1029.42 881.665C1035.26 887.169 1040.93 892.764 1046.22 898.698C1053.28 906.33 1059.41 914.695 1064.48 923.632C1054.27 908.259 1033.66 888.583 1027.79 883.141C1021.92 877.699 1016.41 871.981 1010.58 866.539C1010.41 866.354 1010.64 866.17 1010.8 866.293Z" fill="#263238"/>
<path d="M989.577 885.846C997.37 892.457 1005.36 898.79 1012.86 905.738C1020.36 912.687 1026.75 919.85 1033.69 927.26C1034.22 927.813 1033.69 927.905 1033.14 927.26C1025.9 920.158 1018.63 914.101 1011.33 907.06C1004.02 900.02 996.946 892.703 989.381 885.939C989.25 885.908 989.446 885.754 989.577 885.846Z" fill="#263238"/>
<path d="M968.025 899.528C980.255 909.418 991.368 920.473 1001.19 932.518C1001.68 933.102 1001.02 933.163 1000.47 932.518C989.676 921.357 981.296 912.533 967.666 899.897C967.568 899.743 968.025 899.344 968.025 899.528Z" fill="#263238"/>
<path d="M1014.85 840.898C1004.72 836.817 993.966 834.275 982.991 833.365C959.318 830.629 935.514 828.846 911.711 827.217C887.907 825.587 863.745 824.142 839.745 823.312C826.246 822.82 812.746 822.441 799.247 822.174C785.747 821.928 782.943 822.39 769.378 822.543C769.019 822.543 769.052 823.004 769.378 823.035C793.019 824.204 806.062 825.126 829.702 826.294C853.343 827.463 876.918 828.785 900.494 830.322C924.069 831.859 947.253 833.396 970.535 835.856C981.796 836.576 992.963 838.275 1003.89 840.929C1014.6 844.637 1024.53 850.09 1033.24 857.039C1043.22 864.449 1080.62 898.36 1084.04 902.757C1084.47 903.279 1084.63 903.126 1084.4 902.449C1081.69 893.257 1036.73 850.521 1014.85 840.898Z" fill="#263238"/>
<path d="M734.879 759.024L665.523 796.102C665.523 796.102 662.588 713.46 669.012 688.926C676.25 661.256 689.62 670.848 704.684 693.845C719.749 716.842 734.879 759.024 734.879 759.024Z" fill="#A30FD7"/>
<path opacity="0.1" d="M734.879 759.024L665.523 796.102C665.523 796.102 662.588 713.46 669.012 688.926C676.25 661.256 689.62 670.848 704.684 693.845C719.749 716.842 734.879 759.024 734.879 759.024Z" fill="black"/>
<path d="M725.328 748.448C715.839 752.045 688.905 766.618 684.438 768.985C682.09 770.215 672.895 775.595 670.547 776.825C670.254 776.979 670.547 777.379 670.841 777.225C675.373 774.888 680.134 772.982 684.699 770.676C689.264 768.37 717.307 754.474 725.524 748.755C725.555 748.726 725.575 748.688 725.581 748.647C725.586 748.606 725.577 748.565 725.554 748.529C725.532 748.494 725.497 748.466 725.456 748.452C725.415 748.437 725.37 748.436 725.328 748.448Z" fill="#263238"/>
<path d="M723.954 728.433C722.878 724.59 721.77 720.778 720.531 716.965C721.215 719.794 721.998 722.622 722.781 725.451C720.27 720.101 717.694 714.813 714.89 709.679H714.727C717.759 718.011 721.248 726.189 724.509 734.459C727.77 742.729 731.03 750.631 734.291 758.717C732.824 759.793 731.389 760.838 729.889 761.791C729.829 761.828 729.786 761.886 729.771 761.952C729.755 762.018 729.769 762.088 729.808 762.145C729.847 762.202 729.908 762.242 729.978 762.256C730.049 762.271 730.122 762.258 730.183 762.222C731.976 761.361 733.769 760.5 735.628 759.731C735.843 759.655 736.019 759.505 736.122 759.311C736.225 759.117 736.246 758.894 736.182 758.686C732.53 748.632 728.487 738.425 723.954 728.433Z" fill="#263238"/>
<g opacity="0.5">
<path opacity="0.5" d="M1498.3 691.848C1498.3 694.701 1497.4 697.49 1495.72 699.862C1494.04 702.234 1491.65 704.082 1488.85 705.173C1486.05 706.263 1482.98 706.547 1480.01 705.988C1477.04 705.429 1474.32 704.053 1472.18 702.033C1470.04 700.013 1468.59 697.441 1468 694.642C1467.41 691.843 1467.72 688.943 1468.88 686.309C1470.05 683.674 1472.01 681.425 1474.53 679.844C1477.05 678.263 1480.01 677.423 1483.04 677.429C1485.04 677.429 1487.03 677.802 1488.88 678.527C1490.74 679.252 1492.42 680.315 1493.84 681.654C1495.26 682.993 1496.38 684.583 1497.14 686.332C1497.91 688.082 1498.3 689.956 1498.3 691.848Z" fill="#A30FD7"/>
<path opacity="0.5" d="M1483.04 716.29C1477.86 716.32 1472.8 714.9 1468.48 712.209C1464.17 709.518 1460.8 705.678 1458.81 701.178C1456.81 696.677 1456.28 691.719 1457.28 686.934C1458.28 682.148 1460.77 677.752 1464.43 674.303C1468.09 670.854 1472.75 668.508 1477.83 667.564C1482.9 666.62 1488.16 667.12 1492.93 669C1497.71 670.881 1501.78 674.057 1504.63 678.125C1507.49 682.194 1508.99 686.97 1508.96 691.848C1508.92 698.318 1506.17 704.511 1501.32 709.086C1496.47 713.661 1489.9 716.25 1483.04 716.29ZM1483.04 670.48C1478.56 670.48 1474.19 671.73 1470.46 674.071C1466.74 676.412 1463.84 679.74 1462.12 683.636C1460.4 687.531 1459.94 691.819 1460.8 695.96C1461.66 700.101 1463.8 703.908 1466.96 706.903C1470.11 709.897 1474.13 711.944 1478.52 712.786C1482.9 713.628 1487.45 713.226 1491.6 711.633C1495.74 710.039 1499.29 707.324 1501.8 703.83C1504.31 700.337 1505.67 696.221 1505.7 692.001C1505.72 689.183 1505.15 686.387 1504.02 683.777C1502.89 681.167 1501.23 678.793 1499.12 676.793C1497.01 674.792 1494.51 673.205 1491.75 672.121C1488.99 671.038 1486.03 670.48 1483.04 670.48Z" fill="#A30FD7"/>
<path opacity="0.5" d="M563.168 553.959C563.174 556.812 562.283 559.603 560.607 561.978C558.93 564.353 556.544 566.206 553.75 567.302C550.956 568.399 547.88 568.689 544.912 568.136C541.943 567.583 539.215 566.212 537.073 564.197C534.931 562.181 533.471 559.612 532.878 556.814C532.286 554.016 532.587 551.115 533.743 548.479C534.9 545.842 536.86 543.588 539.375 542.003C541.891 540.417 544.849 539.57 547.875 539.57C551.925 539.57 555.81 541.085 558.677 543.783C561.544 546.48 563.159 550.14 563.168 553.959Z" fill="#A30FD7"/>
<path opacity="0.5" d="M547.878 578.431C542.712 578.461 537.653 577.044 533.341 574.36C529.03 571.676 525.661 567.846 523.662 563.354C521.662 558.863 521.122 553.912 522.11 549.131C523.098 544.35 525.57 539.953 529.212 536.498C532.853 533.043 537.501 530.685 542.566 529.723C547.63 528.762 552.884 529.24 557.66 531.097C562.436 532.954 566.52 536.106 569.393 540.154C572.267 544.202 573.801 548.964 573.801 553.835C573.801 560.331 571.075 566.564 566.219 571.172C561.362 575.781 554.768 578.39 547.878 578.431ZM547.878 532.59C543.35 532.56 538.915 533.8 535.136 536.153C531.358 538.506 528.407 541.866 526.659 545.804C524.911 549.743 524.445 554.083 525.321 558.272C526.196 562.461 528.374 566.31 531.576 569.329C534.778 572.348 538.86 574.401 543.302 575.226C547.745 576.052 552.348 575.612 556.526 573.965C560.703 572.317 564.266 569.534 566.762 565.972C569.257 562.409 570.573 558.227 570.541 553.958C570.498 548.303 568.096 542.891 563.856 538.893C559.615 534.894 553.875 532.63 547.878 532.59Z" fill="#A30FD7"/>
<path opacity="0.5" d="M1124.87 767.972H927.27V479.954H666.506V555.494H572.172V552.42H663.245V476.88H930.531V764.897H1121.61V685.115H1345.27V607.422H1484.67V668.943H1481.41V610.497H1348.53V688.189H1124.87V767.972Z" fill="#A30FD7"/>
</g>
<path d="M602.168 404.107C599.461 378.528 580.744 353.04 547.876 353.04C515.007 353.04 496.323 378.65 493.617 404.107C489.475 443.614 517.714 479.401 547.876 512.052C578.038 479.524 606.309 443.737 602.168 404.107ZM547.876 432.515C541.993 432.515 536.242 430.87 531.351 427.788C526.46 424.705 522.648 420.324 520.398 415.199C518.148 410.074 517.561 404.435 518.711 398.995C519.861 393.555 522.697 388.559 526.859 384.638C531.021 380.718 536.323 378.05 542.094 376.972C547.865 375.893 553.845 376.453 559.279 378.58C564.712 380.707 569.354 384.306 572.618 388.921C575.882 393.536 577.62 398.96 577.614 404.507C577.631 408.198 576.874 411.856 575.387 415.27C573.9 418.685 571.712 421.788 568.948 424.402C566.185 427.017 562.9 429.09 559.284 430.504C555.667 431.917 551.79 432.642 547.876 432.638V432.515Z" fill="#A30FD7"/>
<defs>
<linearGradient id="paint0_linear_287_1691" x1="786.724" y1="0" x2="786.724" y2="1582" gradientUnits="userSpaceOnUse">
<stop stop-color="#F3A9FF"/>
<stop offset="1" stop-color="#BD2BF0"/>
</linearGradient>
</defs>
</svg>
