<svg width="1667" height="1582" viewBox="0 0 1667 1582" fill="none" xmlns="http://www.w3.org/2000/svg">
<path d="M9.2287 57.8737C4.3856 27.5024 27.8498 0 58.6049 0H1278.55C1303.13 0 1324.06 17.8582 1327.93 42.1263L1564.25 1524.13C1569.1 1554.5 1545.63 1582 1514.88 1582H294.929C270.354 1582 249.422 1564.14 245.553 1539.87L9.2287 57.8737Z" fill="url(#paint0_linear_242_1496)"/>
<path d="M830.754 810.015H549.775V601.089H726.462L742.497 687.779L830.754 723.585V810.015Z" fill="#282C2E"/>
<path opacity="0.1" d="M830.754 810.015H549.775V601.089H726.462L742.497 687.779L830.754 723.585V810.015Z" fill="white"/>
<path opacity="0.1" d="M700.389 810.015H541.084V601.089H596.098L612.132 687.779L700.389 723.585V810.015Z" fill="white"/>
<path opacity="0.2" d="M721.071 640.936L716.334 615.254H614.824L619.561 640.936H721.071Z" fill="black"/>
<path opacity="0.2" d="M621.691 652.406L625.081 670.744H726.591L723.202 652.406H621.691Z" fill="black"/>
<path opacity="0.3" d="M612.135 687.778H742.499L830.756 723.585H700.391L612.135 687.778Z" fill="white"/>
<path d="M951.428 593.178C951.428 593.178 938.652 628.158 928.875 629.288C919.097 630.418 855.523 523.782 855.523 523.782C855.523 523.782 848.223 502.62 836.186 496.884C824.149 491.149 788.385 470.812 779.173 475.418C769.961 480.024 774.828 515.222 774.828 523.217C774.828 530.257 805.246 540.599 814.371 542.337C820.279 543.556 826.414 543.012 832.014 540.773C832.014 540.773 882.987 666.268 916.056 688.255C949.125 710.243 998.924 635.459 998.924 635.459L951.428 593.178Z" fill="#F8A58D"/>
<path d="M1040.99 445.435C1068.45 459.427 1060.59 526.781 990.364 652.536L942.26 613.428C953.695 574.342 968.466 536.311 986.41 499.752C1014.87 443.002 1040.99 445.435 1040.99 445.435Z" fill="#650094"/>
<path opacity="0.4" d="M1040.99 445.435C1068.45 459.427 1060.59 526.781 990.364 652.536L942.26 613.428C953.695 574.342 968.466 536.311 986.41 499.752C1014.87 443.002 1040.99 445.435 1040.99 445.435Z" fill="white"/>
<path d="M1276.86 748.137H1090.01C1072.23 845.256 1016.57 1188.85 1056.5 1494.98L1119.68 1487.11C1119.68 1487.11 1113.82 1080.69 1169.74 930.469C1176.18 1010.86 1183.78 1096.42 1190.43 1141.96C1206.59 1253.98 1241.36 1498.89 1241.36 1498.89H1305.8C1305.8 1498.89 1292.77 1264.5 1286.51 1154.34C1279.99 1034.8 1277.12 772.558 1276.86 748.137Z" fill="#282C2E"/>
<path d="M1027.6 446.392C1046.94 442.047 1148.93 419.19 1231.23 422.406C1231.23 422.406 1257.69 693.601 1282.51 803.843L1067.28 841.561C1067.28 841.561 1018.95 571.713 1024.21 450.477C1024.25 449.517 1024.6 448.596 1025.21 447.857C1025.82 447.118 1026.67 446.603 1027.6 446.392Z" fill="#650094"/>
<path opacity="0.6" d="M1027.6 446.392C1046.94 442.047 1148.93 419.19 1231.23 422.406C1231.23 422.406 1257.69 693.601 1282.51 803.843L1067.28 841.561C1067.28 841.561 1018.95 571.713 1024.21 450.477C1024.25 449.517 1024.6 448.596 1025.21 447.857C1025.82 447.118 1026.67 446.603 1027.6 446.392Z" fill="white"/>
<path d="M1212.03 418.756C1212.03 418.756 1187.39 522.35 1254.74 610.344L1271.39 720.847L1290.72 812.361L1183.65 840.606L1145.28 754.698L1141.41 849.557L1056.2 861.985L1046.94 753.35C1046.94 753.35 1032.21 667.573 1028.43 620.469C1028.43 620.469 1015.65 511.313 1035.56 441.699L1063.58 435.659C1063.58 435.659 1065.15 502.187 1107.73 555.549C1107.73 555.549 1148.15 449.043 1184.82 418.886L1212.03 418.756Z" fill="#650094"/>
<path opacity="0.2" d="M1212.03 418.756C1212.03 418.756 1187.39 522.35 1254.74 610.344L1271.39 720.847L1290.72 812.361L1183.65 840.606L1145.28 754.698L1141.41 849.557L1056.2 861.985L1046.94 753.35C1046.94 753.35 1032.21 667.573 1028.43 620.469C1028.43 620.469 1015.65 511.313 1035.56 441.699L1063.58 435.659C1063.58 435.659 1065.15 502.187 1107.73 555.549C1107.73 555.549 1148.15 449.043 1184.82 418.886L1212.03 418.756Z" fill="black"/>
<path d="M934.004 610.996L943.043 603.739L998.013 650.235L989.191 666.009L934.004 610.996Z" fill="#650094"/>
<path opacity="0.3" d="M934.004 610.996L943.043 603.739L998.013 650.235L989.191 666.009L934.004 610.996Z" fill="white"/>
<path d="M1112.82 1548.3L1076.49 1552.12L1069.67 1473.73L1106 1469.86L1112.82 1548.3Z" fill="#F8A58D"/>
<path d="M1294.28 1545.65H1259.04L1256.13 1464.04H1291.37L1294.28 1545.65Z" fill="#F8A58D"/>
<path d="M1254.13 1541.69H1296.94C1297.64 1541.7 1298.33 1541.94 1298.88 1542.38C1299.43 1542.82 1299.82 1543.43 1299.98 1544.12L1306.89 1575.5C1307.04 1576.16 1307.05 1576.85 1306.93 1577.53C1306.8 1578.2 1306.55 1578.84 1306.18 1579.41C1305.81 1579.99 1305.32 1580.48 1304.76 1580.87C1304.2 1581.26 1303.56 1581.53 1302.89 1581.67C1302.52 1581.71 1302.14 1581.71 1301.76 1581.67C1287.9 1581.45 1277.82 1580.62 1260.44 1580.62C1249.7 1580.62 1217.42 1581.71 1202.6 1581.71C1187.78 1581.71 1185.91 1567.11 1191.95 1565.76C1219.11 1559.85 1239.53 1551.64 1248.22 1544.03C1249.83 1542.53 1251.94 1541.7 1254.13 1541.69Z" fill="#282C2E"/>
<path d="M1242.49 1547.77C1240.1 1547.95 1237.73 1547.3 1235.75 1545.95C1235.12 1545.43 1234.62 1544.76 1234.31 1544C1234 1543.24 1233.88 1542.42 1233.97 1541.6C1233.97 1541.12 1234.1 1540.65 1234.35 1540.24C1234.61 1539.83 1234.97 1539.51 1235.4 1539.3C1239.32 1537.26 1250.7 1544.25 1251.96 1545.08C1252.1 1545.15 1252.21 1545.27 1252.28 1545.41C1252.36 1545.55 1252.38 1545.71 1252.35 1545.86C1252.33 1546.03 1252.26 1546.19 1252.15 1546.32C1252.05 1546.45 1251.9 1546.55 1251.74 1546.6C1248.7 1547.29 1245.6 1547.69 1242.49 1547.77ZM1237.27 1540.43C1236.89 1540.42 1236.52 1540.51 1236.19 1540.69C1235.97 1540.69 1235.67 1540.99 1235.62 1541.65C1235.56 1542.2 1235.63 1542.76 1235.83 1543.28C1236.02 1543.8 1236.34 1544.27 1236.75 1544.64C1240.7 1546.46 1245.19 1546.69 1249.31 1545.3C1245.64 1542.93 1241.56 1541.28 1237.27 1540.43Z" fill="#650094"/>
<path d="M1251.52 1546.52H1251.09C1247.48 1544.52 1240.44 1536.78 1241.14 1533.04C1241.27 1532.43 1241.61 1531.87 1242.1 1531.48C1242.59 1531.08 1243.2 1530.87 1243.83 1530.87C1244.47 1530.79 1245.11 1530.84 1245.72 1531.02C1246.34 1531.2 1246.91 1531.5 1247.4 1531.91C1251.48 1535.26 1252.31 1545.39 1252.35 1545.86C1252.35 1546.02 1252.32 1546.17 1252.25 1546.3C1252.18 1546.44 1252.08 1546.56 1251.96 1546.65C1251.8 1546.65 1251.65 1546.6 1251.52 1546.52ZM1244.44 1532.22H1244.01C1242.96 1532.22 1242.88 1532.83 1242.79 1533.04C1242.35 1535.35 1246.83 1541.21 1250.48 1543.95C1250.18 1539.92 1248.66 1536.07 1246.14 1532.91C1245.66 1532.51 1245.07 1532.26 1244.44 1532.22Z" fill="#650094"/>
<path d="M1072.63 1540.43H1115.34C1116.04 1540.45 1116.71 1540.7 1117.25 1541.14C1117.8 1541.58 1118.18 1542.18 1118.34 1542.86L1125.29 1574.24C1125.58 1575.59 1125.32 1576.99 1124.57 1578.15C1123.82 1579.3 1122.64 1580.12 1121.29 1580.41H1120.17C1106.3 1580.15 1096.22 1579.32 1078.84 1579.32C1068.11 1579.32 1035.78 1580.45 1021 1580.45C1006.23 1580.45 1004.27 1565.81 1010.35 1564.46C1037.51 1558.55 1057.94 1550.34 1066.63 1542.73C1068.26 1541.23 1070.41 1540.4 1072.63 1540.43Z" fill="#282C2E"/>
<path d="M1060.97 1546.64C1058.58 1546.82 1056.19 1546.2 1054.2 1544.86C1053.58 1544.33 1053.1 1543.65 1052.8 1542.9C1052.5 1542.14 1052.38 1541.33 1052.46 1540.52C1052.45 1540.03 1052.58 1539.56 1052.83 1539.15C1053.09 1538.74 1053.45 1538.42 1053.89 1538.21C1057.8 1536.17 1069.19 1543.17 1070.45 1543.99C1070.58 1544.07 1070.69 1544.18 1070.76 1544.32C1070.83 1544.46 1070.86 1544.62 1070.84 1544.77C1070.82 1544.95 1070.74 1545.11 1070.63 1545.25C1070.51 1545.38 1070.36 1545.47 1070.19 1545.51C1067.17 1546.24 1064.08 1546.62 1060.97 1546.64ZM1055.72 1539.34C1055.36 1539.3 1054.99 1539.38 1054.67 1539.56C1054.41 1539.56 1054.15 1539.86 1054.11 1540.56C1054.05 1541.11 1054.13 1541.67 1054.32 1542.19C1054.52 1542.71 1054.83 1543.18 1055.24 1543.56C1059.2 1545.32 1063.68 1545.54 1067.8 1544.17C1064.11 1541.81 1060.01 1540.18 1055.72 1539.34Z" fill="#650094"/>
<path d="M1069.97 1545.39H1069.58C1065.93 1543.43 1058.93 1535.65 1059.63 1531.91C1059.76 1531.3 1060.1 1530.74 1060.59 1530.35C1061.08 1529.95 1061.69 1529.74 1062.32 1529.74C1062.95 1529.65 1063.6 1529.71 1064.21 1529.89C1064.81 1530.08 1065.37 1530.4 1065.84 1530.83C1069.93 1534.13 1070.8 1544.26 1070.84 1544.73C1070.84 1544.89 1070.8 1545.03 1070.74 1545.17C1070.67 1545.31 1070.57 1545.42 1070.45 1545.52C1070.28 1545.52 1070.12 1545.47 1069.97 1545.39ZM1062.89 1531.09H1062.5C1061.41 1531.09 1061.32 1531.7 1061.28 1531.91C1060.85 1534.22 1065.32 1540.08 1068.97 1542.82C1068.67 1538.79 1067.15 1534.94 1064.63 1531.78C1064.14 1531.38 1063.53 1531.13 1062.89 1531.09Z" fill="#650094"/>
<path opacity="0.2" d="M1106 1469.86L1069.67 1473.73L1073.19 1514.19L1109.56 1510.32L1106 1469.86Z" fill="black"/>
<path opacity="0.2" d="M1291.37 1464.08H1256.13L1257.65 1506.15H1292.94L1291.37 1464.08Z" fill="black"/>
<path d="M1049.11 1509.71L1127.46 1498.06L1125.07 1476.34L1043.55 1487.07L1049.11 1509.71Z" fill="#650094"/>
<path opacity="0.6" d="M1049.11 1509.71L1127.46 1498.06L1125.07 1476.34L1043.55 1487.07L1049.11 1509.71Z" fill="white"/>
<path d="M1233.71 1499.41H1309.71V1476.68L1230.84 1475.21L1233.71 1499.41Z" fill="#650094"/>
<path opacity="0.6" d="M1233.71 1499.41H1309.71V1476.68L1230.84 1475.21L1233.71 1499.41Z" fill="white"/>
<path opacity="0.2" d="M1169.66 930.468C1160.45 956.867 1153.47 983.99 1148.8 1011.55C1143.54 939.985 1164.49 864.114 1164.49 864.114L1169.66 930.468Z" fill="black"/>
<path d="M1162.58 424.667C1149.02 443.439 1106.65 446.394 1106.65 446.394C1106.65 446.394 1079.49 444.786 1083.19 435.617C1097.79 429.925 1103.61 421.321 1104.91 411.631C1105.39 405.681 1104.66 399.697 1102.78 394.032C1101.86 390.842 1100.76 387.708 1099.48 384.646L1142.37 336.238C1140.81 362.658 1142.33 410.11 1162.58 424.667Z" fill="#F8A58D"/>
<path opacity="0.2" d="M1135.5 362.786C1139.85 393.725 1116.64 407.457 1104.74 411.759C1105.21 405.809 1104.49 399.825 1102.61 394.16L1135.5 362.786Z" fill="black"/>
<path d="M1049.37 264.627C1049.37 264.627 1038.77 312.426 1063.24 332.98C1087.7 353.533 1093.65 263.149 1093.65 263.149L1049.37 264.627Z" fill="#282C2E"/>
<path d="M1135.28 376.517C1129.35 384.132 1121.08 389.59 1111.75 392.055C1102.42 394.52 1092.53 393.854 1083.61 390.162C1072.01 385.599 1062.58 376.789 1057.24 365.523C1056.45 363.962 1055.77 362.35 1055.19 360.7C1044.55 330.282 1044.03 278.138 1076.62 260.756C1083.8 256.898 1091.85 254.942 1100.01 255.075C1108.16 255.207 1116.15 257.424 1123.2 261.513C1130.26 265.603 1136.15 271.429 1140.32 278.439C1144.49 285.448 1146.79 293.407 1147.01 301.559C1148.53 336.54 1151.06 357.006 1135.28 376.517Z" fill="#F8A58D"/>
<path d="M1095.31 316.77C1095.79 319.551 1094.35 322.028 1092.48 322.245C1090.62 322.462 1088.92 320.246 1088.62 317.421C1088.31 314.597 1089.62 312.163 1091.44 311.99C1093.27 311.816 1095 313.902 1095.31 316.77Z" fill="#282C2E"/>
<path d="M1063.19 320.03C1063.67 322.812 1062.19 325.288 1060.32 325.506C1058.46 325.723 1056.76 323.507 1056.46 320.726C1056.15 317.945 1057.46 315.424 1059.28 315.25C1061.11 315.077 1063.19 317.38 1063.19 320.03Z" fill="#282C2E"/>
<path d="M1073.66 320.375C1071.15 329.365 1067.44 337.974 1062.62 345.97C1064.71 347.157 1067.02 347.873 1069.41 348.069C1071.8 348.264 1074.2 347.933 1076.44 347.1L1073.66 320.375Z" fill="#D58745"/>
<path d="M1104.17 305.428C1103.87 305.493 1103.56 305.484 1103.26 305.401C1102.97 305.317 1102.7 305.162 1102.47 304.95C1101.08 303.405 1099.35 302.207 1097.41 301.452C1095.47 300.698 1093.38 300.407 1091.31 300.604C1090.9 300.611 1090.51 300.473 1090.2 300.215C1089.88 299.956 1089.67 299.595 1089.61 299.195C1089.54 298.796 1089.62 298.386 1089.82 298.038C1090.03 297.691 1090.36 297.429 1090.74 297.302C1093.37 297.025 1096.02 297.377 1098.49 298.329C1100.95 299.281 1103.15 300.806 1104.91 302.777C1105.06 302.93 1105.19 303.113 1105.27 303.315C1105.35 303.516 1105.4 303.732 1105.4 303.95C1105.4 304.168 1105.35 304.384 1105.27 304.586C1105.19 304.787 1105.06 304.97 1104.91 305.123C1104.68 305.269 1104.43 305.372 1104.17 305.428Z" fill="#282C2E"/>
<path d="M1048.51 310.424C1048.18 310.531 1047.83 310.531 1047.51 310.424C1047.3 310.352 1047.11 310.238 1046.95 310.092C1046.79 309.945 1046.66 309.767 1046.56 309.569C1046.47 309.371 1046.42 309.156 1046.41 308.937C1046.4 308.719 1046.43 308.5 1046.51 308.295C1047.37 305.789 1048.81 303.526 1050.72 301.696C1052.64 299.865 1054.96 298.522 1057.5 297.779C1057.72 297.727 1057.93 297.718 1058.15 297.751C1058.36 297.784 1058.57 297.859 1058.76 297.972C1058.94 298.085 1059.1 298.234 1059.23 298.41C1059.36 298.585 1059.45 298.784 1059.5 298.996C1059.59 299.427 1059.51 299.878 1059.28 300.251C1059.04 300.624 1058.67 300.891 1058.24 300.995C1056.21 301.644 1054.35 302.771 1052.84 304.284C1051.33 305.796 1050.2 307.648 1049.55 309.686C1049.31 310.05 1048.93 310.312 1048.51 310.424Z" fill="#282C2E"/>
<path d="M1117.12 260.974L1116.08 276.443C1118.74 277.548 1120.89 279.614 1122.1 282.231C1123.31 284.848 1123.49 287.823 1122.6 290.566C1118.25 303.602 1126.95 323.373 1137.11 330.847C1137.11 330.847 1137.11 325.198 1141.89 326.502C1146.67 327.806 1146.98 356.92 1138.5 371.216C1138.5 371.216 1151.76 357.876 1157.97 326.85C1163.75 298.17 1163.36 274.705 1156.93 263.885L1117.12 260.974Z" fill="#282C2E"/>
<path d="M1165.09 328.59C1163.57 332.693 1161.25 336.453 1158.27 339.653C1155.29 342.853 1151.7 345.43 1147.71 347.232C1137.11 352.056 1130.03 342.887 1131.5 332.023C1132.85 322.333 1139.93 307.819 1151.32 307.689C1162.7 307.558 1168.7 318.422 1165.09 328.59Z" fill="#F8A58D"/>
<path d="M1116.07 276.445C1104.14 275.514 1092.14 276.691 1080.62 279.921C1070.62 283.131 1059.94 283.566 1049.72 281.181C1049.72 281.181 1034.25 249.894 1054.72 230.948C1075.18 212.002 1109.43 219.39 1120.51 225.821C1131.59 232.252 1109.08 231.166 1109.08 231.166C1109.08 231.166 1145.32 237.901 1161.01 251.676C1176.69 265.451 1172.91 288.134 1169.7 291.958C1166.48 295.782 1163.61 287.351 1163.61 287.351C1156.9 290.738 1149.39 292.24 1141.89 291.697C1128.37 291.523 1134.02 279.573 1116.07 276.445Z" fill="#282C2E"/>
<path d="M1078.53 358.485C1080.91 362.336 1083 366.36 1084.79 370.522C1085.57 370.365 1086.34 370.162 1087.09 369.913C1097.61 367.219 1101.56 362.483 1102.78 358.05C1103.3 355.879 1103.3 353.616 1102.78 351.445C1102.53 350.202 1102.11 349.002 1101.52 347.882C1095.78 352.428 1089.15 355.701 1082.05 357.485L1078.53 358.485Z" fill="#282C2E"/>
<path d="M1082.1 357.485L1084.05 361.005C1093.92 358.398 1100.52 355.226 1102.82 351.445C1102.58 350.202 1102.15 349.002 1101.56 347.882C1095.83 352.428 1089.19 355.701 1082.1 357.485Z" fill="white"/>
<path d="M1087.1 369.913C1097.61 367.219 1101.57 362.482 1102.78 358.05C1098.81 359.158 1095.08 360.968 1091.75 363.395C1089.55 365.026 1087.92 367.306 1087.1 369.913Z" fill="#DE5753"/>
<path d="M1151.8 410.889C1140.99 424.727 1127.23 435.98 1111.52 443.827C1106.49 437.271 1103.1 429.616 1101.61 421.491C1093.14 425.511 1085.34 430.817 1078.49 437.222C1079.56 447.384 1083.08 457.135 1088.75 465.64L1110.78 449.867L1137.5 469.377C1137.5 469.377 1172.61 446.695 1180.48 423.403L1151.8 410.889Z" fill="#650094"/>
<path opacity="0.4" d="M1151.8 410.889C1140.99 424.727 1127.23 435.98 1111.52 443.827C1106.49 437.271 1103.1 429.616 1101.61 421.491C1093.14 425.511 1085.34 430.817 1078.49 437.222C1079.56 447.384 1083.08 457.135 1088.75 465.64L1110.78 449.867L1137.5 469.377C1137.5 469.377 1172.61 446.695 1180.48 423.403L1151.8 410.889Z" fill="white"/>
<path opacity="0.6" d="M1182.49 563.424L1138.94 568.102L1142.14 597.914L1185.69 593.237L1182.49 563.424Z" fill="white"/>
<path d="M1153.14 551.9L1157.49 566.283C1157.75 567.189 1158.34 567.966 1159.15 568.463C1159.95 568.961 1160.91 569.144 1161.84 568.977C1162.66 568.847 1163.42 568.456 1164.01 567.862C1164.59 567.267 1164.97 566.501 1165.09 565.675L1167.4 548.988L1153.14 551.9Z" fill="#650094"/>
<path opacity="0.4" d="M1153.14 551.9L1157.49 566.283C1157.75 567.189 1158.34 567.966 1159.15 568.463C1159.95 568.961 1160.91 569.144 1161.84 568.977C1162.66 568.847 1163.42 568.456 1164.01 567.862C1164.59 567.267 1164.97 566.501 1165.09 565.675L1167.4 548.988L1153.14 551.9Z" fill="black"/>
<path d="M1185.17 592.917C1185.17 592.917 1169.01 641.455 1162.05 652.014C1155.1 662.573 975.85 708.939 975.85 708.939C975.85 708.939 960.815 701.291 951.342 702.116C941.869 702.942 904.932 711.546 904.063 718.412C903.194 725.277 923.009 756.217 927.702 758.78C932.395 761.344 979.848 754.218 984.889 741.877C984.889 741.877 1167.96 709.026 1185.17 702.116C1202.38 695.207 1239.27 613.558 1239.27 613.558L1185.17 592.917Z" fill="#F8A58D"/>
<path d="M1231.24 422.406C1258.96 424.275 1283.16 483.98 1278.43 532.127C1273.69 580.274 1229.41 662.489 1229.41 662.489L1167.53 632.071C1167.53 632.071 1183 577.015 1200.64 524.87C1218.29 472.726 1210.29 420.972 1231.24 422.406Z" fill="#650094"/>
<path opacity="0.4" d="M1231.24 422.406C1258.96 424.275 1283.16 483.98 1278.43 532.127C1273.69 580.274 1229.41 662.489 1229.41 662.489L1167.53 632.071C1167.53 632.071 1183 577.015 1200.64 524.87C1218.29 472.726 1210.29 420.972 1231.24 422.406Z" fill="white"/>
<path d="M1160.14 637.503L1167 627.465L1239.27 651.886L1235.53 669.833L1160.14 637.503Z" fill="#650094"/>
<path opacity="0.3" d="M1160.14 637.503L1167 627.465L1239.27 651.886L1235.53 669.833L1160.14 637.503Z" fill="white"/>
<path d="M589.536 733.752H716.685C718.748 733.752 720.726 734.571 722.185 736.03C723.644 737.489 724.463 739.467 724.463 741.53V813.055H581.758V741.487C581.769 739.431 582.594 737.464 584.051 736.015C585.509 734.565 587.481 733.752 589.536 733.752Z" fill="#650094"/>
<path opacity="0.3" d="M724.246 741.487V813.012H581.758V741.487C581.758 739.435 582.573 737.468 584.023 736.017C585.474 734.567 587.441 733.752 589.493 733.752H716.685C718.706 733.797 720.629 734.632 722.042 736.078C723.455 737.524 724.246 739.465 724.246 741.487Z" fill="white"/>
<path opacity="0.4" d="M689.482 741.487V813.012H581.758V741.487C581.758 739.435 582.573 737.468 584.023 736.017C585.474 734.567 587.441 733.752 589.493 733.752H681.921C683.942 733.797 685.865 734.632 687.278 736.078C688.692 737.524 689.483 739.465 689.482 741.487Z" fill="white"/>
<path d="M1485.92 834.307H491.152V1581.67H1485.92V834.307Z" fill="#650094"/>
<path opacity="0.3" d="M1485.92 834.307H491.152V1581.67H1485.92V834.307Z" fill="white"/>
<path opacity="0.4" d="M1227.8 834.307H491.152V1581.67H1227.8V834.307Z" fill="white"/>
<path d="M1493.53 806.801H487.461C483.717 806.801 480.682 809.836 480.682 813.58V843.259C480.682 847.003 483.717 850.038 487.461 850.038H1493.53C1497.27 850.038 1500.3 847.003 1500.3 843.259V813.58C1500.3 809.836 1497.27 806.801 1493.53 806.801Z" fill="#650094"/>
<path opacity="0.2" d="M1232.8 806.801H487.461C483.717 806.801 480.682 809.836 480.682 813.58V843.259C480.682 847.003 483.717 850.038 487.461 850.038H1232.8C1236.54 850.038 1239.58 847.003 1239.58 843.259V813.58C1239.58 809.836 1236.54 806.801 1232.8 806.801Z" fill="white"/>
<path d="M1627.37 1473.95C1628.26 1472.07 1628.69 1470 1628.62 1467.92C1628.55 1465.84 1627.99 1463.8 1626.97 1461.99C1625.95 1460.17 1624.51 1458.62 1622.78 1457.48C1621.04 1456.33 1619.05 1455.61 1616.98 1455.39C1618.82 1450.04 1618.97 1444.26 1617.42 1438.82C1615.87 1433.38 1612.68 1428.55 1608.29 1424.98C1607.26 1424.01 1605.93 1423.41 1604.51 1423.28C1602.99 1423.45 1601.55 1424.07 1600.38 1425.06L1576.18 1442.44C1574.22 1443.62 1572.56 1445.24 1571.36 1447.18C1566.4 1456.78 1584.39 1468.91 1576.92 1476.99C1574.83 1479.25 1571.44 1479.73 1568.79 1481.33C1563.01 1484.94 1562.32 1492.85 1559.67 1499.11C1557.02 1505.36 1547.59 1510.19 1544.02 1504.41C1546.67 1498.41 1538.63 1493.28 1532.16 1492.5C1525.68 1491.72 1518.86 1491.37 1515.26 1485.29C1506 1493.33 1485.36 1470.86 1485.84 1461.78C1478.23 1462.35 1473.06 1469.47 1471.41 1476.55C1470.34 1484.04 1470.08 1491.61 1470.63 1499.15C1470.41 1513.88 1465.67 1528.26 1465.93 1542.95C1465.93 1554.38 1470.54 1567.07 1481.01 1571.68C1486.2 1573.53 1491.73 1574.27 1497.22 1573.85L1616.42 1573.11C1619.28 1573.29 1622.15 1572.82 1624.8 1571.72C1630.19 1568.89 1631.32 1561.81 1631.84 1555.77L1638.23 1478.12L1627.37 1473.95Z" fill="#650094"/>
<path opacity="0.3" d="M1627.37 1473.95C1628.26 1472.07 1628.69 1470 1628.62 1467.92C1628.55 1465.84 1627.99 1463.8 1626.97 1461.99C1625.95 1460.17 1624.51 1458.62 1622.78 1457.48C1621.04 1456.33 1619.05 1455.61 1616.98 1455.39C1618.82 1450.04 1618.97 1444.26 1617.42 1438.82C1615.87 1433.38 1612.68 1428.55 1608.29 1424.98C1607.26 1424.01 1605.93 1423.41 1604.51 1423.28C1602.99 1423.45 1601.55 1424.07 1600.38 1425.06L1576.18 1442.44C1574.22 1443.62 1572.56 1445.24 1571.36 1447.18C1566.4 1456.78 1584.39 1468.91 1576.92 1476.99C1574.83 1479.25 1571.44 1479.73 1568.79 1481.33C1563.01 1484.94 1562.32 1492.85 1559.67 1499.11C1557.02 1505.36 1547.59 1510.19 1544.02 1504.41C1546.67 1498.41 1538.63 1493.28 1532.16 1492.5C1525.68 1491.72 1518.86 1491.37 1515.26 1485.29C1506 1493.33 1485.36 1470.86 1485.84 1461.78C1478.23 1462.35 1473.06 1469.47 1471.41 1476.55C1470.34 1484.04 1470.08 1491.61 1470.63 1499.15C1470.41 1513.88 1465.67 1528.26 1465.93 1542.95C1465.93 1554.38 1470.54 1567.07 1481.01 1571.68C1486.2 1573.53 1491.73 1574.27 1497.22 1573.85L1616.42 1573.11C1619.28 1573.29 1622.15 1572.82 1624.8 1571.72C1630.19 1568.89 1631.32 1561.81 1631.84 1555.77L1638.23 1478.12L1627.37 1473.95Z" fill="white"/>
<path d="M1634.32 1347.98H1449.38L1450.9 1366.66L1451.99 1380L1454.81 1414.76L1456.42 1434.71L1458.55 1461.26L1459.46 1472.64L1459.76 1476.03L1460.85 1489.42L1462.33 1507.76L1463.24 1519.14L1464.2 1530.7L1465.28 1544.08L1466.11 1554.21L1467.02 1565.59L1467.41 1570.55H1637.15L1637.54 1565.59L1638.45 1554.25L1639.28 1544.04L1640.36 1530.66L1641.32 1519.14L1642.23 1507.76L1643.71 1489.37L1644.8 1476.03L1645.06 1472.64L1645.97 1461.26L1648.14 1434.71L1649.75 1414.81L1652.53 1380.04L1653.62 1366.7L1655.14 1348.02L1634.32 1347.98ZM1645.45 1360.23L1641.88 1356.67H1645.75L1645.45 1360.23ZM1644.53 1371.57L1644.19 1375.92L1627.63 1392.47L1608.64 1373.48L1625.63 1356.49H1629.63L1644.53 1371.57ZM1639.75 1430.76L1627.63 1442.88L1608.64 1423.89L1627.63 1404.94L1640.67 1417.98L1639.75 1430.76ZM1463.76 1418.07L1476.8 1405.03L1495.79 1423.98L1476.8 1442.97L1464.72 1430.84L1463.76 1418.07ZM1621.5 1398.77L1602.51 1417.76L1583.52 1398.77L1602.51 1379.78L1621.5 1398.77ZM1591.65 1356.67H1613.38L1602.51 1367.53L1591.65 1356.67ZM1596.34 1423.89L1577.4 1442.88L1558.58 1423.89L1577.57 1404.94L1596.34 1423.89ZM1533.29 1449.01L1552.28 1430.06L1571.23 1449.01L1552.28 1467.82L1533.29 1449.01ZM1546.11 1474.12L1527.12 1493.11L1508.17 1474.17L1527.16 1455.18L1546.11 1474.12ZM1577.4 1455.18L1596.34 1474.17L1577.4 1493.11L1558.58 1474.12L1577.4 1455.18ZM1552.28 1417.76L1533.29 1398.77L1552.28 1379.78L1571.23 1398.77L1552.28 1417.76ZM1546.11 1423.89L1527.16 1442.88L1508.17 1423.89L1527.16 1404.94L1546.11 1423.89ZM1502.09 1417.76L1483.14 1398.77L1502.09 1379.78L1521.08 1398.77L1502.09 1417.76ZM1502.09 1430.06L1521.08 1449.01L1502.09 1467.82L1483.14 1448.83L1502.09 1430.06ZM1521.08 1499.28L1502.09 1518.23L1483.14 1499.28L1502.09 1480.29L1521.08 1499.28ZM1527.21 1505.41L1546.2 1524.4L1527.25 1543.39L1508.17 1524.31L1527.21 1505.41ZM1533.38 1499.28L1552.37 1480.29L1571.31 1499.28L1552.37 1518.23L1533.38 1499.28ZM1577.48 1505.41L1596.43 1524.4L1577.48 1543.39L1558.58 1524.31L1577.48 1505.41ZM1602.6 1530.52L1621.59 1549.51L1609.29 1561.81H1595.91L1583.61 1549.51L1602.6 1530.52ZM1583.61 1499.28L1602.6 1480.29L1621.59 1499.28L1602.6 1518.23L1583.61 1499.28ZM1583.61 1449.01L1602.6 1430.06L1621.59 1449.01L1602.51 1467.82L1583.61 1449.01ZM1596.43 1373.66L1577.48 1392.65L1558.58 1373.66L1575.57 1356.67H1579.57L1596.43 1373.66ZM1552.37 1367.53L1541.5 1356.67H1563.23L1552.37 1367.53ZM1546.2 1373.66L1527.25 1392.65L1508.26 1373.66L1525.25 1356.67H1529.25L1546.2 1373.66ZM1512.95 1356.67L1502.09 1367.53L1491.27 1356.67H1512.95ZM1478.97 1356.67L1495.96 1373.66L1476.97 1392.65L1460.46 1376.09L1460.11 1371.74L1474.97 1356.84L1478.97 1356.67ZM1462.72 1356.67L1459.2 1360.19L1458.9 1356.67H1462.72ZM1461.55 1389.47L1470.85 1398.77L1462.98 1406.68L1461.55 1389.47ZM1466.72 1453.13L1465.98 1444.14L1470.85 1449.01L1466.5 1453.13H1466.72ZM1467.63 1464.56L1476.97 1455.18L1495.96 1474.17L1476.97 1493.11L1469.32 1485.46L1467.63 1464.56ZM1470.45 1499.67V1498.85L1470.89 1499.28L1470.5 1499.67H1470.45ZM1473.76 1540.13L1471.37 1511.01L1476.97 1505.41L1495.96 1524.4L1476.97 1543.34L1473.76 1540.13ZM1475.5 1561.86L1475.15 1557.51L1476.97 1555.68L1483.14 1561.86H1475.5ZM1483.14 1549.56L1502.09 1530.57L1521.08 1549.56L1508.78 1561.86H1495.4L1483.14 1549.56ZM1521.08 1561.86L1527.25 1555.68L1533.42 1561.86H1521.08ZM1545.67 1561.86L1533.38 1549.56L1552.37 1530.57L1571.31 1549.56L1559.06 1561.86H1545.67ZM1571.31 1561.86L1577.48 1555.68L1583.65 1561.86H1571.31ZM1629.19 1561.86H1621.55L1627.72 1555.68L1629.54 1557.51L1629.19 1561.86ZM1630.98 1540.13L1627.72 1543.34L1608.64 1524.31L1627.63 1505.32L1633.24 1510.93L1630.98 1540.13ZM1634.32 1498.8V1499.67L1633.93 1499.28L1634.41 1498.8H1634.32ZM1635.41 1485.46L1627.72 1493.11L1608.73 1474.17L1627.72 1455.18L1637.1 1464.56L1635.41 1485.46ZM1638.02 1453.18L1633.67 1448.83L1638.58 1443.97L1638.02 1453.18ZM1643.1 1389.6L1641.71 1406.99L1633.76 1399.03L1643.1 1389.69V1389.6Z" fill="#650094"/>
<g opacity="0.6">
<path opacity="0.6" d="M1634.32 1347.98H1449.38L1450.9 1366.66L1451.99 1380L1454.81 1414.76L1456.42 1434.71L1458.55 1461.26L1459.46 1472.64L1459.76 1476.03L1460.85 1489.42L1462.33 1507.76L1463.24 1519.14L1464.2 1530.7L1465.28 1544.08L1466.11 1554.21L1467.02 1565.59L1467.41 1570.55H1637.15L1637.54 1565.59L1638.45 1554.25L1639.28 1544.04L1640.36 1530.66L1641.32 1519.14L1642.23 1507.76L1643.71 1489.37L1644.8 1476.03L1645.06 1472.64L1645.97 1461.26L1648.14 1434.71L1649.75 1414.81L1652.53 1380.04L1653.62 1366.7L1655.14 1348.02L1634.32 1347.98ZM1645.45 1360.23L1641.88 1356.67H1645.75L1645.45 1360.23ZM1644.53 1371.57L1644.19 1375.92L1627.63 1392.47L1608.64 1373.48L1625.63 1356.49H1629.63L1644.53 1371.57ZM1639.75 1430.76L1627.63 1442.88L1608.64 1423.89L1627.63 1404.94L1640.67 1417.98L1639.75 1430.76ZM1463.76 1418.07L1476.8 1405.03L1495.79 1423.98L1476.8 1442.97L1464.72 1430.84L1463.76 1418.07ZM1621.5 1398.77L1602.51 1417.76L1583.52 1398.77L1602.51 1379.78L1621.5 1398.77ZM1591.65 1356.67H1613.38L1602.51 1367.53L1591.65 1356.67ZM1596.34 1423.89L1577.4 1442.88L1558.58 1423.89L1577.57 1404.94L1596.34 1423.89ZM1533.29 1449.01L1552.28 1430.06L1571.23 1449.01L1552.28 1467.82L1533.29 1449.01ZM1546.11 1474.12L1527.12 1493.11L1508.17 1474.17L1527.16 1455.18L1546.11 1474.12ZM1577.4 1455.18L1596.34 1474.17L1577.4 1493.11L1558.58 1474.12L1577.4 1455.18ZM1552.28 1417.76L1533.29 1398.77L1552.28 1379.78L1571.23 1398.77L1552.28 1417.76ZM1546.11 1423.89L1527.16 1442.88L1508.17 1423.89L1527.16 1404.94L1546.11 1423.89ZM1502.09 1417.76L1483.14 1398.77L1502.09 1379.78L1521.08 1398.77L1502.09 1417.76ZM1502.09 1430.06L1521.08 1449.01L1502.09 1467.82L1483.14 1448.83L1502.09 1430.06ZM1521.08 1499.28L1502.09 1518.23L1483.14 1499.28L1502.09 1480.29L1521.08 1499.28ZM1527.21 1505.41L1546.2 1524.4L1527.25 1543.39L1508.17 1524.31L1527.21 1505.41ZM1533.38 1499.28L1552.37 1480.29L1571.31 1499.28L1552.37 1518.23L1533.38 1499.28ZM1577.48 1505.41L1596.43 1524.4L1577.48 1543.39L1558.58 1524.31L1577.48 1505.41ZM1602.6 1530.52L1621.59 1549.51L1609.29 1561.81H1595.91L1583.61 1549.51L1602.6 1530.52ZM1583.61 1499.28L1602.6 1480.29L1621.59 1499.28L1602.6 1518.23L1583.61 1499.28ZM1583.61 1449.01L1602.6 1430.06L1621.59 1449.01L1602.51 1467.82L1583.61 1449.01ZM1596.43 1373.66L1577.48 1392.65L1558.58 1373.66L1575.57 1356.67H1579.57L1596.43 1373.66ZM1552.37 1367.53L1541.5 1356.67H1563.23L1552.37 1367.53ZM1546.2 1373.66L1527.25 1392.65L1508.26 1373.66L1525.25 1356.67H1529.25L1546.2 1373.66ZM1512.95 1356.67L1502.09 1367.53L1491.27 1356.67H1512.95ZM1478.97 1356.67L1495.96 1373.66L1476.97 1392.65L1460.46 1376.09L1460.11 1371.74L1474.97 1356.84L1478.97 1356.67ZM1462.72 1356.67L1459.2 1360.19L1458.9 1356.67H1462.72ZM1461.55 1389.47L1470.85 1398.77L1462.98 1406.68L1461.55 1389.47ZM1466.72 1453.13L1465.98 1444.14L1470.85 1449.01L1466.5 1453.13H1466.72ZM1467.63 1464.56L1476.97 1455.18L1495.96 1474.17L1476.97 1493.11L1469.32 1485.46L1467.63 1464.56ZM1470.45 1499.67V1498.85L1470.89 1499.28L1470.5 1499.67H1470.45ZM1473.76 1540.13L1471.37 1511.01L1476.97 1505.41L1495.96 1524.4L1476.97 1543.34L1473.76 1540.13ZM1475.5 1561.86L1475.15 1557.51L1476.97 1555.68L1483.14 1561.86H1475.5ZM1483.14 1549.56L1502.09 1530.57L1521.08 1549.56L1508.78 1561.86H1495.4L1483.14 1549.56ZM1521.08 1561.86L1527.25 1555.68L1533.42 1561.86H1521.08ZM1545.67 1561.86L1533.38 1549.56L1552.37 1530.57L1571.31 1549.56L1559.06 1561.86H1545.67ZM1571.31 1561.86L1577.48 1555.68L1583.65 1561.86H1571.31ZM1629.19 1561.86H1621.55L1627.72 1555.68L1629.54 1557.51L1629.19 1561.86ZM1630.98 1540.13L1627.72 1543.34L1608.64 1524.31L1627.63 1505.32L1633.24 1510.93L1630.98 1540.13ZM1634.32 1498.8V1499.67L1633.93 1499.28L1634.41 1498.8H1634.32ZM1635.41 1485.46L1627.72 1493.11L1608.73 1474.17L1627.72 1455.18L1637.1 1464.56L1635.41 1485.46ZM1638.02 1453.18L1633.67 1448.83L1638.58 1443.97L1638.02 1453.18ZM1643.1 1389.6L1641.71 1406.99L1633.76 1399.03L1643.1 1389.69V1389.6Z" fill="white"/>
</g>
<path d="M1444.69 1364.4H1659.87C1663.81 1364.4 1667 1361.21 1667 1357.27V1347.32C1667 1343.39 1663.81 1340.2 1659.87 1340.2H1444.69C1440.75 1340.2 1437.56 1343.39 1437.56 1347.32V1357.27C1437.56 1361.21 1440.75 1364.4 1444.69 1364.4Z" fill="#650094"/>
<path d="M1643.32 1557.51H1461.2C1457.26 1557.51 1454.07 1560.7 1454.07 1564.63V1574.59C1454.07 1578.52 1457.26 1581.71 1461.2 1581.71H1643.32C1647.25 1581.71 1650.44 1578.52 1650.44 1574.59V1564.63C1650.44 1560.7 1647.25 1557.51 1643.32 1557.51Z" fill="#650094"/>
<path d="M493.979 1506.15L466.559 1510.97L455.304 1473.6L445.049 1439.31L476.684 1428.28L485.853 1469.51L493.979 1506.15Z" fill="#E4897B"/>
<path opacity="0.2" d="M485.988 1470.34L455.439 1474.38L445.141 1439.7L476.689 1428.45L485.988 1470.34Z" fill="black"/>
<path d="M310.995 1518.79H283.14L278.577 1479.55L274.449 1443.79L307.475 1438.32L309.343 1480.9L310.995 1518.79Z" fill="#E4897B"/>
<path opacity="0.2" d="M309.343 1481.25L278.577 1479.9L274.449 1443.96L307.475 1438.4L309.343 1481.25Z" fill="black"/>
<path d="M348.712 1573.89C344.279 1570.33 339.246 1567.6 333.851 1565.81C333.851 1565.81 317.686 1549.77 309.907 1501.5L288.745 1495.98C285.152 1495.12 281.383 1495.38 277.943 1496.72C274.502 1498.07 271.555 1500.43 269.494 1503.49C268.908 1504.35 268.453 1505.29 268.147 1506.27C267.051 1511.45 266.296 1516.69 265.888 1521.96C263.758 1538.3 265.583 1574.98 265.583 1574.98H269.408L270.928 1541.69C271.493 1530.39 280.141 1543.65 282.618 1555.81C285.095 1567.98 290.353 1580.93 315.122 1581.54C344.019 1582.1 356.013 1580.8 348.712 1573.89Z" fill="#282C2E"/>
<path d="M533.394 1570.63C528.96 1567.08 523.928 1564.34 518.533 1562.55C518.533 1562.55 502.367 1546.52 494.589 1498.24L473.426 1492.72C469.834 1491.86 466.065 1492.12 462.625 1493.46C459.184 1494.81 456.236 1497.17 454.176 1500.24C453.589 1501.09 453.135 1502.03 452.829 1503.02C451.733 1508.19 450.978 1513.43 450.569 1518.7C448.44 1535.04 450.265 1571.72 450.265 1571.72H454.089L455.61 1538.43C456.175 1527.13 464.822 1540.39 467.299 1552.56C469.776 1564.72 475.034 1577.67 499.804 1578.28C528.701 1578.85 540.694 1577.72 533.394 1570.63Z" fill="#282C2E"/>
<path d="M488.595 1448.61L443.533 1456.52C398.036 1343.24 365.705 1248.68 342.848 1170.21C330.55 1127.88 320.295 1090.25 312.951 1056.83L314.298 1180.16V1457.96H269.887C158.6 927.82 237.47 806.975 237.47 806.975L370.659 784.813C375.904 809.445 379.619 834.377 381.783 859.467L387.78 903.616L439.926 1172.51L488.595 1448.61Z" fill="#650094"/>
<g opacity="0.4">
<path opacity="0.4" d="M488.595 1448.61L443.533 1456.52C398.036 1343.24 365.705 1248.68 342.848 1170.21C330.55 1127.88 320.295 1090.25 312.951 1056.83L314.298 1180.16V1457.96H269.887C158.6 927.82 237.47 806.975 237.47 806.975L370.659 784.813C375.904 809.445 379.619 834.377 381.783 859.467L387.78 903.616L439.926 1172.51L488.595 1448.61Z" fill="#A366BF"/>
</g>
<path d="M528.309 653.927L573.241 609.518C573.241 609.518 574.805 597.611 579.151 594.309C583.496 591.006 614.349 579.795 618.26 582.272C622.171 584.749 627.255 609.691 621.997 614.254C616.739 618.817 588.667 624.64 585.799 624.162L537.173 681.868L528.309 653.927Z" fill="#F8A58D"/>
<path d="M367.356 572.974C386.736 583.272 455.525 679.436 465.694 684.215C475.862 688.995 553.299 626.161 553.299 626.161L566.335 648.453C566.335 648.453 502.63 738.272 466.867 733.927C431.104 729.581 362.098 653.537 362.098 653.537L367.356 572.974Z" fill="#282C2E"/>
<path d="M367.356 572.974C386.736 583.272 455.525 679.436 465.694 684.215C475.862 688.995 553.299 626.161 553.299 626.161L566.335 648.453C566.335 648.453 502.63 738.272 466.867 733.927C431.104 729.581 362.098 653.537 362.098 653.537L367.356 572.974Z" fill="#A366BF"/>
<path d="M549.039 628.553L554.384 623.469L568.507 647.369L563.466 657.146L549.039 628.553Z" fill="#650094"/>
<path opacity="0.2" d="M389.649 681.609C373.571 666.27 362.012 653.538 362.012 653.538L363.228 634.418L369.269 615.863C377.582 624.457 383.758 634.885 387.298 646.306C390.839 657.727 391.644 669.82 389.649 681.609Z" fill="black"/>
<path opacity="0.2" d="M342.847 1170.2C330.549 1127.88 321.119 1090.25 313.602 1056.83C314.254 1017.27 317.156 977.78 322.293 938.55C322.293 938.55 341.847 1091.07 342.847 1170.2Z" fill="black"/>
<path d="M373.828 776.602C379.26 681.004 376.87 628.338 374.393 602.048C371.656 574.02 367.354 572.978 367.354 572.978C367.354 572.978 336.935 570.023 310.558 570.24C290.152 570.929 269.821 573.079 249.722 576.671C230.591 579.853 211.713 584.398 193.23 590.272C196.301 598.963 199.126 607.306 201.704 615.302C205.181 625.644 208.266 635.29 211.047 644.242C216.305 661.058 220.346 675.572 223.605 688.565C231.894 721.285 236.744 754.781 238.076 788.509C238.076 788.509 204.616 875.851 198.097 939.945L308.907 951.895L324.116 887.801L339.325 954.068L401.248 932.341L373.828 776.602Z" fill="#282C2E"/>
<path d="M373.828 776.602C379.26 681.004 376.87 628.338 374.393 602.048C371.656 574.02 367.354 572.978 367.354 572.978C367.354 572.978 336.935 570.023 310.558 570.24C290.152 570.929 269.821 573.079 249.722 576.671C230.591 579.853 211.713 584.398 193.23 590.272C196.301 598.963 199.126 607.306 201.704 615.302C205.181 625.644 208.266 635.29 211.047 644.242C216.305 661.058 220.346 675.572 223.605 688.565C231.894 721.285 236.744 754.781 238.076 788.509C238.076 788.509 204.616 875.851 198.097 939.945L308.907 951.895L324.116 887.801L339.325 954.068L401.248 932.341L373.828 776.602Z" fill="#A366BF"/>
<path d="M259.283 565.198C259.283 565.198 275.231 552.465 303.737 562.634L307.605 577.148C307.605 577.148 283.14 586.404 270.798 583.97C258.457 581.537 259.283 565.198 259.283 565.198Z" fill="#650094"/>
<path opacity="0.2" d="M259.283 565.198C259.283 565.198 275.231 552.465 303.737 562.634L307.605 577.148C307.605 577.148 283.14 586.404 270.798 583.97C258.457 581.537 259.283 565.198 259.283 565.198Z" fill="black"/>
<path opacity="0.2" d="M228.868 711.986C227.391 704.685 225.653 696.907 223.523 688.563C222.176 683.262 220.699 677.7 219.178 671.79C223.523 656.972 227.869 668.531 227.869 668.531C230.573 682.864 230.911 697.543 228.868 711.986Z" fill="black"/>
<path d="M309.034 576.061C307.627 575.369 306.176 574.773 304.688 574.279C301.559 571.802 297.779 565.849 297.953 551.379C298.064 545.685 298.587 540.007 299.517 534.389L259.278 526.871C259.278 526.871 273.01 553.986 261.538 574.149C257.627 575.887 255.28 578.494 255.671 581.623C258.713 604.914 308.73 627.423 308.73 627.423C308.73 627.423 333.151 589.401 309.034 576.061Z" fill="#F8A58D"/>
<path opacity="0.2" d="M299.699 534.389C298.768 540.007 298.245 545.686 298.134 551.38C270.932 551.38 259.416 526.871 259.416 526.871L299.699 534.389Z" fill="black"/>
<path d="M281.703 401.464C281.703 401.464 328.808 395.511 337.499 433.62C340.023 444.427 339.423 455.729 335.768 466.208C332.114 476.687 325.555 485.911 316.858 492.804L281.703 401.464Z" fill="#282C2E"/>
<path d="M277.448 421.756C312.472 419.844 324.77 437.965 329.289 473.901C334.982 518.832 326.726 551.423 282.402 544.209C222.217 534.389 219.262 424.928 277.448 421.756Z" fill="#F8A58D"/>
<path d="M306.562 473.205C309.653 478.28 313.344 482.964 317.557 487.154C316.597 488.641 315.245 489.834 313.65 490.6C312.055 491.367 310.279 491.679 308.518 491.5L306.562 473.205Z" fill="#D4827D"/>
<path d="M284.965 471.51C285.183 474.378 283.792 476.812 281.88 476.985C279.968 477.159 278.23 474.943 278.013 472.032C277.795 469.12 279.186 466.73 281.098 466.556C283.01 466.382 284.748 468.642 284.965 471.51Z" fill="#282C2E"/>
<path d="M280.314 466.772L286.355 463.817C286.355 463.817 283.66 469.336 280.314 466.772Z" fill="#282C2E"/>
<path d="M320.64 468.121C320.64 470.99 319.467 473.423 317.555 473.597C315.642 473.771 313.904 471.511 313.687 468.643C313.47 465.775 314.817 463.341 316.772 463.168C318.728 462.994 320.423 465.253 320.64 468.121Z" fill="#282C2E"/>
<path d="M315.773 463.386L321.857 460.431C321.857 460.431 319.337 465.949 315.773 463.386Z" fill="#282C2E"/>
<path d="M283.266 447.349C280.479 447.164 277.687 447.62 275.103 448.682C272.519 449.745 270.213 451.384 268.361 453.476" stroke="#282C2E" stroke-width="0.686238" stroke-linecap="round" stroke-linejoin="round"/>
<path d="M308.65 444.481C311.009 443.737 313.505 443.539 315.952 443.9C318.398 444.261 320.73 445.173 322.773 446.567" stroke="#282C2E" stroke-width="0.686238" stroke-linecap="round" stroke-linejoin="round"/>
<path d="M242.382 482.849C242.382 482.849 257.2 453.213 253.506 431.139C253.506 431.139 321.339 398.983 328.639 469.204C328.639 469.204 331.985 406.283 271.714 408.369C211.442 410.455 216.483 498.362 249.03 522.87C249.03 522.696 233.213 501.404 242.382 482.849Z" fill="#282C2E"/>
<path d="M287.704 398.856C287.704 398.856 316.471 391.773 324.64 399.377C332.81 406.982 274.667 460.778 244.249 466.209C244.249 466.209 233.907 499.886 242.076 515.616C242.076 515.616 207.834 503.666 206.226 451.522C204.618 399.377 259.284 379.736 287.704 398.856Z" fill="#282C2E"/>
<path d="M248.506 490.108C247.925 486.077 245.769 482.44 242.51 479.997C239.252 477.553 235.157 476.501 231.124 477.072C220.347 478.854 216.393 501.407 243.682 505.318C247.68 505.578 249.636 501.711 248.506 490.108Z" fill="#F8A58D"/>
<path d="M233.21 419.409C233.21 419.409 221.26 388.991 189.19 391.164C157.12 393.337 152.254 443.308 169.114 480.244C185.974 517.18 174.72 529.217 174.72 529.217C174.72 529.217 192.623 527.044 192.623 493.889C193.613 500.911 193.977 508.007 193.709 515.094C193.709 515.094 205.659 498.234 194.274 466.209C182.889 434.183 219.261 448.827 219.261 448.827L233.21 419.409Z" fill="#282C2E"/>
<path d="M321.901 402.029C321.901 402.029 306.692 450.915 265.975 465.559" stroke="#282C2E" stroke-width="0.686238" stroke-linecap="round" stroke-linejoin="round"/>
<path d="M281.012 504.144C283.652 506.762 286.786 508.829 290.233 510.224C293.68 511.619 297.37 512.314 301.088 512.27" stroke="#282C2E" stroke-width="0.686238" stroke-linecap="round" stroke-linejoin="round"/>
<path d="M259.285 565.196C259.285 565.196 266.498 579.84 291.094 590.268L301.132 606.477V588.009C303.902 579.854 304.793 571.179 303.739 562.632L311.908 578.058C314.381 578.634 316.632 579.92 318.384 581.757C320.136 583.594 321.314 585.903 321.773 588.4C324.38 597.873 310.387 631.854 310.387 631.854C310.387 631.854 265.673 615.819 255.634 595.7C248.204 580.709 257.112 577.102 257.112 577.102L259.285 565.196Z" fill="#650094"/>
<path d="M317.646 644.283C317.646 644.919 317.458 645.541 317.104 646.069C316.751 646.598 316.249 647.01 315.661 647.254C315.073 647.497 314.427 647.561 313.803 647.437C313.179 647.313 312.606 647.006 312.157 646.557C311.707 646.107 311.401 645.534 311.277 644.91C311.153 644.287 311.216 643.64 311.46 643.052C311.703 642.465 312.115 641.963 312.644 641.609C313.173 641.256 313.795 641.067 314.43 641.067C315.283 641.067 316.101 641.406 316.704 642.009C317.307 642.612 317.646 643.43 317.646 644.283Z" fill="#282C2E"/>
<path d="M325.463 694.56C325.463 695.196 325.274 695.818 324.921 696.347C324.567 696.876 324.065 697.288 323.477 697.531C322.89 697.775 322.243 697.838 321.62 697.714C320.996 697.59 320.423 697.284 319.973 696.834C319.523 696.384 319.217 695.811 319.093 695.188C318.969 694.564 319.033 693.917 319.276 693.33C319.519 692.742 319.932 692.24 320.46 691.887C320.989 691.533 321.611 691.345 322.247 691.345C323.1 691.345 323.918 691.683 324.521 692.287C325.124 692.89 325.463 693.708 325.463 694.56Z" fill="#282C2E"/>
<path d="M328.814 755.482C328.814 756.118 328.626 756.74 328.272 757.269C327.919 757.798 327.417 758.21 326.829 758.453C326.241 758.697 325.595 758.76 324.971 758.636C324.347 758.512 323.774 758.206 323.325 757.756C322.875 757.306 322.569 756.733 322.445 756.11C322.321 755.486 322.384 754.839 322.628 754.252C322.871 753.664 323.283 753.162 323.812 752.809C324.341 752.455 324.962 752.267 325.598 752.267C326.451 752.267 327.269 752.605 327.872 753.208C328.475 753.811 328.814 754.629 328.814 755.482Z" fill="#282C2E"/>
<path d="M331.463 819.315C331.463 819.951 331.274 820.573 330.921 821.102C330.567 821.631 330.065 822.043 329.477 822.286C328.89 822.529 328.243 822.593 327.62 822.469C326.996 822.345 326.423 822.039 325.973 821.589C325.523 821.139 325.217 820.566 325.093 819.943C324.969 819.319 325.033 818.672 325.276 818.085C325.519 817.497 325.932 816.995 326.46 816.642C326.989 816.288 327.611 816.1 328.247 816.1C329.1 816.1 329.918 816.438 330.521 817.041C331.124 817.644 331.463 818.462 331.463 819.315Z" fill="#282C2E"/>
<path d="M180.15 769.603L233.6 735.883C233.6 735.883 237.684 724.629 242.638 722.326C247.592 720.022 280.14 715.721 283.312 718.98C286.484 722.239 286.18 747.659 280.053 751.005C273.926 754.351 245.289 753.96 242.595 752.874L182.671 798.63L180.15 769.603Z" fill="#F8A58D"/>
<path d="M193.188 590.271C193.188 590.271 227.952 641.025 223.041 684.478L176.719 761.218L207.832 745.314L221.955 771.908C221.955 771.908 186.105 827.137 140.477 814.101C94.85 801.065 193.188 590.271 193.188 590.271Z" fill="#282C2E"/>
<path d="M193.188 590.29C193.188 590.29 227.952 641.044 223.041 684.498L176.719 761.237L207.832 745.333L221.955 771.927C221.955 771.927 186.105 827.157 140.477 814.121C94.85 801.085 193.188 590.29 193.188 590.29Z" fill="#A366BF"/>
<path d="M204.57 743.836L222.343 776.818L226.298 767.389L212.175 740.577L204.57 743.836Z" fill="#650094"/>
<defs>
<linearGradient id="paint0_linear_242_1496" x1="786.741" y1="0" x2="786.741" y2="1582" gradientUnits="userSpaceOnUse">
<stop stop-color="#E6B0FF"/>
<stop offset="1" stop-color="#AD18F3"/>
</linearGradient>
</defs>
</svg>
