<svg width="515" height="395" viewBox="0 0 515 395" fill="none" xmlns="http://www.w3.org/2000/svg">
<path d="M472.516 214.634C470.946 231.058 468.984 247.436 466.641 263.757C463.202 287.695 457.546 309.982 459.6 334.07C460.639 343.084 461.897 352.907 462.324 362.671C462.394 364.46 462.44 366.261 462.451 368.038H55.1014C53.5548 366.318 52.1236 364.518 50.7616 362.671C34.5106 340.43 33.5872 313.803 40.4778 288.179C48.3147 259.001 56.648 229.258 86.3454 215.95C98.6953 210.421 112.038 206.901 123.441 199.618C150.184 182.536 153.266 149.849 163.55 122.576C169.205 107.571 177.1 92.9589 189.346 82.5942C249.999 31.2441 306.323 122.079 368.338 117.959C392.242 116.366 418.269 96.4099 441.676 108.76C472.862 125.219 476.752 160.641 474.443 192.046C473.866 199.583 473.232 207.109 472.516 214.634Z" fill="#F2EFE9"/>
<path d="M391.803 231.555C390.891 233.367 390.233 235.317 389.726 237.268C389.241 239.242 388.918 241.204 388.733 243.247C388.629 244.505 388.906 246.351 388.191 247.494C389.172 248.302 390.395 248.995 391.48 249.745C389.806 249.687 389.114 249.399 388.871 251.176C388.433 254.581 388.548 258.032 388.191 261.448C388.04 263.018 387.983 264.738 387.486 266.25C387.082 267.439 385.974 268.835 386.171 270.162C386.402 271.79 391.168 272.586 392.357 273.29C390.857 273.752 388.144 274.248 386.679 273.51C387.152 274.375 388.271 275.195 389.16 275.783C387.902 275.599 386.644 275.195 385.49 275.033C385.167 276.083 384.462 277.088 384.058 278.161C383.539 279.534 382.939 280.793 382.385 282.155C381.646 284.047 379.188 287.96 379.95 289.957C380.677 291.931 385.086 295.197 387.082 295.278C384.705 295.866 380.273 294.527 378.645 292.704C376.752 296.028 375.714 300.876 375.483 304.684C375.252 308.863 377.48 312.314 380.792 313.445C382.489 314.01 384.439 313.987 386.471 313.098C386.852 312.429 387.163 311.748 387.521 311.067C389.218 307.697 390.718 304.234 391.942 300.645C394.342 293.5 395.854 286.148 396.639 278.669C398.278 263.687 394.769 249.225 393.615 234.394C393.615 234.279 393.777 234.267 393.777 234.382C394.608 242.531 396.339 250.53 397.459 258.655C398.417 265.823 398.578 273.059 397.805 280.273C396.997 287.775 395.22 295.197 392.819 302.33C391.33 306.75 389.841 311.656 387.579 315.926C388.848 318.846 392.311 320.832 395.393 321.062C399.548 321.397 402.687 318.742 404.661 315.315C405.561 313.756 406.311 311.956 407.073 310.386C407.731 308.978 407.743 306.97 408.816 305.792C407.696 304.858 406.288 304.315 405.099 303.496C406.392 303.057 408.066 303.242 409.439 303.299C409.566 302.018 410.628 299.421 410.305 298.232C409.993 297.044 407.419 296.19 406.346 295.705C407.512 295.301 408.874 295.128 410.097 295.174C411.921 292.335 412.117 287.672 412.371 284.428C412.556 281.958 412.313 279.384 412.602 276.949C410.824 276.822 409.012 276.441 407.154 276.372C404.892 276.28 402.491 276.36 400.31 275.599C401.891 275.264 403.507 274.987 405.088 274.814C407.535 274.537 409.751 273.383 412.152 273.106C411.967 272.009 412.244 270.959 412.186 269.909C412.152 268.824 411.482 259.682 410.559 259.821C408.527 260.098 406.3 259.832 404.188 260.179C405.33 259.452 406.738 258.413 407.87 257.755C406.715 257.905 404.938 257.582 403.968 257.616C404.926 256.935 407.558 254.973 408.654 255.481C407.431 253.992 406.877 252.088 406.3 250.287C405.769 248.591 404.915 247.067 403.98 245.532C403.322 244.47 402.422 243.489 401.902 242.439C400.991 242.923 399.109 242.127 398.082 242.127C398.636 241.296 399.779 240.453 400.644 239.865C398.347 235.617 395.15 232.236 394.862 227.088C394.919 227.746 392.219 230.712 391.803 231.555Z" fill="#81A4FF"/>
<path d="M393.615 234.405C394.769 249.236 398.278 263.698 396.639 278.68C395.854 286.147 394.342 293.511 391.942 300.656C390.707 304.245 389.218 307.708 387.521 311.078C387.163 311.77 386.852 312.44 386.471 313.109C386.667 313.04 386.863 312.971 387.048 312.867C386.956 313.986 387.14 315.014 387.59 315.937C389.853 311.667 391.341 306.761 392.83 302.341C395.231 295.196 397.009 287.775 397.817 280.284C398.59 273.07 398.428 265.833 397.47 258.666C396.362 250.529 394.631 242.542 393.788 234.393C393.777 234.266 393.615 234.289 393.615 234.405Z" fill="#2A519E"/>
<path d="M363.791 348.22C362.914 349.19 365.961 351.394 366.873 350.494C368.662 348.74 386.344 318.2 387.579 315.937C387.14 315.014 386.944 313.987 387.036 312.867C386.852 312.983 386.655 313.052 386.459 313.11C385.132 315.833 365.788 345.946 363.791 348.22Z" fill="#56548C"/>
<path d="M449.363 332.466C448.243 333.539 446.974 334.44 445.658 335.247C444.331 336.032 442.969 336.713 441.526 337.302C440.637 337.66 439.229 337.867 438.548 338.641C437.752 338.11 436.967 337.371 436.171 336.748C436.586 337.948 436.944 338.387 435.709 338.964C433.32 340.037 430.792 340.73 428.38 341.746C427.272 342.207 426.037 342.623 425.044 343.327C424.271 343.881 423.497 345 422.493 345.162C421.258 345.358 419.619 342.057 418.834 341.353C418.834 342.553 419.077 344.631 419.931 345.543C419.192 345.393 418.35 344.758 417.726 344.25C418.142 345.127 418.719 345.947 419.088 346.755C418.396 347.216 417.819 347.955 417.138 348.498C416.249 349.19 415.476 349.906 414.599 350.61C413.387 351.568 411.078 354.234 409.462 354.119C407.858 354.026 404.511 351.545 404.003 350.114C404.107 351.983 406.069 354.903 407.754 355.688C405.757 357.812 402.456 359.647 399.733 360.651C396.743 361.748 393.731 360.894 392.173 358.735C391.376 357.627 390.961 356.208 391.157 354.523C391.561 354.095 391.988 353.715 392.403 353.311C394.481 351.325 396.674 349.467 399.005 347.77C403.668 344.435 408.689 341.688 413.964 339.46C424.513 334.936 435.824 334.266 446.881 331.808C446.962 331.785 446.939 331.669 446.858 331.693C440.741 332.904 434.532 333.412 428.357 334.416C422.92 335.317 417.623 336.806 412.544 338.975C407.258 341.226 402.26 344.181 397.586 347.517C394.7 349.583 391.457 351.764 388.86 354.361C386.448 354.084 384.232 352.006 383.378 349.813C382.212 346.859 383.435 343.985 385.501 341.78C386.436 340.776 387.579 339.83 388.56 338.918C389.437 338.121 390.903 337.671 391.515 336.621C392.438 337.233 393.154 338.133 394.019 338.814C394.042 337.775 393.546 336.598 393.2 335.617C394.112 335.236 395.762 333.885 396.697 333.851C397.632 333.816 398.832 335.501 399.409 336.171C399.444 335.236 399.271 334.209 398.959 333.32C400.621 331.358 403.968 330.181 406.277 329.269C408.031 328.588 409.959 328.184 411.678 327.434C412.163 328.703 412.844 329.938 413.306 331.265C413.871 332.893 414.345 334.659 415.383 336.078C415.28 334.855 415.118 333.62 414.899 332.42C414.552 330.573 414.91 328.703 414.564 326.891C415.406 326.776 416.099 326.349 416.884 326.152C417.68 325.933 424.49 324.386 424.594 325.091C424.848 326.637 425.529 328.195 425.748 329.811C426.025 328.819 426.464 327.561 426.695 326.591C426.845 327.468 427.468 328.68 427.664 329.396C427.953 328.542 428.784 326.199 428.183 325.506C429.545 326.072 431.046 326.049 432.489 326.06C433.839 326.072 435.143 326.349 436.471 326.695C437.394 326.937 438.306 327.376 439.183 327.526C439.033 328.299 440.037 329.488 440.268 330.238C440.741 329.65 441.11 328.634 441.341 327.872C444.954 328.599 448.116 330.169 451.937 329.234C451.44 329.35 449.882 331.981 449.363 332.466Z" fill="#81A4FF"/>
<path d="M446.882 331.785C435.824 334.255 424.513 334.913 413.964 339.437C408.701 341.676 403.68 344.412 399.006 347.747C396.663 349.444 394.481 351.302 392.404 353.287C391.988 353.703 391.561 354.072 391.157 354.499C391.169 354.338 391.169 354.188 391.215 354.026C390.418 354.349 389.633 354.43 388.86 354.315C391.469 351.718 394.7 349.536 397.586 347.47C402.249 344.135 407.258 341.18 412.544 338.929C417.623 336.759 422.932 335.259 428.357 334.37C434.532 333.366 440.73 332.847 446.858 331.646C446.939 331.635 446.962 331.75 446.882 331.785Z" fill="#56548C"/>
<path d="M370.924 378.76C370.416 379.614 367.9 377.721 368.362 376.856C369.25 375.159 387.475 355.734 388.849 354.326C389.622 354.441 390.407 354.349 391.203 354.037C391.157 354.199 391.157 354.349 391.145 354.51C389.46 356.092 372.136 376.798 370.924 378.76Z" fill="#2A519E"/>
<path d="M419.827 279.118C418.788 280.03 417.888 281.08 417.068 282.176C416.26 283.296 415.568 284.439 414.922 285.674C414.529 286.435 414.241 287.67 413.502 288.201C413.906 288.952 414.506 289.702 414.991 290.452C413.964 289.99 413.594 289.633 412.994 290.683C411.851 292.714 411.043 294.907 409.947 296.95C409.451 297.897 408.977 298.958 408.285 299.778C407.731 300.424 406.681 301.013 406.461 301.902C406.196 302.975 408.989 304.695 409.555 305.445C408.493 305.353 406.669 304.972 405.93 304.141C406.011 304.81 406.507 305.607 406.9 306.195C406.161 305.768 405.469 305.18 404.788 304.799C404.315 305.376 403.622 305.826 403.091 306.391C402.41 307.119 401.718 307.753 401.025 308.469C400.079 309.473 397.539 311.297 397.516 312.751C397.47 314.182 399.409 317.345 400.644 317.899C398.994 317.668 396.558 315.694 396.004 314.136C393.973 315.74 392.08 318.522 390.972 320.854C389.76 323.416 390.28 326.151 392.08 327.698C392.992 328.483 394.227 328.968 395.727 328.933C396.143 328.61 396.501 328.263 396.905 327.929C398.832 326.244 400.644 324.455 402.329 322.516C405.653 318.649 408.47 314.413 410.87 309.923C415.706 300.932 417.184 290.971 420.242 281.357C420.265 281.288 420.369 281.311 420.346 281.392C418.8 286.724 417.853 292.172 416.48 297.562C415.256 302.306 413.513 306.888 411.194 311.216C408.781 315.717 405.78 319.919 402.456 323.797C400.402 326.186 398.22 328.887 395.704 330.999C395.762 333.157 397.424 335.281 399.305 336.216C401.833 337.485 404.476 336.62 406.588 334.969C407.546 334.219 408.481 333.284 409.358 332.488C410.132 331.772 410.639 330.514 411.621 330.052C411.159 329.187 410.409 328.483 409.878 327.663C410.801 327.721 411.805 328.252 412.648 328.644C413.052 327.871 414.379 326.509 414.483 325.69C414.587 324.87 413.19 323.67 412.648 323.104C413.479 323.15 414.379 323.381 415.129 323.727C416.999 322.412 418.303 319.538 419.296 317.564C420.035 316.064 420.542 314.39 421.339 312.924C420.254 312.393 419.215 311.689 418.072 311.181C416.676 310.547 415.152 309.993 413.975 308.954C415.048 309.138 416.133 309.381 417.172 309.681C418.788 310.131 420.462 309.969 422.043 310.408C422.204 309.669 422.643 309.092 422.886 308.411C423.139 307.719 425.044 301.809 424.432 301.659C423.082 301.313 421.754 300.586 420.346 300.263C421.247 300.101 422.401 299.801 423.278 299.674C422.516 299.478 421.489 298.82 420.866 298.601C421.639 298.416 423.786 297.862 424.351 298.451C423.959 297.204 424.097 295.865 424.201 294.596C424.305 293.395 424.155 292.218 423.959 291.018C423.809 290.187 423.497 289.332 423.439 288.548C422.747 288.617 421.766 287.636 421.12 287.382C421.674 287.001 422.608 286.77 423.301 286.609C422.943 283.354 421.789 280.422 422.92 277.121C422.747 277.514 420.3 278.691 419.827 279.118Z" fill="#5B8BF4"/>
<path d="M420.242 281.369C417.184 290.972 415.718 300.944 410.87 309.935C408.47 314.425 405.653 318.661 402.329 322.528C400.644 324.467 398.821 326.256 396.905 327.941C396.512 328.287 396.143 328.622 395.727 328.945C395.866 328.956 396.004 328.956 396.154 328.933C395.808 329.614 395.67 330.307 395.716 330.999C398.22 328.899 400.402 326.198 402.468 323.797C405.792 319.931 408.793 315.718 411.205 311.216C413.525 306.888 415.268 302.306 416.491 297.562C417.865 292.172 418.811 286.713 420.358 281.392C420.369 281.323 420.266 281.288 420.242 281.369Z" fill="#3458B2"/>
<path d="M372.655 344.965C371.859 345.346 373.336 347.724 374.132 347.378C375.702 346.731 394.354 332.108 395.693 331C395.647 330.307 395.797 329.615 396.131 328.934C395.993 328.957 395.843 328.945 395.704 328.945C394.192 330.319 374.49 344.042 372.655 344.965Z" fill="#3458B2"/>
<path d="M393.546 308.967C393.546 308.967 407.569 312.256 416.884 307.524C416.884 307.524 403.322 304.419 393.546 308.967Z" fill="#FFD776"/>
<path d="M393.546 308.966C393.546 308.966 397.378 297.69 392.473 289.311C392.473 289.311 389.333 299.467 393.546 308.966Z" fill="#FFD776"/>
<path d="M398.347 303.796C398.347 303.796 409.97 305.123 418.857 300.76C418.857 300.76 408.158 298.313 398.347 303.796Z" fill="#FFD776"/>
<path d="M398.347 303.795C398.347 303.795 401.844 294.896 397.158 284.093C397.158 284.093 395.589 295.277 398.347 303.795Z" fill="#FFD776"/>
<path d="M402.964 298.267C402.964 298.267 414.506 299.802 421.973 294.701C421.973 294.701 413.19 293.016 402.964 298.267Z" fill="#FFD776"/>
<path d="M402.964 298.268C402.964 298.268 399.005 286.784 400.055 277.942C400.055 277.931 406.981 288.803 402.964 298.268Z" fill="#FFD776"/>
<path d="M407.131 292.669C407.131 292.669 419.735 291.469 427.964 286.598C427.964 286.61 416.376 286.056 407.131 292.669Z" fill="#FFD776"/>
<path d="M407.131 292.669C407.131 292.669 409.751 283.332 404.476 272.344C404.476 272.355 404.234 285.767 407.131 292.669Z" fill="#FFD776"/>
<path d="M410.905 286.99C410.905 286.99 421.431 286.852 427.802 281.3C427.814 281.3 418.361 281.185 410.905 286.99Z" fill="#FFD776"/>
<path d="M410.905 286.991C410.905 286.991 406.727 278.508 406.808 267.993C406.808 267.993 411.874 277.354 410.905 286.991Z" fill="#FFD776"/>
<path d="M414.437 280.966C414.437 280.966 427.11 279.846 432.962 273.429C432.962 273.429 422.158 275.056 414.437 280.966Z" fill="#FFD776"/>
<path d="M414.437 280.966C414.437 280.966 410.789 274.952 408.735 265.211C408.735 265.199 414.414 271.074 414.437 280.966Z" fill="#FFD776"/>
<path d="M417.126 275.691C417.126 275.691 426.429 275.022 432.638 269.112C432.638 269.112 424.305 268.87 417.126 275.691Z" fill="#FFD776"/>
<path d="M417.126 275.691C417.126 275.691 412.348 268.027 409.612 258.967C409.601 258.978 417.461 268.258 417.126 275.691Z" fill="#FFD776"/>
<path d="M419.088 271.212C419.088 271.212 429.545 268.777 432.546 263.018C432.546 263.018 424.525 265.199 419.088 271.212Z" fill="#FFD776"/>
<path d="M419.088 271.213C419.088 271.213 414.668 265.984 412.532 257.559C412.532 257.57 418.499 261.945 419.088 271.213Z" fill="#FFD776"/>
<path d="M419.988 268.847C419.988 268.847 426.094 264.287 424.548 254.304C424.548 254.304 419.965 259.567 419.988 268.847Z" fill="#FFD776"/>
<path d="M386.678 315.718C394.019 309.405 400.679 302.26 406.404 294.412C409.254 290.476 411.851 286.367 414.194 282.12L415.06 280.515C415.349 279.984 415.603 279.43 415.88 278.888L416.687 277.261L417.449 275.61C418.453 273.406 419.388 271.166 420.15 268.858C420.381 268.142 420.104 268.039 419.85 268.754C419.019 271.016 418.015 273.221 416.964 275.391L416.168 277.018L415.326 278.623C415.037 279.153 414.771 279.696 414.471 280.215L413.571 281.785C411.17 285.975 408.55 290.026 405.711 293.927C400.009 301.706 393.534 308.909 386.459 315.476C385.87 316.03 386.101 316.226 386.678 315.718Z" fill="#FFD776"/>
<path d="M390.187 331.623C390.187 331.623 396.928 336.32 402.86 335.778C402.86 335.778 396.327 331.276 390.187 331.623Z" fill="#FFD776"/>
<path d="M390.187 331.623C390.187 331.623 394.596 326.452 393.754 320.981C393.765 320.981 389.956 325.702 390.187 331.623Z" fill="#FFD776"/>
<path d="M393.823 329.892C393.823 329.892 399.709 333.043 405.33 332.604C405.342 332.604 400.182 329.061 393.823 329.892Z" fill="#FFD776"/>
<path d="M393.823 329.892C393.823 329.892 397.551 325.91 397.343 319.204C397.343 319.204 394.157 324.79 393.823 329.892Z" fill="#FFD776"/>
<path d="M397.435 327.93C397.435 327.93 403.229 331.173 408.262 330.042C408.273 330.054 403.968 327.307 397.435 327.93Z" fill="#FFD776"/>
<path d="M397.435 327.93C397.435 327.93 397.759 321.005 400.171 316.538C400.182 316.55 401.568 323.763 397.435 327.93Z" fill="#FFD776"/>
<path d="M400.829 325.852C400.829 325.852 407.765 327.872 413.144 327.03C413.144 327.018 407.119 324.294 400.829 325.852Z" fill="#FFD776"/>
<path d="M400.829 325.853C400.829 325.853 404.187 321.455 403.703 314.519C403.703 314.519 400.748 321.582 400.829 325.853Z" fill="#FFD776"/>
<path d="M404.026 323.636C404.026 323.636 409.635 325.783 414.183 324.179C414.183 324.179 409.197 322.124 404.026 323.636Z" fill="#FFD776"/>
<path d="M404.026 323.637C404.026 323.637 403.599 318.259 405.861 312.695C405.861 312.695 406.565 318.732 404.026 323.637Z" fill="#FFD776"/>
<path d="M407.165 321.177C407.165 321.177 414.125 323.255 418.58 321.085C418.569 321.085 412.498 319.677 407.165 321.177Z" fill="#FFD776"/>
<path d="M407.165 321.178C407.165 321.178 406.507 317.219 407.465 311.621C407.465 311.621 409.231 315.938 407.165 321.178Z" fill="#FFD776"/>
<path d="M409.693 318.95C409.693 318.95 414.771 320.554 419.307 318.731C419.307 318.731 414.945 316.849 409.693 318.95Z" fill="#FFD776"/>
<path d="M409.693 318.95C409.693 318.95 408.781 313.883 409.231 308.505C409.231 308.505 411.447 315.084 409.693 318.95Z" fill="#FFD776"/>
<path d="M411.69 317C411.69 317 417.749 317.911 420.554 315.488C420.554 315.488 415.833 314.945 411.69 317Z" fill="#FFD776"/>
<path d="M411.69 317C411.69 317 410.443 313.295 411.089 308.378C411.089 308.378 413.329 311.956 411.69 317Z" fill="#FFD776"/>
<path d="M412.659 315.927C412.659 315.927 416.861 314.796 418.142 309.175C418.142 309.175 414.61 310.998 412.659 315.927Z" fill="#FFD776"/>
<path d="M385.12 333.758C390.337 331.958 395.381 329.569 400.067 326.625C402.41 325.148 404.649 323.509 406.784 321.743L407.581 321.074C407.846 320.854 408.1 320.612 408.354 320.381L409.127 319.689L409.878 318.973C410.87 318.015 411.84 317.022 412.729 315.961C413.006 315.626 412.878 315.51 412.59 315.845C411.667 316.872 410.674 317.819 409.658 318.754L408.897 319.446L408.112 320.116C407.846 320.335 407.592 320.566 407.327 320.785L406.519 321.431C404.361 323.14 402.121 324.744 399.79 326.21C395.127 329.13 390.175 331.588 385.039 333.574C384.635 333.747 384.716 333.908 385.12 333.758Z" fill="#FFD776"/>
<path d="M126.546 307.35C126.546 307.35 113.342 310.455 104.581 306C104.57 306 117.335 303.08 126.546 307.35Z" fill="#FFD776"/>
<path d="M126.546 307.35C126.546 307.35 122.945 296.732 127.562 288.849C127.55 288.849 130.505 298.417 126.546 307.35Z" fill="#FFD776"/>
<path d="M122.021 302.48C122.021 302.48 111.08 303.727 102.712 299.618C102.712 299.63 112.788 297.333 122.021 302.48Z" fill="#FFD776"/>
<path d="M122.021 302.48C122.021 302.48 118.732 294.1 123.141 283.932C123.141 283.932 124.618 294.469 122.021 302.48Z" fill="#FFD776"/>
<path d="M117.682 297.274C117.682 297.274 106.809 298.717 99.78 293.916C99.78 293.927 108.044 292.334 117.682 297.274Z" fill="#FFD776"/>
<path d="M117.682 297.274C117.682 297.274 121.41 286.459 120.417 278.138C120.417 278.138 113.896 288.364 117.682 297.274Z" fill="#FFD776"/>
<path d="M113.757 292.023C113.757 292.023 101.892 290.892 94.1477 286.309C94.1477 286.309 105.055 285.79 113.757 292.023Z" fill="#FFD776"/>
<path d="M113.758 292.022C113.758 292.022 111.288 283.227 116.251 272.886C116.251 272.886 116.481 285.524 113.758 292.022Z" fill="#FFD776"/>
<path d="M110.191 286.667C110.191 286.667 100.276 286.528 94.2745 281.3C94.2861 281.3 103.173 281.208 110.191 286.667Z" fill="#FFD776"/>
<path d="M110.191 286.667C110.191 286.667 114.115 278.68 114.046 268.777C114.058 268.777 109.291 277.595 110.191 286.667Z" fill="#FFD776"/>
<path d="M106.878 280.989C106.878 280.989 94.944 279.939 89.4385 273.891C89.4269 273.902 99.607 275.426 106.878 280.989Z" fill="#FFD776"/>
<path d="M106.879 280.988C106.879 280.988 110.306 275.321 112.246 266.146C112.246 266.157 106.89 271.686 106.879 280.988Z" fill="#FFD776"/>
<path d="M104.351 276.037C104.351 276.037 95.5904 275.414 89.7386 269.839C89.7386 269.839 97.5756 269.608 104.351 276.037Z" fill="#FFD776"/>
<path d="M104.351 276.036C104.351 276.036 108.841 268.822 111.426 260.293C111.426 260.293 104.028 269.03 104.351 276.036Z" fill="#FFD776"/>
<path d="M102.492 271.812C102.492 271.812 92.6472 269.516 89.8195 264.091C89.8195 264.091 97.3794 266.145 102.492 271.812Z" fill="#FFD776"/>
<path d="M102.493 271.813C102.493 271.813 106.659 266.896 108.668 258.955C108.668 258.967 103.047 263.087 102.493 271.813Z" fill="#FFD776"/>
<path d="M101.65 269.585C101.65 269.585 95.9021 265.292 97.3564 255.896C97.3564 255.896 101.673 260.848 101.65 269.585Z" fill="#FFD776"/>
<path d="M133.009 313.711C126.096 307.767 119.828 301.038 114.438 293.651C111.749 289.946 109.302 286.079 107.109 282.074L106.29 280.574C106.024 280.066 105.77 279.558 105.516 279.05L104.755 277.515L104.039 275.957C103.093 273.879 102.215 271.767 101.5 269.597C101.281 268.916 101.534 268.824 101.788 269.505C102.573 271.629 103.52 273.706 104.512 275.749L105.263 277.273L106.059 278.785C106.324 279.281 106.578 279.789 106.855 280.285L107.698 281.763C109.96 285.698 112.43 289.519 115.096 293.189C120.463 300.518 126.557 307.293 133.217 313.48C133.771 314.011 133.552 314.195 133.009 313.711Z" fill="#FFD776"/>
<path d="M123.245 258.344C123.984 259.81 124.515 261.391 124.919 262.972C125.311 264.565 125.565 266.158 125.715 267.808C125.807 268.824 125.576 270.324 126.153 271.248C125.369 271.894 124.364 272.46 123.487 273.071C124.838 273.025 125.403 272.794 125.599 274.237C125.946 276.996 125.865 279.789 126.153 282.547C126.28 283.817 126.315 285.202 126.719 286.425C127.042 287.383 127.942 288.515 127.792 289.588C127.608 290.904 123.741 291.55 122.783 292.127C123.995 292.497 126.188 292.9 127.377 292.312C126.984 293.016 126.084 293.674 125.369 294.159C126.384 294.009 127.4 293.685 128.335 293.558C128.589 294.413 129.166 295.22 129.489 296.086C129.916 297.206 130.401 298.221 130.84 299.318C131.428 300.853 133.425 304.015 132.813 305.631C132.225 307.236 128.658 309.867 127.042 309.936C128.97 310.41 132.559 309.325 133.875 307.859C135.41 310.548 136.253 314.472 136.437 317.554C136.622 320.936 134.821 323.729 132.144 324.641C130.77 325.103 129.201 325.079 127.55 324.364C127.238 323.821 126.985 323.279 126.696 322.713C125.322 319.989 124.111 317.185 123.118 314.276C121.179 308.494 119.955 302.538 119.309 296.49C117.982 284.359 120.821 272.656 121.756 260.652C121.756 260.56 121.629 260.548 121.629 260.641C120.948 267.243 119.551 273.706 118.651 280.285C117.878 286.091 117.739 291.943 118.374 297.783C119.021 303.854 120.463 309.856 122.402 315.638C123.603 319.216 124.815 323.187 126.638 326.638C125.611 329.004 122.806 330.608 120.313 330.793C116.955 331.058 114.404 328.911 112.811 326.141C112.084 324.883 111.472 323.417 110.86 322.148C110.329 321.005 110.318 319.389 109.441 318.431C110.353 317.681 111.484 317.242 112.453 316.573C111.403 316.215 110.052 316.365 108.944 316.411C108.841 315.373 107.986 313.272 108.24 312.314C108.494 311.356 110.583 310.664 111.438 310.271C110.491 309.948 109.395 309.809 108.402 309.844C106.925 307.547 106.775 303.773 106.555 301.141C106.405 299.145 106.601 297.056 106.371 295.082C107.813 294.978 109.279 294.666 110.78 294.62C112.603 294.551 114.554 294.609 116.32 293.997C115.039 293.72 113.734 293.501 112.453 293.362C110.468 293.131 108.679 292.196 106.728 291.977C106.878 291.088 106.648 290.246 106.694 289.392C106.728 288.515 107.259 281.116 108.01 281.22C109.66 281.439 111.461 281.232 113.169 281.509C112.245 280.92 111.103 280.077 110.179 279.546C111.114 279.662 112.546 279.408 113.33 279.443C112.557 278.889 110.422 277.307 109.545 277.711C110.537 276.499 110.987 274.964 111.449 273.51C111.876 272.137 112.569 270.902 113.33 269.655C113.861 268.801 114.588 268.005 115.016 267.15C115.754 267.543 117.278 266.897 118.109 266.897C117.659 266.227 116.735 265.546 116.043 265.061C117.901 261.622 120.486 258.886 120.717 254.72C120.729 255.262 122.91 257.663 123.245 258.344Z" fill="#81A4FF"/>
<path d="M121.779 260.641C120.844 272.645 118.005 284.348 119.332 296.479C119.967 302.527 121.19 308.482 123.141 314.265C124.134 317.173 125.346 319.978 126.719 322.702C127.008 323.256 127.262 323.81 127.573 324.353C127.412 324.295 127.262 324.249 127.111 324.156C127.192 325.057 127.031 325.888 126.673 326.638C124.838 323.187 123.637 319.216 122.437 315.638C120.498 309.856 119.055 303.854 118.409 297.783C117.786 291.943 117.913 286.091 118.686 280.285C119.586 273.707 120.983 267.231 121.664 260.641C121.652 260.537 121.779 260.549 121.779 260.641Z" fill="#2A519E"/>
<path d="M145.913 352.757C146.617 353.542 144.159 355.331 143.42 354.592C141.977 353.172 127.654 328.45 126.661 326.626C127.019 325.876 127.169 325.045 127.1 324.145C127.25 324.237 127.411 324.295 127.562 324.341C128.646 326.557 144.297 350.922 145.913 352.757Z" fill="#56548C"/>
<path d="M76.6616 340.015C77.5619 340.88 78.6007 341.619 79.6625 342.265C80.7359 342.9 81.8324 343.443 83.0097 343.927C83.7368 344.216 84.8679 344.389 85.4104 345.012C86.0568 344.585 86.6916 343.985 87.3264 343.477C86.9917 344.447 86.6916 344.804 87.7072 345.278C89.6348 346.143 91.6892 346.697 93.6398 347.528C94.5401 347.898 95.5442 348.244 96.3406 348.81C96.9639 349.26 97.5872 350.16 98.4067 350.298C99.4108 350.46 100.738 347.782 101.361 347.217C101.361 348.186 101.165 349.871 100.473 350.61C101.073 350.483 101.754 349.975 102.262 349.56C101.927 350.264 101.465 350.933 101.165 351.591C101.731 351.972 102.192 352.561 102.746 352.999C103.462 353.553 104.097 354.13 104.801 354.707C105.782 355.481 107.652 357.639 108.956 357.547C110.249 357.478 112.973 355.469 113.377 354.303C113.296 355.815 111.703 358.182 110.341 358.816C111.957 360.536 114.623 362.014 116.828 362.833C119.251 363.722 121.687 363.029 122.945 361.286C123.58 360.398 123.926 359.232 123.764 357.881C123.441 357.535 123.095 357.235 122.76 356.9C121.075 355.296 119.309 353.784 117.416 352.411C113.642 349.71 109.579 347.494 105.309 345.682C96.7677 342.023 87.6149 341.48 78.6699 339.484C78.6007 339.461 78.6237 339.368 78.693 339.391C83.6445 340.372 88.6652 340.788 93.6629 341.596C98.0604 342.323 102.354 343.535 106.463 345.289C110.733 347.113 114.785 349.502 118.57 352.203C120.902 353.876 123.533 355.631 125.634 357.743C127.585 357.524 129.374 355.839 130.066 354.061C131.013 351.672 130.02 349.34 128.346 347.563C127.596 346.755 126.661 345.982 125.876 345.255C125.161 344.608 123.984 344.25 123.487 343.396C122.737 343.893 122.16 344.62 121.467 345.174C121.444 344.331 121.848 343.373 122.137 342.588C121.398 342.277 120.059 341.192 119.309 341.157C118.559 341.134 117.589 342.496 117.105 343.039C117.07 342.277 117.22 341.446 117.462 340.73C116.112 339.149 113.411 338.191 111.541 337.452C110.122 336.898 108.564 336.575 107.167 335.975C106.775 337.002 106.221 337.995 105.851 339.08C105.39 340.395 105.009 341.827 104.166 342.969C104.247 341.977 104.385 340.973 104.558 340.003C104.836 338.503 104.547 337.002 104.824 335.536C104.143 335.444 103.577 335.098 102.943 334.936C102.296 334.763 96.7908 333.505 96.6984 334.082C96.4907 335.329 95.9367 336.598 95.7635 337.902C95.5442 337.094 95.1749 336.079 95.0018 335.294C94.8748 335.998 94.3785 336.991 94.2169 337.568C93.9861 336.875 93.3051 334.971 93.8014 334.417C92.7049 334.867 91.4815 334.855 90.3157 334.867C89.2193 334.867 88.1689 335.109 87.0955 335.375C86.3568 335.571 85.6066 335.929 84.9026 336.044C85.0295 336.667 84.21 337.637 84.0254 338.237C83.6329 337.764 83.3444 336.944 83.1482 336.321C80.2281 336.91 77.6658 338.179 74.5725 337.429C74.9765 337.487 76.2461 339.622 76.6616 340.015Z" fill="#81A4FF"/>
<path d="M78.6699 339.46C87.6265 341.457 96.7792 341.988 105.309 345.658C109.568 347.47 113.63 349.687 117.416 352.387C119.309 353.761 121.087 355.261 122.76 356.877C123.106 357.212 123.441 357.512 123.764 357.858C123.764 357.731 123.753 357.604 123.718 357.477C124.364 357.731 124.999 357.812 125.623 357.708C123.51 355.608 120.89 353.842 118.559 352.168C114.785 349.467 110.733 347.078 106.451 345.254C102.342 343.5 98.0488 342.288 93.6514 341.561C88.6537 340.753 83.6329 340.326 78.6815 339.356C78.6237 339.345 78.6006 339.437 78.6699 339.46Z" fill="#56548C"/>
<path d="M140.142 377.48C140.558 378.172 142.589 376.637 142.22 375.945C141.504 374.571 126.754 358.851 125.634 357.708C125.011 357.801 124.364 357.731 123.73 357.478C123.764 357.605 123.764 357.731 123.776 357.858C125.138 359.128 139.161 375.887 140.142 377.48Z" fill="#2A519E"/>
<path d="M100.565 296.836C101.408 297.575 102.135 298.429 102.793 299.318C103.439 300.218 104.016 301.153 104.524 302.157C104.836 302.78 105.078 303.773 105.678 304.2C105.343 304.812 104.87 305.412 104.478 306.024C105.309 305.654 105.609 305.366 106.094 306.22C107.017 307.859 107.663 309.636 108.552 311.298C108.956 312.06 109.337 312.926 109.891 313.595C110.341 314.115 111.184 314.599 111.368 315.315C111.588 316.192 109.325 317.577 108.864 318.177C109.718 318.097 111.195 317.797 111.795 317.127C111.726 317.67 111.334 318.316 111.011 318.789C111.611 318.443 112.165 317.97 112.719 317.658C113.1 318.131 113.665 318.489 114.092 318.951C114.646 319.539 115.2 320.059 115.766 320.636C116.528 321.444 118.582 322.933 118.605 324.098C118.64 325.253 117.07 327.815 116.078 328.265C117.405 328.069 119.378 326.476 119.84 325.218C121.491 326.511 123.014 328.761 123.914 330.654C124.896 332.732 124.469 334.936 123.026 336.194C122.287 336.829 121.283 337.222 120.071 337.187C119.736 336.922 119.436 336.645 119.113 336.368C117.555 335.006 116.089 333.551 114.716 331.982C112.026 328.854 109.741 325.426 107.802 321.79C103.889 314.519 102.689 306.451 100.219 298.672C100.196 298.614 100.115 298.637 100.138 298.695C101.396 303.011 102.158 307.42 103.266 311.783C104.259 315.627 105.667 319.332 107.536 322.829C109.487 326.476 111.922 329.881 114.612 333.009C116.274 334.948 118.04 337.129 120.071 338.838C120.025 340.58 118.674 342.3 117.162 343.05C115.12 344.078 112.973 343.374 111.276 342.035C110.491 341.434 109.741 340.673 109.037 340.026C108.414 339.449 107.998 338.434 107.202 338.053C107.583 337.349 108.183 336.783 108.621 336.125C107.871 336.171 107.063 336.61 106.382 336.922C106.048 336.298 104.974 335.19 104.893 334.521C104.813 333.851 105.944 332.893 106.382 332.42C105.701 332.455 104.986 332.651 104.374 332.928C102.862 331.866 101.8 329.535 101.004 327.942C100.404 326.73 99.988 325.368 99.3532 324.191C100.23 323.764 101.073 323.198 101.996 322.783C103.127 322.275 104.362 321.813 105.309 320.982C104.443 321.132 103.566 321.328 102.712 321.571C101.408 321.929 100.046 321.802 98.7761 322.159C98.6376 321.559 98.2914 321.086 98.0951 320.544C97.8874 319.978 96.3408 315.2 96.8486 315.084C97.9336 314.807 99.0185 314.219 100.161 313.953C99.434 313.815 98.4991 313.584 97.7835 313.48C98.3952 313.318 99.2378 312.787 99.7341 312.603C99.0993 312.453 97.368 312.003 96.9179 312.476C97.2295 311.472 97.1256 310.387 97.0448 309.348C96.964 308.378 97.091 307.42 97.2411 306.451C97.3565 305.781 97.6104 305.089 97.6565 304.454C98.2221 304.512 99.0185 303.715 99.5379 303.508C99.0878 303.208 98.3375 303.011 97.772 302.884C98.0605 300.253 98.9954 297.875 98.0836 295.209C98.199 295.544 100.184 296.49 100.565 296.836Z" fill="#5B8BF4"/>
<path d="M100.231 298.661C102.701 306.428 103.901 314.508 107.814 321.779C109.753 325.415 112.038 328.843 114.727 331.971C116.089 333.54 117.567 334.995 119.125 336.357C119.448 336.634 119.748 336.911 120.083 337.176C119.967 337.176 119.852 337.188 119.736 337.165C120.013 337.707 120.129 338.273 120.094 338.838C118.063 337.141 116.297 334.949 114.635 333.009C111.946 329.882 109.51 326.477 107.56 322.829C105.678 319.321 104.27 315.616 103.289 311.784C102.181 307.421 101.408 303.012 100.161 298.695C100.127 298.626 100.208 298.603 100.231 298.661Z" fill="#3458B2"/>
<path d="M138.746 350.125C139.392 350.437 138.192 352.353 137.546 352.088C136.276 351.557 121.179 339.726 120.094 338.826C120.129 338.26 120.013 337.706 119.736 337.152C119.852 337.175 119.967 337.164 120.083 337.164C121.318 338.283 137.257 349.387 138.746 350.125Z" fill="#3458B2"/>
<path d="M441.687 363.502C447.804 359.762 450.54 354.107 449.201 351.29C447.747 348.232 440.568 346.581 432.915 350.667C433.169 349.513 436.909 331.877 432.915 330.319C429.707 329.072 423.105 338.779 421.639 340.96C423.116 328.218 422.793 321.535 420.704 320.923C419.157 320.473 416.653 323.29 413.19 329.372C411.932 324.986 410.674 322.793 409.427 322.793C406.992 322.805 404.591 331.254 402.225 348.151C401.059 341.988 398.589 330.965 395.335 330.93C391.272 330.884 388.098 347.989 387.198 353.16C381.911 347.597 378.68 345.196 377.491 345.958C375.99 346.927 377.756 352.987 382.812 364.113C402.444 363.929 422.066 363.721 441.687 363.502Z" fill="#3458B2"/>
<path d="M470.646 296.913C475.915 291.644 475.915 283.101 470.646 277.831C465.377 272.562 456.834 272.562 451.565 277.831C446.296 283.101 446.296 291.644 451.565 296.913C456.834 302.182 465.377 302.182 470.646 296.913Z" fill="#FFD776"/>
<path d="M461.113 298.313C467.156 298.313 472.054 293.414 472.054 287.371C472.054 281.328 467.156 276.43 461.113 276.43C455.07 276.43 450.171 281.328 450.171 287.371C450.171 293.414 455.07 298.313 461.113 298.313Z" fill="#FFC331"/>
<path d="M465.279 289.841C465.279 290.672 464.967 291.364 464.333 291.907C463.709 292.449 462.832 292.795 461.701 292.934V295.069H460.512V293.015C459.82 293.015 459.162 292.957 458.516 292.853C457.869 292.749 457.338 292.599 456.923 292.403V290.96C457.431 291.191 458.019 291.376 458.689 291.514C459.358 291.653 459.958 291.733 460.512 291.733V287.671C459.254 287.267 458.365 286.805 457.858 286.274C457.35 285.743 457.096 285.062 457.096 284.231C457.096 283.423 457.408 282.765 458.031 282.246C458.654 281.727 459.485 281.415 460.512 281.3V279.626H461.701V281.288C462.832 281.323 463.929 281.542 464.979 281.969L464.494 283.181C463.582 282.823 462.648 282.604 461.701 282.535V286.54C462.671 286.851 463.386 287.151 463.871 287.44C464.356 287.728 464.702 288.063 464.933 288.444C465.175 288.848 465.279 289.31 465.279 289.841ZM458.666 284.231C458.666 284.704 458.804 285.074 459.081 285.362C459.358 285.651 459.843 285.916 460.524 286.17V282.604C459.912 282.708 459.45 282.892 459.139 283.181C458.827 283.458 458.666 283.816 458.666 284.231ZM463.721 289.968C463.721 289.529 463.582 289.171 463.305 288.894C463.028 288.617 462.498 288.352 461.713 288.075V291.664C463.052 291.48 463.721 290.914 463.721 289.968Z" fill="white"/>
<path d="M474.628 209.532V246.824H409.531V209.532H474.628ZM471.465 244.366V212.741V211.991H412.717V243.616V244.366H471.465Z" fill="#FFC331"/>
<path d="M471.465 212.741V244.366H412.717V243.616H413.386H416.318H467.853H470.784V240.88V215.477V212.741H471.465Z" fill="#FFC331"/>
<path d="M471.465 211.991V212.741H470.784H467.853H416.318H413.386V215.477V240.881V243.616H412.717V211.991H471.465Z" fill="#FFC331"/>
<path d="M470.784 240.881V243.605H467.853C467.853 242.104 469.157 240.881 470.784 240.881Z" fill="#FFC331"/>
<path d="M470.785 215.477V240.88C469.169 240.88 467.853 242.104 467.853 243.604H416.318C416.318 242.092 415.002 240.88 413.386 240.88V215.477C415.002 215.477 416.318 214.253 416.318 212.741H467.841C467.853 214.253 469.157 215.477 470.785 215.477ZM463.352 228.173C463.352 226.315 462.347 224.803 461.112 224.803C459.877 224.803 458.873 226.303 458.873 228.173C458.873 230.031 459.877 231.543 461.112 231.543C462.347 231.543 463.352 230.043 463.352 228.173ZM456.184 228.173C456.184 222.517 449.871 217.935 442.091 217.935C434.3 217.935 427.999 222.517 427.999 228.173C427.999 233.828 434.312 238.411 442.091 238.411C449.871 238.422 456.184 233.828 456.184 228.173ZM425.298 228.173C425.298 226.315 424.294 224.803 423.059 224.803C421.824 224.803 420.819 226.303 420.819 228.173C420.819 230.031 421.824 231.543 423.059 231.543C424.294 231.543 425.298 230.043 425.298 228.173Z" fill="#FFD776"/>
<path d="M470.784 212.741V215.477C469.169 215.477 467.853 214.253 467.853 212.741H470.784Z" fill="#FFC331"/>
<path d="M461.112 224.814C462.347 224.814 463.351 226.315 463.351 228.185C463.351 230.043 462.347 231.555 461.112 231.555C459.877 231.555 458.873 230.043 458.873 228.185C458.873 226.315 459.877 224.814 461.112 224.814Z" fill="#FFC331"/>
<path d="M442.091 217.936C449.87 217.936 456.184 222.518 456.184 228.173C456.184 233.829 449.87 238.411 442.091 238.411C434.3 238.411 427.998 233.829 427.998 228.173C427.987 222.518 434.3 217.936 442.091 217.936Z" fill="#FFC331"/>
<path d="M423.058 224.814C424.293 224.814 425.298 226.315 425.298 228.185C425.298 230.043 424.293 231.555 423.058 231.555C421.823 231.555 420.819 230.043 420.819 228.185C420.819 226.315 421.823 224.814 423.058 224.814Z" fill="#FFC331"/>
<path d="M413.386 212.741H416.318C416.318 214.253 415.002 215.477 413.386 215.477V212.741Z" fill="#FFC331"/>
<path d="M416.318 243.616H413.386V240.892C415.014 240.88 416.318 242.104 416.318 243.616Z" fill="#FFC331"/>
<path d="M444.076 223.094C445.473 223.59 446.142 224.698 446.142 226.268V226.51H444.4C444.4 225.633 444.157 224.998 443.684 224.617L442.934 227.526C445.115 227.849 446.258 228.634 446.258 230.319V230.446C446.258 232.373 444.769 233.539 442.184 233.539C441.907 233.539 441.653 233.527 441.399 233.504L440.937 235.316H439.517L440.06 233.204C438.64 232.662 437.913 231.554 437.913 230.076V229.984H439.656C439.656 230.746 439.933 231.334 440.441 231.704L441.226 228.634C438.975 228.287 438.028 227.41 438.028 225.921V225.794C438.028 223.925 439.644 222.793 442.068 222.793C442.287 222.793 442.507 222.805 442.715 222.828L443.176 221.039H444.596L444.076 223.094ZM441.56 227.329L442.357 224.19C442.276 224.178 442.172 224.178 442.08 224.178H442.01C440.764 224.178 439.794 224.732 439.794 225.702V225.783C439.806 226.591 440.245 227.099 441.56 227.329ZM444.469 230.527V230.446C444.469 229.545 443.892 229.061 442.588 228.83L441.733 232.166C441.872 232.177 442.01 232.177 442.137 232.177H442.207C443.546 232.177 444.469 231.577 444.469 230.527Z" fill="white"/>
<path d="M148.522 363.502C154.639 359.762 157.374 354.107 156.035 351.29C154.581 348.232 147.402 346.581 139.75 350.667C140.004 349.513 143.743 331.877 139.75 330.319C136.541 329.072 129.939 338.779 128.473 340.96C129.939 328.218 129.628 321.535 127.538 320.923C125.992 320.473 123.487 323.29 120.025 329.372C118.767 324.986 117.508 322.793 116.262 322.793C113.827 322.805 111.426 331.254 109.06 348.151C107.894 341.988 105.424 330.965 102.169 330.93C98.1064 330.884 94.9324 347.989 94.0322 353.16C88.7459 347.597 85.5142 345.196 84.3254 345.958C82.8249 346.927 84.5909 352.987 89.6462 364.113C109.279 363.929 128.9 363.721 148.522 363.502Z" fill="#3458B2"/>
<path d="M99.5867 181.137C101.307 173.886 96.8245 166.614 89.5739 164.893C82.3234 163.173 75.0509 167.655 73.3303 174.906C71.6097 182.156 76.0926 189.429 83.3431 191.15C90.5936 192.87 97.8661 188.387 99.5867 181.137Z" fill="#FFD776"/>
<path d="M86.4607 188.976C92.5037 188.976 97.4025 184.078 97.4025 178.035C97.4025 171.992 92.5037 167.093 86.4607 167.093C80.4177 167.093 75.5189 171.992 75.5189 178.035C75.5189 184.078 80.4177 188.976 86.4607 188.976Z" fill="#FFC331"/>
<path d="M90.6274 180.516C90.6274 181.347 90.3157 182.039 89.6809 182.582C89.0577 183.124 88.1805 183.471 87.0494 183.609V185.744H85.8606V183.69C85.168 183.69 84.5101 183.632 83.8638 183.528C83.2174 183.424 82.6865 183.274 82.271 183.078V181.635C82.7788 181.866 83.3675 182.051 84.0369 182.189C84.7063 182.34 85.3065 182.409 85.8606 182.409V178.346C84.6025 177.942 83.7137 177.48 83.2059 176.949C82.698 176.418 82.4441 175.738 82.4441 174.906C82.4441 174.099 82.7557 173.441 83.379 172.921C84.0023 172.402 84.8333 172.09 85.8606 171.975V170.301H87.0494V171.963C88.1805 171.998 89.277 172.217 90.3273 172.644L89.8425 173.856C88.9307 173.498 87.9958 173.279 87.0494 173.21V177.215C88.0189 177.527 88.7345 177.827 89.2192 178.115C89.704 178.404 90.0503 178.738 90.2811 179.119C90.5235 179.512 90.6274 179.973 90.6274 180.516ZM84.0138 174.906C84.0138 175.38 84.1523 175.749 84.4293 176.038C84.7063 176.326 85.1911 176.592 85.8721 176.846V173.279C85.2604 173.383 84.7987 173.568 84.4871 173.856C84.1754 174.122 84.0138 174.479 84.0138 174.906ZM89.0692 180.631C89.0692 180.193 88.9307 179.835 88.6537 179.558C88.3767 179.281 87.8457 179.015 87.0609 178.738V182.328C88.3998 182.143 89.0692 181.578 89.0692 180.631Z" fill="white"/>
<path d="M399.155 145.682H123.026V362.671H399.155V145.682Z" fill="#FFC331"/>
<path d="M402.306 349.271H119.886V362.683H402.306V349.271Z" fill="#F9F8F7"/>
<path d="M405.341 131.901H116.827V145.694H405.341V131.901Z" fill="#FFC331"/>
<path opacity="0.5" d="M405.341 141.193H116.827V145.683H405.341V141.193Z" fill="#FFC331"/>
<path d="M413.721 131.901H108.459V126.742C108.459 121.375 112.811 117.035 118.166 117.035H404.003C409.37 117.035 413.709 121.386 413.709 126.742V131.901H413.721Z" fill="#FFC331"/>
<path opacity="0.5" d="M413.709 127.412H108.459V131.901H413.709V127.412Z" fill="#FFC331"/>
<path d="M404.903 155.724V190.385H112.026V161.137L123.395 149.388H398.774L404.903 155.724Z" fill="#E05A00"/>
<path opacity="0.5" d="M399.155 190.396V206.081C399.051 205.285 399.005 204.465 399.005 203.646C398.994 214.484 390.222 223.244 379.395 223.244H379.222C368.396 223.244 359.624 214.472 359.612 203.646C359.612 214.484 350.817 223.244 340.003 223.244H339.829C328.992 223.244 320.22 214.472 320.22 203.646C320.22 214.484 311.436 223.244 300.598 223.244H300.437C289.61 223.244 280.827 214.472 280.827 203.646C280.816 214.484 272.032 223.244 261.217 223.244H261.044C250.206 223.244 241.446 214.472 241.434 203.646C241.434 214.484 232.639 223.244 221.813 223.244H221.652C210.814 223.244 202.042 214.472 202.042 203.646C202.03 214.484 193.258 223.244 182.432 223.244H182.259C171.432 223.244 162.649 214.472 162.638 203.646C162.638 214.484 153.854 223.244 143.028 223.244H142.866C132.028 223.244 123.256 214.472 123.256 203.646C123.256 204.442 123.21 205.227 123.118 205.989V190.407H399.155V190.396Z" fill="#FFC331"/>
<path d="M184.59 145.613L162.579 186.61H123.164L154.004 145.613H184.59Z" fill="#F9F8F7"/>
<path d="M245.785 145.613L241.388 186.61H201.972L215.188 145.613H245.785Z" fill="#F9F8F7"/>
<path d="M306.992 145.613L320.196 186.61H280.792L276.395 145.613H306.992Z" fill="#F9F8F7"/>
<path d="M368.176 145.613L399.016 186.61H359.601L337.59 145.613H368.176Z" fill="#F9F8F7"/>
<path d="M154.003 145.614L123.163 186.611H83.7592L123.394 145.614H154.003Z" fill="#81A4FF"/>
<path d="M215.188 145.613L201.972 186.61H162.58L184.59 145.613H215.188Z" fill="#81A4FF"/>
<path d="M276.395 145.613L280.792 186.61H241.388L245.786 145.613H276.395Z" fill="#81A4FF"/>
<path d="M337.59 145.613L359.601 186.61H320.196L306.992 145.613H337.59Z" fill="#81A4FF"/>
<path d="M398.774 145.613L438.42 186.61H399.016L368.176 145.613H398.774Z" fill="#81A4FF"/>
<path d="M418.788 219.47H418.614C407.777 219.47 398.993 210.687 398.993 199.849V186.61H438.397V199.849C438.409 210.687 429.625 219.47 418.788 219.47Z" fill="#5B8BF4"/>
<path d="M379.383 219.47H379.21C368.372 219.47 359.589 210.687 359.589 199.849V186.61H398.993V199.849C399.005 210.687 390.221 219.47 379.383 219.47Z" fill="#E9E5D9"/>
<path d="M339.979 219.47H339.806C328.968 219.47 320.185 210.687 320.185 199.849V186.61H359.589V199.849C359.601 210.687 350.817 219.47 339.979 219.47Z" fill="#5B8BF4"/>
<path d="M300.575 219.47H300.402C289.564 219.47 280.781 210.687 280.781 199.849V186.61H320.185V199.849C320.196 210.687 311.413 219.47 300.575 219.47Z" fill="#E9E5D9"/>
<path d="M261.171 219.47H260.998C250.16 219.47 241.376 210.687 241.376 199.849V186.61H280.781V199.849C280.781 210.687 271.997 219.47 261.171 219.47Z" fill="#5B8BF4"/>
<path d="M221.767 219.47H221.593C210.756 219.47 201.972 210.687 201.972 199.849V186.61H241.376V199.849C241.376 210.687 232.593 219.47 221.767 219.47Z" fill="#E9E5D9"/>
<path d="M182.362 219.47H182.189C171.351 219.47 162.568 210.687 162.568 199.849V186.61H201.972V199.849C201.972 210.687 193.189 219.47 182.362 219.47Z" fill="#5B8BF4"/>
<path d="M142.958 219.47H142.785C131.947 219.47 123.164 210.687 123.164 199.849V186.61H162.568V199.849C162.568 210.687 153.784 219.47 142.958 219.47Z" fill="#E9E5D9"/>
<path d="M103.543 219.47H103.369C92.5316 219.47 83.7482 210.687 83.7482 199.849V186.61H123.152V199.849C123.164 210.687 114.38 219.47 103.543 219.47Z" fill="#5B8BF4"/>
<path d="M219.251 226.418H149.837V362.671H219.251V226.418Z" fill="#3458B2"/>
<path d="M214.599 231.843H154.477V362.671H214.599V231.843Z" fill="#2A519E"/>
<path d="M213.411 233.032H154.477V362.671H213.411V233.032Z" fill="#2A519E"/>
<path d="M213.411 233.032H155.666V362.671H213.411V233.032Z" fill="#81A4FF"/>
<path d="M169.955 300.09C169.955 302.652 167.877 304.741 165.304 304.741C162.73 304.741 160.652 302.664 160.652 300.09C160.652 297.528 162.73 295.438 165.304 295.438C167.877 295.438 169.955 297.516 169.955 300.09Z" fill="#6C94EF"/>
<path d="M171.144 298.9C171.144 301.463 169.066 303.552 166.492 303.552C163.93 303.552 161.841 301.474 161.841 298.9C161.841 296.327 163.918 294.249 166.492 294.249C169.066 294.249 171.144 296.327 171.144 298.9Z" fill="#F9FBFC"/>
<path d="M166.492 303.02C168.768 303.02 170.613 301.175 170.613 298.9C170.613 296.624 168.768 294.779 166.492 294.779C164.217 294.779 162.372 296.624 162.372 298.9C162.372 301.175 164.217 303.02 166.492 303.02Z" fill="#DCE8EF"/>
<path d="M166.596 300.793C168.19 300.793 169.482 299.502 169.482 297.908C169.482 296.314 168.19 295.022 166.596 295.022C165.003 295.022 163.711 296.314 163.711 297.908C163.711 299.502 165.003 300.793 166.596 300.793Z" fill="#F9FBFC"/>
<path opacity="0.5" d="M377.872 326.417V228.172H240.28V326.417H236.402V335.397H382.212V326.417H377.872Z" fill="#FFC331"/>
<path d="M380.238 225.806H242.646V329.002H380.238V225.806Z" fill="#3458B2"/>
<path d="M376.371 229.36H246.524V326.082H376.371V229.36Z" fill="#7FC2DD"/>
<path d="M375.182 230.55H246.524V326.083H375.182V230.55Z" fill="#82E3F9"/>
<path d="M384.589 324.04H238.78V333.031H384.589V324.04Z" fill="#3458B2"/>
<path d="M209.671 236.979H159.429V291.088H209.671V236.979Z" fill="#82E3F9"/>
<path d="M186.275 236.39H182.801V291.676H186.275V236.39Z" fill="#81A4FF"/>
<path d="M212.187 262.291H156.901V265.765H212.187V262.291Z" fill="#81A4FF"/>
<path d="M209.671 306.842H159.429V358.711H209.671V306.842Z" stroke="#6C94EF" stroke-miterlimit="10"/>
<path d="M62.3265 230.977C72.6914 230.977 81.0938 222.574 81.0938 212.21C81.0938 201.845 72.6914 193.442 62.3265 193.442C51.9617 193.442 43.5593 201.845 43.5593 212.21C43.5593 222.574 51.9617 230.977 62.3265 230.977Z" fill="#FFD776"/>
<path d="M62.3265 227.423C70.728 227.423 77.5388 220.612 77.5388 212.21C77.5388 203.809 70.728 196.998 62.3265 196.998C53.925 196.998 47.1143 203.809 47.1143 212.21C47.1143 220.612 53.925 227.423 62.3265 227.423Z" fill="#FFC331"/>
<path d="M68.1321 215.661C68.1321 216.827 67.6935 217.785 66.8279 218.546C65.9507 219.308 64.7388 219.781 63.1691 219.978V222.955H61.5186V220.093C60.5606 220.093 59.6373 220.024 58.737 219.874C57.8367 219.724 57.098 219.516 56.5325 219.251V217.254C57.2481 217.565 58.056 217.831 58.9909 218.027C59.9142 218.223 60.7683 218.327 61.5301 218.327V212.683C59.7757 212.129 58.5407 211.483 57.8367 210.744C57.1326 210.005 56.7748 209.059 56.7748 207.893C56.7748 206.774 57.2134 205.85 58.0791 205.135C58.9447 204.419 60.0989 203.981 61.5301 203.83V201.499H63.1806V203.807C64.7503 203.854 66.2739 204.165 67.7397 204.754L67.0702 206.439C65.8006 205.931 64.4964 205.631 63.1806 205.539V211.113C64.5195 211.541 65.5236 211.956 66.1931 212.36C66.8625 212.764 67.3473 213.237 67.6704 213.757C67.9705 214.264 68.1321 214.911 68.1321 215.661ZM58.9332 207.859C58.9332 208.505 59.1294 209.036 59.5103 209.428C59.8912 209.821 60.5606 210.19 61.507 210.548V205.585C60.6645 205.723 60.0181 205.989 59.5795 206.381C59.1525 206.774 58.9332 207.27 58.9332 207.859ZM65.9507 215.823C65.9507 215.211 65.766 214.703 65.3851 214.322C65.0042 213.941 64.2656 213.56 63.1691 213.191V218.189C65.0273 217.935 65.9507 217.138 65.9507 215.823Z" fill="white"/>
<path d="M508.619 362.671H0V395H508.619V362.671Z" fill="white"/>
<path d="M514.771 362.417H0V372.805H514.771V362.417Z" fill="#81A4FF"/>
<path d="M14.058 362.568L10.9302 362.453L31.8096 291.089L34.6604 291.92L14.058 362.568Z" fill="#3458B2"/>
<path d="M71.4678 362.568L68.3745 362.545L89.2193 291.089L92.0701 291.92L71.4678 362.568Z" fill="#3458B2"/>
<path d="M101.511 362.857H98.6836L94.7132 332.167H38.9887L42.9591 362.857H40.1544L27.2274 263.03C27.1582 262.453 27.5968 261.945 28.1739 261.945H87.6033C88.0881 261.945 88.4921 262.303 88.5498 262.776L101.511 362.857Z" fill="#81A4FF"/>
<path d="M94.2171 329.339H38.7811L30.5863 266.031L30.4478 264.923C30.4363 264.888 30.4363 264.877 30.4363 264.877H85.8607L94.2171 329.339Z" fill="#E89F0F"/>
<path d="M92.9127 329.339H38.781L30.5862 266.031H84.7064L92.9127 329.339Z" fill="#FFC331"/>
<path d="M383.408 105.132C387.282 100.908 386.998 94.3445 382.774 90.4712C378.551 86.5979 371.987 86.8817 368.114 91.1052C364.241 95.3287 364.524 101.892 368.748 105.766C372.971 109.639 379.535 109.355 383.408 105.132Z" fill="#F2EFE9"/>
<path d="M151.908 108.013C157.207 105.831 159.735 99.7676 157.554 94.4685C155.373 89.1694 149.309 86.6417 144.01 88.8228C138.71 91.0039 136.183 97.0678 138.364 102.367C140.545 107.666 146.609 110.194 151.908 108.013Z" fill="#F2EFE9"/>
<path d="M157.121 60.3184C157.121 62.8807 155.043 64.9698 152.469 64.9698C149.907 64.9698 147.818 62.8922 147.818 60.3184C147.818 57.7561 149.895 55.667 152.469 55.667C155.043 55.667 157.121 57.7445 157.121 60.3184Z" fill="#F2EFE9"/>
<path d="M27.4121 163.007C28.687 163.007 29.7205 161.973 29.7205 160.699C29.7205 159.424 28.687 158.39 27.4121 158.39C26.1373 158.39 25.1038 159.424 25.1038 160.699C25.1038 161.973 26.1373 163.007 27.4121 163.007Z" fill="#F2EFE9"/>
<path d="M286.31 50.242C286.31 51.5116 285.282 52.5504 284.001 52.5504C282.72 52.5504 281.693 51.5231 281.693 50.242C281.693 48.9724 282.72 47.9336 284.001 47.9336C285.282 47.9336 286.31 48.9724 286.31 50.242Z" fill="#F2EFE9"/>
<path d="M232.155 2.23913C232.155 3.47412 231.151 4.47827 229.916 4.47827C228.681 4.47827 227.676 3.47412 227.676 2.23913C227.676 1.00414 228.681 0 229.916 0C231.151 0 232.155 0.992601 232.155 2.23913Z" fill="#F2EFE9"/>
<path d="M495.357 194.828C495.357 196.098 494.33 197.136 493.049 197.136C491.768 197.136 490.74 196.109 490.74 194.828C490.74 193.558 491.768 192.52 493.049 192.52C494.33 192.52 495.357 193.558 495.357 194.828Z" fill="#F2EFE9"/>
<path d="M480.48 331.185C480.48 332.455 479.452 333.494 478.171 333.494C476.89 333.494 475.863 332.466 475.863 331.185C475.863 329.916 476.89 328.877 478.171 328.877C479.452 328.877 480.48 329.916 480.48 331.185Z" fill="#F2EFE9"/>
<path d="M394.33 67.428C394.33 68.6976 393.303 69.7364 392.022 69.7364C390.741 69.7364 389.714 68.7092 389.714 67.428C389.714 66.1469 390.741 65.1196 392.022 65.1196C393.303 65.1196 394.33 66.1469 394.33 67.428Z" fill="#F2EFE9"/>
<path d="M35.2954 252.746C35.2954 254.016 34.2681 255.054 32.987 255.054C31.7058 255.054 30.6786 254.027 30.6786 252.746C30.6786 251.465 31.7058 250.438 32.987 250.438C34.2681 250.438 35.2954 251.465 35.2954 252.746Z" fill="#F2EFE9"/>
<path d="M82.7441 129.732C85.313 129.732 87.3955 127.649 87.3955 125.08C87.3955 122.511 85.313 120.429 82.7441 120.429C80.1752 120.429 78.0927 122.511 78.0927 125.08C78.0927 127.649 80.1752 129.732 82.7441 129.732Z" fill="#F2EFE9"/>
<path d="M15.1891 318.153C17.758 318.153 19.8405 316.071 19.8405 313.502C19.8405 310.933 17.758 308.851 15.1891 308.851C12.6202 308.851 10.5377 310.933 10.5377 313.502C10.5377 316.071 12.6202 318.153 15.1891 318.153Z" fill="#F2EFE9"/>
<path d="M488.559 244.24C488.559 246.548 486.689 248.418 484.381 248.418C482.073 248.418 480.203 246.548 480.203 244.24C480.203 241.931 482.073 240.062 484.381 240.062C486.689 240.062 488.559 241.931 488.559 244.24Z" fill="#F2EFE9"/>
<path d="M453.968 90.3735C453.968 111.98 432.165 138.365 432.165 138.365C432.165 138.365 410.362 111.98 410.362 90.3735C410.362 78.3353 420.127 68.5708 432.165 68.5708C444.203 68.5708 453.968 78.3353 453.968 90.3735Z" fill="#81A4FF"/>
<path d="M443.616 91.3197C444.139 84.9796 439.424 79.4155 433.084 78.892C426.744 78.3684 421.18 83.0836 420.656 89.4236C420.133 95.7637 424.848 101.328 431.188 101.851C437.528 102.375 443.092 97.6597 443.616 91.3197Z" fill="#F9FBFC"/>
<path d="M302.041 108.505H297.043V117.023H302.041V108.505Z" fill="#FFC331"/>
<path d="M302.053 108.505H297.043V117.023H302.053V108.505Z" fill="#FFC331"/>
<path d="M225.137 108.505H220.139V117.023H225.137V108.505Z" fill="#FFC331"/>
<path d="M225.137 108.505H220.139V117.023H225.137V108.505Z" fill="#FFC331"/>
<path d="M312.856 108.517H209.313C206.682 108.517 204.546 106.382 204.546 103.751V68.3284C204.546 65.6968 206.682 63.5615 209.313 63.5615H312.856C315.488 63.5615 317.623 65.6968 317.623 68.3284V103.751C317.623 106.382 315.488 108.517 312.856 108.517Z" fill="#FFC331"/>
<path d="M312.856 67.0353C313.572 67.0353 314.16 67.624 314.16 68.3396V103.762C314.16 104.477 313.572 105.066 312.856 105.066H209.313C208.598 105.066 208.009 104.477 208.009 103.762V68.3396C208.009 67.624 208.598 67.0353 209.313 67.0353H312.856ZM312.856 63.5728H209.313C206.682 63.5728 204.546 65.708 204.546 68.3396V103.762C204.546 106.393 206.682 108.529 209.313 108.529H312.856C315.488 108.529 317.623 106.393 317.623 103.762V68.3396C317.623 65.708 315.488 63.5728 312.856 63.5728Z" fill="#FFC331"/>
<path d="M312.856 108.517H209.313C206.682 108.517 204.546 106.382 204.546 103.751V68.3284C204.546 65.6968 206.682 63.5615 209.313 63.5615H312.856C315.488 63.5615 317.623 65.6968 317.623 68.3284V103.751C317.623 106.382 315.488 108.517 312.856 108.517Z" stroke="#81A4FF" stroke-width="3" stroke-miterlimit="10"/>
<path d="M225.002 94.2094C223.835 94.2094 222.779 94.0095 221.836 93.6097C220.908 93.2099 220.172 92.6342 219.629 91.8825C219.085 91.1309 218.805 90.2433 218.789 89.2198H222.387C222.435 89.9074 222.675 90.4512 223.107 90.851C223.555 91.2508 224.163 91.4507 224.93 91.4507C225.714 91.4507 226.33 91.2668 226.777 90.899C227.225 90.5152 227.449 90.0194 227.449 89.4117C227.449 88.9159 227.297 88.5081 226.993 88.1882C226.689 87.8684 226.306 87.6205 225.842 87.4446C225.394 87.2527 224.77 87.0448 223.971 86.8209C222.883 86.501 221.996 86.1892 221.308 85.8853C220.636 85.5655 220.052 85.0937 219.557 84.47C219.077 83.8303 218.837 82.9827 218.837 81.9272C218.837 80.9356 219.085 80.072 219.581 79.3364C220.076 78.6007 220.772 78.041 221.668 77.6572C222.563 77.2573 223.587 77.0574 224.738 77.0574C226.465 77.0574 227.865 77.4812 228.936 78.3288C230.024 79.1605 230.624 80.3279 230.735 81.8312H227.041C227.009 81.2555 226.761 80.7837 226.298 80.4159C225.85 80.032 225.25 79.8401 224.498 79.8401C223.843 79.8401 223.315 80.0081 222.915 80.3439C222.531 80.6797 222.339 81.1675 222.339 81.8072C222.339 82.255 222.483 82.6308 222.771 82.9347C223.075 83.2226 223.443 83.4624 223.875 83.6544C224.322 83.8303 224.946 84.0382 225.746 84.2781C226.833 84.5979 227.721 84.9178 228.409 85.2376C229.096 85.5575 229.688 86.0372 230.184 86.6769C230.679 87.3166 230.927 88.1563 230.927 89.1958C230.927 90.0913 230.695 90.923 230.232 91.6906C229.768 92.4582 229.088 93.074 228.193 93.5377C227.297 93.9855 226.234 94.2094 225.002 94.2094ZM245.234 77.2973V80.0081H240.772V94.0415H237.413V80.0081H232.951V77.2973H245.234ZM255.456 94.2094C253.889 94.2094 252.45 93.8416 251.139 93.1059C249.827 92.3703 248.788 91.3548 248.02 90.0594C247.252 88.748 246.868 87.2687 246.868 85.6214C246.868 83.9902 247.252 82.5269 248.02 81.2315C248.788 79.9201 249.827 78.8966 251.139 78.1609C252.45 77.4253 253.889 77.0574 255.456 77.0574C257.04 77.0574 258.479 77.4253 259.774 78.1609C261.086 78.8966 262.117 79.9201 262.869 81.2315C263.637 82.5269 264.02 83.9902 264.02 85.6214C264.02 87.2687 263.637 88.748 262.869 90.0594C262.117 91.3548 261.086 92.3703 259.774 93.1059C258.463 93.8416 257.024 94.2094 255.456 94.2094ZM255.456 91.2108C256.464 91.2108 257.352 90.9869 258.119 90.5391C258.887 90.0754 259.487 89.4197 259.918 88.5721C260.35 87.7245 260.566 86.7409 260.566 85.6214C260.566 84.502 260.35 83.5264 259.918 82.6948C259.487 81.8472 258.887 81.1995 258.119 80.7517C257.352 80.3039 256.464 80.08 255.456 80.08C254.449 80.08 253.553 80.3039 252.77 80.7517C252.002 81.1995 251.402 81.8472 250.971 82.6948C250.539 83.5264 250.323 84.502 250.323 85.6214C250.323 86.7409 250.539 87.7245 250.971 88.5721C251.402 89.4197 252.002 90.0754 252.77 90.5391C253.553 90.9869 254.449 91.2108 255.456 91.2108ZM275.155 94.0415L271.461 87.5165H269.878V94.0415H266.519V77.2973H272.804C274.1 77.2973 275.203 77.5292 276.115 77.993C277.026 78.4408 277.706 79.0565 278.154 79.8401C278.617 80.6078 278.849 81.4714 278.849 82.4309C278.849 83.5344 278.529 84.5339 277.89 85.4295C277.25 86.3091 276.299 86.9168 275.035 87.2527L279.041 94.0415H275.155ZM269.878 84.9977H272.684C273.596 84.9977 274.275 84.7818 274.723 84.35C275.171 83.9022 275.395 83.2865 275.395 82.5029C275.395 81.7352 275.171 81.1435 274.723 80.7277C274.275 80.2959 273.596 80.08 272.684 80.08H269.878V84.9977ZM285.245 80.0081V84.2061H290.883V86.8689H285.245V91.3068H291.602V94.0415H281.887V77.2733H291.602V80.0081H285.245Z" fill="#F9F8F7"/>
<path d="M73.0257 121.491L71.9292 122.229C70.8789 122.922 69.4708 122.633 68.7898 121.595L61.3568 110.399L58.9561 106.763L62.9727 104.109L63.8383 103.543L64.3577 104.328L66.8392 108.09L73.649 118.363C74.3646 119.402 74.0645 120.81 73.0257 121.491Z" fill="#81A4FF"/>
<path d="M109.948 82.0746C110.722 83.8983 110.491 85.895 109.521 87.4647C108.91 88.4804 107.963 89.3345 106.774 89.8193L106.636 89.877C106.428 89.9578 106.209 90.0386 105.978 90.0848C105.966 90.0848 105.943 90.0963 105.909 90.0963C105.724 90.154 105.539 90.1886 105.355 90.2117C105.251 90.2233 105.147 90.2463 105.055 90.2463C104.858 90.2694 104.674 90.281 104.478 90.2694C104.258 90.2694 104.039 90.2694 103.831 90.2463C103.82 90.2348 103.797 90.2348 103.785 90.2348C103.554 90.2002 103.335 90.1655 103.104 90.1078C103.081 90.1078 103.046 90.0963 103.012 90.0848C102.804 90.0386 102.596 89.9693 102.4 89.877C101.961 89.7269 101.523 89.5077 101.13 89.2191C100.207 88.6074 99.4568 87.7187 98.9951 86.6337C97.7255 83.6097 99.1451 80.1356 102.169 78.866C103.266 78.4043 104.42 78.3004 105.516 78.4966C105.609 78.5197 105.678 78.5313 105.77 78.5428V78.5543C106.186 78.6467 106.613 78.7852 106.994 78.9699C107.144 79.0276 107.282 79.0968 107.398 79.1776C107.502 79.2353 107.594 79.2815 107.686 79.3507C107.732 79.3738 107.779 79.3969 107.802 79.4315C108.102 79.6277 108.367 79.847 108.621 80.101C108.713 80.1933 108.783 80.2626 108.863 80.3549C108.944 80.4126 109.002 80.5049 109.071 80.5857C109.152 80.6781 109.233 80.7704 109.291 80.8858C109.383 80.9782 109.452 81.082 109.498 81.1974C109.556 81.2552 109.591 81.3244 109.625 81.3937C109.752 81.6361 109.856 81.8553 109.948 82.0746Z" fill="#112B46"/>
<path d="M109.948 82.0746C110.722 83.8982 110.491 85.895 109.521 87.4647C108.91 88.4804 107.963 89.3345 106.774 89.8192L106.636 89.8769C106.428 89.9577 106.209 90.0385 105.978 90.0847C105.966 90.0847 105.943 90.0962 105.909 90.0962C105.724 90.154 105.539 90.1886 105.355 90.2117C105.251 90.2232 105.147 90.2463 105.055 90.2463C104.858 90.2694 104.674 90.2809 104.478 90.2694C104.258 90.2694 104.039 90.2694 103.831 90.2463C103.82 90.2347 103.797 90.2347 103.785 90.2347C103.554 90.2001 103.335 90.1655 103.104 90.1078C103.081 90.1078 103.046 90.0962 103.012 90.0847C102.804 90.0385 102.596 89.9693 102.4 89.8769C101.95 89.7154 101.534 89.4845 101.13 89.2191C102.215 89.4268 103.381 89.3229 104.466 88.8497C105.032 88.6073 105.539 88.3072 105.99 87.9379C107.167 86.9453 107.906 85.5256 108.079 84.0252C108.183 83.0672 108.056 82.0631 107.652 81.1051C107.248 80.1471 106.624 79.3507 105.863 78.7621V78.7505C105.759 78.6582 105.643 78.5774 105.528 78.4966C105.62 78.5197 105.689 78.5312 105.782 78.5543C106.197 78.6466 106.624 78.7851 107.005 78.9698C107.155 79.0275 107.294 79.0968 107.409 79.1776C107.513 79.2353 107.605 79.2814 107.698 79.3507C107.744 79.3738 107.79 79.3969 107.813 79.4315C108.113 79.6277 108.379 79.847 108.633 80.1009C108.725 80.1932 108.794 80.2625 108.875 80.3548C108.956 80.4125 109.014 80.5049 109.083 80.5857C109.164 80.678 109.244 80.7704 109.302 80.8858C109.394 80.9781 109.464 81.082 109.51 81.1974C109.568 81.2551 109.602 81.3244 109.637 81.3936C109.752 81.636 109.856 81.8553 109.948 82.0746Z" fill="#112B46"/>
<path d="M68.8936 107.225L66.8507 108.079L61.3682 110.387L60.4333 110.779L56.0936 100.461L54.7893 97.3446L63.2495 93.8013L67.7047 104.397L68.8936 107.225Z" fill="#81A4FF"/>
<path d="M60.4333 110.78L59.7293 111.08C58.402 111.634 56.8669 111.01 56.3129 109.683L52.7003 101.061C52.1347 99.7455 52.7695 98.2104 54.0853 97.6448L54.7894 97.3447L56.0936 100.461L60.4333 110.78Z" fill="#FFC331"/>
<path d="M111.68 101.477L111.668 101.488L68.8937 107.225L67.7048 104.397L63.2496 93.8014L97.2869 67.2549L102.181 78.9122L106.001 87.9842L106.774 89.8309L111.68 101.477Z" fill="#FFC331"/>
<path opacity="0.5" d="M111.68 101.477H111.668L68.8935 107.225L67.7047 104.385C73.9489 104.074 81.3588 101.361 88.7688 97.4832C103.219 89.9233 97.2867 67.2549 97.2867 67.2549L102.192 78.9007L106.012 87.9727L106.786 89.8194L111.68 101.477Z" fill="#FFC331"/>
<path d="M115.442 101.581C115.731 102.262 115.396 103.035 114.738 103.324L114.011 103.635C113.33 103.924 112.557 103.589 112.268 102.92L111.668 101.488L106.786 89.831L106.012 87.9843L102.192 78.9123L97.3098 67.255L96.7097 65.8238C96.4211 65.1428 96.7327 64.3695 97.4137 64.0809L98.1409 63.7693C98.8103 63.4808 99.5952 63.8155 99.8837 64.4734L101.153 67.4973L105.805 78.5776L105.885 78.7854L108.102 84.0485L109.533 87.4534L115.442 101.581Z" fill="#81A4FF"/>
<path d="M130.92 92.9355L119.967 93.2933L132.386 95.0939L154.512 98.3256C156.312 98.5911 157.951 97.2522 158.055 95.4286C158.159 93.6049 156.682 92.0929 154.858 92.1507L130.92 92.9355ZM154.454 63.7921C153.75 62.107 151.753 61.3914 150.137 62.2339L119.378 78.2657L116.643 79.6854L119.724 78.6812L152.55 67.9587C154.281 67.4047 155.17 65.4772 154.454 63.7921ZM129.835 39.5886L109.244 67.7972L134.486 43.663C135.802 42.4049 135.756 40.2927 134.383 39.0808C133.021 37.8804 130.92 38.1113 129.835 39.5886Z" fill="#FFC331"/>
</svg>
