<svg width="536" height="332" viewBox="0 0 536 332" fill="none" xmlns="http://www.w3.org/2000/svg">
<path d="M268 327.855C416.012 327.855 536 324.851 536 321.147C536 317.442 416.012 314.438 268 314.438C119.988 314.438 0 317.442 0 321.147C0 324.851 119.988 327.855 268 327.855Z" fill="#E6E6E6"/>
<path d="M289.107 19.0474C286.378 19.0474 284.162 21.2682 284.162 23.9921C284.162 26.716 286.383 28.9368 289.107 28.9368H335.093V19.0474H289.107Z" fill="#EA4840"/>
<path d="M356.436 28.3879H318.997C316.568 28.3879 314.602 26.4212 314.602 23.992C314.602 21.5629 316.568 19.5962 318.997 19.5962H356.436V28.3879Z" fill="#E8E1DC"/>
<path d="M315.263 25.7499C315.263 23.3208 317.23 21.3541 319.659 21.3541H356.442V19.5957H319.003C316.574 19.5957 314.607 21.5624 314.607 23.9916C314.607 24.8758 314.872 25.694 315.319 26.3801C315.283 26.1768 315.263 25.9684 315.263 25.7499Z" fill="#D1C7B4"/>
<path d="M357.097 28.9373H318.997C316.268 28.9373 314.053 26.7165 314.053 23.9925C314.053 21.2686 316.274 19.0479 318.997 19.0479H357.097C357.401 19.0479 357.645 19.2918 357.645 19.5967C357.645 19.9016 357.401 20.1455 357.097 20.1455H318.997C316.878 20.1455 315.15 21.8734 315.15 23.9925C315.15 26.1117 316.878 27.8396 318.997 27.8396H357.097C357.401 27.8396 357.645 28.0835 357.645 28.3884C357.645 28.6933 357.401 28.9373 357.097 28.9373Z" fill="#C6352F"/>
<path d="M290.045 28.1498C289.938 28.1498 289.826 28.1193 289.73 28.0532C288.403 27.1283 287.61 25.6088 287.61 23.9978C287.61 22.3869 288.403 20.8674 289.73 19.9425C289.979 19.7697 290.319 19.8307 290.497 20.0797C290.67 20.3287 290.609 20.6692 290.36 20.8471C289.328 21.5687 288.708 22.7477 288.708 24.0029C288.708 25.2582 289.323 26.4372 290.36 27.1588C290.609 27.3316 290.67 27.6772 290.497 27.9262C290.39 28.0685 290.217 28.1498 290.045 28.1498Z" fill="#C6352F"/>
<path d="M311.149 28.1498C311.042 28.1498 310.931 28.1193 310.834 28.0532C309.508 27.1283 308.715 25.6088 308.715 23.9978C308.715 22.3869 309.508 20.8674 310.834 19.9425C311.083 19.7697 311.424 19.8307 311.601 20.0797C311.774 20.3287 311.713 20.6692 311.464 20.8471C310.433 21.5687 309.813 22.7477 309.813 24.0029C309.813 25.2582 310.427 26.4372 311.464 27.1588C311.713 27.3316 311.774 27.6772 311.601 27.9262C311.495 28.0685 311.322 28.1498 311.149 28.1498Z" fill="#C6352F"/>
<path d="M293.043 0C290.456 0 288.353 2.10392 288.353 4.69062C288.353 7.27731 290.456 9.38122 293.043 9.38122H336.651V0H293.043Z" fill="#FFC84B"/>
<path d="M354.378 8.85778H321.386C319.084 8.85778 317.219 6.99272 317.219 4.69062C317.219 2.38851 319.084 0.523438 321.386 0.523438H354.378V8.85778Z" fill="#E8E1DC"/>
<path d="M317.844 6.35748C317.844 4.05538 319.709 2.19031 322.011 2.19031H354.378V0.523438H321.386C319.084 0.523438 317.219 2.38851 317.219 4.69062C317.219 5.52913 317.468 6.30666 317.89 6.95715C317.864 6.75895 317.844 6.56076 317.844 6.35748Z" fill="#D1C7B4"/>
<path d="M355.002 9.38122H321.385C318.798 9.38122 316.694 7.27731 316.694 4.69062C316.694 2.10392 318.798 0 321.385 0H355.002C355.292 0 355.525 0.233768 355.525 0.523437C355.525 0.813106 355.292 1.04687 355.002 1.04687H321.385C319.372 1.04687 317.736 2.68325 317.736 4.69569C317.736 6.70813 319.372 8.34452 321.385 8.34452H355.002C355.292 8.34452 355.525 8.57828 355.525 8.86795C355.525 9.14746 355.292 9.38122 355.002 9.38122Z" fill="#FFA83A"/>
<path d="M293.933 8.62897C293.832 8.62897 293.725 8.59848 293.634 8.53749C292.373 7.65832 291.621 6.22014 291.621 4.69048C291.621 3.16082 292.373 1.72264 293.634 0.843465C293.867 0.680844 294.193 0.736745 294.36 0.970513C294.523 1.20428 294.467 1.52952 294.233 1.69722C293.252 2.38328 292.668 3.50131 292.668 4.69048C292.668 5.87965 293.252 6.99766 294.233 7.68372C294.467 7.84634 294.528 8.1716 294.36 8.41045C294.259 8.55274 294.096 8.62897 293.933 8.62897Z" fill="#FFA83A"/>
<path d="M313.946 8.62897C313.844 8.62897 313.738 8.59848 313.646 8.53749C312.386 7.65832 311.634 6.22014 311.634 4.69048C311.634 3.16082 312.386 1.72264 313.646 0.843465C313.88 0.680844 314.205 0.736745 314.373 0.970513C314.536 1.20428 314.48 1.52952 314.246 1.69722C313.265 2.38328 312.681 3.50131 312.681 4.69048C312.681 5.87965 313.265 6.99766 314.246 7.68372C314.48 7.84634 314.541 8.1716 314.373 8.41045C314.276 8.55274 314.114 8.62897 313.946 8.62897Z" fill="#FFA83A"/>
<path d="M291.114 9.38086C288.451 9.38086 286.281 11.5508 286.281 14.2138C286.281 16.8767 288.451 19.0467 291.114 19.0467H336.069V9.38086H291.114Z" fill="#207EBA"/>
<path d="M354.343 18.5078H320.334C317.961 18.5078 316.035 16.5817 316.035 14.2085C316.035 11.8352 317.961 9.90918 320.334 9.90918H354.343V18.5078Z" fill="#E8E1DC"/>
<path d="M316.68 15.9315C316.68 13.5583 318.606 11.6322 320.98 11.6322H354.348V9.91455H320.339C317.966 9.91455 316.04 11.8406 316.04 14.2138C316.04 15.0778 316.299 15.8756 316.736 16.5515C316.701 16.3483 316.68 16.145 316.68 15.9315Z" fill="#D1C7B4"/>
<path d="M354.987 19.0472H320.334C317.671 19.0472 315.501 16.8772 315.501 14.2143C315.501 11.5513 317.671 9.38135 320.334 9.38135H354.987C355.282 9.38135 355.526 9.62021 355.526 9.92005C355.526 10.2148 355.287 10.4587 354.987 10.4587H320.334C318.26 10.4587 316.573 12.1459 316.573 14.2193C316.573 16.2928 318.26 17.98 320.334 17.98H354.987C355.282 17.98 355.526 18.2188 355.526 18.5186C355.526 18.8083 355.287 19.0472 354.987 19.0472Z" fill="#065781"/>
<path d="M292.033 18.2749C291.926 18.2749 291.819 18.2445 291.728 18.1784C290.432 17.2738 289.654 15.7899 289.654 14.2145C289.654 12.6391 290.432 11.1552 291.728 10.2506C291.972 10.0829 292.307 10.1388 292.475 10.3827C292.642 10.6267 292.587 10.9621 292.343 11.1298C291.331 11.8361 290.727 12.9897 290.727 14.2145C290.727 15.4392 291.331 16.5928 292.343 17.2992C292.587 17.4669 292.648 17.8023 292.475 18.0463C292.368 18.1936 292.2 18.2749 292.033 18.2749Z" fill="#065781"/>
<path d="M312.665 18.2744C312.559 18.2744 312.452 18.244 312.361 18.1779C311.065 17.2733 310.287 15.7894 310.287 14.214C310.287 12.6386 311.065 11.1547 312.361 10.2501C312.604 10.0824 312.94 10.1383 313.108 10.3822C313.275 10.6262 313.219 10.9616 312.975 11.1293C311.964 11.8357 311.359 12.9893 311.359 14.214C311.359 15.4387 311.964 16.5923 312.975 17.2987C313.219 17.4664 313.28 17.8018 313.108 18.0458C313.001 18.1931 312.833 18.2744 312.665 18.2744Z" fill="#065781"/>
<path d="M361.336 25.0288H310.11V95.4337H361.336V25.0288Z" fill="#CCA170"/>
<path d="M361.336 93.98H310.11V95.4334H361.336V93.98Z" fill="#AD8865"/>
<path d="M258.884 95.4399H310.109V25.0351H258.884V95.4399Z" fill="#E8C69B"/>
<path d="M258.884 52.958L298.203 52.953L310.11 26.6083V25.0278H258.884V52.958Z" fill="#BF8C59"/>
<path d="M361.341 52.959L322.017 52.954L310.11 26.6093V25.0288H361.341V52.959Z" fill="#BF8C59"/>
<path d="M243.268 48.6645H293.914L293.33 48.0801H242.684L243.268 48.6645Z" fill="#E8C69B"/>
<path d="M242.683 48.0801H293.329L309.525 24.4492H258.884L242.683 48.0801Z" fill="#F7DDBC"/>
<path d="M258.885 95.4399H310.11V93.9865H258.885V95.4399Z" fill="#CCA170"/>
<path d="M293.327 48.0796L293.912 48.6641L310.108 25.0281L309.523 24.4487L293.327 48.0796Z" fill="#CCA170"/>
<path d="M376.953 48.6645H326.312L326.891 48.0801H377.537L376.953 48.6645Z" fill="#AD8865"/>
<path d="M377.538 48.0796H326.891L310.695 24.4487H361.342L377.538 48.0796Z" fill="#E8C69B"/>
<path d="M326.891 48.0801L326.312 48.6646L310.11 25.0285L310.695 24.4492L326.891 48.0801Z" fill="#F2D5B0"/>
<path d="M385.611 95.5088H328.394V173.72H385.611V95.5088Z" fill="#CDA06B"/>
<path d="M328.394 95.5093H271.177V173.72H328.394V95.5093Z" fill="#E2B886"/>
<path d="M271.176 173.719H328.393V151.196L280.252 95.6205L274.55 95.4985L271.176 173.719Z" fill="#BF8C59"/>
<path d="M305.693 161.773H293.872V173.721H305.693V161.773Z" fill="#AD8865"/>
<path d="M305.694 95.499H293.873V107.447H305.694V95.499Z" fill="#BF966D"/>
<path d="M362.909 95.4985H351.089V107.446H362.909V95.4985Z" fill="#AD8865"/>
<path d="M362.909 161.772H351.089V173.72H362.909V161.772Z" fill="#AD8865"/>
<path d="M348.858 168.598H331.92V170.193H348.858V168.598Z" fill="#362F2B"/>
<path d="M345.916 153.341H344.32V166.828H345.916V153.341Z" fill="#362F2B"/>
<path d="M348.858 157.182H341.377L345.117 151.409L348.858 157.182Z" fill="#362F2B"/>
<path d="M336.458 153.341H334.862V166.828H336.458V153.341Z" fill="#362F2B"/>
<path d="M339.401 157.182H331.921L335.661 151.409L339.401 157.182Z" fill="#362F2B"/>
<path d="M279.364 90.2402H206.825V189.394H279.364V90.2402Z" fill="#CDA06B"/>
<path d="M206.824 90.2407H134.285V189.394H206.824V90.2407Z" fill="#E8C69B"/>
<path d="M178.046 174.244H163.06V189.393H178.046V174.244Z" fill="#BF966D"/>
<path d="M178.046 90.2251H163.06V105.374H178.046V90.2251Z" fill="#CCA170"/>
<path d="M250.585 90.2246H235.599V105.374H250.585V90.2246Z" fill="#AD8865"/>
<path d="M250.585 174.243H235.599V189.392H250.585V174.243Z" fill="#AD8865"/>
<path d="M232.774 182.898H211.298V184.926H232.774V182.898Z" fill="#362F2B"/>
<path d="M229.042 163.558H227.015V180.658H229.042V163.558Z" fill="#362F2B"/>
<path d="M232.774 168.425H223.286L228.028 161.107L232.774 168.425Z" fill="#362F2B"/>
<path d="M217.05 163.557H215.022V180.657H217.05V163.557Z" fill="#362F2B"/>
<path d="M220.78 168.425H211.297L216.038 161.107L220.78 168.425Z" fill="#362F2B"/>
<path d="M221.42 43.0026C220.673 43.0026 220.134 42.8196 219.779 42.4487C219.189 41.8338 219.235 40.8784 219.286 39.7705C219.352 38.3171 219.433 36.6654 218.142 35.3187C217.37 34.5056 216.145 33.8755 214.514 33.4333C212.562 32.9099 209.955 32.6456 206.769 32.6456C200.706 32.6456 196.717 33.6061 194.913 35.5017C193.53 36.9551 193.622 38.749 193.693 40.1872C193.744 41.1934 193.79 42.0624 193.292 42.5859C193.022 42.8705 192.636 43.0077 192.123 43.0077C191.894 43.0077 191.706 42.8196 191.706 42.591C191.706 42.3623 191.894 42.1742 192.123 42.1742C192.534 42.1742 192.651 42.0523 192.692 42.0065C192.946 41.7423 192.905 41.0054 192.865 40.2228C192.789 38.7084 192.682 36.64 194.313 34.9223C196.305 32.8286 200.381 31.8071 206.769 31.8071C212.943 31.8071 216.862 32.7676 218.747 34.7394C220.282 36.3453 220.19 38.2612 220.119 39.8061C220.078 40.7208 220.038 41.5085 220.383 41.8693C220.576 42.0726 220.917 42.1692 221.425 42.1692C221.654 42.1692 221.842 42.3572 221.842 42.5859C221.837 42.8146 221.654 43.0026 221.42 43.0026Z" fill="#FE8B28"/>
<path d="M193.18 39.5466C193.048 39.5466 192.941 39.4399 192.936 39.3078C192.911 38.0119 193.058 36.3399 194.435 34.9373C196.427 32.9045 200.462 31.9136 206.769 31.9136C212.903 31.9136 216.791 32.8537 218.661 34.795C219.957 36.1417 220.089 37.7324 220.033 39.2468C220.028 39.3789 219.916 39.4856 219.784 39.4805C219.652 39.4755 219.545 39.3637 219.55 39.2315C219.601 37.8188 219.484 36.3501 218.315 35.1355C216.542 33.2959 212.766 32.4014 206.774 32.4065C203.476 32.4065 200.762 32.6911 198.704 33.2501C196.961 33.7227 195.645 34.4088 194.786 35.2829C193.541 36.5534 193.399 38.0271 193.424 39.3078C193.429 39.4348 193.322 39.5466 193.18 39.5466C193.185 39.5466 193.185 39.5466 193.18 39.5466Z" fill="#FFC84B"/>
<path d="M196.636 33.7998C196.585 33.7998 196.534 33.7693 196.509 33.7185C196.478 33.6474 196.509 33.566 196.575 33.5355C198.816 32.4836 202.246 31.9551 206.769 31.9551C211.277 31.9551 214.524 32.4582 216.689 33.4898C216.76 33.5203 216.786 33.6067 216.755 33.6728C216.725 33.7439 216.638 33.7693 216.572 33.7388C214.474 32.7377 211.175 32.2346 206.769 32.2346C202.287 32.2346 198.897 32.758 196.692 33.7896C196.677 33.7947 196.656 33.7998 196.636 33.7998Z" fill="#FFE466"/>
<path d="M221.581 40.9928L216.662 54.5122L217.312 54.7485L222.23 41.2291L221.581 40.9928Z" fill="#FE8B28"/>
<path d="M222.935 45.9143C222.442 47.2712 217.538 45.4824 218.031 44.1306C218.524 42.7737 220.023 42.0775 221.375 42.5704C222.727 43.0634 223.428 44.5625 222.935 45.9143Z" fill="#FFC84B"/>
<path d="M221.588 42.7334C221.882 44.4562 221.435 45.6809 220.272 46.0621C220.256 46.0671 220.241 46.0773 220.221 46.0824C220.77 46.2704 221.334 46.3924 221.806 46.4025C222.299 46.3924 222.67 46.245 222.787 45.9198C223.239 44.6849 222.706 43.3381 221.588 42.7334Z" fill="#FE8B28"/>
<path d="M223.124 51.7867C223.359 51.1431 221.528 49.8863 219.036 48.9795C216.543 48.0727 214.333 47.8592 214.099 48.5028C213.865 49.1463 215.695 50.4031 218.188 51.3099C220.68 52.2167 222.89 52.4302 223.124 51.7867Z" fill="#FFE466"/>
<path d="M222.933 45.9146L218.029 44.1309L217.298 44.6543C215.956 45.6148 214.934 46.9564 214.37 48.5064C214.162 49.0807 215.91 50.2444 218.273 51.1033C220.636 51.9621 222.72 52.1959 222.928 51.6216C223.492 50.0716 223.574 48.3895 223.162 46.7887L222.933 45.9146Z" fill="#FFC84B"/>
<path d="M218.258 45.1933C217.201 45.4322 216.093 46.6671 215.707 47.6479C215.484 48.212 215.636 48.7659 216.058 49.1928C216.505 49.64 217.252 49.7569 217.842 49.5943C219.173 49.2182 219.697 47.4345 219.514 46.2047C219.422 45.5135 218.995 45.0256 218.258 45.1933Z" fill="#FFE466"/>
<path d="M222.609 51.8607C223.254 50.1785 223.381 48.344 222.969 46.5907L222.797 45.864L221.272 45.3101L221.297 46.2655C221.323 47.9984 220.927 49.8838 220.21 51.6828C221.282 51.9369 222.156 52.003 222.609 51.8607Z" fill="#FE8B28"/>
<path d="M220.637 43.0281C220.794 43.3584 220.52 43.8158 220.027 44.0444C219.534 44.2731 219.011 44.1918 218.853 43.8564C218.696 43.5261 218.97 43.0687 219.463 42.84C219.956 42.6113 220.479 42.6977 220.637 43.0281Z" fill="#FFE466"/>
<path d="M222.634 42.0524C222.461 42.5301 221.933 42.774 221.455 42.6012C220.977 42.4284 220.733 41.8999 220.906 41.4222C221.079 40.9445 221.607 40.7006 222.085 40.8734C222.563 41.0461 222.807 41.5747 222.634 42.0524Z" fill="#FFC84B"/>
<path d="M222.495 41.2549C222.5 41.3768 222.485 41.4988 222.439 41.6157C222.261 42.0985 221.727 42.3475 221.245 42.1747C221.128 42.129 221.021 42.068 220.935 41.9867C221.011 42.2408 221.204 42.4593 221.473 42.5609C221.926 42.7236 222.429 42.4898 222.591 42.0375C222.688 41.7631 222.642 41.4785 222.495 41.2549Z" fill="#FE8B28"/>
<path d="M221.932 41.148C222.008 41.3106 221.907 41.5139 221.714 41.6054C221.515 41.6968 221.297 41.6409 221.221 41.4783C221.145 41.3157 221.246 41.1124 221.439 41.0209C221.632 40.9295 221.856 40.9854 221.932 41.148Z" fill="#FFE466"/>
<path d="M192.155 40.9818L191.506 41.2183L196.428 54.7376L197.077 54.5012L192.155 40.9818Z" fill="#FE8B28"/>
<path d="M190.802 45.9194C191.295 47.2763 196.199 45.4874 195.706 44.1306C195.213 42.7737 193.714 42.0775 192.362 42.5704C191.005 43.0685 190.309 44.5676 190.802 45.9194Z" fill="#FFC84B"/>
<path d="M192.143 42.7388C191.848 44.4615 192.295 45.6863 193.459 46.0674C193.474 46.0725 193.49 46.0827 193.51 46.0878C192.961 46.2758 192.397 46.3978 191.924 46.4079C191.432 46.3978 191.061 46.2504 190.939 45.9251C190.491 44.6902 191.03 43.3435 192.143 42.7388Z" fill="#FE8B28"/>
<path d="M190.598 51.779C190.832 52.4244 193.043 52.211 195.538 51.3013C198.033 50.3917 199.863 49.1364 199.629 48.491C199.395 47.8456 197.184 48.0591 194.689 48.9687C192.194 49.8784 190.364 51.1336 190.598 51.779Z" fill="#FFE466"/>
<path d="M190.802 45.9197L195.706 44.1309L196.438 44.6543C197.779 45.6148 198.801 46.9564 199.365 48.5064C199.573 49.0807 197.825 50.2444 195.462 51.1033C193.099 51.9621 191.015 52.1959 190.807 51.6216C190.243 50.0716 190.161 48.3895 190.573 46.7887L190.802 45.9197Z" fill="#FFC84B"/>
<path d="M195.471 45.1933C196.528 45.4322 197.636 46.6671 198.022 47.6479C198.246 48.212 198.093 48.7659 197.672 49.1928C197.224 49.64 196.477 49.762 195.888 49.5943C194.556 49.2182 194.033 47.4345 194.216 46.2047C194.313 45.5135 194.739 45.0256 195.471 45.1933Z" fill="#FFE466"/>
<path d="M191.126 51.8655C190.475 50.1885 190.353 48.3488 190.765 46.5956L190.938 45.8689L192.462 45.3149L192.437 46.2703C192.411 48.0033 192.808 49.8887 193.524 51.6877C192.457 51.9418 191.578 52.0078 191.126 51.8655Z" fill="#FE8B28"/>
<path d="M193.097 43.0333C192.94 43.3637 193.214 43.821 193.707 44.0497C194.2 44.2784 194.723 44.1971 194.881 43.8617C195.039 43.5314 194.764 43.074 194.271 42.8453C193.778 42.6166 193.25 42.6979 193.097 43.0333Z" fill="#FFE466"/>
<path d="M191.096 42.0524C191.268 42.5301 191.797 42.774 192.275 42.6012C192.752 42.4284 192.996 41.8999 192.823 41.4222C192.651 40.9445 192.122 40.7006 191.644 40.8734C191.167 41.0461 190.923 41.5747 191.096 42.0524Z" fill="#FFC84B"/>
<path d="M191.233 41.2598C191.228 41.3817 191.243 41.5037 191.289 41.6206C191.467 42.1034 192 42.3524 192.483 42.1796C192.6 42.1339 192.707 42.0729 192.793 41.9916C192.717 42.2457 192.524 42.4693 192.255 42.5658C191.802 42.7284 191.299 42.4947 191.136 42.0424C191.045 41.768 191.086 41.4783 191.233 41.2598Z" fill="#FE8B28"/>
<path d="M191.803 41.1529C191.727 41.3155 191.828 41.5188 192.021 41.6102C192.214 41.7017 192.438 41.6458 192.514 41.4832C192.59 41.3206 192.489 41.1173 192.296 41.0258C192.103 40.9343 191.879 40.9902 191.803 41.1529Z" fill="#FFE466"/>
<path d="M193.347 89.3443L192.265 88.7192L195.111 81.7163L197.987 83.3781L193.347 89.3443Z" fill="#FFC84B"/>
<path d="M195.706 82.0571L192.489 88.8466L192.682 88.9583L196.219 82.3569L195.706 82.0571Z" fill="#FFE466"/>
<path d="M193.083 89.1867L193.347 89.3442L197.987 83.3781L196.971 82.7886L193.083 89.1867Z" fill="#FE8B28"/>
<path d="M192.265 88.7192L193.347 89.3442L194.338 88.0687C194.074 87.652 193.647 87.342 193.118 87.2505C193.037 87.2353 192.951 87.2302 192.869 87.2251L192.265 88.7192Z" fill="#FE8B28"/>
<path d="M191.397 89.5429C191.682 90.3255 192.546 90.727 193.323 90.4424C194.106 90.1578 194.507 89.2939 194.223 88.5163C193.938 87.7337 193.074 87.3323 192.297 87.6169C191.514 87.9014 191.113 88.7654 191.397 89.5429Z" fill="#FFC84B"/>
<path d="M191.62 88.2412C191.609 88.4343 191.64 88.6376 191.711 88.8307C192.001 89.6235 192.875 90.0301 193.668 89.7404C193.861 89.6692 194.034 89.5625 194.181 89.4304C194.059 89.8522 193.744 90.2079 193.302 90.3705C192.56 90.6399 191.742 90.2587 191.472 89.5168C191.305 89.0747 191.376 88.6071 191.62 88.2412Z" fill="#FE8B28"/>
<path d="M192.545 88.0695C192.423 88.3337 192.586 88.6691 192.906 88.8216C193.232 88.9741 193.592 88.8775 193.714 88.6132C193.836 88.349 193.674 88.0136 193.353 87.8611C193.033 87.7087 192.672 87.8052 192.545 88.0695Z" fill="#FFE466"/>
<path d="M220.399 89.3404L221.481 88.7153L218.63 81.7124L215.754 83.3742L220.399 89.3404Z" fill="#FFC84B"/>
<path d="M218.04 82.0586L221.257 88.8429L221.064 88.9547L217.521 82.3533L218.04 82.0586Z" fill="#FFE466"/>
<path d="M220.668 89.1833L220.399 89.3408L215.754 83.3746L216.775 82.7852L220.668 89.1833Z" fill="#FE8B28"/>
<path d="M221.482 88.7153L220.399 89.3403L219.408 88.0648C219.672 87.6481 220.099 87.3381 220.628 87.2466C220.709 87.2313 220.796 87.2212 220.877 87.2212L221.482 88.7153Z" fill="#FE8B28"/>
<path d="M222.351 89.5444C222.066 90.327 221.202 90.7285 220.425 90.4439C219.642 90.1593 219.24 89.2953 219.525 88.5178C219.81 87.7352 220.674 87.3337 221.451 87.6183C222.229 87.9029 222.635 88.7617 222.351 89.5444Z" fill="#FFC84B"/>
<path d="M222.126 88.2378C222.136 88.4309 222.105 88.6342 222.034 88.8273C221.745 89.6201 220.871 90.0266 220.078 89.7421C219.885 89.6709 219.712 89.5642 219.564 89.432C219.686 89.8538 220.002 90.2096 220.444 90.3722C221.186 90.6415 222.004 90.2604 222.273 89.5184C222.441 89.0712 222.37 88.6037 222.126 88.2378Z" fill="#FE8B28"/>
<path d="M221.202 88.0652C221.324 88.3295 221.161 88.6649 220.841 88.8174C220.516 88.9698 220.155 88.8733 220.033 88.609C219.911 88.3448 220.073 88.0094 220.394 87.8569C220.714 87.7095 221.075 87.801 221.202 88.0652Z" fill="#FFE466"/>
<path d="M207.53 45.9507H206.062V48.8829H207.53V45.9507Z" fill="#FE8B28"/>
<path d="M225.49 61.2372C227.737 67.3304 227.081 74.4552 223.636 79.9742C219.738 86.2199 212.298 89.5435 205.015 88.7913C195.68 87.8309 187.63 80.147 186.909 70.6794C186.38 63.7121 189.556 56.5008 195.146 52.293C201.982 47.145 211.805 47.1755 218.716 52.2066C221.953 54.5646 224.2 57.7408 225.49 61.2372Z" fill="#EA4840"/>
<path d="M218.838 83.4342C212.562 88.008 203.978 88.3281 197.148 84.7251C194.043 83.0887 191.426 80.6799 189.479 77.834C191.339 81.371 194.231 84.3845 197.834 86.2852C204.181 89.6342 212.155 89.3343 217.984 85.0859C220.53 83.2259 222.603 80.7662 224.067 77.9763C222.649 80.0802 220.886 81.9402 218.838 83.4342Z" fill="#A12D28"/>
<path d="M201.591 51.342C209.524 49.2076 218.153 51.9772 223.616 57.9586C219.159 50.9151 210.281 47.3374 202.226 49.5023C197.23 50.8439 192.86 54.2437 190.126 58.6294C193.145 55.1585 197.154 52.5311 201.591 51.342Z" fill="#FF7063"/>
<path d="M224.393 68.7373C224.225 74.4036 221.369 79.9632 216.775 83.3071C211.581 87.0982 204.471 87.3574 198.81 84.3743C191.558 80.5527 187.544 71.6949 190.049 63.7926C191.894 57.9738 196.818 53.1714 202.718 51.5858C209.934 49.6445 217.883 52.8715 221.841 59.2036C223.701 62.1816 224.489 65.4848 224.393 68.7373Z" fill="#A12D28"/>
<path d="M202.724 52.4398C196.824 54.0254 191.894 58.8329 190.054 64.6466C189.592 66.1102 189.353 67.6042 189.312 69.0932C189.475 75.3542 193.16 81.3966 198.816 84.3746C204.472 87.3577 211.581 87.0934 216.78 83.3074C221.369 79.9584 224.23 74.4039 224.398 68.7375C224.398 68.702 224.398 68.6613 224.398 68.6257C224.327 65.6884 223.524 62.7358 221.852 60.0627C217.893 53.7306 209.94 50.5036 202.724 52.4398Z" fill="#F7F5EA"/>
<path d="M216.958 82.1332C211.607 85.9904 204.314 86.2242 198.526 83.1344C194.384 80.9237 191.284 77.1072 189.811 72.7622C191.01 77.6255 194.278 81.9858 198.816 84.3794C204.472 87.3625 211.581 87.0982 216.78 83.3122C220.287 80.756 222.782 76.9039 223.839 72.7012C222.569 76.4465 220.175 79.8159 216.958 82.1332Z" fill="#FF7063"/>
<path d="M210.286 44.4301C207.958 43.8762 205.778 43.8762 203.451 44.4301C203.136 44.5165 203.039 45.0908 203.232 45.6904C203.425 46.2901 203.796 46.7119 204.055 46.6407C205.982 46.1884 207.755 46.1884 209.676 46.6407C209.935 46.7119 210.306 46.2952 210.499 45.6904C210.698 45.0908 210.601 44.5165 210.286 44.4301Z" fill="#FFC84B"/>
<path d="M203.151 45.3401C203.167 45.4519 203.197 45.5738 203.233 45.6907C203.426 46.2904 203.797 46.7122 204.056 46.641C206.002 46.392 207.776 46.3666 209.677 46.641C209.936 46.7122 210.307 46.2955 210.5 45.6907C210.556 45.5128 210.591 45.335 210.596 45.1724C208.391 45.7974 204.859 45.9601 203.151 45.3401Z" fill="#FE8B28"/>
<path d="M208.995 44.5627C208.995 44.705 208.009 44.8168 206.8 44.8168C205.585 44.8168 204.604 44.6999 204.604 44.5627C204.604 44.4204 205.59 44.3086 206.8 44.3086C208.009 44.3086 208.995 44.4255 208.995 44.5627Z" fill="#FFE466"/>
<path d="M222.686 68.9265C222.691 69.3026 222.411 69.6075 222.055 69.6177C221.085 69.6329 218.646 69.1654 218.646 69.0027C218.64 68.8401 221.044 68.2811 222.03 68.2659C222.386 68.2557 222.681 68.5505 222.686 68.9265Z" fill="#333333"/>
<path d="M191.025 68.6251C191.035 68.2388 191.34 67.9339 191.706 67.9441C192.707 67.9695 195.187 68.5692 195.187 68.7369C195.182 68.9046 192.681 69.367 191.67 69.3416C191.299 69.3264 191.015 69.0062 191.025 68.6251Z" fill="#333333"/>
<path d="M207.002 53.3135C207.383 53.3085 207.704 53.5829 207.709 53.9285C207.729 54.8788 207.246 57.2571 207.079 57.2622C206.911 57.2673 206.342 54.9194 206.321 53.9539C206.316 53.6083 206.621 53.3186 207.002 53.3135Z" fill="#333333"/>
<path d="M206.693 84.2486C206.296 84.2385 205.986 83.9387 205.996 83.5829C206.022 82.6072 206.637 80.178 206.809 80.1831C206.982 80.1882 207.455 82.6275 207.424 83.6185C207.419 83.9742 207.089 84.2588 206.693 84.2486Z" fill="#333333"/>
<path d="M208.11 68.9607C208.11 69.535 207.642 70.0025 207.068 70.0025C206.494 70.0025 206.026 69.535 206.026 68.9607C206.026 68.3865 206.494 67.9189 207.068 67.9189C207.642 67.9189 208.11 68.3865 208.11 68.9607Z" fill="#333333"/>
<path d="M207.069 69.6576C206.855 69.6576 206.642 69.556 206.505 69.368L201.992 63.1172C201.768 62.8072 201.839 62.3702 202.149 62.1466C202.459 61.923 202.896 61.9941 203.12 62.3041L207.633 68.5549C207.856 68.8649 207.785 69.3019 207.475 69.5255C207.353 69.617 207.211 69.6576 207.069 69.6576Z" fill="#333333"/>
<path d="M207.069 69.3116C206.927 69.3116 206.79 69.2201 206.739 69.0778C206.678 68.8948 206.775 68.6966 206.952 68.6357L220.496 63.9451C220.679 63.8841 220.877 63.9806 220.938 64.1585C220.999 64.3414 220.902 64.5396 220.724 64.6006L207.181 69.2912C207.146 69.3065 207.11 69.3116 207.069 69.3116Z" fill="#333333"/>
<path d="M474.52 173.802H366.728V321.147H474.52V173.802Z" fill="#CDA06B"/>
<path d="M366.721 173.802H258.929V321.147H366.721V173.802Z" fill="#E2B886"/>
<path d="M258.929 321.147H366.726V260.805L324.663 212.247L258.929 321.147Z" fill="#BF8C59"/>
<path d="M323.967 298.639H301.693V321.152H323.967V298.639Z" fill="#BF966D"/>
<path d="M323.967 173.781H301.693V196.294H323.967V173.781Z" fill="#BF966D"/>
<path d="M431.759 173.781H409.485V196.294H431.759V173.781Z" fill="#AD8865"/>
<path d="M431.759 298.639H409.485V321.152H431.759V298.639Z" fill="#AD8865"/>
<path d="M405.284 311.497H373.369V314.506H405.284V311.497Z" fill="#362F2B"/>
<path d="M399.739 282.759H396.73V308.173H399.739V282.759Z" fill="#362F2B"/>
<path d="M405.278 289.989H391.186L398.234 279.119L405.278 289.989Z" fill="#362F2B"/>
<path d="M381.917 282.759H378.908V308.173H381.917V282.759Z" fill="#362F2B"/>
<path d="M387.461 289.99H373.369L380.413 279.12L387.461 289.99Z" fill="#362F2B"/>
<path d="M223.381 189.102H126.779V321.15H223.381V189.102Z" fill="#CDA06B"/>
<path d="M126.779 189.104H30.1768V321.152H126.779V189.104Z" fill="#E8C69B"/>
<path d="M88.4618 300.971H68.5V321.146H88.4618V300.971Z" fill="#BF966D"/>
<path d="M88.4618 189.082H68.5V209.257H88.4618V189.082Z" fill="#CCA170"/>
<path d="M185.064 189.082H165.103V209.257H185.064V189.082Z" fill="#AD8865"/>
<path d="M185.064 300.971H165.103V321.146H185.064V300.971Z" fill="#AD8865"/>
<path d="M161.331 312.498H132.729V315.197H161.331V312.498Z" fill="#362F2B"/>
<path d="M156.365 286.743H153.667V309.515H156.365V286.743Z" fill="#362F2B"/>
<path d="M161.331 293.228H148.702L155.019 283.48L161.331 293.228Z" fill="#362F2B"/>
<path d="M140.399 286.743H137.7V309.515H140.399V286.743Z" fill="#362F2B"/>
<path d="M145.363 293.228H132.729L139.046 283.48L145.363 293.228Z" fill="#362F2B"/>
<path d="M293.903 164.262H226.862V254.242H293.903V164.262Z" fill="#7A594A"/>
<path d="M293.904 254.247H297.269V164.267H293.904V254.247Z" fill="#5E3B2B"/>
<path d="M287.971 170.199H232.797V248.313H287.971V170.199Z" fill="#F7F5EA"/>
<path d="M279.068 180.082H242.682V238.422H279.068V180.082Z" fill="#ADABA5"/>
<path d="M243.276 180.082H242.682V238.422H243.276V180.082Z" fill="#91908B"/>
<path d="M232.796 248.312H234.574V170.197H232.796V248.312Z" fill="#5E3B2B"/>
<path d="M380.691 121.304C370.329 121.304 362.178 119.531 356.461 116.039C349.534 111.806 346.022 105.052 346.022 95.9707V88.7036C346.022 87.8651 346.703 87.1841 347.542 87.1841C348.38 87.1841 349.061 87.8651 349.061 88.7036V95.9707C349.061 104.036 351.999 109.753 358.041 113.447C363.276 116.644 370.893 118.27 380.686 118.27C381.525 118.27 382.206 118.951 382.206 119.79C382.211 120.623 381.53 121.304 380.691 121.304Z" fill="#FBBB26"/>
<path d="M380.691 121.304C379.853 121.304 379.172 120.623 379.172 119.784C379.172 118.946 379.853 118.265 380.691 118.265C390.484 118.265 398.102 116.644 403.336 113.442C409.379 109.748 412.316 104.03 412.316 95.9654V88.6982C412.316 87.8597 412.997 87.1787 413.836 87.1787C414.674 87.1787 415.355 87.8597 415.355 88.6982V95.9654C415.355 105.052 411.844 111.806 404.917 116.034C399.2 119.535 391.048 121.304 380.691 121.304Z" fill="#FBBB26"/>
<path d="M413.836 90.2231H380.691C379.853 90.2231 379.172 89.5421 379.172 88.7036C379.172 87.8651 379.853 87.1841 380.691 87.1841H413.836C414.674 87.1841 415.355 87.8651 415.355 88.7036C415.355 89.5421 414.674 90.2231 413.836 90.2231Z" fill="#FBD65D"/>
<path d="M380.691 90.2231H347.547C346.708 90.2231 346.027 89.5421 346.027 88.7036C346.027 87.8651 346.708 87.1841 347.547 87.1841H380.691C381.53 87.1841 382.211 87.8651 382.211 88.7036C382.211 89.5421 381.53 90.2231 380.691 90.2231Z" fill="#FBD65D"/>
<path d="M384.238 149.875C381.87 149.875 379.501 149.875 377.138 149.875C374.298 143.71 374.298 137.45 377.138 131.285C379.507 131.285 381.875 131.285 384.238 131.285C387.079 137.45 387.079 143.705 384.238 149.875Z" fill="#FBD65D"/>
<path d="M384.239 131.28C383.309 131.28 382.374 131.28 381.444 131.28C383.426 137.445 383.426 143.706 381.444 149.87C382.374 149.87 383.309 149.87 384.239 149.87C387.08 143.706 387.08 137.45 384.239 131.28Z" fill="#FBBB26"/>
<path d="M380.691 134.903C382.292 134.903 383.903 134.802 385.488 134.593C385.163 133.486 384.746 132.383 384.238 131.285C381.87 131.285 379.502 131.285 377.139 131.285C376.631 132.388 376.219 133.491 375.889 134.593C377.479 134.802 379.085 134.903 380.691 134.903Z" fill="#FB9E1C"/>
<path d="M405.12 82.4072C405.12 113.021 403.474 119.836 398.087 125.741C393.65 130.604 387.115 132.484 380.691 132.484C374.268 132.484 367.733 130.604 363.296 125.741C357.909 119.83 356.263 113.016 356.263 82.4072H405.12Z" fill="#FBBB26"/>
<path d="M363.296 125.745C363.367 125.821 363.438 125.898 363.509 125.969C366.071 126.929 368.861 127.346 371.625 127.346C376.992 127.346 382.45 125.776 386.154 121.71C390.652 116.775 392.029 111.084 392.029 85.5166H356.268C356.379 113.493 358.097 120.038 363.296 125.745Z" fill="#FBD65D"/>
<path d="M362.422 94.5375C361.446 94.5375 360.653 93.7548 360.638 92.7791C360.628 91.9152 360.618 91.0309 360.608 90.1213C360.597 89.1354 361.39 88.3324 362.376 88.3223C362.381 88.3223 362.386 88.3223 362.391 88.3223C363.367 88.3223 364.165 89.11 364.175 90.0908C364.185 90.9954 364.19 91.8796 364.206 92.7334C364.221 93.7193 363.433 94.5273 362.447 94.5375C362.442 94.5375 362.432 94.5375 362.422 94.5375Z" fill="#FFEFA3"/>
<path d="M365.018 122.864C365.018 122.864 364.978 122.773 364.896 122.605C364.856 122.519 364.81 122.417 364.749 122.295C364.693 122.173 364.622 122.036 364.556 121.863C364.419 121.523 364.231 121.106 364.068 120.633C363.885 120.161 363.717 119.622 363.529 119.033C363.362 118.443 363.179 117.798 363.021 117.117C362.98 116.944 362.94 116.771 362.894 116.598C362.858 116.42 362.818 116.248 362.782 116.065C362.706 115.704 362.625 115.338 362.559 114.967C362.487 114.591 362.421 114.215 362.35 113.829C362.289 113.442 362.228 113.056 362.162 112.66C362.096 112.269 362.045 111.872 361.989 111.476C361.934 111.079 361.873 110.678 361.827 110.282C361.73 109.484 361.629 108.686 361.552 107.898C361.466 107.11 361.395 106.338 361.324 105.591C361.253 104.844 361.197 104.122 361.141 103.436C361.085 102.75 361.034 102.105 360.993 101.505C360.902 100.311 360.841 99.3147 360.8 98.6134C360.754 97.9172 360.729 97.5157 360.729 97.5157C360.668 96.5298 361.415 95.6862 362.396 95.6202C363.382 95.5592 364.225 96.3062 364.291 97.287C364.297 97.3277 364.297 97.3683 364.297 97.4141V97.4293C364.297 97.4293 364.291 97.8257 364.286 98.5169C364.281 99.208 364.271 100.199 364.271 101.383C364.271 101.978 364.271 102.618 364.276 103.294C364.281 103.97 364.286 104.686 364.302 105.423C364.317 106.16 364.332 106.922 364.363 107.7C364.383 108.472 364.424 109.26 364.464 110.043C364.48 110.434 364.51 110.825 364.535 111.212C364.561 111.598 364.581 111.989 364.617 112.37C364.652 112.751 364.683 113.132 364.713 113.509C364.754 113.879 364.795 114.25 364.835 114.611C364.871 114.977 364.927 115.328 364.972 115.673C364.998 115.846 365.018 116.019 365.044 116.187C365.069 116.354 365.1 116.522 365.125 116.685C365.227 117.34 365.359 117.95 365.471 118.519C365.608 119.078 365.725 119.592 365.862 120.034C365.984 120.491 366.116 120.852 366.218 121.167C366.263 121.319 366.324 121.467 366.375 121.594C366.426 121.721 366.467 121.828 366.497 121.914C366.563 122.087 366.599 122.178 366.599 122.178C366.771 122.62 366.548 123.123 366.106 123.291C365.684 123.464 365.206 123.266 365.018 122.864Z" fill="#FFEFA3"/>
<path d="M405.105 86.6501C405.11 85.3491 405.115 83.9973 405.115 82.5947H356.258C356.258 83.9973 356.263 85.344 356.268 86.6501H405.105Z" fill="#FB9E1C"/>
<path d="M405.121 84.4348H356.263C355.145 84.4348 354.235 83.5251 354.235 82.4071C354.235 81.2891 355.145 80.3794 356.263 80.3794H405.121C406.239 80.3794 407.148 81.2891 407.148 82.4071C407.143 83.5251 406.239 84.4348 405.121 84.4348Z" fill="#FBBB26"/>
<path d="M393.615 82.4071C393.615 81.2891 392.705 80.3794 391.587 80.3794H356.263C355.145 80.3794 354.235 81.2891 354.235 82.4071C354.235 83.5251 355.145 84.4348 356.263 84.4348H391.587C392.705 84.4348 393.615 83.5251 393.615 82.4071Z" fill="#FBD65D"/>
<path d="M397.7 151.735C397.7 150.088 396.369 148.757 394.722 148.757H366.66C365.013 148.757 363.682 150.088 363.682 151.735C368.565 151.735 388.065 151.735 397.7 151.735Z" fill="#FBD65D"/>
<path d="M394.723 148.757H391.44C393.087 148.757 394.418 150.088 394.418 151.735C395.603 151.735 396.705 151.735 397.701 151.735C397.701 150.093 396.365 148.757 394.723 148.757Z" fill="#FBBB26"/>
<path d="M361.532 82.4073C361.532 81.3757 362.371 80.5371 363.402 80.5371H359.144C358.112 80.5371 357.273 81.3757 357.273 82.4073C358.691 82.4073 360.196 82.4073 361.532 82.4073Z" fill="#FFEFA3"/>
<path d="M370.125 151.396C370.125 150.05 371.218 148.957 372.565 148.957H369.165C367.818 148.957 366.726 150.05 366.726 151.396C368.575 151.396 368.382 151.396 370.125 151.396Z" fill="#FFEFA3"/>
<path d="M405.263 151.734H356.11C354.692 151.734 353.544 152.883 353.544 154.301V171.112C353.544 172.53 354.692 173.678 356.11 173.678H405.263C406.68 173.678 407.829 172.53 407.829 171.112V154.301C407.829 152.883 406.68 151.734 405.263 151.734Z" fill="#5E3B2B"/>
<path d="M395.176 156.237H366.204C365.37 156.237 364.694 156.913 364.694 157.747V167.656C364.694 168.49 365.37 169.166 366.204 169.166H395.176C396.009 169.166 396.685 168.49 396.685 167.656V157.747C396.69 156.918 396.009 156.237 395.176 156.237Z" fill="#FBD65D"/>
<path d="M365.908 168.272C365.572 168.272 365.298 167.997 365.298 167.662V157.752C365.298 157.254 365.704 156.848 366.202 156.848H395.174C395.51 156.848 395.784 157.122 395.784 157.457C395.784 157.793 395.51 158.067 395.174 158.067H366.512V167.662C366.517 167.997 366.243 168.272 365.908 168.272Z" fill="#FFEFA3"/>
<path d="M395.175 168.566H366.203C365.867 168.566 365.593 168.291 365.593 167.956C365.593 167.62 365.867 167.346 366.203 167.346H394.865V157.751C394.865 157.416 395.139 157.142 395.474 157.142C395.81 157.142 396.084 157.416 396.084 157.751V167.661C396.079 168.159 395.673 168.566 395.175 168.566Z" fill="#FBBB26"/>
<path d="M233.702 164.153C232.594 164.244 232.517 164.32 232.426 165.428C232.334 164.32 232.258 164.244 231.15 164.153C232.258 164.061 232.334 163.985 232.426 162.877C232.517 163.985 232.594 164.061 233.702 164.153Z" fill="#F0E8D8"/>
<path d="M232.426 165.428C233.13 165.428 233.702 164.857 233.702 164.153C233.702 163.448 233.13 162.877 232.426 162.877C231.721 162.877 231.15 163.448 231.15 164.153C231.15 164.857 231.721 165.428 232.426 165.428Z" fill="#F0E8D8"/>
<path d="M237.924 171.811C236.517 171.928 236.425 172.02 236.308 173.427C236.192 172.02 236.1 171.928 234.692 171.811C236.1 171.694 236.192 171.603 236.308 170.195C236.425 171.603 236.517 171.694 237.924 171.811Z" fill="#F0E8D8"/>
<path d="M237.452 172.955C236.375 172.04 236.242 172.04 235.165 172.955C236.08 171.877 236.08 171.745 235.165 170.668C236.242 171.583 236.375 171.583 237.452 170.668C236.537 171.745 236.537 171.877 237.452 172.955Z" fill="#F0E8D8"/>
<path d="M238.494 178.461C237.381 178.553 237.305 178.629 237.213 179.742C237.122 178.629 237.046 178.553 235.933 178.461C237.046 178.37 237.122 178.294 237.213 177.181C237.305 178.294 237.381 178.365 238.494 178.461Z" fill="#F0E8D8"/>
<path d="M237.213 179.742C237.921 179.742 238.494 179.169 238.494 178.461C238.494 177.754 237.921 177.181 237.213 177.181C236.506 177.181 235.933 177.754 235.933 178.461C235.933 179.169 236.506 179.742 237.213 179.742Z" fill="#F0E8D8"/>
<path d="M239.313 185.618C237.814 185.74 237.712 185.842 237.59 187.341C237.468 185.842 237.366 185.74 235.867 185.618C237.366 185.496 237.468 185.395 237.59 183.896C237.712 185.395 237.814 185.491 239.313 185.618Z" fill="#F0E8D8"/>
<path d="M238.81 186.832C237.662 185.861 237.519 185.861 236.376 186.832C237.347 185.683 237.347 185.541 236.376 184.397C237.524 185.368 237.667 185.368 238.81 184.397C237.834 185.546 237.834 185.688 238.81 186.832Z" fill="#F0E8D8"/>
<path d="M238.83 192.307C237.422 192.423 237.331 192.515 237.214 193.923C237.097 192.515 237.005 192.423 235.598 192.307C237.005 192.19 237.097 192.098 237.214 190.69C237.331 192.093 237.422 192.19 238.83 192.307Z" fill="#F0E8D8"/>
<path d="M237.214 193.923C238.106 193.923 238.83 193.199 238.83 192.307C238.83 191.414 238.106 190.69 237.214 190.69C236.321 190.69 235.598 191.414 235.598 192.307C235.598 193.199 236.321 193.923 237.214 193.923Z" fill="#F0E8D8"/>
<path d="M237.591 199.105C236.478 199.196 236.401 199.273 236.31 200.385C236.218 199.273 236.142 199.196 235.029 199.105C236.142 199.013 236.218 198.937 236.31 197.824C236.401 198.942 236.478 199.013 237.591 199.105Z" fill="#F0E8D8"/>
<path d="M237.213 200.008C236.36 199.287 236.258 199.287 235.404 200.008C236.126 199.155 236.126 199.053 235.404 198.199C236.258 198.921 236.36 198.921 237.213 198.199C236.492 199.053 236.492 199.16 237.213 200.008Z" fill="#F0E8D8"/>
<path d="M204.266 196.494C203.108 196.59 203.026 196.666 202.935 197.825C202.838 196.666 202.762 196.585 201.604 196.494C202.762 196.397 202.844 196.321 202.935 195.162C203.032 196.321 203.108 196.397 204.266 196.494Z" fill="#F0EADF"/>
<path d="M202.935 197.825C203.67 197.825 204.266 197.229 204.266 196.494C204.266 195.758 203.67 195.162 202.935 195.162C202.2 195.162 201.604 195.758 201.604 196.494C201.604 197.229 202.2 197.825 202.935 197.825Z" fill="#F0EADF"/>
<path d="M203.383 189.608C202.057 189.719 201.965 189.806 201.859 191.132C201.747 189.806 201.66 189.714 200.334 189.608C201.66 189.496 201.752 189.409 201.859 188.083C201.965 189.409 202.057 189.501 203.383 189.608Z" fill="#F0EADF"/>
<path d="M201.859 191.132C202.701 191.132 203.383 190.45 203.383 189.608C203.383 188.766 202.701 188.083 201.859 188.083C201.017 188.083 200.334 188.766 200.334 189.608C200.334 190.45 201.017 191.132 201.859 191.132Z" fill="#F0EADF"/>
<path d="M203.58 182.335C202.081 182.457 201.98 182.559 201.858 184.058C201.736 182.559 201.634 182.457 200.135 182.335C201.634 182.213 201.736 182.111 201.858 180.612C201.98 182.111 202.081 182.208 203.58 182.335Z" fill="#F0EADF"/>
<path d="M201.858 184.058C202.809 184.058 203.58 183.287 203.58 182.335C203.58 181.384 202.809 180.612 201.858 180.612C200.906 180.612 200.135 181.384 200.135 182.335C200.135 183.287 200.906 184.058 201.858 184.058Z" fill="#F0EADF"/>
<path d="M204.43 169.919C205.137 169.919 205.711 169.345 205.711 168.638C205.711 167.931 205.137 167.357 204.43 167.357C203.723 167.357 203.149 167.931 203.149 168.638C203.149 169.345 203.723 169.919 204.43 169.919Z" fill="#F0EADF"/>
<path d="M205.336 169.543C204.482 168.821 204.38 168.821 203.526 169.543C204.248 168.689 204.248 168.587 203.526 167.733C204.38 168.455 204.482 168.455 205.336 167.733C204.614 168.587 204.614 168.694 205.336 169.543Z" fill="#F0EADF"/>
<path d="M203.917 175.267C202.804 175.358 202.728 175.435 202.636 176.548C202.545 175.435 202.468 175.358 201.355 175.267C202.468 175.176 202.545 175.099 202.636 173.986C202.728 175.099 202.804 175.176 203.917 175.267Z" fill="#F0EADF"/>
<path d="M203.541 176.171C202.687 175.45 202.585 175.45 201.731 176.171C202.453 175.318 202.453 175.216 201.731 174.362C202.585 175.084 202.687 175.084 203.541 174.362C202.819 175.216 202.819 175.318 203.541 176.171Z" fill="#F0EADF"/>
<path d="M207.963 164.319C208.58 164.319 209.081 163.819 209.081 163.201C209.081 162.584 208.58 162.083 207.963 162.083C207.345 162.083 206.845 162.584 206.845 163.201C206.845 163.819 207.345 164.319 207.963 164.319Z" fill="#F0EADF"/>
<path d="M208.755 163.994C208.008 163.364 207.917 163.364 207.17 163.994C207.8 163.247 207.8 163.155 207.17 162.408C207.917 163.038 208.008 163.038 208.755 162.408C208.125 163.155 208.125 163.247 208.755 163.994Z" fill="#F0EADF"/>
<path d="M204.415 206.006C208.557 206.006 214.218 206.006 219.727 206.006V158.475C192.61 158.475 204.415 206.006 204.415 206.006Z" fill="#6EA653"/>
<path d="M219.722 158.475V206.006C225.729 206.006 231.552 206.006 235.033 206.006C235.033 206.006 246.834 158.475 219.722 158.475Z" fill="#47802B"/>
<path d="M211.855 206.006C213.985 206.006 216.897 206.006 219.727 206.006V158.475C205.788 158.475 211.855 206.006 211.855 206.006Z" fill="#99C981"/>
<path d="M219.722 158.475V206.006C222.806 206.006 225.805 206.006 227.594 206.006C227.594 206.006 233.656 158.475 219.722 158.475Z" fill="#78BD55"/>
<path d="M212.363 206.007C214.355 206.007 217.074 206.007 219.722 206.007V158.476C206.686 158.476 212.363 206.007 212.363 206.007Z" fill="#47802B"/>
<path d="M219.722 158.475V206.006C222.608 206.006 225.408 206.006 227.08 206.006C227.085 206.006 232.757 158.475 219.722 158.475Z" fill="#6EA653"/>
<path d="M212.224 182.244C210.974 182.345 210.887 182.432 210.786 183.682C210.684 182.432 210.598 182.345 209.348 182.244C210.598 182.142 210.684 182.056 210.786 180.806C210.893 182.056 210.974 182.137 212.224 182.244Z" fill="#F0EADF"/>
<path d="M210.786 183.682C211.58 183.682 212.224 183.038 212.224 182.244C212.224 181.45 211.58 180.806 210.786 180.806C209.992 180.806 209.348 181.45 209.348 182.244C209.348 183.038 209.992 183.682 210.786 183.682Z" fill="#F0EADF"/>
<path d="M212.196 188.616C210.976 188.717 210.895 188.798 210.793 190.018C210.692 188.798 210.61 188.717 209.391 188.616C210.61 188.514 210.692 188.433 210.793 187.213C210.89 188.433 210.971 188.514 212.196 188.616Z" fill="#F0EADF"/>
<path d="M210.786 190.019C211.561 190.019 212.189 189.391 212.189 188.616C212.189 187.842 211.561 187.214 210.786 187.214C210.012 187.214 209.384 187.842 209.384 188.616C209.384 189.391 210.012 190.019 210.786 190.019Z" fill="#F0EADF"/>
<path d="M212.856 197.128C211.448 197.245 211.357 197.336 211.24 198.744C211.123 197.336 211.032 197.245 209.624 197.128C211.032 197.011 211.123 196.919 211.24 195.512C211.357 196.919 211.454 197.011 212.856 197.128Z" fill="#F0EADF"/>
<path d="M211.24 198.744C212.133 198.744 212.856 198.02 212.856 197.128C212.856 196.235 212.133 195.512 211.24 195.512C210.348 195.512 209.624 196.235 209.624 197.128C209.624 198.02 210.348 198.744 211.24 198.744Z" fill="#F0EADF"/>
<path d="M212.855 175.648C211.356 175.77 211.254 175.871 211.132 177.37C211.01 175.871 210.908 175.77 209.409 175.648C210.908 175.526 211.01 175.424 211.132 173.925C211.254 175.424 211.356 175.526 212.855 175.648Z" fill="#F0EADF"/>
<path d="M212.352 176.866C211.204 175.895 211.061 175.895 209.918 176.866C210.889 175.717 210.889 175.575 209.918 174.432C211.066 175.402 211.209 175.402 212.352 174.432C211.376 175.575 211.376 175.717 212.352 176.866Z" fill="#F0EADF"/>
<path d="M224.924 163.202C225.769 163.202 226.454 162.517 226.454 161.672C226.454 160.827 225.769 160.143 224.924 160.143C224.079 160.143 223.395 160.827 223.395 161.672C223.395 162.517 224.079 163.202 224.924 163.202Z" fill="#F0EADF"/>
<path d="M226.008 162.754C224.991 161.89 224.864 161.89 223.843 162.754C224.707 161.737 224.707 161.61 223.843 160.589C224.859 161.453 224.986 161.453 226.008 160.589C225.144 161.61 225.144 161.737 226.008 162.754Z" fill="#F0EADF"/>
<path d="M228.255 166.86C227.162 166.951 227.091 167.022 226.999 168.115C226.908 167.022 226.837 166.951 225.744 166.86C226.837 166.768 226.908 166.697 226.999 165.604C227.091 166.692 227.162 166.768 228.255 166.86Z" fill="#F0EADF"/>
<path d="M227.89 167.744C227.051 167.038 226.95 167.038 226.116 167.744C226.823 166.906 226.823 166.804 226.116 165.971C226.955 166.677 227.056 166.677 227.89 165.971C227.178 166.804 227.178 166.911 227.89 167.744Z" fill="#F0EADF"/>
<path d="M229.269 173.086C228.161 173.178 228.085 173.254 227.993 174.362C227.902 173.254 227.826 173.178 226.718 173.086C227.826 172.995 227.902 172.918 227.993 171.811C228.085 172.918 228.161 172.995 229.269 173.086Z" fill="#F0EADF"/>
<path d="M228.899 173.986C228.05 173.264 227.943 173.264 227.095 173.986C227.816 173.137 227.816 173.03 227.095 172.182C227.943 172.903 228.05 172.903 228.899 172.182C228.177 173.03 228.177 173.137 228.899 173.986Z" fill="#F0EADF"/>
<path d="M229.799 179.794C228.64 179.891 228.559 179.967 228.467 181.126C228.371 179.967 228.294 179.886 227.136 179.794C228.294 179.698 228.376 179.622 228.467 178.463C228.559 179.622 228.64 179.698 229.799 179.794Z" fill="#F0EADF"/>
<path d="M229.408 180.74C228.519 179.988 228.412 179.988 227.522 180.74C228.275 179.851 228.275 179.744 227.522 178.854C228.412 179.607 228.519 179.607 229.408 178.854C228.656 179.739 228.656 179.851 229.408 180.74Z" fill="#F0EADF"/>
<path d="M229.911 186.5C228.818 186.592 228.747 186.663 228.656 187.756C228.564 186.663 228.493 186.592 227.4 186.5C228.493 186.409 228.564 186.338 228.656 185.245C228.747 186.338 228.818 186.414 229.911 186.5Z" fill="#F0EADF"/>
<path d="M229.546 187.39C228.713 186.683 228.606 186.683 227.772 187.39C228.479 186.556 228.479 186.45 227.772 185.616C228.606 186.323 228.713 186.323 229.546 185.616C228.835 186.45 228.835 186.551 229.546 187.39Z" fill="#F0EADF"/>
<path d="M228.31 194.736C229.152 194.736 229.834 194.053 229.834 193.211C229.834 192.369 229.152 191.687 228.31 191.687C227.468 191.687 226.785 192.369 226.785 193.211C226.785 194.053 227.468 194.736 228.31 194.736Z" fill="#F0EADF"/>
<path d="M228.31 194.736C229.152 194.736 229.834 194.053 229.834 193.211C229.834 192.369 229.152 191.687 228.31 191.687C227.468 191.687 226.785 192.369 226.785 193.211C226.785 194.053 227.468 194.736 228.31 194.736Z" fill="#F0EADF"/>
<path d="M229.392 199.922C228.178 200.023 228.096 200.105 228 201.314C227.898 200.1 227.817 200.018 226.607 199.922C227.822 199.82 227.903 199.739 228 198.529C228.096 199.739 228.178 199.82 229.392 199.922Z" fill="#F0EADF"/>
<path d="M227.996 201.315C228.765 201.315 229.388 200.692 229.388 199.923C229.388 199.154 228.765 198.53 227.996 198.53C227.227 198.53 226.604 199.154 226.604 199.923C226.604 200.692 227.227 201.315 227.996 201.315Z" fill="#F0EADF"/>
<path d="M213.211 169.544C212.098 169.636 212.022 169.712 211.93 170.825C211.839 169.712 211.762 169.636 210.649 169.544C211.762 169.453 211.839 169.377 211.93 168.264C212.022 169.377 212.098 169.453 213.211 169.544Z" fill="#F0EADF"/>
<path d="M212.835 170.449C211.981 169.727 211.879 169.727 211.025 170.449C211.747 169.595 211.747 169.493 211.025 168.64C211.879 169.361 211.981 169.361 212.835 168.64C212.113 169.493 212.113 169.6 212.835 170.449Z" fill="#F0EADF"/>
<path d="M214.735 163.745C213.759 163.826 213.693 163.892 213.617 164.863C213.536 163.887 213.47 163.821 212.499 163.745C213.475 163.664 213.541 163.598 213.617 162.627C213.693 163.603 213.759 163.669 214.735 163.745Z" fill="#F0EADF"/>
<path d="M214.406 164.537C213.659 163.907 213.567 163.907 212.82 164.537C213.45 163.79 213.45 163.698 212.82 162.951C213.567 163.581 213.659 163.581 214.406 162.951C213.776 163.698 213.776 163.795 214.406 164.537Z" fill="#F0EADF"/>
<path d="M239.328 212.938H200.319L199.78 206.006H239.866L239.328 212.938Z" fill="#E6AB67"/>
<path d="M234.5 239.688H205.152L201.915 212.937H237.737L234.5 239.688Z" fill="#D49D5F"/>
<path d="M226.044 212.938L224.921 239.689H234.5L237.738 212.938H226.598H226.044Z" fill="#C28A4C"/>
<path d="M227.009 206.006L226.598 212.938H237.737H239.328L239.867 206.006H227.009Z" fill="#D49D5F"/>
<path d="M237.514 214.776H202.134L201.915 212.937H237.737L237.514 214.776Z" fill="#B07B3D"/>
<path d="M324.67 213.141H232.57V321.147H324.67V213.141Z" fill="#CCA170"/>
<path d="M140.469 321.146H232.568V213.141H140.469V321.146Z" fill="#E8C69B"/>
<path d="M177.459 321.148H195.581V302.833H177.459V321.148Z" fill="#CCA170"/>
<path d="M140.469 255.981H214.299L232.568 215.56V213.141H140.469V255.981Z" fill="#BF8C59"/>
<path d="M324.665 255.981H250.835L232.57 215.56V213.141H324.665V255.981Z" fill="#BF8C59"/>
<path d="M116.519 249.394H207.719L206.825 248.5H115.625L116.519 249.394Z" fill="#E8C69B"/>
<path d="M115.625 248.5H206.825L231.676 212.246H140.47L115.625 248.5Z" fill="#F7DDBC"/>
<path d="M206.824 248.5L207.719 249.395L232.569 213.141L231.675 212.246L206.824 248.5Z" fill="#CCA170"/>
<path d="M348.62 249.394H257.415L258.309 248.5H349.515L348.62 249.394Z" fill="#AD8865"/>
<path d="M349.515 248.5H258.309L233.464 212.246H324.664L349.515 248.5Z" fill="#E8C69B"/>
<path d="M258.31 248.5L257.416 249.395L232.57 213.141L233.465 212.246L258.31 248.5Z" fill="#F2D5B0"/>
<path d="M269.556 321.149H287.678V302.834H269.556V321.149Z" fill="#AD8865"/>
<path d="M133.984 141.23H131.474V180.204H133.984V141.23Z" fill="#4D4D4D"/>
<path d="M132.546 180.728C132.256 180.728 132.022 180.494 132.022 180.205V146.242C132.022 145.953 132.256 145.719 132.546 145.719C132.836 145.719 133.069 145.953 133.069 146.242V180.205C133.064 180.494 132.83 180.728 132.546 180.728Z" fill="#666666"/>
<path d="M113.876 97.2524L103.133 141.323C103.133 141.323 103.677 143.874 132.633 143.874C161.59 143.874 162.134 141.323 162.134 141.323L151.391 97.2524H113.876Z" fill="#FFE6CC"/>
<path d="M151.395 97.2524H141.729C141.729 97.2524 146.903 142.293 146.425 143.625C161.788 142.985 162.144 141.323 162.144 141.323L151.395 97.2524Z" fill="#FFDAB3"/>
<path d="M117.611 188.6C117.692 189.072 120.335 190.556 132.72 190.556C145.104 190.556 147.762 189.057 147.828 188.6C148.052 187.085 143.107 185.108 132.72 185.108C122.332 185.108 117.433 187.583 117.611 188.6Z" fill="#EA4840"/>
<path d="M161.788 163.424C164.1 168.496 160.365 174.32 156.726 177.786C150.247 183.965 141.175 186.735 132.729 186.735C124.319 186.735 115.161 183.991 108.733 177.786C105.053 174.234 101.394 168.471 103.671 163.424C107.696 154.495 124.385 153.606 132.729 153.621C141.003 153.642 157.661 154.368 161.788 163.424Z" fill="#FF7063"/>
<path d="M143.672 154.767C146.172 156.388 148.688 159.584 149.44 162.527C150.736 167.619 147.067 172.375 143.047 175.176C136.278 179.892 127.547 180.817 119.904 179.399C114.68 178.433 109.562 176.283 105.156 172.97C110.894 181.97 122.587 185.909 132.487 185.898C140.872 185.888 149.852 183.205 156.275 177.188C159.878 173.814 163.558 168.218 161.291 163.213C158.572 157.201 149.486 155.3 143.672 154.767Z" fill="#EA4840"/>
<path d="M151.396 97.2521C151.396 98.1414 142.995 98.863 132.638 98.863C122.276 98.863 113.881 98.1414 113.881 97.2521C113.881 96.3627 122.281 95.6411 132.638 95.6411C142.995 95.6411 151.396 96.3627 151.396 97.2521Z" fill="#FFF2E6"/>
<path d="M132.638 98.3041C142.382 98.3041 150.282 97.8331 150.282 97.2522C150.282 96.6712 142.382 96.2002 132.638 96.2002C122.893 96.2002 114.993 96.6712 114.993 97.2522C114.993 97.8331 122.893 98.3041 132.638 98.3041Z" fill="#FFDAB3"/>
<path d="M263.936 313.295H237.973V315.744H263.936V313.295Z" fill="#473F39"/>
<path d="M259.428 289.913H256.979V310.591H259.428V289.913Z" fill="#473F39"/>
<path d="M263.94 295.799H252.47L258.202 286.951L263.94 295.799Z" fill="#473F39"/>
<path d="M244.928 289.912H242.479V310.59H244.928V289.912Z" fill="#473F39"/>
<path d="M249.442 295.8H237.972L243.704 286.952L249.442 295.8Z" fill="#473F39"/>
<path d="M364.872 302.492C372.386 286.669 365.651 267.751 349.829 260.236C334.006 252.722 315.088 259.457 307.573 275.279C300.059 291.102 306.794 310.02 322.616 317.535C338.439 325.05 357.357 318.315 364.872 302.492Z" fill="#1F1709"/>
<path d="M313.598 285.751C316.49 286.544 319.483 287.321 322.547 288.074C322.741 288.119 322.929 287.997 322.969 287.809C323.096 287.184 323.233 286.559 323.376 285.929C325.403 277.01 328.707 268.935 332.681 263.187C334.48 260.591 336.325 258.599 338.154 257.257C338.342 257.12 338.256 256.825 338.022 256.81C336.807 256.744 335.572 256.744 334.327 256.815C327.629 257.211 321.536 259.635 316.597 263.447C316.058 263.863 315.621 264.397 315.336 265.012C314.777 266.211 314.31 267.919 314.218 270.424C313.791 281.736 313.74 283.124 313.354 285.355C313.319 285.533 313.43 285.705 313.598 285.751Z" fill="#FFB332"/>
<path d="M353.168 273.89C340.61 280.491 337.688 286.701 336.646 290.868C336.753 291.036 336.809 291.122 336.916 291.295C348.188 293.597 358.763 295.198 367.341 295.899C367.499 295.915 367.641 295.808 367.677 295.65C368.271 292.876 368.505 289.974 368.327 287.001C367.916 280.09 365.349 273.813 361.319 268.798C361.223 268.676 361.04 268.676 360.938 268.798C359.683 270.378 356.751 272.004 353.168 273.89Z" fill="#FFB332"/>
<path d="M311.598 286.454C309.26 285.798 306.994 285.132 304.814 284.462C304.6 284.396 304.377 284.538 304.351 284.761C304.097 286.733 304.021 288.756 304.143 290.814C304.366 294.61 305.246 298.208 306.653 301.516C306.75 301.745 307.085 301.725 307.151 301.481C307.583 299.916 308.351 297.883 309.459 294.961C310.19 293.03 311.09 290.656 311.847 286.855C311.883 286.677 311.771 286.499 311.598 286.454Z" fill="#FFB332"/>
<path d="M333.674 263.874C329.786 269.494 326.544 277.422 324.552 286.194C324.405 286.834 324.267 287.474 324.14 288.114C324.105 288.297 324.217 288.475 324.4 288.521C326.31 288.978 328.247 289.426 330.203 289.863C331.834 290.229 333.456 290.574 335.061 290.915C335.239 290.95 335.412 290.843 335.463 290.671C337.14 284.872 339.61 279.648 352.604 272.818C355.094 271.512 359.094 269.408 360.131 267.858C360.232 267.706 360.217 267.497 360.09 267.36C355.267 262.029 348.701 258.34 341.358 257.161C340.997 257.105 340.626 257.161 340.306 257.333C338.141 258.492 335.864 260.713 333.674 263.874Z" fill="#FFB332"/>
<path d="M313.011 270.383C313.062 268.971 313.23 267.792 313.463 266.795C313.514 266.582 313.245 266.44 313.092 266.597C308.879 270.968 305.906 276.517 304.697 282.656C304.646 282.926 304.804 283.19 305.063 283.271C307.218 283.937 309.454 284.592 311.761 285.243C311.959 285.299 312.162 285.172 312.198 284.968C312.538 282.9 312.599 281.264 313.011 270.383Z" fill="#FFB332"/>
<path d="M322.357 289.268C319.303 288.521 316.32 287.749 313.433 286.956C313.24 286.905 313.042 287.027 313.006 287.22C312.239 291.037 311.329 293.43 310.592 295.382C309.002 299.579 308.168 301.79 307.985 303.355C307.929 303.858 308.036 304.361 308.29 304.804C311.832 311.019 317.377 315.908 323.998 318.637C324.247 318.738 324.486 318.474 324.359 318.24C323.267 316.228 322.448 313.611 321.945 310.45C321 304.519 321.244 297.252 322.616 289.659C322.647 289.487 322.535 289.314 322.357 289.268Z" fill="#FFB332"/>
<path d="M338.64 304.534C340.246 307.776 342.817 310.337 345.307 312.812C346.715 314.215 349.266 317.086 349.886 317.793C349.967 317.889 350.105 317.915 350.216 317.859C358.546 313.829 364.812 306.333 367.256 297.348C367.286 297.226 367.205 297.109 367.078 297.099C358.485 296.388 347.929 294.782 336.683 292.49C336.49 292.449 336.297 292.581 336.272 292.779C335.616 297.577 337.156 301.546 338.64 304.534Z" fill="#FFB332"/>
<path d="M337.549 305.074C335.974 301.893 334.343 297.664 335.09 292.491C335.115 292.308 334.998 292.14 334.82 292.1C333.204 291.759 331.573 291.409 329.937 291.043C328.006 290.611 326.09 290.169 324.199 289.716C324.006 289.671 323.813 289.798 323.777 289.991C322.446 297.405 322.207 304.49 323.132 310.263C323.767 314.232 324.936 317.321 326.491 319.283C326.674 319.517 326.928 319.684 327.213 319.771C330.663 320.777 334.338 321.219 338.129 320.996C341.742 320.782 345.177 319.979 348.354 318.683C348.623 318.572 348.704 318.236 348.521 318.007C347.266 316.473 345.838 315.05 344.446 313.667C341.889 311.126 339.242 308.494 337.549 305.074Z" fill="#FFB332"/>
<path d="M367.671 295.656C368.266 292.882 368.5 289.98 368.322 287.007C367.91 280.095 365.344 273.824 361.314 268.803C361.217 268.681 361.029 268.681 360.933 268.803C360.287 269.611 359.195 270.44 357.802 271.304C359.378 278.459 358.072 286.849 353.579 294.264C358.534 295.006 363.169 295.56 367.331 295.9C367.493 295.915 367.636 295.809 367.671 295.656Z" fill="#FFA216"/>
<path d="M360.129 267.863C360.231 267.711 360.215 267.502 360.088 267.365C358.106 265.175 355.83 263.259 353.324 261.684C353.898 262.451 354.452 263.264 354.976 264.128C356.074 265.937 356.912 267.934 357.491 270.059C358.686 269.296 359.682 268.529 360.129 267.863Z" fill="#FFA216"/>
<path d="M323.992 318.641C324.241 318.743 324.485 318.479 324.353 318.245C323.377 316.441 322.615 314.149 322.107 311.42C317.467 311.003 313.178 309.423 309.59 306.907C313.127 312.121 318.138 316.227 323.992 318.641Z" fill="#FFA216"/>
<path d="M349.884 317.793C349.966 317.89 350.103 317.915 350.215 317.859C358.544 313.829 364.81 306.333 367.254 297.349C367.285 297.227 367.204 297.105 367.076 297.094C362.782 296.739 357.99 296.159 352.873 295.382C350.154 299.513 346.408 303.299 341.591 306.338C341.138 306.623 340.681 306.897 340.224 307.157C341.702 309.23 343.527 311.044 345.306 312.813C346.713 314.215 349.259 317.087 349.884 317.793Z" fill="#FFA216"/>
<path d="M327.22 319.77C330.67 320.776 334.345 321.218 338.136 320.995C341.749 320.781 345.184 319.978 348.36 318.683C348.63 318.571 348.711 318.235 348.528 318.007C347.273 316.472 345.845 315.049 344.452 313.667C342.603 311.827 340.707 309.937 339.157 307.741C333.821 310.562 328.409 311.715 323.357 311.497C324.023 314.871 325.106 317.524 326.493 319.282C326.681 319.521 326.935 319.689 327.22 319.77Z" fill="#FFA216"/>
<path d="M63.3975 321.141L126.779 321.147V315.236L87.6738 270.073L63.3975 321.141Z" fill="#BF8C59"/>
<path d="M88.8429 321.148H48.4315C48.2129 321.148 48.2129 307.742 48.4315 307.742H88.8429C90.6165 307.742 91.2415 311.35 91.2415 314.445C91.2466 317.54 90.6165 321.148 88.8429 321.148Z" fill="#3C424D"/>
<path d="M53.6351 321.148H13.2237C13.0052 321.148 12.8223 320.97 12.8223 320.747C12.8223 320.523 13.0001 320.345 13.2237 320.345H53.6351C54.5194 320.345 55.236 317.698 55.236 314.445C55.236 311.193 54.5194 308.545 53.6351 308.545H13.2237C13.0052 308.545 12.8223 308.367 12.8223 308.144C12.8223 307.92 13.0001 307.742 13.2237 307.742H53.6351C55.4087 307.742 56.0338 311.35 56.0338 314.445C56.0338 317.54 55.4087 321.148 53.6351 321.148Z" fill="#556275"/>
<path d="M53.6351 308.545H13.6201V320.35H53.6301C54.5143 320.35 55.2309 317.708 55.2309 314.45C55.2359 311.188 54.5194 308.545 53.6351 308.545Z" fill="#FFF9ED"/>
<path d="M86.6479 282.138H48.6504C48.4421 282.138 48.4421 269.535 48.6504 269.535H86.6479C88.3148 269.535 88.9043 272.93 88.9043 275.837C88.9043 278.744 88.3148 282.138 86.6479 282.138Z" fill="#D14949"/>
<path d="M53.5386 282.138H15.5411C15.3327 282.138 15.165 281.971 15.165 281.762C15.165 281.554 15.3327 281.386 15.5411 281.386H53.5386C54.367 281.386 55.0428 278.896 55.0428 275.837C55.0428 272.777 54.367 270.287 53.5386 270.287H15.5411C15.3327 270.287 15.165 270.12 15.165 269.911C15.165 269.703 15.3327 269.535 15.5411 269.535H53.5386C55.2055 269.535 55.795 272.93 55.795 275.837C55.795 278.744 55.2055 282.138 53.5386 282.138Z" fill="#FC6A65"/>
<path d="M53.5394 270.287H15.918V281.386H53.5394C54.3728 281.386 55.0436 278.901 55.0436 275.837C55.0436 272.772 54.3728 270.287 53.5394 270.287Z" fill="#FFF9ED"/>
<path d="M88.294 295.342H48.4823C48.2637 295.342 48.2637 282.139 48.4823 282.139H88.294C90.0371 282.139 90.6571 285.696 90.6571 288.74C90.6622 291.784 90.0422 295.342 88.294 295.342Z" fill="#FFB833"/>
<path d="M53.6093 295.342H13.8026C13.5841 295.342 13.4062 295.164 13.4062 294.945C13.4062 294.727 13.5841 294.549 13.8026 294.549H53.6144C54.4834 294.549 55.1898 291.942 55.1898 288.735C55.1898 285.529 54.4834 282.922 53.6144 282.922H13.8026C13.5841 282.922 13.4062 282.744 13.4062 282.525C13.4062 282.307 13.5841 282.129 13.8026 282.129H53.6144C55.3575 282.129 55.9775 285.686 55.9775 288.73C55.9724 291.785 55.3575 295.342 53.6093 295.342Z" fill="#FFDE66"/>
<path d="M53.6097 282.928H14.1943V294.555H53.6097C54.4787 294.555 55.1851 291.953 55.1851 288.741C55.1851 285.53 54.4787 282.928 53.6097 282.928Z" fill="#FFF9ED"/>
<path d="M86.0981 307.745H48.7003C48.497 307.745 48.497 295.34 48.7003 295.34H86.0981C87.7396 295.34 88.3189 298.679 88.3189 301.54C88.3189 304.401 87.7396 307.745 86.0981 307.745Z" fill="#666666"/>
<path d="M53.5129 307.747H16.1151C15.9118 307.747 15.7441 307.579 15.7441 307.376C15.7441 307.173 15.9118 307.005 16.1151 307.005H53.5129C54.3311 307.005 54.9918 304.555 54.9918 301.542C54.9918 298.528 54.3261 296.079 53.5129 296.079H16.1151C15.9118 296.079 15.7441 295.911 15.7441 295.708C15.7441 295.505 15.9118 295.337 16.1151 295.337H53.5129C55.1544 295.337 55.7337 298.676 55.7337 301.537C55.7337 304.398 55.1544 307.747 53.5129 307.747Z" fill="#A7A9AC"/>
<path d="M53.5132 296.082H16.4863V307.003H53.5132C54.3314 307.003 54.992 304.559 54.992 301.54C54.9971 298.526 54.3314 296.082 53.5132 296.082Z" fill="#FFF9ED"/>
<path d="M523.178 251.519H472.242V321.146H523.178V251.519Z" fill="#CCA170"/>
<path d="M472.238 251.519H421.302V321.146H472.238V251.519Z" fill="#E8C69B"/>
<path d="M452.032 310.51H441.508V321.146H452.032V310.51Z" fill="#BF966D"/>
<path d="M452.032 251.509H441.508V262.145H452.032V251.509Z" fill="#CCA170"/>
<path d="M502.973 251.509H492.448V262.145H502.973V251.509Z" fill="#AD8865"/>
<path d="M502.973 310.511H492.448V321.147H502.973V310.511Z" fill="#AD8865"/>
<path d="M490.461 316.588H475.378V318.011H490.461V316.588Z" fill="#362F2B"/>
<path d="M487.844 303.004H486.421V315.012H487.844V303.004Z" fill="#362F2B"/>
<path d="M490.461 306.424H483.799L487.133 301.286L490.461 306.424Z" fill="#362F2B"/>
<path d="M479.424 303.004H478.001V315.012H479.424V303.004Z" fill="#362F2B"/>
<path d="M482.04 306.424H475.378L478.712 301.286L482.04 306.424Z" fill="#362F2B"/>
</svg>
