<svg width="1597" height="1623" viewBox="0 0 1597 1623" fill="none" xmlns="http://www.w3.org/2000/svg">
<path d="M9.22848 57.8735C4.3855 27.5023 27.8497 0 58.6047 0H1280.74C1305.32 0 1326.25 17.8583 1330.12 42.1265L1566.86 1526.78C1571.7 1557.15 1548.24 1584.65 1517.48 1584.65H295.347C270.772 1584.65 249.84 1566.79 245.97 1542.53L9.22848 57.8735Z" fill="url(#paint0_linear_287_2000)"/>
<path d="M1582.16 1334.48H696.268C692.648 1334.48 689.721 1331.08 689.721 1326.9C689.721 1322.71 692.654 1319.32 696.268 1319.32H1582.16C1585.78 1319.32 1588.71 1322.71 1588.71 1326.9C1588.71 1331.08 1585.78 1334.48 1582.16 1334.48Z" fill="#75298C"/>
<path d="M1484.85 1050.89H1345.06V899.94H1425.96C1458.49 899.94 1484.86 926.309 1484.86 958.839V1050.89H1484.85Z" fill="#75298C"/>
<path d="M1322.42 1263.7H1552.9L1556.16 1098.25C1556.22 1095.38 1555.75 1092.52 1554.8 1089.8L1507.24 954.731C1503.55 944.256 1493.08 937.177 1481.27 937.177H1322.42V1263.7Z" fill="#8207AC"/>
<path d="M1556.16 1263.7H1541.79C1536.72 1263.7 1532.6 1259.58 1532.6 1254.51V1216.8C1532.6 1211.73 1536.72 1207.62 1541.79 1207.62H1556.16V1263.7Z" fill="#17282F"/>
<path d="M1573.45 1031.34H1580.75V1005.78C1580.75 984.789 1563.67 967.706 1542.68 967.706H1480.61V975.011H1542.68C1559.64 975.011 1573.45 988.817 1573.45 1005.78V1031.34H1573.45Z" fill="#17282F"/>
<path d="M1582.31 1084.01H1570.31C1562.54 1084.01 1556.24 1077.71 1556.24 1069.93V1029.25C1556.24 1021.47 1562.54 1015.17 1570.31 1015.17H1582.31C1590.09 1015.17 1596.39 1021.47 1596.39 1029.25V1069.93C1596.4 1077.71 1590.09 1084.01 1582.31 1084.01Z" fill="#17282F"/>
<path d="M1589.84 1069.93V1029.25C1589.84 1025.1 1586.47 1021.73 1582.31 1021.73H1570.31C1566.16 1021.73 1562.79 1025.1 1562.79 1029.25V1069.93C1562.79 1074.08 1566.16 1077.45 1570.31 1077.45H1582.31C1586.47 1077.45 1589.84 1074.08 1589.84 1069.93Z" fill="#FFFBF0"/>
<path d="M1505.15 1090.27H1385.1C1377.66 1090.27 1371.62 1084.23 1371.62 1076.79V978.062C1371.62 970.617 1377.66 964.582 1385.1 964.582H1474.88C1480.8 964.582 1486.04 968.451 1487.77 974.107L1518.04 1072.83C1520.69 1081.5 1514.21 1090.27 1505.15 1090.27Z" fill="#17282F"/>
<path d="M1501.48 1018.82L1518.04 1072.84C1520.7 1081.51 1514.22 1090.27 1505.15 1090.27H1385.1C1377.66 1090.27 1371.62 1084.23 1371.62 1076.79V1018.82H1501.48Z" fill="#E7E8E5"/>
<path d="M1520.68 1260.8C1520.71 1297.77 1490.74 1327.74 1453.78 1327.71C1417.43 1327.69 1386.99 1297.24 1386.97 1260.9C1386.94 1223.94 1416.91 1193.98 1453.87 1194C1490.21 1194.02 1520.66 1224.46 1520.68 1260.8Z" fill="#17282F"/>
<path d="M850.065 1325.64C814.71 1325.64 786.048 1296.17 786.048 1259.82C786.048 1223.47 814.71 1194 850.065 1194C885.421 1194 914.082 1223.47 914.082 1259.82C914.082 1296.17 885.421 1325.64 850.065 1325.64Z" fill="#17282F"/>
<path d="M1326.22 1172.05H664.321C653.912 1172.05 645.477 1163.62 645.477 1153.21V764.981C645.477 754.572 653.912 746.137 664.321 746.137H1326.22C1336.63 746.137 1345.06 754.572 1345.06 764.981V1153.21C1345.06 1163.62 1336.62 1172.05 1326.22 1172.05Z" fill="#17282F"/>
<path d="M664.319 1154.67C663.514 1154.67 662.856 1154.01 662.856 1153.2V764.974C662.856 764.17 663.514 763.512 664.319 763.512H994.898V1154.66H664.319V1154.67Z" fill="#E7E8E5"/>
<path d="M664.319 867.237C663.514 867.237 662.856 867.064 662.856 866.852V763.784C662.856 763.571 663.514 763.398 664.319 763.398H994.898V867.244H664.319V867.237Z" fill="#FFFBF0"/>
<path d="M1326.22 746.137H1012.28V1172.05H1326.22C1336.63 1172.05 1345.06 1163.62 1345.06 1153.21V764.981C1345.06 754.572 1336.62 746.137 1326.22 746.137Z" fill="#A7A4BC"/>
<path d="M838.063 1154.67H697.234V1037.33H838.063V1154.67Z" fill="#BD46E1"/>
<path d="M994.896 1154.67H817.203V1014.37H994.896V1154.67Z" fill="#75298C"/>
<path d="M994.892 1014.37H843.281V880.84H994.892V1014.37Z" fill="#BD46E1"/>
<path d="M1320.25 1263.7H690.982V1172.05H1320.25C1329.92 1172.05 1337.76 1179.89 1337.76 1189.56V1246.18C1337.76 1255.85 1329.92 1263.7 1320.25 1263.7Z" fill="#17282F"/>
<path d="M1002.89 1252.73H697.234V1184.41H1002.89V1252.73Z" fill="#E7E8E5"/>
<path d="M992.826 1237.43H904.508V1210.31H992.826V1237.43Z" fill="#BD46E1"/>
<path d="M992.82 1237.43H939.531V1210.31H992.82V1237.43Z" fill="#8207AC"/>
<path d="M805.279 1237.43H716.961V1210.31H805.279V1237.43Z" fill="#8207AC"/>
<path d="M756.945 1237.43H716.957V1210.31H756.945V1237.43Z" fill="#BD46E1"/>
<path d="M1123.3 1259.82C1123.3 1296.17 1114.36 1325.64 1061.91 1325.64C1026.55 1325.64 995.267 1296.17 995.267 1259.82C995.267 1223.47 1023.93 1194 1059.28 1194C1094.64 1194 1123.3 1223.47 1123.3 1259.82Z" fill="#17282F"/>
<path d="M1143.06 1258.01C1143.06 1296.51 1112.55 1325.65 1077.19 1325.65C1041.84 1325.65 1015.04 1296.51 1015.04 1258.01C1015.04 1219.52 1043.7 1188.31 1079.05 1188.31C1114.4 1188.31 1143.06 1219.52 1143.06 1258.01Z" fill="#17282F"/>
<path d="M1464.84 1327.71C1429.49 1327.71 1400.83 1297.22 1400.83 1259.59C1400.83 1221.97 1429.49 1191.48 1464.84 1191.48C1500.2 1191.48 1528.86 1221.97 1528.86 1259.59C1528.86 1297.22 1500.2 1327.71 1464.84 1327.71Z" fill="#17282F"/>
<path d="M1496.32 1258.01C1496.32 1276.94 1482.23 1292.28 1464.84 1292.28C1447.46 1292.28 1433.36 1276.94 1433.36 1258.01C1433.36 1239.08 1447.45 1223.74 1464.84 1223.74C1482.23 1223.74 1496.32 1239.09 1496.32 1258.01Z" fill="#E7E8E5"/>
<path d="M1110.52 1258.01C1110.52 1276.94 1096.43 1292.28 1079.04 1292.28C1061.66 1292.28 1047.56 1276.94 1047.56 1258.01C1047.56 1239.08 1061.66 1223.74 1079.04 1223.74C1096.43 1223.74 1110.52 1239.09 1110.52 1258.01Z" fill="#E7E8E5"/>
<path d="M803.036 840.291H862.5C862.5 848.739 855.647 855.592 847.199 855.592H818.331C809.889 855.592 803.036 848.739 803.036 840.291Z" fill="#A7A4BC"/>
<path d="M677.656 1584.79H446.374V1327.36H677.656V1584.79Z" fill="#DF6CFF"/>
<path d="M499.938 1584.79H677.656V1504.13L594.847 1504.47C594.847 1504.47 601.751 1419.6 609.04 1327.36H581.642V1383H576.747H573.067L570.967 1378.71L568.024 1383L564.032 1374.18L560.243 1383H549.414H544.476L542.691 1377.11L541.007 1383H537.797V1327.36H570.585L446.374 1327.36L499.938 1327.36V1584.79Z" fill="#BD46E1"/>
<path d="M798.324 1584.79H677.655V1327.36H798.324V1584.79Z" fill="#DF6CFF"/>
<path d="M677.655 1584.79H798.324V1501.21H783.975C783.975 1501.21 790.808 1422.38 798.324 1333.68V1327.36H772.585C770.458 1419.78 768.18 1503.75 768.18 1503.75L677.655 1504.12V1584.77V1584.79Z" fill="#75298C"/>
<path d="M581.121 1383.67H572.862L570.838 1379.34L568.003 1383.67L564.159 1374.74L560.509 1383.67H550.078H545.321L543.602 1377.72L541.979 1383.67H538.887V1327.36H581.121V1383.67Z" fill="white"/>
<path d="M790.281 1566.69C781.301 1548.44 772.392 1530.14 763.576 1511.78L737.263 1456.59L711.284 1401.17C702.664 1382.66 694.143 1364.09 685.701 1345.46C694.682 1363.7 703.591 1382 712.406 1400.37L738.72 1455.55L764.694 1510.98C773.314 1529.49 781.835 1548.05 790.281 1566.69Z" fill="#DF6CFF"/>
<path d="M790.281 1345.46C781.835 1364.09 773.314 1382.66 764.694 1401.17L738.72 1456.59L712.406 1511.78C703.591 1530.14 694.682 1548.44 685.701 1566.69C694.143 1548.05 702.664 1529.48 711.284 1510.98L737.263 1455.55L763.576 1400.37C772.392 1382 781.301 1363.71 790.281 1345.46Z" fill="#DF6CFF"/>
<path d="M571.064 1327.36H337.771V1069.93H571.064V1327.36Z" fill="#DF6CFF"/>
<path d="M337.771 1327.36H571.064L571.06 1069.94H571.064V1069.93H337.771V1327.36Z" fill="#BD46E1"/>
<path d="M689.723 1327.36H571.065V1069.93H689.723V1327.36Z" fill="#DF6CFF"/>
<path d="M571.063 1327.36H609.898C618.171 1223.63 626.937 1110.57 626.821 1098.47C626.764 1092.27 626.968 1082.48 627.375 1069.93H571.063V1327.35V1327.36Z" fill="#75298C"/>
<path d="M474.529 1126.25H465.876L463.756 1121.91L460.785 1126.25L456.753 1117.32L452.938 1126.25H442.009H437.021L435.219 1120.29L433.52 1126.25H430.284V1069.93H474.529V1126.25Z" fill="white"/>
<path d="M681.68 1309.26C672.872 1291.02 664.134 1272.72 655.492 1254.35L629.681 1199.17L604.206 1143.74C595.752 1125.24 587.394 1106.66 579.111 1088.03C587.923 1106.28 596.657 1124.57 605.303 1142.94L631.11 1198.13L656.585 1253.56C665.039 1272.06 673.396 1290.63 681.68 1309.26Z" fill="#DF6CFF"/>
<path d="M681.68 1088.03C673.396 1106.66 665.039 1125.23 656.585 1143.74L631.11 1199.17L605.303 1254.35C596.657 1272.72 587.923 1291.02 579.111 1309.26C587.394 1290.63 595.752 1272.06 604.206 1253.56L629.681 1198.13L655.492 1142.94C664.134 1124.57 672.872 1106.28 681.68 1088.03Z" fill="#DF6CFF"/>
<path d="M380.006 1584.79H148.723V1327.36H380.006V1584.79Z" fill="#DF6CFF"/>
<path d="M148.723 1584.79H380.006V1327.36H148.723V1584.79Z" fill="#BD46E1"/>
<path d="M500.674 1584.79H380.005V1327.36H500.674V1584.79Z" fill="#DF6CFF"/>
<path d="M380.005 1584.79H500.674V1327.36H380.005V1584.77V1584.79Z" fill="#75298C"/>
<path d="M283.471 1383.67H274.822L272.697 1379.34L269.731 1383.67L265.695 1374.74L261.879 1383.67H250.951H245.967L244.161 1377.72L242.465 1383.67H239.225V1327.36H283.471V1383.67Z" fill="white"/>
<path d="M492.629 1566.69C483.649 1548.44 474.74 1530.14 465.925 1511.78L439.613 1456.59L413.635 1401.17C405.016 1382.66 396.494 1364.09 388.049 1345.46C397.033 1363.7 405.942 1382 414.757 1400.37L441.07 1455.55L467.043 1510.98C475.662 1529.49 484.183 1548.05 492.629 1566.69Z" fill="#DF6CFF"/>
<path d="M492.629 1345.46C484.183 1364.09 475.662 1382.66 467.043 1401.17L441.07 1456.59L414.757 1511.78C405.942 1530.14 397.033 1548.44 388.049 1566.69C396.494 1548.05 405.016 1529.48 413.635 1510.98L439.613 1455.55L465.925 1400.37C474.74 1382 483.649 1363.71 492.629 1345.46Z" fill="#DF6CFF"/>
<path d="M714.505 557.089C714.5 557.061 714.226 555.149 713.857 551.568L717.258 551.055C717.436 552.813 717.596 554.152 717.705 555.05C717.815 555.948 717.879 556.389 717.879 556.389L714.505 557.089Z" fill="#BEBFBD"/>
<path d="M799.679 870.828C799.901 872.038 800.118 873.243 800.336 874.46L796.971 874.851C796.754 873.638 796.536 872.432 796.314 871.23L799.679 870.828Z" fill="#BEBFBD"/>
<path d="M722.923 512.828C734.094 512.828 743.146 503.628 743.146 492.273C743.146 480.914 734.094 471.713 722.923 471.713C711.721 471.713 702.669 480.914 702.669 492.273C702.669 503.628 711.721 512.828 722.923 512.828ZM685.979 491.985C687.82 473.209 700.545 454.52 722.923 454.52C745.27 454.52 757.999 473.209 759.836 491.985C762.664 520.963 743.429 547.215 722.923 571.167C702.382 547.215 683.146 520.963 685.979 491.985Z" fill="#DF6CFF"/>
<path d="M798.345 847.685C809.818 847.685 819.114 838.648 819.114 827.485C819.114 816.322 809.818 807.284 798.345 807.284C786.836 807.284 777.54 816.322 777.54 827.485C777.54 838.648 786.836 847.685 798.345 847.685ZM760.4 827.202C762.29 808.753 775.363 790.383 798.345 790.383C821.29 790.383 834.363 808.753 836.254 827.202C839.159 855.68 819.404 881.479 798.345 905.019C777.254 881.479 757.499 855.68 760.4 827.202Z" fill="#DF6CFF"/>
<path d="M1058.02 1620C1049.6 1622.71 809.473 1619.6 800.412 1613.67C796.932 1611.48 795.349 1576.47 794.645 1534.11C794.645 1533.67 794.641 1533.22 794.636 1532.78C794.474 1524.05 794.359 1515.07 794.342 1505.96C794.342 1504.7 794.337 1503.45 794.302 1502.2L805.95 1377.64L966.586 1379.25L950.728 1502.63L950.544 1507.52L949.576 1533.06L949.483 1535.69C949.483 1535.69 1040.86 1577.98 1050.15 1585.56C1059.35 1593.1 1066.45 1617.31 1058.02 1620Z" fill="#FFA698"/>
<path d="M1058.02 1620C1049.6 1622.71 809.473 1619.6 800.412 1613.68C796.932 1611.49 795.349 1576.52 794.645 1534.2C794.645 1533.76 794.641 1533.32 794.636 1532.88C794.474 1524.16 794.359 1515.18 794.342 1506.08C794.342 1504.83 794.337 1503.58 794.302 1502.33L950.728 1502.76L950.544 1507.64L949.576 1533.16L949.483 1535.78C949.483 1535.78 1040.86 1578.03 1050.15 1585.6C1059.35 1593.13 1066.45 1617.32 1058.02 1620Z" fill="#E7E8E5"/>
<path d="M1058.03 1620C1053.69 1621.4 988.37 1621.25 924.529 1619.96C911.692 1619.7 898.933 1619.41 886.76 1619.08C841.227 1617.83 803.608 1615.95 800.111 1613.66C796.654 1611.49 795.073 1577.33 794.372 1535.63C794.372 1535.04 794.337 1534.45 794.337 1533.86C794.337 1533.42 794.337 1532.94 794.302 1532.5H794.487L949.425 1532.79L949.355 1535.45C949.355 1535.45 1040.85 1577.85 1050.12 1585.44C1059.35 1593.03 1066.45 1617.3 1058.03 1620Z" fill="#DF6CFF"/>
<path d="M966.447 1529.76C950.707 1526.69 931.367 1528.81 919.167 1539.6C918.687 1540.02 919.306 1540.67 919.82 1540.52C935.456 1535.94 950.04 1533.05 966.364 1531.7C967.511 1531.6 967.581 1529.98 966.447 1529.76Z" fill="#17282F"/>
<path d="M978.517 1535.79C962.773 1532.72 943.433 1534.84 931.228 1545.64C930.757 1546.06 931.376 1546.7 931.89 1546.55C947.526 1541.97 962.106 1539.08 978.43 1537.73C979.577 1537.63 979.646 1536.01 978.517 1535.79Z" fill="#17282F"/>
<path d="M990.552 1543.83C974.148 1540.77 954.007 1542.88 941.293 1553.68C940.798 1554.1 941.439 1554.75 941.979 1554.6C958.266 1550.01 973.453 1547.13 990.457 1545.77C991.656 1545.68 991.724 1544.05 990.552 1543.83Z" fill="#17282F"/>
<path d="M925.027 1618.98C912.141 1618.72 899.333 1618.43 887.114 1618.11C841.407 1616.87 803.644 1615.01 800.134 1612.75C796.663 1610.6 795.076 1576.83 794.373 1535.59C794.373 1535.01 794.338 1534.43 794.338 1533.85C794.338 1533.41 794.338 1532.93 794.302 1532.5H794.488C815.788 1547.25 890.876 1596.57 925.027 1618.98Z" fill="#17282F"/>
<path d="M957.482 1502.33H784.23C784.23 1502.33 819.118 1098.89 817.752 1091.84C816.025 1082.82 805.792 1041.98 792.18 988.631C787.91 971.935 783.309 954.031 778.528 935.472C765.607 885.279 751.369 830.424 738.964 782.691C720.349 711.18 705.811 655.635 705.811 655.635H852.641C852.641 655.635 869.752 709.712 891.319 780.085C926.458 894.448 973.422 1051.85 978.053 1090.12C985.558 1151.9 957.482 1502.33 957.482 1502.33Z" fill="#17282F"/>
<path d="M952.811 1499.84C926.174 1499.17 933.826 1498.91 907.185 1498.6C894.153 1498.44 808.49 1497.54 796.314 1499.99V1500.65C808.494 1503.1 894.153 1502.19 907.185 1502.04C933.826 1501.73 926.174 1501.47 952.811 1500.79C953.308 1500.78 953.308 1499.86 952.811 1499.84Z" fill="#273E47"/>
<path d="M848.412 1067.18C842.734 1042.18 834.256 1017.68 826.879 993.138C811.878 943.275 796.758 893.448 781.607 843.633C774.036 818.726 766.447 793.815 758.784 768.938C754.91 756.375 751.046 743.807 747.115 731.265C743.259 718.992 738.879 706.82 735.402 694.437C733.989 689.4 733.214 692.167 735.023 698.563C738.677 711.461 742.282 724.377 746.041 737.244C753.498 762.727 761.011 788.188 768.547 813.65C783.548 864.318 798.752 914.928 813.942 965.543C821.562 990.912 829.23 1016.28 836.849 1041.65C840.494 1053.77 844.064 1065.97 846.207 1078.47C848.443 1091.5 848.558 1104.68 847.734 1117.85C846.075 1144.31 843.007 1170.73 840.564 1197.13C838.117 1223.58 835.665 1250.03 833.213 1276.49C828.34 1329.14 823.455 1381.78 818.714 1434.44C818.115 1441.11 817.534 1447.79 817.015 1454.47C816.843 1456.71 820.228 1456.54 820.461 1454.39C826.162 1402.33 830.533 1350.1 835.423 1297.96C840.291 1246.08 845.159 1194.2 850.01 1142.32C851.229 1129.29 852.612 1116.24 852.625 1103.15C852.634 1091 851.102 1079.02 848.412 1067.18Z" fill="#273E47"/>
<path d="M834.527 655.635C824.448 733.987 805.235 880.901 791.22 987.476C758.472 858.339 705.814 655.635 705.814 655.635H834.527Z" fill="#273E47"/>
<path d="M875.042 1621.83C866.646 1624.59 626.916 1622.34 617.852 1616.43C614.365 1614.24 612.652 1579.12 611.801 1536.63C611.796 1536.18 611.792 1535.74 611.787 1535.3C611.59 1526.54 611.445 1517.52 611.397 1508.38C611.388 1507.12 611.383 1505.86 611.335 1504.61C610.777 1443.28 615.182 1379.65 615.182 1379.65L771.88 1380.68L767.506 1504.48L767.339 1509.38L766.465 1535.01L766.382 1537.65C766.382 1537.65 857.762 1579.74 867.054 1587.31C876.267 1594.84 883.447 1619.11 875.042 1621.83Z" fill="#FFA698"/>
<path d="M875.041 1621.83C866.644 1624.59 626.87 1622.34 617.804 1616.42C614.317 1614.23 612.604 1579.07 611.752 1536.53C611.747 1536.08 611.743 1535.64 611.739 1535.19C611.541 1526.43 611.396 1517.39 611.348 1508.25C611.339 1506.99 611.335 1505.73 611.286 1504.47L767.486 1504.34L767.319 1509.25L766.445 1534.91L766.361 1537.55C766.361 1537.55 857.758 1579.69 867.052 1587.26C876.267 1594.81 883.448 1619.1 875.041 1621.83Z" fill="#E7E8E5"/>
<path d="M875.035 1621.82C866.623 1624.6 626.443 1622.34 617.362 1616.39C613.869 1614.19 612.153 1578.87 611.3 1536.14C611.295 1535.69 611.291 1535.24 611.286 1534.8L766.254 1534.51L766.171 1537.16C766.171 1537.16 857.723 1579.5 867.032 1587.1C876.263 1594.68 883.456 1619.09 875.035 1621.82Z" fill="#DF6CFF"/>
<path d="M783.433 1531.71C767.66 1528.73 748.32 1530.89 736.146 1541.63C735.675 1542.04 736.294 1542.68 736.809 1542.53C752.437 1537.94 767.019 1535.03 783.35 1533.63C784.502 1533.54 784.558 1531.93 783.433 1531.71Z" fill="#17282F"/>
<path d="M795.463 1537.95C779.037 1534.47 758.89 1536.99 746.208 1549.52C745.717 1550 746.367 1550.75 746.898 1550.57C763.179 1545.21 778.369 1541.82 795.381 1540.19C796.576 1540.07 796.64 1538.19 795.463 1537.95Z" fill="#17282F"/>
<path d="M805.556 1545.79C789.787 1542.81 770.442 1544.97 758.272 1555.71C757.801 1556.12 758.416 1556.76 758.93 1556.61C774.559 1552.02 789.142 1549.11 805.473 1547.71C806.625 1547.61 806.686 1546 805.556 1545.79Z" fill="#17282F"/>
<path d="M848.605 655.635C848.605 655.635 845.226 725.74 829.167 781.27C827.882 785.857 826.488 790.374 824.979 794.706C824.979 794.706 808.264 800.766 782.728 816.413C782.728 816.413 781.038 872.823 779.349 935.733C777.47 1006.06 775.525 1084.5 775.93 1101.14C777.399 1163.38 768.147 1505.65 768.147 1505.65L595.2 1506.35C595.2 1506.35 626.47 1124.12 626.25 1101.32C625.915 1064.67 634.627 902.68 641.35 784.538C645.463 711.75 648.842 655.635 648.842 655.635H848.605Z" fill="#17282F"/>
<path d="M763.767 1500.86C737.472 1500.6 745.025 1500.45 718.725 1500.36C705.856 1500.32 621.289 1500.09 609.278 1501.32L609.282 1501.65C621.311 1502.81 705.869 1502.16 718.739 1502.05C745.034 1501.83 737.48 1501.72 763.767 1501.32C764.262 1501.31 764.258 1500.86 763.767 1500.86Z" fill="#273E47"/>
<path d="M662.337 680.38C659.059 776.92 655.591 873.469 651.145 969.965C646.694 1066.8 640.69 1163.58 632.354 1260.18C627.699 1314.14 623.312 1390.05 617.322 1443.89L617.901 1444.01C630.86 1348.25 638.082 1229.84 644.452 1133.46C650.823 1037.11 655.143 940.59 658.52 844.093C660.436 789.511 661.894 734.91 663.578 680.318C663.596 679.544 662.364 679.61 662.337 680.38Z" fill="#273E47"/>
<path d="M830.876 790.473C813.337 797.076 796.542 806.096 780.522 815.482C779.89 815.847 780.365 816.778 781.046 816.464C798.039 808.633 815.389 801.095 831.907 792.394C833.206 791.709 832.22 789.967 830.876 790.473Z" fill="#273E47"/>
<path d="M839.722 706.237C838.218 714.4 836.255 722.483 834.512 730.597C832.871 738.211 831.664 745.981 829.674 753.506C827.741 760.807 824.659 767.497 819.109 772.708C816.15 775.486 812.886 777.938 809.733 780.483C808.039 781.85 806.199 783.171 804.43 784.56C804.66 783.484 804.846 782.385 805.041 781.269C805.58 778.179 806.097 775.08 806.611 771.98C807.756 765.103 808.844 758.217 809.888 751.327C811.94 737.782 813.828 724.09 816.628 710.68C816.738 710.131 815.929 709.925 815.792 710.47C812.448 723.76 808.76 736.902 805.85 750.308C804.417 756.882 799.327 789.334 799.101 791.634C798.867 794.005 798.672 796.381 798.588 798.761C798.504 801.115 798.044 803.745 798.579 806.049C798.717 806.643 799.429 806.549 799.676 806.147L799.707 806.174C800.879 804.107 801.171 801.405 801.755 799.118C802.343 796.801 802.86 794.452 803.276 792.094C803.422 791.25 803.537 790.379 803.656 789.508C806.823 787.566 809.768 784.998 812.731 782.832C815.92 780.505 819.17 778.228 822.187 775.665C827.967 770.752 831.575 764.733 833.725 757.454C835.963 749.902 836.648 741.931 837.515 734.129C838.532 724.908 839.284 715.637 840.553 706.451C840.633 705.906 839.823 705.678 839.722 706.237Z" fill="#273E47"/>
<path d="M783.579 449.309C791.391 479.691 822.405 549.084 874.473 606.32C894.602 628.403 1053.95 651.783 1070.77 646.95C1082.54 643.568 1117.06 541.522 1105.82 532.95C1093.05 523.2 1033.06 526.243 986.496 529.281C956.275 531.252 931.711 533.223 929.377 531.702C920.337 525.745 861.197 477.566 824.308 433.581C797.397 401.527 770.655 398.754 783.579 449.309Z" fill="#FFA698"/>
<path d="M816.644 540.999L912.961 512.534C912.961 512.534 836.256 432.639 807.111 415.547C774.308 396.317 771.707 417.403 780.606 452.592C789.514 487.785 816.644 540.999 816.644 540.999Z" fill="#DF6CFF"/>
<path d="M894.691 498.765C891.191 499.239 860.902 507.8 854.364 509.811C847.818 511.816 820.995 519.754 814.413 522.406L814.528 522.898C821.45 521.57 848.525 513.642 855.231 511.735C861.941 509.833 891.721 500.68 894.859 499.212L894.691 498.765Z" fill="#17282F"/>
<path d="M854.637 530.012L817.103 540.999C817.103 540.999 789.671 487.78 780.656 452.609C774.079 426.878 773.714 408.653 786.929 408.263L854.637 530.012Z" fill="#17282F"/>
<path d="M633.41 723.984L882.793 722.809C882.811 727.705 828.698 443.576 802.639 409.535C797.058 402.253 758.952 393.052 741.75 409.09C666.365 479.378 633.423 727.163 633.41 723.984Z" fill="#DF6CFF"/>
<path d="M818.035 538.988L830.504 529L826.021 488.709L794.303 490.934L796.223 533.145L818.035 538.988Z" fill="#BD46E1"/>
<path d="M785.778 444.217C774.02 447.072 756.612 424.604 748.139 407.711C747.568 406.549 749.699 394.616 751.602 379.994C752.726 371.118 753.767 361.202 754.072 352.089C754.125 350.221 810.391 367.89 810.391 367.89C810.391 367.89 804.174 386.805 803.743 402.699C803.721 404.027 803.813 405.269 804.013 406.453L804.07 407.075C804.984 414.215 798.359 441.16 785.778 444.217Z" fill="#FFA698"/>
<path d="M804.027 407.451L804.062 408.088C802.28 408.276 800.355 408.312 798.243 408.2C764.853 406.29 757.435 362.921 756.09 351.951C766.125 353.786 810.391 368.016 810.391 368.016C810.391 368.016 804.175 387.377 803.735 403.635C803.735 404.98 803.809 406.254 804.027 407.451Z" fill="#17282F"/>
<path d="M742.943 283.52C738.159 304.2 752.634 362.03 767.775 374.118C789.723 391.643 823.719 391.169 837.973 364.973C851.796 339.58 831.613 264.554 814.881 253.771C790.24 237.888 750.007 252.976 742.943 283.52Z" fill="#FFA698"/>
<path d="M800.579 313.74L800.301 314.186C801.712 318.326 802.486 323.26 798.325 325.581L798.445 325.807C803.824 324.016 802.725 317.471 800.579 313.74Z" fill="#17282F"/>
<path d="M796.359 311.771C789.351 312.779 792.228 324.677 798.72 323.743C805.121 322.825 802.239 310.923 796.359 311.771Z" fill="#17282F"/>
<path d="M822.459 309.717L822.813 310.02C823.468 314.226 824.848 318.913 828.48 319.524L828.492 319.762C824.248 320.065 822.475 313.816 822.459 309.717Z" fill="#17282F"/>
<path d="M824.766 305.859C830.161 304.17 832.862 316.064 827.867 317.624C822.948 319.167 820.247 307.273 824.766 305.859Z" fill="#17282F"/>
<path d="M790.161 307.395C791.678 306.489 792.951 305.338 794.374 304.246C795.979 303.019 797.358 302.244 798.173 300.025C798.611 298.828 798.047 297.037 797.155 296.404C795.075 294.92 792.805 295.82 790.826 297.203C788.677 298.702 787.332 300.539 786.431 303.381C785.556 306.137 788.167 308.592 790.161 307.395Z" fill="#17282F"/>
<path d="M827.739 297.637C825.957 297.7 824.3 297.513 822.532 297.425C820.531 297.323 818.925 297.411 817.264 296.375C816.373 295.819 816.176 294.483 816.752 293.722C818.099 291.954 820.582 291.577 822.997 291.619C825.613 291.661 827.614 292.243 829.607 293.627C831.539 294.97 830.089 297.555 827.739 297.637Z" fill="#17282F"/>
<path d="M802.763 352.237C804.119 353.115 805.565 354.411 807.311 354.2C808.984 353.999 810.756 352.851 812.144 351.951L812.402 352.152C811.548 354.226 809.2 355.898 806.931 355.972C804.715 356.035 803.275 354.401 802.347 352.549L802.763 352.237Z" fill="#17282F"/>
<path d="M804.358 339.796C807.495 342.752 811.409 343.949 815.336 343.905C817.089 343.896 818.876 343.611 820.581 343.129L821.548 342.835L822.453 342.524C822.932 342.362 823.116 341.932 823.102 341.485L823.097 341.454L822.969 341.059L822.96 341.033L822.879 340.691C822.292 337.648 820.946 333.11 820.946 333.11C822.268 333.434 828.92 334.806 828.47 333.241C824.708 320.328 820.52 305.959 813.83 293.839C813.631 293.431 812.944 293.668 813.076 294.089C816.166 306.638 821.614 318.596 824.931 331.154C822.837 330.847 819.383 330.185 817.682 330.544C817.246 330.755 820.449 339.27 820.591 340.656L820.596 340.805C815.251 342.506 810.769 341.761 804.681 339.367L804.358 339.796Z" fill="#17282F"/>
<path d="M818.438 341.776C818.438 341.776 816.421 345.237 812.886 346.952C811.586 347.585 810.108 347.996 808.429 347.92C804.989 347.774 804.291 345.398 804.364 343.254C804.41 341.493 805.012 339.884 805.012 339.884C805.012 339.884 810.696 342.657 818.438 341.776Z" fill="#17282F"/>
<path d="M812.402 347.095C811.176 347.635 809.781 347.986 808.197 347.921C804.952 347.797 804.294 345.769 804.362 343.94C807.733 343.692 811.46 344.822 812.402 347.095Z" fill="#F576B7"/>
<path d="M828.492 271.181C825.317 266.665 821.799 262.18 818.589 261.809C815.383 261.439 814.909 269.11 808.163 270.958C803.433 272.257 799.481 270.854 794.94 269.45C790.745 268.151 786.046 266.852 779.762 267.685C760.952 270.178 755.963 287.212 760.908 313.412C765.331 336.813 751.585 341.896 751.585 341.896C751.585 341.896 732.358 292.224 743.447 272.222C754.54 252.225 786.49 237.885 812.348 249.553C821.777 253.811 828.492 271.181 828.492 271.181Z" fill="#17282F"/>
<path d="M761.427 331.004C761.427 331.004 746.697 313.375 738.612 318.797C730.523 324.22 742.729 350.575 753.029 353.428C763.329 356.281 766.148 346.775 766.148 346.775L761.427 331.004Z" fill="#FFA698"/>
<path d="M742.043 325.806L742.013 326.079C749.126 328.335 753.299 334.574 756.411 341.157C754.145 338.721 751.238 337.535 748.045 340.347L748.263 340.708C751.025 339.831 753.102 340.153 755.197 342.307C756.68 343.832 757.779 345.828 758.903 347.643C759.279 348.247 760.361 347.811 760.062 347.101L759.993 346.943C759.403 337.897 751.525 325.868 742.043 325.806Z" fill="#17282F"/>
<path d="M824.469 260.323C818.768 260.068 788.568 266.898 776.077 275.453C763.582 284 743.173 308.415 742.123 309.692C741.073 310.974 725.109 261.969 763.911 244.889C806.19 226.281 824.469 260.323 824.469 260.323Z" fill="#DF6CFF"/>
<path d="M744.022 305.694C744.022 305.694 764.005 265.925 777.369 255.175C790.733 244.426 823.295 233.59 845.745 238.556C863.252 242.429 827.911 270.201 827.911 270.201C827.911 270.201 825.701 264.794 820.113 263.77C809.26 261.787 790.742 268.428 780.555 274.079C767.735 281.195 744.022 305.694 744.022 305.694Z" fill="#DF6CFF"/>
<path d="M744.022 305.694C744.022 305.694 767.735 281.196 780.556 274.08C783.835 272.259 787.982 270.335 792.457 268.63C800.163 265.699 808.841 263.416 815.771 263.416C815.876 263.416 815.986 263.416 816.087 263.416C817.516 263.429 818.866 263.544 820.115 263.771C825.703 264.795 827.913 270.202 827.913 270.202C827.913 270.202 850.631 252.349 850.613 243.275C850.609 241.03 849.215 239.325 845.748 238.558C841.882 237.701 837.722 237.315 833.414 237.315C812.663 237.315 788.433 246.274 777.37 255.177C764.005 265.926 744.022 305.694 744.022 305.694Z" fill="#75298C"/>
<path d="M820.449 790.383H623.356V571.167H820.449V790.383Z" fill="#DF6CFF"/>
<path d="M623.356 790.383H820.449V571.167H623.356V790.383Z" fill="#BD46E1"/>
<path d="M921.004 790.383H820.446V571.167H921.004V790.383Z" fill="#DF6CFF"/>
<path d="M820.446 790.383H921.004V571.167H820.446V790.374V790.383Z" fill="#75298C"/>
<path d="M737.992 619.435H730.913L729.177 615.721L726.749 619.435L723.451 611.786L720.327 619.435H711.388H707.309L705.836 614.332L704.441 619.435H701.791V571.167H737.992V619.435Z" fill="white"/>
<path d="M914.973 774.293C907.373 758.868 899.835 743.4 892.382 727.874L870.112 681.214L848.13 634.353C840.837 618.709 833.624 603.005 826.482 587.256C834.086 602.676 841.619 618.149 849.076 633.675L871.342 680.334L893.32 727.2C900.617 742.844 907.826 758.549 914.973 774.293Z" fill="#DF6CFF"/>
<path d="M914.973 587.256C907.826 603.005 900.617 618.705 893.32 634.353L871.342 681.214L849.076 727.874C841.619 743.4 834.086 758.872 826.482 774.293C833.624 758.544 840.837 742.844 848.13 727.196L870.112 680.334L892.382 633.679C899.835 618.154 907.373 602.681 914.973 587.256Z" fill="#DF6CFF"/>
<path d="M695.707 428.809C647.712 464.932 554.573 545.835 546.429 589.605C535.736 647.039 584.645 759.997 605.513 781.827C619.606 796.573 681.61 742.411 685.321 728.835C689.028 715.264 638.698 623.846 638.272 613.335C637.85 602.82 702.302 506.639 730.242 463.982C765.493 410.168 736.331 398.232 695.707 428.809Z" fill="#FFA698"/>
<path d="M710.376 735.81C705.987 730.843 708.622 728.561 720.362 730.791C732.238 733.021 776.598 751.553 781.912 735.87C787.28 720.144 724.059 694.922 704.229 692.671C684.398 690.372 651.509 693.547 651.509 693.547C662.795 700.869 688.425 721.171 710.376 735.81Z" fill="#FFA698"/>
<path d="M599.223 774.236C619.221 807.092 677.218 827.798 720.488 828.591C728.981 828.743 733.941 824.644 733.941 824.644C753.329 825.336 759.489 816.532 759.489 816.532C777.747 811.731 782.783 801.877 782.783 801.877C782.783 801.877 805.56 802.448 808.189 788.952C811.193 773.831 778.623 775.987 759.975 766.394C717.249 744.408 662.757 701.393 651.078 693.847L599.223 774.236Z" fill="#FFA698"/>
<path d="M698.386 774.393C711.063 780.662 723.346 787.147 736.813 791.679C751.591 796.645 766.643 798.966 781.911 801.708C782.388 801.791 782.317 802.458 781.831 802.449C753.406 801.831 721.536 790.841 698.09 774.963C697.525 774.577 697.746 774.077 698.386 774.393Z" fill="#17282F"/>
<path d="M682.417 798.537C695.07 803.713 717.369 812.661 760.104 816.116L760.113 816.363C732.054 817.627 706.74 811.573 682.161 799.111C681.399 798.726 681.58 798.194 682.417 798.537Z" fill="#17282F"/>
<path d="M672.472 810.578C694.481 818.784 709.428 821.262 733.969 824.319L733.96 824.572C705.698 823.929 695.519 820.602 672.078 811.268C671.275 810.946 671.616 810.256 672.472 810.578Z" fill="#17282F"/>
<path d="M692.695 534.966L601.233 492.922C601.233 492.922 688.899 425.343 720.292 412.741C755.628 398.556 755.155 419.715 741.233 453.096C727.311 486.477 692.695 534.966 692.695 534.966Z" fill="#DF6CFF"/>
<path d="M621.572 482.676C624.972 483.678 653.769 496.798 659.963 499.789C666.171 502.78 691.62 514.757 697.766 518.401L697.58 518.877C690.912 516.508 665.205 504.504 658.83 501.591C652.454 498.678 624.242 485.041 621.342 483.097L621.572 482.676Z" fill="#17282F"/>
<path d="M686.217 532.721C689.033 533.797 693.351 535.648 693.351 535.648C700.022 523.211 708.029 511.379 715.228 499.253C722.554 486.909 730.229 474.819 737.704 462.564L737.992 462.747C734.189 469.953 730.382 477.128 726.51 484.263C727.143 483.462 727.785 482.661 728.422 481.861C730.679 478.991 733.015 476.194 735.181 473.253L735.586 473.507C733.657 476.643 731.657 479.766 729.348 482.626C727.719 484.645 725.968 486.531 724.192 488.395C721.947 492.478 719.73 496.571 717.372 500.605C710.146 512.962 703.06 527.236 694.909 538.988C694.909 538.988 688.762 535.439 685.859 533.317C685.505 533.054 685.806 532.565 686.217 532.721Z" fill="#17282F"/>
<path d="M939.107 667.419L1089.68 679.769L1140.22 474.913L989.645 462.564L939.107 667.419Z" fill="#273E47"/>
<path d="M1025.58 478.961L1096.5 484.688L1102.01 462.253L1031.1 456.531L1025.58 478.961Z" fill="#999B9B"/>
<path d="M1047.71 457.414L1056.62 458.121L1059.22 447.71L1080.9 449.431L1078.3 459.847L1087.22 460.554L1091.95 441.584L1052.31 438.431L1047.71 457.414Z" fill="#999B9B"/>
<path d="M1162.3 569.266C1160.97 581.984 1149.63 584.004 1149.63 584.004C1149.63 584.004 1161.84 593.92 1158.39 606.485C1156.61 612.949 1144.65 615.807 1144.65 615.807C1144.65 615.807 1154.09 624.178 1150.33 635.163C1147.33 643.91 1135.79 645.468 1135.79 645.468C1135.79 645.468 1141.09 657.692 1135.15 665.631C1123.12 681.735 1045.19 664.221 1039.65 633.007C1037.07 618.457 1055.87 623.764 1055.87 623.764C1055.87 623.764 1030.69 609.649 1033.92 593.606C1037.14 577.558 1061.15 585.916 1061.15 585.916C1061.15 585.916 1036.87 572.029 1041.9 555.728C1047.14 538.755 1069.72 551.197 1069.72 551.197C1069.72 551.197 1055.05 535.639 1061.78 524.034C1072.89 504.874 1106.32 539.527 1124.36 539.344L1131.44 512.844C1131.44 512.844 1163.76 555.182 1162.3 569.266Z" fill="#FFA698"/>
<path d="M1134.19 647.123L1134.17 647.572C1106.82 648.044 1076.64 639.741 1054.09 623.138C1053.35 622.591 1053.87 621.089 1054.8 621.524C1081.15 633.963 1105.47 642.786 1134.19 647.123Z" fill="#17282F"/>
<path d="M1144.24 616.851L1144.15 617.416C1116.62 617.72 1083.65 607.969 1060.35 586.882C1059.56 586.159 1059.55 584.698 1060.53 585.457C1077.07 598.288 1118.97 613.299 1144.24 616.851Z" fill="#17282F"/>
<path d="M1068.6 549.16C1091.89 568.521 1118.99 578.4 1148.27 584.507L1148.16 585.143C1133.03 586.093 1114.77 580.237 1100.95 574.469C1087.7 568.94 1076.85 561.269 1067.93 549.982C1067.59 549.545 1068.1 548.745 1068.6 549.16Z" fill="#17282F"/>
<path d="M808.383 416.347C807.557 420.917 806.318 425.356 804.684 429.642C803.125 433.945 801.3 438.149 799.044 442.054C796.758 445.91 794.182 449.67 790.896 452.313C789.253 453.594 787.455 454.594 785.594 454.897C784.097 455.137 781.855 454.449 779.959 453.657C772.006 450.308 765.438 443.715 759.59 436.918C758.12 435.199 756.753 433.375 755.349 431.583C754.053 429.705 752.689 427.872 751.437 425.954C750.185 424.035 748.871 422.148 747.654 420.198C746.482 418.216 745.274 416.252 744.026 414.297C747.458 422.913 751.806 431.203 757.361 438.737C762.947 446.163 769.617 453.25 778.609 457.087C780.905 457.92 783.16 458.848 786.198 458.445C788.853 457.974 791.14 456.608 793.023 455.001C796.784 451.72 799.369 447.611 801.438 443.376C805.497 434.873 808.103 425.678 808.383 416.347Z" fill="#17282F"/>
<defs>
<linearGradient id="paint0_linear_287_2000" x1="788.044" y1="0" x2="788.044" y2="1584.65" gradientUnits="userSpaceOnUse">
<stop stop-color="#F3A9FF"/>
<stop offset="1" stop-color="#BD2BF0"/>
</linearGradient>
</defs>
</svg>
