<svg width="1575" height="1582" viewBox="0 0 1575 1582" fill="none" xmlns="http://www.w3.org/2000/svg">
<path d="M9.22846 57.8734C4.38548 27.5021 27.8497 0 58.6047 0H1278.53C1303.1 0 1324.03 17.8583 1327.9 42.1265L1564.22 1524.13C1569.06 1554.5 1545.6 1582 1514.84 1582H294.924C270.349 1582 249.417 1564.14 245.547 1539.87L9.22846 57.8734Z" fill="url(#paint0_linear_287_2691)"/>
<path d="M1191.79 543.568C1196.3 533.448 1206.64 526.67 1218.26 527.452C1225.66 527.95 1232.14 531.434 1236.63 536.648C1241.29 526.931 1251.49 520.484 1262.83 521.266C1274.37 522.048 1283.57 530.059 1286.58 540.582C1291.87 535.747 1298.97 532.927 1306.62 533.448C1321.43 534.467 1332.52 547.313 1331.43 562.196C1331.38 562.765 1331.2 563.287 1331.13 563.855C1336.16 555.229 1345.68 549.635 1356.25 550.37C1369.14 551.247 1379.19 561.106 1380.86 573.454C1382.45 573.264 1384.1 573.169 1385.77 573.288C1391.87 573.715 1397.28 576.227 1401.55 579.971C1406.83 572.553 1415.63 567.932 1425.33 568.572C1440.13 569.567 1451.23 582.436 1450.13 597.32C1449.85 600.851 1448.88 604.169 1447.44 607.179C1448.11 607.179 1448.73 607.061 1449.41 607.108C1456.83 607.606 1463.27 611.137 1467.73 616.398C1472.41 616.801 1476.6 618.697 1479.89 621.565C1484.13 617.56 1489.91 615.213 1496.17 615.64C1508.03 616.446 1516.93 626.755 1516.04 638.676C1515.86 640.952 1515.26 643.085 1514.44 645.099C1519.03 646.071 1523.07 648.441 1526.01 651.806C1530.19 645.502 1537.45 641.497 1545.45 642.042C1557.32 642.848 1566.21 653.157 1565.32 665.078C1565.17 667.045 1564.69 668.894 1564.07 670.648L1466.23 637.302V637.326L1191.79 543.568Z" fill="#B020F4"/>
<path d="M1369.92 638.226C1342.57 642.445 1344.19 646.687 1340.68 647.137C1336.51 647.659 1287.16 624.101 1287.16 624.101C1287.16 624.101 1141.19 555.608 1133.43 551.626L1028.07 425.589L946.855 461.186C946.855 461.186 1065.36 595.187 1072.86 601.088C1080.36 606.989 1289.68 676.786 1307.87 683.517C1307.87 683.517 1326.22 699.467 1338.11 709.09C1349.97 718.712 1365.85 722.551 1369.67 724.732C1370.22 725.063 1383.33 731.628 1401.82 735.468C1417.78 738.762 1404.49 728.476 1404.49 728.476C1404.49 728.476 1376.27 717.147 1377.67 715.109C1378.74 713.521 1393.75 720.608 1411.34 724.447C1415.88 725.443 1420.34 726.39 1424.46 727.22C1435.25 729.448 1440.01 723.57 1429.14 719.47C1425.3 718.025 1418.87 715.773 1414.04 714.825C1408.8 713.782 1404.42 711.175 1400.18 709.635C1391.78 706.601 1385.6 704.468 1385.92 704.207C1386.34 703.852 1385.17 702.074 1390.01 702.975C1395.84 704.065 1407.58 709.042 1416.28 709.966C1421.22 710.488 1431.46 712.218 1431.46 712.218C1431.46 712.218 1449.56 713.877 1449.68 711.46C1449.96 706.198 1438.81 703.236 1431.96 703.378C1427.65 701.292 1416.8 699.775 1416.8 699.775C1416.8 699.775 1395.79 691.907 1397.01 688.944C1397.49 687.759 1410.22 689.584 1423.71 690.461C1437.97 691.385 1448.31 691.385 1449.06 688.755C1450.26 684.583 1438.91 683.019 1438.91 683.019C1438.91 683.019 1428.89 681.621 1425.63 680.934C1421.79 680.104 1410.5 676.739 1410.5 676.739C1410.5 676.739 1371.86 663.254 1373.26 660.528C1374.65 657.826 1381.03 652.138 1383.75 652.162C1386.47 652.186 1391.35 654.769 1394.07 654.769C1396.79 654.793 1402.65 654.295 1403.07 651.024C1403.47 647.777 1388.34 641.023 1388.34 641.023C1388.34 641.023 1377.79 637.018 1369.92 638.226Z" fill="#F8A492"/>
<path d="M1101.38 503.633C1101.38 503.633 1075.08 526.338 1064.16 533.803C1055.06 540.013 1010.77 560.3 1010.77 560.3C1010.77 560.3 966.694 496.144 947.426 463.959C924.044 424.925 907.867 366.883 913.376 365.295C928.88 360.887 950.218 358.185 969.935 366.789C1038.14 396.58 1101.38 503.633 1101.38 503.633Z" fill="#9D23D7"/>
<path d="M1344.37 671.762C1356.06 673.515 1368.02 671.406 1373.21 661.215C1374.38 673.302 1355.13 679.274 1344.37 671.762Z" fill="#FE875E"/>
<path d="M1190.14 537.485L1573.85 672.292L1477.91 919.164L1094.19 784.357L1190.14 537.485Z" fill="#FFF8F5"/>
<path d="M1438.35 624.817L1574.11 672.496L1478.19 919.368L1342.44 871.689L1438.35 624.817Z" fill="#FFECE3"/>
<path d="M669.886 1487.04C669.886 1487.04 666.969 1536.17 666.944 1536.27C665.872 1542.5 661.66 1557.91 661.66 1563.57C661.66 1584.88 761.044 1545.49 738.759 1536.06C736.74 1535.2 726.171 1528.73 725.523 1521.5C724.501 1510.34 721.908 1487.73 721.908 1487.73L669.886 1487.04Z" fill="#F7A491"/>
<path d="M739.736 1536.27C739.736 1536.27 716.404 1542.79 704.464 1544.42C692.524 1546.06 676.77 1532.34 668.294 1536.03C658.996 1540.11 659.345 1576.8 659.345 1576.8C659.345 1576.8 784.48 1587.25 819.652 1576.44C833.612 1572.15 787.447 1551.44 739.736 1536.27Z" fill="#422226"/>
<path d="M504.394 1486.74C504.394 1486.74 501.477 1535.87 501.452 1535.96C500.38 1542.19 496.168 1557.6 496.168 1563.29C496.168 1584.59 595.552 1545.2 573.267 1535.77C571.248 1534.92 557.563 1523.64 556.89 1516.39C555.868 1505.22 556.416 1487.45 556.416 1487.45L504.394 1486.74Z" fill="#F7A491"/>
<path d="M573.021 1535.54C573.021 1535.54 549.689 1542.05 537.749 1543.69C525.809 1545.32 510.055 1531.6 501.58 1535.3C492.282 1539.37 491.908 1576.09 491.908 1576.09C491.908 1576.09 614.773 1581.84 651.591 1576.65C666.073 1574.59 620.731 1550.7 573.021 1535.54Z" fill="#422226"/>
<path d="M533.887 704.302C533.887 704.302 517.036 787.158 523.916 849.987C530.771 912.816 531.319 1136 531.319 1136L499.662 1492.97L567.289 1494.46C567.289 1494.46 640.973 1137.54 639.602 1146.69C638.231 1155.86 664.305 895.373 664.305 895.373L576.462 696.41L533.887 704.302Z" fill="#17282F"/>
<path d="M557.445 650.786C557.445 650.786 481.143 727.195 509.535 810.667C520.926 844.203 627.265 1164.46 628.661 1190.65C630.032 1216.84 664.631 1506.17 664.631 1506.17L736.894 1504.11L752.523 1182.4L731.859 748.952L687.987 675.861L557.445 650.786Z" fill="#243D47"/>
<path d="M1020.68 402.078C995.706 375.581 941.316 337.85 941.316 337.85C941.316 337.85 908.911 311.543 895.724 307.206C876.281 300.831 843.004 283.838 794.845 353.232C760.396 402.884 542.933 660.006 507.237 668.68L740.354 774.714C746.736 724.067 861.948 628.39 878.525 610.544C915.541 570.656 1044.34 427.176 1020.68 402.078Z" fill="#B020F4"/>
<path d="M683.549 575.468C749.381 531.86 853.401 436.681 853.401 436.681C908.115 487.873 946.852 532.642 946.852 532.642C869.03 648.038 808.233 678.777 808.233 678.777C776.975 675.293 710.096 614.194 698.804 599.311C687.512 584.474 683.549 575.468 683.549 575.468Z" fill="#FFF8F5"/>
<path d="M1002.16 380.891C984.541 463.106 949.444 520.934 946.851 527.12C939.897 525.058 939.373 521.195 939.373 521.195C965.422 470.121 996.905 384.659 996.905 384.659C998.525 381.862 1002.16 380.891 1002.16 380.891Z" fill="#FFECE3"/>
<path d="M1009.82 294.36L937.209 334.769C937.209 334.769 935.165 393.687 958.895 408.998C978.812 421.843 993.968 391.009 993.968 391.009C993.968 391.009 1020.96 355.436 1041.48 344.344C1061.99 333.3 1009.82 294.36 1009.82 294.36Z" fill="#F7A491"/>
<path d="M853.401 436.681C898.768 373.923 930.849 329.675 930.849 329.675C936.657 331.713 941.094 332.59 941.094 332.59C907.791 399.021 864.892 463.96 859.034 460.736C844.053 457.537 853.401 436.681 853.401 436.681Z" fill="#FFECE3"/>
<path d="M997.63 320.288C1000.37 332.589 1006.68 350.364 1016.48 365.01C1024.48 356.786 1033.48 348.705 1041.48 344.367C1050.95 339.248 1044.92 328.204 1035.69 317.8C1022.66 304.907 1009.82 294.36 1009.82 294.36L995.861 302.134C994.963 307.158 996.733 316.188 997.63 320.288Z" fill="#F47458"/>
<path d="M1047.64 193.043C1046.41 191.621 986.714 262.248 994.093 295.38C1001.45 328.513 1037.54 358.754 1062.62 350.436C1090.36 341.24 1141.93 258.077 1123.44 217.692C1104.94 177.33 1047.64 193.043 1047.64 193.043Z" fill="#F7A491"/>
<path d="M1112.99 170.765C1086.96 156.996 1044.51 153.061 1012.81 168.846C973.82 188.256 964.921 237.102 977.135 266.893C989.35 296.684 975.365 313.535 975.365 313.535L996.055 302.04C996.055 302.04 1008.14 284.123 1009.72 269.832C1011.29 255.541 1033.22 258.076 1043.92 251.583C1052.17 246.606 1062.69 230.371 1076.02 221.958C1076.02 221.958 1109.6 218.047 1126.13 226.864C1154.27 241.866 1150.28 190.484 1112.99 170.765Z" fill="#422226"/>
<path d="M1027.14 263.48C1027.34 274.074 1022.06 282.748 1015.38 282.867C1008.7 282.961 1003.11 274.453 1002.91 263.859C1002.71 253.265 1008 244.591 1014.68 244.472C1021.38 244.378 1026.97 252.886 1027.14 263.48Z" fill="#F7A491"/>
<path d="M1088.29 319.744L1056.68 297.276C1056.68 297.276 1048.33 309.411 1061.92 319.697C1078.49 332.187 1088.29 319.744 1088.29 319.744Z" fill="white"/>
<path d="M1167.65 766.657C1159.72 755.66 1156.28 739.805 1145.34 727.694C1141.68 723.618 1135.82 719.043 1129.14 714.469C1076.49 685.176 939.346 609.691 933.987 603.814C927.655 596.87 834.055 448.981 834.055 448.981L918.133 430.874L1000.29 568.809C1007.15 573.999 1137.59 665.647 1137.59 665.647C1137.59 665.647 1163.51 684.915 1177.7 693.921C1184.85 697.903 1191.81 700.463 1197.89 702.477C1205.54 705.013 1220.12 711.91 1223.06 714.375C1226.48 717.242 1233.36 723.381 1237.42 727.102C1241.51 730.846 1246.45 735.065 1248.34 737.292C1249.51 738.643 1253.1 740.516 1255.74 741.772C1259.68 743.644 1259.18 749.19 1254.95 750.328C1250.96 751.394 1245.55 749.024 1242.21 747.531C1232.76 743.312 1221.24 731.913 1220.62 733.311C1220.02 734.709 1231.71 759.12 1232.89 761.988C1234.03 764.856 1247.49 793.296 1248.17 799.648C1248.86 805.975 1244.85 807.445 1241.86 805.122C1239.29 803.131 1217.65 765.164 1217.65 765.164C1217.65 765.164 1214.89 760.329 1213.82 763.102C1212.74 765.875 1232.31 800.382 1234.23 806.046C1236.15 811.711 1234.63 816.356 1229.12 814.365C1222.42 811.948 1203.92 773.886 1203.92 773.886C1203.92 773.886 1201.5 769.145 1199.86 770.804C1198.21 772.463 1215.39 801.544 1215.56 804.909C1215.76 808.251 1212.57 811.569 1207.93 808.772C1202.47 805.478 1186.27 771.35 1186.27 771.35C1186.27 771.35 1184.28 769.098 1183.63 770.686C1183.01 772.274 1195.77 798.083 1194.82 801.852C1194.02 805.027 1191.03 804.388 1191.03 804.388C1184.35 804.388 1175.58 777.654 1167.65 766.657Z" fill="#F8A492"/>
<path d="M857.09 527.12C857.09 527.12 892.761 516.668 910.808 510.15C932.295 502.4 960.961 487.848 960.961 487.848C960.961 487.848 942.988 393.072 928.032 361.171C873.143 244.093 810.801 324.839 802.326 343.657C783.406 385.772 857.09 527.12 857.09 527.12Z" fill="#9D23D7"/>
<path d="M649.324 560.324C599.894 677.355 582.196 833.254 579.952 915.683C579.08 947.797 603.284 975.621 636.661 980.574C733.079 994.913 846.023 981.925 846.023 981.925C803.049 864.349 790.386 705.748 793.128 693.4C760.05 656.926 649.324 560.324 649.324 560.324Z" fill="#FFF8F5"/>
<path d="M808.234 678.801C754.816 653.845 652.242 546.744 646.883 531.552C645.637 530.557 631.403 546.531 632.649 547.526C720.965 668.681 788.442 689.656 793.129 693.424C799.759 693.424 808.234 678.801 808.234 678.801Z" fill="#FFECE3"/>
<path d="M1210.96 1154.77C1210.96 1162.23 1204.6 1168.29 1196.73 1168.29C1188.88 1168.29 1182.52 1162.25 1182.52 1154.77C1182.52 1147.31 1188.88 1141.24 1196.73 1141.24C1204.6 1141.24 1210.96 1147.31 1210.96 1154.77Z" fill="#F7CC7F"/>
<path d="M1199.18 897.806L1013.46 898.789L1014.37 1052.64L1200.09 1051.66L1199.18 897.806Z" fill="#FFECE3"/>
<path d="M1079.2 898.446L1013.48 898.794L1014.39 1052.64L1080.1 1052.3L1079.2 898.446Z" fill="#FFBA8E"/>
<path d="M1267.4 1047.02L1002.98 1048.42L1004.13 1245.93L1268.56 1244.53L1267.4 1047.02Z" fill="#FFECE3"/>
<path d="M1096.53 1047.94L1002.98 1048.44L1004.13 1245.94L1097.68 1245.45L1096.53 1047.94Z" fill="#FFBA8E"/>
<path d="M1212.25 1075.2C1215.32 1083.19 1208.17 1095.06 1197.62 1099.65C1187.08 1104.22 1173.53 1100.86 1170.02 1093.08C1164.96 1081.9 1170.89 1079.35 1178.67 1076.7C1180.16 1076.19 1181.72 1075.69 1183.27 1075.1C1184.18 1074.76 1185.1 1074.42 1186.01 1074.01C1186.95 1073.61 1187.88 1073.14 1188.8 1072.66C1189.9 1072.07 1191.01 1071.46 1192.07 1070.86C1200.15 1066.29 1207.19 1062.02 1212.25 1075.2Z" fill="#9D23D7"/>
<path d="M1193.99 1064.26C1192.5 1063.7 1191.93 1065.15 1191.93 1065.15C1193.37 1064.53 1193.48 1066.49 1192.8 1068.21C1192.39 1069.26 1186.89 1071.36 1184.8 1071.79C1184.67 1071.81 1184.55 1071.85 1184.42 1071.89C1183.99 1067.3 1178.19 1059.03 1173.53 1062.95L1175.55 1065.03C1175.64 1064.91 1175.83 1064.69 1176.04 1064.59C1178.19 1063.38 1182.97 1068.77 1183.74 1072.11C1180.44 1073.44 1175.51 1077.67 1174.45 1076.94C1173.06 1076.01 1174.89 1074.86 1174.89 1074.86L1176.81 1074.56C1176.81 1074.56 1174.08 1072.9 1172.66 1074.21C1170.36 1076.34 1172.11 1078.56 1173.04 1078.9C1173.79 1079.19 1178.87 1077 1181.34 1075.91C1180.61 1076.6 1178.49 1079.13 1178.06 1081.9C1177.57 1085.05 1182.46 1087.07 1182.46 1087.07C1182.46 1087.07 1179.12 1084.42 1180.19 1081.69C1181.02 1079.57 1183.27 1076.36 1184.23 1075.04L1188.29 1083.53C1188.29 1083.53 1189.46 1081.05 1187.97 1077.75C1186.99 1075.59 1186.12 1074.54 1185.65 1074.09L1187.48 1073.47C1188.67 1073.32 1190.61 1073.18 1192.25 1073.38C1194.8 1073.71 1193.22 1078.24 1193.22 1078.24C1193.22 1078.24 1194.54 1077.06 1194.69 1075.2C1194.99 1071.6 1192.84 1071.63 1191.12 1071.65C1192.2 1071.02 1193.29 1070.61 1194.75 1069.64C1197.29 1068.03 1195.48 1064.83 1193.99 1064.26Z" fill="#542D34"/>
<path d="M1231.93 1073.52C1229.1 1065.46 1236.59 1053.79 1247.28 1049.5C1257.96 1045.24 1271.4 1048.98 1274.7 1056.86C1279.42 1068.19 1273.42 1070.57 1265.55 1073C1264.06 1073.46 1262.49 1073.93 1260.92 1074.46C1259.98 1074.76 1259.07 1075.1 1258.13 1075.47C1257.17 1075.85 1256.24 1076.27 1255.3 1076.74C1254.17 1077.29 1253.07 1077.87 1251.96 1078.44C1243.77 1082.77 1236.61 1086.83 1231.93 1073.52Z" fill="#9D23D7"/>
<path d="M1249.88 1084.97C1251.35 1085.58 1251.96 1084.14 1251.96 1084.14C1250.5 1084.73 1250.45 1082.77 1251.18 1081.07C1251.62 1080.04 1257.17 1078.09 1259.26 1077.71C1259.39 1077.69 1259.51 1077.65 1259.66 1077.63C1259.96 1082.22 1265.51 1090.65 1270.27 1086.89L1268.32 1084.75C1268.23 1084.87 1268.04 1085.07 1267.81 1085.17C1265.64 1086.32 1261 1080.78 1260.32 1077.43C1263.66 1076.17 1268.7 1072.11 1269.76 1072.88C1271.1 1073.85 1269.25 1074.94 1269.25 1074.94L1267.32 1075.18C1267.32 1075.18 1270 1076.92 1271.46 1075.65C1273.83 1073.61 1272.15 1071.32 1271.23 1070.96C1270.51 1070.65 1265.34 1072.7 1262.83 1073.71C1263.58 1073.04 1265.79 1070.57 1266.28 1067.82C1266.85 1064.69 1262.02 1062.53 1262.02 1062.53C1262.02 1062.53 1265.28 1065.28 1264.13 1067.96C1263.23 1070.07 1260.87 1073.22 1259.9 1074.5L1256.09 1065.88C1256.09 1065.88 1254.83 1068.33 1256.24 1071.66C1257.15 1073.85 1257.98 1074.92 1258.45 1075.39L1256.6 1075.95C1255.41 1076.05 1253.45 1076.15 1251.84 1075.89C1249.28 1075.49 1251.01 1071.02 1251.01 1071.02C1251.01 1071.02 1249.67 1072.15 1249.45 1074.01C1249.05 1077.59 1251.2 1077.63 1252.92 1077.67C1251.84 1078.26 1250.71 1078.64 1249.22 1079.57C1246.69 1081.11 1248.41 1084.36 1249.88 1084.97Z" fill="#542D34"/>
<path d="M1324.16 1092.17C1322.35 1100.5 1309.78 1106.74 1298.38 1105.03C1286.98 1103.31 1277.44 1093.34 1278.75 1084.91C1280.65 1072.82 1287.05 1073.81 1295.07 1075.69C1296.6 1076.05 1298.19 1076.44 1299.81 1076.78C1300.77 1076.98 1301.74 1077.16 1302.72 1077.31C1303.74 1077.47 1304.76 1077.57 1305.81 1077.65C1307.06 1077.75 1308.31 1077.81 1309.57 1077.87C1318.86 1078.28 1327.16 1078.42 1324.16 1092.17Z" fill="#9D23D7"/>
<path d="M1314.78 1073.32C1313.84 1072.07 1312.55 1072.98 1312.55 1072.98C1314.12 1073.22 1313.12 1074.92 1311.61 1076.01C1310.7 1076.68 1304.89 1075.55 1302.91 1074.82C1302.79 1074.78 1302.66 1074.74 1302.53 1074.7C1304.7 1070.61 1304.36 1060.58 1298.28 1061.41L1298.83 1064.24C1298.96 1064.18 1299.26 1064.1 1299.49 1064.14C1301.96 1064.24 1303.02 1071.32 1301.85 1074.56C1298.34 1073.95 1291.88 1074.9 1291.37 1073.71C1290.73 1072.19 1292.88 1072.19 1292.88 1072.19L1294.66 1072.96C1294.66 1072.96 1293.28 1070.11 1291.37 1070.47C1288.26 1071.04 1288.52 1073.83 1289.11 1074.62C1289.58 1075.24 1295.07 1076.09 1297.75 1076.48C1296.77 1076.66 1293.58 1077.69 1291.69 1079.79C1289.54 1082.2 1292.54 1086.49 1292.54 1086.49C1292.54 1086.49 1291.18 1082.48 1293.58 1080.76C1295.45 1079.41 1299.13 1077.89 1300.64 1077.31L1299.38 1086.61C1299.38 1086.61 1301.74 1085.13 1302.3 1081.57C1302.66 1079.23 1302.51 1077.89 1302.36 1077.27L1304.25 1077.71C1305.34 1078.24 1307.04 1079.13 1308.29 1080.16C1310.27 1081.77 1306.44 1084.77 1306.44 1084.77C1306.44 1084.77 1308.19 1084.46 1309.34 1082.99C1311.57 1080.12 1309.76 1079 1308.27 1078.09C1309.53 1078.13 1310.68 1078.38 1312.44 1078.34C1315.48 1078.24 1315.72 1074.6 1314.78 1073.32Z" fill="#542D34"/>
<path d="M1183.7 1089.12C1181.89 1097.45 1169.32 1103.69 1157.92 1101.97C1146.52 1100.26 1136.97 1090.29 1138.29 1081.86C1140.18 1069.76 1146.58 1070.76 1154.6 1072.64C1156.13 1073 1157.73 1073.38 1159.34 1073.73C1160.3 1073.93 1161.28 1074.11 1162.26 1074.25C1163.28 1074.42 1164.3 1074.52 1165.34 1074.6C1166.6 1074.7 1167.85 1074.76 1169.11 1074.82C1178.42 1075.2 1186.69 1075.35 1183.7 1089.12Z" fill="#B020F4"/>
<path d="M1174.33 1070.27C1173.4 1069.02 1172.1 1069.93 1172.1 1069.93C1173.68 1070.17 1172.68 1071.87 1171.17 1072.96C1170.25 1073.63 1164.45 1072.49 1162.47 1071.77C1162.34 1071.73 1162.21 1071.69 1162.09 1071.65C1164.26 1067.56 1163.91 1057.53 1157.83 1058.36L1158.39 1061.19C1158.51 1061.13 1158.81 1061.05 1159.05 1061.09C1161.51 1061.19 1162.58 1068.27 1161.41 1071.5C1157.9 1070.9 1151.43 1071.85 1150.92 1070.65C1150.28 1069.14 1152.43 1069.14 1152.43 1069.14L1154.22 1069.91C1154.22 1069.91 1152.84 1067.06 1150.92 1067.42C1147.82 1067.99 1148.07 1070.78 1148.67 1071.56C1149.14 1072.19 1154.62 1073.04 1157.3 1073.42C1156.32 1073.61 1153.13 1074.64 1151.24 1076.74C1149.09 1079.15 1152.09 1083.43 1152.09 1083.43C1152.09 1083.43 1150.73 1079.43 1153.13 1077.71C1155 1076.36 1158.68 1074.84 1160.19 1074.25L1158.94 1083.55C1158.94 1083.55 1161.3 1082.08 1161.85 1078.52C1162.21 1076.17 1162.06 1074.84 1161.92 1074.21L1163.81 1074.66C1164.89 1075.16 1166.59 1076.07 1167.85 1077.1C1169.83 1078.72 1166 1081.71 1166 1081.71C1166 1081.71 1167.74 1081.41 1168.89 1079.94C1171.12 1077.06 1169.32 1075.95 1167.83 1075.04C1169.08 1075.08 1170.23 1075.33 1172 1075.28C1175.04 1075.18 1175.27 1071.52 1174.33 1070.27Z" fill="#542D34"/>
<path d="M1246.18 1091.32C1243.35 1083.25 1250.84 1071.58 1261.53 1067.3C1272.21 1063.03 1285.65 1066.77 1288.95 1074.66C1293.67 1085.98 1287.67 1088.37 1279.8 1090.79C1278.31 1091.26 1276.74 1091.72 1275.17 1092.25C1274.23 1092.55 1273.32 1092.9 1272.38 1093.26C1271.42 1093.64 1270.49 1094.07 1269.55 1094.53C1268.42 1095.08 1267.32 1095.67 1266.21 1096.23C1258 1100.56 1250.84 1104.62 1246.18 1091.32Z" fill="#B020F4"/>
<path d="M1264.11 1102.76C1265.58 1103.37 1266.19 1101.93 1266.19 1101.93C1264.73 1102.52 1264.68 1100.56 1265.41 1098.86C1265.85 1097.83 1271.42 1095.89 1273.51 1095.5C1273.64 1095.48 1273.76 1095.44 1273.89 1095.42C1274.19 1100.01 1279.74 1108.44 1284.5 1104.68L1282.55 1102.54C1282.46 1102.66 1282.27 1102.86 1282.04 1102.96C1279.87 1104.12 1275.23 1098.58 1274.55 1095.22C1277.89 1093.97 1282.93 1089.9 1283.99 1090.67C1285.33 1091.64 1283.48 1092.73 1283.48 1092.73L1281.55 1092.98C1281.55 1092.98 1284.23 1094.71 1285.69 1093.44C1288.05 1091.4 1286.37 1089.11 1285.46 1088.75C1284.74 1088.45 1279.57 1090.49 1277.08 1091.5C1277.83 1090.85 1280.04 1088.37 1280.53 1085.62C1281.1 1082.48 1276.27 1080.32 1276.27 1080.32C1276.27 1080.32 1279.53 1083.07 1278.38 1085.76C1277.49 1087.86 1275.12 1091.01 1274.15 1092.29L1270.34 1083.67C1270.34 1083.67 1269.09 1086.12 1270.49 1089.46C1271.4 1091.64 1272.23 1092.71 1272.7 1093.18L1270.85 1093.74C1269.66 1093.85 1267.72 1093.95 1266.09 1093.68C1263.56 1093.28 1265.26 1088.81 1265.26 1088.81C1265.26 1088.81 1263.92 1089.94 1263.7 1091.8C1263.3 1095.38 1265.45 1095.42 1267.17 1095.46C1266.09 1096.05 1264.96 1096.43 1263.47 1097.36C1260.92 1098.9 1262.64 1102.16 1264.11 1102.76Z" fill="#542D34"/>
<path d="M1250.73 1089.32C1247.3 1097.16 1233.73 1100.88 1222.89 1097.04C1212.04 1093.2 1204.64 1081.59 1207.62 1073.59C1211.87 1062.08 1217.96 1064.26 1225.46 1067.62C1226.89 1068.27 1228.38 1068.94 1229.91 1069.58C1230.8 1069.97 1231.71 1070.33 1232.65 1070.65C1233.63 1071 1234.61 1071.3 1235.61 1071.56C1236.82 1071.91 1238.05 1072.19 1239.24 1072.49C1248.28 1074.68 1256.38 1076.38 1250.73 1089.32Z" fill="#B020F4"/>
<path d="M1245.26 1069.04C1244.58 1067.62 1243.14 1068.29 1243.14 1068.29C1244.62 1068.81 1243.31 1070.31 1241.6 1071.08C1240.56 1071.54 1235.12 1069.34 1233.31 1068.25C1233.2 1068.19 1233.08 1068.13 1232.95 1068.07C1235.88 1064.47 1237.54 1054.58 1231.42 1054.24L1231.4 1057.13C1231.55 1057.09 1231.84 1057.07 1232.06 1057.15C1234.46 1057.71 1234.1 1064.85 1232.29 1067.8C1228.97 1066.53 1222.42 1066.23 1222.17 1064.99C1221.83 1063.39 1223.95 1063.8 1223.95 1063.8L1225.55 1064.89C1225.55 1064.89 1224.76 1061.84 1222.8 1061.82C1219.66 1061.8 1219.34 1064.57 1219.76 1065.46C1220.1 1066.16 1225.31 1068.02 1227.87 1068.93C1226.87 1068.93 1223.53 1069.32 1221.27 1071.04C1218.7 1072.98 1220.78 1077.75 1220.78 1077.75C1220.78 1077.75 1220.25 1073.57 1222.95 1072.33C1225.06 1071.36 1228.95 1070.57 1230.57 1070.27L1227.5 1079.17C1227.5 1079.17 1230.1 1078.18 1231.35 1074.78C1232.18 1072.55 1232.29 1071.22 1232.27 1070.55L1234.03 1071.36C1234.99 1072.07 1236.5 1073.28 1237.52 1074.54C1239.14 1076.5 1234.8 1078.7 1234.8 1078.7C1234.8 1078.7 1236.59 1078.74 1237.99 1077.51C1240.73 1075.12 1239.18 1073.69 1237.93 1072.51C1239.14 1072.8 1240.22 1073.24 1241.97 1073.55C1244.99 1073.99 1245.94 1070.45 1245.26 1069.04Z" fill="#542D34"/>
<path d="M1324.06 1086.06L1132.77 1087.07L1133.71 1247.21L1325 1246.2L1324.06 1086.06Z" fill="#FFECE3"/>
<path d="M1200.44 1086.71L1132.77 1087.07L1133.71 1247.21L1201.38 1246.85L1200.44 1086.71Z" fill="#FFBA8E"/>
<path d="M1186.33 883.481C1181.74 882.349 1177.08 883.097 1173.3 885.22C1172.47 878.749 1167.62 873.108 1160.58 871.39C1153.43 869.63 1146.2 872.461 1142.21 877.9C1139.99 874.119 1136.27 871.147 1131.51 869.974C1122.32 867.71 1112.94 872.967 1110.56 881.702C1110.48 882.025 1110.48 882.369 1110.39 882.692C1109.12 876.788 1104.48 871.754 1097.93 870.156C1089.93 868.195 1081.81 871.915 1078.26 878.669C1077.32 878.264 1076.34 877.9 1075.32 877.637C1071.54 876.707 1067.73 877.112 1064.39 878.446C1062.71 873.189 1058.33 868.842 1052.31 867.366C1043.13 865.101 1033.75 870.359 1031.37 879.093C1030.79 881.176 1030.71 883.258 1030.98 885.26C1030.58 885.139 1030.22 884.957 1029.79 884.836C1023.6 883.319 1017.39 885.24 1013.23 889.304L1013.61 912.354L1013.4 898.767L1104.84 898.282C1105.03 898.12 1105.2 897.978 1105.39 897.817C1105.42 897.978 1105.46 898.12 1105.5 898.282L1199.03 897.776C1198.41 891.124 1193.54 885.26 1186.33 883.481Z" fill="#B020F4"/>
<path d="M1267.78 1046.83C1267.12 1040.18 1262.25 1034.3 1255.05 1032.54C1250.45 1031.41 1245.82 1032.15 1242.01 1034.28C1241.18 1027.81 1236.33 1022.19 1229.29 1020.45C1222.15 1018.69 1214.92 1021.52 1210.92 1026.96C1208.71 1023.18 1204.98 1020.2 1200.22 1019.03C1191.03 1016.77 1181.66 1022.02 1179.27 1030.76C1179.19 1031.08 1179.19 1031.43 1179.1 1031.75C1177.83 1025.85 1173.19 1020.83 1166.64 1019.21C1158.65 1017.25 1150.52 1020.97 1146.99 1027.73C1146.06 1027.32 1145.08 1026.96 1144.06 1026.7C1140.27 1025.77 1136.46 1026.17 1133.13 1027.5C1131.45 1022.25 1127.06 1017.9 1121.05 1016.42C1111.86 1014.16 1102.48 1019.42 1100.1 1028.13C1099.53 1030.21 1099.44 1032.3 1099.72 1034.3C1099.31 1034.18 1098.95 1033.99 1098.55 1033.87C1093.93 1032.74 1089.32 1033.53 1085.53 1035.67C1082.6 1035.01 1079.68 1035.29 1077.09 1036.3C1075.35 1033.19 1072.33 1030.74 1068.43 1029.79C1061.08 1027.97 1053.57 1032.17 1051.65 1039.17C1051.29 1040.51 1051.23 1041.84 1051.29 1043.15C1048.32 1042.83 1045.38 1043.42 1042.89 1044.77C1041.66 1040.36 1038.09 1036.68 1033.11 1035.45C1025.75 1033.63 1018.25 1037.84 1016.33 1044.83C1016.01 1045.98 1015.93 1047.14 1015.95 1048.27L1082.13 1047.91V1047.93L1267.78 1046.83Z" fill="#9D23D7"/>
<path d="M1359.27 1245.35H954.188V1265.25H1359.27V1245.35Z" fill="#422226"/>
<path d="M1217.95 1413.88H953.102V1431.29H1217.95V1413.88Z" fill="#422226"/>
<path d="M1319.5 1255.28H1302.43V1577.14H1319.5V1255.28Z" fill="#422226"/>
<path d="M1077.85 1255.28H1060.78V1579.72H1077.85V1255.28Z" fill="#422226"/>
<path d="M1180.89 1579.74L1272.93 1257.63L1257.86 1252.96L1164.22 1579.74H1180.89Z" fill="#422226"/>
<path d="M921.972 1579.74L1000.7 1257.04L985.409 1253L905.512 1579.74H921.972Z" fill="#422226"/>
<defs>
<linearGradient id="paint0_linear_287_2691" x1="786.724" y1="0" x2="786.724" y2="1582" gradientUnits="userSpaceOnUse">
<stop stop-color="#E6B0FF"/>
<stop offset="1" stop-color="#AD18F3"/>
</linearGradient>
</defs>
</svg>
