<svg width="1572" height="1632" viewBox="0 0 1572 1632" fill="none" xmlns="http://www.w3.org/2000/svg">
<path d="M9.22847 57.8734C4.38549 27.5022 27.8497 0 58.6047 0H1276.85C1301.42 0 1322.35 17.8583 1326.22 42.1265L1562.22 1522.12C1567.06 1552.49 1543.6 1579.99 1512.84 1579.99H294.603C270.028 1579.99 249.096 1562.13 245.227 1537.86L9.22847 57.8734Z" fill="url(#paint0_linear_287_2367)"/>
<g opacity="0.43">
<path d="M1459.5 1209.58H1132.68V1583.14H1459.5V1209.58Z" fill="#6952E2"/>
<path d="M1550.69 1209.58H1160.67V1583.14H1550.69V1209.58Z" fill="url(#paint1_linear_287_2367)"/>
<path opacity="0.5" d="M1459.5 1209.58H1381V1253.25H1459.5V1209.58Z" fill="#BADCF4"/>
<path d="M1207.5 1296.93H1372.12V1273.89H1207.5V1296.93Z" fill="#6952E2"/>
<path d="M1550.69 1473.23H1326.11V1544.36H1550.69V1473.23Z" fill="#6952E2"/>
<path opacity="0.5" d="M1341.12 1503.74H1434.2V1487.35H1341.12V1503.74Z" fill="#BADCF4"/>
<path d="M1485.46 1532.21H1535.47V1484.3H1485.46V1532.21Z" fill="url(#paint2_linear_287_2367)"/>
<path d="M1191.98 837.747H865.164V1211.31H1191.98V837.747Z" fill="#6952E2"/>
<path d="M1283.17 837.747H893.152V1211.31H1283.17V837.747Z" fill="url(#paint3_linear_287_2367)"/>
<path opacity="0.5" d="M1191.98 837.747H1113.48V881.416H1191.98V837.747Z" fill="#BADCF4"/>
<path d="M939.977 925.065H1104.61V902.021H939.977V925.065Z" fill="#6952E2"/>
<path d="M1283.17 1101.36H1058.59V1172.48H1283.17V1101.36Z" fill="#6952E2"/>
<path opacity="0.5" d="M1073.6 1131.87H1166.68V1115.48H1073.6V1131.87Z" fill="#BADCF4"/>
<path d="M1217.94 1160.38H1267.95V1112.47H1217.94V1160.38Z" fill="url(#paint4_linear_287_2367)"/>
<path d="M778.057 837.747H451.238V1211.31H778.057V837.747Z" fill="#6952E2"/>
<path d="M869.243 837.747H479.227V1211.31H869.243V837.747Z" fill="url(#paint5_linear_287_2367)"/>
<path opacity="0.5" d="M778.058 837.747H699.559V881.416H778.058V837.747Z" fill="#BADCF4"/>
<path d="M526.067 925.065H690.695V902.021H526.067V925.065Z" fill="#6952E2"/>
<path d="M869.243 1101.36H644.668V1172.48H869.243V1101.36Z" fill="#6952E2"/>
<path opacity="0.5" d="M659.685 1131.87H752.766V1115.48H659.685V1131.87Z" fill="#BADCF4"/>
<path d="M804.012 1160.38H854.028V1112.47H804.012V1160.38Z" fill="url(#paint6_linear_287_2367)"/>
<path d="M1104.86 464.186H778.039V837.747H1104.86V464.186Z" fill="#6952E2"/>
<path d="M1196.04 464.186H806.027V837.747H1196.04V464.186Z" fill="url(#paint7_linear_287_2367)"/>
<path opacity="0.5" d="M1104.86 464.186H1026.36V507.854H1104.86V464.186Z" fill="#BADCF4"/>
<path d="M852.864 551.493H1017.49V528.448H852.864V551.493Z" fill="#6952E2"/>
<path d="M1196.04 727.798H971.469V798.922H1196.04V727.798Z" fill="#6952E2"/>
<path opacity="0.5" d="M986.482 758.299H1079.56V741.912H986.482V758.299Z" fill="#BADCF4"/>
<path d="M1130.81 786.815H1180.83V738.909H1130.81V786.815Z" fill="url(#paint8_linear_287_2367)"/>
<path d="M1049.11 1209.58H722.289V1583.14H1049.11V1209.58Z" fill="#6952E2"/>
<path d="M1140.29 1209.58H750.277V1583.14H1140.29V1209.58Z" fill="url(#paint9_linear_287_2367)"/>
<path opacity="0.5" d="M1049.11 1209.58H970.609V1253.25H1049.11V1209.58Z" fill="#BADCF4"/>
<path d="M797.13 1296.93H961.758V1273.89H797.13V1296.93Z" fill="#6952E2"/>
<path d="M1140.29 1473.23H915.719V1544.36H1140.29V1473.23Z" fill="#6952E2"/>
<path opacity="0.5" d="M930.705 1503.74H1023.79V1487.35H930.705V1503.74Z" fill="#BADCF4"/>
<path d="M1075.11 1532.21H1125.13V1484.3H1075.11V1532.21Z" fill="url(#paint10_linear_287_2367)"/>
<path d="M633.518 1209.58H306.699V1583.14H633.518V1209.58Z" fill="#6952E2"/>
<path d="M724.703 1209.58H334.688V1583.14H724.703V1209.58Z" fill="url(#paint11_linear_287_2367)"/>
<path opacity="0.5" d="M633.519 1209.58H555.02V1253.25H633.519V1209.58Z" fill="#BADCF4"/>
<path d="M381.508 1296.93H546.137V1273.89H381.508V1296.93Z" fill="#6952E2"/>
<path d="M724.7 1473.23H500.125V1544.36H724.7V1473.23Z" fill="#6952E2"/>
<path opacity="0.5" d="M515.131 1503.74H608.211V1487.35H515.131V1503.74Z" fill="#BADCF4"/>
<path d="M659.473 1532.21H709.489V1484.3H659.473V1532.21Z" fill="url(#paint12_linear_287_2367)"/>
</g>
<path d="M1533.06 777.799H1167.79C1146.36 777.799 1128.84 794.578 1128.84 815.098V1538.5C1128.84 1563.82 1150.27 1584.3 1176.66 1584.3H1524.15C1550.46 1584.3 1572 1563.67 1572 1538.46V815.098C1571.96 794.506 1554.56 777.799 1533.06 777.799Z" fill="#663F9E"/>
<path d="M1530.48 794.688H1170.33C1156.41 794.688 1145.04 805.583 1145.04 818.912V1538.54C1145.04 1551.9 1156.33 1562.73 1170.29 1562.73H1530.48C1544.36 1562.73 1555.73 1551.83 1555.73 1538.54V818.876C1555.73 805.511 1544.43 794.688 1530.48 794.688Z" fill="#F9FBFC"/>
<path d="M1555.73 817.096V849.239H1145.04V817.133C1145.04 804.784 1155.58 794.688 1168.47 794.688H1532.34C1545.27 794.688 1555.73 804.712 1555.73 817.096Z" fill="#C090F3"/>
<path d="M1362.57 802.423H1319.54C1317.72 802.423 1316.2 803.839 1316.2 805.619C1316.2 807.362 1317.72 808.815 1319.54 808.815H1362.57C1364.39 808.815 1365.91 807.362 1365.91 805.619C1365.91 803.876 1364.43 802.423 1362.57 802.423ZM1380.81 802.023C1378.73 802.023 1377.06 803.658 1377.06 805.655C1377.06 807.653 1378.73 809.287 1380.81 809.287C1382.9 809.287 1384.57 807.653 1384.57 805.655C1384.57 803.621 1382.9 802.023 1380.81 802.023Z" fill="#A066FE"/>
<path d="M1386.2 983.582H1193.42V991.754H1386.2V983.582Z" fill="#C090F3"/>
<path d="M1309.34 1021.28H1193.42V1029.45H1309.34V1021.28Z" fill="#C090F3"/>
<path d="M1461.58 1033.34C1477.03 1033.34 1489.56 1021.34 1489.56 1006.54C1489.56 991.733 1477.03 979.732 1461.58 979.732C1446.12 979.732 1433.59 991.733 1433.59 1006.54C1433.59 1021.34 1446.12 1033.34 1461.58 1033.34Z" fill="#EBD9FF"/>
<path d="M1491.84 990.664C1486.83 992.189 1481.94 994.259 1477.39 996.874C1469.5 1001.49 1462.41 1007.23 1456.23 1013.94C1455.62 1010.82 1454.34 1007.73 1452.17 1005.12C1450.66 1003.27 1448.72 1001.74 1446.6 1000.58C1445.54 999.998 1444.4 999.526 1443.26 999.126C1442.96 999.017 1442.69 998.945 1442.39 998.872C1440.95 998.436 1439.43 999.417 1439.32 1000.87C1439.21 1002 1440 1003.01 1441.18 1003.3C1441.4 1003.34 1441.59 1003.41 1441.78 1003.45C1442.69 1003.7 1443.6 1004.03 1444.44 1004.43C1446.14 1005.23 1447.7 1006.32 1448.95 1007.7C1451.49 1010.42 1452.86 1014.13 1453.2 1018.05V1018.08C1453.24 1018.56 1453.5 1018.99 1453.92 1019.28C1454.71 1019.83 1455.78 1019.65 1456.34 1018.88C1462.26 1010.97 1469.77 1003.85 1478.3 998.218C1482.58 995.385 1487.21 993.17 1492.06 991.39C1496.96 989.611 1502.11 988.775 1507.35 988.412C1502.15 988.557 1496.88 989.102 1491.84 990.664Z" fill="#663F9E"/>
<path d="M1386.2 1077.21H1193.42V1085.38H1386.2V1077.21Z" fill="#C090F3"/>
<path d="M1309.34 1114.91H1193.42V1123.08H1309.34V1114.91Z" fill="#C090F3"/>
<path d="M1461.58 1126.97C1477.03 1126.97 1489.56 1114.97 1489.56 1100.17C1489.56 1085.36 1477.03 1073.36 1461.58 1073.36C1446.12 1073.36 1433.59 1085.36 1433.59 1100.17C1433.59 1114.97 1446.12 1126.97 1461.58 1126.97Z" fill="#EBD9FF"/>
<path d="M1483.72 1077.72C1469.65 1093.74 1454.94 1109.14 1439.62 1124.06C1439.02 1124.65 1438.11 1123.92 1438.64 1123.27C1451.87 1106.56 1466.51 1090.87 1482.77 1076.85C1483.42 1076.23 1484.29 1077.1 1483.72 1077.72Z" fill="#663F9E"/>
<path d="M1439.63 1076.89C1455.89 1090.91 1470.64 1106.53 1483.76 1123.31C1484.26 1123.96 1483.38 1124.72 1482.78 1124.1C1467.57 1109.07 1452.71 1093.81 1438.64 1077.8C1438.07 1077.11 1438.98 1076.31 1439.63 1076.89Z" fill="#663F9E"/>
<path d="M1386.2 1264.47H1193.42V1272.64H1386.2V1264.47Z" fill="#C090F3"/>
<path d="M1309.34 1302.17H1193.42V1310.34H1309.34V1302.17Z" fill="#C090F3"/>
<path d="M1461.58 1314.23C1477.03 1314.23 1489.56 1302.23 1489.56 1287.43C1489.56 1272.62 1477.03 1260.62 1461.58 1260.62C1446.12 1260.62 1433.59 1272.62 1433.59 1287.43C1433.59 1302.23 1446.12 1314.23 1461.58 1314.23Z" fill="#EBD9FF"/>
<path d="M1483.72 1266.62C1469.65 1282.63 1454.94 1298.03 1439.62 1312.96C1439.02 1313.54 1438.11 1312.81 1438.64 1312.16C1451.87 1295.45 1466.51 1279.76 1482.77 1265.74C1483.42 1265.13 1484.29 1266 1483.72 1266.62Z" fill="#663F9E"/>
<path d="M1439.63 1265.78C1455.89 1279.8 1470.64 1295.42 1483.76 1312.2C1484.26 1312.85 1483.38 1313.61 1482.78 1313C1467.57 1297.96 1452.71 1282.71 1438.64 1266.69C1438.07 1266 1438.98 1265.2 1439.63 1265.78Z" fill="#663F9E"/>
<path d="M1386.2 1170.84H1193.42V1179.01H1386.2V1170.84Z" fill="#C090F3"/>
<path d="M1309.34 1208.54H1193.42V1216.71H1309.34V1208.54Z" fill="#C090F3"/>
<path d="M1461.58 1220.6C1477.03 1220.6 1489.56 1208.6 1489.56 1193.8C1489.56 1178.99 1477.03 1166.99 1461.58 1166.99C1446.12 1166.99 1433.59 1178.99 1433.59 1193.8C1433.59 1208.6 1446.12 1220.6 1461.58 1220.6Z" fill="#EBD9FF"/>
<path d="M1491.84 1177.6C1486.84 1179.12 1481.94 1181.19 1477.39 1183.81C1469.51 1188.42 1462.42 1194.16 1456.24 1200.88C1455.63 1197.75 1454.34 1194.67 1452.18 1192.05C1450.66 1190.2 1448.73 1188.67 1446.6 1187.51C1445.54 1186.93 1444.4 1186.46 1443.27 1186.06C1442.96 1185.95 1442.7 1185.88 1442.39 1185.81C1440.95 1185.37 1439.44 1186.35 1439.32 1187.8C1439.21 1188.93 1440.01 1189.95 1441.18 1190.24C1441.41 1190.27 1441.6 1190.35 1441.79 1190.38C1442.7 1190.64 1443.61 1190.96 1444.44 1191.36C1446.15 1192.16 1447.7 1193.25 1448.95 1194.63C1451.5 1197.35 1452.86 1201.06 1453.2 1204.98V1205.02C1453.24 1205.49 1453.5 1205.93 1453.92 1206.22C1454.72 1206.76 1455.78 1206.58 1456.35 1205.82C1462.26 1197.9 1469.77 1190.78 1478.3 1185.15C1482.59 1182.32 1487.21 1180.1 1492.07 1178.32C1496.96 1176.54 1502.12 1175.71 1507.35 1175.35C1502.15 1175.49 1496.88 1176.07 1491.84 1177.6Z" fill="#663F9E"/>
<path d="M1195.71 910.443C1195.35 910.443 1194.99 910.394 1194.65 910.297C1194.31 910.196 1194.03 910.066 1193.83 909.907L1194.19 909.1C1194.39 909.245 1194.62 909.362 1194.9 909.45C1195.17 909.539 1195.44 909.583 1195.72 909.583C1196.02 909.583 1196.25 909.539 1196.39 909.45C1196.54 909.358 1196.61 909.237 1196.61 909.087C1196.61 908.976 1196.57 908.886 1196.48 908.815C1196.39 908.74 1196.28 908.681 1196.15 908.637C1196.02 908.593 1195.83 908.544 1195.61 908.491C1195.25 908.407 1194.96 908.324 1194.74 908.24C1194.51 908.156 1194.32 908.022 1194.16 907.836C1194 907.651 1193.92 907.404 1193.92 907.095C1193.92 906.826 1193.99 906.584 1194.14 906.368C1194.28 906.147 1194.5 905.973 1194.79 905.845C1195.09 905.717 1195.45 905.653 1195.87 905.653C1196.17 905.653 1196.45 905.689 1196.74 905.759C1197.02 905.83 1197.27 905.931 1197.48 906.063L1197.15 906.877C1196.72 906.635 1196.29 906.513 1195.86 906.513C1195.56 906.513 1195.34 906.562 1195.2 906.659C1195.05 906.756 1194.98 906.884 1194.98 907.043C1194.98 907.201 1195.07 907.32 1195.23 907.4C1195.4 907.475 1195.65 907.55 1195.99 907.625C1196.34 907.708 1196.63 907.792 1196.86 907.876C1197.08 907.96 1197.27 908.092 1197.43 908.273C1197.59 908.454 1197.68 908.698 1197.68 909.007C1197.68 909.272 1197.6 909.514 1197.45 909.735C1197.31 909.951 1197.08 910.123 1196.79 910.251C1196.49 910.379 1196.13 910.443 1195.71 910.443ZM1199.3 906.606H1197.82V905.733H1201.86V906.606H1200.37V910.363H1199.3V906.606ZM1204.61 910.443C1204.13 910.443 1203.7 910.339 1203.31 910.132C1202.92 909.924 1202.62 909.64 1202.4 909.278C1202.19 908.912 1202.08 908.502 1202.08 908.048C1202.08 907.594 1202.19 907.186 1202.4 906.824C1202.62 906.458 1202.92 906.172 1203.31 905.964C1203.7 905.757 1204.13 905.653 1204.61 905.653C1205.09 905.653 1205.52 905.757 1205.91 905.964C1206.29 906.172 1206.59 906.458 1206.81 906.824C1207.03 907.186 1207.14 907.594 1207.14 908.048C1207.14 908.502 1207.03 908.912 1206.81 909.278C1206.59 909.64 1206.29 909.924 1205.91 910.132C1205.52 910.339 1205.09 910.443 1204.61 910.443ZM1204.61 909.53C1204.88 909.53 1205.13 909.468 1205.35 909.345C1205.57 909.217 1205.74 909.04 1205.87 908.815C1206 908.59 1206.06 908.335 1206.06 908.048C1206.06 907.761 1206 907.506 1205.87 907.281C1205.74 907.056 1205.57 906.882 1205.35 906.758C1205.13 906.63 1204.88 906.566 1204.61 906.566C1204.34 906.566 1204.09 906.63 1203.87 906.758C1203.65 906.882 1203.48 907.056 1203.35 907.281C1203.22 907.506 1203.16 907.761 1203.16 908.048C1203.16 908.335 1203.22 908.59 1203.35 908.815C1203.48 909.04 1203.65 909.217 1203.87 909.345C1204.09 909.468 1204.34 909.53 1204.61 909.53ZM1210.17 910.443C1209.69 910.443 1209.27 910.341 1208.88 910.138C1208.5 909.931 1208.2 909.647 1207.98 909.285C1207.77 908.919 1207.66 908.507 1207.66 908.048C1207.66 907.589 1207.77 907.179 1207.98 906.818C1208.2 906.452 1208.5 906.167 1208.88 905.964C1209.27 905.757 1209.7 905.653 1210.17 905.653C1210.57 905.653 1210.94 905.724 1211.26 905.865C1211.58 906.006 1211.86 906.209 1212.08 906.474L1211.39 907.109C1211.08 906.747 1210.69 906.566 1210.23 906.566C1209.94 906.566 1209.68 906.63 1209.46 906.758C1209.23 906.882 1209.06 907.056 1208.93 907.281C1208.81 907.506 1208.74 907.761 1208.74 908.048C1208.74 908.335 1208.81 908.59 1208.93 908.815C1209.06 909.04 1209.23 909.217 1209.46 909.345C1209.68 909.468 1209.94 909.53 1210.23 909.53C1210.69 909.53 1211.08 909.347 1211.39 908.981L1212.08 909.616C1211.86 909.885 1211.58 910.09 1211.26 910.231C1210.93 910.372 1210.57 910.443 1210.17 910.443ZM1214.49 908.544L1213.87 909.192V910.363H1212.8V905.733H1213.87V907.896L1215.92 905.733H1217.11L1215.19 907.797L1217.22 910.363H1215.97L1214.49 908.544ZM1222.62 909.371H1220.47L1220.06 910.363H1218.96L1221.03 905.733H1222.08L1224.16 910.363H1223.03L1222.62 909.371ZM1222.28 908.557L1221.55 906.785L1220.81 908.557H1222.28ZM1226.6 910.443C1225.93 910.443 1225.42 910.26 1225.05 909.894C1224.68 909.528 1224.5 909.005 1224.5 908.326V905.733H1225.57V908.286C1225.57 909.115 1225.91 909.53 1226.6 909.53C1226.94 909.53 1227.19 909.431 1227.37 909.232C1227.55 909.029 1227.63 908.714 1227.63 908.286V905.733H1228.69V908.326C1228.69 909.005 1228.51 909.528 1228.14 909.894C1227.77 910.26 1227.26 910.443 1226.6 910.443ZM1229.75 905.733H1231.86C1232.36 905.733 1232.8 905.83 1233.19 906.024C1233.57 906.213 1233.87 906.482 1234.09 906.831C1234.3 907.179 1234.41 907.585 1234.41 908.048C1234.41 908.511 1234.3 908.917 1234.09 909.265C1233.87 909.614 1233.57 909.885 1233.19 910.079C1232.8 910.268 1232.36 910.363 1231.86 910.363H1229.75V905.733ZM1231.8 909.483C1232.27 909.483 1232.63 909.356 1232.91 909.1C1233.19 908.84 1233.32 908.489 1233.32 908.048C1233.32 907.607 1233.19 907.259 1232.91 907.003C1232.63 906.743 1232.27 906.613 1231.8 906.613H1230.82V909.483H1231.8ZM1235.22 905.733H1236.29V910.363H1235.22V905.733ZM1238.35 906.606H1236.87V905.733H1240.9V906.606H1239.42V910.363H1238.35V906.606Z" fill="#293E9E"/>
<path d="M1482.34 1494.03H1217.76C1215.15 1494.03 1213.06 1492.03 1213.06 1489.53V1379.61C1213.06 1377.12 1215.15 1375.12 1217.76 1375.12H1482.34C1484.94 1375.12 1487.03 1377.12 1487.03 1379.61V1489.53C1487.03 1492.03 1484.94 1494.03 1482.34 1494.03Z" fill="#EBD9FF"/>
<path d="M1255.79 1452.08H1239V1479.49H1255.79V1452.08Z" fill="url(#paint13_linear_287_2367)"/>
<path d="M1290.03 1422.97H1273.23V1479.49H1290.03V1422.97Z" fill="url(#paint14_linear_287_2367)"/>
<path d="M1324.26 1438.63H1307.46V1479.46H1324.26V1438.63Z" fill="url(#paint15_linear_287_2367)"/>
<path d="M1358.46 1415.32H1341.66V1479.46H1358.46V1415.32Z" fill="url(#paint16_linear_287_2367)"/>
<path d="M1392.69 1398.91H1375.9V1479.49H1392.69V1398.91Z" fill="url(#paint17_linear_287_2367)"/>
<path d="M1426.92 1408.43H1410.13V1479.49H1426.92V1408.43Z" fill="url(#paint18_linear_287_2367)"/>
<path d="M1461.12 1429.14H1444.33V1479.49H1461.12V1429.14Z" fill="url(#paint19_linear_287_2367)"/>
<path d="M817.082 1379.37L806.638 1146.7L947.415 1286.21L817.082 1379.37ZM269.288 1270.64C269.288 1258.51 337.398 1182.02 374.538 1141.2L393.844 1317.81L390.349 1386.78L269.288 1270.64ZM1060.18 1151.92L883.521 952.4L883.115 952.803C876.141 946.214 870.057 940.392 866.963 936.954C805.747 869.074 757.137 846.037 663.503 844.589H663.498L481.46 848.368C447.62 851.02 370.813 837.156 299.768 927.358L299.673 927.181C170.301 1082.52 66.4829 1214.62 72.3206 1276.95C79.7105 1355.84 393.844 1580.78 393.844 1580.78L825.588 1580.41L824.702 1548.93L1010.95 1433.3C1078.15 1389.8 1113.24 1351.83 1121.74 1294.17C1129.28 1243.01 1096.34 1190.25 1060.18 1151.92Z" fill="#7C44E3"/>
<path d="M665.343 1478.92L346.178 1629.98C337.697 1633.99 327.428 1630.66 323.238 1622.54L220.085 1422.59C215.895 1414.48 219.369 1404.64 227.851 1400.63L547.015 1249.56C555.492 1245.56 565.761 1248.89 569.946 1257L673.103 1456.95C677.294 1465.07 673.819 1474.91 665.343 1478.92Z" fill="#DADBD8"/>
<path d="M445.072 1420.84C454.38 1415.38 466.546 1418.18 472.244 1427.08C477.946 1435.99 475.027 1447.64 465.72 1453.11C456.422 1458.56 444.256 1455.77 438.559 1446.86C432.851 1437.95 435.775 1426.3 445.072 1420.84Z" fill="white"/>
<path d="M803.935 980.956C803.98 980.956 804.026 981.464 804.071 982.471C804.101 983.608 804.146 985.08 804.201 986.931C804.261 991.017 804.336 996.762 804.446 1004.07C804.551 1019.13 804.711 1040.62 804.902 1067.11C805.197 1120.33 807.37 1193.83 811.676 1274.93C815.906 1356.06 820.377 1429.49 822.72 1482.69C823.952 1509.28 824.753 1530.81 825.189 1545.69C825.374 1553 825.519 1558.74 825.619 1562.83C825.639 1564.67 825.654 1566.14 825.664 1567.28C825.659 1568.29 825.634 1568.8 825.589 1568.8C825.549 1568.8 825.484 1568.29 825.399 1567.29C825.324 1566.15 825.219 1564.69 825.093 1562.84C824.878 1558.76 824.568 1553.03 824.177 1545.72C823.391 1530.69 822.265 1509.23 820.878 1482.77C817.854 1429.47 813.683 1356.11 809.072 1275.06C804.761 1193.93 802.879 1120.36 803.054 1067.12C803.214 1040.63 803.34 1019.13 803.43 1004.07C803.53 996.762 803.615 991.017 803.67 986.931C803.725 985.08 803.77 983.608 803.805 982.471C803.85 981.464 803.89 980.956 803.935 980.956Z" fill="black"/>
<path d="M354.363 876.621C377.409 860.59 404.175 865.438 427.25 881.426C450.321 897.414 463.163 924.59 465.476 951.776C467.789 978.966 460.555 1006.2 449.715 1031.42C432.347 1071.85 406.633 1104.56 368.242 1146.21L269.29 1270.64L460.244 1449.21L381.114 1568.8L221.181 1445.55C166.589 1401.37 120.117 1356.18 85.9961 1309.48L354.363 876.621Z" fill="#7C44E3"/>
<path d="M85.9961 1309.48C85.9961 1309.48 86.4217 1309.94 87.1827 1310.9C87.9788 1311.93 89.0902 1313.36 90.5322 1315.22C93.4761 1319.04 97.8668 1324.67 103.845 1331.81C115.701 1346.15 133.975 1366.46 159.083 1390.3C171.645 1402.22 185.909 1415.01 201.83 1428.45C217.621 1442.01 235.66 1455.53 254.701 1470.17C292.786 1499.44 335.538 1532.31 381.86 1567.92L380.118 1568.19C404.68 1531.02 431.351 1490.65 459.168 1448.55L459.353 1450.08C427.536 1420.34 394.582 1389.54 360.832 1357.99C329.19 1328.39 298.249 1299.44 268.394 1271.52L267.583 1270.76L268.269 1269.89C303.2 1226.03 336.429 1184.3 367.301 1145.53L367.331 1145.49L367.356 1145.46C386.702 1124.5 404.71 1103.81 419.64 1082.58C434.65 1061.41 446.065 1039.47 454.041 1017.89C461.997 996.33 465.977 974.808 464.825 954.964C463.774 935.121 457.31 917.281 447.943 903.437C438.566 889.487 425.984 880.078 413.988 874.3C401.972 868.402 390.251 866.618 380.999 867.299C371.687 868.076 364.937 870.857 360.707 873.044C356.436 875.235 354.448 876.741 354.363 876.621C354.363 876.621 354.849 876.237 355.865 875.556C356.897 874.904 358.349 873.787 360.527 872.722C364.722 870.416 371.496 867.486 380.934 866.579C390.316 865.774 402.257 867.481 414.478 873.355C426.66 879.1 439.517 888.586 449.125 902.694C458.717 916.696 465.361 934.751 466.528 954.868C467.789 974.98 463.839 996.756 455.888 1018.51C447.938 1040.27 436.498 1062.41 421.453 1083.74C406.488 1105.14 388.464 1125.93 369.128 1146.95L369.178 1146.89C338.357 1185.7 305.178 1227.48 270.306 1271.38L270.186 1269.76C300.051 1297.68 331.002 1326.62 362.654 1356.2C396.389 1387.76 429.328 1418.58 461.135 1448.33L461.877 1449.02L461.326 1449.86C433.454 1491.92 406.728 1532.26 382.115 1569.41L381.409 1570.48L380.373 1569.69C334.132 1533.97 291.46 1500.99 253.449 1471.63C234.469 1456.94 216.46 1443.34 200.689 1429.68C184.808 1416.16 170.589 1403.28 158.082 1391.27C133.069 1367.24 114.935 1346.76 103.254 1332.26C97.3612 1325.05 93.0655 1319.33 90.2217 1315.44C88.8399 1313.53 87.7835 1312.07 87.0225 1311.01C86.3115 1310.01 85.9961 1309.48 85.9961 1309.48Z" fill="black"/>
<path d="M1015.83 1282.76C1015.64 1283.13 1011.95 1281.58 1005.81 1279.8C999.67 1278.05 990.919 1276.31 981.196 1276.76C971.468 1277.27 962.956 1279.87 957.049 1282.24C951.136 1284.64 947.641 1286.56 947.416 1286.21C947.26 1285.98 950.42 1283.51 956.283 1280.64C962.12 1277.79 970.912 1274.79 981.061 1274.27C991.214 1273.79 1000.27 1275.9 1006.39 1278.12C1012.54 1280.38 1015.96 1282.52 1015.83 1282.76Z" fill="black"/>
<path d="M499.418 1563.22C494.411 1565.62 479.005 1572.95 464.676 1579.76C447.448 1587.95 426.811 1585.74 411.896 1574.1L390.152 1557.14L450.217 1466.65C457.277 1469.6 486.275 1473.53 496.294 1476.92C504.96 1479.86 514.112 1481.28 523.304 1481.27C533.017 1481.25 545.519 1480.79 553.87 1478.86C554.556 1478.63 555.422 1478.44 556.023 1478.18C557.465 1477.56 558.887 1477.37 560.284 1477.35C568.88 1476.62 575.679 1485.21 570.873 1492.01C565.946 1498.97 542.61 1507.84 512.68 1507.03C512.21 1507.03 511.769 1507.09 511.288 1507.09C484.998 1507.05 509.111 1528.16 524.691 1540.66C530.179 1545.07 533.293 1551.85 532.211 1558.63C531.796 1561.24 530.779 1563.57 528.707 1564.82C522.063 1568.81 499.418 1563.22 499.418 1563.22Z" fill="#FFA698"/>
<path d="M579.815 927.919C533.759 927.919 492.344 890.323 492.739 834.326L484.453 515.353L485.385 515.497C485.104 501.662 495.923 489.918 510.288 488.46L647.565 474.553C694.863 469.762 736.729 503.7 739.723 549.165C743.042 599.681 745.025 661.475 738.777 699.167C726.21 774.954 665.564 784.593 665.564 784.593L667.046 837.539C669.374 893.962 625.301 927.919 579.815 927.919Z" fill="#FFA698"/>
<path d="M709.038 590.286C709.228 595.417 704.847 599.805 699.255 600.093C693.672 600.376 688.981 596.463 688.791 591.332C688.606 586.196 692.986 581.803 698.564 581.52C704.161 581.228 708.847 585.155 709.038 590.286Z" fill="black"/>
<path d="M725.728 581.314C724.471 582.58 716.786 577.132 705.862 577.161C694.957 577.037 686.941 582.412 685.76 581.137C685.179 580.571 686.456 578.279 689.95 575.847C693.38 573.421 699.238 571.066 706.042 571.095C712.846 571.133 718.563 573.531 721.858 575.986C725.212 578.451 726.349 580.748 725.728 581.314Z" fill="black"/>
<path d="M603.632 592.238C603.822 597.369 599.441 601.762 593.844 602.045C588.266 602.332 583.58 598.415 583.385 593.284C583.195 588.152 587.581 583.76 593.163 583.467C598.755 583.179 603.442 587.107 603.632 592.238Z" fill="black"/>
<path d="M618.395 583.262C617.133 584.533 609.438 579.085 598.523 579.114C587.619 578.984 579.603 584.37 578.416 583.089C577.836 582.523 579.107 580.231 582.607 577.8C586.042 575.378 591.904 573.019 598.703 573.048C605.503 573.086 611.225 575.484 614.515 577.939C617.864 580.404 619.011 582.696 618.395 583.262Z" fill="black"/>
<path d="M658.018 660.833C657.968 660.233 664.752 659.111 675.757 657.764C678.54 657.49 681.184 656.958 681.65 655.136C682.31 653.203 681.144 650.326 679.787 647.218C677.169 640.754 674.425 633.983 671.546 626.886C660.096 597.931 651.8 574.122 653.027 573.685C654.248 573.254 664.522 596.372 675.972 625.332C678.726 632.472 681.364 639.277 683.873 645.789C684.924 648.825 686.741 652.268 685.32 656.272C684.563 658.267 682.516 659.71 680.733 660.176C678.941 660.698 677.374 660.727 675.997 660.804C664.927 661.375 658.058 661.422 658.018 660.833Z" fill="black"/>
<path d="M665.565 784.593C665.565 784.593 612.334 787.883 559.594 757.523C559.594 757.523 587.01 814.55 666.201 807.453L665.565 784.593Z" fill="#C58175"/>
<path d="M623.303 564.952C622.222 567.791 611.322 566.443 598.51 567.925C585.673 569.158 575.339 572.754 573.637 570.198C572.881 568.98 574.678 566.304 578.859 563.552C582.994 560.799 589.608 558.191 597.299 557.371C604.984 556.565 612.028 557.735 616.695 559.552C621.396 561.37 623.764 563.6 623.303 564.952Z" fill="black"/>
<path d="M721.708 551.04C719.791 553.414 712.27 550.949 703.223 550.834C694.181 550.412 686.516 552.431 684.754 549.947C683.978 548.739 685.184 546.36 688.534 544.111C691.833 541.872 697.346 540.04 703.564 540.217C709.782 540.409 715.169 542.562 718.314 544.993C721.508 547.434 722.559 549.885 721.708 551.04Z" fill="black"/>
<path d="M485.417 587.835C498.86 585.519 509.63 589.49 513.415 602.059C519.117 620.986 515.227 630.352 516.199 643.4C522.857 641.487 529.516 639.569 536.17 637.66C531.208 593.964 542.534 561.628 537.567 517.937C565.394 526.559 603.64 510.097 615.521 482.465C638.797 499.374 672.632 501.652 698.141 488.028C705.496 501.393 722.313 505.905 732.136 503.258C747.326 499.172 763.062 478.73 767.413 464.209C775.253 438.069 771.428 400.573 749.304 383.53C727.174 366.487 682.8 370.578 665.567 392.191C658.763 400.722 657.967 416.509 646.988 418.671C637.255 420.585 628.388 413.665 619.476 409.45C591.679 396.291 553.313 413.77 546.434 442.73C523.193 429.466 495.075 420.796 469.071 427.951C443.071 435.105 422.369 462.679 431.21 487.17C434.9 497.398 443.121 506.236 444.027 517.026C445.77 537.891 419.67 556.785 428.001 576.135C432.662 586.963 446.33 591.768 452.504 601.877C459.418 613.199 455.132 627.451 455.698 640.552C456.634 662.424 468.3 694.793 490.209 701.013" fill="black"/>
<path d="M487.41 587.577C479.269 588.325 475.384 593.457 472.285 599.149C469.19 604.836 468.189 611.382 468.199 617.803C468.219 627.773 470.823 638.14 477.752 645.588C484.676 653.03 496.557 656.713 505.974 652.479" fill="#FFA698"/>
<path d="M501.072 636.002C501.183 636.246 498.124 637.316 493.473 635.714C491.204 634.918 488.646 633.374 486.618 630.909C484.601 628.449 483.224 625.14 482.959 621.572C482.663 618.009 483.474 614.552 485.011 611.818C486.528 609.075 488.631 607.061 490.614 605.762C494.684 603.143 497.888 603.321 497.863 603.59C497.968 603.988 495.08 604.472 491.73 607.167C488.396 609.752 484.946 615.036 485.557 621.385C485.937 627.754 490.278 632.424 494.203 634.088C498.119 635.92 501.067 635.585 501.072 636.002Z" fill="#C58175"/>
<path d="M623.254 697.877C633.027 704.461 652.192 700.975 659.307 691.25C644.056 683.285 629.943 673.329 617.481 661.744C617.481 661.744 603.262 684.416 623.254 697.877Z" fill="#FAFAF9"/>
<path d="M655.639 720.013C655.198 720.603 650.172 717.068 642.922 717.135C635.668 717.011 630.611 720.497 630.175 719.902C629.97 719.667 630.941 718.411 633.174 717.102C635.377 715.793 638.912 714.627 642.932 714.637C646.953 714.656 650.477 715.855 652.665 717.183C654.883 718.512 655.849 719.782 655.639 720.013Z" fill="#B85549"/>
<defs>
<linearGradient id="paint0_linear_287_2367" x1="785.724" y1="0" x2="785.724" y2="1579.99" gradientUnits="userSpaceOnUse">
<stop stop-color="#CEB0FF"/>
<stop offset="1" stop-color="#9B1FFC"/>
</linearGradient>
<linearGradient id="paint1_linear_287_2367" x1="1355.67" y1="1209.6" x2="1355.67" y2="1583.16" gradientUnits="userSpaceOnUse">
<stop stop-color="#9972FF"/>
<stop offset="1" stop-color="#7F85FF"/>
</linearGradient>
<linearGradient id="paint2_linear_287_2367" x1="1510.48" y1="1484.31" x2="1510.48" y2="1532.22" gradientUnits="userSpaceOnUse">
<stop stop-color="#9972FF"/>
<stop offset="1" stop-color="#7F85FF"/>
</linearGradient>
<linearGradient id="paint3_linear_287_2367" x1="1088.15" y1="837.747" x2="1088.15" y2="1211.31" gradientUnits="userSpaceOnUse">
<stop stop-color="#9972FF"/>
<stop offset="1" stop-color="#7F85FF"/>
</linearGradient>
<linearGradient id="paint4_linear_287_2367" x1="1242.96" y1="1112.47" x2="1242.96" y2="1160.37" gradientUnits="userSpaceOnUse">
<stop stop-color="#9972FF"/>
<stop offset="1" stop-color="#7F85FF"/>
</linearGradient>
<linearGradient id="paint5_linear_287_2367" x1="674.236" y1="837.747" x2="674.236" y2="1211.31" gradientUnits="userSpaceOnUse">
<stop stop-color="#9972FF"/>
<stop offset="1" stop-color="#7F85FF"/>
</linearGradient>
<linearGradient id="paint6_linear_287_2367" x1="829.039" y1="1112.47" x2="829.039" y2="1160.37" gradientUnits="userSpaceOnUse">
<stop stop-color="#9972FF"/>
<stop offset="1" stop-color="#7F85FF"/>
</linearGradient>
<linearGradient id="paint7_linear_287_2367" x1="1001.04" y1="464.18" x2="1001.04" y2="837.747" gradientUnits="userSpaceOnUse">
<stop stop-color="#9972FF"/>
<stop offset="1" stop-color="#7F85FF"/>
</linearGradient>
<linearGradient id="paint8_linear_287_2367" x1="1155.84" y1="738.898" x2="1155.84" y2="786.807" gradientUnits="userSpaceOnUse">
<stop stop-color="#9972FF"/>
<stop offset="1" stop-color="#7F85FF"/>
</linearGradient>
<linearGradient id="paint9_linear_287_2367" x1="945.294" y1="1209.6" x2="945.294" y2="1583.16" gradientUnits="userSpaceOnUse">
<stop stop-color="#9972FF"/>
<stop offset="1" stop-color="#7F85FF"/>
</linearGradient>
<linearGradient id="paint10_linear_287_2367" x1="1100.1" y1="1484.31" x2="1100.1" y2="1532.22" gradientUnits="userSpaceOnUse">
<stop stop-color="#9972FF"/>
<stop offset="1" stop-color="#7F85FF"/>
</linearGradient>
<linearGradient id="paint11_linear_287_2367" x1="529.688" y1="1209.6" x2="529.688" y2="1583.16" gradientUnits="userSpaceOnUse">
<stop stop-color="#9972FF"/>
<stop offset="1" stop-color="#7F85FF"/>
</linearGradient>
<linearGradient id="paint12_linear_287_2367" x1="684.491" y1="1484.31" x2="684.491" y2="1532.22" gradientUnits="userSpaceOnUse">
<stop stop-color="#9972FF"/>
<stop offset="1" stop-color="#7F85FF"/>
</linearGradient>
<linearGradient id="paint13_linear_287_2367" x1="1247.4" y1="1448.31" x2="1247.4" y2="1486.17" gradientUnits="userSpaceOnUse">
<stop stop-color="#9972FF"/>
<stop offset="1" stop-color="#7F85FF"/>
</linearGradient>
<linearGradient id="paint14_linear_287_2367" x1="1281.62" y1="1409.05" x2="1281.62" y2="1477.51" gradientUnits="userSpaceOnUse">
<stop stop-color="#294698"/>
<stop offset="1" stop-color="#0E4BA6"/>
</linearGradient>
<linearGradient id="paint15_linear_287_2367" x1="1315.84" y1="1439.13" x2="1315.84" y2="1480.43" gradientUnits="userSpaceOnUse">
<stop stop-color="#9972FF"/>
<stop offset="1" stop-color="#7F85FF"/>
</linearGradient>
<linearGradient id="paint16_linear_287_2367" x1="1350.06" y1="1409.05" x2="1350.06" y2="1477.51" gradientUnits="userSpaceOnUse">
<stop stop-color="#294698"/>
<stop offset="1" stop-color="#0E4BA6"/>
</linearGradient>
<linearGradient id="paint17_linear_287_2367" x1="1384.28" y1="1399.99" x2="1384.28" y2="1479.9" gradientUnits="userSpaceOnUse">
<stop stop-color="#9972FF"/>
<stop offset="1" stop-color="#7F85FF"/>
</linearGradient>
<linearGradient id="paint18_linear_287_2367" x1="1418.51" y1="1409.05" x2="1418.51" y2="1477.51" gradientUnits="userSpaceOnUse">
<stop stop-color="#294698"/>
<stop offset="1" stop-color="#0E4BA6"/>
</linearGradient>
<linearGradient id="paint19_linear_287_2367" x1="1452.72" y1="1428.06" x2="1452.72" y2="1476.16" gradientUnits="userSpaceOnUse">
<stop stop-color="#9972FF"/>
<stop offset="1" stop-color="#7F85FF"/>
</linearGradient>
</defs>
</svg>
