<svg width="534" height="397" viewBox="0 0 534 397" fill="none" xmlns="http://www.w3.org/2000/svg">
<path d="M445.957 346.449C445.826 346.132 445.66 345.829 445.457 345.547C444.494 344.199 442.83 343.477 441.182 343.477C440.03 343.477 438.885 343.829 437.991 344.565C441.81 339.395 447.713 316.477 429.57 306.376C421.873 302.091 414.8 300.451 408.67 300.451C396.692 300.451 388.312 306.714 385.874 311.754C384.568 306.533 379.992 302.197 375.425 299.577V81.1303C375.425 74.9317 370.4 69.9072 364.202 69.9072H334.967C333.485 68.0684 331.213 66.8932 328.666 66.8932H280.708C280.708 63.3399 280.708 56.5894 280.708 54.3911C280.708 48.0382 275.557 42.8892 269.204 42.8892C263.008 42.8892 257.955 47.7893 257.712 53.9268C257.712 53.9291 257.712 53.9315 257.712 53.9337C257.712 53.9418 257.711 53.9499 257.711 53.9579C257.711 53.9614 257.711 53.9637 257.711 53.9671C257.709 53.9752 257.709 53.9833 257.709 53.9902C257.709 53.9937 257.709 53.9971 257.709 53.9994C257.708 54.0155 257.708 54.0317 257.707 54.0478C257.707 54.0501 257.707 54.0524 257.707 54.0536C257.707 54.0593 257.707 54.0663 257.707 54.072C257.707 54.0778 257.707 54.0824 257.706 54.0881C257.706 54.0927 257.706 54.0997 257.706 54.1054C257.706 54.1112 257.706 54.1158 257.706 54.1216C257.706 54.1273 257.706 54.1331 257.705 54.1388C257.705 54.1446 257.705 54.1515 257.705 54.1573C257.705 54.1619 257.705 54.1676 257.705 54.1722C257.705 54.1803 257.705 54.1884 257.704 54.1953C257.704 54.1999 257.704 54.2045 257.704 54.2091C257.704 54.2195 257.704 54.2287 257.704 54.2402C257.704 54.2437 257.704 54.2483 257.704 54.2517C257.704 54.2586 257.704 54.2667 257.704 54.2736C257.704 54.2782 257.702 54.2828 257.702 54.2874C257.702 54.2955 257.702 54.3024 257.702 54.3093C257.702 54.3139 257.702 54.3185 257.702 54.322C257.702 54.3301 257.702 54.337 257.702 54.3451C257.702 54.3485 257.702 54.3531 257.702 54.3566C257.702 54.3681 257.702 54.3796 257.702 54.3911V66.8932H205.374C202.835 66.8932 200.563 68.0672 199.08 69.9072H169.843C163.644 69.9072 158.62 74.9317 158.62 81.1303V269.816C141.272 246.885 129.068 220.071 123.896 191.785L122.316 192.075C127.669 221.31 140.448 248.972 158.62 272.459V294.541C156.724 296.381 155.33 298.626 154.735 301.281C153.898 305.012 154.191 309.962 150.659 311.427C150.095 311.661 149.534 311.763 148.975 311.763C146.107 311.763 143.286 309.107 140.318 308.111C139.6 307.871 138.869 307.759 138.145 307.759C132.902 307.759 127.914 313.6 129.664 318.785C130.569 321.469 132.841 323.807 132.652 326.633C132.425 330.033 128.687 331.995 125.192 331.995C124.73 331.995 124.272 331.961 123.827 331.892C120.016 331.294 116.651 329.068 112.913 328.117C112.022 327.89 111.069 327.772 110.116 327.772C107.068 327.772 104.02 328.984 103.02 331.747C101.844 334.998 103.874 339.366 101.321 341.698C100.226 342.696 98.6432 342.902 97.1696 343.042C92.236 343.51 87.2291 344.042 82.2942 344.628C72.6135 344.683 65.6578 344.719 62.2176 344.719C36.7581 344.719 -0.651687 342.773 6.47 319.739C16.9699 285.781 75.8445 270.747 66.2258 244.551C57.5028 220.795 73.5515 199.863 95.467 182.316C117.428 164.733 141.411 168.27 131.244 120.64C119.831 67.1651 158.999 69.0419 181.229 48.3447C213.719 18.096 230.159 0.919739 265.795 0.0302734C266.58 0.0106812 267.369 0.000274658 268.179 0.000274658C318.355 0.000274658 414.838 37.5513 427.326 84.5856C433.104 106.346 432.721 131.871 453.901 145.286C463.197 151.173 473.609 153.717 484.054 157.419C505.309 164.952 514.144 181.376 513.9 197.5C513.303 236.927 486.189 238.108 494.719 268.705C500.675 290.073 520.365 301.019 512.746 322.059C506.055 340.542 475.085 345.56 445.957 346.449ZM441.599 175.804L427.004 256.615L437.399 258.492L451.43 180.802L451.436 180.803L451.998 177.69L451.992 177.689L451.993 177.682L453.545 169.089C453.559 169.01 453.566 168.93 453.567 168.851C453.568 168.211 453.111 167.642 452.459 167.524L444.715 166.126C444.635 166.111 444.554 166.104 444.475 166.104C443.835 166.104 443.268 166.561 443.151 167.212L441.599 175.804ZM269.204 60.9918C265.641 60.9918 262.752 58.1034 262.752 54.5386C262.752 51.2688 265.183 48.5682 268.336 48.143C268.303 48.1569 268.27 48.1695 268.235 48.1833C268.555 48.1349 268.873 48.0854 269.204 48.0854C269.643 48.0854 270.072 48.1292 270.486 48.2121C273.436 48.8066 275.659 51.4128 275.659 54.5386C275.659 56.5019 274.55 58.4479 273.168 59.6311C273.169 59.6311 273.169 59.6311 273.17 59.6311C272.076 60.4837 270.7 60.9918 269.204 60.9918Z" fill="#EEFAFE"/>
<path d="M522.259 258.859C503.934 301.512 468.603 336.35 426.26 355.228L426.915 356.693C469.619 337.648 505.233 302.541 523.734 259.493L522.259 258.859Z" fill="#CAEEFC"/>
<path d="M517.591 270.576C524.021 265.224 528.422 257.491 529.74 249.23C530.062 247.205 530.128 244.898 528.767 243.365C528.393 242.943 527.899 242.595 527.337 242.539C526.434 242.446 525.639 243.111 525.035 243.79C521.838 247.383 520.727 252.355 520.179 257.135C519.629 261.914 518.583 265.421 517.591 270.576Z" fill="#CAEEFC"/>
<path d="M508.85 285.174C512.63 277.711 513.602 268.867 511.535 260.761C511.028 258.773 510.175 256.63 508.316 255.763C507.806 255.523 507.213 255.4 506.677 255.57C505.811 255.845 505.345 256.77 505.06 257.632C503.55 262.2 504.502 267.204 505.893 271.809C507.285 276.415 507.716 280.048 508.85 285.174Z" fill="#CAEEFC"/>
<path d="M495.983 303.132C500.647 296.187 502.694 287.528 501.633 279.229C501.374 277.196 500.788 274.964 499.05 273.875C498.573 273.577 497.999 273.381 497.446 273.485C496.553 273.651 495.977 274.512 495.589 275.333C493.532 279.682 493.865 284.764 494.683 289.505C495.502 294.246 495.485 297.906 495.983 303.132Z" fill="#CAEEFC"/>
<path d="M481.198 318.866C485.862 311.921 487.909 303.263 486.848 294.964C486.589 292.93 486.002 290.698 484.265 289.61C483.787 289.31 483.214 289.115 482.66 289.218C481.768 289.385 481.192 290.247 480.804 291.067C478.746 295.415 479.08 300.499 479.898 305.24C480.716 309.981 480.699 313.64 481.198 318.866Z" fill="#CAEEFC"/>
<path d="M459.051 337.025C464.409 330.601 467.342 322.201 467.146 313.837C467.099 311.787 466.747 309.506 465.131 308.243C464.687 307.897 464.138 307.643 463.576 307.688C462.671 307.762 462.01 308.558 461.538 309.335C459.042 313.447 458.847 318.537 459.17 323.337C459.491 328.138 459.096 331.775 459.051 337.025Z" fill="#CAEEFC"/>
<path d="M441.7 348.624C446.971 342.905 450.374 334.926 451.095 326.602C451.272 324.561 451.213 322.255 449.963 320.804C449.62 320.406 449.176 320.086 448.69 320.062C447.907 320.024 447.257 320.734 446.77 321.447C444.195 325.223 443.488 330.251 443.255 335.054C443.021 339.858 442.297 343.42 441.7 348.624Z" fill="#CAEEFC"/>
<path d="M504.469 291.603C512.954 293.002 522.108 291.246 529.738 286.755C531.608 285.655 533.546 284.167 533.942 282.094C534.05 281.523 534.023 280.909 533.713 280.438C533.214 279.68 532.163 279.508 531.222 279.494C526.235 279.421 521.442 281.877 517.164 284.64C512.885 287.403 509.338 288.933 504.469 291.603Z" fill="#CAEEFC"/>
<path d="M494.073 305.19C501.979 308.574 511.287 309.054 519.768 306.515C521.847 305.891 524.084 304.911 524.963 302.991C525.205 302.464 525.325 301.86 525.137 301.329C524.834 300.473 523.854 300.056 522.943 299.817C518.118 298.556 512.877 299.798 508.063 301.459C503.249 303.119 499.438 303.759 494.073 305.19Z" fill="#CAEEFC"/>
<path d="M478.542 321.037C485.612 325.935 494.636 328.267 503.454 327.475C505.614 327.282 508.003 326.767 509.248 325.063C509.591 324.594 509.829 324.027 509.751 323.469C509.625 322.569 508.748 321.965 507.903 321.55C503.429 319.347 498.046 319.515 492.997 320.18C487.947 320.845 484.086 320.709 478.542 321.037Z" fill="#CAEEFC"/>
<path d="M456.819 339.337C464.798 342.544 474.115 342.816 482.538 340.089C484.601 339.421 486.817 338.39 487.653 336.452C487.884 335.918 487.99 335.312 487.789 334.786C487.468 333.937 486.478 333.541 485.563 333.324C480.71 332.169 475.499 333.527 470.723 335.295C465.947 337.062 462.151 337.786 456.819 339.337Z" fill="#CAEEFC"/>
<path d="M439.254 349.825C444.935 356.281 453.132 360.719 461.88 362.075C464.024 362.407 466.465 362.484 468.085 361.129C468.53 360.757 468.899 360.264 468.958 359.704C469.052 358.8 468.347 358.002 467.627 357.396C463.814 354.18 458.549 353.047 453.489 352.475C448.427 351.904 444.713 350.841 439.254 349.825Z" fill="#CAEEFC"/>
<path d="M418.885 169.031C418.659 169.019 418.473 168.84 418.456 168.608L418.295 166.317C418.277 166.067 418.466 165.849 418.717 165.832C418.965 165.808 419.184 166.002 419.202 166.253L419.363 168.545C419.381 168.795 419.193 169.013 418.942 169.03L418.885 169.031Z" fill="#639FD7"/>
<path d="M429.181 273.178L423.124 273.604L416.385 175.95L419.413 175.737L422.442 175.525L429.181 273.178Z" fill="#CAEEFC"/>
<path d="M419.459 167.628L418.236 167.715L416.385 175.95L422.442 175.525L419.459 167.628Z" fill="#CAEEFC"/>
<path d="M122.316 192.075C133.142 251.204 174.331 303.879 229.104 328.644L229.766 327.18C175.49 302.654 134.609 250.374 123.896 191.786L122.316 192.075Z" fill="#CAEEFC"/>
<path d="M125.833 204.248C120.759 197.597 118.193 189.076 118.751 180.73C118.888 178.684 119.338 176.421 121.007 175.23C121.465 174.902 122.025 174.672 122.585 174.743C123.485 174.854 124.112 175.679 124.549 176.475C126.866 180.692 126.839 185.785 126.309 190.567C125.778 195.349 126.015 199.001 125.833 204.248Z" fill="#CAEEFC"/>
<path d="M131.102 220.429C129.081 212.311 130.104 203.471 133.927 196.031C134.864 194.207 136.175 192.308 138.178 191.876C138.729 191.757 139.335 191.768 139.82 192.055C140.604 192.514 140.85 193.52 140.937 194.425C141.391 199.214 139.347 203.879 136.963 208.058C134.58 212.238 133.35 215.684 131.102 220.429Z" fill="#CAEEFC"/>
<path d="M139.638 240.803C136.64 232.992 136.575 224.095 139.46 216.242C140.166 214.317 141.235 212.272 143.172 211.599C143.704 211.414 144.305 211.351 144.823 211.575C145.656 211.937 146.025 212.905 146.22 213.791C147.256 218.489 145.798 223.37 143.944 227.809C142.089 232.248 141.289 235.82 139.638 240.803Z" fill="#CAEEFC"/>
<path d="M150.544 259.438C147.546 251.628 147.482 242.73 150.365 234.877C151.073 232.953 152.141 230.908 154.078 230.234C154.61 230.048 155.212 229.986 155.729 230.211C156.562 230.571 156.93 231.539 157.126 232.426C158.162 237.125 156.703 242.004 154.85 246.445C152.995 250.884 152.195 254.454 150.544 259.438Z" fill="#CAEEFC"/>
<path d="M168.084 282.076C164.293 274.619 163.307 265.777 165.363 257.667C165.866 255.679 166.718 253.535 168.574 252.664C169.084 252.424 169.676 252.3 170.214 252.469C171.08 252.742 171.547 253.666 171.833 254.528C173.35 259.094 172.406 264.099 171.021 268.707C169.636 273.314 169.211 276.949 168.084 282.076Z" fill="#CAEEFC"/>
<path d="M182.412 297.254C178.55 290.503 177.011 281.967 178.164 273.691C178.447 271.662 179.019 269.427 180.56 268.291C180.984 267.979 181.487 267.767 181.966 267.852C182.738 267.99 183.214 268.827 183.529 269.63C185.197 273.885 184.766 278.944 183.923 283.679C183.079 288.413 182.992 292.047 182.412 297.254Z" fill="#CAEEFC"/>
<path d="M133.938 227.671C125.353 227.143 116.821 223.389 110.385 217.312C108.808 215.822 107.25 213.94 107.326 211.83C107.347 211.25 107.512 210.657 107.919 210.266C108.574 209.639 109.636 209.707 110.557 209.902C115.435 210.942 119.559 214.406 123.114 218.053C126.67 221.699 129.786 223.982 133.938 227.671Z" fill="#CAEEFC"/>
<path d="M141.042 243.235C132.58 244.771 123.399 243.163 115.698 238.797C113.81 237.727 111.848 236.272 111.419 234.204C111.301 233.636 111.318 233.02 111.62 232.544C112.106 231.778 113.155 231.591 114.096 231.561C119.08 231.406 123.913 233.785 128.235 236.478C132.558 239.171 136.13 240.643 141.042 243.235Z" fill="#CAEEFC"/>
<path d="M152.648 262.146C144.664 265.343 135.348 265.604 126.929 262.867C124.865 262.196 122.652 261.163 121.818 259.223C121.589 258.69 121.483 258.084 121.683 257.557C122.006 256.709 122.995 256.315 123.911 256.098C128.764 254.949 133.974 256.313 138.749 258.087C143.523 259.861 147.317 260.589 152.648 262.146Z" fill="#CAEEFC"/>
<path d="M169.744 284.829C161.25 286.175 152.106 284.364 144.506 279.827C142.641 278.715 140.713 277.217 140.329 275.141C140.224 274.57 140.255 273.956 140.568 273.487C141.071 272.731 142.123 272.566 143.064 272.558C148.052 272.514 152.829 275 157.091 277.788C161.354 280.577 164.891 282.128 169.744 284.829Z" fill="#CAEEFC"/>
<path d="M184.53 298.968C177.551 303.995 168.573 306.493 159.741 305.865C157.578 305.71 155.18 305.24 153.903 303.559C153.552 303.097 153.303 302.534 153.371 301.975C153.481 301.073 154.346 300.453 155.182 300.022C159.617 297.737 165.001 297.807 170.062 298.377C175.123 298.948 178.981 298.741 184.53 298.968Z" fill="#CAEEFC"/>
<path d="M17.006 274.918C19.651 274.797 22.297 274.737 24.9424 274.737C81.8021 274.732 138.235 302.396 172.723 347.668L173.999 346.696C139.184 301.009 82.3205 273.136 24.9424 273.132C22.2731 273.132 19.6024 273.193 16.9331 273.314L17.006 274.918Z" fill="#CAEEFC"/>
<path d="M29.585 274.007C21.9641 270.555 13.0859 269.97 5.07747 272.388C3.11432 272.982 1.01025 273.929 0.224486 275.822C0.0084573 276.342 -0.0897058 276.939 0.103856 277.469C0.415744 278.322 1.35993 278.747 2.23349 278.993C6.86285 280.303 11.8207 279.134 16.361 277.543C20.9016 275.952 24.5133 275.363 29.585 274.007Z" fill="#CAEEFC"/>
<path d="M46.5352 275.506C38.1709 275.359 29.7881 278.342 23.3954 283.739C21.8288 285.062 20.2729 286.766 20.3022 288.815C20.3102 289.379 20.4569 289.966 20.8445 290.375C21.4692 291.034 22.5047 291.051 23.4048 290.931C28.1741 290.297 32.2612 287.258 35.7982 283.996C39.3356 280.734 42.4176 278.762 46.5352 275.506Z" fill="#CAEEFC"/>
<path d="M68.3062 279.249C60.0224 278.082 51.3381 280.016 44.3338 284.591C42.6169 285.712 40.8643 287.214 40.6429 289.252C40.582 289.812 40.6559 290.413 40.9903 290.866C41.5299 291.597 42.5556 291.738 43.4634 291.73C48.2745 291.684 52.7027 289.167 56.6118 286.362C60.5216 283.558 63.8213 281.977 68.3062 279.249Z" fill="#CAEEFC"/>
<path d="M88.9131 285.688C80.6294 284.521 71.945 286.457 64.9407 291.032C63.2238 292.153 61.4713 293.653 61.2498 295.692C61.189 296.252 61.2628 296.854 61.5976 297.306C62.1369 298.037 63.1625 298.179 64.0707 298.171C68.8814 298.124 73.3096 295.607 77.2188 292.803C81.1285 289.998 84.4284 288.418 88.9131 285.688Z" fill="#CAEEFC"/>
<path d="M114.915 297.697C106.797 295.677 97.9589 296.704 90.5181 300.528C88.6945 301.464 86.7957 302.775 86.3645 304.78C86.2457 305.332 86.2574 305.937 86.5432 306.422C87.0036 307.204 88.0095 307.452 88.9131 307.537C93.7032 307.99 98.3679 305.945 102.547 303.561C106.726 301.176 110.172 299.946 114.915 297.697Z" fill="#CAEEFC"/>
<path d="M132.922 308.25C125.476 306.002 116.812 306.42 109.007 309.403C107.093 310.133 105.045 311.193 104.283 312.95C104.075 313.433 103.981 313.971 104.172 314.419C104.479 315.141 105.402 315.416 106.255 315.543C110.776 316.213 115.609 314.655 120.033 312.771C124.457 310.884 127.978 309.984 132.922 308.25Z" fill="#CAEEFC"/>
<path d="M54.2296 276.644C51.7867 268.398 46.2127 260.927 38.8439 256.021C37.0378 254.818 34.8545 253.723 32.8158 254.271C32.2551 254.422 31.714 254.715 31.4256 255.2C30.9602 255.979 31.2654 256.999 31.6632 257.852C33.7718 262.372 38.0734 265.613 42.4255 268.257C46.7781 270.902 49.7025 273.427 54.2296 276.644Z" fill="#CAEEFC"/>
<path d="M70.9918 280.069C70.5876 271.479 66.9583 262.893 60.9738 256.371C59.5071 254.772 57.6479 253.186 55.5371 253.232C54.957 253.245 54.3616 253.4 53.9655 253.801C53.3277 254.448 53.3804 255.511 53.5631 256.434C54.5316 261.327 57.9354 265.5 61.5305 269.108C65.1257 272.716 67.3629 275.865 70.9918 280.069Z" fill="#CAEEFC"/>
<path d="M92.0258 287.13C93.3491 278.633 91.5106 269.495 86.9519 261.906C85.8349 260.046 84.3303 258.121 82.2533 257.744C81.6822 257.641 81.0678 257.674 80.5992 257.987C79.845 258.493 79.6839 259.545 79.678 260.486C79.6487 265.474 82.1484 270.244 84.9491 274.498C87.7499 278.751 89.3121 282.285 92.0258 287.13Z" fill="#CAEEFC"/>
<path d="M117.969 298.695C117.374 290.116 113.555 281.613 107.427 275.225C105.924 273.659 104.031 272.116 101.922 272.21C101.342 272.235 100.75 272.403 100.363 272.813C99.7396 273.474 99.8168 274.536 100.02 275.454C101.097 280.324 104.592 284.421 108.267 287.948C111.941 291.475 114.247 294.574 117.969 298.695Z" fill="#CAEEFC"/>
<path d="M135.069 309.926C138.4 301.997 138.819 292.685 136.222 284.222C135.586 282.147 134.589 279.918 132.664 279.05C132.135 278.812 131.531 278.697 131.001 278.888C130.147 279.197 129.736 280.179 129.505 281.092C128.274 285.925 129.551 291.157 131.244 295.961C132.938 300.764 133.603 304.569 135.069 309.926Z" fill="#CAEEFC"/>
<path d="M205.873 299.409C197.214 291.312 184.984 287.183 173.191 288.374C165.203 289.181 156.492 293.449 154.734 301.283C153.898 305.013 154.19 309.963 150.659 311.429C147.203 312.863 143.865 309.303 140.317 308.113C134.41 306.132 127.671 312.884 129.663 318.786C130.569 321.471 132.841 323.809 132.652 326.635C132.395 330.484 127.638 332.491 123.827 331.893C120.015 331.295 116.651 329.069 112.912 328.119C109.175 327.167 104.333 328.121 103.02 331.748C101.844 334.999 103.874 339.367 101.32 341.699C100.226 342.697 98.6429 342.903 97.1693 343.044C64.8001 346.116 29.1518 351.923 32.7739 357.674C33.764 359.245 36.2952 358.745 38.1525 358.716C107.049 357.638 169.63 356.61 238.503 358.723L205.873 299.409Z" fill="#CAEEFC"/>
<path d="M399.596 191.187L420.02 271.276L416.135 272.267L390.865 193.414" fill="#99D6F4"/>
<path d="M370.827 154.314C364.262 155.988 360.732 164.46 362.96 173.197C365.188 181.935 372.344 187.682 378.909 186.008C385.474 184.334 389.003 175.862 386.775 167.124C384.547 158.386 377.392 152.64 370.827 154.314ZM380.696 193.015C370.267 195.676 359.167 187.586 355.953 174.984C352.739 162.383 358.611 149.966 369.04 147.307C379.469 144.647 390.569 152.736 393.782 165.337C396.997 177.939 391.125 190.356 380.696 193.015Z" fill="#A8E3FA"/>
<path d="M391.434 170.758C391.773 172.086 397.644 195.11 397.644 195.11C397.956 196.334 397.217 197.581 395.992 197.893C394.767 198.206 393.522 197.466 393.208 196.241L392.508 193.491C392.508 193.491 389.246 186.535 380.23 189.403C380.23 189.403 390.985 188.06 391.35 188.086C391.714 188.113 391.095 169.429 391.434 170.758Z" fill="#C8EDFC"/>
<path d="M396.885 201.397C393.73 202.202 390.51 200.29 389.706 197.136C389.706 197.136 389.334 195.219 388.588 194.161C387.42 192.503 385.039 191.879 380.68 192.99L379.576 186.834C381.868 186.101 383.515 184.996 385.358 185.125C386.345 185.005 387.165 184.907 387.851 184.826C387.844 182.94 387.807 180.452 387.778 178.547C387.751 176.521 390.379 174.243 390.372 172.788C390.363 170.179 387.685 167.541 390.925 167.107L394.112 166.684L401.148 194.217C401.952 197.372 400.04 200.593 396.885 201.397Z" fill="#A8E3FA"/>
<path d="M402.603 190.462L402.663 273.114L406.672 273.111L411.613 190.455" fill="#99D6F4"/>
<path d="M409.063 163.972C409.07 172.99 414.588 180.322 421.363 180.318C428.138 180.312 433.646 172.972 433.639 163.955C433.633 154.937 428.115 147.605 421.339 147.609C414.564 147.614 409.056 154.954 409.063 163.972ZM401.831 163.978C401.821 150.972 410.571 140.385 421.334 140.377C432.096 140.369 440.862 150.944 440.871 163.949C440.88 176.955 432.131 187.542 421.369 187.55C410.605 187.557 401.84 176.983 401.831 163.978Z" fill="#A8E3FA"/>
<path d="M405.449 168.647C405.45 170.019 405.467 193.778 405.467 193.778C405.468 195.043 406.494 196.066 407.758 196.066C409.022 196.064 410.046 195.04 410.045 193.775L410.042 190.937C410.042 190.937 411.478 183.39 420.923 183.934C420.923 183.934 410.173 185.297 409.825 185.414C409.478 185.53 405.448 167.276 405.449 168.647Z" fill="#C8EDFC"/>
<path d="M407.759 199.682C411.015 199.679 413.661 197.028 413.659 193.773C413.659 193.773 413.545 191.824 414.005 190.614C414.725 188.718 416.878 187.524 421.376 187.521L420.92 181.283C418.518 181.14 416.649 180.479 414.895 181.059C413.909 181.187 413.09 181.296 412.404 181.388C411.945 179.559 411.364 177.14 410.919 175.287C410.445 173.317 407.334 171.762 406.98 170.351C406.342 167.819 408.282 164.601 405.036 164.983L401.844 165.362L401.851 193.781C401.853 197.037 404.504 199.684 407.759 199.682Z" fill="#A8E3FA"/>
<path d="M437.399 258.492L427.004 256.615L443.151 167.213C443.282 166.48 443.984 165.994 444.715 166.126L452.459 167.525C453.191 167.658 453.678 168.358 453.545 169.09L437.399 258.492Z" fill="#99D6F4"/>
<path d="M451.993 177.683L441.598 175.805L443.15 167.213C443.281 166.48 443.983 165.994 444.715 166.127L452.458 167.525C453.19 167.658 453.677 168.358 453.545 169.09L451.993 177.683Z" fill="#F35D8D"/>
<path d="M451.435 180.804L451.429 180.803L451.991 177.689L451.997 177.691L451.435 180.804Z" fill="#A6CFEB"/>
<path d="M451.43 180.803L441.04 178.926L441.602 175.814L451.992 177.69L451.43 180.803Z" fill="#7DBCE9"/>
<path d="M445.54 278.992L428.577 272.306L464.751 180.528L481.714 187.214L445.54 278.992Z" fill="#CAEEFC"/>
<path d="M474.652 188.742L480.244 190.946L480.831 189.453L475.241 187.249" fill="#D2F0FA"/>
<path d="M472.773 193.51L478.365 195.713L478.954 194.22L473.362 192.017" fill="#D2F0FA"/>
<path d="M470.894 198.275L476.485 200.479L477.074 198.986L471.482 196.782" fill="#D2F0FA"/>
<path d="M466.281 201.966L474.607 205.247L475.195 203.755L466.869 200.473" fill="#D2F0FA"/>
<path d="M467.137 207.81L472.727 210.014L473.316 208.52L467.724 206.318" fill="#D2F0FA"/>
<path d="M465.258 212.578L470.85 214.782L471.437 213.289L465.847 211.085" fill="#D2F0FA"/>
<path d="M463.378 217.345L468.969 219.548L469.557 218.055L463.967 215.852" fill="#D2F0FA"/>
<path d="M458.764 221.035L467.09 224.316L467.679 222.823L459.352 219.542" fill="#D2F0FA"/>
<path d="M459.62 226.879L465.211 229.083L465.8 227.59L460.208 225.386" fill="#D2F0FA"/>
<path d="M457.743 231.646L463.333 233.849L463.922 232.355L458.331 230.153" fill="#D2F0FA"/>
<path d="M455.863 236.413L461.453 238.617L462.042 237.124L456.452 234.92" fill="#D2F0FA"/>
<path d="M451.249 240.101L459.574 243.383L460.163 241.891L451.837 238.608" fill="#D2F0FA"/>
<path d="M452.104 245.947L457.695 248.151L458.283 246.658L452.693 244.454" fill="#D2F0FA"/>
<path d="M450.226 250.716L455.817 252.92L456.406 251.427L450.814 249.223" fill="#D2F0FA"/>
<path d="M448.345 255.483L453.937 257.686L454.525 256.192L448.934 253.989" fill="#D2F0FA"/>
<path d="M443.733 259.172L452.058 262.453L452.647 260.96L444.321 257.679" fill="#D2F0FA"/>
<path d="M444.589 265.017L450.179 267.22L450.768 265.728L445.178 263.524" fill="#D2F0FA"/>
<path d="M442.71 269.782L448.301 271.986L448.889 270.493L443.299 268.29" fill="#D2F0FA"/>
<path d="M440.83 274.551L446.421 276.755L447.009 275.262L441.419 273.058" fill="#D2F0FA"/>
<path d="M457.939 362.78H373.351L359.143 234.818C358.962 233.191 360.237 231.768 361.874 231.768H469.417C471.054 231.768 472.328 233.191 472.147 234.818L457.939 362.78Z" fill="#A8E3FA"/>
<path d="M351.867 368.356C402.818 369.05 453.767 369.745 504.716 370.438C506.426 370.461 511.815 368.794 502.528 362.805C494.663 357.733 469.802 362.297 469.802 362.297C469.802 362.297 475.589 359.977 475.562 356.982C475.536 353.988 473.266 351.356 470.541 350.114C467.816 348.872 464.714 348.782 461.724 348.954C455.64 349.302 449.616 350.65 443.965 352.928C446.363 351.453 447.094 347.838 445.458 345.547C443.822 343.257 440.165 342.775 437.992 344.566C441.81 339.395 447.714 316.477 429.571 306.376C406.829 293.718 389.559 304.135 385.874 311.754C384.005 304.276 375.424 298.613 369.773 297.21C356.883 294.009 348.487 294.958 336.454 300.577C332.196 302.566 326.497 309.356 323.667 313.106C319.235 318.98 318.545 326.79 318.3 334.144C318.117 339.664 318.092 345.19 318.225 350.711L351.867 368.356Z" fill="#D2F0FA"/>
<path d="M267.022 381.284C203.721 381.284 152.405 379.143 152.405 376.502C152.405 375.768 156.368 375.073 163.449 374.451C165.264 375.711 167.467 376.449 169.843 376.449H364.202C366.577 376.449 368.78 375.711 370.595 374.451C377.676 375.073 381.639 375.768 381.639 376.502C381.639 379.143 330.324 381.284 267.022 381.284Z" fill="#DDF3F7"/>
<path d="M269.204 60.9927C265.64 60.9927 262.752 58.1042 262.752 54.5395C262.752 50.9759 265.64 48.0863 269.204 48.0863C272.769 48.0863 275.658 50.9759 275.658 54.5395C275.658 58.1042 272.769 60.9927 269.204 60.9927ZM269.204 42.89C262.852 42.89 257.702 48.039 257.702 54.392V69.1338H280.707C280.707 69.1338 280.707 57.4256 280.707 54.392C280.707 48.039 275.557 42.89 269.204 42.89Z" fill="#E93654"/>
<path d="M273.168 59.6318C274.55 58.4486 275.658 56.5026 275.658 54.5393C275.658 56.6086 274.684 58.4509 273.17 59.6318C273.169 59.6318 273.169 59.6318 273.168 59.6318ZM257.702 54.3918C257.702 54.3803 257.702 54.3688 257.702 54.3573C257.702 54.3688 257.702 54.3803 257.702 54.3918ZM257.702 54.3457C257.702 54.3377 257.702 54.3308 257.702 54.3227C257.702 54.3308 257.702 54.3388 257.702 54.3457ZM257.702 54.31C257.702 54.3031 257.702 54.2962 257.702 54.2881C257.702 54.2962 257.702 54.3031 257.702 54.31ZM257.703 54.2743C257.703 54.2674 257.703 54.2593 257.703 54.2524C257.703 54.2593 257.703 54.2674 257.703 54.2743ZM257.703 54.2409C257.703 54.2294 257.703 54.2202 257.703 54.2098C257.703 54.2202 257.703 54.2305 257.703 54.2409ZM257.703 54.196C257.704 54.189 257.704 54.181 257.704 54.1729C257.704 54.181 257.704 54.189 257.703 54.196ZM257.704 54.158C257.704 54.1522 257.704 54.1453 257.704 54.1395C257.704 54.1453 257.704 54.1522 257.704 54.158ZM257.706 54.1222C257.706 54.1165 257.706 54.1119 257.706 54.1061C257.706 54.1119 257.706 54.1165 257.706 54.1222ZM257.706 54.0888C257.707 54.0831 257.707 54.0785 257.707 54.0727C257.707 54.0785 257.707 54.0831 257.706 54.0888ZM257.707 54.0542C257.707 54.0531 257.707 54.0508 257.707 54.0485C257.707 54.0508 257.707 54.0519 257.707 54.0542ZM257.709 54.0001C257.709 53.9978 257.709 53.9944 257.709 53.9909C257.709 53.9944 257.709 53.9978 257.709 54.0001ZM257.71 53.9678C257.71 53.9644 257.71 53.9621 257.71 53.9586C257.71 53.9621 257.71 53.9655 257.71 53.9678ZM257.711 53.9344C257.711 53.9321 257.711 53.9298 257.711 53.9275C257.711 53.9298 257.711 53.9321 257.711 53.9344ZM270.485 48.2128C270.072 48.1299 269.643 48.0861 269.204 48.0861C268.872 48.0861 268.554 48.1356 268.235 48.184C268.27 48.1702 268.303 48.1575 268.335 48.1437C268.62 48.1057 268.91 48.0861 269.204 48.0861C269.643 48.0861 270.072 48.1299 270.485 48.2128Z" fill="#D099A8"/>
<path d="M261.216 66.8936H257.702V54.3915C257.702 54.38 257.702 54.3685 257.702 54.357C257.702 54.3535 257.702 54.3489 257.702 54.3454C257.702 54.3385 257.702 54.3305 257.702 54.3224C257.702 54.3189 257.702 54.3143 257.702 54.3097C257.702 54.3028 257.702 54.2959 257.702 54.2878C257.702 54.2832 257.703 54.2786 257.703 54.274C257.703 54.2671 257.703 54.259 257.703 54.2521C257.703 54.2487 257.703 54.2441 257.703 54.2406C257.703 54.2302 257.703 54.2199 257.703 54.2095C257.703 54.2049 257.703 54.2003 257.703 54.1957C257.704 54.1887 257.704 54.1807 257.704 54.1726C257.704 54.168 257.704 54.1623 257.704 54.1577C257.704 54.1519 257.704 54.145 257.704 54.1392C257.704 54.1334 257.706 54.1277 257.706 54.1219C257.706 54.1162 257.706 54.1116 257.706 54.1058C257.706 54.1 257.706 54.0943 257.706 54.0885C257.707 54.0828 257.707 54.0782 257.707 54.0724C257.707 54.0666 257.707 54.0597 257.707 54.0539C257.707 54.0516 257.707 54.0505 257.707 54.0482C257.708 54.0321 257.708 54.0159 257.709 53.9998C257.709 53.9975 257.709 53.9941 257.709 53.9906C257.709 53.9837 257.709 53.9756 257.71 53.9675C257.71 53.9652 257.71 53.9618 257.71 53.9583C257.71 53.9503 257.711 53.9422 257.711 53.9341C257.711 53.9318 257.711 53.9295 257.711 53.9272C257.912 48.875 261.376 44.6685 266.052 43.3378C262.953 45.3978 261.216 48.9188 261.216 52.9191V66.8936ZM273.17 59.6315C274.684 58.4506 275.658 56.6083 275.658 54.539C275.658 51.4132 273.436 48.807 270.485 48.2125C270.072 48.1296 269.643 48.0858 269.204 48.0858C268.91 48.0858 268.62 48.1054 268.335 48.1434C269.21 47.792 269.31 47.5558 270.854 47.5558C274.418 47.5558 277.307 50.4454 277.307 54.0102C277.307 57.2408 275.658 58.9921 273.17 59.6315Z" fill="#D0334B"/>
<path d="M364.201 376.449H169.842C163.644 376.449 158.619 371.425 158.619 365.226V81.1317C158.619 74.9331 163.644 69.9086 169.842 69.9086H364.201C370.4 69.9086 375.424 74.9331 375.424 81.1317V365.226C375.424 371.425 370.4 376.449 364.201 376.449Z" fill="#4E86CE"/>
<path d="M171.184 364.425H362.859V81.9296H171.184V364.425Z" fill="#CAEEFC"/>
<path d="M178.555 355.796H355.489V90.5599H178.555V355.796Z" fill="white"/>
<path d="M336.753 74.9824V86.5039H197.285V74.9824C197.285 74.1413 197.411 73.3348 197.653 72.5744C198.679 69.2792 201.755 66.8943 205.373 66.8943H328.665C333.135 66.8943 336.753 70.512 336.753 74.9824Z" fill="#E93654"/>
<path d="M336.753 86.5039H197.285V78.1623C197.285 75.9271 197.411 74.0837 197.653 72.5744C198.679 69.2792 201.755 66.8943 205.373 66.8943H206.364C204.232 68.9451 202.677 72.0789 202.677 75.2819V83.6235H336.753V86.5039Z" fill="#D0334B"/>
<path d="M256.364 120.556H227.623C226.63 120.556 225.825 119.751 225.825 118.758C225.825 117.765 226.63 116.96 227.623 116.96H256.364C257.357 116.96 258.161 117.765 258.161 118.758C258.161 119.751 257.357 120.556 256.364 120.556Z" fill="#DEECF6"/>
<path d="M342.712 129.719H320.859C319.866 129.719 319.061 128.913 319.061 127.92C319.061 126.927 319.866 126.123 320.859 126.123H342.712C343.705 126.123 344.51 126.927 344.51 127.92C344.51 128.913 343.705 129.719 342.712 129.719Z" fill="#DEECF6"/>
<path d="M311.391 129.719H227.623C226.63 129.719 225.825 128.913 225.825 127.92C225.825 126.927 226.63 126.123 227.623 126.123H311.391C312.384 126.123 313.189 126.927 313.189 127.92C313.189 128.913 312.384 129.719 311.391 129.719Z" fill="#DEECF6"/>
<path d="M342.713 138.881H227.623C226.63 138.881 225.825 138.076 225.825 137.082C225.825 136.089 226.63 135.285 227.623 135.285H342.713C343.706 135.285 344.511 136.089 344.511 137.082C344.511 138.076 343.706 138.881 342.713 138.881Z" fill="#DEECF6"/>
<path d="M342.713 148.045H306.131C305.139 148.045 304.334 147.24 304.334 146.246C304.334 145.253 305.139 144.448 306.131 144.448H342.713C343.706 144.448 344.512 145.253 344.512 146.246C344.512 147.24 343.706 148.045 342.713 148.045Z" fill="#DEECF6"/>
<path d="M297.025 148.045H227.623C226.63 148.045 225.825 147.24 225.825 146.246C225.825 145.253 226.63 144.448 227.623 144.448H297.025C298.019 144.448 298.824 145.253 298.824 146.246C298.824 147.24 298.019 148.045 297.025 148.045Z" fill="#DEECF6"/>
<path d="M342.711 120.556H265.794C264.8 120.556 263.995 119.751 263.995 118.758C263.995 117.765 264.8 116.96 265.794 116.96H342.711C343.705 116.96 344.51 117.765 344.51 118.758C344.51 119.751 343.705 120.556 342.711 120.556Z" fill="#DEECF6"/>
<path d="M256.364 186.424H227.623C226.63 186.424 225.825 185.618 225.825 184.625C225.825 183.632 226.63 182.828 227.623 182.828H256.364C257.357 182.828 258.161 183.632 258.161 184.625C258.161 185.618 257.357 186.424 256.364 186.424Z" fill="#DEECF6"/>
<path d="M342.712 195.587H320.859C319.866 195.587 319.061 194.782 319.061 193.788C319.061 192.795 319.866 191.99 320.859 191.99H342.712C343.705 191.99 344.51 192.795 344.51 193.788C344.51 194.782 343.705 195.587 342.712 195.587Z" fill="#DEECF6"/>
<path d="M311.391 195.587H227.623C226.63 195.587 225.825 194.782 225.825 193.788C225.825 192.795 226.63 191.99 227.623 191.99H311.391C312.384 191.99 313.189 192.795 313.189 193.788C313.189 194.782 312.384 195.587 311.391 195.587Z" fill="#DEECF6"/>
<path d="M342.713 204.75H227.623C226.63 204.75 225.825 203.945 225.825 202.951C225.825 201.958 226.63 201.153 227.623 201.153H342.713C343.706 201.153 344.511 201.958 344.511 202.951C344.511 203.945 343.706 204.75 342.713 204.75Z" fill="#DEECF6"/>
<path d="M342.713 213.912H306.131C305.139 213.912 304.334 213.108 304.334 212.115C304.334 211.122 305.139 210.316 306.131 210.316H342.713C343.706 210.316 344.512 211.122 344.512 212.115C344.512 213.108 343.706 213.912 342.713 213.912Z" fill="#DEECF6"/>
<path d="M297.025 213.912H227.623C226.63 213.912 225.825 213.108 225.825 212.115C225.825 211.122 226.63 210.316 227.623 210.316H297.025C298.019 210.316 298.824 211.122 298.824 212.115C298.824 213.108 298.019 213.912 297.025 213.912Z" fill="#DEECF6"/>
<path d="M342.711 186.424H265.794C264.8 186.424 263.995 185.618 263.995 184.625C263.995 183.632 264.8 182.828 265.794 182.828H342.711C343.705 182.828 344.51 183.632 344.51 184.625C344.51 185.618 343.705 186.424 342.711 186.424Z" fill="#DEECF6"/>
<path d="M256.364 249.988H227.623C226.63 249.988 225.825 249.183 225.825 248.19C225.825 247.197 226.63 246.391 227.623 246.391H256.364C257.357 246.391 258.161 247.197 258.161 248.19C258.161 249.183 257.357 249.988 256.364 249.988Z" fill="#DEECF6"/>
<path d="M342.712 259.15H320.859C319.866 259.15 319.061 258.346 319.061 257.353C319.061 256.36 319.866 255.555 320.859 255.555H342.712C343.705 255.555 344.51 256.36 344.51 257.353C344.51 258.346 343.705 259.15 342.712 259.15Z" fill="#DEECF6"/>
<path d="M311.391 259.15H227.623C226.63 259.15 225.825 258.346 225.825 257.353C225.825 256.36 226.63 255.555 227.623 255.555H311.391C312.384 255.555 313.189 256.36 313.189 257.353C313.189 258.346 312.384 259.15 311.391 259.15Z" fill="#DEECF6"/>
<path d="M342.713 268.312H227.623C226.63 268.312 225.825 267.507 225.825 266.515C225.825 265.522 226.63 264.717 227.623 264.717H342.713C343.706 264.717 344.511 265.522 344.511 266.515C344.511 267.507 343.706 268.312 342.713 268.312Z" fill="#DEECF6"/>
<path d="M342.713 277.477H306.131C305.139 277.477 304.334 276.671 304.334 275.678C304.334 274.685 305.139 273.88 306.131 273.88H342.713C343.706 273.88 344.512 274.685 344.512 275.678C344.512 276.671 343.706 277.477 342.713 277.477Z" fill="#DEECF6"/>
<path d="M297.025 277.477H227.623C226.63 277.477 225.825 276.671 225.825 275.678C225.825 274.685 226.63 273.88 227.623 273.88H297.025C298.019 273.88 298.824 274.685 298.824 275.678C298.824 276.671 298.019 277.477 297.025 277.477Z" fill="#DEECF6"/>
<path d="M342.711 249.988H265.794C264.8 249.988 263.995 249.183 263.995 248.19C263.995 247.197 264.8 246.391 265.794 246.391H342.711C343.705 246.391 344.51 247.197 344.51 248.19C344.51 249.183 343.705 249.988 342.711 249.988Z" fill="#DEECF6"/>
<path d="M256.364 314.703H227.623C226.63 314.703 225.825 313.898 225.825 312.906C225.825 311.911 226.63 311.107 227.623 311.107H256.364C257.357 311.107 258.161 311.911 258.161 312.906C258.161 313.898 257.357 314.703 256.364 314.703Z" fill="#DEECF6"/>
<path d="M342.712 323.866H320.859C319.866 323.866 319.061 323.061 319.061 322.068C319.061 321.075 319.866 320.27 320.859 320.27H342.712C343.705 320.27 344.51 321.075 344.51 322.068C344.51 323.061 343.705 323.866 342.712 323.866Z" fill="#DEECF6"/>
<path d="M311.391 323.866H227.623C226.63 323.866 225.825 323.061 225.825 322.068C225.825 321.075 226.63 320.27 227.623 320.27H311.391C312.384 320.27 313.189 321.075 313.189 322.068C313.189 323.061 312.384 323.866 311.391 323.866Z" fill="#DEECF6"/>
<path d="M342.713 333.03H227.623C226.63 333.03 225.825 332.225 225.825 331.232C225.825 330.239 226.63 329.433 227.623 329.433H342.713C343.706 329.433 344.511 330.239 344.511 331.232C344.511 332.225 343.706 333.03 342.713 333.03Z" fill="#DEECF6"/>
<path d="M342.713 342.191H306.131C305.139 342.191 304.334 341.386 304.334 340.393C304.334 339.4 305.139 338.594 306.131 338.594H342.713C343.706 338.594 344.512 339.4 344.512 340.393C344.512 341.386 343.706 342.191 342.713 342.191Z" fill="#DEECF6"/>
<path d="M297.025 342.191H227.623C226.63 342.191 225.825 341.386 225.825 340.393C225.825 339.4 226.63 338.594 227.623 338.594H297.025C298.019 338.594 298.824 339.4 298.824 340.393C298.824 341.386 298.019 342.191 297.025 342.191Z" fill="#DEECF6"/>
<path d="M342.711 314.703H265.794C264.8 314.703 263.995 313.898 263.995 312.906C263.995 311.911 264.8 311.107 265.794 311.107H342.711C343.705 311.107 344.51 311.911 344.51 312.906C344.51 313.898 343.705 314.703 342.711 314.703Z" fill="#DEECF6"/>
<path d="M215.496 142.34V141.674H193.992C193.022 141.671 192.238 140.888 192.236 139.918V118.414C192.238 117.444 193.022 116.661 193.992 116.658H215.496C216.465 116.661 217.25 117.444 217.252 118.414V139.918C217.25 140.887 216.465 141.671 215.496 141.674V142.34V143.007C217.202 143.006 218.584 141.624 218.584 139.918V118.414C218.584 116.708 217.202 115.326 215.496 115.325H193.992C192.286 115.326 190.904 116.708 190.903 118.414V139.918C190.904 141.624 192.286 143.006 193.992 143.007H215.496V142.34Z" fill="#4097B8"/>
<path d="M215.496 207.994V207.328H193.992C193.022 207.326 192.238 206.541 192.236 205.572V184.068C192.238 183.098 193.022 182.314 193.992 182.313H215.496C216.465 182.314 217.25 183.098 217.252 184.068V205.572C217.25 206.541 216.465 207.326 215.496 207.328V207.994V208.661C217.202 208.66 218.584 207.279 218.584 205.572V184.068C218.584 182.362 217.202 180.981 215.496 180.98H193.992C192.286 180.981 190.904 182.362 190.903 184.068V205.572C190.904 207.279 192.286 208.66 193.992 208.661H215.496V207.994Z" fill="#4097B8"/>
<path d="M215.496 273.649V272.983H193.992C193.022 272.98 192.238 272.196 192.236 271.227V249.723C192.238 248.753 193.022 247.969 193.992 247.967H215.496C216.465 247.969 217.25 248.753 217.252 249.723V271.227C217.25 272.196 216.465 272.98 215.496 272.983V273.649V274.314C217.202 274.314 218.584 272.933 218.584 271.227V249.723C218.584 248.017 217.202 246.635 215.496 246.634H193.992C192.286 246.635 190.904 248.017 190.903 249.723V271.227C190.904 272.933 192.286 274.314 193.992 274.314H215.496V273.649Z" fill="#4097B8"/>
<path d="M215.496 339.303V338.637H193.992C193.022 338.635 192.238 337.85 192.236 336.881V315.377C192.238 314.407 193.022 313.624 193.992 313.621H215.496C216.465 313.624 217.25 314.407 217.252 315.377V336.881C217.25 337.85 216.465 338.635 215.496 338.637V339.303V339.969C217.202 339.969 218.584 338.587 218.584 336.881V315.377C218.584 313.671 217.202 312.289 215.496 312.288H193.992C192.286 312.289 190.904 313.671 190.903 315.377V336.881C190.904 338.587 192.286 339.969 193.992 339.969H215.496V339.303Z" fill="#4097B8"/>
<path d="M193.274 125.803L203.206 137.795C203.615 138.29 204.231 138.556 204.872 138.516C205.511 138.475 206.09 138.133 206.433 137.59L225.542 107.44C226.132 106.508 225.856 105.272 224.924 104.681C223.99 104.09 222.757 104.368 222.165 105.3L204.529 133.127L196.353 123.252C195.649 122.402 194.388 122.284 193.538 122.988C192.688 123.692 192.569 124.952 193.274 125.803Z" fill="#F89D1C"/>
<path d="M193.274 190.911L203.206 202.904C203.615 203.398 204.231 203.665 204.872 203.624C205.511 203.583 206.09 203.241 206.433 202.7L225.542 172.549C226.132 171.616 225.856 170.381 224.924 169.79C223.99 169.199 222.757 169.476 222.165 170.408L204.529 198.235L196.353 188.361C195.649 187.511 194.388 187.392 193.538 188.096C192.688 188.8 192.569 190.061 193.274 190.911Z" fill="#F89D1C"/>
<path d="M366.136 226.301C366.136 226.301 365.64 229.589 365.327 229.876C365.327 229.876 365.642 230.425 366.581 230.477" fill="#F8A485"/>
<path d="M363.702 268.648C362.632 268.144 361.836 267.21 361.074 266.304C360.324 265.41 359.573 264.516 358.822 263.621C358.524 263.268 358.214 262.883 358.181 262.423C359.44 262.321 360.251 263.957 361.511 264.054C360.924 261.98 360.082 259.978 359.009 258.11C358.748 257.653 358.462 257.122 358.649 256.63C360.009 257.15 361.156 258.118 362.147 259.185C362.844 259.935 363.479 260.742 364.043 261.597C365.705 264.112 366.735 266.998 367.435 269.931" fill="#F29273"/>
<path d="M368.984 396.785C384.163 396.785 396.467 395.677 396.467 394.309C396.467 392.943 384.163 391.834 368.984 391.834C353.805 391.834 341.501 392.943 341.501 394.309C341.501 395.677 353.805 396.785 368.984 396.785Z" fill="#DDF3F7"/>
<path d="M356.428 241.651L362.501 268.331C362.667 269.058 362.176 269.771 361.437 269.877L342.533 272.592C341.874 272.687 341.254 272.261 341.107 271.612L335.032 244.933C334.867 244.206 335.357 243.491 336.096 243.385L355.002 240.671C355.659 240.576 356.28 241.003 356.428 241.651Z" fill="#70CDF4"/>
<path d="M355.244 242.512L361.06 268.055L342.288 270.751L336.473 245.207L355.244 242.512Z" fill="#EAF8FE"/>
<path d="M338.415 246.761L354.367 244.47C354.548 244.444 354.716 244.57 354.741 244.751C354.768 244.932 354.642 245.099 354.461 245.125L338.51 247.416C338.329 247.441 338.16 247.315 338.135 247.136C338.109 246.955 338.234 246.787 338.415 246.761Z" fill="#A8D7F2"/>
<path d="M338.951 249.175L354.902 246.885C355.083 246.858 355.251 246.984 355.278 247.165C355.303 247.345 355.178 247.514 354.997 247.539L339.045 249.829C338.864 249.856 338.696 249.73 338.671 249.549C338.644 249.369 338.77 249.202 338.951 249.175Z" fill="#A8D7F2"/>
<path d="M345.592 251.177L355.561 249.746C355.741 249.72 355.91 249.845 355.936 250.026C355.962 250.207 355.836 250.375 355.655 250.401L345.687 251.833C345.506 251.858 345.338 251.732 345.312 251.552C345.286 251.371 345.411 251.204 345.592 251.177Z" fill="#A8D7F2"/>
<path d="M346.302 253.251L356.27 251.82C356.451 251.794 356.619 251.919 356.646 252.1C356.671 252.281 356.545 252.449 356.365 252.475L346.396 253.907C346.215 253.932 346.047 253.807 346.022 253.626C345.995 253.445 346.121 253.278 346.302 253.251Z" fill="#A8D7F2"/>
<path d="M347.01 255.328L356.979 253.896C357.159 253.869 357.328 253.995 357.354 254.176C357.38 254.356 357.254 254.525 357.073 254.55L347.105 255.982C346.924 256.007 346.756 255.883 346.73 255.702C346.704 255.521 346.829 255.353 347.01 255.328Z" fill="#A8D7F2"/>
<path d="M343.354 266.795L353.324 265.364C353.505 265.338 353.672 265.463 353.698 265.644C353.724 265.825 353.598 265.993 353.417 266.019L343.449 267.451C343.268 267.476 343.101 267.351 343.074 267.17C343.049 266.989 343.175 266.822 343.354 266.795Z" fill="#A8D7F2"/>
<path d="M378.194 378.021C378.194 378.021 379.451 383.969 379.113 384.727C378.775 385.486 377.558 387.689 376.313 388.485C375.006 389.32 372.112 390.315 371.881 390.676C371.649 391.039 371.634 391.567 372.048 391.892C373.113 392.73 374.964 393.137 376.173 392.937C380.098 392.289 380.503 390.554 382.789 390.277C383.184 390.228 383.916 390.812 385.007 390.254C386.099 389.695 386.629 388.685 386.536 387.736C386.373 386.097 385.453 384.747 384.798 383.535C384.144 382.323 383.682 376.778 383.682 376.778" fill="#F9B291"/>
<path d="M371.74 392.177C371.455 391.688 371.382 390.948 371.648 390.767C372.017 390.516 373.329 389.647 374.091 389.297C374.852 388.946 376.059 388.637 375.633 388.867C375.208 389.097 375.991 389.955 376.704 389.911C379.162 389.761 380.977 388.126 382.378 387.776C384.4 387.27 385.247 384.883 385.336 384.496C385.718 384.739 386.608 386.661 386.789 387.266C386.951 387.812 387.242 388.811 387.088 389.38C386.981 389.773 386.742 390.564 386.863 391.396C386.863 391.396 386.465 391.702 385.409 391.92C384.742 392.059 383.845 391.942 383.845 391.942L383.671 390.673C383.671 390.673 383.12 390.651 382.42 390.796C381.72 390.94 380.576 391.607 380.509 391.688C380.228 392.023 380.004 392.635 379.631 392.821C378.649 393.317 377.658 393.553 376.405 393.627C373.768 393.78 372.229 393.014 371.74 392.177Z" fill="#2B2F75"/>
<path d="M350.688 391.93C350.979 391.609 354.105 391.101 355.572 390.488C356.97 389.904 358.662 388.027 358.992 387.231C359.321 386.433 359.246 382.397 359.204 380.704C358.911 369.03 356.754 340.506 356.442 333.675C355.899 321.802 357.441 309.547 362.008 290.486L379.02 277.432C379.02 277.432 383.783 286.287 382.188 294.755C381.263 299.668 377.188 300.424 376.499 302.333C375.81 304.242 365.519 335.027 365.519 335.027C365.519 335.027 367.52 341.681 367.636 348.973C367.735 355.197 364.914 373.973 364.39 381.125C364.329 382.523 364.088 385.869 364.499 386.933C365.004 388.239 366.291 389.772 366.226 391.419C366.188 392.373 365.498 393.284 364.293 393.659C363.088 394.032 362.416 393.336 362.001 393.319C359.604 393.218 358.939 394.868 354.799 394.867C353.521 394.866 351.67 394.161 350.688 393.159C350.309 392.77 350.399 392.251 350.688 391.93Z" fill="#F9B291"/>
<path d="M350.331 393.392C350.106 392.861 350.136 392.118 350.435 391.982C350.852 391.794 352.329 391.15 353.165 390.928C353.999 390.706 355.288 390.598 354.817 390.756C354.346 390.914 355.032 391.89 355.773 391.963C358.332 392.217 360.435 390.897 361.93 390.78C364.088 390.611 364.88 388.389 365.026 388.021C365.387 388.324 366.452 390.37 366.553 390.997C366.644 391.564 366.804 392.598 366.564 393.136C366.397 393.507 366.04 394.25 366.047 395.092C366.047 395.092 365.593 395.33 364.473 395.373C363.764 395.4 362.854 395.139 362.854 395.139V393.855C362.854 393.855 362.29 393.743 361.547 393.772C360.803 393.801 359.886 394.18 359.437 394.518C359.086 394.783 358.716 395.229 358.301 395.333C357.104 395.634 356.243 395.719 354.941 395.587C352.198 395.308 350.717 394.299 350.331 393.392Z" fill="#2B2F75"/>
<path d="M382.264 277.318C383.419 278.585 387.533 285.44 387.577 291.02C387.621 296.6 385.842 300.229 385.457 301.343C384.404 304.393 382.444 307.12 382.444 307.678C382.444 308.237 379.377 308.623 372.87 308.213C360.847 307.456 356.43 305.2 356.43 305.2C356.43 305.2 356.037 300.198 357.269 289.346C357.855 284.194 362.243 276.033 362.243 276.033" fill="#2B2F75"/>
<path d="M393.233 255.021C393.233 255.021 391.297 264.642 390.789 266.355C390.281 268.067 387.769 278.937 385.387 278.749C383.006 278.56 369.965 267.672 369.965 267.672L371.812 263.978L383.292 269.451C383.292 269.451 384.329 257.022 385.238 254.064" fill="#F9B291"/>
<path d="M388.796 260.944C387.581 265.238 385.09 269.766 384.346 273.096C384.196 273.765 376.247 270.875 376.229 267.889" fill="#F29273"/>
<path d="M385.458 241.684C385.458 241.684 389.264 242.09 391.194 243.567C396.116 247.332 392.307 261.001 392.307 261.001C392.307 261.001 392.55 261.731 389.246 261.546C385.941 261.361 383.293 260.421 383.293 260.421L384.248 249.219" fill="#E93654"/>
<path d="M389.814 249.425C389.814 249.425 390.231 257.46 388.777 261.516C387.338 261.488 386.081 261.162 386.081 261.162L389.814 249.425Z" fill="#B02E3F"/>
<path d="M367.265 216.465C364.971 219.439 365.425 223.622 365.991 227.334C366.276 229.212 366.562 231.089 366.849 232.966C366.985 233.859 367.166 234.832 367.861 235.408C368.561 235.988 369.562 235.979 370.471 235.939C370.462 237.492 370.453 239.047 370.444 240.6C373.102 240.664 375.761 240.676 378.419 240.632C378.42 239.544 378.657 238.457 379.109 237.467C380.409 237.442 381.279 236.138 381.787 234.942C382.374 233.561 382.802 232.119 383.215 230.676C383.763 228.763 384.292 226.819 384.342 224.829C384.392 222.838 383.919 220.77 382.655 219.232C381.792 218.184 380.618 217.439 379.414 216.811C377.766 215.951 375.786 215.272 374.086 216.026" fill="#F9B291"/>
<path d="M370.014 230.633C370.329 229.071 370.307 228.19 369.795 227.15C369.625 226.805 369.401 226.48 369.096 226.266C368.682 225.975 368.134 225.919 367.675 226.118C367.377 226.248 367.13 226.491 366.962 226.784C366.419 224.686 366.305 222.45 366.462 220.271C366.711 216.816 368.794 214.145 371.835 212.896C377.465 210.582 385.556 212.868 387.843 218.395C389.57 222.569 388.694 228.595 385.387 232.094C382.46 235.192 378.25 235.648 374.364 235.009C372.375 234.683 369.307 234.879 368.278 232.175C368.198 231.965 368.377 231.758 368.588 231.774C369.395 231.836 369.957 230.923 370.014 230.633Z" fill="#2B2F75"/>
<path d="M369.583 223.283C369.374 223.611 369.423 224.051 369.227 224.387C368.897 224.951 368.458 225.154 367.865 225.429C366.91 225.872 367.134 227.264 367.161 227.886C366.44 227.406 366.324 226.102 366.149 225.439C365.954 224.694 365.828 223.932 365.612 223.193C365.401 222.474 365.036 221.798 364.968 221.042C364.735 218.431 366.372 215.363 368.352 213.897C369.793 212.831 371.992 212.874 373.62 213.96C374.306 214.416 374.822 215.106 375.125 215.872C375.255 216.202 375.345 216.584 375.184 216.899" fill="#2B2F75"/>
<path d="M382.378 241.719C382.243 240.809 381.997 239.748 381.15 239.388C380.914 239.289 380.655 239.258 380.402 239.231C377.808 238.943 375.198 238.819 372.588 238.862C371.51 238.879 370.392 238.933 369.427 239.416C367.913 240.173 367.081 241.804 366.349 243.331" fill="#B02E3F"/>
<path d="M360.41 275.08C360.773 274.545 361.611 273.903 361.91 273.313C362.632 271.896 363.262 265.932 363.013 264.409C362.748 262.775 361.302 261.898 360.65 258.262C359.81 253.58 361.731 249.94 362.803 248.382C364.321 246.178 363.421 246.19 363.94 243.49C364.034 243.003 364.143 242.484 364.476 242.145C364.803 241.811 367.065 240.776 367.51 240.708C371.727 240.055 374.205 240.565 378.468 240.752C380.578 240.844 382.684 241.09 384.754 241.547C387.046 242.052 389.042 242.66 389.514 245.77C390.242 250.58 389.629 255.442 388.167 260.005C387.198 263.028 381.412 273.488 382.845 275.513C383.172 275.976 383.993 276.855 384.092 277.432C384.455 279.546 379.678 280.289 377.634 280.458C374.518 280.713 370.944 280.542 367.822 280.395C365.457 280.285 360.282 279.46 359.915 276.537C359.843 275.963 360.127 275.5 360.41 275.08Z" fill="#E93654"/>
<path d="M361.308 259.167C361.308 260.017 361.783 261.158 361.938 261.606C362.531 261.91 364.884 262.417 366.234 261.8C366.53 258.99 368.175 253.58 368.175 253.58C368.175 253.58 361.31 258.38 361.308 259.167Z" fill="#B02E3F"/>
<path d="M364.33 257.206C364.33 257.206 356.54 276.032 353.161 276.032C350.702 276.032 344.674 258.653 344.674 258.653L348.483 256.85L352.73 264.128L357.031 250.555" fill="#F9B291"/>
<path d="M349.24 258.147C349.24 258.147 347.977 256.158 348.069 254.748C348.105 254.21 348.424 251.651 348.157 251.147C347.891 250.644 347.25 248.997 346.884 248.677C346.518 248.357 345.165 247.843 344.834 248.071C344.503 248.3 344.091 247.248 343.542 247.339C342.993 247.43 342.537 247.888 342.537 248.391C342.537 248.895 341.804 248.986 341.713 249.352C341.621 249.718 341.667 250.038 341.53 250.313C341.392 250.587 340.988 250.451 340.843 251.136C340.712 251.763 340.889 251.822 340.843 252.143C340.798 252.463 340.524 252.433 340.615 253.043C340.706 253.652 341.124 254.444 341.489 255.129C341.856 255.816 342.611 256.674 343.614 257.28C344.109 257.58 344.38 258.104 344.854 258.991" fill="#F9B291"/>
<path d="M347.146 243.599C347.243 243.45 347.508 243.199 347.819 243.418C348.129 243.637 348.036 244.013 347.968 244.166C347.901 244.316 345.665 249.377 345.665 249.377C345.665 249.377 345.478 249.591 345.122 249.278C344.736 248.937 344.859 248.766 344.859 248.766C344.859 248.766 347.051 243.748 347.146 243.599Z" fill="#2B2F75"/>
<path d="M344.719 248.432C345.158 249.214 345.667 249.464 346.124 249.895C346.482 250.232 346.437 250.45 346.833 250.796C346.14 250.744 346.259 250.335 345.361 249.688C344.945 249.388 344.514 249.063 344.434 248.552C344.405 248.376 344.613 248.282 344.719 248.432Z" fill="#F29273"/>
<path d="M371.496 240.419C369.467 240.525 363.561 239.488 360.278 242.921C357.529 245.797 355.954 253.337 354.847 256.395C357.602 259.202 360.255 261.466 364.428 260.555C364.586 260.438 366.657 253.921 368.164 253.341" fill="#E93654"/>
<path d="M356.42 300.197C356.42 300.197 355.08 332.404 355.325 334.753C355.569 337.101 358.182 381.568 358.182 381.568C358.182 381.568 363.548 382.508 366.761 381.568C366.761 381.568 370.906 346.94 366.761 336.148L368.603 325.809C368.603 325.809 368.329 333.5 368.603 335.065C368.879 336.631 377.171 380.472 377.171 380.472C377.171 380.472 382.656 380.327 385.162 378.128C385.162 378.128 385.943 347.67 380.228 334.857L385.458 301.342L382.445 292.814L356.42 300.197Z" fill="#2B2F75"/>
<path d="M368.603 325.811C369.369 320.858 374.096 303.288 374.297 302.866C376.881 300.863 379.242 299.098 380.101 297.428C378.69 301.665 375.971 301.884 374.953 304.076C372.44 309.489 374.36 308.296 368.492 326.432" fill="#1E204C"/>
<path d="M391.679 240.204C391.8 241.919 391.449 243.629 391.422 245.347C391.394 247.065 391.763 248.918 393.025 250.084C394.286 251.25 396.627 251.296 397.523 249.83C396.616 251.724 394.664 252.999 392.597 253.374C390.531 253.751 388.375 253.304 386.466 252.43C381.393 250.105 378.014 244.787 378.171 239.194C378.3 234.595 381.791 230.152 386.669 232.569C389.528 233.986 391.455 237.047 391.679 240.204Z" fill="#2B2F75"/>
</svg>
