<svg width="1632" height="1596" viewBox="0 0 1632 1596" fill="none" xmlns="http://www.w3.org/2000/svg">
<path d="M9.22848 57.8735C4.3855 27.5023 27.8497 0 58.6047 0H1282.8C1307.37 0 1328.3 17.8583 1332.17 42.1265L1569.31 1529.24C1574.15 1559.61 1550.69 1587.11 1519.93 1587.11H295.739C271.164 1587.11 250.233 1569.26 246.363 1544.99L9.22848 57.8735Z" fill="url(#paint0_linear_287_2769)"/>
<path d="M1498.26 530.531C1498.26 530.531 1497.34 530.113 1495.4 529.692C1493.48 529.258 1490.44 529.003 1486.64 529.812C1482.84 530.609 1478.37 532.617 1473.9 536.076C1469.39 539.516 1465.18 544.542 1460.98 550.505C1452.71 562.64 1446.18 579.441 1438.59 599.024C1431.12 618.646 1422.75 641.325 1415.81 667.238L1415.78 667.331L1415.75 667.381C1414.52 669.483 1413 671.375 1411.04 672.969C1409.09 674.466 1406.44 675.716 1403.69 675.213C1400.97 674.799 1398.79 673.1 1396.93 671.475C1395.04 669.8 1393.27 668.016 1391.49 666.217C1387.94 662.63 1384.37 658.962 1380.3 655.754C1376.27 652.693 1371.41 649.71 1366.14 650.217C1361.01 650.84 1356.1 654.171 1353.16 658.497C1350.21 662.951 1348.94 668.387 1348.69 673.867C1348 684.945 1351.34 696.104 1353.37 707.693C1355.61 719.263 1357.92 731.115 1360.28 743.242C1361.46 749.305 1362.65 755.434 1363.85 761.633C1364.45 764.729 1365.06 767.843 1365.67 770.978C1366.4 773.965 1366.79 777.834 1364.52 780.883C1363.4 782.505 1360.95 783.135 1359.12 782.64C1357.26 782.222 1355.72 781.212 1354.34 780.26C1351.62 778.31 1348.89 776.348 1346.15 774.379C1340.66 770.471 1335.02 766.683 1329.03 763.343C1323.05 760.035 1316.69 757.048 1309.88 755.705C1306.49 755.051 1302.97 754.935 1299.69 755.767C1296.4 756.572 1293.46 758.46 1291.39 761.107C1287.2 766.419 1286.06 773.578 1285.94 780.442C1285.83 787.396 1286.74 794.426 1288.06 801.418C1290.78 815.41 1295.18 829.317 1300.38 843.123C1301.57 846.586 1303.38 849.899 1303.91 853.88C1304.16 855.811 1303.9 858.14 1302.41 859.851C1302.06 860.273 1301.67 860.656 1301.24 860.977C1300.73 861.317 1300.61 861.6 1299.67 861.863C1298.06 862.196 1297.08 861.546 1296.16 861.124C1292.56 859.112 1289.78 856.5 1286.81 854C1283.93 851.446 1281.05 848.885 1278.16 846.315C1272.37 841.216 1266.46 836.15 1259.78 832.146C1256.45 830.164 1252.92 828.435 1249.19 827.522C1245.48 826.535 1241.49 826.833 1238.38 828.806C1235.26 830.811 1233.22 834.142 1232.27 837.772C1231.28 841.405 1230.85 845.244 1230.83 849.094C1230.78 856.802 1231.94 864.587 1233.87 872.202C1237.54 887.521 1243.93 902.333 1251.41 916.677C1258.9 931.041 1267.84 944.893 1277.56 958.285C1282.15 965.169 1287.94 971.294 1293.31 977.745C1298.75 984.137 1304.22 990.552 1309.71 996.991L1309.89 997.216L1308.93 996.856C1317.52 995.66 1326.08 994.464 1334.61 993.276C1343.12 991.98 1351.73 991.253 1359.95 989.094C1376.55 985.449 1392.9 980.948 1408.53 975.137C1424.15 969.336 1439.29 962.491 1452.76 953.514C1459.55 949.122 1465.87 944.104 1471.25 938.365C1473.94 935.51 1476.31 932.391 1478.14 929.059C1479.99 925.759 1480.82 921.986 1479.92 918.484C1479.01 915.025 1476.27 912.227 1472.83 910.567C1469.43 908.838 1465.6 907.839 1461.74 907.158C1453.99 905.827 1446.06 905.765 1438.19 905.816C1434.24 905.854 1430.31 905.889 1426.38 905.932C1422.43 905.866 1418.54 906.009 1414.46 905.185C1413.48 904.899 1412.3 904.748 1411.34 903.459C1410.83 902.654 1410.95 902.376 1410.8 901.791C1410.72 901.281 1410.69 900.743 1410.73 900.205C1410.83 897.98 1412.28 896.088 1413.82 894.827C1417.01 892.215 1420.67 890.934 1423.99 889.135C1437.54 882.266 1450.55 874.798 1462.39 866.193C1468.28 861.863 1473.89 857.247 1478.68 852.019C1483.41 846.861 1487.59 840.832 1488.21 834.196C1488.54 830.904 1487.67 827.615 1485.8 824.906C1483.95 822.174 1481.26 819.992 1478.29 818.301C1472.3 814.911 1465.5 813.027 1458.75 811.63C1451.97 810.249 1445.13 809.417 1438.33 808.778C1434.91 808.469 1431.52 808.159 1428.13 807.849C1426.45 807.668 1424.59 807.42 1422.92 806.522C1421.22 805.694 1419.88 803.64 1420.2 801.728C1420.68 798.01 1423.69 795.405 1426.33 793.668C1428.98 791.741 1431.61 789.826 1434.23 787.922C1439.47 784.111 1444.66 780.342 1449.78 776.612C1460.04 769.155 1470.07 761.869 1479.85 754.753C1489.5 747.482 1499.79 741.369 1507.06 732.724C1510.71 728.507 1513.59 723.666 1514.52 718.47C1515.38 713.37 1514.08 707.743 1510.71 703.986C1509.03 702.079 1506.58 700.953 1504.1 700.21C1501.61 699.413 1498.95 699.173 1496.34 698.983C1491.08 698.735 1485.86 699.146 1480.71 699.517C1478.14 699.703 1475.58 699.881 1473 699.908C1470.48 699.908 1467.68 699.761 1465.37 698.314C1463 696.917 1461.91 694.286 1461.52 691.917C1461.19 689.48 1461.38 687.096 1461.96 684.755L1461.97 684.697L1462.01 684.616C1475.04 661.005 1484.75 638.868 1492.99 619.563C1501.1 600.212 1508.05 583.608 1510.54 569.349C1511.66 562.249 1512.21 555.833 1511.34 550.381C1510.58 544.941 1508.81 540.538 1506.64 537.45C1504.49 534.343 1502.09 532.547 1500.38 531.607C1498.68 530.643 1497.7 530.353 1497.7 530.353C1497.7 530.353 1498.72 530.535 1500.48 531.46C1502.23 532.362 1504.7 534.138 1506.93 537.26C1509.18 540.363 1511.03 544.817 1511.86 550.316C1512.79 555.826 1512.3 562.295 1511.22 569.458C1508.8 583.837 1501.93 600.537 1493.91 619.919C1485.75 639.285 1476.14 661.442 1463.12 685.208L1463.18 685.069C1462.67 687.204 1462.49 689.53 1462.81 691.739C1463.18 693.906 1464.12 696.12 1466.11 697.261C1468.04 698.465 1470.5 698.635 1472.99 698.619C1475.5 698.588 1478.04 698.406 1480.61 698.213C1485.75 697.83 1491.02 697.397 1496.42 697.636C1499.11 697.818 1501.86 698.058 1504.53 698.898C1507.17 699.683 1509.87 700.906 1511.79 703.05C1515.59 707.318 1516.86 713.153 1516 718.698C1515.01 724.262 1511.99 729.312 1508.25 733.657C1500.79 742.557 1490.38 748.744 1480.81 756.003C1471.05 763.13 1461.04 770.432 1450.81 777.9C1445.69 781.634 1440.52 785.411 1435.29 789.226C1432.67 791.134 1430.04 793.053 1427.4 794.984C1426.04 795.97 1424.75 796.837 1423.81 798.006C1422.86 799.166 1422.08 800.532 1421.95 801.875C1421.77 803.237 1422.52 804.355 1423.79 805.048C1425.09 805.748 1426.67 805.988 1428.33 806.162C1431.71 806.464 1435.1 806.77 1438.5 807.072C1445.33 807.702 1452.24 808.531 1459.13 809.923C1465.99 811.344 1472.93 813.232 1479.24 816.784C1482.36 818.556 1485.29 820.893 1487.36 823.935C1489.46 826.949 1490.44 830.714 1490.09 834.328C1489.39 841.676 1484.94 847.914 1480.11 853.222C1475.2 858.593 1469.51 863.275 1463.56 867.655C1451.61 876.373 1438.52 883.888 1424.91 890.806C1421.55 892.613 1417.85 893.979 1415.13 896.247C1413.78 897.376 1412.78 898.766 1412.72 900.329C1412.69 900.716 1412.7 901.114 1412.78 901.521C1412.82 901.83 1412.94 902.562 1413.06 902.496C1413.18 902.774 1414.09 903.157 1414.94 903.328C1418.51 904.063 1422.51 903.966 1426.38 904.013C1430.3 903.97 1434.23 903.931 1438.17 903.889C1446.07 903.835 1454.11 903.877 1462.11 905.247C1466.09 905.951 1470.09 906.973 1473.8 908.853C1477.51 910.622 1480.84 913.891 1481.91 918.012C1482.98 922.079 1481.94 926.409 1479.98 929.934C1478.03 933.494 1475.56 936.725 1472.79 939.673C1467.25 945.59 1460.82 950.686 1453.94 955.147C1440.28 964.256 1425.01 971.155 1409.29 977.002C1393.53 982.864 1377.14 987.379 1360.39 991.063C1352.06 993.242 1343.48 993.961 1334.95 995.265C1326.41 996.457 1317.83 997.649 1309.23 998.852L1308.64 998.93L1308.26 998.489L1308.07 998.264C1302.58 991.818 1297.11 985.391 1291.65 978.987C1286.28 972.521 1280.5 966.415 1275.85 959.458C1266.05 945.946 1257.1 932.058 1249.55 917.575C1242.02 903.126 1235.57 888.19 1231.86 872.655C1229.9 864.92 1228.71 857.011 1228.77 849.067C1228.79 845.1 1229.23 841.119 1230.3 837.234C1231.32 833.365 1233.6 829.491 1237.25 827.181C1240.93 824.813 1245.69 824.546 1249.67 825.63C1253.74 826.628 1257.41 828.454 1260.85 830.493C1267.74 834.63 1273.72 839.772 1279.52 844.899C1282.41 847.469 1285.29 850.03 1288.16 852.584C1291.05 855.041 1293.95 857.684 1297.11 859.441C1297.85 859.862 1298.79 860.164 1299.08 860.044C1299.13 860.164 1299.72 859.704 1299.98 859.506C1300.31 859.255 1300.6 858.965 1300.86 858.659C1301.91 857.459 1302.14 855.792 1301.93 854.089C1301.52 850.665 1299.74 847.264 1298.52 843.769C1293.31 829.882 1288.9 815.898 1286.17 801.747C1284.84 794.678 1283.91 787.547 1284.05 780.411C1284.19 773.369 1285.28 765.893 1289.91 760C1292.18 757.094 1295.54 754.931 1299.21 754.045C1302.88 753.116 1306.68 753.275 1310.24 753.968C1317.4 755.392 1323.87 758.472 1329.94 761.834C1336.02 765.235 1341.71 769.07 1347.21 773.005C1349.95 774.971 1352.67 776.929 1355.38 778.879C1356.73 779.827 1358.07 780.663 1359.52 780.996C1360.95 781.309 1362.29 780.972 1363.12 779.858C1363.99 778.798 1364.36 777.269 1364.48 775.807C1364.6 774.329 1364.26 772.862 1363.95 771.256C1363.35 768.126 1362.75 765.015 1362.16 761.919C1360.96 755.724 1359.78 749.599 1358.62 743.536C1356.28 731.42 1354.01 719.568 1351.78 708.007C1349.8 696.468 1346.43 685.185 1347.15 673.789C1347.43 668.159 1348.73 662.475 1351.9 657.719C1355.15 653.057 1360.19 649.555 1366 648.827C1368.92 648.471 1371.78 649.311 1374.29 650.422C1376.85 651.517 1379.06 653.115 1381.18 654.709C1385.35 658.01 1388.95 661.724 1392.48 665.319C1394.25 667.118 1396.01 668.891 1397.84 670.527C1399.68 672.149 1401.62 673.611 1403.9 673.963C1406.16 674.401 1408.41 673.367 1410.21 672.005C1412 670.574 1413.5 668.732 1414.62 666.82L1414.56 666.964C1421.63 640.942 1430.09 618.317 1437.66 598.691C1445.34 579.147 1451.99 562.319 1460.4 550.145C1464.68 544.163 1468.98 539.133 1473.58 535.689C1478.13 532.226 1482.7 530.237 1486.56 529.483C1490.44 528.716 1493.51 529.034 1495.44 529.525C1497.38 530.009 1498.26 530.531 1498.26 530.531Z" fill="#1A2E35"/>
<path d="M1477.07 583.171C1477.11 583.183 1476.97 583.612 1476.66 584.436C1476.31 585.353 1475.85 586.557 1475.27 588.073C1473.96 591.374 1472.1 596.037 1469.73 601.984C1464.83 614.169 1457.82 631.597 1449.17 653.084C1431.96 696.402 1408.26 756.049 1382.08 821.934C1355.96 887.931 1332.08 947.586 1314.38 990.614C1305.55 1012.13 1298.31 1029.51 1293.21 1041.48C1290.68 1047.37 1288.7 1051.99 1287.3 1055.25C1286.63 1056.74 1286.11 1057.92 1285.71 1058.82C1285.34 1059.61 1285.13 1060.02 1285.1 1060C1285.07 1059.99 1285.21 1059.56 1285.51 1058.74C1285.86 1057.82 1286.32 1056.62 1286.9 1055.11C1288.22 1051.81 1290.08 1047.14 1292.45 1041.19C1297.35 1029.01 1304.36 1011.58 1313 990.096C1330.21 946.781 1353.92 887.126 1380.11 821.218C1406.21 755.244 1430.09 695.593 1447.79 652.569C1456.62 631.051 1463.86 613.67 1468.97 601.698C1471.49 595.808 1473.47 591.188 1474.88 587.923C1475.54 586.437 1476.06 585.26 1476.47 584.359C1476.83 583.562 1477.04 583.159 1477.07 583.171Z" fill="#1A2E35"/>
<path d="M1479.25 716.698C1479.38 716.958 1475.48 719.078 1469.14 722.448C1462.22 726.14 1453.75 730.648 1444.4 735.635C1434.73 740.782 1425.92 745.371 1419.42 748.49C1412.93 751.612 1408.75 753.237 1408.63 752.994C1408.5 752.734 1412.43 750.668 1418.72 747.232C1425.62 743.49 1434.05 738.924 1443.37 733.871C1453.05 728.721 1461.93 724.24 1468.45 721.187C1474.98 718.13 1479.13 716.458 1479.25 716.698Z" fill="#1A2E35"/>
<path d="M1405.36 750.658C1404.83 750.905 1395.22 733.342 1383.9 711.441C1372.57 689.529 1363.81 671.575 1364.33 671.327C1364.85 671.079 1374.45 688.635 1385.78 710.547C1397.11 732.448 1405.87 750.41 1405.36 750.658Z" fill="#1A2E35"/>
<path d="M1370.03 853.721C1369.83 853.907 1366.4 850.989 1361.14 845.971C1355.91 840.94 1348.87 833.797 1341.56 825.505C1334.24 817.229 1328.03 809.405 1323.73 803.616C1319.43 797.827 1317 794.097 1317.23 793.942C1317.47 793.772 1320.33 797.204 1324.92 802.761C1329.51 808.313 1335.87 815.967 1343.17 824.205C1350.44 832.455 1357.28 839.722 1362.22 844.988C1367.18 850.246 1370.25 853.512 1370.03 853.721Z" fill="#1A2E35"/>
<path d="M1443.93 837.093C1443.99 837.364 1439.91 838.486 1433.27 840.081C1426.63 841.679 1417.43 843.745 1407.24 845.904C1397.05 848.067 1387.79 849.913 1381.07 851.155C1374.35 852.39 1370.16 853.02 1370.1 852.749C1370.04 852.479 1374.11 851.36 1380.75 849.762C1387.39 848.168 1396.59 846.098 1406.79 843.939C1416.98 841.776 1426.23 839.93 1432.95 838.692C1439.67 837.453 1443.86 836.823 1443.93 837.093Z" fill="#1A2E35"/>
<path d="M1424.81 931.873C1424.87 932.144 1419.62 933.467 1411.08 935.383C1402.54 937.298 1390.71 939.809 1377.62 942.46C1364.53 945.11 1352.65 947.401 1344.03 948.96C1335.41 950.516 1330.05 951.348 1329.99 951.073C1329.93 950.802 1335.18 949.483 1343.72 947.567C1352.26 945.652 1364.09 943.141 1377.19 940.49C1390.28 937.836 1402.15 935.549 1410.77 933.99C1419.39 932.43 1424.75 931.602 1424.81 931.873Z" fill="#1A2E35"/>
<path d="M1332.13 950.004C1332.02 950.096 1330.94 949.152 1329.09 947.361C1327.23 945.577 1324.62 942.926 1321.44 939.606C1315.11 932.955 1306.56 923.572 1297.61 912.83C1288.62 902.1 1280.92 892.067 1275.54 884.68C1272.85 880.992 1270.73 877.963 1269.31 875.838C1267.9 873.714 1267.17 872.507 1267.29 872.422C1267.41 872.344 1268.36 873.405 1269.98 875.386C1271.87 877.742 1274.12 880.559 1276.74 883.84C1282.42 891.003 1290.29 900.87 1299.25 911.569C1308.18 922.283 1316.52 931.786 1322.56 938.666C1328.62 945.542 1332.35 949.806 1332.13 950.004Z" fill="#1A2E35"/>
<path d="M1291.71 1209.2C1221.56 1155.06 1211.4 1062.44 1220.21 980.364C1221.67 966.663 1221.14 952.086 1228.82 940.482C1236.51 928.885 1253.01 921.696 1265.43 928.324C1275.73 933.827 1279.52 945.996 1284.78 956.192C1291.77 969.766 1302.8 981.343 1316.2 989.163C1325 994.302 1336.1 997.819 1345.46 993.648C1358.29 987.925 1360.92 971.658 1361.81 957.991C1363.47 932.527 1365.12 907.058 1366.78 881.597C1367.67 867.934 1368.62 853.985 1373.99 841.316C1379.35 828.644 1390.01 817.248 1403.84 814.497C1417.67 811.75 1433.9 820.344 1435.81 833.902C1436.6 839.54 1435.01 845.236 1435 850.932C1434.99 856.632 1437.29 863.086 1442.8 865.032C1448.38 867.005 1454.36 863.507 1458.91 859.793C1474.61 846.97 1485.88 829.863 1496.48 812.81C1507.08 795.754 1517.43 778.264 1531.86 764.102C1546.29 749.936 1565.62 739.233 1586.12 739.465C1606.62 739.701 1627.51 753.202 1631.3 772.742C1635.09 792.337 1621.96 811.104 1608.09 825.85C1587.5 847.732 1563.64 866.708 1537.48 882C1532.77 884.762 1527.66 887.746 1525.58 892.687C1521.83 901.59 1530.19 911.225 1539.36 914.835C1549.75 918.925 1561.35 918.624 1572.39 920.609C1583.41 922.594 1595.12 928.084 1598.61 938.424C1603.45 952.768 1590.21 966.601 1577.53 975.392C1552.14 993.01 1523.63 1006.37 1493.64 1014.71C1482.88 1017.7 1471.62 1020.2 1462.65 1026.7C1453.69 1033.21 1447.7 1045.14 1452.12 1055.1C1456.55 1065.07 1469.44 1069.01 1480.57 1067.77C1491.7 1066.54 1501.94 1061.48 1512.68 1058.38C1532.79 1052.58 1558 1055.54 1569.39 1072.58C1576.88 1083.79 1576.54 1098.68 1571.45 1111.12C1566.38 1123.56 1557.13 1133.95 1547.42 1143.46C1513.48 1176.69 1471.24 1202.46 1424.7 1214.57C1378.17 1226.68 1335.75 1227.99 1291.71 1209.2Z" fill="#851CD8"/>
<g opacity="0.100006">
<g opacity="0.100006">
<path opacity="0.100006" d="M1291.71 1209.2C1221.56 1155.06 1211.4 1062.44 1220.21 980.364C1221.67 966.663 1221.14 952.086 1228.82 940.482C1236.51 928.885 1253.01 921.696 1265.43 928.324C1275.73 933.827 1279.52 945.996 1284.78 956.192C1291.77 969.766 1302.8 981.343 1316.2 989.163C1325 994.302 1336.1 997.819 1345.46 993.648C1358.29 987.925 1360.92 971.658 1361.81 957.991C1363.47 932.527 1365.12 907.058 1366.78 881.597C1367.67 867.934 1368.62 853.985 1373.99 841.316C1379.35 828.644 1390.01 817.248 1403.84 814.497C1417.67 811.75 1433.9 820.344 1435.81 833.902C1436.6 839.54 1435.01 845.236 1435 850.932C1434.99 856.632 1437.29 863.086 1442.8 865.032C1448.38 867.005 1454.36 863.507 1458.91 859.793C1474.61 846.97 1485.88 829.863 1496.48 812.81C1507.08 795.754 1517.43 778.264 1531.86 764.102C1546.29 749.936 1565.62 739.233 1586.12 739.465C1606.62 739.701 1627.51 753.202 1631.3 772.742C1635.09 792.337 1621.96 811.104 1608.09 825.85C1587.5 847.732 1563.64 866.708 1537.48 882C1532.77 884.762 1527.66 887.746 1525.58 892.687C1521.83 901.59 1530.19 911.225 1539.36 914.835C1549.75 918.925 1561.35 918.624 1572.39 920.609C1583.41 922.594 1595.12 928.084 1598.61 938.424C1603.45 952.768 1590.21 966.601 1577.53 975.392C1552.14 993.01 1523.63 1006.37 1493.64 1014.71C1482.88 1017.7 1471.62 1020.2 1462.65 1026.7C1453.69 1033.21 1447.7 1045.14 1452.12 1055.1C1456.55 1065.07 1469.44 1069.01 1480.57 1067.77C1491.7 1066.54 1501.94 1061.48 1512.68 1058.38C1532.79 1052.58 1558 1055.54 1569.39 1072.58C1576.88 1083.79 1576.54 1098.68 1571.45 1111.12C1566.38 1123.56 1557.13 1133.95 1547.42 1143.46C1513.48 1176.69 1471.24 1202.46 1424.7 1214.57C1378.17 1226.68 1335.75 1227.99 1291.71 1209.2Z" fill="black"/>
</g>
</g>
<path d="M1286.22 1270.12C1291.66 1237.74 1301.88 1199.74 1317.58 1159.09C1333.19 1118.4 1354.17 1075.16 1377.73 1030.66C1383.66 1019.56 1389.53 1008.58 1395.31 997.773C1401.1 986.993 1406.85 976.298 1413.14 966.171C1425.64 945.865 1439.27 927.256 1452.78 909.976C1466.3 892.683 1479.78 876.749 1492.5 861.937C1505.26 847.14 1517.42 833.57 1529.06 821.652C1552.26 797.723 1573.32 780.582 1588.28 769.38C1595.75 763.754 1601.69 759.571 1605.76 756.789C1607.72 755.469 1609.25 754.432 1610.41 753.651C1611.46 752.958 1612.02 752.621 1612.04 752.656C1612.07 752.691 1611.57 753.101 1610.56 753.863C1609.45 754.691 1607.96 755.798 1606.07 757.199C1602.11 760.116 1596.27 764.423 1588.91 770.158C1574.16 781.584 1553.37 798.873 1530.41 822.882C1518.89 834.847 1506.84 848.452 1494.18 863.283C1481.54 878.146 1468.14 894.103 1454.71 911.388C1441.28 928.665 1427.75 947.238 1415.35 967.448C1409.11 977.528 1403.42 988.13 1397.62 998.942C1391.85 1009.75 1386 1020.72 1380.07 1031.82C1356.52 1076.28 1335.54 1119.39 1319.84 1159.91C1304.07 1200.39 1293.71 1238.18 1288.05 1270.41" fill="#1A2E35"/>
<path d="M1413.9 966.127C1413.72 966.142 1413.38 964.034 1412.93 960.211C1412.44 956.384 1411.94 950.835 1411.43 943.963C1410.38 930.234 1409.62 911.227 1408.87 890.267C1408.1 869.29 1407.06 850.346 1405.8 836.671C1405.2 829.83 1404.64 824.297 1404.22 820.478C1403.8 816.655 1403.66 814.526 1403.84 814.495C1404.02 814.472 1404.5 816.55 1405.23 820.338C1405.97 824.126 1406.8 829.644 1407.65 836.482C1409.39 850.16 1410.73 869.171 1411.48 890.162C1412.18 910.848 1412.8 929.565 1413.28 943.862C1413.54 950.32 1413.77 955.761 1413.94 960.129C1414.08 963.972 1414.08 966.111 1413.9 966.127Z" fill="#1A2E35"/>
<path d="M1599.58 945.355C1599.57 945.529 1596.94 945.645 1592.2 945.714C1587.47 945.803 1580.62 945.904 1572.16 946.283C1555.25 946.914 1531.92 948.574 1506.25 951.48C1480.59 954.436 1457.49 958.05 1440.85 961.13C1432.51 962.616 1425.81 963.99 1421.17 964.914C1416.53 965.855 1413.94 966.292 1413.9 966.125C1413.85 965.951 1416.36 965.189 1420.93 963.947C1425.51 962.728 1432.18 961.08 1440.49 959.366C1457.07 955.825 1480.21 951.909 1505.95 948.949C1531.69 946.036 1555.14 944.65 1572.12 944.48C1580.61 944.329 1587.48 944.503 1592.22 944.724C1596.97 944.96 1599.58 945.173 1599.58 945.355Z" fill="#1A2E35"/>
<path d="M1320.06 1156.01C1319.98 1156.04 1319.6 1155.27 1318.96 1153.78C1318.23 1152.01 1317.35 1149.84 1316.28 1147.22C1313.98 1141.52 1310.87 1133.18 1307.18 1122.83C1299.78 1102.13 1290.49 1073.23 1280.69 1041.22C1270.88 1009.18 1261.89 980.237 1254.95 959.423C1251.54 949.305 1248.73 940.982 1246.64 934.79C1245.76 932.109 1245.03 929.892 1244.43 928.077C1243.95 926.533 1243.74 925.705 1243.82 925.674C1243.91 925.647 1244.28 926.413 1244.93 927.903C1245.65 929.675 1246.54 931.834 1247.61 934.454C1249.91 940.161 1253.01 948.5 1256.71 958.851C1264.11 979.544 1273.4 1008.45 1283.2 1040.48C1293.01 1072.5 1302 1101.44 1308.94 1122.26C1312.36 1132.38 1315.16 1140.71 1317.24 1146.89C1318.13 1149.57 1318.86 1151.79 1319.46 1153.61C1319.94 1155.15 1320.15 1155.97 1320.06 1156.01Z" fill="#1A2E35"/>
<path d="M1569.06 1096.81C1569.08 1096.89 1568.22 1097.17 1566.58 1097.6C1564.63 1098.09 1562.24 1098.68 1559.34 1099.41C1552.66 1101.01 1543.64 1103.17 1532.67 1105.79C1510.15 1111.19 1479.14 1118.98 1444.89 1127.64C1410.63 1136.3 1379.51 1143.82 1356.88 1148.77C1345.56 1151.25 1336.38 1153.17 1330 1154.37C1327.06 1154.91 1324.64 1155.35 1322.66 1155.71C1320.98 1155.99 1320.08 1156.09 1320.06 1156.01C1320.04 1155.92 1320.9 1155.65 1322.55 1155.2C1324.49 1154.73 1326.89 1154.13 1329.79 1153.41C1336.47 1151.8 1345.48 1149.65 1356.45 1147.02C1378.96 1141.63 1409.98 1133.83 1444.24 1125.17C1478.49 1116.51 1509.61 1108.99 1532.25 1104.04C1543.56 1101.56 1552.74 1099.64 1559.12 1098.45C1562.07 1097.91 1564.49 1097.46 1566.46 1097.11C1568.15 1096.83 1569.04 1096.73 1569.06 1096.81Z" fill="#1A2E35"/>
<path d="M1307.4 1426.49H328.566V140.661H1307.4V1426.49Z" fill="#375A64"/>
<path d="M1269.3 1350.4H1087.85H409.906V193.019H1269.3V1206.41V1350.4Z" fill="#E1E1E1"/>
<path d="M1164.21 1239.33L1066.12 1315.84H388.172V180.631H1247.57V1174.61L1164.21 1239.33Z" fill="#FAFAFA"/>
<path d="M1164.21 1239.33C1164.21 1239.33 1165.95 1237.92 1169.45 1235.16C1172.97 1232.4 1178.22 1228.29 1185.16 1222.85C1199.13 1211.97 1219.92 1195.75 1247.36 1174.36L1247.24 1174.61C1247.13 1011.33 1246.91 648.533 1246.62 180.63L1247.57 181.539C991.659 181.57 701.701 181.605 395.677 181.636H388.175L389.226 180.63C389.149 607.409 389.076 1001.12 389.016 1315.84L388.175 1315.03C697.641 1315.24 935.371 1315.4 1066.12 1315.5L1065.89 1315.57C1098.61 1290.15 1123.16 1271.07 1139.55 1258.34C1147.75 1251.99 1153.9 1247.24 1158.02 1244.05C1162.12 1240.88 1164.21 1239.33 1164.21 1239.33C1164.21 1239.33 1162.21 1240.98 1158.13 1244.19C1154.04 1247.41 1147.93 1252.21 1139.79 1258.61C1123.44 1271.4 1098.97 1290.57 1066.34 1316.11L1066.25 1316.18H1066.12C935.371 1316.27 697.641 1316.44 388.175 1316.64H387.331V1315.84C387.274 1001.12 387.202 607.409 387.125 180.63V179.624H388.175H395.677C701.701 179.658 991.659 179.689 1247.57 179.72H1248.52V180.63C1248.23 648.533 1248 1011.33 1247.91 1174.61V1174.76L1247.78 1174.86C1220.25 1196.15 1199.38 1212.28 1185.38 1223.11C1178.39 1228.5 1173.11 1232.56 1169.56 1235.29C1166.02 1238 1164.21 1239.33 1164.21 1239.33Z" fill="#1A2E35"/>
<path d="M994.047 216.782H642.32V158.396C642.32 126.861 669.012 101.291 701.937 101.291H936.867C968.447 101.291 994.047 125.816 994.047 156.063V216.782Z" fill="#851CD8"/>
<path d="M728.461 101.293L715.602 38.999H918.121L906.87 101.293H728.461Z" fill="#851CD8"/>
<path d="M482.102 496.295H618.807V365.357H482.102V496.295ZM622.847 500.164H478.062V361.488H622.847V500.164Z" fill="#851CD8"/>
<path d="M1134.47 394.976C1134.47 395.534 1033.68 395.982 909.394 395.982C785.063 395.982 684.301 395.534 684.301 394.976C684.301 394.419 785.063 393.966 909.394 393.966C1033.68 393.966 1134.47 394.419 1134.47 394.976Z" fill="#1A2E35"/>
<path d="M1134.47 423.793C1134.47 424.35 1033.68 424.799 909.394 424.799C785.063 424.799 684.301 424.35 684.301 423.793C684.301 423.236 785.063 422.783 909.394 422.783C1033.68 422.783 1134.47 423.236 1134.47 423.793Z" fill="#1A2E35"/>
<path d="M1134.47 452.609C1134.47 453.166 1033.68 453.615 909.394 453.615C785.063 453.615 684.301 453.166 684.301 452.609C684.301 452.052 785.063 451.599 909.394 451.599C1033.68 451.599 1134.47 452.052 1134.47 452.609Z" fill="#1A2E35"/>
<path d="M1134.47 481.427C1134.47 481.984 1033.68 482.433 909.394 482.433C785.063 482.433 684.301 481.984 684.301 481.427C684.301 480.869 785.063 480.417 909.394 480.417C1033.68 480.417 1134.47 480.869 1134.47 481.427Z" fill="#1A2E35"/>
<path d="M482.102 710.015H618.807V579.082H482.102V710.015ZM622.847 713.885H478.062V575.212H622.847V713.885Z" fill="#851CD8"/>
<path d="M506.852 647.4L526.073 627.627L558.105 652.171L631.429 583.987L648.994 603.818L556.679 691.039L506.852 647.4Z" fill="#851CD8"/>
<path d="M1134.47 608.697C1134.47 609.254 1033.68 609.703 909.394 609.703C785.063 609.703 684.301 609.254 684.301 608.697C684.301 608.14 785.063 607.687 909.394 607.687C1033.68 607.687 1134.47 608.14 1134.47 608.697Z" fill="#1A2E35"/>
<path d="M1134.47 637.515C1134.47 638.073 1033.68 638.521 909.394 638.521C785.063 638.521 684.301 638.073 684.301 637.515C684.301 636.958 785.063 636.506 909.394 636.506C1033.68 636.506 1134.47 636.958 1134.47 637.515Z" fill="#1A2E35"/>
<path d="M1134.47 666.332C1134.47 666.889 1033.68 667.338 909.394 667.338C785.063 667.338 684.301 666.889 684.301 666.332C684.301 665.775 785.063 665.322 909.394 665.322C1033.68 665.322 1134.47 665.775 1134.47 666.332Z" fill="#1A2E35"/>
<path d="M1134.47 695.149C1134.47 695.706 1033.68 696.155 909.394 696.155C785.063 696.155 684.301 695.706 684.301 695.149C684.301 694.592 785.063 694.14 909.394 694.14C1033.68 694.14 1134.47 694.592 1134.47 695.149Z" fill="#1A2E35"/>
<path d="M482.102 916.828H618.807V785.89H482.102V916.828ZM622.847 920.697H478.062V782.021H622.847V920.697Z" fill="#851CD8"/>
<path d="M506.852 854.215L526.073 834.442L558.105 858.986L631.429 790.803L648.994 810.634L556.679 897.851L506.852 854.215Z" fill="#851CD8"/>
<path d="M1134.47 815.511C1134.47 816.068 1033.68 816.521 909.394 816.521C785.063 816.521 684.301 816.068 684.301 815.511C684.301 814.954 785.063 814.505 909.394 814.505C1033.68 814.505 1134.47 814.954 1134.47 815.511Z" fill="#1A2E35"/>
<path d="M1134.47 844.33C1134.47 844.887 1033.68 845.336 909.394 845.336C785.063 845.336 684.301 844.887 684.301 844.33C684.301 843.769 785.063 843.32 909.394 843.32C1033.68 843.32 1134.47 843.769 1134.47 844.33Z" fill="#1A2E35"/>
<path d="M1134.47 873.145C1134.47 873.702 1033.68 874.151 909.394 874.151C785.063 874.151 684.301 873.702 684.301 873.145C684.301 872.584 785.063 872.135 909.394 872.135C1033.68 872.135 1134.47 872.584 1134.47 873.145Z" fill="#1A2E35"/>
<path d="M1134.47 901.964C1134.47 902.521 1033.68 902.97 909.394 902.97C785.063 902.97 684.301 902.521 684.301 901.964C684.301 901.403 785.063 900.954 909.394 900.954C1033.68 900.954 1134.47 901.403 1134.47 901.964Z" fill="#1A2E35"/>
<path d="M482.102 1116.51H618.807V985.573H482.102V1116.51ZM622.847 1120.38H478.062V981.703H622.847V1120.38Z" fill="#851CD8"/>
<path d="M506.852 1053.9L526.073 1034.13L558.105 1058.67L631.429 990.487L648.994 1010.32L556.679 1097.54L506.852 1053.9Z" fill="#851CD8"/>
<path d="M1134.47 1015.2C1134.47 1015.75 1033.68 1016.2 909.394 1016.2C785.063 1016.2 684.301 1015.75 684.301 1015.2C684.301 1014.64 785.063 1014.19 909.394 1014.19C1033.68 1014.19 1134.47 1014.64 1134.47 1015.2Z" fill="#1A2E35"/>
<path d="M1134.47 1044.01C1134.47 1044.57 1033.68 1045.02 909.394 1045.02C785.063 1045.02 684.301 1044.57 684.301 1044.01C684.301 1043.45 785.063 1043 909.394 1043C1033.68 1043 1134.47 1043.45 1134.47 1044.01Z" fill="#1A2E35"/>
<path d="M1134.47 1072.83C1134.47 1073.39 1033.68 1073.84 909.394 1073.84C785.063 1073.84 684.301 1073.39 684.301 1072.83C684.301 1072.27 785.063 1071.82 909.394 1071.82C1033.68 1071.82 1134.47 1072.27 1134.47 1072.83Z" fill="#1A2E35"/>
<path d="M1134.47 1101.65C1134.47 1102.2 1033.68 1102.65 909.394 1102.65C785.063 1102.65 684.301 1102.2 684.301 1101.65C684.301 1101.08 785.063 1100.64 909.394 1100.64C1033.68 1100.64 1134.47 1101.08 1134.47 1101.65Z" fill="#1A2E35"/>
<path d="M1093.07 1127.89L998.852 1314.78H1066.12L1093.07 1127.89Z" fill="#E1E1E1"/>
<path d="M1066.12 1315.84L1093.07 1128.94L1247.57 1174.61L1066.12 1315.84Z" fill="#FAFAFA"/>
<path d="M1066.12 1315.84C1069.91 1312.85 1086.59 1299.7 1118.07 1274.87C1150.37 1249.56 1195.42 1214.23 1246.92 1173.85L1247.27 1175.55C1228.11 1169.89 1208.12 1163.99 1187.62 1157.94C1154.18 1148.03 1122.09 1138.53 1092.78 1129.85L1094.05 1129.07C1085.98 1183.36 1079.06 1229.86 1074.14 1262.92C1069.27 1295.06 1066.76 1311.65 1066.12 1315.84C1066.11 1315.86 1066.14 1315.58 1066.21 1315.01C1066.3 1314.34 1066.41 1313.49 1066.55 1312.42C1066.88 1310 1067.35 1306.6 1067.94 1302.24C1069.19 1293.17 1070.99 1280.11 1073.25 1263.72C1077.9 1230.4 1084.45 1183.53 1092.09 1128.81L1092.24 1127.7L1093.36 1128.03C1122.69 1136.68 1154.78 1146.15 1188.24 1156.01C1208.73 1162.08 1228.72 1168 1247.87 1173.67L1249.72 1174.21L1248.22 1175.37C1196.09 1215.65 1150.49 1250.88 1117.81 1276.12C1101.68 1288.55 1088.74 1298.51 1079.73 1305.44C1075.38 1308.78 1071.98 1311.39 1069.57 1313.24C1068.49 1314.06 1067.63 1314.71 1066.97 1315.22C1066.39 1315.65 1066.11 1315.86 1066.12 1315.84Z" fill="#1A2E35"/>
<g opacity="0.300003">
<g opacity="0.300003">
<path opacity="0.300003" d="M904.131 38.999L892.961 101.293H906.87L918.121 38.999H900.406" fill="black"/>
</g>
</g>
<path d="M310.939 696.049C331.494 697.562 349.237 682.409 350.033 662.675C350.792 643.727 351.455 624.573 351.455 624.573C351.455 624.573 381.43 621.884 383.608 593.467C385.781 565.053 384.787 499.451 384.787 499.451C351.321 483.3 311.347 485.761 280.312 505.886L282.159 605.891V659.696C282.357 677.743 292.153 694.668 310.939 696.049Z" fill="#FFBF9D"/>
<path d="M354.036 558.777C348.918 552.702 340.595 550.284 333.764 554.54C326.929 558.792 324.299 568.242 328.019 575.187C330.641 580.09 336.616 584.532 342.575 585.728C348.174 586.854 352.145 592.035 351.495 597.479C350.639 604.61 346.667 611.362 341.076 617.267C332.382 626.449 319.592 631.395 306.737 632.849C294.105 634.281 279.63 631.758 272.277 621.814C266.928 614.574 266.541 605.113 266.351 596.249C265.898 575.299 265.446 554.346 264.989 533.393C264.828 525.844 264.674 518.194 266.488 510.842C268.298 503.491 272.318 496.348 278.907 492.192C286.122 487.645 295.264 487.258 303.481 484.712C313.759 481.528 322.481 475 332.096 470.291C341.71 465.582 353.495 462.765 363.146 467.404C370.074 470.736 374.72 477.356 381.455 481.028C391.049 486.252 404.106 485.064 408.76 498.572C410.368 503.239 410.251 508.37 408.603 513.025C402.098 531.405 378.328 538.818 361.207 530.874C360.867 533.986 364.071 540.916 360.649 550.752C359.554 553.894 359.167 558.688 354.036 558.777Z" fill="#1A2E35"/>
<path d="M272.174 500.282C276.383 491.096 280.645 481.72 281.704 471.741C282.766 461.758 280.12 450.889 272.355 444.152C267.104 439.598 259.884 437.326 252.798 437.528C239.241 437.907 226.685 447.65 222.988 460.152C219.288 472.654 224.394 486.975 234.974 495.105C245.559 503.234 260.918 504.972 273.414 499.907" fill="#1A2E35"/>
<path d="M277.996 489.919C278.557 489.908 278.08 494.977 273.62 499.101C269.213 503.269 263.909 503.609 263.937 503.071C263.795 502.495 268.284 501.361 272.154 497.658C276.105 494.04 277.402 489.768 277.996 489.919Z" fill="#851CD8"/>
<path d="M268.245 496.863C268.358 497.026 265.623 499.572 260.185 502.505C257.463 503.894 253.855 505.33 249.569 505.388C245.428 505.473 240.253 504.13 237.191 500.067C234.161 496.043 234.048 491.098 234.993 487.217C235.983 483.224 238.112 480.167 239.982 477.81C243.893 473.175 246.842 470.892 247.003 471.031C247.278 471.256 244.668 473.945 241.186 478.646C239.53 481.018 237.663 484.017 236.888 487.619C236.112 491.172 236.35 495.544 238.883 498.876C241.396 502.234 245.796 503.503 249.565 503.531C253.415 503.577 256.812 502.412 259.527 501.228C264.928 498.729 268.043 496.562 268.245 496.863Z" fill="#1A2E35"/>
<path d="M217.812 528.959C217.957 528.916 218.434 530.058 219.258 532.105C220.111 534.125 221.238 537.166 223.625 540.204C225.94 543.125 230.218 546.255 235.244 545.323C240.225 544.413 244.629 540.018 246.426 534.539C248.353 529.013 248.491 523.232 249.46 518.032C250.353 512.831 252.171 508.083 255.124 505.011C258.009 501.931 261.414 500.577 263.765 500.294C266.149 499.981 267.426 500.519 267.393 500.592C267.377 500.786 266.084 500.538 263.919 501.068C261.778 501.556 258.768 502.995 256.255 505.94C253.714 508.838 252.139 513.272 251.375 518.33C250.523 523.383 250.474 529.238 248.418 535.189C246.467 541.121 241.514 546.186 235.587 547.149C232.646 547.656 229.738 546.917 227.544 545.656C225.322 544.394 223.662 542.719 222.43 541.051C220.01 537.65 219.109 534.469 218.479 532.349C217.889 530.205 217.679 528.998 217.812 528.959Z" fill="#1A2E35"/>
<path d="M203.236 767.674C203.236 767.674 188.115 873.774 203.236 887.224C218.357 900.674 232.913 896.209 232.913 896.209L261.705 873.147L267.373 767.674H203.236Z" fill="#FFBF9D"/>
<path d="M516.145 469.826L535.366 450.054L567.402 474.601L640.722 406.414L658.287 426.245L565.976 513.466L516.145 469.826Z" fill="#851CD8"/>
<path d="M606.465 475.21L578.59 492.344C577.334 481.792 568.919 471.333 569.351 476.634C569.783 481.935 569.403 509.435 569.403 509.435L519.693 609.622C512.939 625.495 499.252 635.474 489.023 637.827L442.621 651.045L460.76 709.802L525.252 689.321C541.989 684.004 555.098 671.409 560.597 655.367L605.055 525.648C605.055 525.648 610.335 510.902 612.238 500.09C614.141 489.279 606.465 475.21 606.465 475.21Z" fill="#FFBF9D"/>
<path d="M378.074 1570.93L377.379 1541.22L319.27 1542.11L319.807 1585.59L323.414 1585.75C339.461 1586.36 405.056 1587.76 415.725 1584.48C427.623 1580.83 378.074 1570.93 378.074 1570.93Z" fill="#851CD8"/>
<g opacity="0.5">
<g opacity="0.5">
<path opacity="0.5" d="M340.871 1584.83C339.966 1580.19 337.195 1575.91 333.26 1573.08C329.325 1570.24 324.514 1568.79 319.609 1569.24L319.856 1584.79L340.871 1584.83Z" fill="white"/>
</g>
</g>
<g opacity="0.399994">
<g opacity="0.399994">
<path opacity="0.399994" d="M402.299 1576.59C402.299 1576.59 419.682 1581.11 417.569 1583.87C415.457 1586.63 349.11 1587.61 319.809 1585.59L319.881 1584.34L397.277 1583.84C397.277 1583.84 398.917 1576.78 402.299 1576.59Z" fill="white"/>
</g>
</g>
<path d="M318.969 1584.32C318.969 1584.35 319.312 1584.38 319.971 1584.41C320.831 1584.45 321.772 1584.49 322.839 1584.53C325.711 1584.61 329.242 1584.7 333.407 1584.81C342.331 1584.99 354.665 1585.08 368.287 1584.89C381.914 1584.7 394.24 1584.26 403.156 1583.84C407.317 1583.61 410.843 1583.42 413.708 1583.26C414.774 1583.18 415.715 1583.12 416.576 1583.06C417.23 1583 417.574 1582.96 417.574 1582.94C417.57 1582.92 417.226 1582.91 416.568 1582.92C415.703 1582.95 414.762 1582.97 413.696 1583C410.827 1583.1 407.296 1583.22 403.131 1583.36C394.215 1583.66 381.894 1584.02 368.279 1584.21C354.665 1584.4 342.339 1584.39 333.415 1584.34C329.246 1584.31 325.715 1584.29 322.847 1584.27C321.78 1584.27 320.835 1584.27 319.971 1584.28C319.312 1584.28 318.969 1584.3 318.969 1584.32Z" fill="#1A2E35"/>
<path d="M397.276 1584.7C397.49 1584.72 397.615 1582.31 399.17 1579.84C400.681 1577.36 402.831 1576.09 402.709 1575.91C402.665 1575.75 400.193 1576.84 398.564 1579.5C396.908 1582.14 397.102 1584.74 397.276 1584.7Z" fill="#1A2E35"/>
<path d="M379.999 1576.62C380.165 1576.72 380.968 1575.75 381.797 1574.46C382.621 1573.17 383.158 1572.04 382.992 1571.94C382.827 1571.85 382.023 1572.82 381.195 1574.11C380.367 1575.4 379.833 1576.52 379.999 1576.62Z" fill="#1A2E35"/>
<path d="M375.251 1574.31C375.384 1574.45 376.289 1573.85 377.279 1572.97C378.265 1572.09 378.955 1571.27 378.826 1571.14C378.693 1571 377.788 1571.6 376.798 1572.47C375.812 1573.35 375.117 1574.17 375.251 1574.31Z" fill="#1A2E35"/>
<path d="M372.191 1569.1C372.191 1569.29 373.553 1569.43 375.229 1569.42C376.906 1569.41 378.263 1569.26 378.263 1569.07C378.263 1568.88 376.906 1568.74 375.225 1568.75C373.549 1568.75 372.191 1568.91 372.191 1569.1Z" fill="#1A2E35"/>
<path d="M371.111 1565.41C371.047 1565.58 372.537 1566.19 374.509 1566.3C376.48 1566.42 378.036 1565.97 377.995 1565.8C377.959 1565.61 376.424 1565.74 374.553 1565.63C372.679 1565.53 371.172 1565.22 371.111 1565.41Z" fill="#1A2E35"/>
<path d="M381.891 1571.74C381.891 1571.81 383.325 1571.96 385.623 1571.66C386.771 1571.51 388.128 1571.23 389.587 1570.76C390.31 1570.51 391.069 1570.3 391.849 1569.83C392.212 1569.59 392.616 1569.25 392.754 1568.71C392.899 1568.17 392.588 1567.57 392.164 1567.29C388.568 1565.56 385.026 1567.54 383.729 1569.33C383.014 1570.24 382.695 1571.13 382.549 1571.73C382.408 1572.34 382.424 1572.7 382.468 1572.7C382.598 1572.75 382.699 1571.29 384.121 1569.62C384.82 1568.81 385.89 1568.01 387.276 1567.59C388.589 1567.2 390.463 1567.07 391.732 1567.82C392.33 1568.23 392.111 1568.9 391.457 1569.28C390.851 1569.67 390.055 1569.92 389.372 1570.18C387.967 1570.66 386.658 1570.99 385.543 1571.19C383.313 1571.61 381.891 1571.63 381.891 1571.74Z" fill="#1A2E35"/>
<path d="M382.86 1571.9C382.913 1571.94 383.45 1571.02 383.252 1569.41C383.147 1568.62 382.832 1567.69 382.19 1566.81C381.515 1566.03 380.654 1564.95 379.051 1565.04C378.186 1565.15 377.782 1566.11 377.928 1566.7C378.004 1567.33 378.307 1567.86 378.586 1568.29C379.156 1569.18 379.798 1569.89 380.388 1570.43C381.576 1571.51 382.505 1571.91 382.545 1571.84C382.61 1571.76 381.79 1571.21 380.743 1570.1C380.222 1569.54 379.657 1568.83 379.148 1567.97C378.622 1567.23 378.247 1565.87 379.184 1565.7C380.117 1565.6 381.087 1566.48 381.668 1567.18C382.266 1567.95 382.606 1568.77 382.759 1569.49C383.07 1570.94 382.735 1571.87 382.86 1571.9Z" fill="#1A2E35"/>
<path d="M319.91 1569.08C319.922 1569.2 321.571 1568.9 324.2 1569.16C326.81 1569.4 330.441 1570.37 333.629 1572.72C336.812 1575.08 338.706 1578.2 339.607 1580.56C340.532 1582.93 340.645 1584.53 340.775 1584.51C340.819 1584.51 340.831 1584.11 340.759 1583.39C340.686 1582.67 340.492 1581.63 340.076 1580.4C339.276 1577.94 337.377 1574.64 334.057 1572.19C330.736 1569.73 326.927 1568.81 324.245 1568.68C322.891 1568.61 321.793 1568.69 321.049 1568.81C320.302 1568.92 319.902 1569.04 319.91 1569.08Z" fill="#1A2E35"/>
<path d="M325.559 1545.83C325.365 1545.83 325.219 1550.95 325.236 1557.27C325.256 1563.58 325.43 1568.7 325.623 1568.7C325.817 1568.7 325.959 1563.58 325.943 1557.26C325.922 1550.95 325.753 1545.83 325.559 1545.83Z" fill="#1A2E35"/>
<path d="M348.094 1579.29C348.074 1579.47 351.867 1580.01 356.59 1579.98C361.312 1579.95 365.102 1579.37 365.077 1579.2C365.053 1579 361.264 1579.28 356.586 1579.3C351.907 1579.34 348.114 1579.1 348.094 1579.29Z" fill="#1A2E35"/>
<path d="M336.706 1579.44C336.564 1579.58 337.029 1580.21 337.429 1581.04C337.841 1581.86 338.051 1582.6 338.253 1582.59C338.443 1582.59 338.54 1581.7 338.067 1580.75C337.598 1579.8 336.827 1579.31 336.706 1579.44Z" fill="#1A2E35"/>
<path d="M332.332 1574.39C332.195 1574.53 332.583 1575.1 333.188 1575.67C333.802 1576.25 334.407 1576.61 334.541 1576.47C334.678 1576.34 334.294 1575.77 333.685 1575.19C333.075 1574.62 332.47 1574.26 332.332 1574.39Z" fill="#1A2E35"/>
<path d="M326.151 1572.15C326.196 1572.34 326.968 1572.32 327.825 1572.59C328.689 1572.85 329.308 1573.29 329.457 1573.16C329.611 1573.06 329.11 1572.28 328.043 1571.95C326.976 1571.62 326.091 1571.97 326.151 1572.15Z" fill="#1A2E35"/>
<path d="M321.763 1571.11C321.694 1571.28 322.034 1571.56 322.519 1571.74C323.004 1571.91 323.453 1571.91 323.521 1571.73C323.586 1571.55 323.25 1571.28 322.765 1571.11C322.276 1570.93 321.831 1570.93 321.763 1571.11Z" fill="#1A2E35"/>
<path d="M173.021 1561.43L192.724 1538.47L148.067 1502.85L118.875 1536.14L121.493 1538.52C133.245 1549.01 182.022 1591.04 192.336 1595.22C203.846 1599.88 173.021 1561.43 173.021 1561.43Z" fill="#851CD8"/>
<g opacity="0.5">
<g opacity="0.5">
<path opacity="0.5" d="M135.358 1548.72C137.827 1544.64 138.643 1539.66 137.588 1535.06C136.538 1530.45 133.88 1526.34 129.856 1523.62L119.449 1535.57L135.358 1548.72Z" fill="white"/>
</g>
</g>
<g opacity="0.399994">
<g opacity="0.399994">
<path opacity="0.399994" d="M187.533 1580.85C187.533 1580.85 197.636 1595.13 194.154 1595.91C190.668 1596.68 139.713 1555.98 118.875 1536.14L119.78 1535.24L178.794 1583.2C178.794 1583.2 184.842 1578.88 187.533 1580.85Z" fill="white"/>
</g>
</g>
<path d="M119.102 1534.66C119.086 1534.68 119.329 1534.91 119.801 1535.35C120.427 1535.92 121.118 1536.54 121.894 1537.24C124.019 1539.09 126.629 1541.36 129.711 1544.05C136.357 1549.76 145.652 1557.53 156.103 1565.89C166.563 1574.26 176.202 1581.63 183.251 1586.88C186.56 1589.31 189.364 1591.36 191.646 1593.04C192.503 1593.64 193.262 1594.18 193.957 1594.67C194.49 1595.04 194.777 1595.22 194.789 1595.2C194.805 1595.19 194.547 1594.97 194.042 1594.56C193.371 1594.04 192.64 1593.47 191.812 1592.83C189.57 1591.11 186.815 1589 183.562 1586.51C176.594 1581.17 167.007 1573.74 156.556 1565.37C146.109 1557.02 136.773 1549.31 130.042 1543.69C126.903 1541.07 124.241 1538.85 122.076 1537.04C121.268 1536.38 120.549 1535.79 119.894 1535.25C119.389 1534.84 119.118 1534.64 119.102 1534.66Z" fill="#1A2E35"/>
<path d="M178.206 1583.86C178.352 1584.01 180.097 1582.26 182.949 1581.36C185.789 1580.42 188.282 1580.8 188.306 1580.6C188.387 1580.44 185.773 1579.72 182.723 1580.72C179.669 1581.69 178.045 1583.78 178.206 1583.86Z" fill="#1A2E35"/>
<path d="M170.604 1566.94C170.664 1567.12 171.933 1566.88 173.439 1566.42C174.946 1565.96 176.117 1565.44 176.061 1565.26C176 1565.09 174.728 1565.32 173.225 1565.78C171.719 1566.24 170.543 1566.76 170.604 1566.94Z" fill="#1A2E35"/>
<path d="M168.586 1562.23C168.594 1562.41 169.689 1562.52 171.034 1562.48C172.379 1562.43 173.466 1562.24 173.458 1562.05C173.45 1561.87 172.355 1561.76 171.01 1561.8C169.665 1561.85 168.578 1562.04 168.586 1562.23Z" fill="#1A2E35"/>
<path d="M169.817 1556.37C169.687 1556.51 170.621 1557.47 171.897 1558.51C173.174 1559.55 174.309 1560.28 174.438 1560.15C174.559 1560 173.63 1559.04 172.354 1558C171.077 1556.95 169.942 1556.23 169.817 1556.37Z" fill="#1A2E35"/>
<path d="M171.507 1552.9C171.345 1552.98 172.052 1554.38 173.474 1555.7C174.888 1557.01 176.371 1557.65 176.456 1557.49C176.561 1557.33 175.309 1556.47 173.963 1555.21C172.614 1553.96 171.677 1552.79 171.507 1552.9Z" fill="#1A2E35"/>
<path d="M175.369 1564.43C175.312 1564.48 176.302 1565.49 178.25 1566.7C179.224 1567.3 180.444 1567.94 181.866 1568.49C182.593 1568.75 183.3 1569.07 184.213 1569.2C184.658 1569.24 185.195 1569.24 185.668 1568.91C186.145 1568.59 186.318 1567.95 186.189 1567.47C184.63 1563.91 180.601 1563.2 178.399 1563.74C177.236 1563.99 176.395 1564.46 175.87 1564.83C175.345 1565.21 175.123 1565.48 175.151 1565.51C175.22 1565.63 176.286 1564.59 178.496 1564.21C179.583 1564.03 180.937 1564.1 182.274 1564.65C183.535 1565.16 185.05 1566.24 185.498 1567.6C185.672 1568.28 185.05 1568.66 184.29 1568.54C183.563 1568.46 182.799 1568.14 182.104 1567.91C180.706 1567.4 179.494 1566.83 178.508 1566.29C176.537 1565.21 175.442 1564.34 175.369 1564.43Z" fill="#1A2E35"/>
<path d="M175.992 1565.15C176.008 1565.22 177.042 1564.85 177.984 1563.51C178.44 1562.85 178.836 1561.94 178.945 1560.88C178.974 1559.86 179.05 1558.5 177.778 1557.57C177.042 1557.12 176.089 1557.59 175.79 1558.13C175.422 1558.65 175.289 1559.25 175.212 1559.75C175.039 1560.77 175.039 1561.71 175.115 1562.5C175.285 1564.05 175.713 1564.94 175.79 1564.91C175.899 1564.89 175.649 1563.97 175.616 1562.46C175.6 1561.71 175.653 1560.82 175.847 1559.86C175.96 1558.96 176.598 1557.71 177.426 1558.15C178.202 1558.66 178.339 1559.93 178.299 1560.83C178.234 1561.78 177.927 1562.62 177.556 1563.27C176.804 1564.56 175.915 1565.06 175.992 1565.15Z" fill="#1A2E35"/>
<path d="M130.19 1523.69C130.117 1523.79 131.572 1524.59 133.39 1526.43C135.204 1528.24 137.296 1531.25 138.108 1535.02C138.92 1538.79 138.229 1542.35 137.308 1544.7C136.395 1547.07 135.389 1548.36 135.498 1548.43C135.535 1548.45 135.818 1548.15 136.25 1547.56C136.686 1546.97 137.244 1546.06 137.773 1544.87C138.839 1542.5 139.643 1538.82 138.799 1534.88C137.955 1530.95 135.696 1527.87 133.745 1526.1C132.768 1525.2 131.879 1524.57 131.236 1524.2C130.594 1523.82 130.21 1523.65 130.19 1523.69Z" fill="#1A2E35"/>
<path d="M150.307 1509.59C150.158 1509.47 146.562 1513.27 142.276 1518.06C137.99 1522.87 134.633 1526.85 134.778 1526.97C134.927 1527.09 138.523 1523.3 142.813 1518.5C147.1 1513.7 150.457 1509.71 150.307 1509.59Z" fill="#1A2E35"/>
<path d="M144.599 1549.04C144.465 1549.16 146.974 1551.94 150.574 1554.86C154.17 1557.8 157.439 1559.72 157.54 1559.58C157.657 1559.42 154.594 1557.26 151.031 1554.35C147.463 1551.46 144.748 1548.91 144.599 1549.04Z" fill="#1A2E35"/>
<path d="M135.867 1542.04C135.665 1542.06 135.588 1542.82 135.329 1543.7C135.083 1544.58 134.739 1545.28 134.901 1545.39C135.042 1545.51 135.717 1544.9 136.008 1543.88C136.303 1542.87 136.052 1542.01 135.867 1542.04Z" fill="#1A2E35"/>
<path d="M135.988 1535.48C135.794 1535.49 135.693 1536.17 135.766 1536.99C135.835 1537.8 136.053 1538.45 136.248 1538.44C136.442 1538.42 136.539 1537.75 136.47 1536.93C136.397 1536.11 136.183 1535.46 135.988 1535.48Z" fill="#1A2E35"/>
<path d="M132.838 1529.92C132.745 1530.09 133.343 1530.55 133.803 1531.3C134.284 1532.03 134.446 1532.76 134.648 1532.75C134.837 1532.77 134.991 1531.86 134.405 1530.95C133.823 1530.03 132.906 1529.75 132.838 1529.92Z" fill="#1A2E35"/>
<path d="M130.216 1526.39C130.046 1526.48 130.111 1526.9 130.361 1527.34C130.612 1527.77 130.955 1528.05 131.125 1527.95C131.294 1527.87 131.23 1527.44 130.979 1527.01C130.729 1526.58 130.385 1526.3 130.216 1526.39Z" fill="#1A2E35"/>
<path d="M293.948 939.685C293.948 939.685 274.602 1018.09 280.072 1033.6C285.541 1049.11 320.991 1058.08 320.991 1058.08L319.795 1272.78L123.766 1504.87L196.152 1561.6C196.152 1561.6 408.369 1329.07 427.074 1286.97C445.782 1244.86 415.152 936.214 415.152 936.214L293.948 939.685Z" fill="#1A2E35"/>
<path d="M394.071 907.718L403.666 1559.82L303.933 1560.3L253.891 1029.2C243.311 1019.53 228.432 1002.96 230.48 966.022L232.908 923.11L394.071 907.718Z" fill="#1A2E35"/>
<path d="M288.922 1309.08C288.886 1309.06 289.084 1308.73 289.5 1308.12C290.013 1307.39 290.635 1306.51 291.391 1305.44C293.225 1302.96 295.705 1299.6 298.804 1295.4C305.434 1286.61 314.701 1274.32 325.864 1259.52L325.694 1260.01C323.521 1237.38 320.891 1209.93 318.05 1180.34C314.431 1141.55 311.498 1106.41 309.773 1080.95C308.892 1068.22 308.314 1057.91 307.995 1050.78C307.87 1047.37 307.777 1044.64 307.7 1042.56C307.656 1040.69 307.668 1039.7 307.74 1039.69C307.813 1039.69 307.942 1040.67 308.124 1042.54C308.298 1044.61 308.528 1047.33 308.811 1050.73C309.405 1058.07 310.237 1068.29 311.255 1080.84C313.36 1106.27 316.527 1141.38 320.147 1180.16C322.862 1209.86 325.633 1237.26 327.423 1260.01L327.443 1260.26L327.253 1260.5C315.853 1275.13 306.379 1287.27 299.604 1295.96C296.344 1300.05 293.738 1303.32 291.811 1305.74C290.97 1306.75 290.284 1307.58 289.714 1308.27C289.225 1308.83 288.959 1309.11 288.922 1309.08Z" fill="#375A64"/>
<path d="M319.535 1039.69C319.446 1040.23 307.565 1038.84 293.131 1035.93C278.692 1033.03 267.231 1029.73 267.372 1029.2C267.522 1028.65 279.177 1031.07 293.563 1033.96C307.941 1036.86 319.632 1039.13 319.535 1039.69Z" fill="#375A64"/>
<path d="M387.84 1262.33C387.574 1262.95 376.387 1256.68 360.907 1255.61C345.442 1254.33 333.367 1258.83 333.205 1258.18C333.116 1257.97 335.972 1256.56 340.978 1255.27C345.963 1253.97 353.158 1253.01 361.076 1253.6C368.986 1254.21 375.935 1256.25 380.645 1258.28C385.376 1260.31 387.961 1262.14 387.84 1262.33Z" fill="#375A64"/>
<path d="M423.014 1292.55C423.479 1292.89 395.426 1328.95 360.368 1373.09C325.298 1417.25 296.501 1452.75 296.037 1452.42C295.576 1452.08 323.621 1416.02 358.691 1371.87C393.749 1327.73 422.553 1292.21 423.014 1292.55Z" fill="#375A64"/>
<path d="M409.506 956.157C409.688 956.219 408.318 959.554 403.89 963.254C399.608 966.906 391.73 970.617 382.628 969.739C373.534 968.783 366.638 963.579 363.244 959.144C359.722 954.64 359.108 951.108 359.301 951.084C359.657 950.941 360.768 954.215 364.4 958.247C367.915 962.24 374.484 966.86 382.85 967.73C391.221 968.547 398.646 965.343 402.957 962.143C407.389 958.928 409.191 955.944 409.506 956.157Z" fill="#375A64"/>
<path d="M273.246 620.64C257.005 605.87 247.095 584.902 246.227 563.473C245.358 542.04 253.535 520.394 268.527 504.464" fill="#1A2E35"/>
<path d="M217.24 681.467C217.24 681.467 195.574 704.908 191.086 794.57C191.086 794.57 252.787 805.784 253.914 802.56C255.041 799.333 217.24 681.467 217.24 681.467Z" fill="#851CD8"/>
<g opacity="0.300003">
<g opacity="0.300003">
<path opacity="0.300003" d="M217.24 681.467C217.24 681.467 195.574 704.908 191.086 794.57C191.086 794.57 252.787 805.784 253.914 802.56C255.041 799.333 217.24 681.467 217.24 681.467Z" fill="black"/>
</g>
</g>
<path d="M227.229 942.59H416.654L413.592 914.254C413.592 914.254 391.946 806.425 392.108 805.004L395.517 798.136C404.458 780.143 404.761 759.306 396.346 741.081L489.097 710.703L466.389 637.396C424.302 644.206 360.682 651.794 360.682 651.794L351.212 652.557C351.212 652.557 285.54 655.838 284.134 656C256.663 659.181 224.7 661.201 213.012 689.363C206.767 704.422 212.701 727.028 222.902 750.329L247.182 821.906C256.881 861.247 241.405 859.374 232.913 898.97C231.628 904.956 227.104 937.099 227.229 942.59Z" fill="#851CD8"/>
<g opacity="0.300003">
<g opacity="0.300003">
<path opacity="0.300003" d="M227.229 942.59H416.654L413.592 914.254C413.592 914.254 391.946 806.425 392.108 805.004L395.517 798.136C404.458 780.143 404.761 759.306 396.346 741.081L489.097 710.703L466.389 637.396C424.302 644.206 360.682 651.794 360.682 651.794L351.212 652.557C351.212 652.557 285.54 655.838 284.134 656C256.663 659.181 224.7 661.201 213.012 689.363C206.767 704.422 212.701 727.028 222.902 750.329L247.182 821.906C256.881 861.247 241.405 859.374 232.913 898.97C231.628 904.956 227.104 937.099 227.229 942.59Z" fill="black"/>
</g>
</g>
<path d="M488.231 711.891C488.276 712.022 486.805 712.607 484.115 713.547C481.424 714.487 477.51 715.787 472.658 717.354C462.958 720.492 449.493 724.648 434.626 729.202C419.76 733.757 406.465 738.284 397.027 742.018C392.289 743.848 388.527 745.481 385.893 746.553C383.288 747.679 381.813 748.248 381.749 748.12C381.68 748 383.025 747.195 385.534 745.853C388.063 744.556 391.751 742.718 396.438 740.71C405.778 736.62 419.085 731.849 433.98 727.287C448.867 722.725 462.392 718.786 472.209 715.996C477.118 714.603 481.101 713.512 483.868 712.8C486.636 712.088 488.187 711.759 488.231 711.891Z" fill="#1A2E35"/>
<path d="M477.219 672.862C477.219 673.419 421.214 673.872 352.145 673.872C283.051 673.872 227.062 673.419 227.062 672.862C227.062 672.305 283.051 671.856 352.145 671.856C421.214 671.856 477.219 672.305 477.219 672.862Z" fill="#FAFAFA"/>
<path d="M482.992 708.495C482.992 709.052 420.669 709.505 343.807 709.505C266.92 709.505 204.613 709.052 204.613 708.495C204.613 707.938 266.92 707.489 343.807 707.489C420.669 707.489 482.992 707.938 482.992 708.495Z" fill="#FAFAFA"/>
<path d="M220.115 749.047C220.115 749.604 214.92 750.053 208.517 750.053C202.109 750.053 196.914 749.604 196.914 749.047C196.914 748.489 202.109 748.041 208.517 748.041C214.92 748.041 220.115 748.489 220.115 749.047Z" fill="#FAFAFA"/>
<path d="M402.176 750.272C402.176 750.829 361.417 751.278 311.149 751.278C260.864 751.278 220.113 750.829 220.113 750.272C220.113 749.715 260.864 749.266 311.149 749.266C361.417 749.266 402.176 749.715 402.176 750.272Z" fill="#FAFAFA"/>
<path d="M398.158 792.051C398.158 792.608 361.577 793.057 316.46 793.057C271.331 793.057 234.758 792.608 234.758 792.051C234.758 791.493 271.331 791.045 316.46 791.045C361.577 791.045 398.158 791.493 398.158 792.051Z" fill="#FAFAFA"/>
<path d="M396.977 830.756C396.977 831.317 363.818 831.766 322.926 831.766C282.022 831.766 248.871 831.317 248.871 830.756C248.871 830.199 282.022 829.75 322.926 829.75C363.818 829.75 396.977 830.199 396.977 830.756Z" fill="#FAFAFA"/>
<path d="M403.459 862.088C403.459 862.649 367.989 863.098 324.245 863.098C280.489 863.098 245.023 862.649 245.023 862.088C245.023 861.531 280.489 861.082 324.245 861.082C367.989 861.082 403.459 861.531 403.459 862.088Z" fill="#FAFAFA"/>
<path d="M413.719 902.022C413.719 902.583 373.365 903.032 323.602 903.032C273.819 903.032 233.477 902.583 233.477 902.022C233.477 901.465 273.819 901.016 323.602 901.016C373.365 901.016 413.719 901.465 413.719 902.022Z" fill="#FAFAFA"/>
<path d="M246.052 818.555C245.911 818.597 245.325 817.324 244.376 814.991C243.269 812.228 241.94 808.931 240.397 805.089C237.06 796.719 232.369 785.185 227.489 772.323C222.585 759.464 218.561 747.663 216.016 739.018C214.747 734.696 213.798 731.179 213.253 728.718C212.695 726.265 212.453 724.891 212.594 724.856C212.901 724.783 214.533 730.099 217.438 738.604C220.339 747.113 224.568 758.791 229.469 771.634C234.341 784.476 238.813 796.096 241.794 804.605C243.293 808.858 244.432 812.321 245.151 814.739C245.862 817.158 246.19 818.512 246.052 818.555Z" fill="#1A2E35"/>
<defs>
<linearGradient id="paint0_linear_287_2769" x1="789.268" y1="0" x2="789.268" y2="1587.11" gradientUnits="userSpaceOnUse">
<stop stop-color="#CEB0FF"/>
<stop offset="1" stop-color="#9B1FFC"/>
</linearGradient>
</defs>
</svg>
