<svg width="1602" height="1582" viewBox="0 0 1602 1582" fill="none" xmlns="http://www.w3.org/2000/svg">
<path d="M9.22846 57.8734C4.38548 27.5021 27.8497 0 58.6047 0H1278.53C1303.1 0 1324.03 17.8583 1327.9 42.1265L1564.22 1524.13C1569.06 1554.5 1545.6 1582 1514.84 1582H294.924C270.349 1582 249.417 1564.14 245.547 1539.87L9.22846 57.8734Z" fill="url(#paint0_linear_287_1545)"/>
<path d="M1601.75 353.359H1028.56V912.463H1601.75V353.359Z" fill="#CB90FD"/>
<path d="M1292.1 319.629C1311.21 297.976 1343.95 292.772 1375.62 298.944C1407.29 305.116 1445.21 320.53 1448.67 371.643C1451.5 413.147 1438.3 453.616 1438.3 499.925C1438.3 546.233 1492.61 659.035 1405.7 714.084C1327.6 763.529 1169.37 718.121 1164.49 616.33C1160.66 535.657 1259.81 461.056 1270.25 429.128C1280.69 397.199 1271.15 343.317 1292.1 319.629Z" fill="#263238"/>
<path d="M1277.82 365.171C1277.23 388.258 1273.77 411.613 1263.99 433.399C1261.45 438.917 1258.14 444.07 1254.14 448.713C1250.3 453.384 1246.22 457.788 1242.14 462.058C1233.91 470.699 1225.79 479.274 1217.94 488.182C1202.35 505.634 1189.47 525.178 1179.7 546.201C1170.34 567.322 1165.19 589.961 1164.53 612.927C1163.55 601.336 1163.91 589.677 1165.6 578.163C1167.47 566.589 1170.56 555.231 1174.83 544.265C1183.84 522.296 1196.6 501.939 1212.58 484.045C1220.43 475.003 1228.76 466.362 1237.06 457.821C1245.36 449.28 1253.76 441.139 1258.91 431.13C1264.19 420.897 1268.22 410.103 1270.9 398.968C1273.94 387.853 1276.25 376.565 1277.82 365.171Z" fill="#263238"/>
<path d="M1446.49 406.508C1445.91 430.062 1444.35 453.584 1445.01 476.971C1445.29 488.619 1446.31 500.24 1448.05 511.769C1449.85 523.113 1453.37 534.456 1456.31 545.933C1459.25 557.41 1461.88 569.054 1463.81 580.798C1465.69 592.596 1466.47 604.531 1466.17 616.464C1465.6 628.453 1463.27 640.305 1459.25 651.662C1454.61 662.824 1447.68 672.969 1438.89 681.489C1446.6 672.345 1452.46 661.889 1456.17 650.661C1459.4 639.496 1461 627.954 1460.94 616.363C1459.97 593.033 1456.18 569.891 1449.67 547.401C1446.91 535.958 1443.38 524.614 1441.69 512.57C1440.1 500.769 1439.48 488.866 1439.82 476.971C1440.55 453.374 1442.78 429.842 1446.49 406.508Z" fill="#263238"/>
<path d="M1320.76 604.585C1241.24 689.061 1176.35 729.631 1112.39 729.631C1051.58 729.631 921.665 587.136 912.124 568.352C903.896 552.138 1010.55 463.425 1026.93 474.468C1054.59 492.951 1143.3 599.948 1152.7 600.448C1162.11 600.949 1196.75 578.862 1280.17 541.161C1330.85 518.307 1376.07 546.032 1320.76 604.585Z" fill="#FFA698"/>
<path d="M924.502 582.4C912.817 570.189 863.761 509.234 854.046 489.35C844.332 469.465 820.789 410.278 835.827 401.571C850.865 392.863 859.163 409.644 859.163 409.644C859.163 409.644 853.32 383.154 869.292 375.714C885.264 368.274 897.295 394.798 897.295 394.798C897.295 394.798 893.354 367.173 909.809 360.834C926.265 354.495 933.802 383.187 933.802 383.187C933.802 383.187 928.962 358.065 944.795 358.365C963.844 358.732 967.336 406.008 979.747 427.194C982.547 431.998 1044.01 520.611 1044.01 520.611L924.502 582.4Z" fill="#FFA698"/>
<path d="M933.146 380.751C935.808 415.482 943.206 430.262 964.26 457.853C964.675 458.387 963.949 459.088 963.465 458.587C940.199 433.365 928.168 416.149 931.314 380.784C931.556 379.049 933.008 379.083 933.146 380.751Z" fill="#263238"/>
<path d="M897.192 392.061C903.207 427.926 911.02 444.007 931.037 474.468C931.314 474.902 930.588 475.402 930.276 475.002C908.116 446.677 896.5 429.227 895.36 392.628C895.29 390.96 896.915 390.392 897.192 392.061Z" fill="#263238"/>
<path d="M860.267 411.178C868.702 445.509 876.55 463.491 899.851 490.649C900.404 491.316 899.471 492.151 898.883 491.55C872.332 466.06 862.376 443.674 859.23 411.478C859.022 409.343 859.748 409.009 860.267 411.178Z" fill="#263238"/>
<path d="M1071.43 529.085C1071.43 529.085 1070.63 485.412 1065.9 466.295C1061.16 447.178 1016.53 382.252 1001.28 390.793C981.819 401.803 1000 444.175 1011.65 463.859C1011.65 463.859 966.711 489.349 972.83 522.512C978.95 555.675 1071.43 529.085 1071.43 529.085Z" fill="#FFA698"/>
<path d="M996.966 395.498C986.595 417.918 1003.88 442.774 1013.73 462.625C1013.89 462.911 1013.98 463.229 1013.98 463.553C1013.99 463.877 1013.91 464.197 1013.76 464.488C1013.62 464.778 1013.4 465.03 1013.13 465.223C1012.86 465.415 1012.54 465.543 1012.21 465.595C994.028 477.505 972.006 499.358 971.729 521.712C971.729 521.844 971.675 521.972 971.578 522.066C971.48 522.159 971.348 522.212 971.211 522.212C971.073 522.212 970.941 522.159 970.844 522.066C970.747 521.972 970.692 521.844 970.692 521.712C967.615 497.69 987.425 474.469 1008.17 462.692C997.796 442.44 981.651 416.817 996.759 395.298L996.966 395.498Z" fill="#263238"/>
<path d="M1183.65 575.894L1247.54 690.931C1247.54 690.931 1334.17 609.758 1348 575.894C1361.83 542.03 1346.93 517.441 1285.29 535.558C1250.08 545.63 1216.02 559.145 1183.65 575.894Z" fill="#840FE0"/>
<path d="M1262.3 666.944C1259.15 660.705 1256.39 654.266 1253.1 648.06C1249.82 641.855 1246.53 635.716 1243.11 629.644C1236.2 617.366 1229.28 605.055 1222.09 592.944C1218.01 586.271 1213.73 579.398 1209.27 572.926C1209.09 572.626 1208.51 572.926 1208.68 573.159C1220.4 598.482 1234.61 622.737 1248.78 646.826C1252.89 653.799 1257.56 660.438 1261.85 667.311C1261.99 667.478 1262.47 667.177 1262.3 666.944Z" fill="#263238"/>
<path d="M1348 575.895C1334.17 609.759 1247.54 690.932 1247.54 690.932L1204.49 613.562L1346.48 537.794C1354.64 546.001 1354.53 559.914 1348 575.895Z" fill="#263238"/>
<path d="M1198.2 769.569C1198.2 769.569 1163.08 850.708 1175.49 912.431H1562.75C1550.17 744.646 1463.5 600.45 1412.3 553.774C1371.02 516.14 1327.57 519.51 1297.32 538.761C1290.19 543.332 1211.61 648.126 1203.11 664.708C1169.37 730.133 1198.2 769.569 1198.2 769.569Z" fill="#840FE0"/>
<path d="M1300.01 533.822C1300.01 533.822 1275.82 600.983 1289.85 604.486C1324.77 613.16 1371.61 558.144 1374.41 552.539C1375.1 551.105 1378.22 513.504 1380.53 484.244C1382.02 465.427 1383.16 450.047 1383.16 450.047L1297.01 478.573L1299.77 530.119L1300.01 533.822Z" fill="#FFA698"/>
<path d="M1296.87 478.573L1299.64 530.119C1317.16 527.75 1355.71 518.575 1380.4 484.244C1381.88 465.427 1383.02 450.047 1383.02 450.047L1372.24 453.383L1296.87 478.573Z" fill="#263238"/>
<path d="M1232.7 406.407C1231.67 432.597 1234.36 453.783 1240.97 467.862C1246.62 479.888 1255.63 490.165 1266.97 497.55C1278.32 504.936 1291.56 509.142 1305.23 509.7C1315.61 510.067 1345.48 507.431 1367.08 491.55C1383.88 479.206 1394.01 456.952 1399.75 417.817C1412.89 328.336 1370.47 298.243 1328.67 294.639C1286.88 291.036 1236.16 316.125 1232.7 406.407Z" fill="#FFA698"/>
<path d="M1256.66 386.455C1258.84 386.155 1260.85 385.555 1262.95 385.088C1265.25 384.888 1267.42 383.988 1269.14 382.519C1269.58 381.947 1269.81 381.258 1269.81 380.55C1269.81 379.842 1269.58 379.153 1269.14 378.582C1268.07 377.616 1266.74 376.944 1265.31 376.633C1263.88 376.322 1262.38 376.385 1260.98 376.813C1258 377.271 1255.3 378.781 1253.41 381.051C1252.97 381.576 1252.7 382.22 1252.64 382.898C1252.58 383.575 1252.74 384.253 1253.1 384.84C1253.45 385.428 1253.98 385.897 1254.62 386.186C1255.25 386.475 1255.97 386.569 1256.66 386.455Z" fill="#263238"/>
<path d="M1317.75 388.691C1315.62 388.33 1313.52 387.863 1311.45 387.29C1309.16 387.105 1307 386.19 1305.3 384.688C1304.87 384.116 1304.63 383.427 1304.63 382.719C1304.63 382.011 1304.87 381.322 1305.3 380.751C1306.38 379.788 1307.72 379.122 1309.16 378.823C1310.6 378.524 1312.1 378.602 1313.49 379.049C1316.5 379.513 1319.21 381.049 1321.1 383.353C1321.53 383.887 1321.79 384.535 1321.83 385.211C1321.87 385.888 1321.7 386.561 1321.33 387.141C1320.97 387.72 1320.43 388.179 1319.79 388.456C1319.15 388.733 1318.44 388.815 1317.75 388.691Z" fill="#263238"/>
<path d="M1302.47 411.245C1302.47 411.012 1302.95 411.545 1302.95 411.812C1302.44 417.918 1302.95 425.158 1308.59 427.36C1308.59 427.36 1308.59 427.727 1308.59 427.693C1301.54 426.425 1300.98 416.95 1302.47 411.245Z" fill="#263238"/>
<path d="M1308.49 405.074C1318.86 404.807 1318.58 424.658 1309.04 424.925C1299.5 425.192 1300.02 405.307 1308.49 405.074Z" fill="#263238"/>
<path d="M1312.53 406.173C1314.29 407.308 1315.99 409.309 1318.2 409.51C1320.41 409.71 1322.63 407.708 1324.29 405.706C1324.46 405.506 1324.63 405.706 1324.63 405.94C1324.63 409.743 1323.11 413.647 1318.86 414.18C1314.61 414.714 1312.29 411.244 1311.32 407.508C1311.15 406.707 1311.8 405.706 1312.53 406.173Z" fill="#263238"/>
<path d="M1268.42 408.644C1268.42 408.41 1267.94 408.944 1267.94 409.178C1267.94 415.35 1267.28 422.523 1261.5 424.458C1261.33 424.458 1261.33 424.825 1261.5 424.792C1268.59 423.858 1269.63 414.449 1268.42 408.644Z" fill="#263238"/>
<path d="M1262.75 402.205C1252.38 401.438 1251.65 421.289 1261.16 421.99C1270.66 422.69 1271.32 402.873 1262.75 402.205Z" fill="#263238"/>
<path d="M1258.53 403.372C1256.87 404.373 1255.07 406.208 1253.24 406.274C1251.4 406.341 1249.4 404.106 1248.05 402.004C1248.05 401.77 1247.74 402.004 1247.71 402.204C1247.46 406.007 1248.57 409.978 1252.34 410.879C1256.11 411.779 1258.42 408.51 1259.49 404.773C1259.56 404.039 1259.04 402.971 1258.53 403.372Z" fill="#263238"/>
<path d="M1301.85 459.021C1300.36 460.523 1298.91 462.558 1296.63 462.825C1294.26 462.842 1291.91 462.399 1289.72 461.524C1289.67 461.488 1289.62 461.47 1289.57 461.473C1289.51 461.476 1289.46 461.501 1289.42 461.54C1289.39 461.58 1289.37 461.632 1289.37 461.686C1289.37 461.739 1289.4 461.789 1289.44 461.824C1290.4 463.001 1291.67 463.908 1293.12 464.448C1294.56 464.988 1296.14 465.142 1297.67 464.893C1298.94 464.508 1300.08 463.773 1300.93 462.778C1301.78 461.784 1302.32 460.571 1302.47 459.288C1302.49 459.212 1302.48 459.132 1302.45 459.061C1302.41 458.991 1302.35 458.935 1302.28 458.903C1302.2 458.871 1302.12 458.865 1302.04 458.887C1301.96 458.909 1301.9 458.956 1301.85 459.021Z" fill="#263238"/>
<path d="M1275.82 436.234C1275.82 436.234 1274.3 445.409 1274.23 449.746C1274.23 450.147 1275.3 450.347 1276.82 450.48C1276.82 450.48 1276.82 450.48 1276.99 450.48C1280.81 451.209 1284.76 450.916 1288.42 449.634C1292.07 448.352 1295.29 446.13 1297.74 443.207C1298.05 442.807 1297.49 442.34 1297.08 442.607C1291.27 446.258 1284.4 448.013 1277.48 447.611C1277.2 446.377 1280.62 431.997 1279.9 431.93C1276.36 432.142 1272.87 432.827 1269.53 433.966C1272.12 414.782 1277.86 396.165 1280.1 377.048C1280.1 376.38 1279.17 376.147 1278.96 376.747C1271.5 395.831 1268.04 417.851 1264.82 437.569C1264.55 440.071 1273.88 436.968 1275.82 436.234Z" fill="#263238"/>
<path d="M1279.69 448.212C1281.9 451.482 1284.95 454.148 1288.54 455.952C1290.51 456.862 1292.73 457.165 1294.9 456.819C1299.63 455.985 1300.08 451.882 1299.53 448.312C1299.19 446.412 1298.64 444.554 1297.87 442.773C1292.57 446.413 1286.19 448.318 1279.69 448.212Z" fill="#263238"/>
<path d="M1288.54 455.952C1290.52 456.862 1292.74 457.164 1294.9 456.819C1299.63 455.985 1300.08 451.881 1299.53 448.311C1297.07 448.205 1294.65 448.902 1292.66 450.288C1290.66 451.675 1289.21 453.67 1288.54 455.952Z" fill="#FF98B9"/>
<path d="M1398.06 409.777C1387.86 410.077 1358.92 385.522 1353.67 338.346C1353.67 338.346 1361.45 380.384 1365.32 386.289C1369.19 392.195 1349.14 372.443 1344.34 334.476C1344.34 334.476 1323.94 351.625 1305.75 358.297C1287.57 364.97 1276.2 365.837 1274.64 364.636C1273.08 363.435 1299.81 352.692 1306.45 343.818C1306.45 343.818 1258.98 370.508 1236.3 374.112C1233.67 374.512 1238.1 335.11 1271.32 309.754C1304.54 284.397 1350.21 290.737 1366.6 303.415C1366.6 303.415 1384.51 304.315 1406.08 327.837C1427.65 351.358 1409.02 409.443 1398.06 409.777Z" fill="#263238"/>
<path d="M1384.61 424.19C1384.61 424.19 1403.59 395.064 1417.18 401.469C1430.77 407.875 1417.52 449.413 1402.28 455.718C1400.38 456.665 1398.31 457.23 1396.18 457.38C1394.04 457.53 1391.91 457.261 1389.89 456.591C1387.87 455.921 1386.01 454.862 1384.42 453.479C1382.84 452.096 1381.56 450.418 1380.67 448.545L1384.61 424.19Z" fill="#FFA698"/>
<path d="M1413.06 413.381C1413.34 413.381 1413.37 413.681 1413.06 413.781C1402.38 418.552 1397.16 428.595 1393.63 438.904C1396.71 434.834 1401 432.498 1406.6 435.968C1406.87 436.135 1406.6 436.602 1406.32 436.535C1404.4 436.081 1402.37 436.202 1400.52 436.881C1398.67 437.56 1397.08 438.766 1395.95 440.338C1394.09 443.035 1392.51 445.908 1391.25 448.913C1390.8 449.88 1389 449.48 1389.35 448.379C1389.33 448.291 1389.33 448.2 1389.35 448.112C1388.38 434.633 1398.23 415.349 1413.06 413.381Z" fill="#263238"/>
<path d="M1442.27 572.091C1480.58 614.763 1587.96 769.235 1563.07 810.973C1539.18 851.009 1485 862.285 1453.82 808.504C1431.38 770.036 1393.67 655.266 1384.3 600.216C1376.69 555.643 1406.87 532.622 1442.27 572.091Z" fill="#FFA698"/>
<path d="M1406.49 708.845L1533.44 663.838C1533.44 663.838 1462.19 569.719 1429.38 551.803C1396.57 533.887 1369.26 544.697 1379.29 606.119C1384.68 641.17 1393.8 675.593 1406.49 708.845Z" fill="#840FE0"/>
<path d="M1510.9 646.356C1503.98 648.524 1497.07 650.259 1490.15 652.528C1483.24 654.797 1476.6 657.099 1469.89 659.534C1456.31 664.405 1442.76 669.276 1429.31 674.514C1421.77 677.45 1414.23 680.62 1406.87 683.956C1406.53 683.956 1406.66 684.657 1406.87 684.557C1434.53 676.883 1461.35 666.674 1488.04 656.498C1495.79 653.529 1503.22 649.826 1510.86 646.856C1511.38 646.723 1511.14 646.256 1510.9 646.356Z" fill="#263238"/>
<path d="M1413.65 705.978C1411.14 706.514 1408.67 707.25 1406.29 708.18C1402.83 700.94 1394.64 669.111 1392.73 660.937C1388.93 644.656 1385.82 628.208 1381.84 611.926C1381.84 611.459 1380.91 611.593 1380.98 611.926C1382.16 620.968 1383.61 629.976 1385.23 638.917C1383.5 634.647 1381.78 630.343 1380.43 625.972C1380.44 625.942 1380.45 625.909 1380.44 625.875C1380.44 625.842 1380.43 625.81 1380.41 625.783C1380.39 625.755 1380.37 625.732 1380.34 625.716C1380.31 625.7 1380.27 625.692 1380.24 625.692C1380.2 625.692 1380.17 625.7 1380.14 625.716C1380.11 625.732 1380.08 625.755 1380.06 625.783C1380.04 625.81 1380.03 625.842 1380.03 625.875C1380.03 625.909 1380.03 625.942 1380.05 625.972C1381.62 631.401 1383.55 636.728 1385.82 641.92C1387.17 658.602 1402.9 711.616 1403.35 711.416C1406.9 709.859 1410.37 708.11 1413.72 706.178C1414.1 706.278 1414.1 705.944 1413.65 705.978Z" fill="#263238"/>
<path d="M1350.87 391.928L1314.74 540.762C1313.19 545.133 1315.5 548.636 1319.93 548.569L1388.9 562.115C1391.31 561.902 1393.62 561.029 1395.54 559.599C1397.46 558.17 1398.92 556.242 1399.75 554.041L1435.88 405.207C1437.44 400.836 1435.12 397.333 1430.69 397.433L1361.72 383.854C1359.31 384.068 1357 384.94 1355.08 386.37C1353.16 387.8 1351.7 389.727 1350.87 391.928Z" fill="#455A64"/>
<path d="M1356.78 392.761L1320.76 541.595C1319.2 545.966 1321.52 549.469 1325.94 549.403L1394.91 562.948C1397.33 562.737 1399.63 561.87 1401.55 560.446C1403.47 559.023 1404.93 557.102 1405.77 554.908L1441.76 406.073C1443.31 401.669 1441 398.2 1436.57 398.266L1367.64 384.688C1365.22 384.913 1362.93 385.789 1361 387.217C1359.08 388.646 1357.62 390.567 1356.78 392.761Z" fill="#37474F"/>
<path d="M1378.63 399.169C1378.66 400.504 1378.28 401.818 1377.54 402.941C1376.79 404.064 1375.71 404.945 1374.43 405.469C1373.16 405.994 1371.76 406.138 1370.4 405.883C1369.04 405.628 1367.79 404.986 1366.82 404.039C1365.84 403.092 1365.18 401.885 1364.93 400.573C1364.67 399.261 1364.82 397.905 1365.37 396.68C1365.92 395.455 1366.84 394.417 1368.01 393.701C1369.18 392.985 1370.54 392.623 1371.92 392.663C1373.71 392.672 1375.41 393.361 1376.67 394.58C1377.93 395.8 1378.63 397.449 1378.63 399.169Z" fill="#263238"/>
<path d="M1472.25 821.981C1494.69 862.017 1554.08 839.197 1563.07 810.971C1584.16 744.745 1571.09 634.646 1558.5 573.157C1554.46 553.373 1415.21 573.157 1416.04 594.543C1417 620.4 1428.28 743.244 1472.25 821.981Z" fill="#FFA698"/>
<path d="M1556.95 602.552C1563.96 573.377 1564.39 543.086 1558.19 513.739C1550.86 481.743 1526.91 413.882 1430.59 383.621C1407.74 376.415 1369.88 381.786 1402.93 406.609C1426.3 424.258 1446.63 428.629 1458.25 441.307C1458.25 441.307 1410.95 453.651 1404.39 476.005C1398.64 495.571 1394.33 515.505 1391.49 535.658C1395.19 536.998 1398.98 538.112 1402.83 538.995C1400.8 558.457 1405.49 578.022 1416.17 594.645L1556.95 602.552Z" fill="#FFA698"/>
<path d="M1546.12 484.276C1531.81 474.267 1501.18 452.981 1469.76 444.24C1434.91 434.231 1365.11 424.556 1357.85 449.412C1352.53 467.661 1378.83 473.7 1378.83 473.7C1378.83 473.7 1349.1 475.502 1348.03 492.984C1347.06 508.932 1367.7 512.435 1367.7 512.435C1367.7 512.435 1349.86 516.505 1351.97 532.053C1354.53 550.703 1391.56 539.092 1411.09 555.841C1415.48 559.511 1546.12 484.276 1546.12 484.276Z" fill="#FFA698"/>
<path d="M1465.12 481.375C1450.05 473.901 1411.26 465.46 1379.39 473.101C1378.66 473.101 1378.42 473.868 1379.11 473.868C1407.98 473.116 1436.84 475.738 1465.05 481.675C1465.23 481.742 1465.3 481.441 1465.12 481.375Z" fill="#263238"/>
<path d="M1453.85 515.005C1440.03 509.867 1399.75 502.861 1367.74 511.669C1367.01 511.869 1366.8 512.503 1367.5 512.47C1396.32 510.247 1425.32 511.21 1453.92 515.339C1453.97 515.33 1454.01 515.304 1454.04 515.267C1454.06 515.229 1454.07 515.183 1454.06 515.139C1454.05 515.095 1454.03 515.056 1453.99 515.031C1453.95 515.006 1453.9 514.997 1453.85 515.005Z" fill="#263238"/>
<path d="M1459.52 794.09C1458.49 790.753 1457.48 787.417 1456.38 784.381C1454.1 777.708 1452.13 771.036 1450.12 764.363C1446.04 751.018 1442.13 737.472 1438.71 723.86C1431.88 696.728 1426.7 669.234 1423.19 641.519C1422.22 633.845 1421.39 626.172 1420.53 618.498C1419.66 610.825 1419.39 602.851 1417.87 595.144C1417.87 594.743 1413.82 588.871 1412.23 585.969C1410.58 582.949 1409.14 579.829 1407.91 576.627C1405.32 570.094 1403.57 563.283 1402.69 556.342C1402.67 556.299 1402.64 556.262 1402.6 556.235C1402.56 556.209 1402.51 556.195 1402.46 556.195C1402.42 556.195 1402.37 556.209 1402.33 556.235C1402.29 556.262 1402.26 556.299 1402.24 556.342C1401.79 564.24 1402.82 572.152 1405.28 579.697C1407.41 586.008 1411.09 591.73 1416 596.378C1416 597.379 1416.24 609.724 1416.66 616.63C1417.07 623.536 1417.73 630.442 1418.52 637.315C1420.15 651.128 1422.15 664.907 1424.68 678.619C1429.61 706.357 1436.47 733.743 1445.21 760.593C1445.21 761.027 1445.52 761.46 1445.66 761.894C1445.66 762.895 1445.66 763.896 1445.66 764.897C1445.71 767.364 1445.92 769.827 1446.28 772.27C1446.99 777.131 1448.23 781.907 1449.98 786.516C1449.97 786.557 1449.96 786.6 1449.97 786.643C1449.97 786.685 1449.99 786.726 1450.01 786.761C1450.04 786.797 1450.07 786.826 1450.11 786.846C1450.15 786.866 1450.2 786.876 1450.24 786.876C1450.29 786.876 1450.33 786.866 1450.37 786.846C1450.41 786.826 1450.44 786.797 1450.47 786.761C1450.49 786.726 1450.51 786.685 1450.52 786.643C1450.52 786.6 1450.52 786.557 1450.5 786.516C1449.27 781.693 1448.44 776.785 1448.01 771.836L1447.39 766.765C1449.29 772.17 1451.3 777.575 1453.27 782.946C1454.65 786.683 1456.07 790.32 1457.66 793.956C1459.25 797.593 1460.49 801.129 1462.36 804.499C1462.36 804.766 1462.91 804.499 1462.84 804.299C1461.98 800.729 1460.6 797.459 1459.52 794.09Z" fill="#263238"/>
<path d="M1028.56 912.429V822.748L922.947 912.429H1028.56Z" fill="#CB90FD"/>
<path d="M485.763 1102.57C516.185 1230.32 579.105 1383.45 605.967 1408.31C639.95 1439.74 864.767 1497.39 875.968 1498.56C903.625 1501.26 959.388 1308.39 929.795 1304.22C884.853 1297.94 721.123 1289.37 711.34 1279.66C701.556 1269.95 632.068 1185.41 561.059 1090.42C512.037 1024.8 466.852 1023.3 485.763 1102.57Z" fill="#FFA698"/>
<path d="M853.704 1488.15C856.988 1489.75 903.97 1512.57 933.01 1520.68C954.686 1526.75 1017.54 1542.6 1026.84 1520.21C1033.2 1505 997.347 1491.48 972.248 1481.38C959.008 1476.04 942.69 1462.69 946.596 1454.48C953.511 1440.14 987.494 1454.48 1009.9 1467.1C1053.21 1491.38 1110.91 1535.12 1137.36 1513.8C1147.35 1505.8 1135.74 1491.18 1118.76 1476.87C1146.42 1493.55 1175.73 1507.23 1187.18 1498.76C1193.78 1493.92 1194.09 1487.28 1190.43 1479.74C1198.93 1482.41 1206.43 1481.88 1211.69 1476.4C1220.64 1467.33 1216.29 1453.98 1206.47 1440.27C1208.15 1440.1 1209.77 1439.55 1211.19 1438.66C1212.61 1437.76 1213.79 1436.55 1214.63 1435.13C1233.61 1407.21 1138.57 1327.04 1105.76 1319.53C1009.14 1297.34 907.289 1301.48 907.289 1301.48C869.33 1330.87 853.6 1488.08 853.704 1488.15Z" fill="#FFA698"/>
<path d="M995.79 1402.31C1018.8 1405.77 1040.78 1413.93 1060.27 1426.23C1084.78 1441.84 1101.03 1460.13 1121.56 1478.51C1121.64 1478.61 1121.68 1478.74 1121.68 1478.87C1121.67 1479 1121.62 1479.13 1121.53 1479.22C1121.44 1479.32 1121.32 1479.39 1121.19 1479.41C1121.05 1479.43 1120.92 1479.41 1120.8 1479.34C1111.02 1470.6 1070.43 1437.7 1059.95 1430.23C1041.01 1416.47 1019.07 1407.05 995.79 1402.67C995.479 1402.64 995.548 1402.24 995.79 1402.31Z" fill="#263238"/>
<path d="M1013.8 1362.7C1039.21 1369.37 1065.25 1376.05 1088.82 1387.79C1114.61 1400.47 1134.8 1421.15 1154.51 1441.17C1166.45 1453.12 1178.1 1465.35 1189.46 1477.87C1189.91 1478.41 1189.18 1479.24 1188.7 1478.71C1168.56 1458.15 1147.81 1438.14 1126.47 1418.65C1106.72 1400.56 1083.46 1386.41 1058.02 1377.02C1043.5 1371.64 1028.57 1367.41 1013.63 1363.14C1013.42 1363.07 1013.53 1362.64 1013.8 1362.7Z" fill="#263238"/>
<path d="M1040.94 1328.1C1065.63 1333.01 1087.17 1337.18 1109.01 1349.92C1137.95 1366.84 1165.88 1395.3 1175.67 1405.41C1186.49 1416.55 1196.93 1428.03 1207.16 1439.67C1207.58 1440.14 1206.75 1440.87 1206.3 1440.4C1182.85 1414.87 1157.71 1390.84 1131.04 1368.44C1118.49 1357.6 1104.29 1348.68 1088.93 1342.02C1073.36 1336.12 1057.29 1331.52 1040.91 1328.27C1040.91 1328.27 1040.74 1328.07 1040.94 1328.1Z" fill="#263238"/>
<path d="M891.73 1293.81L822.587 1505.2C822.587 1505.2 635.384 1453.62 601.331 1418.02C567.279 1382.42 503.979 1198.59 485.414 1109.47C466.85 1020.36 513.521 1022.73 556.424 1078.75C599.326 1134.76 706.151 1271.09 711.994 1274.06C717.836 1277.02 891.73 1293.81 891.73 1293.81Z" fill="#840FE0"/>
<path opacity="0.1" d="M891.73 1293.81L822.587 1505.2C822.587 1505.2 635.384 1453.62 601.331 1418.02C567.279 1382.42 503.979 1198.59 485.414 1109.47C466.85 1020.36 513.521 1022.73 556.424 1078.75C599.326 1134.76 706.151 1271.09 711.994 1274.06C717.836 1277.02 891.73 1293.81 891.73 1293.81Z" fill="black"/>
<path d="M804.611 1411.28C813.012 1386.36 821.585 1361.5 828.984 1336.28C833.201 1321.97 837.488 1307.62 841.568 1293.27C841.74 1292.71 840.807 1292.41 840.6 1292.94C831.162 1317.63 821.758 1342.42 813.496 1367.51C805.233 1392.6 796.832 1417.55 788.95 1442.47C784.49 1456.75 780.446 1471.1 776.885 1485.61C776.885 1485.88 777.3 1486.05 777.403 1485.78C787.706 1461.39 796.176 1436.37 804.611 1411.28Z" fill="#263238"/>
<path d="M728.174 1476.14L719.877 1473.34C704.285 1467.96 688.382 1462.19 673.413 1456.29C671.477 1455.55 669.576 1454.79 667.709 1454.02C664.701 1452.82 661.693 1451.58 658.789 1450.35L654.433 1448.51L652.878 1447.85L648.383 1445.84C642.437 1443.21 636.802 1440.57 631.547 1437.9L628.09 1436.04C619.876 1431.96 612.134 1427.05 604.997 1421.39C604.34 1420.82 603.683 1420.26 603.095 1419.69C602.507 1419.12 601.885 1418.55 601.367 1418.02C567.141 1382.42 504.014 1198.59 485.449 1109.48L484.827 1106.41V1105.74C483.582 1099.07 482.476 1090.59 481.577 1081.52C478.985 1037.18 500.73 1029.94 527.592 1049.42C594.556 1188.11 697.129 1417.29 728.174 1476.14Z" fill="#263238"/>
<path d="M631.065 1511.64L223.125 1513.7C223.471 1505.23 281.55 1257.34 327.737 1165.86C386.958 1048.55 417.623 1039.08 435.703 1032.8C459.039 1024.73 500.594 1028.73 510.446 1033.24C521.647 1038.28 557.256 1098.26 570.012 1142.27C595.526 1230.78 636.804 1506.23 631.065 1511.64Z" fill="#37474F"/>
<path d="M414.789 1042.08C414.789 1042.08 466.646 1227.42 469.239 1239.73C473.145 1257.61 499.004 1512.77 499.004 1512.77L214.656 1513.71C214.656 1513.71 276.712 1277.49 322.899 1174.07C373.304 1060.63 414.789 1042.08 414.789 1042.08Z" fill="#840FE0"/>
<g opacity="0.1">
<path opacity="0.1" d="M414.789 1042.08C414.789 1042.08 466.646 1227.42 469.239 1239.73C473.145 1257.61 499.004 1512.77 499.004 1512.77L214.656 1513.71C214.656 1513.71 276.712 1277.49 322.899 1174.07C373.304 1060.63 414.789 1042.08 414.789 1042.08Z" fill="black"/>
</g>
<path d="M514.178 1036.11C515.699 1042.01 563.511 1192.58 566.83 1230.12C570.529 1271.75 603.233 1513.71 603.233 1513.71H644.719C644.719 1513.71 584.668 1166.09 568.178 1129.36C534.436 1054.39 514.178 1036.11 514.178 1036.11Z" fill="#840FE0"/>
<path opacity="0.1" d="M514.178 1036.11C515.699 1042.01 563.511 1192.58 566.83 1230.12C570.529 1271.75 603.233 1513.71 603.233 1513.71H644.719C644.719 1513.71 584.668 1166.09 568.178 1129.36C534.436 1054.39 514.178 1036.11 514.178 1036.11Z" fill="black"/>
<path d="M361.098 1085.42C292.785 1156.05 126.705 1424.03 179.392 1472.9C232.078 1521.78 524.585 1455.99 606.726 1418.19C631.168 1406.98 538.31 1259.91 509.581 1256.47C485.658 1253.64 363.414 1307.59 359.853 1300.81C355.878 1293.14 375.307 1236.52 404.796 1134C438.641 1015.82 391.313 1054.19 361.098 1085.42Z" fill="#FFA698"/>
<path d="M630.996 1209.03C690.389 1201.02 707.053 1207.8 753.344 1175.37C783.801 1154.08 810.974 1163.72 793.584 1197.52C765.167 1252.84 690.77 1278.66 662.214 1280.46L630.996 1209.03Z" fill="#FFA698"/>
<path d="M473.211 1264.15C473.211 1264.15 539.968 1228.38 602.404 1213.83C645.548 1203.83 742.002 1191.98 834.307 1283.9C856.191 1305.68 871.368 1351.73 822.242 1328.67C787.325 1312.29 770.385 1291.74 748.225 1285.77C748.225 1285.77 760.325 1346.52 736.851 1366.84C716.335 1384.59 694.534 1400.92 671.615 1415.68C667.846 1412.26 664.313 1408.61 661.036 1404.74C661.036 1404.74 637.251 1421.72 592.516 1417.58L473.211 1264.15Z" fill="#FFA698"/>
<path d="M645.203 1210.76C665.946 1221.14 709.194 1243.86 737.958 1274.36C769.936 1308.25 822.035 1381.79 795.864 1404.47C776.712 1420.99 754.379 1394.46 754.379 1394.46C754.379 1394.46 769.279 1429.26 748.571 1440.5C729.73 1450.78 713.62 1429.36 713.62 1429.36C713.62 1429.36 718.909 1451.95 698.754 1458.45C674.554 1466.26 667.432 1417.62 635.8 1405.07C628.574 1402.07 645.203 1210.76 645.203 1210.76Z" fill="#FFA698"/>
<path d="M695.264 1300.85C712.999 1313.69 745.565 1352.83 754.553 1393.36C754.761 1394.3 754.173 1394.93 753.793 1394.13C738.176 1360.95 718.441 1329.73 695.022 1301.15C694.745 1300.85 695.022 1300.85 695.264 1300.85Z" fill="#263238"/>
<path d="M660.764 1332.98C674.903 1345.59 706.605 1387.36 714.245 1428.76C714.418 1429.7 713.761 1430.3 713.45 1429.46C699.607 1395.56 681.828 1363.28 660.453 1333.24C660.245 1333.04 660.453 1332.81 660.764 1332.98Z" fill="#263238"/>
<path d="M748.227 1285.37C767.587 1290.87 780.171 1300.05 796.627 1310.99C804.637 1316.51 812.958 1321.6 821.553 1326.24C829.435 1330.34 841.085 1336.55 849.452 1330.11C854.153 1326.54 854.084 1320.1 852.909 1314.86C850.545 1307.28 846.951 1300.1 842.261 1293.61C842.261 1293.34 842.503 1293.04 842.71 1293.27C847.238 1299.19 851.13 1305.54 854.326 1312.22C856.419 1316.8 857.034 1321.88 856.089 1326.8C853.22 1337.08 840.636 1338.45 831.889 1335.61C826.589 1333.73 821.494 1331.35 816.678 1328.51C811.976 1325.9 807.413 1323.1 802.85 1320.16C793.654 1314.16 784.838 1307.65 775.711 1301.55C766.844 1295.8 757.606 1290.61 748.054 1286C747.982 1285.97 747.923 1285.91 747.889 1285.84C747.856 1285.77 747.848 1285.69 747.869 1285.61C747.889 1285.54 747.936 1285.47 748.002 1285.43C748.067 1285.38 748.147 1285.36 748.227 1285.37Z" fill="#263238"/>
<path d="M788.776 1351.09C783.763 1340.45 756.625 1296.08 747.843 1285.8C747.811 1285.75 747.797 1285.69 747.805 1285.63C747.812 1285.57 747.84 1285.52 747.884 1285.47C747.928 1285.43 747.985 1285.4 748.047 1285.4C748.108 1285.39 748.171 1285.4 748.224 1285.43C763.331 1299.25 787.566 1335.91 793.166 1347.66C798.767 1359.4 805.197 1374.11 805.197 1387.03C805.197 1406.54 791.783 1410.38 786.84 1411.21C780.923 1412.25 774.818 1411.28 769.554 1408.48C763.395 1404.85 758.076 1400.03 753.928 1394.33C753.721 1394.06 754.101 1393.7 754.343 1393.96C761.257 1401.67 773.011 1409.25 783.97 1407.84C786.401 1407.62 788.761 1406.93 790.911 1405.82C793.061 1404.7 794.956 1403.18 796.485 1401.34C799.48 1396.64 800.633 1391.07 799.735 1385.62C798.118 1373.6 794.413 1361.93 788.776 1351.09Z" fill="#263238"/>
<path d="M473.211 1264.15L566.83 1454.32C566.83 1454.32 200.652 1533.66 169.054 1472.13C137.456 1410.61 279.682 1169.86 343.742 1099.73C418.036 1018.46 427.508 1046.12 411.156 1118.15C393.87 1193.55 360.924 1302.58 360.924 1302.58L473.211 1264.15Z" fill="#840FE0"/>
<path opacity="0.1" d="M473.211 1264.15L566.83 1454.32C566.83 1454.32 200.652 1533.66 169.054 1472.13C137.456 1410.61 279.682 1169.86 343.742 1099.73C418.036 1018.46 427.508 1046.12 411.156 1118.15C393.87 1193.55 360.924 1302.58 360.924 1302.58L473.211 1264.15Z" fill="black"/>
<path d="M249.638 1353.19C283.413 1330.56 320.502 1312.91 359.678 1300.85C370.775 1297.51 381.976 1294.34 393.177 1291.24C393.523 1291.24 393.661 1291.67 393.177 1291.77C373.641 1297.87 354.491 1305.07 335.824 1313.32C317.178 1321.33 298.74 1329.66 280.51 1338.31C270.138 1343.22 260.044 1348.59 249.88 1353.83C249.811 1353.81 249.748 1353.78 249.695 1353.74C249.643 1353.69 249.602 1353.64 249.578 1353.57C249.554 1353.51 249.547 1353.44 249.557 1353.38C249.568 1353.31 249.595 1353.25 249.638 1353.19Z" fill="#263238"/>
<path d="M472.243 1263.65C470.411 1264.11 370.258 1296.04 366.974 1297.51C367.389 1296.04 385.366 1244.66 388.063 1237.12C388.305 1236.39 388.547 1235.62 388.823 1234.89C390.621 1231.55 392.488 1228.22 394.182 1224.88C396.325 1220.51 398.468 1216.07 400.577 1211.53H400.37L393.456 1224.45C392.384 1226.41 391.381 1228.45 390.379 1230.48C392.142 1225.18 393.836 1219.84 395.53 1214.47C398.226 1205.96 400.646 1197.35 403.032 1188.75C403.032 1188.45 402.686 1188.38 402.582 1188.75C397.258 1203.73 391.451 1218.54 386.092 1233.52C380.733 1248.5 360.129 1303.58 360.302 1303.58C360.475 1303.58 470.584 1266.02 472.727 1265.18C472.832 1265.15 472.929 1265.1 473.013 1265.03C473.098 1264.97 473.167 1264.89 473.219 1264.79C473.27 1264.7 473.302 1264.6 473.313 1264.49C473.323 1264.39 473.312 1264.28 473.281 1264.18C473.249 1264.08 473.197 1263.99 473.127 1263.91C473.058 1263.82 472.973 1263.76 472.877 1263.71C472.78 1263.66 472.675 1263.63 472.566 1263.62C472.457 1263.61 472.348 1263.62 472.243 1263.65Z" fill="#263238"/>
<path d="M478.987 1387.59C468.616 1366.41 458.556 1345.09 447.458 1324.2C441.132 1312.36 434.874 1300.48 428.444 1288.7C428.202 1288.27 427.372 1288.7 427.58 1289.07C437.052 1310.76 446.594 1332.44 457.104 1353.76C467.613 1375.08 477.846 1396.13 488.529 1417.15C494.613 1429.1 501.078 1440.85 507.923 1452.42C507.923 1452.65 508.476 1452.42 508.373 1452.42C499.661 1430.33 489.393 1409.01 478.987 1387.59Z" fill="#263238"/>
<path d="M571.57 1457.25C567.905 1451.38 563.273 1442.97 559.366 1437.23C558.329 1435.73 557.119 1436.03 557.949 1437.6C560.749 1442.94 563.065 1448.91 565.796 1454.28C560.68 1455.28 555.425 1456.15 550.378 1457.19C544.431 1458.39 538.52 1459.62 532.574 1460.79C520.911 1463.01 509.25 1465.24 497.587 1467.46C473.941 1471.71 450.202 1475.45 426.371 1478.67C378.629 1485.42 330.556 1489.77 282.347 1491.72C268.864 1492.18 255.347 1492.42 241.864 1492.25C228.565 1492.28 215.272 1491.66 202.038 1490.38C201.658 1490.38 201.589 1490.95 202.038 1491.02C213.426 1493.34 224.985 1494.79 236.609 1495.35C248.813 1495.92 261.051 1496.19 273.29 1496.05C297.489 1495.79 321.931 1494.25 346.166 1492.12C394.22 1487.85 442.135 1481.57 489.636 1473.47C502.958 1471.24 516.244 1468.83 529.497 1466.23C536.203 1464.93 542.876 1463.63 549.548 1462.19C556.22 1460.76 572.192 1458.25 571.57 1457.25Z" fill="#263238"/>
<path d="M514.249 1105.27C490.05 1111.71 446.732 1077.18 429.031 1048.55C427.821 1046.58 430.207 1025.36 431.832 999.442C432.765 983.727 433.387 966.078 432.765 950.131C432.765 946.794 537.965 970.883 537.965 970.883C537.965 970.883 528.977 1004.85 530.221 1032.8C530.331 1035.05 530.655 1037.29 531.189 1039.48C531.285 1039.83 531.354 1040.19 531.397 1040.55C533.99 1052.92 537.654 1099.03 514.249 1105.27Z" fill="#FFA698"/>
<path d="M439.193 950.53C445.07 977.488 465.053 1042.38 520.712 1041.61C524.282 1041.58 527.843 1041.27 531.36 1040.68C531.404 1040.31 531.404 1039.94 531.36 1039.58C530.847 1037.38 530.512 1035.15 530.358 1032.9C529.148 1004.91 538.102 970.915 538.102 970.915C538.102 970.915 461.976 953.566 439.193 950.53Z" fill="#263238"/>
<path d="M550.514 901.989C549.338 926.611 566.555 947.363 588.957 948.364C611.359 949.365 630.442 930.147 631.583 905.525C632.724 880.903 615.508 860.151 593.14 859.184C570.773 858.216 551.655 877.367 550.514 901.989Z" fill="#455A64"/>
<path d="M627.472 906.885C628.756 879.495 609.603 856.409 584.692 855.322C559.782 854.234 538.548 875.557 537.264 902.947C535.98 930.337 555.133 953.423 580.043 954.51C604.953 955.597 626.188 934.275 627.472 906.885Z" fill="#37474F"/>
<path d="M446.486 822.383C428.371 855.346 427.23 960.14 448.526 987.565C479.398 1027.27 540.07 1041.85 577.476 1003.91C613.88 967.013 612.843 830.423 588.124 804.5C551.79 766.232 473.244 773.706 446.486 822.383Z" fill="#FFA698"/>
<path d="M536.79 903.389C536.79 903.122 536.202 903.756 536.237 904.057C536.617 911.096 535.857 919.237 529.323 921.706C529.115 921.706 529.15 922.139 529.323 922.106C537.412 920.838 538.311 910.029 536.79 903.389Z" fill="#263238"/>
<path d="M530.077 896.182C518.289 895.581 517.908 918.368 528.798 918.902C539.688 919.436 539.965 896.682 530.077 896.182Z" fill="#263238"/>
<path d="M577.719 904.257C577.719 903.99 578.272 904.624 578.272 904.891C577.927 911.964 578.756 920.104 585.187 922.54C585.394 922.54 585.187 922.974 585.187 922.94C577.201 921.706 576.198 910.896 577.719 904.257Z" fill="#263238"/>
<path d="M584.388 897.151C596.142 896.45 596.696 919.237 585.771 919.871C574.847 920.505 574.501 897.551 584.388 897.151Z" fill="#263238"/>
<path d="M519.501 877.966C522.958 877.8 525.828 877.099 529.112 876.632C532.577 876.568 535.921 875.394 538.619 873.295C539.343 872.492 539.769 871.479 539.832 870.416C539.894 869.354 539.589 868.301 538.965 867.423C537.453 865.888 535.545 864.77 533.436 864.184C531.327 863.597 529.095 863.564 526.969 864.087C522.463 864.433 518.257 866.397 515.18 869.592C514.535 870.358 514.133 871.287 514.021 872.267C513.908 873.248 514.091 874.239 514.547 875.122C515.002 876.005 515.712 876.743 516.59 877.247C517.469 877.752 518.48 878.001 519.501 877.966Z" fill="#263238"/>
<path d="M595.487 880.468C592.331 879.798 589.215 878.963 586.152 877.966C582.752 877.57 579.581 876.105 577.129 873.796C576.509 872.915 576.21 871.86 576.279 870.797C576.348 869.734 576.781 868.724 577.51 867.924C579.201 866.556 581.238 865.647 583.413 865.29C585.587 864.932 587.821 865.139 589.886 865.889C594.307 866.785 598.225 869.235 600.88 872.762C601.397 873.599 601.657 874.562 601.628 875.537C601.6 876.512 601.284 877.459 600.719 878.267C600.153 879.076 599.361 879.712 598.434 880.102C597.508 880.491 596.485 880.619 595.487 880.468Z" fill="#263238"/>
<path d="M523.444 968.815C525.172 970.483 526.901 972.785 529.528 973.052C532.247 973.029 534.931 972.461 537.411 971.384C537.46 971.374 537.512 971.377 537.56 971.394C537.607 971.41 537.65 971.438 537.682 971.476C537.714 971.514 537.735 971.56 537.742 971.608C537.749 971.657 537.742 971.706 537.722 971.751C536.661 973.129 535.232 974.202 533.588 974.854C531.943 975.506 530.145 975.714 528.388 975.455C526.901 975.053 525.571 974.237 524.562 973.11C523.554 971.982 522.912 970.593 522.718 969.116C522.614 968.715 523.167 968.548 523.444 968.815Z" fill="#263238"/>
<path d="M531.497 947.796C533.302 950.616 535.694 953.044 538.52 954.928C541.346 956.811 544.546 958.109 547.918 958.739C550.859 959.344 553.875 959.536 556.872 959.306C557.452 959.285 558.029 959.23 558.601 959.139L560.191 958.906C560.583 958.843 560.943 958.66 561.217 958.383C561.491 958.107 561.665 957.751 561.712 957.371C561.73 957.127 561.73 956.881 561.712 956.637V956.003C561.954 950.565 561.712 942.291 561.712 942.291C563.752 943.325 574.193 948.063 574.054 945.227C573.017 921.672 571.842 895.515 565.654 872.328C565.619 872.18 565.533 872.049 565.411 871.954C565.288 871.86 565.136 871.809 564.979 871.809C564.823 871.809 564.671 871.86 564.548 871.954C564.426 872.049 564.34 872.18 564.305 872.328C564.305 894.981 568.592 917.468 569.041 940.222C565.339 938.494 561.407 937.27 557.356 936.586C556.561 936.819 558.428 952.567 558.117 955.002C558.125 955.091 558.125 955.18 558.117 955.269C548.61 956.27 541.523 953.401 532.465 947.128C531.635 946.761 531.048 947.195 531.497 947.796Z" fill="#263238"/>
<path d="M553.588 956.47C550.444 960.31 546.323 963.299 541.626 965.145C539.034 966.071 536.208 966.199 533.537 965.512C527.729 963.91 527.66 958.839 528.8 954.335C529.438 952.015 530.354 949.776 531.532 947.662C537.724 952.79 545.451 955.876 553.588 956.47Z" fill="#263238"/>
<path d="M541.626 965.144C539.034 966.07 536.208 966.198 533.537 965.511C527.729 963.909 527.66 958.838 528.8 954.334C535.058 955.068 541.177 959.272 541.626 965.144Z" fill="#FF98B9"/>
<path opacity="0.2" d="M432.9 896.382C440.022 895.281 457.1 872.026 464.326 862.785C471.551 853.543 475.734 803.998 476.391 792.722C463.713 799.641 453.331 809.892 446.452 822.282C438.363 837.095 433.696 866.221 432.9 896.382Z" fill="#263238"/>
<path d="M564.718 833.76C560.496 838.229 555.162 841.583 549.221 843.504C543.279 845.425 536.928 845.849 530.769 844.737C524.484 843.62 518.599 840.971 513.673 837.041C508.748 833.111 504.946 828.031 502.628 822.283C502.628 821.916 501.937 822.117 502.075 822.45C503.944 828.711 507.55 834.361 512.504 838.788C517.457 843.216 523.57 846.253 530.181 847.573C536.751 848.53 543.465 847.801 549.649 845.458C555.834 843.115 561.269 839.242 565.409 834.227C565.433 834.142 565.429 834.051 565.397 833.967C565.366 833.884 565.308 833.812 565.233 833.761C565.157 833.71 565.068 833.683 564.975 833.682C564.883 833.682 564.793 833.71 564.718 833.76Z" fill="#263238"/>
<path d="M529.596 744.946C508.265 744.746 488.352 755.522 480.09 769.268C475.501 777.101 473.795 786.203 475.25 795.091C475.25 795.458 476.045 795.392 476.011 795.091C475.831 787.258 477.839 779.523 481.823 772.696C485.807 765.869 491.621 760.202 498.655 756.29C506.356 751.735 515.048 748.966 524.046 748.202C533.045 747.438 542.104 748.699 550.512 751.886C558.706 754.812 565.548 760.468 569.802 767.833C570.217 768.601 571.807 768.167 571.496 767.4C566.103 754.321 548.852 745.113 529.596 744.946Z" fill="#263238"/>
<path d="M651.805 793.29C648.643 783.038 641.837 774.19 632.583 768.301C619.757 760.093 604.926 760.794 590.268 761.795C590.186 761.795 590.107 761.827 590.048 761.883C589.99 761.939 589.957 762.016 589.957 762.095C589.957 762.175 589.99 762.251 590.048 762.307C590.107 762.364 590.186 762.395 590.268 762.395C602.783 761.595 615.54 761.461 626.81 767.5C636.191 772.401 643.521 780.289 647.553 789.82C651.39 799.596 651.439 810.381 647.691 820.19C643.943 829.998 636.651 838.17 627.156 843.202C621.618 845.962 615.554 847.603 609.335 848.021C603.117 848.44 596.876 847.629 590.994 845.637C590.51 845.47 590.164 846.104 590.614 846.304C598.559 849.326 607.218 850.155 615.624 848.697C624.029 847.24 631.848 843.554 638.206 838.052C644.564 832.549 649.209 825.448 651.623 817.543C654.037 809.638 654.124 801.24 651.874 793.29H651.805Z" fill="#263238"/>
<path d="M438.78 842.568C438.78 842.568 419.904 805.101 437.605 784.416C447.63 772.705 479.367 775.374 479.367 775.374C479.367 775.374 490.256 758.126 516.807 753.221C543.358 748.317 574.679 764.364 574.679 764.364C574.679 764.364 600.47 751.319 623.632 765.199C655.956 784.549 650.01 832.893 616.199 847.306C592.484 857.315 561.577 836.429 561.577 836.429C558.5 836.73 526.625 853.745 504.085 826.087C504.085 826.087 484.31 841.834 467.543 829.723C464.691 834.451 460.402 838.219 455.257 840.516C450.113 842.814 444.36 843.53 438.78 842.568Z" fill="#263238"/>
<path d="M452.363 909.06C452.363 909.06 434.421 872.36 417.515 877.832C400.61 883.303 409.979 934.082 426.919 943.624C429.009 944.993 431.364 945.939 433.843 946.407C436.322 946.875 438.873 946.854 441.343 946.346C443.814 945.838 446.152 944.854 448.218 943.451C450.284 942.049 452.035 940.258 453.366 938.186L452.363 909.06Z" fill="#FFA698"/>
<path d="M420.557 892.278C420.28 892.278 420.142 892.612 420.557 892.745C432.38 899.818 437.047 912.33 439.605 924.908C436.667 919.736 431.931 916.4 424.878 919.67C424.805 919.716 424.749 919.784 424.718 919.862C424.688 919.941 424.683 920.028 424.706 920.109C424.729 920.191 424.778 920.263 424.847 920.316C424.915 920.369 424.998 920.399 425.086 920.404C427.446 920.095 429.848 920.496 431.964 921.553C434.08 922.61 435.807 924.27 436.909 926.309C438.701 929.737 440.114 933.338 441.127 937.052C441.541 938.253 443.685 937.986 443.477 936.652C443.494 936.552 443.494 936.451 443.477 936.351C446.381 920.771 437.704 896.782 420.557 892.278Z" fill="#263238"/>
<path d="M491.464 982.961L457.412 968.781L430.031 935.885L435.286 931.781L461.629 963.443L494.161 976.988L491.464 982.961Z" fill="#37474F"/>
<path d="M487.834 977.721C491.291 968.146 518.948 971.683 513.935 986.162C508.923 1000.64 484.481 987.23 487.834 977.721Z" fill="#37474F"/>
<path d="M417.001 876.833C417.001 876.833 413.301 823.018 429.619 793.425C447.804 760.361 523.169 728.9 574.818 764.432C574.818 764.432 490.914 749.952 451.814 795.793C435.358 815.077 435.773 878.334 435.773 878.334L417.001 876.833Z" fill="#37474F"/>
<path d="M424.609 954.122C449.543 953.883 469.527 931.463 469.245 904.047C468.962 876.63 448.52 854.599 423.585 854.838C398.651 855.077 378.667 877.497 378.949 904.914C379.232 932.33 399.674 954.362 424.609 954.122Z" fill="#37474F"/>
<path d="M456.061 902.622C456.303 927.278 438.361 947.429 415.958 947.629C393.556 947.829 375.164 928.045 374.922 903.389C374.68 878.734 392.623 858.583 415.025 858.382C437.427 858.182 455.819 877.967 456.061 902.622Z" fill="#455A64"/>
<path d="M530.979 1038.88L506.606 1098.26L429.927 1023.6L408.424 1047.75C408.424 1047.75 483.616 1166.56 484.066 1161.19L509.13 1109.98L545.844 1145.37L542.387 1056.16L530.979 1038.88Z" fill="#37474F"/>
<path d="M546.744 1101.17C545.672 1086.45 545.05 1071.61 543.286 1056.96C543.286 1056.46 542.388 1056.23 542.249 1056.96C539.276 1071.21 543.667 1127.42 543.667 1140.94H543.494C541.973 1139.4 509.476 1109.81 509.165 1110.28C503.737 1118.42 485.311 1155.68 484.066 1159.09C472.173 1140.2 421.838 1065.84 407.664 1047.99C407.595 1047.87 407.482 1047.79 407.349 1047.75C407.216 1047.72 407.074 1047.74 406.955 1047.8C406.836 1047.87 406.749 1047.98 406.713 1048.11C406.677 1048.23 406.696 1048.37 406.765 1048.49C417.136 1068.5 482.476 1166.63 483.375 1166.36C493.074 1148.77 501.832 1130.7 509.614 1112.24C515.111 1118.68 547.884 1152.11 547.988 1149.91C548.466 1133.65 548.05 1117.38 546.744 1101.17Z" fill="#263238"/>
<path d="M1368.6 882.737H1261.68C1251.31 882.729 1241.37 878.75 1234.04 871.676C1226.71 864.601 1222.59 855.008 1222.58 845.003C1222.58 834.996 1226.7 825.398 1234.03 818.322C1241.36 811.245 1251.31 807.27 1261.68 807.27H1368.6C1378.97 807.27 1388.92 811.245 1396.25 818.322C1403.59 825.398 1407.7 834.996 1407.7 845.003C1407.7 849.959 1406.69 854.866 1404.73 859.444C1402.76 864.022 1399.88 868.181 1396.25 871.685C1392.62 875.189 1388.31 877.969 1383.57 879.865C1378.82 881.761 1373.74 882.737 1368.6 882.737Z" fill="#37474F"/>
<path d="M1285.04 844.337C1285.12 843.143 1285.52 841.991 1286.22 841L1287.19 839.632L1289.23 837.664L1291.61 835.996C1294.9 833.978 1298.56 832.606 1302.4 831.959C1311.24 830.257 1320.35 830.257 1329.19 831.959C1332.98 832.584 1336.6 833.934 1339.84 835.929C1340.67 836.463 1341.5 837.063 1342.29 837.63L1344.3 839.566C1344.82 840.297 1345.31 841.054 1345.75 841.834C1346.09 842.637 1346.37 843.462 1346.58 844.303H1329.05C1328.92 844.32 1328.78 844.294 1328.66 844.227C1328.54 844.161 1328.45 844.059 1328.4 843.936C1327.92 843.039 1327.2 842.28 1326.32 841.736C1325.44 841.191 1324.43 840.88 1323.38 840.833C1318.28 840.516 1313.17 840.516 1308.07 840.833C1307.03 840.875 1306.02 841.181 1305.15 841.721C1304.28 842.26 1303.56 843.013 1303.09 843.903C1303.09 844.136 1302.85 844.303 1302.5 844.303H1285.04V844.337Z" fill="white"/>
<path d="M1285.05 853.777V847.604H1302.33C1302.33 847.971 1302.33 848.372 1302.33 848.806V853.777C1302.38 854.068 1302.35 854.365 1302.26 854.645C1302.16 854.925 1302 855.179 1301.79 855.387C1301.57 855.595 1301.31 855.751 1301.02 855.843C1300.73 855.934 1300.42 855.958 1300.12 855.912H1287.22C1286.92 855.959 1286.62 855.936 1286.33 855.845C1286.04 855.754 1285.78 855.597 1285.56 855.388C1285.35 855.179 1285.19 854.924 1285.1 854.643C1285.01 854.363 1284.99 854.066 1285.05 853.777Z" fill="white"/>
<path d="M1329.19 853.979C1329.19 851.877 1329.19 849.776 1329.19 847.707H1346.31V848.074C1346.31 850.009 1346.31 851.978 1346.31 853.913C1346.34 854.192 1346.31 854.475 1346.21 854.741C1346.11 855.006 1345.96 855.247 1345.75 855.446C1345.55 855.645 1345.3 855.796 1345.02 855.889C1344.75 855.982 1344.45 856.013 1344.16 855.981H1331.13C1330.86 855.992 1330.59 855.947 1330.34 855.849C1330.09 855.75 1329.87 855.601 1329.68 855.411C1329.5 855.22 1329.36 854.994 1329.28 854.747C1329.19 854.5 1329.16 854.238 1329.19 853.979Z" fill="white"/>
<path d="M929.9 1517.71H906.184V1532.66H929.9V1517.71Z" fill="#455A64"/>
<path d="M960.634 1516.71H936.918V1531.65H960.634V1516.71Z" fill="#455A64"/>
<path d="M991.398 1515.71H967.682V1530.65H991.398V1515.71Z" fill="#455A64"/>
<path d="M1022.17 1514.74H998.451V1529.69H1022.17V1514.74Z" fill="#455A64"/>
<path d="M1052.94 1513.74H1029.22V1528.69H1052.94V1513.74Z" fill="#455A64"/>
<path d="M1083.71 1512.77H1059.99V1527.72H1083.71V1512.77Z" fill="#455A64"/>
<path d="M1114.48 1511.77H1090.76V1526.72H1114.48V1511.77Z" fill="#455A64"/>
<path d="M1145.24 1510.77H1121.52V1525.71H1145.24V1510.77Z" fill="#455A64"/>
<path d="M1175.98 1509.8H1152.26V1524.75H1175.98V1509.8Z" fill="#455A64"/>
<path d="M1181.82 1541.23H900.342V1523.05L1181.82 1515.47V1541.23Z" fill="#37474F"/>
<path d="M1456.52 1469.53H991.883L1065.76 1135.7H1530.4L1456.52 1469.53Z" fill="#455A64"/>
<path d="M1473.7 1469.53H1009.07L1082.95 1135.7H1547.58L1473.7 1469.53Z" fill="#37474F"/>
<path d="M1307.77 1302.02C1320.38 1290.78 1322.53 1273.24 1312.58 1262.85C1302.63 1252.45 1284.34 1253.14 1271.74 1264.38C1259.13 1275.62 1256.98 1293.16 1266.93 1303.56C1276.88 1313.95 1295.17 1313.26 1307.77 1302.02Z" fill="#263238"/>
<path d="M1342.3 1556.71H1113.79V1539.56L1342.3 1532.46V1556.71Z" fill="#455A64"/>
<path d="M1404.42 1556.68H1281.73L1207.82 1369.61H1330.51L1404.42 1556.68Z" fill="#455A64"/>
<path d="M1424.61 1556.68H1301.92L1228.04 1369.61H1350.73L1424.61 1556.68Z" fill="#263238"/>
<path d="M891.663 1561.25H656.06C635.974 1561.25 665.049 1506 738.443 1484.81C811.838 1463.63 914.826 1540.53 891.663 1561.25Z" fill="#37474F"/>
<path d="M799.223 1561.25C799.412 1554.95 800.494 1548.71 802.438 1542.7C804.336 1536.64 806.995 1530.82 810.355 1525.38C813.736 1519.92 817.955 1514.98 822.869 1510.74C827.73 1506.48 833.337 1503.09 839.429 1500.73C836.905 1502.73 834.036 1504.06 831.72 1506.3L828.262 1509.27L824.805 1512.6C820.437 1517 816.609 1521.87 813.397 1527.12C810.134 1532.36 807.336 1537.87 805.031 1543.57C802.685 1549.33 800.745 1555.23 799.223 1561.25Z" fill="#263238"/>
<path d="M827.121 1508.67C841.115 1513.14 854.357 1519.55 866.429 1527.72C872.529 1531.79 878.05 1536.61 882.85 1542.06C885.207 1544.85 887.236 1547.88 888.9 1551.11C890.543 1554.32 891.484 1557.83 891.666 1561.41C890.841 1558.02 889.401 1554.79 887.413 1551.87C885.532 1548.95 883.33 1546.23 880.845 1543.77C875.808 1538.84 870.311 1534.37 864.423 1530.42C858.581 1526.35 852.393 1522.71 846.204 1519.11C843.093 1517.31 839.912 1515.57 836.732 1513.9C833.551 1512.24 830.336 1510.37 827.121 1508.67Z" fill="#263238"/>
<path d="M908.532 803.365C906.499 821.973 899.149 839.67 887.303 854.482C875.456 869.295 859.578 880.64 841.441 887.252C823.303 893.864 803.618 895.483 784.583 891.928C765.547 888.374 747.909 879.786 733.636 867.122L681.191 874.662L707.396 830.99C700.848 815.604 698.377 798.885 700.206 782.346C701.548 769.084 705.596 756.21 712.116 744.465C718.636 732.719 727.499 722.334 738.195 713.908C748.891 705.483 761.209 699.182 774.439 695.369C787.668 691.557 801.549 690.307 815.281 691.694C829.013 693.08 842.326 697.074 854.452 703.446C866.578 709.818 877.278 718.442 885.935 728.822C894.593 739.202 901.038 751.132 904.898 763.925C908.758 776.718 909.958 790.122 908.428 803.365H908.532Z" fill="white"/>
<path d="M908.532 803.365C906.519 821.989 899.209 839.713 887.409 854.577C884.477 858.274 881.313 861.795 877.936 865.12C874.434 868.329 870.741 871.337 866.873 874.128C859.171 879.786 850.673 884.359 841.636 887.707C832.603 891.122 823.119 893.3 813.461 894.18C808.623 894.619 803.758 894.708 798.906 894.447C794.046 894.337 789.203 893.858 784.421 893.012C765.095 889.59 747.139 881.041 732.564 868.323L733.809 868.69L681.503 876.464L677.734 877.131L679.636 873.795L705.702 829.989V831.723C699.586 817.373 696.942 801.865 697.971 786.38C699.001 770.895 703.676 755.84 711.643 742.362C719.61 728.883 730.657 717.336 743.944 708.598C757.232 699.861 772.41 694.164 788.323 691.94C804.235 689.716 820.464 691.025 835.774 695.766C851.084 700.507 865.072 708.555 876.673 719.299C888.274 730.044 897.183 743.2 902.721 757.767C908.26 772.335 910.283 787.929 908.635 803.365H908.532ZM908.532 803.365C910.173 788.16 908.183 772.794 902.715 758.446C897.248 744.099 888.447 731.15 876.988 720.595C865.53 710.039 851.719 702.157 836.613 697.552C821.508 692.948 805.511 691.744 789.849 694.033C774.318 696.268 759.524 701.906 746.6 710.514C733.819 719.194 723.134 730.439 715.279 743.477C707.549 756.583 702.987 771.204 701.934 786.249C700.968 801.324 703.508 816.417 709.367 830.422L709.747 831.323L709.229 832.124L682.886 875.73L681.019 873.061L733.429 865.988H734.155L734.673 866.455C748.661 879.092 766.019 887.722 784.801 891.377C789.486 892.286 794.236 892.843 799.01 893.045C803.775 893.362 808.557 893.362 813.323 893.045C822.888 892.341 832.303 890.342 841.291 887.107C850.324 883.955 858.828 879.537 866.528 873.995C870.385 871.228 874.079 868.254 877.59 865.087C880.978 861.797 884.153 858.309 887.098 854.644C899.027 839.798 906.448 822.044 908.532 803.365Z" fill="#263238"/>
<path d="M862.791 795.925C862.798 798.348 862.06 800.719 860.67 802.737C859.28 804.755 857.301 806.329 854.983 807.261C852.665 808.193 850.113 808.44 847.65 807.971C845.186 807.503 842.922 806.339 841.144 804.628C839.367 802.917 838.155 800.735 837.662 798.359C837.17 795.983 837.419 793.52 838.379 791.28C839.338 789.041 840.964 787.127 843.051 785.78C845.138 784.433 847.593 783.714 850.104 783.714C851.768 783.71 853.417 784.022 854.956 784.634C856.495 785.246 857.894 786.144 859.073 787.279C860.252 788.413 861.187 789.761 861.825 791.244C862.463 792.728 862.791 794.319 862.791 795.925Z" fill="#770DCA"/>
<path d="M817.369 795.925C817.376 798.349 816.637 800.721 815.246 802.74C813.854 804.759 811.873 806.333 809.553 807.264C807.233 808.195 804.679 808.44 802.215 807.969C799.751 807.498 797.487 806.331 795.71 804.616C793.934 802.902 792.725 800.717 792.236 798.339C791.748 795.961 792.002 793.496 792.967 791.257C793.931 789.018 795.563 787.106 797.654 785.764C799.746 784.421 802.204 783.707 804.716 783.714C808.072 783.714 811.29 785 813.663 787.29C816.036 789.58 817.369 792.686 817.369 795.925Z" fill="#770DCA"/>
<path d="M771.975 795.925C771.982 798.348 771.243 800.719 769.853 802.737C768.463 804.755 766.484 806.329 764.166 807.261C761.849 808.193 759.297 808.44 756.833 807.971C754.37 807.503 752.106 806.339 750.328 804.628C748.55 802.917 747.338 800.735 746.846 798.359C746.354 795.983 746.603 793.52 747.562 791.28C748.521 789.041 750.148 787.127 752.235 785.78C754.322 784.433 756.776 783.714 759.287 783.714C762.646 783.714 765.868 784.999 768.246 787.288C770.625 789.577 771.966 792.683 771.975 795.925Z" fill="#770DCA"/>
<path d="M952.883 279.492C954.917 298.099 962.265 315.796 974.109 330.609C985.953 345.423 1001.83 356.771 1019.96 363.389C1038.1 370.007 1057.78 371.634 1076.82 368.09C1095.85 364.546 1113.5 355.969 1127.78 343.316L1180.12 350.722L1153.95 307.05C1159.95 292.828 1162.51 277.474 1161.44 262.153C1160.38 246.832 1155.7 231.948 1147.78 218.632C1139.85 205.317 1128.89 193.919 1115.71 185.307C1102.54 176.694 1087.51 171.093 1071.75 168.928C1056 166.764 1039.95 168.094 1024.8 172.816C1009.66 177.539 995.839 185.53 984.379 196.183C972.919 206.836 964.126 219.869 958.669 234.293C953.211 248.717 951.233 264.152 952.883 279.425V279.492Z" fill="white"/>
<path d="M984.209 196.051C995.609 185.2 1009.44 177.024 1024.64 172.153C1039.83 167.282 1055.99 165.847 1071.85 167.959C1087.82 169.992 1103.1 175.527 1116.51 184.14C1136.83 197.23 1151.84 216.697 1158.99 239.243C1166.14 261.789 1165 286.027 1155.75 307.851V306.116L1181.75 349.989L1183.65 353.326L1179.88 352.758L1127.54 345.018L1128.79 344.651C1114.21 357.369 1096.25 365.918 1076.93 369.34C1072.15 370.186 1067.3 370.666 1062.44 370.775C1057.6 371.019 1052.75 370.93 1047.92 370.508C1028.53 368.724 1010.04 361.795 994.477 350.49C990.609 347.699 986.916 344.691 983.414 341.482C980.045 338.149 976.882 334.629 973.941 330.939C958.27 311.179 950.653 286.559 952.532 261.742C954.412 236.925 965.658 213.635 984.14 196.284L984.209 196.051ZM974.322 330.472C977.267 334.126 980.442 337.602 983.829 340.881C987.323 344.067 991.017 347.042 994.891 349.789C1002.59 355.362 1011.11 359.792 1020.16 362.934C1029.14 366.154 1038.55 368.152 1048.1 368.873C1052.87 369.19 1057.67 369.19 1062.44 368.873C1067.21 368.669 1071.94 368.111 1076.62 367.205C1095.4 363.55 1112.76 354.92 1126.75 342.282L1127.26 341.815H1127.99L1180.4 348.888L1178.53 351.557L1152.19 307.951L1151.67 307.117L1152.05 306.217C1157.92 292.266 1160.44 277.213 1159.41 262.189C1158.39 247.165 1153.85 232.56 1146.14 219.472C1138.29 206.426 1127.61 195.18 1114.82 186.509C1101.9 177.906 1087.12 172.269 1071.6 170.027C1051.09 166.971 1030.1 169.936 1011.36 178.539C992.614 187.141 976.983 200.983 966.494 218.267C956.005 235.552 951.143 255.48 952.539 275.465C953.935 295.45 961.524 314.569 974.322 330.338V330.472Z" fill="#263238"/>
<path d="M1066.31 281.328V293.939C1066.34 295.195 1066.11 296.444 1065.62 297.61C1065.14 298.776 1064.41 299.835 1063.49 300.724C1062.57 301.612 1061.47 302.312 1060.27 302.78C1059.06 303.248 1057.76 303.475 1056.46 303.448C1053.85 303.439 1051.35 302.434 1049.5 300.653C1047.66 298.872 1046.62 296.458 1046.61 293.939V273.921C1046.61 273.721 1046.82 273.721 1046.82 273.521C1046.82 273.321 1046.61 273.321 1046.61 273.154C1046.68 270.653 1047.74 268.274 1049.57 266.505C1051.4 264.736 1053.87 263.713 1056.46 263.645C1059.56 263.88 1062.68 263.494 1065.61 262.51C1068.55 261.527 1071.25 259.968 1073.53 257.931C1075.81 255.895 1077.63 253.424 1078.88 250.676C1080.12 247.927 1080.77 244.959 1080.77 241.959C1080.77 238.959 1080.12 235.991 1078.88 233.243C1077.63 230.494 1075.81 228.024 1073.53 225.987C1071.25 223.95 1068.55 222.391 1065.61 221.408C1062.68 220.425 1059.56 220.038 1056.46 220.273C1052.56 220.258 1048.72 221.237 1045.33 223.111C1041.94 224.986 1039.13 227.689 1037.17 230.949C1036.5 232.053 1035.6 233.017 1034.54 233.784C1033.48 234.551 1032.27 235.105 1030.98 235.416C1029.69 235.727 1028.36 235.787 1027.04 235.593C1025.73 235.398 1024.47 234.954 1023.34 234.286C1022.23 233.653 1021.25 232.813 1020.48 231.816C1019.7 230.818 1019.13 229.682 1018.81 228.473C1018.49 227.264 1018.42 226.006 1018.6 224.77C1018.79 223.535 1019.22 222.347 1019.89 221.274C1023.38 215.415 1028.34 210.488 1034.3 206.936C1040.26 203.385 1047.04 201.319 1054.04 200.927C1061.03 200.535 1068.02 201.827 1074.37 204.689C1080.71 207.55 1086.23 211.89 1090.4 217.318C1094.58 222.746 1097.29 229.092 1098.3 235.783C1099.3 242.475 1098.57 249.303 1096.16 255.652C1093.75 262.001 1089.74 267.672 1084.49 272.154C1079.25 276.636 1072.93 279.789 1066.11 281.328H1066.31ZM1066.31 323.8V327.136C1066.35 328.393 1066.12 329.644 1065.63 330.812C1065.15 331.98 1064.42 333.041 1063.5 333.931C1062.58 334.82 1061.48 335.52 1060.27 335.986C1059.06 336.453 1057.76 336.677 1056.46 336.644C1053.85 336.644 1051.34 335.643 1049.49 333.859C1047.65 332.076 1046.61 329.658 1046.61 327.136V323.8C1046.64 321.288 1047.69 318.89 1049.53 317.114C1051.37 315.338 1053.86 314.326 1056.46 314.291C1057.76 314.278 1059.05 314.514 1060.25 314.988C1061.45 315.461 1062.54 316.161 1063.46 317.046C1064.38 317.932 1065.1 318.985 1065.59 320.145C1066.08 321.305 1066.33 322.547 1066.31 323.8Z" fill="#770DCA"/>
<defs>
<linearGradient id="paint0_linear_287_1545" x1="786.724" y1="0" x2="786.724" y2="1582" gradientUnits="userSpaceOnUse">
<stop stop-color="#CEB0FF"/>
<stop offset="1" stop-color="#9B1FFC"/>
</linearGradient>
</defs>
</svg>
