<svg width="512" height="415" viewBox="0 0 512 415" fill="none" xmlns="http://www.w3.org/2000/svg">
<path d="M0 199.124C0 129.85 88.3331 -18.1831 213.962 1.84629C304.246 16.2413 266.744 116.231 434.189 153.479C564.581 182.487 527.199 368.023 344.087 378.092C140.957 389.252 0 328.994 0 199.124Z" fill="#F3F5F4"/>
<path d="M434.129 246.356C375.906 294.085 415.129 375.996 438.079 368.423C458.569 361.661 409.022 254.208 335.823 262.69C215.307 276.661 181.355 332.375 99.2384 310.588C16.5397 288.644 0.484677 196.834 80.7599 144.428C160.756 92.2153 33.5278 2.86439 23.5191 31.6908C17.812 48.1336 80.9659 88.4833 126.029 50.0965C171.092 11.7098 230.769 6.79031 268.247 76.6328C305.725 146.475 382.207 105.12 431.051 95.5111C479.882 85.9023 559.261 143.773 434.129 246.356Z" stroke="#70927F" stroke-width="0.25" stroke-miterlimit="10"/>
<path d="M378.778 210.235C425.883 210.235 464.07 172.048 464.07 124.943C464.07 77.8378 425.883 39.6514 378.778 39.6514C331.673 39.6514 293.486 77.8378 293.486 124.943C293.486 172.048 331.673 210.235 378.778 210.235Z" fill="white"/>
<path d="M385.685 208.199C432.79 208.199 470.976 170.013 470.976 122.907C470.976 75.8021 432.79 37.6157 385.685 37.6157C338.579 37.6157 300.393 75.8021 300.393 122.907C300.393 170.013 338.579 208.199 385.685 208.199Z" fill="#F3F5F4"/>
<path d="M378.778 210.235C425.883 210.235 464.07 172.048 464.07 124.943C464.07 77.8378 425.883 39.6514 378.778 39.6514C331.673 39.6514 293.486 77.8378 293.486 124.943C293.486 172.048 331.673 210.235 378.778 210.235Z" stroke="#70927F" stroke-width="0.25" stroke-miterlimit="10"/>
<path d="M363.765 210.234H349.661L350.776 179.312H363.074L363.765 210.234Z" fill="#B14330"/>
<path d="M355.622 126.905L340.924 177.591L345.977 182.595L340.924 188.69L367.691 191.695L355.622 126.905Z" fill="#FFB84F"/>
<path d="M363.765 211.337H405.387L419.746 120.713L396.651 119.271L370.708 120.713L355.622 126.905L363.765 211.337Z" fill="#FFB84F"/>
<path d="M377.736 134.224L396.651 119.272L389.732 96.3584L369.642 98.9878L377.736 134.224Z" fill="#B14330"/>
<path d="M373.774 116.969L383.019 105.422L369.642 98.9878L373.774 116.969Z" fill="#5F281C"/>
<path d="M356.034 86.7976C355.101 97.3394 358.567 110.256 369.109 111.189C379.65 112.122 392.398 99.5811 393.331 89.0514C394.264 78.5217 398.153 60.9884 383.867 59.7282C363.099 57.8864 356.967 76.2679 356.034 86.7976Z" fill="#B14330"/>
<path d="M375.131 77.4434C375.131 77.4434 375.603 81.0906 379.832 83.3201" stroke="#422E2D" stroke-miterlimit="10"/>
<path d="M359.185 78.0856C359.185 78.0856 361.911 78.9822 364.225 77.4434" stroke="#422E2D" stroke-miterlimit="10"/>
<path d="M362.662 96.3584C362.662 96.3584 367.57 96.8431 374.852 96.3584C374.852 96.3584 371.144 100.902 365.667 100.442C364.395 100.333 362.662 96.3584 362.662 96.3584Z" fill="white"/>
<path d="M374.852 89.0398C375.669 89.0398 376.33 87.8409 376.33 86.362C376.33 84.883 375.669 83.6841 374.852 83.6841C374.036 83.6841 373.374 84.883 373.374 86.362C373.374 87.8409 374.036 89.0398 374.852 89.0398Z" fill="#422E2D"/>
<path d="M361.584 87.3914C362.4 87.3914 363.062 86.1925 363.062 84.7135C363.062 83.2346 362.4 82.0356 361.584 82.0356C360.768 82.0356 360.106 83.2346 360.106 84.7135C360.106 86.1925 360.768 87.3914 361.584 87.3914Z" fill="#422E2D"/>
<path d="M366.273 86.3618C366.273 86.3618 365.146 90.8572 359.851 90.5058C359.851 90.518 366.552 99.0847 366.273 86.3618Z" fill="#9A2532"/>
<path d="M396.651 93.341C409.737 77.6858 414.729 74.3052 396.651 61.7641C396.651 61.7641 394.882 49.853 379.335 53.6941C355.368 59.6072 359.779 61.7641 358.991 74.8262C358.991 74.8262 371.908 76.4863 382.34 70.3914C382.34 70.3914 382.704 77.7343 386.993 81.4785L386.254 89.3303L396.651 93.341Z" fill="#422E2D"/>
<path d="M396.651 61.7642C396.651 61.7642 398.226 58.4805 396.651 55.0635" stroke="#422E2D" stroke-miterlimit="10"/>
<path d="M395.584 63.5691C395.584 63.5691 401.279 61.0366 401.752 58.4072" stroke="#422E2D" stroke-miterlimit="10"/>
<path d="M399.069 94.1436C400.612 90.0622 399.296 85.7827 396.128 84.585C392.961 83.3874 389.142 85.725 387.599 89.8064C386.056 93.8877 387.372 98.1672 390.54 99.3649C393.707 100.563 397.526 98.2249 399.069 94.1436Z" fill="#B14330"/>
<path d="M400.395 120.714L395.584 108.584L368.757 114.825L376.33 137.69L400.395 120.714Z" fill="#FFB84F"/>
<path d="M369.642 117.49L384.667 116.69L370.708 120.713L369.642 117.49Z" fill="#FFD788"/>
<path d="M419.746 120.713L423.151 187.781L402.043 198.856L400.395 120.713H419.746Z" fill="#FFB84F"/>
<path d="M393.185 109.712L386.157 107.518C385.321 107.264 384.861 106.367 385.115 105.543L390.725 87.5617C390.98 86.7257 391.877 86.2652 392.7 86.5197L399.728 88.7129C400.564 88.9673 401.025 89.864 400.77 90.6879L395.16 108.67C394.906 109.506 394.021 109.978 393.185 109.712Z" fill="#A5BBAA"/>
<path d="M395.1 110.318L387.708 108.016C386.872 107.761 386.412 106.864 386.666 106.04L392.276 88.0588C392.531 87.2227 393.428 86.7623 394.251 87.0167L401.643 89.319C402.479 89.5735 402.939 90.4701 402.685 91.2941L397.075 109.276C396.82 110.112 395.936 110.572 395.1 110.318Z" fill="#E8DFCF"/>
<path d="M394.663 91.1607C395.279 91.1607 395.778 90.6616 395.778 90.0459C395.778 89.4302 395.279 88.9312 394.663 88.9312C394.048 88.9312 393.549 89.4302 393.549 90.0459C393.549 90.6616 394.048 91.1607 394.663 91.1607Z" fill="#A5BBAA"/>
<path d="M418.91 184.922L398.601 109.263L395.524 110.657C395.524 110.657 392.64 169.109 405.811 191.417L418.91 184.922Z" fill="#B14330"/>
<path d="M398.601 109.263L404.636 96.0312C404.636 96.0312 388.762 99.7875 395.524 110.669L398.601 109.263Z" fill="#B14330"/>
<path d="M404.636 96.0312L397.559 89.8516C397.559 89.8516 395.075 93.9835 403.363 96.831L404.636 96.0312Z" fill="#B14330"/>
<path d="M395.5 101.169L399.51 98.5395L395.318 93.3413C395.318 93.3413 393.827 96.0313 397.656 98.7697L395.5 101.169Z" fill="#B14330"/>
<path d="M403.363 96.8312L395.912 90.9302C395.912 90.9302 393.767 94.6864 402.212 97.3037L403.363 96.8312Z" fill="#B14330"/>
<path d="M363.765 211.337L355.622 126.905L368.757 211.337H363.765Z" fill="#FFD788"/>
<path d="M211.418 351.313H143.575V361.274H211.418V351.313Z" fill="#86593E"/>
<path d="M237.336 410.153H228.89L189.098 299.307H197.544L237.336 410.153Z" fill="#B58E67"/>
<path d="M169.202 410.153H177.648L187.596 299.307H179.15L169.202 410.153Z" fill="#B58E67"/>
<path d="M119.462 410.153H127.919L167.7 299.307H159.254L119.462 410.153Z" fill="#B58E67"/>
<path d="M200.294 220.897H130.161C128.671 220.897 127.459 222.109 127.459 223.6V295.999C127.459 298.374 129.386 300.3 131.76 300.3H206.862V227.465C206.862 223.83 203.929 220.897 200.294 220.897Z" fill="#FFB84F"/>
<path d="M228.588 310.878H162.017V300.3H228.588C231.508 300.3 233.871 302.663 233.871 305.583C233.883 308.515 231.508 310.878 228.588 310.878Z" fill="#FFB84F"/>
<path d="M133.166 288.946V225.38C133.166 222.908 131.167 220.909 128.695 220.909C126.223 220.909 124.224 222.908 124.224 225.38V289.782C124.224 301.439 133.675 310.878 145.319 310.878H160.817C163.737 310.878 166.1 308.515 166.1 305.595C166.1 302.675 163.737 300.312 160.817 300.312H144.532C138.255 300.3 133.166 295.223 133.166 288.946Z" fill="#FFD788"/>
<path d="M204.972 299.307H169.299C152.614 299.307 140.751 283.058 145.828 267.16L151.717 248.73L204.038 242.405L204.972 299.307Z" fill="#B7C9B9"/>
<path d="M210.291 173.678L225.328 227.247H210.291L194.478 200.468L210.291 173.678Z" fill="#EFEBDF"/>
<path d="M224.637 224.787L263.206 232.251L262.164 235.462C262.164 235.462 227.933 243.617 210.291 227.247L224.637 224.787Z" fill="#5F281C"/>
<path d="M263.206 232.252L279.794 230.749L275.202 234.893C271.555 238.177 266.09 238.419 262.164 235.475L263.206 232.252Z" fill="#5F281C"/>
<path d="M279.806 230.737L282.823 237.511C282.823 237.511 278.449 238.504 278.522 231.888L279.806 230.737Z" fill="#5F281C"/>
<path d="M276.135 231.622L278.861 238.783C278.861 238.783 273.808 239.341 276.135 231.622Z" fill="#5F281C"/>
<path d="M279.806 230.737L285.441 235.196C285.441 235.196 281.636 237.208 279.406 231.61L279.806 230.737Z" fill="#5F281C"/>
<path d="M271.785 235.56H201.724V240.54H271.785V235.56Z" fill="white"/>
<path d="M210.291 173.678L193.654 166.965H174.013L148.894 174.429L160.187 222.146L149.888 247.894H198.525L194.793 220.946L194.951 220.474C195.847 217.759 197.847 215.603 200.403 214.306C204.753 212.113 207.274 209.168 207.625 206.03C207.783 204.637 207.661 203.037 207.346 201.341C205.929 193.695 206.316 185.819 208.74 178.415L210.291 173.678Z" fill="white"/>
<path d="M201.276 215.772C203.99 214.403 206.401 211.434 207.153 207.884C207.153 207.884 201.191 213.24 180.507 211.313C156.649 209.095 171.529 226.726 163.01 247.894H198.525L194.793 220.946L194.951 220.473C195.847 217.759 198.731 217.056 201.276 215.772Z" fill="#EFEBDF"/>
<path d="M190.625 180.112L174 166.965L182.809 149.141H197.75L190.625 180.112Z" fill="#B14330"/>
<path d="M194.115 164.941L185.984 154.799L197.75 149.141L194.115 164.941Z" fill="#5F281C"/>
<path d="M181.973 112.535C181.973 112.535 185.875 109.324 190.758 109.324C195.023 109.324 205.965 113.82 210.036 124.107C214.108 134.382 215.647 143.082 211.575 154.739L193.606 149.141L181.973 112.535Z" fill="#422E2D"/>
<path d="M209.709 138.417C210.533 147.686 207.48 159.04 198.21 159.852C188.941 160.664 175.115 149.649 174.303 140.392C173.491 131.134 172.68 115.734 185.245 114.619C203.505 113.007 208.885 129.159 209.709 138.417Z" fill="#B14330"/>
<path d="M202.391 130.965C202.391 130.965 204.971 129.62 207.056 131.425" stroke="#422E2D" stroke-miterlimit="10"/>
<path d="M173.128 138.938C173.128 138.938 194.926 138.696 199.737 119.66C199.737 119.66 203.057 120.23 207.625 125.367C207.625 125.367 205.432 114.123 187.269 114.123C168.742 114.123 173.128 138.938 173.128 138.938Z" fill="#422E2D"/>
<path d="M199.398 118.23C199.398 118.23 202.984 133.05 179.732 137.993" stroke="#422E2D" stroke-miterlimit="10"/>
<path d="M181.973 135.497C181.973 135.497 178.387 146.827 183.791 157.587C183.791 157.587 166.076 159.901 154.395 146.827C154.104 135.025 160.005 123.562 167.421 115.94C173.625 109.567 191.243 107.483 195.714 119.66C195.714 119.66 183.573 119.309 181.973 135.497Z" fill="#422E2D"/>
<path d="M213.308 155.526C213.308 155.526 221.572 132.407 203.53 116.909" stroke="#422E2D" stroke-miterlimit="10"/>
<path d="M152.577 145.118C152.577 145.118 154.383 109.336 185.1 111.966" stroke="#422E2D" stroke-miterlimit="10"/>
<path d="M203.881 146.827C203.881 146.827 199.567 147.251 193.17 146.827C193.17 146.827 196.429 150.825 201.252 150.413C202.354 150.316 203.881 146.827 203.881 146.827Z" fill="white"/>
<path d="M193.17 140.404C193.892 140.404 194.478 139.346 194.478 138.042C194.478 136.737 193.892 135.679 193.17 135.679C192.447 135.679 191.861 136.737 191.861 138.042C191.861 139.346 192.447 140.404 193.17 140.404Z" fill="#422E2D"/>
<path d="M204.826 138.95C205.549 138.95 206.135 137.892 206.135 136.587C206.135 135.282 205.549 134.225 204.826 134.225C204.103 134.225 203.517 135.282 203.517 136.587C203.517 137.892 204.103 138.95 204.826 138.95Z" fill="#422E2D"/>
<path d="M200.706 138.042C200.706 138.042 201.7 141.992 206.353 141.689C206.353 141.689 200.464 149.226 200.706 138.042Z" fill="#9A2532"/>
<path d="M179.455 149.493C182.24 148.44 183.399 144.678 182.043 141.091C180.686 137.504 177.329 135.451 174.543 136.504C171.758 137.557 170.599 141.319 171.955 144.906C173.311 148.492 176.669 150.546 179.455 149.493Z" fill="#B14330"/>
<path d="M176.436 123.925H173.807V137.993H176.436V123.925Z" fill="#709480"/>
<path d="M174.679 123.925H172.05V137.993H174.679V123.925Z" fill="#B4C6B6"/>
<path d="M177.926 127.1V120.29C177.926 117.382 179.647 114.486 182.143 112.984C183.452 112.196 187.135 109.894 187.135 109.894C187.135 109.894 180.737 109.894 177.89 110.997L177.139 111.287C174.134 112.439 172.146 115.335 172.146 118.558V127.112H177.926V127.1Z" fill="#709480"/>
<path d="M176.181 127.1V120.29C176.181 117.382 177.805 114.717 180.398 113.372L187.147 109.894L185.087 109.724C182.046 109.47 178.993 109.906 176.145 110.997L175.394 111.287C172.389 112.439 170.402 115.335 170.402 118.558V127.112H176.181V127.1Z" fill="#B4C6B6"/>
<path d="M174.534 148.68C178.642 148.68 181.973 145.35 181.973 141.241C181.973 137.132 178.642 133.801 174.534 133.801C170.425 133.801 167.094 137.132 167.094 141.241C167.094 145.35 170.425 148.68 174.534 148.68Z" fill="#B4C6B6"/>
<path d="M173.067 148.68C177.176 148.68 180.507 145.35 180.507 141.241C180.507 137.132 177.176 133.801 173.067 133.801C168.958 133.801 165.628 137.132 165.628 141.241C165.628 145.35 168.958 148.68 173.067 148.68Z" fill="#F1EADF"/>
<path d="M173.067 145.906C175.644 145.906 177.732 143.817 177.732 141.241C177.732 138.664 175.644 136.576 173.067 136.576C170.491 136.576 168.402 138.664 168.402 141.241C168.402 143.817 170.491 145.906 173.067 145.906Z" fill="#B4C6B6"/>
<path d="M173.067 143.361C174.239 143.361 175.188 142.412 175.188 141.241C175.188 140.069 174.239 139.12 173.067 139.12C171.896 139.12 170.947 140.069 170.947 141.241C170.947 142.412 171.896 143.361 173.067 143.361Z" fill="#F1EADF"/>
<path d="M199.531 156.132L181.828 154.097L172.583 141.604L173.564 140.877L182.482 152.958L199.676 154.933L199.531 156.132Z" fill="#F1EADF"/>
<path d="M199.919 156.75H195.569C195.132 156.75 194.793 156.399 194.793 155.975V154.266C194.793 153.83 195.145 153.491 195.569 153.491H199.919C200.355 153.491 200.694 153.842 200.694 154.266V155.975C200.706 156.399 200.355 156.75 199.919 156.75Z" fill="#B4C6B6"/>
<path d="M161.447 203.171L158.054 213.155L156.043 206.249L161.447 203.171Z" fill="#EFEBDF"/>
<path d="M148.894 174.429L127.459 227.889H145.162L161.447 203.17L148.894 174.429Z" fill="white"/>
<path d="M243.298 240.54H227.945C227.945 236.299 231.387 232.857 235.628 232.857C239.856 232.857 243.298 236.299 243.298 240.54Z" fill="#B7C9B9"/>
<path d="M147.694 224.048L222.226 232.251L221.184 235.462C221.184 235.462 163.022 255.334 127.471 227.889L147.694 224.048Z" fill="#B1432D"/>
<path d="M222.226 232.251L238.814 230.748L234.222 234.892C230.575 238.176 225.11 238.418 221.184 235.474L222.226 232.251Z" fill="#B1432D"/>
<path d="M238.814 230.736L241.831 237.51C241.831 237.51 237.457 238.503 237.53 231.887L238.814 230.736Z" fill="#B1432D"/>
<path d="M235.143 231.621L237.869 238.782C237.881 238.782 232.829 239.34 235.143 231.621Z" fill="#B1432D"/>
<path d="M238.814 230.736L244.449 235.195C244.449 235.195 240.644 237.207 238.414 231.609L238.814 230.736Z" fill="#B1432D"/>
<path d="M307.857 218.802H239.59C235.313 218.802 231.92 215.215 232.162 210.938L234.828 166.602C235.046 162.664 238.305 159.574 242.256 159.574H310.523C314.8 159.574 318.193 163.16 317.951 167.438L315.285 211.774C315.067 215.724 311.807 218.802 307.857 218.802Z" fill="#70927F"/>
<path d="M312.134 218.802H243.867C239.59 218.802 236.197 215.215 236.439 210.938L239.105 166.602C239.323 162.664 242.583 159.574 246.533 159.574H314.8C319.077 159.574 322.47 163.16 322.228 167.438L319.562 211.774C319.344 215.724 316.085 218.802 312.134 218.802Z" fill="#A5BBAA"/>
<path d="M288.434 202.044H267.132L276.074 234.748C276.365 235.826 275.565 236.88 274.451 236.88H253.67V240.612H277.649H291.875C295.437 240.612 298.03 237.22 297.097 233.778L288.434 202.044ZM286.798 228.871C284.132 228.871 281.975 226.714 281.975 224.048C281.975 221.383 284.132 219.226 286.798 219.226C289.463 219.226 291.62 221.383 291.62 224.048C291.62 226.714 289.451 228.871 286.798 228.871Z" fill="#70927F"/>
<path d="M284.592 189.225H272.391C269.482 189.225 267.12 191.587 267.12 194.496V202.057H289.851V194.496C289.863 191.575 287.501 189.225 284.592 189.225Z" fill="#70927F"/>
<path d="M288.094 189.225H275.892C272.984 189.225 270.621 191.587 270.621 194.496V202.057H293.353V194.496C293.365 191.575 291.002 189.225 288.094 189.225Z" fill="#E3E3E3"/>
<path d="M301.992 233.489L293.426 202.045H270.621L271.906 206.758H271.894L279.939 236.288C280.509 238.396 279.006 240.456 276.862 240.613H277.625H281.127H291.766H296.54C300.272 240.613 302.974 237.075 301.992 233.489ZM288.543 228.872C285.877 228.872 283.72 226.715 283.72 224.049C283.72 221.384 285.877 219.227 288.543 219.227C291.208 219.227 293.365 221.384 293.365 224.049C293.365 226.715 291.208 228.872 288.543 228.872Z" fill="#E3E3E3"/>
<path d="M288.094 189.225H275.892C272.984 189.225 270.621 191.587 270.621 194.496V202.057H293.353V194.496C293.365 191.575 291.002 189.225 288.094 189.225Z" fill="#A5BBAA"/>
<path d="M301.992 233.488L293.426 202.044H270.621L271.906 206.757H271.894L279.939 236.287C280.509 238.395 279.006 240.455 276.862 240.612H277.625H281.127H291.766H296.54C300.272 240.612 302.974 237.074 301.992 233.488ZM288.543 228.871C285.877 228.871 283.72 226.714 283.72 224.048C283.72 221.383 285.877 219.226 288.543 219.226C291.208 219.226 293.365 221.383 293.365 224.048C293.365 226.714 291.208 228.871 288.543 228.871Z" fill="#A5BBAA"/>
<path d="M301.992 233.488L293.426 202.044H293.353V194.483C293.353 191.575 290.99 189.212 288.082 189.212H275.88" stroke="#F3F5F4" stroke-miterlimit="10" stroke-linecap="round" stroke-linejoin="round"/>
<path d="M293.438 202.044L302.005 233.488C302.986 237.074 300.284 240.612 296.564 240.612" stroke="#F3F5F4" stroke-miterlimit="10" stroke-linecap="round" stroke-linejoin="round"/>
<path d="M245.515 199.124C245.503 199.124 245.491 199.124 245.479 199.124C245.188 199.112 244.958 198.857 244.97 198.554L246.436 172.345C246.448 172.054 246.703 171.812 247.005 171.836C247.296 171.848 247.526 172.103 247.514 172.406L246.048 198.615C246.036 198.906 245.794 199.124 245.515 199.124Z" fill="#D1CEC7"/>
<path d="M249.005 199.124C248.993 199.124 248.981 199.124 248.968 199.124C248.678 199.112 248.447 198.857 248.46 198.554L249.926 172.345C249.938 172.054 250.192 171.812 250.495 171.836C250.786 171.848 251.016 172.103 251.004 172.406L249.538 198.615C249.526 198.906 249.296 199.124 249.005 199.124Z" fill="#D1CEC7"/>
<path d="M252.507 199.124C252.494 199.124 252.482 199.124 252.47 199.124C252.179 199.112 251.949 198.857 251.961 198.554L253.427 172.345C253.44 172.054 253.682 171.812 253.997 171.836C254.288 171.848 254.518 172.103 254.506 172.406L253.04 198.615C253.016 198.906 252.785 199.124 252.507 199.124Z" fill="#D1CEC7"/>
<path d="M255.996 199.124C255.984 199.124 255.972 199.124 255.96 199.124C255.669 199.112 255.439 198.857 255.451 198.554L256.917 172.345C256.929 172.054 257.184 171.812 257.487 171.836C257.778 171.848 258.008 172.103 257.996 172.406L256.529 198.615C256.517 198.906 256.275 199.124 255.996 199.124Z" fill="#D1CEC7"/>
<path d="M259.486 199.124C259.474 199.124 259.462 199.124 259.45 199.124C259.159 199.112 258.929 198.857 258.941 198.554L260.407 172.345C260.419 172.054 260.673 171.812 260.976 171.836C261.267 171.848 261.497 172.103 261.485 172.406L260.019 198.615C260.007 198.906 259.765 199.124 259.486 199.124Z" fill="#D1CEC7"/>
<path d="M300.017 199.124C300.005 199.124 299.993 199.124 299.981 199.124C299.69 199.112 299.46 198.857 299.472 198.554L300.938 172.345C300.95 172.054 301.205 171.812 301.508 171.836C301.799 171.848 302.029 172.103 302.017 172.406L300.551 198.615C300.538 198.906 300.296 199.124 300.017 199.124Z" fill="#D1CEC7"/>
<path d="M303.507 199.124C303.495 199.124 303.483 199.124 303.471 199.124C303.18 199.112 302.95 198.857 302.962 198.554L304.428 172.345C304.44 172.054 304.695 171.812 304.998 171.836C305.288 171.848 305.519 172.103 305.506 172.406L304.04 198.615C304.028 198.906 303.786 199.124 303.507 199.124Z" fill="#D1CEC7"/>
<path d="M306.997 199.124C306.985 199.124 306.973 199.124 306.96 199.124C306.67 199.112 306.439 198.857 306.452 198.554L307.918 172.345C307.93 172.054 308.184 171.812 308.487 171.836C308.778 171.848 309.008 172.103 308.996 172.406L307.53 198.615C307.518 198.906 307.288 199.124 306.997 199.124Z" fill="#D1CEC7"/>
<path d="M310.499 199.124C310.487 199.124 310.474 199.124 310.462 199.124C310.171 199.112 309.941 198.857 309.953 198.554L311.42 172.345C311.432 172.054 311.686 171.812 311.989 171.836C312.28 171.848 312.51 172.103 312.498 172.406L311.032 198.615C311.02 198.906 310.777 199.124 310.499 199.124Z" fill="#D1CEC7"/>
<path d="M313.988 199.124C313.976 199.124 313.964 199.124 313.952 199.124C313.661 199.112 313.431 198.857 313.443 198.554L314.909 172.345C314.921 172.054 315.188 171.812 315.479 171.836C315.77 171.848 316 172.103 315.988 172.406L314.521 198.615C314.509 198.906 314.267 199.124 313.988 199.124Z" fill="#D1CEC7"/>
<path d="M238.742 261.296H214.883L203.118 388.731H206.801C234.476 314.683 242.425 281.374 244.703 268.396C245.37 264.689 242.51 261.296 238.742 261.296Z" fill="#B7C9B9"/>
<path d="M203.566 383.872C203.566 383.872 229.993 315.762 223.183 269.742C222.747 266.81 214.883 261.284 214.883 261.284L203.566 383.872Z" fill="#A5BBAA"/>
<path d="M215.647 261.296H195.399L147.84 383.872L150.821 388.731C185.1 336.046 216.398 289.286 222.88 271.656C224.71 266.627 221.002 261.296 215.647 261.296Z" fill="#B7C9B9"/>
<path d="M187.596 282.561C176.012 285.396 163.822 281.374 161.447 274.116C158.745 265.888 165.628 261.296 165.628 261.296L160.55 247.664L151.705 248.73L145.816 267.16C140.739 283.058 152.602 299.307 169.287 299.307H180.641L147.828 383.871C197.047 305.547 187.596 282.561 187.596 282.561Z" fill="#A5BBAA"/>
<path d="M151.148 250.512H204.111L204.341 261.296H147.694L151.148 250.512Z" fill="#70927F"/>
<path d="M206.813 388.73V403.913L216.313 404.955H203.893L203.118 395.661L198.743 389.905L203.566 383.871L206.813 388.73Z" fill="#B1432D"/>
<path d="M216.313 404.954L214.835 410.153H205.02C203.336 410.153 201.966 408.783 201.966 407.099V396.86L196.95 390.341L203.578 383.883L203.905 404.954H216.313Z" fill="#E8DFCF"/>
<path d="M196.95 390.329V410.153L200.391 392.534L196.95 390.329Z" fill="#E8DFCF"/>
<path d="M151.063 388.73V403.913L160.575 404.955H148.155L147.379 395.661L142.993 389.905L147.828 383.871L151.063 388.73Z" fill="#B1432D"/>
<path d="M160.575 404.954L159.096 410.153H149.282C147.597 410.153 146.228 408.783 146.228 407.099V396.86L141.212 390.341L147.84 383.883L148.167 404.954H160.575Z" fill="#E8DFCF"/>
<path d="M141.2 390.329V410.153L144.653 392.534L141.2 390.329Z" fill="#E8DFCF"/>
<path d="M138.897 410.153H107.878C102.97 410.153 98.9839 406.167 98.9839 401.26V250.512H147.791V401.26C147.791 406.167 143.805 410.153 138.897 410.153Z" fill="#E8DFCF"/>
<path d="M131.93 410.153H100.911C96.0031 410.153 92.0166 406.167 92.0166 401.26V250.512H140.824V401.26C140.824 406.167 136.85 410.153 131.93 410.153Z" fill="#A5BBAA"/>
<path d="M327.947 410.153H296.928C292.02 410.153 288.034 406.167 288.034 401.26V250.512H336.841V401.26C336.841 406.167 332.867 410.153 327.947 410.153Z" fill="#E8DFCF"/>
<path d="M320.992 410.153H289.972C285.065 410.153 281.078 406.167 281.078 401.26V250.512H329.886V401.26C329.886 406.167 325.899 410.153 320.992 410.153Z" fill="#A5BBAA"/>
<path d="M77.4883 255.903H325.063C328.177 255.903 330.698 253.383 330.698 250.269V246.173C330.698 243.059 328.177 240.539 325.063 240.539H77.4883C74.3742 240.539 71.8539 243.059 71.8539 246.173V250.269C71.8539 253.383 74.3742 255.903 77.4883 255.903Z" fill="#A5BBAA"/>
<path d="M189.631 255.903H362.384C365.498 255.903 368.018 253.383 368.018 250.269V246.173C368.018 243.059 365.498 240.539 362.384 240.539H189.631C186.517 240.539 183.997 243.059 183.997 246.173V250.269C183.985 253.383 186.517 255.903 189.631 255.903Z" fill="#E8DFCF"/>
<path d="M140.836 255.903H92.0287V264.894H140.836V255.903Z" fill="#70927F"/>
<path d="M329.886 255.903H281.078V264.894H329.886V255.903Z" fill="#70927F"/>
<path d="M346.147 92.6388L333.691 82.6665H254.809C249.55 82.6665 245.297 78.4013 245.297 73.1547V60.1046C245.297 54.8458 249.562 50.5928 254.809 50.5928H336.635C341.894 50.5928 346.147 54.858 346.147 60.1046V92.6388Z" fill="white" stroke="#70927F" stroke-width="0.25" stroke-miterlimit="10"/>
<path d="M256.542 58.5171H311.783" stroke="#70927F" stroke-width="0.25" stroke-miterlimit="10"/>
<path d="M256.542 65.8604H311.783" stroke="#70927F" stroke-width="0.25" stroke-miterlimit="10"/>
<path d="M256.542 73.1909H311.783" stroke="#70927F" stroke-width="0.25" stroke-miterlimit="10"/>
<path d="M223.668 137.254L236.124 127.281H315.006C320.265 127.281 324.518 123.016 324.518 117.769V104.719C324.518 99.4606 320.253 95.2075 315.006 95.2075H233.18C227.921 95.2075 223.668 99.4727 223.668 104.719V137.254Z" fill="white" stroke="#70927F" stroke-width="0.25" stroke-miterlimit="10"/>
<path d="M313.261 103.132H258.02" stroke="#70927F" stroke-width="0.25" stroke-miterlimit="10"/>
<path d="M313.261 110.475H258.02" stroke="#70927F" stroke-width="0.25" stroke-miterlimit="10"/>
<path d="M313.261 117.806H258.02" stroke="#70927F" stroke-width="0.25" stroke-miterlimit="10"/>
<path d="M420.085 78.7651L420.4 78.6924C425.453 81.7217 428.737 81.5763 430.397 78.9954L430.445 78.9227C431.851 76.7416 431.148 74.1364 428.337 72.331C425.877 70.7558 423.151 70.5377 420 71.3253L419.079 66.321C422.993 65.2062 427.052 65.3274 431.257 68.0295C436.722 71.5313 438.467 76.9597 435.34 81.8307L435.292 81.9034C432.141 86.8229 427.161 86.7624 422.351 84.7267L419.952 87.5985L416.789 85.5749L420.085 78.7651ZM413.566 88.1316L418.788 91.488L415.335 96.868L410.113 93.5115L413.566 88.1316Z" fill="#A5BBAA"/>
<path d="M83.4257 299.671C76.3978 299.671 70.6907 305.366 70.6907 312.406V394.644C70.6907 396.486 72.1811 397.976 74.0229 397.976H92.8285C94.6703 397.976 96.1607 396.486 96.1607 394.644V312.406C96.1485 305.366 90.4535 299.671 83.4257 299.671Z" fill="#E8DFCF"/>
<path d="M94.6824 350.004H86.2974C82.8319 350.004 80.0208 347.193 80.0208 343.727C80.0208 340.262 82.8319 337.451 86.2974 337.451H94.6824C99.3474 337.451 103.14 333.658 103.14 328.993V320.208C103.14 316.743 105.951 313.932 109.417 313.932C112.882 313.932 115.693 316.743 115.693 320.208V328.993C115.693 340.577 106.278 350.004 94.6824 350.004Z" fill="#E8DFCF"/>
<path d="M81.39 366.545H72.6052C61.0213 366.545 51.5943 357.118 51.5943 345.534V337.149C51.5943 333.683 54.4054 330.872 57.8709 330.872C61.3363 330.872 64.1475 333.683 64.1475 337.149V345.534C64.1475 350.199 67.9401 353.991 72.6052 353.991H81.39C84.8555 353.991 87.6666 356.803 87.6666 360.268C87.6666 363.733 84.8555 366.545 81.39 366.545Z" fill="#E8DFCF"/>
<path d="M77.2096 313.956H76.1676V318.318H77.2096V313.956Z" fill="#F3F5F4"/>
<path d="M90.5505 307.412H89.5084V311.774H90.5505V307.412Z" fill="#F3F5F4"/>
<path d="M83.1228 332.786H82.0807V337.148H83.1228V332.786Z" fill="#F3F5F4"/>
<path d="M86.8184 319.565H85.7764V323.928H86.8184V319.565Z" fill="#F3F5F4"/>
<path d="M92.5377 356.923H91.4956V361.285H92.5377V356.923Z" fill="#F3F5F4"/>
<path d="M106.799 318.026H105.757V322.389H106.799V318.026Z" fill="#F3F5F4"/>
<path d="M77.2096 346.635H76.1676V350.997H77.2096V346.635Z" fill="#F3F5F4"/>
<path d="M78.3002 365.283H77.2581V369.645H78.3002V365.283Z" fill="#F3F5F4"/>
<path d="M88.1271 345.629H87.085V349.991H88.1271V345.629Z" fill="#F3F5F4"/>
<path d="M56.3078 346.526H55.2657V350.888H56.3078V346.526Z" fill="#F3F5F4"/>
<path d="M61.3242 338.371H60.2822V342.733H61.3242V338.371Z" fill="#F3F5F4"/>
<path d="M63.6265 350.888H62.5844V355.25H63.6265V350.888Z" fill="#F3F5F4"/>
<path d="M93.4586 328.992H92.4165V333.354H93.4586V328.992Z" fill="#F3F5F4"/>
<path d="M108.98 334.967H107.938V339.329H108.98V334.967Z" fill="#F3F5F4"/>
<path d="M104.994 373.815H62.2936C61.1425 373.815 60.2458 374.833 60.4033 375.972L64.826 409.088C65.2744 412.469 68.1703 415.001 71.5752 415.001H96.4394C99.9048 415.001 102.825 412.396 103.213 408.943L106.884 375.936C107.018 374.797 106.133 373.815 104.994 373.815Z" fill="#F3F5F4"/>
<path d="M104.909 393.772L105.648 387.06H61.8937L62.7904 393.772H104.909Z" fill="#70927F"/>
<path d="M62.7055 213.761C68.5544 213.761 73.2958 209.019 73.2958 203.17C73.2958 197.321 68.5544 192.58 62.7055 192.58C56.8567 192.58 52.1153 197.321 52.1153 203.17C52.1153 209.019 56.8567 213.761 62.7055 213.761Z" fill="#F3F5F4" stroke="#70927F" stroke-width="0.25" stroke-miterlimit="10"/>
<path d="M393.173 238.479C399.022 238.479 403.763 233.738 403.763 227.889C403.763 222.04 399.022 217.299 393.173 217.299C387.324 217.299 382.583 222.04 382.583 227.889C382.583 233.738 387.324 238.479 393.173 238.479Z" fill="#F3F5F4" stroke="#70927F" stroke-width="0.25" stroke-miterlimit="10"/>
<path d="M381.068 300.397C383.993 300.397 386.363 298.026 386.363 295.102C386.363 292.177 383.993 289.807 381.068 289.807C378.144 289.807 375.773 292.177 375.773 295.102C375.773 298.026 378.144 300.397 381.068 300.397Z" fill="#F3F5F4" stroke="#70927F" stroke-width="0.25" stroke-miterlimit="10"/>
<path d="M453.649 129.851L449.578 146.608L436.891 133.922L453.649 129.851Z" fill="#F3F5F4" stroke="#70927F" stroke-width="0.25" stroke-miterlimit="10"/>
<path d="M170.898 82.5701L156.164 91.5367V73.6035L170.898 82.5701Z" fill="#F3F5F4" stroke="#70927F" stroke-width="0.25" stroke-miterlimit="10"/>
<path d="M454.691 289.807L439.957 298.774V280.841L454.691 289.807Z" fill="#F3F5F4" stroke="#70927F" stroke-width="0.25" stroke-miterlimit="10"/>
<path d="M470.88 257.079H400.928C396.651 257.079 393.185 253.614 393.185 249.336V235.499C393.185 231.221 396.651 227.756 400.928 227.756H470.88C475.157 227.756 478.622 231.221 478.622 235.499V249.336C478.622 253.614 475.157 257.079 470.88 257.079Z" fill="white" stroke="#70927F" stroke-width="0.25" stroke-miterlimit="10"/>
<path d="M463.524 235.074H408.283" stroke="#70927F" stroke-width="0.25" stroke-miterlimit="10"/>
<path d="M463.525 242.417H408.283" stroke="#70927F" stroke-width="0.25" stroke-miterlimit="10"/>
<path d="M463.525 249.748H408.283" stroke="#70927F" stroke-width="0.25" stroke-miterlimit="10"/>
<path d="M125.532 163.051H55.5807C51.3034 163.051 47.838 159.585 47.838 155.308V141.47C47.838 137.193 51.3034 133.728 55.5807 133.728H125.532C129.81 133.728 133.275 137.193 133.275 141.47V155.308C133.275 159.585 129.81 163.051 125.532 163.051Z" fill="white" stroke="#70927F" stroke-width="0.25" stroke-miterlimit="10"/>
<path d="M118.177 141.046H62.9358" stroke="#70927F" stroke-width="0.25" stroke-miterlimit="10"/>
<path d="M118.177 148.389H62.9358" stroke="#70927F" stroke-width="0.25" stroke-miterlimit="10"/>
<path d="M118.177 155.72H62.9358" stroke="#70927F" stroke-width="0.25" stroke-miterlimit="10"/>
</svg>
