<svg width="1617" height="1614" viewBox="0 0 1617 1614" fill="none" xmlns="http://www.w3.org/2000/svg">
<path d="M9.22508 57.871C4.38379 27.5005 27.8477 0 58.6017 0H1268.91C1293.49 0 1314.42 17.8597 1318.29 42.129L1552.77 1513.13C1557.62 1543.5 1534.15 1571 1503.4 1571H293.09C268.514 1571 247.582 1553.14 243.714 1528.87L9.22508 57.871Z" fill="url(#paint0_linear_344_3146)"/>
<path d="M145.426 1362.12L329.381 1361.28L513.302 1360.98L881.213 1360.45L1249.12 1360.98L1433.04 1361.28L1617 1362.12L1433.04 1362.92L1249.12 1363.22L881.213 1363.75L513.302 1363.22L329.381 1362.92L145.426 1362.12Z" fill="#263238"/>
<path d="M600.103 321.749H498.213V1361.65H600.103V321.749Z" fill="#263238"/>
<path d="M1264.21 321.749H1162.32V1361.65H1264.21V321.749Z" fill="#455A64"/>
<path d="M1162.32 423.727H540.033V458.653H1162.32V423.727Z" fill="#37474F"/>
<path d="M1162.32 649.467H540.033V684.394H1162.32V649.467Z" fill="#37474F"/>
<path d="M1162.32 875.208H540.033V910.135H1162.32V875.208Z" fill="#37474F"/>
<path d="M1162.32 1100.95H540.033V1135.87H1162.32V1100.95Z" fill="#37474F"/>
<path d="M1162.32 1326.69H540.033V1361.62H1162.32V1326.69Z" fill="#37474F"/>
<path d="M804.897 460.391H612.064V649.436H804.897V460.391Z" fill="#EBEBEB"/>
<path d="M904.509 460.391H804.936V649.469H904.509V460.391Z" fill="#DBDBDB"/>
<path d="M724.866 504.291H720.796H717.709L715.954 500.922L713.498 504.291L710.165 497.319L707.007 504.291H697.99H693.885L692.377 499.654L690.973 504.291H688.307V460.391H724.866V504.291Z" fill="#DBDBDB"/>
<path d="M897.631 637.392C890.263 624.048 882.953 610.56 875.702 596.927L854.124 556.262L832.792 515.431C825.775 501.776 818.757 488.099 811.74 474.399C819.108 487.743 826.418 501.231 833.669 514.864L855.282 555.529L876.614 596.36C883.701 609.993 890.707 623.67 897.631 637.392Z" fill="#EBEBEB"/>
<path d="M897.631 474.399C890.613 488.121 883.596 501.798 876.579 515.431L855.247 556.262L833.634 596.96C826.406 610.482 819.097 623.959 811.705 637.392C818.722 623.67 825.739 609.993 832.757 596.36L854.089 555.529L875.667 514.864C882.965 501.32 890.286 487.832 897.631 474.399Z" fill="#EBEBEB"/>
<path d="M792.197 617.376H770.795V637.725H792.197V617.376Z" fill="white"/>
<path d="M926.365 757.617H733.533V875.208H926.365V757.617Z" fill="#DBDBDB"/>
<path d="M1025.94 757.617H926.367V875.208H1025.94V757.617Z" fill="#C7C7C7"/>
<path d="M846.3 801.484H842.23H839.142L837.388 798.115L834.932 801.484L831.634 794.546L828.476 801.484H819.424H815.319L813.81 796.847L812.442 801.484H809.74V757.617H846.3V801.484Z" fill="white"/>
<path d="M1019.1 868.204C1011.68 859.664 1004.37 851.102 997.167 842.517L975.554 816.664L954.221 790.711C947.204 782.037 940.187 773.342 933.17 764.624C940.585 773.164 947.894 781.726 955.099 790.31L976.712 816.164L998.044 842.117C1005.15 850.79 1012.17 859.486 1019.1 868.204Z" fill="#DBDBDB"/>
<path d="M1019.1 764.624C1012.08 773.342 1005.06 782.037 998.044 790.711L976.712 816.664L955.099 842.517C947.871 851.102 940.561 859.664 933.17 868.204C940.187 859.486 947.204 850.79 954.221 842.117L975.554 816.164L997.167 790.344C1004.39 781.737 1011.7 773.164 1019.1 764.624Z" fill="#DBDBDB"/>
<path d="M1613.1 1558.33C1612.23 1550.49 1517.46 1356.38 1508.93 1351.17C1505.7 1349.14 1475.15 1360.61 1438.76 1375.49L1437.6 1375.96C1430.09 1378.99 1291.19 1414.49 1291.19 1414.49L1352.66 1541.65L1497.18 1501.99L1499.39 1500.95C1499.39 1500.95 1570.61 1559.83 1580.65 1564.6C1590.68 1569.37 1614.05 1566.3 1613.1 1558.33Z" fill="#FFA698"/>
<path d="M1411.01 1383.47L1474.16 1508.19L1496.9 1501.96L1499.14 1500.96C1499.14 1500.96 1570.37 1559.83 1580.37 1564.6C1590.37 1569.38 1613.84 1566.31 1612.86 1558.47C1611.87 1550.63 1517.21 1356.48 1508.69 1351.31C1505.46 1349.27 1474.9 1360.71 1438.52 1375.63L1437.43 1376.09C1435.57 1376.86 1425.39 1379.66 1411.01 1383.47Z" fill="#EBEBEB"/>
<path d="M1613.91 1559.43C1613.03 1551.53 1518.06 1355.18 1509.46 1349.87C1506.23 1347.84 1475.32 1359.31 1438.45 1374.19L1499.28 1500.96C1499.28 1500.96 1571 1560.67 1581.07 1565.54C1591.14 1570.41 1614.82 1567.34 1613.91 1559.43Z" fill="#A107FF"/>
<path d="M1604.3 1560.23C1587.53 1527.71 1523.28 1394.87 1509.25 1361.51C1509.25 1361.25 1509.25 1361.18 1509.5 1361.51C1526.83 1393.41 1590.19 1526.64 1604.96 1560.03C1605.17 1560.7 1604.65 1560.94 1604.3 1560.23Z" fill="#263238"/>
<path d="M1567.52 1556.17C1565.66 1552.55 1564.6 1548.61 1564.42 1544.6C1564.24 1540.58 1564.94 1536.56 1566.47 1532.81C1569.15 1526.02 1574.49 1520.49 1581.38 1517.37C1581.59 1517.37 1581.77 1517.64 1581.59 1517.77C1575.28 1521.88 1570.54 1527.83 1568.08 1534.73C1565.63 1541.62 1565.59 1549.08 1567.98 1556C1568.08 1556.23 1567.66 1556.43 1567.52 1556.17Z" fill="#263238"/>
<path d="M1508.9 1512.23C1502.34 1499.12 1499.81 1481.71 1507.21 1468.56C1507.49 1468.06 1508.23 1468.56 1508.23 1468.93C1507.45 1483.23 1508.27 1497.56 1510.69 1511.7C1510.72 1511.91 1510.68 1512.13 1510.56 1512.31C1510.44 1512.5 1510.25 1512.64 1510.03 1512.7C1509.82 1512.77 1509.58 1512.75 1509.37 1512.67C1509.16 1512.58 1508.99 1512.43 1508.9 1512.23Z" fill="#263238"/>
<path d="M1517.98 1520.57C1511.42 1507.46 1508.9 1490.08 1516.3 1476.94C1516.58 1476.4 1517.32 1476.94 1517.32 1477.31C1516.54 1491.59 1517.36 1505.92 1519.77 1520.04C1519.81 1520.25 1519.76 1520.47 1519.64 1520.66C1519.53 1520.84 1519.34 1520.98 1519.12 1521.04C1518.9 1521.11 1518.67 1521.1 1518.46 1521.01C1518.25 1520.92 1518.08 1520.77 1517.98 1520.57Z" fill="#263238"/>
<path d="M1527.07 1528.91C1520.51 1515.83 1517.98 1498.42 1525.39 1485.28C1525.67 1484.78 1526.41 1485.28 1526.41 1485.64C1525.63 1499.94 1526.45 1514.28 1528.86 1528.41C1528.89 1528.62 1528.83 1528.83 1528.71 1529.01C1528.59 1529.18 1528.4 1529.31 1528.19 1529.37C1527.97 1529.43 1527.75 1529.42 1527.54 1529.33C1527.34 1529.25 1527.17 1529.1 1527.07 1528.91Z" fill="#263238"/>
<path d="M1536.16 1537.25C1529.6 1524.17 1527.11 1506.76 1534.48 1493.62C1534.76 1493.11 1535.49 1493.62 1535.49 1493.98C1534.72 1508.28 1535.54 1522.62 1537.95 1536.75C1537.97 1536.96 1537.92 1537.17 1537.8 1537.35C1537.67 1537.52 1537.49 1537.65 1537.28 1537.71C1537.06 1537.77 1536.83 1537.76 1536.63 1537.67C1536.43 1537.59 1536.26 1537.44 1536.16 1537.25Z" fill="#263238"/>
<path d="M1480.34 1384.33C1473.32 1369.52 1497.42 1359.02 1504.51 1373.83C1511.6 1388.64 1487.46 1399.15 1480.34 1384.33Z" fill="#263238"/>
<path d="M1498.72 1532.68C1504.93 1521.37 1505.74 1507.86 1508.06 1495.52C1508.09 1495.24 1508.05 1494.96 1507.94 1494.7C1507.83 1494.44 1507.66 1494.21 1507.44 1494.03C1507.22 1493.85 1506.96 1493.72 1506.68 1493.65C1506.39 1493.58 1506.1 1493.58 1505.81 1493.65C1505.81 1493.42 1505.5 1493.25 1505.21 1493.38C1492.97 1499.92 1482.75 1509.4 1475.57 1520.87C1471.53 1527.54 1469.88 1538.48 1479.08 1542.62C1488.27 1546.76 1494.97 1539.32 1498.72 1532.68ZM1487.43 1538.32C1471.71 1543.59 1476.9 1525.61 1480.41 1520.74C1482.52 1517.61 1484.87 1514.64 1487.43 1511.83C1492.78 1506.1 1498.44 1500.63 1504.37 1495.45C1502.83 1501.46 1501.88 1507.53 1500.62 1513.6C1498.9 1520.8 1496.09 1535.42 1487.43 1538.32Z" fill="#263238"/>
<path d="M1473.6 1450.48C1465.08 1455.45 1467.85 1466.13 1472.62 1472.47C1481.01 1483.17 1492.2 1491.59 1505.08 1496.88C1505.13 1496.91 1505.19 1496.91 1505.26 1496.91C1505.32 1496.9 1505.38 1496.89 1505.43 1496.86C1505.48 1496.83 1505.53 1496.79 1505.57 1496.74C1505.6 1496.7 1505.63 1496.64 1505.64 1496.58C1506.76 1496.58 1508.06 1495.75 1507.67 1494.48C1504.16 1482.41 1501.78 1469.1 1494.37 1458.42C1490.06 1452.18 1481.71 1445.75 1473.6 1450.48ZM1498.16 1477.17C1500.09 1483.07 1501.67 1489.05 1503.85 1494.85C1497.53 1490.08 1491.04 1485.58 1485.22 1480.21C1482.39 1477.64 1479.75 1474.91 1477.29 1472.03C1473.6 1467.5 1466.34 1450.12 1482.55 1453.85C1491.71 1455.95 1495.95 1470.23 1498.27 1477.24L1498.16 1477.17Z" fill="#263238"/>
<path d="M1108.81 1000.17C1108.81 1000.17 1111.37 1076.26 1123.37 1113.76C1123.37 1113.76 1136.46 1120.43 1140.39 1122.63C1140.39 1122.63 1040.95 1349.01 1046.6 1436.21C1048.46 1464.76 1082.5 1511.7 1116.77 1532.01C1177.54 1567.98 1474.27 1536.42 1474.27 1536.42L1431.21 1366.82C1431.21 1366.82 1243.61 1376.83 1238.87 1367.09C1232.87 1354.84 1270.21 1259.64 1300.06 1182.28C1303.05 1174.47 1333.08 1145.58 1329.57 1093.48C1326.9 1061.2 1318.16 1029.64 1303.75 1000.31L1108.81 1000.17Z" fill="#37474F"/>
<path d="M1396.97 1385.53C1356.03 1384.8 1322.7 1388.1 1281.75 1388.14H1235.58C1232.04 1388.21 1228.51 1387.9 1225.05 1387.2C1221.79 1386.69 1218.85 1385.04 1216.81 1382.57C1214.11 1378.7 1215.54 1373.79 1216.49 1369.62C1218.55 1360.48 1220.89 1351.39 1223.51 1342.33C1233.82 1305.64 1247.3 1269.68 1259.96 1233.62L1279.19 1178.04C1280.77 1173.54 1282.35 1169 1284.35 1164.7C1286.26 1160.69 1288.41 1156.79 1290.8 1153.02C1295.44 1145.81 1299.16 1138.11 1301.89 1130.07C1312.98 1095.48 1302.35 1059.68 1289.4 1027.03C1287.65 1022.66 1285.89 1018.29 1283.96 1013.95C1283.96 1013.65 1283.33 1013.78 1283.47 1014.12C1295.26 1048.58 1309.33 1084.44 1301.4 1121.2C1299.57 1129.85 1296.39 1138.19 1291.96 1145.95C1289.68 1149.89 1287.19 1153.72 1284.94 1157.69C1282.74 1161.74 1280.83 1165.93 1279.23 1170.24C1272.21 1188.48 1266.17 1206.93 1259.68 1225.48C1246.74 1262.17 1233.12 1298.6 1222.35 1335.86C1219.69 1345.14 1217.19 1354.48 1214.98 1363.85C1213.37 1370.79 1209.72 1380.2 1216.07 1385.94C1220.74 1390.14 1228.04 1390.64 1234.11 1390.71C1244.32 1390.71 1254.49 1390.71 1264.7 1390.71C1306.21 1390.71 1391.92 1387.37 1397.08 1387.2C1397.31 1387.19 1397.53 1387.09 1397.68 1386.92C1397.84 1386.76 1397.92 1386.54 1397.9 1386.32C1397.89 1386.1 1397.78 1385.89 1397.61 1385.74C1397.44 1385.6 1397.21 1385.52 1396.97 1385.53Z" fill="#263238"/>
<path d="M1442.83 1528.31C1438.83 1508.49 1434.97 1488.58 1430.38 1468.9C1425.78 1449.21 1420.76 1429.47 1415.39 1409.88C1413.85 1404.35 1412.31 1398.84 1410.73 1393.2C1409.99 1390.57 1409.25 1387.97 1408.45 1385.33C1407.77 1382.65 1406.91 1380.01 1405.89 1377.43C1405.89 1377.16 1405.36 1377.43 1405.39 1377.59C1405.96 1382.72 1406.91 1387.8 1408.24 1392.8C1409.25 1397.57 1410.2 1402.38 1411.25 1407.15C1413.41 1416.98 1415.59 1426.8 1417.81 1436.6C1422.34 1456.25 1427.46 1475.73 1432.73 1495.22C1435.74 1506.26 1438.73 1517.33 1441.78 1528.38C1441.95 1529.21 1442.97 1529.08 1442.83 1528.31Z" fill="#263238"/>
<path d="M1080.67 1277.49L1291.19 1204.96C1294.14 1197.26 1297.08 1189.62 1299.96 1182.15C1302.84 1174.67 1332.98 1145.45 1329.5 1093.31C1326.86 1061.04 1318.11 1029.49 1303.68 1000.17H1108.81C1108.81 1000.17 1111.34 1076.26 1123.37 1113.59C1123.37 1113.59 1136.46 1120.26 1140.39 1122.5C1140.39 1122.63 1107.55 1197.36 1080.67 1277.49Z" fill="#263238"/>
<path d="M760.481 1567.58C768.411 1569.84 993.382 1562.77 1001.77 1557.33C1005 1555.33 1005.8 1523.98 1005.66 1486.35V1485.15C1005.66 1477.37 987.031 1346.91 987.031 1346.91L829.565 1351.51L860.476 1488.28V1490.62C860.476 1490.62 775.954 1529.85 767.218 1536.75C758.481 1543.66 752.517 1565.34 760.481 1567.58Z" fill="#FFA698"/>
<path d="M760.477 1567.61C768.406 1569.88 993.377 1562.77 1001.76 1557.33C1004.99 1555.3 1005.83 1523.97 1005.66 1486.35V1485.14C1005.66 1483.01 1004.25 1471.8 1002.15 1456.42L854.437 1461.89L860.331 1488.18V1490.52C860.331 1490.52 775.459 1529.85 766.898 1536.75C758.337 1543.66 752.512 1565.34 760.477 1567.61Z" fill="#EBEBEB"/>
<path d="M758.759 1568.51C766.794 1570.77 993.835 1563.6 1002.43 1558.13C1005.66 1556.06 1006.5 1524.54 1006.36 1486.44L859.877 1490.68C859.877 1490.68 774.197 1530.41 765.566 1537.38C756.935 1544.35 750.724 1566.24 758.759 1568.51Z" fill="#A107FF"/>
<path d="M761.707 1559.77C799.775 1557.67 953.417 1552.66 991.204 1553.33C991.52 1553.33 991.52 1553.53 991.204 1553.56C953.557 1556.4 799.846 1560.23 761.742 1560.23C760.935 1560.37 760.9 1559.83 761.707 1559.77Z" fill="#263238"/>
<path d="M779.918 1529.14C784.146 1528.9 788.383 1529.49 792.357 1530.89C796.331 1532.28 799.957 1534.45 803.004 1537.25C808.529 1542.24 811.821 1549.06 812.197 1556.3C812.197 1556.53 811.775 1556.53 811.74 1556.3C810.186 1549.17 806.244 1542.72 800.506 1537.91C794.768 1533.1 787.544 1530.19 779.918 1529.61C779.852 1529.61 779.79 1529.58 779.744 1529.54C779.698 1529.5 779.672 1529.44 779.672 1529.38C779.672 1529.31 779.698 1529.25 779.744 1529.21C779.79 1529.17 779.852 1529.14 779.918 1529.14Z" fill="#263238"/>
<path d="M845.213 1494.72C860.475 1494.05 878.299 1498.62 888.193 1510.16C888.579 1510.6 887.912 1511.13 887.456 1510.9C873.889 1504.7 859.671 1499.88 845.037 1496.52C844.913 1496.51 844.792 1496.48 844.682 1496.42C844.571 1496.37 844.473 1496.29 844.393 1496.2C844.313 1496.11 844.253 1496 844.216 1495.89C844.179 1495.77 844.166 1495.66 844.178 1495.54C844.189 1495.42 844.225 1495.3 844.284 1495.2C844.342 1495.09 844.421 1495 844.517 1494.92C844.613 1494.85 844.724 1494.79 844.844 1494.76C844.963 1494.72 845.089 1494.71 845.213 1494.72Z" fill="#263238"/>
<path d="M833.598 1499.46C848.86 1498.79 866.684 1503.33 876.578 1514.9C876.964 1515.34 876.297 1515.84 875.841 1515.64C862.28 1509.42 848.06 1504.6 833.422 1501.26C833.171 1501.24 832.939 1501.12 832.778 1500.93C832.617 1500.75 832.539 1500.51 832.563 1500.27C832.586 1500.03 832.708 1499.81 832.902 1499.66C833.096 1499.51 833.346 1499.43 833.598 1499.46Z" fill="#263238"/>
<path d="M821.984 1504.19C837.247 1503.53 855.07 1508.06 864.965 1519.64C865.351 1520.07 864.684 1520.57 864.228 1520.37C850.667 1514.16 836.447 1509.34 821.809 1505.99C821.558 1505.97 821.326 1505.86 821.165 1505.67C821.004 1505.49 820.926 1505.25 820.949 1505.01C820.973 1504.77 821.095 1504.55 821.289 1504.4C821.483 1504.24 821.733 1504.17 821.984 1504.19Z" fill="#263238"/>
<path d="M810.373 1508.93C825.635 1508.26 843.459 1512.8 853.353 1524.38C853.739 1524.81 853.073 1525.31 852.617 1525.11C839.056 1518.89 824.835 1514.07 810.198 1510.73C810.073 1510.72 809.952 1510.69 809.842 1510.63C809.731 1510.58 809.633 1510.5 809.553 1510.41C809.474 1510.32 809.414 1510.21 809.377 1510.1C809.34 1509.98 809.327 1509.87 809.338 1509.75C809.35 1509.63 809.385 1509.51 809.444 1509.41C809.502 1509.3 809.581 1509.21 809.678 1509.13C809.774 1509.06 809.885 1509 810.004 1508.97C810.123 1508.93 810.249 1508.92 810.373 1508.93Z" fill="#263238"/>
<path d="M980.296 1519.24C997.418 1518.74 998.26 1544.02 981.103 1544.52C963.946 1545.02 963.174 1519.74 980.296 1519.24Z" fill="#263238"/>
<path d="M829.351 1477.77C837.947 1487.61 850.683 1493.58 861.805 1500.35C862.063 1500.49 862.349 1500.56 862.641 1500.56C862.932 1500.57 863.221 1500.51 863.484 1500.39C863.747 1500.27 863.977 1500.09 864.155 1499.87C864.332 1499.65 864.453 1499.39 864.507 1499.12C864.752 1499.12 864.998 1499.12 864.963 1498.69C863.39 1485.4 858.162 1472.74 849.806 1461.99C844.823 1455.82 834.894 1450.18 827.386 1456.52C819.877 1462.86 824.368 1472.03 829.351 1477.77ZM828.228 1465.79C829.21 1449.98 844.578 1461.63 848.051 1466.3C850.249 1469.37 852.23 1472.58 853.981 1475.9C857.7 1482.57 860.331 1489.98 863.314 1497.12C858.086 1493.45 852.542 1490.25 847.174 1486.78C840.789 1482.67 827.701 1474.54 828.228 1465.79Z" fill="#263238"/>
<path d="M918.753 1487.71C917.245 1478.31 905.807 1476.6 897.702 1478.34C884.082 1481.54 871.584 1488.09 861.458 1497.32C861.407 1497.35 861.366 1497.4 861.337 1497.45C861.309 1497.5 861.294 1497.56 861.294 1497.62C861.294 1497.68 861.309 1497.74 861.337 1497.79C861.366 1497.84 861.407 1497.89 861.458 1497.92C861.306 1498.16 861.218 1498.44 861.201 1498.72C861.183 1499 861.236 1499.28 861.357 1499.54C861.477 1499.8 861.66 1500.02 861.891 1500.2C862.123 1500.38 862.395 1500.5 862.686 1500.56C875.773 1502.06 889.597 1505.23 902.789 1502.86C910.719 1501.62 920.192 1496.62 918.753 1487.71ZM883.246 1498.95C876.791 1498.39 870.405 1497.49 863.914 1497.12C870.863 1493.22 878.018 1489.67 885.351 1486.48C888.91 1484.96 892.581 1483.69 896.333 1482.68C902.158 1481.17 921.806 1481.54 911.947 1494.32C906.473 1501.36 890.965 1499.69 883.246 1498.95Z" fill="#263238"/>
<path d="M847.631 1477.74H1023.8C1023.8 1477.74 992.431 1249.73 1002.75 1234.85C1007.34 1228.18 1236.03 1250.1 1302.94 1181.21C1364.1 1118.2 1301.85 1000.17 1301.85 1000.17H1114.14C1114.14 1000.17 1110.32 1050.78 1100.11 1070.99C1095.79 1079.67 886.085 1067.29 853.245 1124.37C809.598 1200.39 847.631 1477.74 847.631 1477.74Z" fill="#37474F"/>
<path d="M1005.24 1445.88C985.346 1445.31 965.417 1444.58 945.594 1444.61C925.77 1444.65 905.701 1445.01 885.737 1445.75C880.123 1445.98 863.492 1446.71 860.826 1446.91C858.1 1446.97 855.381 1447.19 852.686 1447.58C852.37 1447.58 852.44 1448.05 852.686 1448.08C857.002 1448.78 902.087 1449.28 911.981 1449.28C931.805 1449.28 951.593 1448.78 971.417 1448.12C982.691 1447.76 993.954 1447.36 1005.2 1446.91C1005.8 1446.88 1005.87 1445.91 1005.24 1445.88Z" fill="#263238"/>
<path d="M1121.9 1054.81C1122.71 1049.44 1123.45 1044.07 1124.11 1038.73C1125.62 1026.49 1126.95 1014.15 1127.34 1001.84C1127.34 1000.87 1125.94 1000.97 1125.83 1001.84C1124.6 1011.35 1123.69 1020.89 1122.57 1030.39C1121.45 1039.9 1120.57 1049.41 1118.71 1058.75C1118.15 1061.55 1116.88 1066.25 1113.13 1066.32C1108.04 1066.32 1107.06 1059.85 1106.64 1056.31C1105.69 1047.45 1105.51 1038.52 1106.11 1029.63C1106.67 1019.62 1108.01 1009.41 1109.2 999.37C1109.2 999.003 1108.6 998.936 1108.53 999.37C1104.15 1018.95 1099.94 1039.4 1103.59 1059.42C1103.71 1061.43 1104.41 1063.37 1105.61 1065.03C1106.81 1066.7 1108.47 1068.02 1110.39 1068.86H1110.6C1110.6 1068.97 1110.6 1069.08 1110.6 1069.19C1110.6 1069.76 1110.6 1070.32 1110.6 1070.89C1110.57 1071.37 1110.57 1071.85 1110.6 1072.33C1110.6 1073.33 1110.6 1074.29 1110.6 1075.3C1110.6 1075.49 1110.69 1075.68 1110.83 1075.81C1110.98 1075.95 1111.17 1076.03 1111.38 1076.03C1111.58 1076.03 1111.78 1075.95 1111.92 1075.81C1112.07 1075.68 1112.15 1075.49 1112.15 1075.3C1112.28 1075.28 1112.4 1075.22 1112.5 1075.13C1112.59 1075.04 1112.65 1074.92 1112.67 1074.79C1113.06 1072.88 1113.06 1070.91 1112.67 1068.99C1113.93 1068.99 1115.16 1068.68 1116.25 1068.1C1117.35 1067.51 1118.27 1066.67 1118.92 1065.65C1120.76 1062.3 1121.78 1058.59 1121.9 1054.81Z" fill="#263238"/>
<path d="M1103.24 1069.29C1117.64 1078.69 1131.15 1089.26 1143.62 1100.88C1143.73 1100.97 1143.8 1101.09 1143.82 1101.22C1143.84 1101.36 1143.8 1101.49 1143.71 1101.6C1143.62 1101.71 1143.49 1101.77 1143.35 1101.79C1143.21 1101.81 1143.07 1101.77 1142.95 1101.68C1129.2 1091.68 1114.89 1081.67 1101.94 1070.86C1101.74 1070.69 1101.62 1070.45 1101.6 1070.2C1101.58 1069.95 1101.66 1069.7 1101.83 1069.5C1101.99 1069.31 1102.23 1069.17 1102.49 1069.14C1102.75 1069.1 1103.02 1069.15 1103.24 1069.29Z" fill="#263238"/>
<path d="M1257.54 1079C1253.48 1079.01 1249.42 1078.72 1245.4 1078.13C1241.85 1077.46 1238.33 1076.6 1234.88 1075.56C1228.39 1073.76 1220.46 1071.59 1215.72 1066.69C1211.12 1061.34 1207.45 1055.32 1204.84 1048.87C1201.57 1042.14 1199.41 1034.96 1198.46 1027.59C1198.46 1027.29 1197.86 1027.29 1197.9 1027.59C1198.4 1035.21 1199.74 1042.76 1201.9 1050.11C1203.07 1053.76 1204.55 1057.32 1206.32 1060.75C1207.9 1064.21 1210.02 1067.42 1212.6 1070.29C1217.86 1075.66 1226.42 1078.3 1233.65 1079.7C1241.55 1081.07 1249.64 1081.07 1257.54 1079.7C1258.21 1079.77 1258.03 1079.03 1257.54 1079Z" fill="#263238"/>
<path d="M983.872 1224.04C984.287 1222.06 985.34 1220.24 986.886 1218.85C988.432 1217.46 990.395 1216.56 992.503 1216.27C997.559 1215.74 1002.66 1215.64 1007.73 1215.97C1019.45 1215.97 1031.2 1216.2 1042.82 1216.24C1089.06 1216.24 1135.69 1215.1 1181.16 1206.43C1203.42 1202.47 1225.19 1196.31 1246.1 1188.05C1263.65 1180.78 1281.37 1170.84 1292.38 1155.39C1305.05 1137.64 1306.03 1114.39 1305.58 1093.61C1305.12 1071.17 1301.32 1048.91 1294.28 1027.49C1292.45 1022.05 1290.45 1016.68 1288.17 1011.41C1288.17 1011.08 1288.56 1010.78 1288.7 1011.11C1297.94 1031.34 1304.06 1052.74 1306.87 1074.63C1308.25 1085.44 1308.76 1096.33 1308.42 1107.22C1308.41 1117.9 1306.96 1128.54 1304.1 1138.88C1292.1 1177.77 1246.28 1193.82 1209.37 1203.69C1164.74 1215.6 1118.15 1218.91 1072.08 1219.54C1048.92 1219.87 1025.69 1219.54 1002.5 1219.24C998.082 1219.24 990.784 1218 988.153 1222.41C986.988 1224.96 986.289 1227.68 986.083 1230.45C985.591 1233.55 985.205 1236.65 984.96 1239.79C984.316 1251.52 984.48 1263.27 985.451 1274.98C986.925 1298.76 988.656 1322.54 990.644 1346.34C992.644 1370.22 995.45 1394.07 997.275 1417.99C997.731 1423.86 998.328 1429.7 998.924 1435.54C998.924 1436.21 997.766 1436.34 997.661 1435.54C991.24 1388.27 986.644 1340.83 983.381 1293.3C982.574 1281.55 981.662 1269.78 981.311 1258.04C980.554 1246.65 981.415 1235.21 983.872 1224.04Z" fill="#263238"/>
<path d="M1096.67 1232.78C1112.32 1232.58 1127.94 1231.47 1143.44 1229.45C1158.07 1227.71 1172.63 1225.81 1187.16 1223.48C1212.42 1219.37 1238.24 1214.87 1262.07 1205.73C1275.15 1200.93 1287.34 1194.18 1298.17 1185.71C1298.45 1185.48 1298.87 1185.88 1298.59 1186.11C1280.56 1202.79 1257.68 1212.57 1233.61 1218.77C1205.99 1225.62 1177.83 1230.32 1149.41 1232.82C1131.83 1234.27 1114.17 1234.76 1096.53 1234.28C1096.4 1234.2 1096.29 1234.08 1096.23 1233.94C1096.16 1233.8 1096.13 1233.65 1096.14 1233.49C1096.16 1233.34 1096.21 1233.2 1096.31 1233.07C1096.4 1232.95 1096.53 1232.85 1096.67 1232.78Z" fill="#263238"/>
<path d="M1151.37 798.818C1151.9 853.627 1136.25 936.791 1114.67 977.089C1099.23 1005.88 1007.34 1062.52 958.539 1075.26C941.277 1079.8 932.681 1011.58 940.997 994.869C946.049 984.861 1037.87 936.391 1047.27 923.047C1061.55 902.731 1090.5 845.087 1111.9 795.816C1123.3 769.829 1150.95 764.759 1151.37 798.818Z" fill="#FFA698"/>
<path d="M971.205 979.319C971.205 979.319 944.153 976.217 931.978 977.351C919.804 978.485 875.841 998.601 879.981 1007.84C885.209 1019.78 912.892 1012.91 926.014 1007.84C926.014 1007.84 938.013 1035.46 959.03 1034.53C980.046 1033.59 971.205 979.319 971.205 979.319Z" fill="#FFA698"/>
<path d="M974.467 1069.49C964.924 1073.56 919.523 1088.47 905.909 1089.94C892.296 1091.41 852.789 1092.94 850.544 1083.27C848.298 1073.59 859.806 1072.16 859.806 1072.16C859.806 1072.16 843.035 1070.29 841.737 1060.22C840.439 1050.14 858.403 1048.64 858.403 1048.64C858.403 1048.64 841.316 1045.54 840.86 1035.3C840.404 1025.06 858.684 1026.52 858.684 1026.52C858.684 1026.52 842.93 1024.39 846.158 1015.85C850.052 1005.61 878.648 1012.71 893.559 1010.01C897.068 1009.38 961.24 992.965 961.24 992.965L974.467 1069.49Z" fill="#FFA698"/>
<path d="M857.001 1026.46C878.053 1031.63 888.193 1030.43 908.578 1024.19C908.999 1024.19 909.279 1024.62 908.858 1024.79C889.491 1032.6 877 1035.83 856.686 1027.39C855.703 1026.99 856.019 1026.19 857.001 1026.46Z" fill="#263238"/>
<path d="M856.65 1047.94C879 1051.51 890.017 1050.31 911.875 1045.27C912.191 1045.27 912.331 1045.71 911.875 1045.81C890.824 1052.48 878.333 1055.38 856.51 1049.14C855.738 1048.91 855.738 1047.94 856.65 1047.94Z" fill="#263238"/>
<path d="M860.929 1071.73C882.823 1073.69 894.963 1072.86 915.523 1065.39C916.014 1065.22 916.33 1065.89 915.874 1066.09C895.664 1075.63 880.542 1076.8 860.929 1072.36C859.596 1072.06 859.561 1071.59 860.929 1071.73Z" fill="#263238"/>
<path d="M882.544 1010.68C895.561 1018.32 912.297 1010.68 925.419 1006.61C925.61 1006.54 925.814 1006.52 926.014 1006.55C926.214 1006.58 926.405 1006.65 926.57 1006.76C926.735 1006.87 926.87 1007.02 926.962 1007.19C927.055 1007.36 927.103 1007.55 927.103 1007.74C932.962 1018.98 944.646 1033.26 958.435 1035.23C958.518 1035.23 958.599 1035.26 958.658 1035.32C958.717 1035.37 958.75 1035.45 958.75 1035.53C958.75 1035.61 958.717 1035.69 958.658 1035.74C958.599 1035.8 958.518 1035.83 958.435 1035.83C943.348 1035.63 930.647 1022.49 925.068 1009.78C911.7 1014.08 894.543 1021.09 882.509 1010.78C882.403 1010.74 882.474 1010.64 882.544 1010.68Z" fill="#263238"/>
<path d="M1073.48 857.095L1146.67 903.063C1146.67 903.063 1156.39 811.793 1151.27 784.205C1145.51 753.148 1130.22 762.722 1111.76 787.141C1093.31 811.56 1073.48 857.095 1073.48 857.095Z" fill="#A107FF"/>
<path opacity="0.1" d="M1073.48 857.095L1146.67 903.063C1146.67 903.063 1156.39 811.793 1151.27 784.205C1145.51 753.148 1130.22 762.722 1111.76 787.141C1093.31 811.56 1073.48 857.095 1073.48 857.095Z" fill="black"/>
<path d="M1084.71 846.15C1094.89 850.787 1123.3 868.801 1127.97 871.736C1130.46 873.304 1140.11 879.876 1142.6 881.41C1142.92 881.611 1142.6 882.044 1142.25 881.844C1137.48 878.942 1132.39 876.473 1127.59 873.604C1122.78 870.736 1093.2 853.389 1084.5 846.484C1084.36 846.35 1084.71 846.017 1084.71 846.15Z" fill="#263238"/>
<path d="M1331.05 1026.89C1331.05 1026.89 1094.92 1058.05 1094.92 1058.08C1095.59 1062.49 1082.43 880.479 1128.25 766.358C1131.37 758.585 1167.34 745.909 1185.79 758.085C1266.67 811.459 1331.47 1029.76 1331.05 1026.89Z" fill="#A107FF"/>
<path opacity="0.1" d="M1191.37 762.054L1126.39 771.061C1126.5 770.706 1126.64 770.36 1126.81 770.027L1190.25 761.12C1190.64 761.412 1191.02 761.724 1191.37 762.054ZM1209.27 778.4L1119.59 791.076C1119.45 791.4 1119.34 791.735 1119.27 792.077L1210.07 779.401L1209.27 778.4ZM1224.21 796.147L1113.76 811.626C1113.76 811.959 1113.76 812.293 1113.52 812.626L1225.05 797.048L1224.21 796.147ZM1237.02 814.194L1109.03 832.108L1108.81 833.142L1237.58 815.095L1237.02 814.194ZM1248.39 832.442L1105.17 852.457C1105.17 852.791 1105.17 853.124 1104.99 853.458L1248.84 833.442L1248.39 832.442ZM1258.91 850.822L1102.15 872.773C1102.15 873.106 1102.15 873.44 1102.15 873.773L1259.54 851.757C1259.12 851.456 1258.95 851.123 1258.77 850.822H1258.91ZM1268.53 869.303L1099.62 892.955V893.956L1269.09 870.237L1268.53 869.303ZM1277.51 887.884L1097.62 913.07V914.071L1277.68 888.818C1277.56 888.492 1277.45 888.157 1277.37 887.818L1277.51 887.884ZM1285.96 906.532L1096.08 933.219C1096.08 933.553 1096.08 933.886 1096.08 934.22L1286.42 907.533C1286.1 907.166 1285.96 906.866 1285.82 906.532H1285.96ZM1294 925.246L1094.96 953.101C1094.96 953.435 1094.96 953.735 1094.96 954.069L1294.45 926.147C1294.1 925.847 1293.96 925.547 1293.86 925.246H1294ZM1301.61 944.028L1094.22 973.05C1094.2 973.372 1094.2 973.695 1094.22 974.017L1301.96 944.928L1301.61 944.028ZM1308.87 962.842L1093.87 992.865C1093.83 993.187 1093.83 993.511 1093.87 993.833L1309.23 963.809C1308.95 963.442 1308.84 963.142 1308.73 962.842H1308.87ZM1315.89 981.69L1093.9 1012.78V1013.71L1316.21 982.624L1315.89 981.69ZM1322.52 1000.57L1094.22 1032.53C1094.22 1032.86 1094.22 1033.2 1094.22 1033.53L1322.8 1001.54L1322.52 1000.57ZM1328.84 1019.55L1094.92 1052.28C1094.92 1052.61 1094.92 1052.94 1094.92 1053.24L1329.08 1020.49C1328.84 1020.19 1328.73 1019.85 1328.63 1019.55H1328.84Z" fill="black"/>
<path opacity="0.1" d="M1149.3 837.445L1186.46 832.441C1186.46 832.441 1193.48 868.703 1193.48 869.703C1193.48 870.704 1175.62 884.481 1174 883.914C1172.39 883.347 1154.81 878.71 1154.25 877.676C1153.69 876.642 1149.3 837.445 1149.3 837.445Z" fill="black"/>
<path d="M1094.71 900.158H864.791V1142.21H1094.71V900.158Z" fill="#A107FF"/>
<path opacity="0.1" d="M1094.71 900.158H864.791V1142.21H1094.71V900.158Z" fill="black"/>
<path d="M746.095 1142.21H864.791V900.161H746.095V1142.21Z" fill="#A107FF"/>
<path d="M960.258 952.465H965.1H968.749L970.854 948.429L973.766 952.465L977.766 944.192L981.52 952.465H992.256H997.203L998.958 946.927L1000.64 952.465H1003.83V900.158H960.258V952.465Z" fill="white"/>
<g opacity="0.1">
<path opacity="0.1" d="M754.268 1125.53C763.086 1108.32 771.799 1091.06 780.407 1073.76L806.16 1021.69L831.597 969.379C840.018 951.944 848.356 934.43 856.613 916.839C847.842 934.052 839.129 951.321 830.474 968.645L804.721 1020.69L779.459 1072.99C770.922 1090.45 762.524 1107.96 754.268 1125.53Z" fill="black"/>
<path opacity="0.1" d="M754.268 916.839C762.548 934.43 770.898 951.944 779.319 969.379L804.721 1021.69L830.474 1073.76C839.105 1091.06 847.818 1108.32 856.613 1125.53C848.356 1107.99 840.018 1090.47 831.597 1072.99L806.16 1020.69L780.407 968.645C771.775 951.299 763.062 934.03 754.268 916.839Z" fill="black"/>
</g>
<path d="M1132.88 952.499H903L864.826 900.126H1094.71L1132.88 952.499Z" fill="#A107FF"/>
<g opacity="0.2">
<path opacity="0.2" d="M1132.88 952.499H903L864.826 900.126H1094.71L1132.88 952.499Z" fill="black"/>
</g>
<path d="M826.687 952.532H708.307L746.48 900.158H864.825L826.687 952.532Z" fill="#A107FF"/>
<path opacity="0.1" d="M826.687 952.532H708.307L746.48 900.158H864.825L826.687 952.532Z" fill="black"/>
<path d="M1140.46 795.68C1152.08 796.714 1173.65 781.002 1179.44 764.689C1179.83 763.555 1176.18 753.08 1172.43 740.137C1170.14 732.264 1167.79 723.458 1166.29 715.285C1165.97 713.617 1114.67 736.901 1114.67 736.901C1119.66 746.612 1123.38 756.861 1125.76 767.425C1125.94 768.528 1126.02 769.644 1126.01 770.761C1125.99 770.949 1125.99 771.139 1126.01 771.328C1126.08 777.966 1128.04 794.412 1140.46 795.68Z" fill="#FFA698"/>
<path d="M1125.94 770.827C1125.92 771.016 1125.92 771.206 1125.94 771.394C1127.81 771.304 1129.68 771.081 1131.51 770.727C1163.09 764.689 1164.43 725.492 1164.25 715.651C1154.92 718.554 1114.57 736.901 1114.57 736.901C1119.55 746.611 1123.27 756.861 1125.66 767.425C1125.85 768.549 1125.94 769.688 1125.94 770.827Z" fill="#263238"/>
<path d="M1164.29 649.933C1172.95 667.413 1170.88 721.622 1159.02 735.266C1141.8 755.081 1109.59 761.219 1090.89 740.67C1072.71 720.654 1076.85 650.133 1090.4 637.257C1110.47 618.476 1151.38 624.28 1164.29 649.933Z" fill="#FFA698"/>
<path d="M1114.96 689.032C1114.96 689.032 1115.24 689.232 1115.24 689.366C1114.99 693.035 1115.24 697.238 1118.75 698.573V698.773C1114.53 698.072 1114.11 692.468 1114.96 689.032Z" fill="#263238"/>
<path d="M1118.5 685.33C1124.71 685.063 1124.78 696.872 1119.06 697.105C1113.34 697.339 1113.31 685.563 1118.5 685.33Z" fill="#263238"/>
<path d="M1092.71 689.798C1092.71 689.798 1092.39 689.965 1092.39 690.131C1092.57 693.768 1092.08 697.971 1088.6 699.205V699.439C1092.88 698.838 1093.44 693.234 1092.71 689.798Z" fill="#263238"/>
<path d="M1089.24 685.997C1083.06 685.597 1082.67 697.406 1088.39 697.773C1094.11 698.14 1094.43 686.331 1089.24 685.997Z" fill="#263238"/>
<path d="M1123.3 679.891C1121.67 679.463 1120.06 678.94 1118.49 678.323C1116.72 677.985 1115.1 677.107 1113.9 675.821C1113.61 675.347 1113.49 674.795 1113.57 674.251C1113.64 673.708 1113.91 673.204 1114.32 672.819C1115.24 672.151 1116.33 671.733 1117.48 671.61C1118.63 671.486 1119.79 671.662 1120.85 672.118C1123.14 672.713 1125.12 674.106 1126.39 676.021C1126.66 676.47 1126.79 676.986 1126.75 677.503C1126.72 678.021 1126.53 678.517 1126.2 678.93C1125.87 679.343 1125.42 679.655 1124.9 679.826C1124.39 679.996 1123.83 680.019 1123.3 679.891Z" fill="#263238"/>
<path d="M1084.39 680.089C1086.05 679.764 1087.69 679.352 1089.31 678.854C1091.11 678.638 1092.78 677.864 1094.08 676.653C1094.4 676.199 1094.56 675.655 1094.53 675.107C1094.5 674.558 1094.28 674.035 1093.9 673.617C1093.02 672.896 1091.96 672.413 1090.81 672.219C1089.67 672.026 1088.5 672.128 1087.41 672.516C1085.11 672.897 1083.04 674.088 1081.62 675.852C1081.25 676.278 1081.04 676.802 1081 677.351C1080.96 677.9 1081.11 678.447 1081.41 678.914C1081.72 679.381 1082.17 679.745 1082.7 679.956C1083.24 680.167 1083.83 680.213 1084.39 680.089Z" fill="#263238"/>
<path d="M1118.78 722.923C1117.86 723.791 1116.95 724.958 1115.55 725.092C1114.12 725.091 1112.7 724.783 1111.41 724.191C1111.41 724.191 1111.16 724.191 1111.23 724.391C1111.79 725.108 1112.54 725.669 1113.41 726.015C1114.27 726.362 1115.22 726.48 1116.15 726.359C1116.94 726.151 1117.64 725.721 1118.17 725.126C1118.71 724.532 1119.04 723.799 1119.13 723.023C1119.2 722.89 1118.88 722.79 1118.78 722.923Z" fill="#263238"/>
<path d="M1102.99 716.418C1104.63 718.444 1106.79 720.031 1109.27 721.022C1110.63 721.503 1112.11 721.584 1113.51 721.255C1116.57 720.455 1116.64 717.92 1116.04 715.484C1115.71 714.324 1115.24 713.205 1114.64 712.148C1111.33 714.715 1107.25 716.211 1102.99 716.418Z" fill="#263238"/>
<path d="M1109.27 721.023C1110.63 721.504 1112.11 721.585 1113.51 721.256C1116.57 720.456 1116.64 717.921 1116.04 715.485C1114.42 715.554 1112.88 716.136 1111.65 717.141C1110.42 718.145 1109.58 719.512 1109.27 721.023Z" fill="#FF99BA"/>
<path d="M1082.32 655.305C1084.39 650.635 1086.78 645.965 1089.69 645.031C1092.6 644.097 1094.64 650.869 1101.3 651.235C1110.32 651.736 1114.6 643.83 1127.2 642.862C1145.3 641.528 1153.41 655.839 1154.07 680.258C1154.67 702.075 1168.56 704.009 1168.56 704.009C1168.56 704.009 1176.53 655.839 1162.11 640.027C1147.69 624.215 1114.88 617.443 1093.06 632.855C1085.09 638.459 1082.32 655.305 1082.32 655.305Z" fill="#263238"/>
<path d="M1156.92 695.501C1156.92 695.501 1167.27 676.887 1176 680.19C1184.74 683.492 1178.53 709.445 1169.37 713.982C1168.25 714.644 1167 715.083 1165.69 715.274C1164.38 715.464 1163.05 715.402 1161.77 715.09C1160.49 714.779 1159.28 714.224 1158.23 713.461C1157.18 712.697 1156.31 711.74 1155.65 710.646L1156.92 695.501Z" fill="#FFA698"/>
<path d="M1174 687.664V687.898C1167.62 691.234 1164.84 697.638 1163.16 704.077C1163.47 703.388 1163.93 702.77 1164.51 702.266C1165.09 701.763 1165.78 701.385 1166.53 701.16C1167.28 700.935 1168.08 700.867 1168.86 700.962C1169.64 701.057 1170.39 701.311 1171.05 701.708C1171.09 701.724 1171.12 701.75 1171.15 701.782C1171.17 701.815 1171.18 701.853 1171.18 701.892C1171.18 701.931 1171.17 701.969 1171.15 702.001C1171.12 702.034 1171.09 702.06 1171.05 702.075C1169.82 701.857 1168.55 702.009 1167.41 702.511C1166.27 703.013 1165.32 703.841 1164.7 704.877C1163.67 706.602 1162.84 708.424 1162.21 710.315C1161.97 710.915 1160.84 710.749 1160.98 710.081C1159.76 701.708 1164.91 689.499 1174 687.664Z" fill="#263238"/>
<path d="M1217.16 800.117C1240.66 849.889 1292.66 951.901 1279.29 990.263C1261.75 1040.64 1169.93 1096.18 1146.18 1111.76C1135.83 1118.43 1084.32 1055.75 1087.48 1043.34C1090.64 1030.93 1187.16 958.239 1192.35 949.932C1197.54 941.626 1175.72 859.029 1172.04 812.827C1167.33 754.682 1197.23 757.985 1217.16 800.117Z" fill="#FFA698"/>
<path d="M1063.66 1077C1066.46 1071.53 1063.45 1070.09 1053.13 1074.83C1042.82 1079.57 1006.54 1106.59 997.696 1093.74C988.854 1080.9 1040.71 1043.47 1058.43 1036.83C1076.15 1030.19 1107.2 1025.32 1107.2 1025.32C1098.74 1034.6 1080.25 1058.75 1063.66 1077Z" fill="#FFA698"/>
<path d="M1171.3 1092.28C1146.18 1117.4 1116.57 1150.09 1077.06 1160.83C1072.7 1162.12 1068 1161.99 1063.73 1160.46C1046.18 1165.57 1038.29 1159.19 1038.29 1159.19C1020.33 1159.19 1013.27 1151.62 1013.27 1151.62C1013.27 1151.62 992.503 1157.43 986.749 1146.08C980.258 1133.37 1010.68 1127.7 1025.34 1114.89C1059.1 1085.47 1098.43 1034.83 1107.27 1025.32L1171.3 1092.28Z" fill="#FFA698"/>
<path d="M1083.55 1107.72C1073.77 1116.41 1063.39 1124.47 1052.47 1131.84C1039.99 1139.2 1026.95 1145.67 1013.45 1151.19C1013.03 1151.35 1013.28 1151.92 1013.73 1151.82C1040.89 1143.63 1065.16 1128.51 1083.9 1108.12C1084.39 1107.65 1084.04 1107.29 1083.55 1107.72Z" fill="#263238"/>
<path d="M1105.16 1124.66C1094.85 1132.37 1076.6 1145.81 1038.11 1158.99C1038.11 1158.99 1038.11 1159.22 1038.11 1159.19C1063.46 1154 1086.78 1142.21 1105.48 1125.13C1106.14 1124.43 1105.76 1123.96 1105.16 1124.66Z" fill="#263238"/>
<path d="M1116.6 1133.71C1098.53 1146.22 1085.48 1151.92 1063.97 1160.4C1063.97 1160.4 1063.97 1160.66 1063.97 1160.63C1089.66 1153.52 1098.15 1148.15 1117.27 1134.31C1117.8 1133.78 1117.31 1133.24 1116.6 1133.71Z" fill="#263238"/>
<path d="M1175.93 876.476L1263.65 880.479C1263.65 880.479 1223.05 797.281 1204 776.032C1182.39 752.08 1174.25 767.825 1171.58 797.715C1168.92 827.605 1175.93 876.476 1175.93 876.476Z" fill="#A107FF"/>
<path opacity="0.1" d="M1175.93 876.476L1263.65 880.479C1263.65 880.479 1223.05 797.281 1204 776.032C1182.39 752.08 1174.25 767.825 1171.58 797.715C1168.92 827.605 1175.93 876.476 1175.93 876.476Z" fill="black"/>
<path d="M1179.9 861.532C1191.12 860.598 1225.19 862.366 1230.84 862.6C1233.79 862.6 1245.65 863.7 1248.59 863.801C1248.98 863.801 1248.88 864.368 1248.59 864.368C1242.91 864.167 1237.23 864.534 1231.54 864.368C1225.86 864.201 1191.16 863.634 1179.93 861.932C1179.89 861.915 1179.86 861.888 1179.84 861.854C1179.81 861.821 1179.8 861.782 1179.79 861.742C1179.79 861.701 1179.8 861.661 1179.82 861.624C1179.83 861.587 1179.86 861.556 1179.9 861.532Z" fill="#263238"/>
<path d="M1224.46 807.256C1224.28 806.922 1224.84 806.689 1225.02 807.022C1229.3 813.694 1233.4 820.366 1237.37 827.271C1236.2 823.333 1234.66 819.504 1232.77 815.829C1232.77 815.829 1232.95 815.562 1233.05 815.829C1235.4 820.044 1237.17 824.529 1238.31 829.173C1241.09 833.943 1243.79 838.713 1246.45 843.55C1253.19 855.76 1260.14 867.969 1266.14 880.579C1266.2 880.732 1266.23 880.898 1266.21 881.062C1266.19 881.226 1266.12 881.383 1266.02 881.516C1265.92 881.65 1265.78 881.757 1265.62 881.826C1265.47 881.896 1265.29 881.926 1265.12 881.913C1262.07 881.68 1259.05 881.346 1256.03 880.946C1255.72 880.946 1255.68 880.412 1256.03 880.379C1258.56 880.179 1261.05 880.145 1263.58 880.078C1256.56 868.436 1250.49 856.427 1244 844.584C1237.51 832.742 1230.67 819.765 1224.46 807.256Z" fill="#263238"/>
<path d="M1170.67 841.117C1169.76 836.814 1168.81 832.511 1168.04 828.174C1168.85 831.31 1169.58 834.479 1170.32 837.648C1169.93 831.176 1169.69 824.738 1169.76 818.3H1169.93C1171.34 827.974 1172.18 837.748 1173.44 847.456C1174.71 857.163 1175.58 866.537 1176.53 876.078C1178.49 876.478 1180.49 876.811 1182.49 877.145C1182.56 877.166 1182.61 877.204 1182.65 877.255C1182.69 877.305 1182.71 877.366 1182.71 877.429C1182.71 877.491 1182.69 877.552 1182.65 877.603C1182.61 877.653 1182.56 877.692 1182.49 877.712C1180.28 877.712 1178.07 877.712 1175.86 877.712C1175.61 877.751 1175.35 877.692 1175.14 877.548C1174.93 877.404 1174.78 877.188 1174.74 876.945C1172.92 865.036 1171.51 853.06 1170.67 841.117Z" fill="#263238"/>
<path d="M821.183 1310.21H489.375V1570.84H821.183V1310.21Z" fill="#A107FF"/>
<path d="M952.612 1310.21H821.145V1570.88H952.612V1310.21Z" fill="#A107FF"/>
<path opacity="0.1" d="M952.612 1310.21H821.145V1570.88H952.612V1310.21Z" fill="black"/>
<path d="M943.564 1552.93C933.857 1534.38 924.208 1515.78 914.618 1497.12L886.093 1441.07L858.024 1384.76C848.668 1365.95 839.429 1347.05 830.307 1328.05C840.037 1346.6 849.686 1365.21 859.253 1383.86L887.742 1439.91L915.811 1496.22C925.167 1515.1 934.418 1534 943.564 1552.93Z" fill="#A107FF"/>
<path d="M943.56 1328.16C934.414 1347.1 925.175 1366.01 915.842 1384.87L887.774 1441.18L859.284 1497.22C849.717 1515.9 840.068 1534.5 830.338 1553.03C839.46 1534.08 848.7 1515.18 858.056 1496.32L886.125 1440.01L914.649 1383.96C924.216 1365.28 933.853 1346.68 943.56 1328.16Z" fill="#A107FF"/>
<path d="M678.732 1366.55H673.504H669.54L667.294 1362.18L664.136 1366.55L659.891 1357.61L655.821 1366.55H644.243H638.945L637.05 1360.58L635.226 1366.55H631.787V1310.21H678.732V1366.55Z" fill="white"/>
<path d="M1145.24 1310.21H897.705V1570.84H1145.24V1310.21Z" fill="#A107FF"/>
<path d="M1273.05 1310.21H1145.24V1570.84H1273.05V1310.21Z" fill="#A107FF"/>
<path opacity="0.1" d="M1273.05 1310.21H1145.24V1570.84H1273.05V1310.21Z" fill="black"/>
<g opacity="0.1">
<path opacity="0.1" d="M1127.1 1552.89C1108.92 1534.37 1090.91 1515.78 1073.06 1497.12L1019.8 1441.08L967.176 1384.76C949.703 1365.95 932.44 1347.05 915.389 1328.05C933.563 1346.6 951.574 1365.19 969.421 1383.83L1022.68 1439.91L1075.31 1496.22C1092.76 1515.08 1110.02 1533.97 1127.1 1552.89Z" fill="black"/>
<path opacity="0.1" d="M1127.1 1328.16C1110 1347.11 1092.74 1366.01 1075.31 1384.87L1022.68 1441.18L969.421 1497.22C951.597 1515.88 933.587 1534.47 915.389 1553C932.487 1534.1 949.75 1515.19 967.176 1496.29L1019.8 1439.98L1073.06 1383.9C1090.89 1365.29 1108.9 1346.71 1127.1 1328.16Z" fill="black"/>
</g>
<path d="M1255.05 1526.74H1232.67V1556.8H1255.05V1526.74Z" fill="white"/>
<path d="M827.285 1141.64H544.668V1310.17H827.285V1141.64Z" fill="#A107FF"/>
<path opacity="0.1" d="M827.285 1141.64H544.668V1310.17H827.285V1141.64Z" fill="black"/>
<path d="M955.142 1141.68H827.324V1310.24H955.142V1141.68Z" fill="#A107FF"/>
<path opacity="0.2" d="M955.142 1141.68H827.324V1310.24H955.142V1141.68Z" fill="black"/>
<path d="M946.332 1300.26C936.859 1288.7 927.503 1277.07 918.263 1265.37L890.51 1230.28L863.143 1195.05C854.044 1183.26 845.062 1171.45 836.197 1159.62C845.554 1171.23 854.91 1182.86 864.266 1194.52L891.984 1229.61L919.351 1264.87C928.45 1276.61 937.444 1288.41 946.332 1300.26Z" fill="#A107FF"/>
<path d="M946.332 1159.62C937.42 1171.45 928.426 1183.26 919.351 1195.05L891.984 1230.28L864.266 1265.37C854.91 1277.05 845.554 1288.68 836.197 1300.26C845.062 1288.41 854.044 1276.61 863.143 1264.87L890.51 1229.61L918.263 1194.52C927.479 1182.84 936.835 1171.21 946.332 1159.62Z" fill="#A107FF"/>
<path d="M661.926 425.929C660.457 439.296 655.109 452.012 646.481 462.658C637.853 473.304 626.283 481.46 613.062 486.218C599.841 490.975 585.491 492.146 571.611 489.6C557.731 487.053 544.869 480.89 534.459 471.797L496.32 477.101L515.407 445.744C510.63 434.686 508.833 422.669 510.179 410.784C512.287 391.651 522.302 374.098 538.021 361.987C553.741 349.875 573.877 344.197 594 346.201C614.122 348.204 632.584 357.727 645.322 372.672C658.061 387.618 664.034 406.763 661.926 425.895V425.929Z" fill="white"/>
<path d="M661.925 425.928C660.415 439.268 655.088 451.96 646.522 462.623C644.346 465.268 642.002 467.786 639.505 470.162C636.959 472.539 634.264 474.767 631.435 476.834C620.109 484.949 606.642 489.925 592.525 491.211C589.026 491.525 585.508 491.591 581.999 491.412C578.467 491.333 574.948 490.987 571.473 490.377C557.445 487.861 544.425 481.694 533.861 472.564L534.774 472.831L496.635 478.368L493.898 478.802L495.267 476.467L514.248 445.043V446.277C509.762 435.905 507.842 424.693 508.635 413.504C509.428 402.315 512.913 391.449 518.822 381.743C524.732 372.038 532.906 363.752 542.716 357.526C552.526 351.3 563.709 347.299 575.403 345.833C586.954 344.293 598.722 345.297 609.8 348.768C620.878 352.238 630.969 358.082 639.295 365.848C647.604 373.581 653.958 383.006 657.878 393.413C661.798 403.82 663.182 414.938 661.925 425.928ZM661.925 425.928C663.157 415 661.732 403.948 657.758 393.627C653.784 383.306 647.369 373.991 639.007 366.402C630.645 358.813 620.561 353.153 609.533 349.858C598.505 346.564 586.827 345.723 575.403 347.401C564.062 348.997 553.259 353.048 543.826 359.243C534.511 365.462 526.729 373.533 521.02 382.895C515.393 392.297 512.083 402.791 511.336 413.585C510.629 424.364 512.463 435.157 516.704 445.176L516.985 445.81L516.599 446.41L497.407 477.734L496.039 475.8L534.317 470.829H534.844L535.23 471.163C545.423 480.231 558.07 486.422 571.754 489.043C575.167 489.695 578.627 490.097 582.104 490.244C592.578 490.919 603.083 489.451 612.91 485.941C619.495 483.69 625.691 480.519 631.295 476.533C634.111 474.546 636.805 472.408 639.365 470.129C641.861 467.776 644.205 465.28 646.382 462.656C655.028 452.011 660.407 439.3 661.925 425.928Z" fill="#263238"/>
<path d="M577.122 459.72L544.527 428.363L555.474 418.088L574.526 436.402L614.068 377.49L627.014 385.33L577.122 459.72Z" fill="#A107FF"/>
<path d="M331.91 490.245C319.069 488.11 286.755 498.118 276.58 514.731C266.405 531.344 268.545 557.564 274.229 559.699C279.913 561.834 304.087 559.032 320.297 549.691C336.507 540.351 338.261 491.28 331.91 490.245Z" fill="#263238"/>
<path d="M331.944 490.312C332.365 490.312 332.401 489.512 331.944 489.545C320.787 489.745 309.033 493.815 298.578 497.184C289.875 499.448 281.771 503.426 274.789 508.86C271.555 511.624 268.994 515.027 267.285 518.829C265.576 522.632 264.761 526.743 264.895 530.877C264.705 540.857 267.192 550.719 272.123 559.532C272.123 559.766 272.754 559.532 272.649 559.532C266.72 542.119 261.211 520.769 279.07 507.959C294.227 496.784 314.191 494.749 331.944 490.312Z" fill="#263238"/>
<path d="M275.91 555.03C264.858 556.865 236.894 578.381 232.964 598.397C229.035 618.412 247.63 647.701 253.174 649.636C258.718 651.571 282.401 631.255 289.769 616.744C294.681 607.07 289.769 596.195 286.997 585.353C282.646 569.441 277.734 554.763 275.91 555.03Z" fill="#263238"/>
<path d="M296.297 614.075C298.648 593.425 285.491 573.677 277.281 555.463C277.281 555.263 276.86 555.463 276.93 555.463C281.807 573.043 293.806 588.522 294.999 607.069C295.595 612.493 294.809 617.974 292.708 623.048C290.607 628.123 287.254 632.642 282.929 636.225C274.895 642.43 264.65 645.566 255.177 649.202C254.58 649.435 255.176 650.303 255.633 650.102C274.509 643.464 293.876 635.358 296.297 614.075Z" fill="#263238"/>
<path d="M273.595 557.033C273.694 556.97 273.766 556.876 273.797 556.768C273.829 556.659 273.818 556.543 273.767 556.442C273.715 556.34 273.627 556.26 273.518 556.215C273.409 556.17 273.287 556.165 273.174 556.199C257.702 564.005 239.141 575.18 231.387 590.792C222.966 607.672 232.966 624.551 241.913 639.096H242.229C233.457 624.318 224.089 605.737 233.773 589.391C242.018 575.047 259 564.605 273.595 557.033Z" fill="#263238"/>
<path d="M255.176 647.098C262.825 650.434 274.368 661.809 277.737 675.853C283.421 699.872 292.753 694.568 320.998 699.505C344.856 703.641 351.382 728.427 339.593 741.504C339.593 741.504 345.944 725.658 329.629 718.953C310.121 710.947 267.877 732.297 244.721 707.978C214.757 676.554 255.176 647.098 255.176 647.098Z" fill="#263238"/>
<path d="M265.878 657.641C265.562 657.307 266.089 656.774 266.44 657.074C269.82 659.909 272.636 663.299 274.755 667.081C277.457 672.085 277.913 677.656 280.193 682.76C286.088 695.77 302.929 694.403 315.279 694.569C331.77 694.769 345.523 703.576 347.558 719.955C347.572 719.986 347.578 720.019 347.575 720.052C347.572 720.085 347.561 720.117 347.541 720.145C347.522 720.173 347.496 720.196 347.465 720.212C347.435 720.227 347.4 720.236 347.365 720.236C347.33 720.236 347.296 720.227 347.265 720.212C347.235 720.196 347.208 720.173 347.189 720.145C347.17 720.117 347.159 720.085 347.156 720.052C347.153 720.019 347.158 719.986 347.172 719.955C346.433 714.968 344.288 710.263 340.965 706.34C337.641 702.417 333.264 699.422 328.296 697.672C318.437 694.336 307.736 696.971 297.666 695.236C290.649 694.069 283.632 691.667 280.123 685.529C278.469 682.018 277.211 678.35 276.369 674.587C274.467 668.173 270.853 662.336 265.878 657.641Z" fill="#263238"/>
<path d="M251.037 650.27C251.037 650.27 251.423 650.27 251.283 650.503C242.511 659.744 233.214 669.051 231.319 681.961C229.249 695.838 237.529 709.182 249.388 716.854C262.686 725.461 276.018 720.19 290.088 716.854C300.228 714.386 310.648 712.651 320.928 715.453C321.244 715.453 320.928 716.02 320.928 715.987C304.473 713.285 289.877 718.689 274.089 722.025C268.227 723.393 262.079 723.161 256.35 721.355C250.622 719.549 245.545 716.243 241.704 711.817C221.776 691.635 231.635 666.782 251.037 650.27Z" fill="#263238"/>
<path d="M321.665 479.571C317.911 475.435 311.14 481.039 314.999 485.176C318.858 489.312 325.384 483.674 321.665 479.571Z" fill="#A107FF"/>
<path d="M325.418 486.543C321.699 482.44 314.892 488.044 318.787 492.147C322.681 496.25 329.172 490.846 325.418 486.543Z" fill="#A107FF"/>
<path d="M330.367 492.881C326.612 488.777 319.841 494.348 323.7 498.485C327.56 502.621 334.191 497.017 330.367 492.881Z" fill="#A107FF"/>
<path d="M336.152 498.353C332.433 494.249 325.626 499.854 329.521 503.957C333.415 508.06 339.906 502.489 336.152 498.353Z" fill="#A107FF"/>
<path d="M342.927 502.922C339.173 498.819 332.401 504.423 336.261 508.526C340.12 512.629 346.646 507.058 342.927 502.922Z" fill="#A107FF"/>
<path d="M350.154 506.158C346.399 502.055 339.628 507.626 343.487 511.762C347.347 515.899 353.873 510.294 350.154 506.158Z" fill="#A107FF"/>
<path d="M623.018 1612.58C614.913 1614.98 378.048 1610.11 369.416 1604.64C366.083 1602.6 386.398 1389.27 386.398 1389.27L536.601 1392.01L519.514 1534.68C519.514 1534.68 606.913 1574.08 615.755 1581.05C624.596 1588.02 631.157 1610.17 623.018 1612.58Z" fill="#FFA698"/>
<path d="M623.053 1612.58C614.948 1614.98 378.048 1610.11 369.417 1604.6C368.364 1604 368.048 1582.32 371.838 1554.13C414.783 1560.97 568.073 1583.35 580.038 1576.68C588.353 1572.01 580.985 1564.74 574.143 1560C593.721 1569.28 612.001 1578.18 615.755 1581.19C624.562 1588.02 631.123 1610.21 623.053 1612.58Z" fill="#263238"/>
<path d="M523.759 1500.49L376.398 1498.52C376.398 1498.52 405.589 1162.7 404.466 1156.22C402.712 1148.02 298.086 757.885 298.086 757.885H438.851C438.851 757.885 549.827 1121.5 553.827 1156.49C560.283 1213.07 523.759 1500.49 523.759 1500.49Z" fill="#37474F"/>
<path d="M389.519 1466.86C398.256 1466.26 407.062 1466.36 415.799 1466.26C424.535 1466.16 433.342 1466.26 442.043 1466.26C459.586 1466.43 477.129 1466.7 494.672 1467.16C499.444 1467.16 504.215 1467.43 509.022 1467.63C513.829 1467.83 519.232 1468.7 524.319 1468.87C524.403 1468.87 524.484 1468.9 524.543 1468.95C524.602 1469.01 524.635 1469.09 524.635 1469.17C524.635 1469.25 524.602 1469.32 524.543 1469.38C524.484 1469.43 524.403 1469.47 524.319 1469.47C520.004 1469.47 515.723 1470.1 511.408 1470.23C507.092 1470.37 502.496 1470.23 498.04 1470.23H471.796C454.253 1470.23 436.71 1469.87 419.342 1469.2C409.483 1468.8 399.519 1468.7 389.695 1467.73C389.574 1467.75 389.449 1467.73 389.347 1467.66C389.245 1467.6 389.174 1467.5 389.151 1467.38C389.128 1467.27 389.153 1467.15 389.223 1467.05C389.292 1466.95 389.398 1466.89 389.519 1466.86Z" fill="#263238"/>
<path d="M329.065 789.408C341.661 831.807 353.169 874.573 364.432 917.306C375.694 960.039 386.957 1002.84 398.149 1045.6C403.763 1067.02 409.365 1088.42 414.955 1109.79C420.394 1130.6 426.744 1151.55 428.078 1173.17C429.411 1194.79 426.534 1217.1 424.569 1238.89C422.604 1260.67 420.709 1282.65 418.675 1304.57C414.64 1348.34 410.78 1392.17 405.763 1435.87C405.166 1441.34 404.535 1446.81 403.938 1452.28C403.938 1452.75 403.131 1452.75 403.167 1452.28C406.219 1408.45 409.412 1364.65 413.096 1320.88C414.92 1298.98 416.792 1277.08 418.71 1255.2C420.604 1233.35 423.271 1211.4 424.008 1189.48C424.744 1167.57 420.499 1146.12 414.885 1124.83C409.271 1103.55 403.833 1082.97 398.325 1062.02C387.05 1019.3 375.823 976.53 364.642 933.719C352.152 885.815 339.661 837.845 328.644 789.608C328.63 789.582 328.622 789.553 328.62 789.524C328.618 789.495 328.621 789.465 328.631 789.437C328.641 789.409 328.656 789.384 328.677 789.361C328.697 789.339 328.722 789.321 328.749 789.308C328.777 789.295 328.807 789.287 328.838 789.285C328.869 789.283 328.9 789.286 328.929 789.296C328.958 789.305 328.985 789.32 329.009 789.339C329.032 789.358 329.051 789.382 329.065 789.408Z" fill="#263238"/>
<path d="M298.086 757.919C298.086 757.919 342.996 925.248 374.398 1043.04L434.29 757.919H298.086Z" fill="#263238"/>
<path d="M446.151 1613.08C438.046 1615.51 201.181 1610.64 192.549 1605.14C189.216 1603.1 201.567 1389.67 201.567 1389.67L349.805 1392.41L342.787 1535.22C342.787 1535.22 430.186 1574.58 439.028 1581.59C447.87 1588.59 454.255 1610.71 446.151 1613.08Z" fill="#FFA698"/>
<path d="M446.147 1613.08C438.042 1615.48 201.177 1610.64 192.546 1605.14C191.493 1604.5 191.739 1583.42 192.546 1554.63C235.491 1561.47 391.168 1583.89 403.062 1577.18C411.377 1572.55 404.044 1565.27 397.202 1560.5C416.78 1569.78 435.06 1578.72 438.814 1581.72C447.656 1588.53 454.252 1610.71 446.147 1613.08Z" fill="#263238"/>
<path d="M434.289 757.717C434.289 757.717 430.184 821.699 414.115 872.238C412.817 876.408 411.413 880.511 409.94 884.448C395.732 889.696 382.062 896.172 369.1 903.796C369.1 903.796 358.96 1148.52 359.135 1163.73C359.802 1220.74 344.399 1497.69 344.399 1497.69L195.67 1496.32C195.67 1496.32 211.108 1183.14 211.178 1162.33C211.178 1128.97 242.369 757.884 242.369 757.884L434.289 757.717Z" fill="#37474F"/>
<path d="M401.802 843.784L403.486 833.176C404.539 826.504 405.942 820.233 406.995 813.761C409.696 799.117 412.538 784.405 415.941 769.861C415.941 769.527 416.678 769.594 416.608 769.861C416.012 775.732 415.31 781.603 414.433 787.441C413.556 793.279 412.959 799.15 412.082 804.988C410.363 816.563 408.573 828.339 406.609 839.714C405.802 844.151 402.889 852.124 409.626 853.492C414.924 854.593 418.854 849.622 420.397 845.452C422.039 840.218 423.213 834.862 423.906 829.44C425.029 823.602 425.976 817.731 426.853 811.86C428.748 799.05 430.853 786.273 433.028 773.53C433.028 773.163 433.73 773.263 433.695 773.53C433.402 786.647 432.407 799.74 430.713 812.76C429.835 818.998 428.888 825.203 427.765 831.408C427.094 837.359 425.571 843.195 423.239 848.755C422.292 850.951 420.776 852.883 418.831 854.37C416.886 855.858 414.576 856.852 412.117 857.261H411.801C411.866 857.301 411.919 857.355 411.956 857.419C411.993 857.483 412.012 857.555 412.012 857.628C412.012 859.73 412.012 861.831 411.766 863.9C411.521 865.968 411.1 867.97 410.679 870.004C410.286 872.075 409.735 874.115 409.03 876.109C408.644 877.043 408.293 877.977 407.837 878.911C407.38 879.845 406.679 880.579 406.082 881.48C405.872 881.847 405.416 881.48 405.381 881.246C405.381 880.913 405.381 880.579 405.381 880.246C405.346 879.646 405.346 879.044 405.381 878.444C405.537 877.445 405.748 876.454 406.012 875.475C406.468 873.507 407.03 871.539 407.591 869.571C408.152 867.603 408.573 865.668 409.1 863.7C409.626 861.731 410.363 859.73 410.854 857.695C410.854 857.695 410.854 857.695 410.854 857.495C408.872 857.585 406.909 857.096 405.228 856.094C403.548 855.092 402.229 853.625 401.451 851.89C400.847 849.204 400.967 846.415 401.802 843.784Z" fill="#263238"/>
<path d="M357.064 908.802C361.519 905.567 366.209 902.635 371.099 900.029C376.23 897.069 381.563 894.439 387.063 892.156C397.799 887.719 408.886 884.683 420.009 881.214C420.324 881.214 420.535 881.614 420.219 881.748C409.483 885.817 399.167 891.222 388.642 896.059C383.519 898.438 378.35 900.662 373.134 902.731C367.941 904.932 362.608 907.501 357.38 909.402C357.064 909.636 356.749 909.036 357.064 908.802Z" fill="#263238"/>
<path d="M273.138 819.666C280.706 819.579 288.235 818.615 295.558 816.797C299.067 815.964 302.26 814.929 305.558 813.895C308.841 813.035 311.916 811.573 314.61 809.592C319.697 805.389 322.083 798.817 324.294 792.912C326.71 786.371 328.667 779.685 330.153 772.897C330.153 772.817 330.186 772.741 330.245 772.685C330.305 772.628 330.385 772.597 330.469 772.597C330.552 772.597 330.633 772.628 330.692 772.685C330.751 772.741 330.784 772.817 330.784 772.897C330.964 780.627 329.935 788.339 327.732 795.781C325.907 802.086 323.451 809.125 318.083 813.562C312.124 817.823 304.968 820.308 297.523 820.701C289.357 821.614 281.101 821.513 272.963 820.4C272.89 820.356 272.834 820.291 272.801 820.215C272.768 820.139 272.761 820.055 272.78 819.975C272.799 819.895 272.844 819.822 272.908 819.767C272.972 819.712 273.052 819.677 273.138 819.666Z" fill="#263238"/>
<path d="M224.266 1324.15C226.792 1279.5 229.458 1234.82 232.265 1190.12C237.669 1101.22 242.791 1012.28 248.791 923.245C252.299 873.206 255.527 822.934 259.667 772.829C259.695 772.739 259.752 772.659 259.831 772.602C259.91 772.545 260.007 772.515 260.106 772.515C260.205 772.515 260.302 772.545 260.381 772.602C260.46 772.659 260.517 772.739 260.545 772.829C256.685 862.465 251.071 951.8 245.633 1041.27C240.195 1130.74 234.651 1219.01 228.616 1307.87C225.459 1358.18 221.283 1408.22 218.091 1458.26C218.107 1458.3 218.112 1458.35 218.105 1458.4C218.098 1458.45 218.079 1458.49 218.05 1458.53C218.021 1458.57 217.982 1458.6 217.937 1458.62C217.892 1458.64 217.843 1458.66 217.792 1458.66C217.742 1458.66 217.692 1458.64 217.648 1458.62C217.603 1458.6 217.564 1458.57 217.535 1458.53C217.506 1458.49 217.487 1458.45 217.48 1458.4C217.473 1458.35 217.478 1458.3 217.494 1458.26C219.915 1413.56 221.599 1368.85 224.266 1324.15Z" fill="#263238"/>
<path d="M202.406 1468.93C211.107 1468.33 219.949 1468.43 228.65 1468.33C237.351 1468.23 246.193 1468.33 254.894 1468.33C272.437 1468.5 289.98 1468.76 307.523 1469.23C312.295 1469.23 317.102 1469.5 321.873 1469.7C326.645 1469.9 332.083 1470.77 337.171 1470.93C337.254 1470.93 337.335 1470.96 337.394 1471.02C337.453 1471.08 337.486 1471.15 337.486 1471.23C337.486 1471.31 337.453 1471.39 337.394 1471.45C337.335 1471.5 337.254 1471.53 337.171 1471.53C332.89 1471.53 328.575 1472.17 324.259 1472.3C319.943 1472.43 315.347 1472.3 310.891 1472.3C302.155 1472.3 293.348 1472.3 284.682 1472.3C267.139 1472.3 249.596 1471.97 232.053 1471.27C222.159 1470.87 212.195 1470.77 202.371 1469.83C202.308 1469.83 202.247 1469.82 202.191 1469.79C202.134 1469.77 202.083 1469.73 202.041 1469.69C201.998 1469.64 201.965 1469.59 201.944 1469.54C201.922 1469.48 201.912 1469.42 201.914 1469.36C201.917 1469.31 201.931 1469.25 201.957 1469.19C201.983 1469.14 202.02 1469.09 202.066 1469.05C202.111 1469.01 202.165 1468.98 202.223 1468.96C202.281 1468.94 202.343 1468.93 202.406 1468.93Z" fill="#263238"/>
<path d="M374.68 613.108C388.96 646.8 445.694 755.718 482.955 763.423C507.515 768.461 606.212 759.354 623.298 737.137C630.702 727.462 618.176 659.944 604.984 662.612C591.791 665.281 512.602 675.256 502.884 672.62C493.165 669.985 420.256 590.123 392.994 570.308C345.979 536.082 366.996 594.96 374.68 613.108Z" fill="#FFA698"/>
<path d="M461.131 629.752L399.029 664.679C399.029 664.679 372.889 617.376 362.679 586.419C352.469 555.462 361.241 541.318 398.713 572.108C420.735 590.095 441.58 609.346 461.131 629.752Z" fill="#A107FF"/>
<path d="M396.362 652.536C404.596 646.865 412.982 641.383 421.519 636.09C425.694 633.488 429.87 630.819 434.115 628.318C438.36 625.816 443.097 623.38 447.483 620.778C447.512 620.752 447.547 620.732 447.585 620.719C447.624 620.707 447.664 620.703 447.705 620.706C447.745 620.71 447.784 620.723 447.819 620.742C447.854 620.762 447.884 620.788 447.907 620.82C447.93 620.852 447.945 620.888 447.952 620.926C447.959 620.964 447.958 621.002 447.947 621.04C447.937 621.077 447.918 621.112 447.893 621.141C447.867 621.171 447.835 621.195 447.798 621.212C443.658 623.881 439.729 626.816 435.589 629.518C431.448 632.221 426.957 634.923 422.642 637.591C414.128 642.884 405.461 647.988 396.643 652.903C396.398 653.037 396.117 652.703 396.362 652.536Z" fill="#263238"/>
<path d="M457.864 800.685L443.83 725.394C443.83 725.394 465.407 689.6 452.882 663.88C446.566 650.87 391.13 569.874 367.798 553.795C345.905 538.684 314.117 554.829 302.293 566.672C256.681 612.307 244.541 696.472 228.191 819.833L457.864 800.685Z" fill="#A107FF"/>
<path d="M456.678 671.351C454.946 665.935 452.393 660.788 449.099 656.072C448.011 654.304 445.59 650.635 442.643 646.365C441.822 644.306 440.885 642.29 439.836 640.327C438.106 637.432 436.548 634.447 435.17 631.387C435.17 631.086 434.538 631.387 434.714 631.587C436.182 634.513 437.494 637.508 438.643 640.56C433.696 633.421 428.504 626.082 426.258 623.08C426.258 622.813 425.662 623.08 425.837 623.314C430.574 629.218 446.117 655.105 449.871 661.677C453.49 668.168 455.359 675.412 455.309 682.759C455.216 690.377 454.18 697.957 452.222 705.343C452.011 705.944 452.678 706.277 452.923 705.677C455.21 700.341 456.698 694.726 457.344 688.998C458.242 683.125 458.016 677.147 456.678 671.351Z" fill="#263238"/>
<path d="M363.804 619.744C363.804 619.744 349.77 604.966 361.243 596.726C372.716 588.486 383.873 605.232 383.873 605.232L363.804 619.744Z" fill="#455A64"/>
<path d="M472.393 715.72L475.902 734.902L477.059 741.207L470.919 738.505L452.394 730.265L363.416 619.146L383.485 604.635L472.463 715.754L472.393 715.72Z" fill="#455A64"/>
<path d="M475.832 734.9L476.99 741.205L470.85 738.503L475.832 734.9Z" fill="#37474F"/>
<path d="M384.558 602.812L361.139 619.769L364.667 624.174L388.087 607.218L384.558 602.812Z" fill="#263238"/>
<path d="M388.476 607.693L365.057 624.649L368.585 629.055L392.005 612.098L388.476 607.693Z" fill="#263238"/>
<path d="M368.611 629.051L376.155 623.58L404.188 666.78L401.276 668.648L368.611 629.051Z" fill="#263238"/>
<path d="M281.245 590.922C225.107 657.64 163.953 768.625 194.547 789.741C222.616 808.99 318.296 783.47 377.836 757.183C389.169 752.179 335.733 657.106 324.225 663.778C312.141 670.796 299.602 677.08 286.683 682.592C283.385 683.66 300.367 661.276 317.454 608.836C334.856 555.394 313.419 552.526 281.245 590.922Z" fill="#FFA698"/>
<path d="M472.112 647.636C472.919 658.978 443.306 658.477 443.306 658.477C447.785 660.924 451.223 664.783 453.025 669.386C455.797 677.625 443.412 685.365 443.412 685.365C447.493 688.824 450.39 693.367 451.727 698.408C453.551 706.548 442.219 716.055 442.219 716.055C444.138 721.196 444.039 726.824 441.938 731.901C435.798 745.244 412.255 746.879 397.905 750.648C381.874 755.15 366.246 760.861 351.171 767.728L317.488 667.284C317.488 667.284 378.222 627.987 395.905 627.754C410.817 627.62 470.884 630.256 472.112 647.636Z" fill="#FFA698"/>
<path d="M443.027 658.141C427.168 654.805 410.432 654.806 394.328 655.373C394.253 655.373 394.182 655.401 394.129 655.451C394.076 655.501 394.047 655.569 394.047 655.639C394.047 655.71 394.076 655.778 394.129 655.828C394.182 655.878 394.253 655.906 394.328 655.906C410.362 655.339 426.957 658.842 442.957 658.875C443.007 658.88 443.058 658.874 443.107 658.86C443.156 658.846 443.201 658.822 443.24 658.791C443.279 658.76 443.311 658.722 443.335 658.68C443.359 658.637 443.373 658.59 443.378 658.542C443.382 658.493 443.377 658.445 443.362 658.399C443.347 658.352 443.322 658.31 443.289 658.272C443.257 658.235 443.217 658.205 443.172 658.182C443.127 658.16 443.078 658.146 443.027 658.141Z" fill="#263238"/>
<path d="M442.922 684.33C439.231 683.863 435.491 683.863 431.8 684.33C427.87 684.63 423.976 684.964 420.046 685.364C412.222 686.165 404.398 687.166 396.644 688.333C396.293 688.333 396.293 688.901 396.644 688.867C404.468 688.1 412.292 687.399 420.116 686.932C424.046 686.699 427.976 686.465 431.87 686.298C435.593 686.351 439.311 686.015 442.957 685.298C443.053 685.252 443.132 685.181 443.187 685.093C443.241 685.005 443.268 684.905 443.264 684.803C443.261 684.702 443.227 684.603 443.166 684.519C443.105 684.436 443.021 684.37 442.922 684.33Z" fill="#263238"/>
<path d="M441.902 716.018C438.559 715.675 435.179 715.866 431.903 716.585L421.377 717.853C414.36 718.653 407.097 719.454 399.94 720.021C399.589 720.021 399.624 720.588 399.94 720.555C407.202 720.021 414.5 719.554 421.763 718.954C425.272 718.687 428.78 718.353 432.289 718.02C435.573 718.022 438.831 717.456 441.902 716.352C441.931 716.333 441.955 716.309 441.972 716.279C441.988 716.25 441.997 716.218 441.997 716.185C441.997 716.152 441.988 716.119 441.972 716.09C441.955 716.061 441.931 716.036 441.902 716.018Z" fill="#263238"/>
<path d="M298.015 675.355L237.105 638.661C237.105 638.661 269.63 595.094 294.015 572.41C318.4 549.725 335.627 550.726 323.768 596.461C316.882 623.234 308.281 649.581 298.015 675.355Z" fill="#A107FF"/>
<path d="M247.283 630.955C256.335 635.402 265.27 640.017 274.089 644.799C278.439 647.167 282.825 649.502 287.105 651.971C291.386 654.439 295.807 657.308 300.228 659.844C300.543 660.044 300.228 660.511 299.982 660.344C295.596 658.042 291.035 656.041 286.649 653.672C282.264 651.304 277.667 648.835 273.211 646.366C264.37 641.563 255.668 636.526 247.072 631.288C246.827 630.955 247.037 630.688 247.283 630.955Z" fill="#263238"/>
<path d="M298.015 675.655C300.927 665.914 305.032 656.574 308.541 647C312.049 637.426 315.558 627.685 318.505 617.977C318.491 617.947 318.486 617.914 318.488 617.881C318.491 617.847 318.503 617.816 318.522 617.788C318.541 617.76 318.567 617.737 318.598 617.721C318.629 617.706 318.663 617.697 318.698 617.697C318.733 617.697 318.768 617.706 318.798 617.721C318.829 617.737 318.855 617.76 318.874 617.788C318.894 617.816 318.905 617.847 318.908 617.881C318.911 617.914 318.905 617.947 318.891 617.977C317.628 622.881 316.47 627.985 315.032 632.722C314.33 635.124 313.523 637.559 312.716 639.928C313.242 639.06 313.734 638.193 314.295 637.326C316.006 634.767 317.857 632.295 319.839 629.92C319.839 629.92 320.154 629.92 320.084 630.087C318.698 632.818 317.164 635.479 315.488 638.06C314.295 639.928 312.962 641.729 311.699 643.564L310.19 647.634C307.231 657.325 303.343 666.739 298.576 675.755C298.401 676.089 297.945 675.955 298.015 675.655Z" fill="#263238"/>
<path d="M284.298 683.262C268.755 690.934 251.177 702.31 242.195 711.317C241.914 711.583 242.195 712.017 242.545 711.784C251.527 705.112 278.193 689.633 285.07 685.263C287.21 683.896 288.754 680.993 284.298 683.262Z" fill="#263238"/>
<path d="M557.55 769.561L433.486 772.096L488.01 619.578L612.074 617.043L557.55 769.561Z" fill="#EBEBEB"/>
<path d="M566.038 769.393L441.975 771.895L496.498 619.411L620.562 616.876L566.038 769.393Z" fill="#37474F"/>
<path d="M509.69 619.145C508.891 621.802 507.026 624.054 504.497 625.417C503.34 626.05 502.989 624.583 504.147 623.982C505.755 623.09 506.994 621.701 507.655 620.046C507.655 619.746 507.866 619.445 507.936 619.178C508.196 618.238 508.196 617.25 507.936 616.31C507.837 615.897 507.588 615.531 507.234 615.275H506.988C506.712 615.212 506.423 615.212 506.146 615.275C505.608 615.462 505.126 615.771 504.743 616.176C504.261 616.656 503.848 617.195 503.515 617.777L502.989 618.645V618.845C502.975 618.945 502.975 619.045 502.989 619.145C502.977 619.223 502.977 619.301 502.989 619.379H501.234C501.624 618.322 502.167 617.323 502.848 616.41C503.358 615.619 504.042 614.944 504.854 614.432C505.666 613.919 506.586 613.581 507.55 613.441C508.251 613.42 508.934 613.654 509.461 614.093C509.989 614.533 510.321 615.146 510.392 615.809C510.451 616.959 510.21 618.105 509.69 619.145Z" fill="#C7C7C7"/>
<path d="M519.409 618.944C518.609 621.601 516.745 623.853 514.216 625.215C513.058 625.849 512.707 624.381 513.865 623.781C515.465 622.879 516.7 621.493 517.374 619.845C517.488 619.565 517.571 619.274 517.619 618.977C517.896 618.039 517.896 617.047 517.619 616.108C517.506 615.694 517.246 615.328 516.883 615.074H516.637C516.351 614.994 516.046 614.994 515.76 615.074C515.222 615.261 514.74 615.57 514.356 615.975C513.704 616.745 513.128 617.572 512.637 618.444V618.644C512.629 618.755 512.629 618.866 512.637 618.977C512.622 619.043 512.622 619.112 512.637 619.177H510.883C511.273 618.121 511.816 617.122 512.497 616.209C513.006 615.418 513.691 614.743 514.503 614.23C515.315 613.718 516.235 613.38 517.198 613.24C517.898 613.212 518.581 613.443 519.105 613.885C519.628 614.327 519.951 614.944 520.005 615.608C520.111 616.75 519.906 617.899 519.409 618.944Z" fill="#C7C7C7"/>
<path d="M529.092 618.746C528.715 620.065 528.064 621.299 527.178 622.376C526.293 623.453 525.19 624.351 523.935 625.017C522.777 625.651 522.426 624.183 523.549 623.583C525.154 622.687 526.391 621.299 527.057 619.647C527.057 619.38 527.233 619.079 527.303 618.779C527.58 617.841 527.58 616.848 527.303 615.91C527.189 615.495 526.929 615.13 526.566 614.876C526.485 614.893 526.401 614.893 526.32 614.876C526.034 614.795 525.73 614.795 525.443 614.876C524.905 615.063 524.423 615.372 524.04 615.777C523.577 616.264 523.176 616.801 522.847 617.378C522.651 617.655 522.475 617.945 522.321 618.245V618.479C522.307 618.579 522.307 618.68 522.321 618.779C522.321 618.779 522.321 618.779 522.321 618.979H520.531C520.936 617.929 521.479 616.932 522.145 616.01C522.67 615.233 523.359 614.568 524.168 614.057C524.977 613.546 525.89 613.2 526.847 613.041C527.55 613.013 528.237 613.243 528.767 613.684C529.296 614.125 529.626 614.743 529.689 615.41C529.781 616.552 529.576 617.697 529.092 618.746Z" fill="#C7C7C7"/>
<path d="M538.811 618.543C538.433 619.862 537.783 621.096 536.897 622.173C536.011 623.249 534.909 624.148 533.653 624.814C532.46 625.448 532.109 623.98 533.267 623.38C534.876 622.488 536.114 621.098 536.776 619.443C536.885 619.17 536.979 618.892 537.057 618.609C537.335 617.66 537.335 616.656 537.057 615.707C536.958 615.295 536.709 614.929 536.355 614.673H535.969C535.683 614.59 535.378 614.59 535.092 614.673C534.557 614.866 534.076 615.174 533.688 615.574C533.214 616.052 532.812 616.591 532.495 617.175C532.292 617.46 532.116 617.761 531.969 618.076V618.276C531.958 618.376 531.958 618.476 531.969 618.576C531.969 618.576 531.969 618.576 531.969 618.776H530.215C530.619 617.736 531.162 616.75 531.829 615.841C532.338 615.047 533.022 614.368 533.834 613.85C534.645 613.331 535.565 612.986 536.53 612.838C537.233 612.81 537.921 613.04 538.45 613.481C538.98 613.922 539.31 614.54 539.372 615.207C539.476 616.346 539.283 617.491 538.811 618.543Z" fill="#C7C7C7"/>
<path d="M548.528 618.376C547.729 621.033 545.864 623.285 543.335 624.648C542.177 625.248 541.827 623.781 542.984 623.213C544.586 622.299 545.821 620.902 546.493 619.244C546.602 618.971 546.696 618.692 546.774 618.41C547.034 617.458 547.034 616.459 546.774 615.508C546.682 615.101 546.431 614.744 546.072 614.507H545.826C545.552 614.425 545.258 614.425 544.984 614.507C544.449 614.699 543.969 615.008 543.581 615.408C543.107 615.894 542.695 616.431 542.353 617.009L541.827 617.909V618.11C541.813 618.209 541.813 618.31 541.827 618.41C541.827 618.41 541.827 618.41 541.827 618.61H540.072C540.463 617.564 541.006 616.576 541.686 615.674C542.207 614.891 542.895 614.219 543.704 613.702C544.514 613.185 545.428 612.834 546.388 612.672C547.089 612.652 547.772 612.885 548.299 613.324C548.826 613.764 549.159 614.377 549.23 615.041C549.283 616.19 549.043 617.335 548.528 618.376Z" fill="#C7C7C7"/>
<path d="M558.422 618.178C557.613 620.83 555.751 623.079 553.23 624.45C552.072 625.05 551.721 623.582 552.879 623.015C554.488 622.109 555.725 620.709 556.387 619.046C556.502 618.777 556.584 618.497 556.633 618.212C556.91 617.262 556.91 616.259 556.633 615.309C556.527 614.909 556.279 614.556 555.931 614.309H555.686C555.4 614.228 555.095 614.228 554.809 614.309C554.278 614.509 553.799 614.817 553.405 615.209C552.942 615.696 552.542 616.234 552.212 616.811C552.016 617.099 551.84 617.4 551.686 617.711V617.911C551.673 618.011 551.673 618.112 551.686 618.212C551.671 618.278 551.671 618.346 551.686 618.412H549.932C550.322 617.366 550.865 616.378 551.546 615.476C552.067 614.693 552.754 614.021 553.564 613.504C554.373 612.987 555.287 612.636 556.247 612.474C556.947 612.446 557.63 612.677 558.154 613.119C558.677 613.561 559 614.179 559.054 614.842C559.149 615.988 558.932 617.137 558.422 618.178Z" fill="#C7C7C7"/>
<path d="M567.93 617.976C567.146 620.631 565.293 622.884 562.773 624.248C561.615 624.848 561.264 623.414 562.422 622.813C563.371 622.313 564.198 621.626 564.845 620.798C565.493 619.969 565.946 619.018 566.176 618.01C566.452 617.06 566.452 616.057 566.176 615.107C566.072 614.697 565.809 614.34 565.439 614.107H565.193C564.907 614.026 564.603 614.026 564.316 614.107C563.786 614.307 563.307 614.614 562.913 615.007C562.45 615.494 562.049 616.032 561.72 616.608C561.509 616.909 561.369 617.209 561.194 617.509V617.709C561.18 617.809 561.18 617.91 561.194 618.01C561.194 618.01 561.194 618.01 561.194 618.21H559.404C559.809 617.17 560.351 616.183 561.018 615.274C561.531 614.487 562.217 613.814 563.028 613.302C563.84 612.789 564.758 612.449 565.72 612.305C566.417 612.276 567.1 612.502 567.629 612.936C568.157 613.37 568.491 613.98 568.562 614.64C568.637 615.784 568.421 616.929 567.93 617.976Z" fill="#C7C7C7"/>
<path d="M577.649 617.778C577.266 619.095 576.613 620.327 575.728 621.403C574.843 622.479 573.743 623.379 572.491 624.05C571.298 624.683 570.947 623.216 572.105 622.615C573.722 621.717 574.961 620.314 575.614 618.646C575.723 618.373 575.817 618.094 575.894 617.812C576.173 616.862 576.173 615.859 575.894 614.909C575.793 614.507 575.545 614.152 575.193 613.909H574.982C574.699 613.812 574.388 613.812 574.105 613.909C573.557 614.077 573.071 614.389 572.701 614.809C572.22 615.27 571.818 615.799 571.509 616.377C571.298 616.677 571.158 616.978 570.982 617.278V617.478L570.807 617.778C570.807 617.778 570.807 617.778 570.807 617.978H568.947C569.352 616.939 569.894 615.952 570.561 615.043C571.071 614.253 571.755 613.578 572.567 613.065C573.379 612.552 574.299 612.214 575.263 612.074C575.96 612.045 576.643 612.27 577.172 612.705C577.7 613.139 578.034 613.748 578.105 614.409C578.241 615.551 578.085 616.707 577.649 617.778Z" fill="#C7C7C7"/>
<path d="M587.368 617.608C586.579 620.27 584.711 622.526 582.175 623.88C581.017 624.514 580.666 623.046 581.824 622.445C583.441 621.547 584.681 620.144 585.333 618.476C585.442 618.203 585.536 617.924 585.614 617.642C585.874 616.701 585.874 615.713 585.614 614.773C585.515 614.36 585.266 613.994 584.912 613.739H584.666C584.395 613.641 584.096 613.641 583.824 613.739C583.276 613.907 582.79 614.219 582.421 614.639C581.93 615.112 581.516 615.652 581.193 616.241C581.193 616.507 580.877 616.808 580.666 617.108V617.308C580.653 617.408 580.653 617.509 580.666 617.608C580.666 617.608 580.666 617.608 580.666 617.808H578.912C579.31 616.766 579.853 615.778 580.526 614.873C581.035 614.083 581.72 613.408 582.532 612.895C583.344 612.382 584.264 612.044 585.228 611.904C585.925 611.875 586.608 612.101 587.136 612.535C587.665 612.969 587.999 613.579 588.07 614.239C588.129 615.4 587.888 616.557 587.368 617.608Z" fill="#C7C7C7"/>
<path d="M597.016 617.377C596.217 620.033 594.352 622.286 591.824 623.648C590.666 624.282 590.315 622.814 591.473 622.214C593.082 621.307 594.319 619.907 594.981 618.244C595.091 617.971 595.184 617.693 595.262 617.41C595.522 616.47 595.522 615.481 595.262 614.541C595.148 614.135 594.903 613.773 594.56 613.507H594.315C594.028 613.428 593.724 613.428 593.437 613.507C592.899 613.694 592.418 614.003 592.034 614.408C591.556 614.883 591.154 615.422 590.841 616.009C590.645 616.286 590.469 616.576 590.315 616.876V617.076C590.302 617.176 590.302 617.277 590.315 617.377C590.3 617.443 590.3 617.511 590.315 617.577H588.561C588.958 616.534 589.501 615.547 590.175 614.641C590.684 613.851 591.368 613.176 592.18 612.663C592.992 612.15 593.912 611.812 594.876 611.672C595.57 611.644 596.249 611.871 596.771 612.305C597.294 612.74 597.62 613.35 597.683 614.007C597.773 615.167 597.543 616.328 597.016 617.377Z" fill="#C7C7C7"/>
<path d="M606.774 617.177C606.391 618.493 605.738 619.725 604.853 620.802C603.968 621.878 602.868 622.777 601.616 623.448C600.459 624.082 600.108 622.614 601.266 622.014C602.215 621.514 603.042 620.827 603.689 619.998C604.337 619.17 604.79 618.219 605.02 617.21C605.297 616.272 605.297 615.279 605.02 614.341C604.906 613.926 604.646 613.561 604.283 613.307H604.037C603.751 613.227 603.446 613.227 603.16 613.307C602.622 613.494 602.14 613.803 601.757 614.208C601.278 614.683 600.876 615.222 600.564 615.809C600.368 616.086 600.192 616.376 600.037 616.676V616.877C600.024 616.976 600.024 617.077 600.037 617.177C600.037 617.177 600.037 617.177 600.037 617.377H598.283C598.659 616.315 599.203 615.313 599.897 614.408C600.401 613.62 601.08 612.946 601.886 612.434C602.692 611.921 603.605 611.581 604.564 611.439C605.261 611.41 605.944 611.636 606.472 612.07C607.001 612.504 607.335 613.114 607.406 613.774C607.529 614.942 607.31 616.119 606.774 617.177Z" fill="#C7C7C7"/>
<path d="M616.492 616.977C616.109 618.294 615.456 619.526 614.571 620.602C613.686 621.678 612.586 622.578 611.334 623.249C610.141 623.882 609.79 622.415 610.948 621.814C612.557 620.922 613.795 619.533 614.457 617.878C614.457 617.578 614.667 617.277 614.738 617.011C614.998 616.07 614.998 615.082 614.738 614.142C614.61 613.733 614.353 613.372 614.001 613.108H613.825H613.615C613.326 613.042 613.026 613.042 612.738 613.108C612.199 613.294 611.718 613.604 611.334 614.008C610.852 614.481 610.45 615.021 610.141 615.609C609.945 615.887 609.769 616.177 609.615 616.477V616.677C609.602 616.777 609.602 616.877 609.615 616.977C609.601 617.054 609.601 617.133 609.615 617.211H607.545C607.95 616.161 608.492 615.163 609.159 614.242C609.668 613.452 610.353 612.777 611.165 612.264C611.977 611.751 612.897 611.413 613.86 611.273C614.564 611.244 615.251 611.475 615.78 611.916C616.31 612.357 616.64 612.975 616.702 613.641C616.918 614.753 616.845 615.898 616.492 616.977Z" fill="#C7C7C7"/>
<path d="M612.631 651.369C618.491 664.413 633.894 680.925 634.806 691.4C635.108 693.985 634.532 696.594 633.162 698.845C631.792 701.096 629.7 702.871 627.192 703.91C627.192 703.91 637.964 709.514 637.121 719.155C636.665 724.159 627.929 727.861 627.929 727.861C630.268 729.265 632.158 731.251 633.395 733.603C634.632 735.955 635.168 738.584 634.946 741.205C633.894 747.877 625.298 750.712 625.298 750.712C625.298 750.712 631.087 758.952 627.683 765.557C620.666 778.901 558.704 776.632 550.003 754.549C545.968 744.241 561.09 745.575 561.09 745.575C561.09 745.575 539.828 738.636 540.039 726.46C540.249 714.284 559.757 717.187 559.757 717.187C559.757 717.187 539.302 710.348 540.881 697.672C542.46 684.528 561.511 690.599 561.511 690.599C561.511 690.599 548.073 681.192 551.547 671.785C557.336 656.273 582.633 677.022 596.422 674.454L604.842 653.337L612.631 651.369Z" fill="#FFA698"/>
<path d="M624.282 670.452C619.861 657.642 636.948 642.664 634.597 629.854C631.404 612.507 610.317 628.587 604.774 653.406L604.002 673.421L624.282 670.452Z" fill="#FFA698"/>
<path d="M624.105 751.381C624.152 751.381 624.197 751.399 624.229 751.43C624.262 751.461 624.281 751.504 624.281 751.548C624.281 751.592 624.262 751.635 624.229 751.666C624.197 751.697 624.152 751.715 624.105 751.715C602.692 755.906 580.444 753.8 560.319 745.677C559.688 745.41 559.898 744.309 560.635 744.476C581.325 749.704 602.708 752.031 624.105 751.381Z" fill="#263238"/>
<path d="M628.247 728.027C628.493 728.027 628.493 728.394 628.247 728.427C604.595 732.827 580.067 729.041 559.093 717.753C558.356 717.319 558.146 716.285 559.093 716.685C573.619 723.724 608.178 728.894 628.247 728.027Z" fill="#263238"/>
<path d="M560.18 689.332C580.81 700.207 603.02 703.677 626.352 704.144C626.632 704.144 626.597 704.544 626.352 704.611C614.879 707.346 600.037 705.578 588.599 703.276C577.938 701.292 568.008 696.692 559.794 689.933C559.478 689.766 559.759 689.099 560.18 689.332Z" fill="#263238"/>
<path d="M327.732 550.491C328.609 554.061 355.801 576.678 373.098 575.911C378.677 575.678 369.063 547.222 369.063 547.222L369.59 545.087L376.607 515.064L339.591 492.413L334.223 489.411C334.223 489.411 332.855 497.751 331.276 508.126C331.276 508.593 331.276 509.093 331.03 509.593C330.784 510.094 330.82 510.728 330.749 511.295C330.469 512.829 330.223 514.43 330.013 515.998C329.802 517.566 329.662 518.367 329.521 519.634C329.381 520.902 329.206 522.136 329.03 523.404C327.94 532.394 327.506 541.445 327.732 550.491Z" fill="#FFA698"/>
<path d="M331.35 508.126C334.525 516.554 339.59 524.226 346.193 530.608C352.797 536.99 360.781 541.931 369.593 545.087L376.61 515.064L339.595 492.413L334.227 489.411C334.227 489.411 332.928 497.751 331.35 508.126Z" fill="#263238"/>
<path d="M425.381 477.503C421.136 531.312 386.787 534.981 374.542 534.214C363.49 533.413 325.877 529.343 324.228 475.402C322.579 421.46 350.262 406.315 375.7 406.882C401.137 407.45 429.592 423.662 425.381 477.503Z" fill="#FFA698"/>
<path d="M325.733 471.664C339.03 473.833 342.363 453.817 342.363 453.817C342.363 453.817 357.731 454.818 362.818 431.767C364.966 436.889 368.333 441.467 372.655 445.142C376.978 448.818 382.137 451.49 387.729 452.95C391.975 454.218 379.239 441.274 379.239 441.274C379.239 441.274 394.115 458.988 427.482 458.287C429.833 458.287 430.499 424.928 406.992 409.984C383.484 395.039 359.485 397.741 341.17 410.551C336.314 412.092 331.931 414.745 328.407 418.276C324.882 421.807 322.325 426.108 320.961 430.8C316.014 447.479 320.54 470.83 325.733 471.664Z" fill="#263238"/>
<path d="M333.872 476.435C333.872 476.435 324.398 457.921 315.767 460.823C307.136 463.726 312.259 489.279 320.925 494.182C322.006 494.863 323.221 495.329 324.497 495.552C325.773 495.775 327.082 495.75 328.348 495.479C329.613 495.208 330.808 494.696 331.859 493.975C332.911 493.253 333.798 492.336 334.468 491.28L333.872 476.435Z" fill="#FFA698"/>
<path d="M317.383 468.096C317.383 468.096 317.172 468.096 317.383 468.329C323.488 471.865 325.944 478.137 327.312 484.508C327.043 483.826 326.621 483.208 326.075 482.697C325.529 482.186 324.872 481.794 324.15 481.55C323.429 481.305 322.659 481.213 321.897 481.281C321.134 481.348 320.395 481.573 319.733 481.94C319.523 481.94 319.733 482.307 319.733 482.273C320.945 482.108 322.18 482.301 323.273 482.826C324.365 483.351 325.26 484.183 325.838 485.209C326.77 486.932 327.511 488.744 328.049 490.613C328.259 491.213 329.382 491.08 329.242 490.413V490.246C330.785 482.373 326.189 470.297 317.383 468.096Z" fill="#263238"/>
<path d="M415.45 466.894C414.151 466.56 412.994 466.06 411.941 465.626C410.575 465.356 409.341 464.664 408.432 463.658C408.212 463.286 408.127 462.856 408.19 462.433C408.254 462.011 408.462 461.621 408.783 461.323C409.509 460.83 410.36 460.53 411.248 460.454C412.136 460.378 413.029 460.528 413.836 460.889C415.593 461.376 417.095 462.471 418.046 463.958C418.27 464.321 418.37 464.74 418.333 465.159C418.296 465.578 418.123 465.976 417.838 466.297C417.554 466.619 417.171 466.849 416.743 466.956C416.316 467.063 415.864 467.041 415.45 466.894Z" fill="#263238"/>
<path d="M379.208 461.724C380.474 461.709 381.739 461.631 382.997 461.49C384.383 461.585 385.763 461.245 386.927 460.523C387.248 460.225 387.456 459.834 387.52 459.412C387.583 458.99 387.498 458.559 387.278 458.188C386.726 457.518 385.995 457.001 385.163 456.69C384.33 456.379 383.425 456.286 382.541 456.42C380.72 456.424 378.966 457.079 377.629 458.254C377.327 458.543 377.123 458.911 377.043 459.311C376.964 459.711 377.012 460.124 377.182 460.498C377.352 460.871 377.636 461.188 377.997 461.406C378.358 461.625 378.78 461.735 379.208 461.724Z" fill="#263238"/>
<path d="M385.239 476.335C385.239 476.169 384.924 476.335 384.888 476.602C384.573 480.272 383.555 484.408 379.906 485.242V485.442C384.222 485.342 385.555 479.838 385.239 476.335Z" fill="#263238"/>
<path d="M382.296 472.133C376.155 470.999 374.226 482.708 379.91 483.775C385.594 484.843 387.418 473.1 382.296 472.133Z" fill="#263238"/>
<path d="M379.764 472.397C378.571 472.897 377.308 473.898 376.01 473.831C374.711 473.765 373.554 472.33 372.782 471.029C372.782 471.029 372.571 471.029 372.536 471.029C372.115 473.264 372.536 475.7 375.132 476.4C377.729 477.101 379.378 475.333 380.325 473.064C380.501 472.864 380.255 472.197 379.764 472.397Z" fill="#263238"/>
<path d="M406.046 479.237C406.046 479.237 406.292 479.437 406.292 479.571C405.52 483.207 405.309 487.444 408.537 489.178C408.537 489.178 408.537 489.412 408.537 489.378C404.362 488.178 404.713 482.506 406.046 479.237Z" fill="#263238"/>
<path d="M410.115 475.969C416.326 476.503 414.747 488.278 408.993 487.778C403.238 487.278 404.888 475.535 410.115 475.969Z" fill="#263238"/>
<path d="M412.571 477.068C413.484 477.801 414.291 479.036 415.448 479.269C416.606 479.503 417.975 478.335 418.957 477.234C418.957 477.234 419.167 477.234 418.957 477.234C418.711 479.503 417.624 481.771 415.448 481.905C413.273 482.038 411.94 479.936 411.94 477.635C411.799 477.501 412.22 476.767 412.571 477.068Z" fill="#263238"/>
<path d="M380.539 505.657C381.24 506.658 381.907 507.993 383.24 508.36C384.652 508.638 386.109 508.638 387.521 508.36C387.521 508.36 387.731 508.36 387.521 508.593C386.822 509.187 385.969 509.594 385.05 509.77C384.131 509.946 383.179 509.885 382.293 509.594C381.556 509.256 380.942 508.717 380.529 508.046C380.116 507.374 379.924 506.6 379.977 505.824C380.118 505.524 380.434 505.491 380.539 505.657Z" fill="#263238"/>
<path d="M394.888 501.387C393.238 503.032 391.173 504.249 388.888 504.923C387.645 505.305 386.307 505.305 385.064 504.923C382.397 503.955 382.573 501.587 383.31 499.552C383.711 498.496 384.241 497.489 384.889 496.55C387.595 499.134 391.098 500.829 394.888 501.387Z" fill="#263238"/>
<path d="M388.888 504.924C387.645 505.307 386.307 505.307 385.064 504.924C382.397 503.957 382.573 501.589 383.31 499.554C384.731 499.741 386.048 500.369 387.057 501.34C388.065 502.311 388.709 503.571 388.888 504.924Z" fill="#FF9CBD"/>
<path d="M424.467 424.128C417.941 422.66 381.662 423.661 365.347 430.333C349.033 437.005 320.087 459.322 318.613 460.356C317.139 461.39 309.666 404.646 358.155 394.272C411.064 383.163 424.467 424.128 424.467 424.128Z" fill="#A107FF"/>
<path d="M321.385 458.221C321.385 458.221 353.453 418.19 371.277 408.816C389.101 399.442 428.993 394.438 453.659 404.78C472.921 412.819 425.941 436.371 425.941 436.371C425.509 434.431 424.605 432.615 423.301 431.068C421.997 429.521 420.329 428.287 418.432 427.464C406.433 422.927 383.627 426.43 370.61 430.566C354.26 435.87 321.385 458.221 321.385 458.221Z" fill="#A107FF"/>
<path opacity="0.2" d="M321.385 458.221C321.385 458.221 353.453 418.19 371.277 408.816C389.101 399.442 428.993 394.438 453.659 404.78C472.921 412.819 425.941 436.371 425.941 436.371C425.509 434.431 424.605 432.615 423.301 431.068C421.997 429.521 420.329 428.287 418.432 427.464C406.433 422.927 383.627 426.43 370.61 430.566C354.26 435.87 321.385 458.221 321.385 458.221Z" fill="black"/>
<path d="M368.957 547.156L361.309 571.808L327.24 544.587L319.416 554.995C319.416 554.995 354.502 600.03 354.502 597.828L362.747 576.445L379.027 589.355L374.255 553.694L368.957 547.156Z" fill="#A107FF"/>
<path d="M377.905 571.574C376.888 565.736 376.081 559.798 374.783 553.993C374.783 553.793 374.397 553.727 374.362 553.993C373.695 559.798 377.625 582.215 378.151 587.619C377.449 587.052 363.099 576.344 362.994 576.544C361.099 579.88 355.029 595.592 354.644 596.993C349.065 589.821 327.908 563.934 321.522 557.263C321.49 557.218 321.44 557.188 321.384 557.179C321.328 557.169 321.271 557.182 321.224 557.213C321.178 557.243 321.146 557.291 321.136 557.344C321.126 557.397 321.139 557.452 321.172 557.496C326.224 565.135 354.293 600.062 354.644 599.929C357.923 592.538 360.792 584.988 363.24 577.311C365.731 579.713 380.361 591.956 380.326 591.055C379.94 585.017 378.888 577.578 377.905 571.574Z" fill="#263238"/>
<defs>
<linearGradient id="paint0_linear_344_3146" x1="781" y1="0" x2="781" y2="1571" gradientUnits="userSpaceOnUse">
<stop stop-color="#E6B0FF"/>
<stop offset="1" stop-color="#BD30FF"/>
</linearGradient>
</defs>
</svg>
