<svg width="538" height="312" viewBox="0 0 538 312" fill="none" xmlns="http://www.w3.org/2000/svg">
<path d="M116.379 207.354H9.1543V290.053H116.379V207.354Z" fill="#EBEBEB"/>
<path d="M89.5183 289.465C89.3958 289.465 89.2979 271.038 89.2979 248.3C89.2979 225.562 89.3958 207.126 89.5183 207.126C89.6408 207.126 89.7306 225.562 89.7306 248.3C89.7306 271.038 89.6326 289.465 89.5183 289.465Z" fill="#E0E0E0"/>
<path d="M107.292 271.227H99.0703V280.518H107.292V271.227Z" fill="#FAFAFA"/>
<path d="M54.0516 207.568H41.8701V225.212H54.0516V207.568Z" fill="#E0E0E0"/>
<path d="M54.0516 272.157H41.8701V289.801H54.0516V272.157Z" fill="#E0E0E0"/>
<path d="M133.15 124.844H25.9248V207.542H133.15V124.844Z" fill="#EBEBEB"/>
<path d="M106.281 206.955C106.166 206.955 106.068 188.527 106.068 165.789C106.068 143.051 106.166 124.624 106.281 124.624C106.395 124.624 106.493 143.051 106.493 165.789C106.493 188.527 106.403 206.955 106.281 206.955Z" fill="#E0E0E0"/>
<path d="M124.054 188.715H115.832V198.006H124.054V188.715Z" fill="#FAFAFA"/>
<path d="M70.8124 125.056H58.6309V142.7H70.8124V125.056Z" fill="#E0E0E0"/>
<path d="M70.8124 189.654H58.6309V207.298H70.8124V189.654Z" fill="#E0E0E0"/>
<path d="M125.776 58.5645H39.5586V125.056H125.776V58.5645Z" fill="#F5F5F5"/>
<path d="M104.173 124.591C104.084 124.591 104.002 109.764 104.002 91.4833C104.002 73.2029 104.084 58.3843 104.173 58.3843C104.263 58.3843 104.345 73.2029 104.345 91.4833C104.345 109.764 104.271 124.591 104.173 124.591Z" fill="#E0E0E0"/>
<path d="M118.469 109.919H111.855V117.39H118.469V109.919Z" fill="#FAFAFA"/>
<path d="M75.6545 58.7354H65.8652V72.9253H75.6545V58.7354Z" fill="#E0E0E0"/>
<path d="M75.6545 110.67H65.8652V124.86H75.6545V110.67Z" fill="#E0E0E0"/>
<path d="M510.636 104.727H429.652V167.185H510.636V104.727Z" fill="#F5F5F5"/>
<path d="M490.348 166.752C490.258 166.752 490.185 152.824 490.185 135.654C490.185 118.484 490.258 104.563 490.348 104.563C490.438 104.563 490.503 118.484 490.503 135.654C490.503 152.824 490.438 166.752 490.348 166.752Z" fill="#E0E0E0"/>
<path d="M503.763 152.972H497.558V159.993H503.763V152.972Z" fill="#FAFAFA"/>
<path d="M463.56 104.89H454.358V118.214H463.56V104.89Z" fill="#E0E0E0"/>
<path d="M463.56 153.681H454.358V167.005H463.56V153.681Z" fill="#E0E0E0"/>
<path d="M537.774 239.001H444.438V310.996H537.774V239.001Z" fill="#EBEBEB"/>
<path d="M514.425 310.482C514.327 310.482 514.245 294.439 514.245 274.648C514.245 254.857 514.327 238.806 514.425 238.806C514.523 238.806 514.612 254.849 514.612 274.648C514.612 294.447 514.498 310.482 514.425 310.482Z" fill="#E0E0E0"/>
<path d="M529.864 294.602H522.712V302.693H529.864V294.602Z" fill="#FAFAFA"/>
<path d="M483.523 239.181H472.917V254.538H483.523V239.181Z" fill="#E0E0E0"/>
<path d="M483.523 295.417H472.917V310.775H483.523V295.417Z" fill="#E0E0E0"/>
<path d="M524.884 167.193H431.547V239.188H524.884V167.193Z" fill="#EBEBEB"/>
<path d="M501.5 238.674C501.394 238.674 501.312 222.63 501.312 202.839C501.312 183.049 501.394 166.997 501.5 166.997C501.606 166.997 501.688 183.04 501.688 202.839C501.688 222.638 501.606 238.674 501.5 238.674Z" fill="#E0E0E0"/>
<path d="M516.972 222.794H509.82V230.885H516.972V222.794Z" fill="#FAFAFA"/>
<path d="M470.629 167.373H460.023V182.731H470.629V167.373Z" fill="#E0E0E0"/>
<path d="M470.629 223.61H460.023V238.968H470.629V223.61Z" fill="#E0E0E0"/>
<path d="M352.743 105.731H271.759V168.19H352.743V105.731Z" fill="#F5F5F5"/>
<path d="M332.454 167.757C332.364 167.757 332.299 153.828 332.299 136.658C332.299 119.488 332.364 105.567 332.454 105.567C332.544 105.567 332.617 119.447 332.617 136.658C332.617 153.869 332.544 167.757 332.454 167.757Z" fill="#E0E0E0"/>
<path d="M345.876 153.975H339.671V160.996H345.876V153.975Z" fill="#FAFAFA"/>
<path d="M305.666 105.894H296.465V119.219H305.666V105.894Z" fill="#E0E0E0"/>
<path d="M305.666 154.685H296.465V168.009H305.666V154.685Z" fill="#E0E0E0"/>
<path d="M359.926 43.4355H278.942V105.894H359.926V43.4355Z" fill="#EBEBEB"/>
<path d="M339.638 105.453C339.548 105.453 339.475 91.5737 339.475 74.3629C339.475 57.152 339.548 43.2642 339.638 43.2642C339.728 43.2642 339.801 57.1439 339.801 74.3629C339.801 91.5819 339.703 105.453 339.638 105.453Z" fill="#E0E0E0"/>
<path d="M353.061 91.6797H346.856V98.7012H353.061V91.6797Z" fill="#FAFAFA"/>
<path d="M312.851 43.5908H303.649V56.9154H312.851V43.5908Z" fill="#E0E0E0"/>
<path d="M312.851 92.3818H303.649V105.706H312.851V92.3818Z" fill="#E0E0E0"/>
<path d="M356.889 0.081543H298.945V44.7742H356.889V0.081543Z" fill="#EBEBEB"/>
<path d="M342.382 44.4641C342.317 44.4641 342.268 34.5033 342.268 22.2157C342.268 9.92808 342.317 0 342.382 0C342.447 0 342.496 9.96074 342.496 22.2484C342.496 34.536 342.439 44.4641 342.382 44.4641Z" fill="#E0E0E0"/>
<path d="M351.984 34.6094H347.542V39.6306H351.984V34.6094Z" fill="#FAFAFA"/>
<path d="M323.211 0.204102H316.63V9.74029H323.211V0.204102Z" fill="#E0E0E0"/>
<path d="M323.211 35.1074H316.63V44.6436H323.211V35.1074Z" fill="#E0E0E0"/>
<path d="M379.89 240.005H286.553V312H379.89V240.005Z" fill="#EBEBEB"/>
<path d="M356.506 311.485C356.4 311.485 356.318 295.442 356.318 275.651C356.318 255.86 356.4 239.809 356.506 239.809C356.612 239.809 356.686 255.852 356.686 275.651C356.686 295.45 356.604 311.485 356.506 311.485Z" fill="#E0E0E0"/>
<path d="M371.97 295.605H364.818V303.697H371.97V295.605Z" fill="#FAFAFA"/>
<path d="M325.628 240.184H315.022V255.541H325.628V240.184Z" fill="#E0E0E0"/>
<path d="M325.628 296.422H315.022V311.779H325.628V296.422Z" fill="#E0E0E0"/>
<path d="M366.989 168.197H273.652V240.192H366.989V168.197Z" fill="#EBEBEB"/>
<path d="M343.615 239.677C343.508 239.677 343.427 223.634 343.427 203.843C343.427 184.052 343.508 168.001 343.615 168.001C343.721 168.001 343.794 184.044 343.794 203.843C343.794 223.642 343.713 239.677 343.615 239.677Z" fill="#E0E0E0"/>
<path d="M359.078 223.799H351.926V231.89H359.078V223.799Z" fill="#FAFAFA"/>
<path d="M312.737 168.379H302.131V183.736H312.737V168.379Z" fill="#E0E0E0"/>
<path d="M312.737 224.615H302.131V239.973H312.737V224.615Z" fill="#E0E0E0"/>
<path d="M164.003 297.737V290.054H6.83559C6.27909 290.054 5.74538 290.275 5.35188 290.668C4.95837 291.062 4.7373 291.595 4.7373 292.152V295.638C4.7373 296.195 4.95837 296.728 5.35188 297.122C5.74538 297.515 6.27909 297.737 6.83559 297.737H11.2118V301.272C11.2118 301.543 11.1584 301.812 11.0545 302.062C10.9507 302.313 10.7986 302.541 10.6068 302.732C10.415 302.924 10.1873 303.076 9.93664 303.18C9.68603 303.284 9.41742 303.337 9.14616 303.337H6.80293C6.26348 303.337 5.74537 303.548 5.35936 303.925C4.97336 304.302 4.7501 304.815 4.7373 305.354V308.906C4.7373 309.453 4.95493 309.979 5.34231 310.366C5.72969 310.754 6.25509 310.971 6.80293 310.971H164.003V303.288H127.369V297.72L164.003 297.737ZM48.883 297.737H58.3049V303.305H48.883V297.737ZM42.6044 303.305H33.1907V297.737H42.6044V303.305ZM64.5589 297.737H73.9726V303.305H64.5589V297.737ZM80.2511 297.737H89.673V303.305H80.2756L80.2511 297.737ZM95.9516 297.737H105.382V303.305H95.976L95.9516 297.737ZM17.4658 297.737H26.9122V303.305H17.4903L17.4658 297.737ZM121.066 303.305H111.668V297.737H121.09L121.066 303.305Z" fill="#E0E0E0"/>
<path d="M158.702 137.572H73.6436V203.183H158.702V137.572Z" fill="#FF725E"/>
<path opacity="0.3" d="M158.702 137.572H73.6436V203.183H158.702V137.572Z" fill="black"/>
<path d="M137.393 202.717C137.319 202.717 137.254 188.095 137.254 170.059C137.254 152.024 137.319 137.401 137.393 137.401C137.466 137.401 137.532 152.024 137.532 170.059C137.532 188.095 137.466 202.717 137.393 202.717Z" fill="#263238"/>
<path d="M151.492 188.249H144.969V195.622H151.492V188.249Z" fill="#F5F5F5"/>
<path d="M109.249 137.744H99.5908V151.746H109.249V137.744Z" fill="#263238"/>
<path d="M109.249 188.983H99.5908V202.986H109.249V188.983Z" fill="#263238"/>
<path d="M157.966 137.573H157.746H157.109H154.66L145.621 137.614H115.813H85.9958L76.9658 137.565H74.5165H73.8796H73.6592H73.8796H74.5165H76.9658L85.9958 137.524H115.813H145.621L154.66 137.565H157.109H157.746L157.966 137.573Z" fill="#263238"/>
<path d="M229.512 137.491H144.454V203.101H229.512V137.491Z" fill="#FF725E"/>
<path d="M208.203 202.636C208.13 202.636 208.064 188.013 208.064 169.978C208.064 151.942 208.13 137.319 208.203 137.319C208.277 137.319 208.342 151.934 208.342 169.978C208.342 188.021 208.252 202.636 208.203 202.636Z" fill="#263238"/>
<path d="M222.303 188.168H215.779V195.541H222.303V188.168Z" fill="#F5F5F5"/>
<path opacity="0.5" d="M180.059 137.663H170.4V151.665H180.059V137.663Z" fill="white"/>
<path opacity="0.5" d="M180.059 188.903H170.4V202.906H180.059V188.903Z" fill="white"/>
<path d="M228.769 137.491H228.557H227.912H225.462L216.432 137.532H186.624H156.807L147.769 137.491H145.319H144.674H144.462H144.674H145.319H147.769L156.807 137.442L186.624 137.401L216.432 137.442L225.462 137.491H227.912H228.557H228.769Z" fill="#263238"/>
<path d="M234.289 71.8809H149.23V137.491H234.289V71.8809Z" fill="#FF725E"/>
<path d="M212.98 137.025C212.898 137.025 212.841 122.403 212.841 104.367C212.841 86.3317 212.898 71.709 212.98 71.709C213.061 71.709 213.118 86.3235 213.118 104.367C213.118 122.411 213.053 137.025 212.98 137.025Z" fill="#263238"/>
<path d="M227.08 122.559H220.557V129.931H227.08V122.559Z" fill="#F5F5F5"/>
<path d="M184.836 72.0522H175.178V86.0544H184.836V72.0522Z" fill="#263238"/>
<path d="M184.836 123.293H175.178V137.295H184.836V123.293Z" fill="#263238"/>
<path d="M233.563 71.8483C233.493 71.8605 233.421 71.8605 233.351 71.8483H232.706H230.256H221.226L191.418 71.8891L161.601 71.8483H152.562H150.113H149.468C149.398 71.8605 149.326 71.8605 149.256 71.8483H149.468H150.113H152.562L161.601 71.7993H191.418H221.226L230.256 71.8483H232.706H233.351H233.563Z" fill="#263238"/>
<path d="M225.193 276.231V268.548H68.0342C67.4769 268.548 66.9424 268.769 66.5476 269.162C66.1528 269.555 65.9299 270.089 65.9277 270.646V274.132C65.9299 274.69 66.1528 275.223 66.5476 275.617C66.9424 276.01 67.4769 276.231 68.0342 276.231H72.4104V279.725C72.4104 280.275 72.1919 280.803 71.803 281.191C71.4141 281.58 70.8866 281.799 70.3366 281.799H68.0015C67.4529 281.799 66.9267 282.016 66.538 282.403C66.1493 282.791 65.9299 283.316 65.9277 283.865V287.392C65.9299 287.94 66.1493 288.466 66.538 288.853C66.9267 289.24 67.4529 289.457 68.0015 289.457H225.193V281.774H188.559V276.206L225.193 276.231ZM110.073 276.231H119.487V281.799H110.082L110.073 276.231ZM103.795 281.799H94.3812V276.231H103.803L103.795 281.799ZM125.79 276.231H135.212V281.799H125.79V276.231ZM141.491 276.231H150.904V281.799H141.474L141.491 276.231ZM157.183 276.231H166.613V281.799H157.166L157.183 276.231ZM78.7052 276.231H88.119V281.799H78.6889L78.7052 276.231ZM182.297 281.799H172.859V276.231H182.281L182.297 281.799Z" fill="#455A64"/>
<path d="M351.874 143.867C352.131 143.604 352.334 143.292 352.469 142.95C352.604 142.608 352.67 142.242 352.663 141.874C352.655 141.506 352.574 141.143 352.425 140.807C352.275 140.471 352.06 140.167 351.792 139.915L325.282 114.858C324.752 114.361 324.053 114.084 323.326 114.084C322.6 114.084 321.901 114.361 321.371 114.858C321.092 115.117 320.868 115.429 320.712 115.776C320.555 116.122 320.47 116.497 320.46 116.877C320.45 117.257 320.516 117.636 320.654 117.99C320.793 118.344 321 118.667 321.265 118.941L331.838 130.061L326.335 135.359L323.469 133.082L303.474 155.983L292.787 145.704L279.903 183.596L282.459 235.032H312.096L310.022 173.904L329.903 145.59L330.058 138.854L335.773 133L348.094 144.006C348.628 144.481 349.325 144.733 350.04 144.707C350.755 144.681 351.432 144.38 351.931 143.867H351.874Z" fill="#263238"/>
<path d="M271.937 244.56C271.823 244.56 271.725 197.631 271.725 139.752C271.725 81.8738 271.823 34.9277 271.937 34.9277C272.051 34.9277 272.149 81.8493 272.149 139.752C272.149 197.655 272.027 244.56 271.937 244.56Z" fill="#263238"/>
<path d="M338.272 231.342L356.3 181.253L349.523 178.51V168.835L398.813 168.075C399.974 168.053 401.089 167.609 401.948 166.827C402.807 166.044 403.352 164.976 403.483 163.822L410.733 99.4688C410.895 98.0297 411.582 96.7008 412.662 95.7355C413.741 94.7703 415.138 94.2362 416.587 94.2354C417.381 94.2347 418.167 94.3947 418.897 94.7057C419.628 95.0167 420.288 95.4724 420.838 96.0452C421.388 96.618 421.817 97.2962 422.098 98.0389C422.379 98.7816 422.506 99.5735 422.473 100.367L419.714 166.679L445.448 166.818L446.322 178.91L370.212 181.89L350.364 230.624L338.272 231.342Z" fill="#455A64"/>
<path d="M349.613 230.118L285.538 230.624V234.894L312.081 234.551L354.357 234.225L456.855 219.757L445.237 175.538H375.838C374.638 175.52 373.452 175.795 372.382 176.338C371.313 176.882 370.391 177.677 369.698 178.657L349.613 230.118Z" fill="#263238"/>
<path d="M318.906 45.1991L272.368 193.737L272.695 235.057H287.448V193.998L325.609 45.5992L429.005 45.0195L448.779 199.599H460.447L436.386 46.1054C436.007 44.0976 434.939 42.2851 433.367 40.9807C431.794 39.6764 429.815 38.9622 427.772 38.9614H327.299C325.416 38.9606 323.582 39.567 322.07 40.6906C320.558 41.8142 319.449 43.3952 318.906 45.1991Z" fill="#455A64"/>
<path d="M263.968 282.779V243.1L272.655 235.058L354.3 234.005L368.996 222.052C371.734 219.829 375.102 218.526 378.622 218.329L394.347 217.439C394.347 217.439 401.401 212.581 408.227 207.764C416.872 201.638 427.204 198.346 437.799 198.342H483.055C484.699 198.342 486.275 198.995 487.437 200.157C488.599 201.319 489.252 202.895 489.252 204.539V282.779H263.968Z" fill="#FF725E"/>
<path d="M489.235 269.993H263.167V283.04H489.235V269.993Z" fill="#263238"/>
<path d="M274.866 282.632C274.785 288.161 276.344 293.59 279.348 298.232C282.352 302.874 286.665 306.522 291.742 308.713C296.819 310.904 302.432 311.54 307.87 310.54C313.309 309.541 318.329 306.952 322.295 303.099C326.262 299.247 328.997 294.305 330.155 288.898C331.312 283.491 330.84 277.862 328.799 272.723C326.757 267.584 323.237 263.166 318.684 260.028C314.132 256.89 308.751 255.172 303.222 255.093C295.81 254.986 288.659 257.827 283.342 262.991C278.025 268.155 274.976 275.22 274.866 282.632Z" fill="#263238"/>
<path d="M274.875 282.566C274.875 282.566 274.875 282.607 274.875 282.632C274.833 290.003 277.704 297.092 282.863 302.357C288.022 307.622 295.052 310.637 302.422 310.744C309.793 310.852 316.907 308.044 322.218 302.932C327.528 297.82 330.605 290.817 330.778 283.448C330.778 283.448 330.778 283.399 330.778 283.375L274.875 282.566Z" fill="#263238"/>
<path d="M283.195 282.754C283.145 286.627 284.245 290.427 286.354 293.676C288.463 296.924 291.487 299.474 295.045 301.005C298.602 302.535 302.534 302.977 306.342 302.275C310.151 301.572 313.666 299.757 316.444 297.058C319.221 294.359 321.137 290.898 321.948 287.111C322.76 283.324 322.431 279.381 321.003 275.781C319.575 272.181 317.113 269.085 313.926 266.883C310.74 264.682 306.973 263.474 303.1 263.413C300.522 263.372 297.961 263.84 295.564 264.79C293.168 265.741 290.982 267.155 289.133 268.952C287.284 270.749 285.807 272.893 284.788 275.261C283.769 277.63 283.228 280.176 283.195 282.754Z" fill="#FAFAFA"/>
<path d="M303.099 263.413C300.521 263.372 297.961 263.84 295.564 264.79C293.167 265.741 290.981 267.155 289.132 268.952C287.283 270.749 285.807 272.893 284.788 275.261C283.769 277.63 283.227 280.176 283.194 282.754L322.441 283.318C322.482 280.74 322.014 278.179 321.064 275.782C320.113 273.385 318.699 271.2 316.902 269.351C315.105 267.501 312.961 266.025 310.592 265.006C308.224 263.987 305.678 263.446 303.099 263.413Z" fill="#E0E0E0"/>
<path d="M290.86 282.869C290.831 285.233 291.504 287.552 292.793 289.534C294.082 291.515 295.93 293.07 298.103 294.001C300.276 294.933 302.676 295.199 305 294.766C307.324 294.334 309.468 293.221 311.16 291.571C312.852 289.92 314.016 287.804 314.506 285.491C314.996 283.179 314.789 280.773 313.911 278.578C313.033 276.383 311.524 274.497 309.575 273.16C307.626 271.822 305.324 271.093 302.96 271.063C299.791 271.026 296.736 272.249 294.467 274.462C292.198 276.676 290.901 279.7 290.86 282.869Z" fill="#263238"/>
<path d="M411.655 282.632C411.574 288.161 413.133 293.59 416.137 298.232C419.141 302.874 423.454 306.522 428.531 308.713C433.608 310.904 439.221 311.54 444.659 310.54C450.098 309.541 455.118 306.952 459.084 303.099C463.051 299.247 465.786 294.305 466.944 288.898C468.101 283.491 467.629 277.862 465.588 272.723C463.546 267.584 460.026 263.166 455.474 260.028C450.921 256.89 445.54 255.172 440.011 255.093C432.599 254.986 425.448 257.827 420.131 262.991C414.814 268.155 411.765 275.22 411.655 282.632Z" fill="#263238"/>
<path d="M411.665 282.566C411.665 282.566 411.665 282.607 411.665 282.632C411.622 290.003 414.493 297.092 419.652 302.357C424.811 307.622 431.841 310.637 439.211 310.744C446.582 310.852 453.696 308.044 459.007 302.932C464.317 297.82 467.394 290.817 467.567 283.448C467.567 283.448 467.567 283.399 467.567 283.375L411.665 282.566Z" fill="#263238"/>
<path d="M419.983 282.754C419.934 286.627 421.033 290.427 423.142 293.676C425.251 296.924 428.275 299.474 431.833 301.005C435.39 302.535 439.322 302.977 443.13 302.275C446.939 301.572 450.454 299.757 453.232 297.058C456.009 294.359 457.925 290.898 458.736 287.111C459.548 283.324 459.219 279.381 457.791 275.781C456.363 272.181 453.901 269.085 450.714 266.883C447.528 264.682 443.761 263.474 439.888 263.413C437.31 263.372 434.749 263.84 432.352 264.79C429.956 265.741 427.77 267.155 425.921 268.952C424.072 270.749 422.595 272.893 421.576 275.261C420.557 277.63 420.016 280.176 419.983 282.754Z" fill="#FAFAFA"/>
<path d="M439.889 263.413C437.31 263.372 434.75 263.84 432.353 264.79C429.956 265.741 427.77 267.155 425.921 268.952C424.072 270.749 422.596 272.893 421.577 275.261C420.558 277.63 420.016 280.176 419.983 282.754L459.23 283.318C459.271 280.74 458.803 278.179 457.853 275.782C456.902 273.385 455.488 271.2 453.691 269.351C451.894 267.501 449.75 266.025 447.382 265.006C445.013 263.987 442.467 263.446 439.889 263.413Z" fill="#E0E0E0"/>
<path d="M427.657 282.869C427.628 285.231 428.3 287.55 429.589 289.531C430.877 291.512 432.723 293.066 434.895 293.998C437.066 294.93 439.465 295.198 441.788 294.767C444.111 294.336 446.255 293.227 447.948 291.578C449.641 289.93 450.807 287.816 451.3 285.505C451.792 283.194 451.588 280.789 450.715 278.594C449.841 276.398 448.336 274.511 446.39 273.171C444.444 271.83 442.144 271.097 439.782 271.063C438.21 271.04 436.649 271.328 435.189 271.909C433.728 272.49 432.397 273.354 431.27 274.451C430.144 275.547 429.245 276.855 428.625 278.3C428.005 279.744 427.676 281.297 427.657 282.869Z" fill="#263238"/>
<path d="M475.983 263.143C475.932 263.081 475.886 263.016 475.844 262.947L475.485 262.359L474.914 261.396C474.664 260.955 474.391 260.527 474.097 260.114C472.304 257.417 470.187 254.949 467.794 252.766C467.076 252.039 466.202 251.411 465.345 250.684C464.487 249.957 463.508 249.337 462.528 248.643C461.548 247.949 460.471 247.312 459.311 246.749C458.748 246.455 458.176 246.136 457.588 245.851L455.751 245.034C453.145 243.935 450.43 243.114 447.652 242.585C444.67 242.011 441.632 241.781 438.598 241.899C432.716 242.227 426.982 243.862 421.811 246.683L420.064 247.663C419.501 248.006 418.97 248.382 418.431 248.725C417.329 249.394 416.382 250.211 415.41 250.921C414.439 251.631 413.598 252.44 412.798 253.215C411.998 253.991 411.214 254.734 410.561 255.526C408.385 257.928 406.512 260.587 404.984 263.445C404.728 263.883 404.499 264.335 404.298 264.801C404.111 265.192 403.947 265.527 403.817 265.813L403.515 266.433C403.483 266.505 403.445 266.573 403.4 266.638C403.414 266.561 403.439 266.487 403.474 266.417L403.735 265.78L404.176 264.752C404.369 264.279 404.59 263.818 404.837 263.372C406.319 260.466 408.168 257.763 410.34 255.33C410.985 254.513 411.794 253.795 412.569 252.978C413.345 252.162 414.276 251.443 415.19 250.643C416.104 249.843 417.117 249.1 418.219 248.414C418.758 248.063 419.297 247.688 419.852 247.337L421.607 246.332C424.118 244.971 426.764 243.876 429.502 243.067C432.451 242.2 435.489 241.674 438.557 241.499C444.503 241.267 450.425 242.369 455.89 244.724L457.735 245.54C458.331 245.826 458.903 246.153 459.474 246.455C460.642 247.026 461.663 247.761 462.74 248.382C463.818 249.002 464.692 249.753 465.565 250.464C466.439 251.174 467.296 251.843 468.015 252.578C470.405 254.797 472.501 257.313 474.252 260.065C474.548 260.485 474.821 260.921 475.069 261.372L475.599 262.359C475.738 262.613 475.844 262.808 475.926 262.972C476.008 263.135 475.991 263.135 475.983 263.143Z" fill="#263238"/>
<path d="M339.318 268.286C339.27 268.218 339.232 268.144 339.203 268.066C339.138 267.894 339.048 267.674 338.934 267.396L338.493 266.31C338.297 265.886 338.077 265.396 337.832 264.849C336.409 261.763 334.636 258.851 332.549 256.17C329.505 252.151 325.621 248.844 321.168 246.479C318.501 245.177 315.673 244.235 312.758 243.678C309.636 243.035 306.451 242.745 303.263 242.813C300.076 242.858 296.904 243.266 293.809 244.029C290.929 244.751 288.153 245.834 285.546 247.254C281.093 249.622 277.111 252.785 273.797 256.586C271.594 259.163 269.677 261.972 268.082 264.963C267.511 266.025 267.078 266.857 266.808 267.413C266.678 267.682 266.563 267.894 266.482 268.058C266.451 268.134 266.41 268.205 266.359 268.27C266.374 268.19 266.402 268.113 266.441 268.041L266.735 267.38C266.98 266.792 267.388 265.951 267.935 264.873C269.481 261.831 271.371 258.977 273.569 256.366C276.878 252.504 280.876 249.29 285.358 246.887C287.99 245.45 290.794 244.353 293.702 243.621C296.829 242.849 300.034 242.435 303.255 242.388C306.477 242.332 309.695 242.639 312.848 243.303C315.796 243.872 318.654 244.834 321.348 246.16C325.837 248.567 329.74 251.935 332.778 256.023C334.856 258.736 336.602 261.688 337.979 264.816L338.599 266.294C338.754 266.727 338.893 267.111 338.999 267.396C339.105 267.682 339.179 267.903 339.236 268.082C339.271 268.147 339.299 268.215 339.318 268.286Z" fill="#263238"/>
<path d="M263.911 268.548H139.989V283.04H263.911V268.548Z" fill="#263238"/>
<path d="M260.553 274.697C260.553 275.41 260.342 276.108 259.945 276.702C259.549 277.295 258.985 277.758 258.326 278.031C257.666 278.304 256.941 278.375 256.241 278.236C255.541 278.097 254.898 277.753 254.393 277.248C253.888 276.744 253.545 276.101 253.405 275.401C253.266 274.701 253.338 273.975 253.611 273.316C253.884 272.656 254.346 272.093 254.94 271.696C255.533 271.3 256.231 271.088 256.945 271.088C257.902 271.088 258.82 271.468 259.496 272.145C260.173 272.822 260.553 273.74 260.553 274.697Z" fill="#455A64"/>
<path d="M262.285 37.8184H251.94V243.304H262.285V37.8184Z" fill="#455A64"/>
<path d="M409.394 255.011C409.394 255.125 391.954 255.223 370.449 255.223C348.943 255.223 331.504 255.125 331.504 255.011C331.504 254.897 348.935 254.799 370.449 254.799C391.962 254.799 409.394 254.897 409.394 255.011Z" fill="#263238"/>
<path d="M393.523 251.934C393.4 251.934 393.311 244.349 393.311 234.993C393.311 225.636 393.4 218.06 393.523 218.06C393.645 218.06 393.735 225.636 393.735 234.993C393.735 244.349 393.637 251.934 393.523 251.934Z" fill="#263238"/>
<path d="M271.944 33.1074H250.83V42.5293H271.944V33.1074Z" fill="#263238"/>
<path d="M263.909 241.605H250.315V268.728H263.909V241.605Z" fill="#263238"/>
<path d="M232.345 203.126H147.287V268.736H232.345V203.126Z" fill="#FF725E"/>
<path opacity="0.3" d="M232.345 203.126H147.287V268.736H232.345V203.126Z" fill="black"/>
<path d="M211.037 268.27C210.964 268.27 210.898 253.648 210.898 235.612C210.898 217.577 210.964 202.954 211.037 202.954C211.111 202.954 211.176 217.577 211.176 235.612C211.176 253.648 211.111 268.27 211.037 268.27Z" fill="#263238"/>
<path d="M225.136 253.803H218.612V261.175H225.136V253.803Z" fill="#F5F5F5"/>
<path d="M182.892 203.297H173.233V217.299H182.892V203.297Z" fill="#263238"/>
<path d="M182.892 254.537H173.233V268.539H182.892V254.537Z" fill="#263238"/>
<path d="M231.604 203.126H231.392H230.747H228.297L219.259 203.167L189.475 203.297H159.658L150.628 203.257H148.179H147.534H147.321C147.392 203.25 147.463 203.25 147.534 203.257H148.179H150.628L159.658 203.216L189.475 203.175L219.284 203.216L228.322 203.257H230.771H231.416C231.474 203.207 231.537 203.163 231.604 203.126Z" fill="#263238"/>
<path d="M143.124 203.126H58.0654V268.736H143.124V203.126Z" fill="#FF725E"/>
<path d="M121.822 268.27C121.741 268.27 121.684 253.648 121.684 235.612C121.684 217.577 121.741 202.954 121.822 202.954C121.904 202.954 121.953 217.577 121.953 235.612C121.953 253.648 121.896 268.27 121.822 268.27Z" fill="#263238"/>
<path d="M135.923 253.803H129.399V261.175H135.923V253.803Z" fill="#F5F5F5"/>
<path opacity="0.5" d="M93.6792 203.297H84.0205V217.299H93.6792V203.297Z" fill="white"/>
<path opacity="0.5" d="M93.6792 254.537H84.0205V268.539H93.6792V254.537Z" fill="white"/>
<path d="M142.389 203.126H142.169H141.532H139.082L130.052 203.166H100.244H70.4268L61.3887 203.126H58.9393H58.3025H58.082C58.1554 203.119 58.2291 203.119 58.3025 203.126H58.9393H61.3887L70.4268 203.085L100.244 203.044L130.052 203.085L139.082 203.126H141.532H142.169C142.242 203.118 142.316 203.118 142.389 203.126Z" fill="#263238"/>
<path d="M492.802 220.958C497.186 222.019 500.868 226.469 500.795 230.984C500.702 233.246 499.87 235.414 498.426 237.157C496.982 238.9 495.006 240.122 492.802 240.635" fill="#FF725E"/>
<g opacity="0.6">
<path opacity="0.6" d="M492.802 220.958C497.186 222.019 500.868 226.469 500.795 230.984C500.702 233.246 499.87 235.414 498.426 237.157C496.982 238.9 495.006 240.122 492.802 240.635" fill="white"/>
</g>
<path d="M492.982 218.427H489.234V243.255H492.982V218.427Z" fill="#FF725E"/>
<path opacity="0.3" d="M492.982 218.427H489.234V243.255H492.982V218.427Z" fill="black"/>
<path d="M314.678 118.933C314.228 118.583 313.918 118.083 313.805 117.524C313.693 116.965 313.785 116.384 314.066 115.887C314.695 114.793 315.429 113.503 315.764 112.965C316.173 112.327 316.547 111.667 316.883 110.989C316.986 110.583 317.202 110.215 317.505 109.926C317.808 109.637 318.187 109.439 318.597 109.356C319.594 109.227 320.606 109.258 321.594 109.446L331.807 111.65L336.567 114.001L331.938 118.084L329.366 117.267C328.591 117.937 325.562 118.288 324.533 118.165C323.218 118.002 320.589 117.145 319.095 117.431L317.65 117.635L318.336 118.206C319.592 118.116 320.849 118.373 321.969 118.949C322.148 119.07 322.285 119.243 322.361 119.445C322.436 119.647 322.447 119.868 322.391 120.077C322.336 120.285 322.216 120.471 322.05 120.609C321.883 120.746 321.678 120.828 321.463 120.843L318.107 121.064C317.199 120.637 316.325 120.141 315.495 119.578C315.235 119.348 314.962 119.133 314.678 118.933Z" fill="#FFBE9D"/>
<path d="M317.658 117.668C317.493 117.78 317.307 117.858 317.111 117.896C316.578 118.052 316.011 118.052 315.478 117.896C315.095 117.771 314.757 117.535 314.506 117.219C314.363 117.027 314.262 116.807 314.208 116.574C314.155 116.34 314.151 116.099 314.196 115.863C314.257 115.594 314.407 115.353 314.621 115.178C314.834 115.022 315.071 114.904 315.323 114.827C315.811 114.664 316.311 114.536 316.817 114.443C317.78 114.257 318.753 114.132 319.732 114.067C320.181 114.067 320.605 114.018 321.014 114.018H321.324H321.569C321.739 113.994 321.908 113.962 322.075 113.92C322.77 113.697 323.476 113.509 324.19 113.357C323.555 113.732 322.867 114.008 322.148 114.173C321.975 114.231 321.798 114.275 321.618 114.304C321.509 114.317 321.4 114.317 321.291 114.304H321.014C320.63 114.304 320.197 114.353 319.764 114.394C318.803 114.479 317.847 114.612 316.899 114.794C316.413 114.884 315.933 115.004 315.462 115.153C314.988 115.292 314.645 115.504 314.58 115.888C314.544 116.07 314.544 116.258 314.58 116.44C314.617 116.622 314.689 116.795 314.792 116.949C315.004 117.222 315.286 117.431 315.609 117.554C316.096 117.724 316.617 117.772 317.127 117.692C317.437 117.684 317.658 117.627 317.658 117.668Z" fill="#EB996E"/>
<path d="M318.924 112.345C319.039 112.345 319.235 112.851 319.03 113.496C318.826 114.141 318.369 114.484 318.296 114.394C318.222 114.304 318.467 113.912 318.63 113.373C318.794 112.835 318.802 112.361 318.924 112.345Z" fill="#EB996E"/>
<path d="M320.524 112.989C320.638 112.989 320.671 113.398 320.385 113.806C320.1 114.214 319.716 114.247 319.675 114.132C319.634 114.018 319.846 113.822 320.051 113.545C320.255 113.267 320.402 112.973 320.524 112.989Z" fill="#EB996E"/>
<path d="M360.734 110.712C362.139 110.124 352.668 119.864 352.668 119.864L335.163 113.332L328.982 117.129L347.802 130.38C349.736 131.744 352.094 132.37 354.45 132.146C356.806 131.921 359.003 130.86 360.645 129.155L371.756 116.312L360.734 110.712Z" fill="#FFBE9D"/>
<path d="M370.997 71.6851C368.548 71.2116 367.029 70.4605 366.964 69.5215C366.833 67.5784 372.998 65.5862 380.738 65.0555C388.478 64.5248 394.846 65.6842 394.985 67.6192C395.042 68.5581 393.646 69.5052 391.311 70.2972" fill="#FF725E"/>
<g opacity="0.4">
<path opacity="0.4" d="M372.361 71.5219C370.198 71.1137 368.785 70.4442 368.785 69.6114C368.785 67.2845 374.133 66.117 380.991 65.6516C387.849 65.1862 393.507 66.2068 393.622 67.9295C393.679 68.7459 392.438 69.5624 390.356 70.2972" fill="black"/>
</g>
<path d="M368.825 68.4766C368.825 68.4766 370.27 60.1079 370.417 59.6915C370.564 59.2751 372.662 55.5195 378.206 54.107L382.844 53.7886C382.844 53.7886 389.571 55.4623 390.878 56.9891C392.184 58.5158 393.229 66.2558 393.229 66.2558L380.035 64.3127L371.34 67.0641L368.825 68.4766Z" fill="#FF725E"/>
<path d="M379.659 53.07L377.667 53.2006C377.202 53.8167 376.971 54.5774 377.014 55.3479C377.014 56.793 377.365 66.7048 377.365 66.7048L383.162 66.0516L382.157 53.8374L384.158 54.1477L384.052 53.4537L383.488 52.874L379.659 53.07Z" fill="#FF725E"/>
<path d="M391.777 98.6857L377.571 98.9959C377.391 97.5018 377.522 88.1534 377.522 88.1534C377.522 88.1534 372.117 87.6799 371.684 82.3321C371.251 76.9843 371.349 66.2398 371.349 66.2398L371.406 65.7662C377.424 62.6882 384.584 61.9616 390.185 65.7173L391.001 66.2724L391.777 98.6857Z" fill="#FFBE9D"/>
<path d="M377.521 88.1774C379.995 88.0015 382.367 87.1203 384.355 85.6382C384.355 85.6382 382.877 89.7205 377.505 89.5653L377.521 88.1774Z" fill="#EB996E"/>
<path d="M390.756 71.8488C390.846 71.8488 394.356 70.5179 394.487 74.1838C394.618 77.8497 390.911 77.221 390.903 77.1231C390.895 77.0251 390.756 71.8488 390.756 71.8488Z" fill="#FFBE9D"/>
<path d="M391.956 75.6941C391.956 75.6941 392.021 75.7431 392.128 75.7839C392.204 75.8165 392.286 75.8332 392.368 75.8332C392.451 75.8332 392.533 75.8165 392.609 75.7839C392.841 75.6252 393.025 75.4075 393.145 75.1535C393.264 74.8994 393.313 74.6182 393.287 74.3388C393.286 74.0244 393.214 73.7144 393.075 73.4325C393.036 73.3193 392.97 73.2171 392.884 73.1347C392.797 73.0522 392.692 72.9919 392.577 72.959C392.503 72.9432 392.426 72.9533 392.359 72.9875C392.293 73.0217 392.239 73.0779 392.209 73.1467C392.16 73.2529 392.209 73.3264 392.168 73.3345C392.128 73.3427 392.087 73.2774 392.111 73.1222C392.132 73.0308 392.18 72.948 392.25 72.8855C392.349 72.806 392.475 72.7679 392.601 72.7793C392.753 72.8035 392.896 72.8666 393.016 72.9625C393.136 73.0583 393.23 73.1837 393.287 73.3264C393.461 73.6227 393.564 73.9552 393.589 74.2979C393.625 74.6274 393.56 74.9602 393.403 75.2518C393.245 75.5435 393.003 75.7803 392.707 75.9308C392.61 75.9645 392.507 75.9754 392.405 75.9627C392.303 75.9499 392.205 75.9139 392.119 75.8574C391.956 75.7839 391.956 75.7022 391.956 75.6941Z" fill="#EB996E"/>
<path d="M373.12 72.8446C373.142 73.0452 373.238 73.2305 373.389 73.3646C373.54 73.4988 373.735 73.5724 373.937 73.5712C374.134 73.5712 374.323 73.4929 374.462 73.3536C374.601 73.2142 374.68 73.0253 374.68 72.8282C374.657 72.6276 374.562 72.4423 374.411 72.3081C374.26 72.1739 374.065 72.1004 373.863 72.1016C373.666 72.1016 373.477 72.1799 373.338 72.3192C373.198 72.4585 373.12 72.6475 373.12 72.8446Z" fill="#263238"/>
<path d="M372.876 72.0937C372.974 72.1835 373.529 71.7181 374.353 71.661C375.178 71.6038 375.807 71.9794 375.888 71.8732C375.97 71.7671 375.815 71.6528 375.546 71.4813C375.171 71.2609 374.738 71.1585 374.305 71.1874C373.876 71.2153 373.467 71.3782 373.137 71.6528C372.9 71.8487 372.827 72.0529 372.876 72.0937Z" fill="#263238"/>
<path d="M381.228 72.5429C381.233 72.6445 381.258 72.744 381.302 72.8357C381.346 72.9274 381.408 73.0094 381.484 73.077C381.56 73.1447 381.648 73.1965 381.745 73.2295C381.841 73.2626 381.943 73.2762 382.044 73.2696C382.141 73.2696 382.237 73.2503 382.327 73.2129C382.417 73.1754 382.498 73.1206 382.567 73.0515C382.635 72.9824 382.689 72.9004 382.725 72.8103C382.762 72.7202 382.78 72.6238 382.779 72.5266C382.774 72.4251 382.748 72.3255 382.704 72.2338C382.66 72.1422 382.599 72.0601 382.523 71.9925C382.447 71.9249 382.358 71.8731 382.262 71.84C382.166 71.807 382.064 71.7933 381.962 71.8C381.865 71.8 381.769 71.8192 381.679 71.8567C381.59 71.8941 381.508 71.949 381.44 72.0181C381.372 72.0872 381.318 72.1691 381.281 72.2592C381.245 72.3493 381.227 72.4458 381.228 72.5429Z" fill="#263238"/>
<path d="M380.973 71.6932C381.071 71.7912 381.618 71.3258 382.443 71.2686C383.268 71.2115 383.896 71.5871 383.978 71.4809C384.06 71.3748 383.913 71.2605 383.635 71.0809C383.264 70.8595 382.833 70.7596 382.402 70.7951C381.973 70.819 381.563 70.9824 381.235 71.2605C380.998 71.4728 380.924 71.6524 380.973 71.6932Z" fill="#263238"/>
<path d="M378.403 77.9963C377.958 77.8962 377.503 77.8469 377.048 77.8493C376.835 77.8493 376.631 77.8493 376.59 77.6697C376.557 77.455 376.591 77.2353 376.688 77.041L377.203 75.4081C377.681 74.0123 378.052 72.5821 378.313 71.1299C377.716 72.4816 377.23 73.8796 376.86 75.3101C376.688 75.8817 376.525 76.4287 376.37 76.943C376.262 77.202 376.245 77.4896 376.321 77.7595C376.357 77.8308 376.409 77.8928 376.472 77.941C376.536 77.9891 376.61 78.022 376.688 78.0371C376.808 78.0526 376.928 78.0526 377.048 78.0371C377.499 78.0838 377.955 78.0701 378.403 77.9963Z" fill="#263238"/>
<path d="M380.86 78.3804C380.722 78.3804 380.787 79.2703 380.044 79.9561C379.301 80.6419 378.411 80.6093 378.411 80.7726C378.411 80.9359 378.632 80.9277 379.04 80.9114C379.56 80.8808 380.054 80.6701 380.436 80.3154C380.802 79.9691 381.021 79.4957 381.048 78.9927C381.032 78.609 380.918 78.3804 380.86 78.3804Z" fill="#263238"/>
<path d="M380.525 68.4852C380.623 68.7056 381.432 68.5423 382.403 68.5995C383.375 68.6566 384.175 68.8607 384.289 68.6485C384.404 68.4362 384.191 68.3464 383.865 68.1504C383.429 67.9085 382.942 67.7741 382.444 67.7585C381.945 67.7331 381.447 67.8254 380.991 68.028C380.664 68.1994 380.525 68.3872 380.525 68.4852Z" fill="#263238"/>
<path d="M373.014 69.6928C373.178 69.8643 373.725 69.6357 374.41 69.5785C375.096 69.5214 375.676 69.6193 375.798 69.4152C375.921 69.2111 375.741 69.1376 375.48 68.9743C375.127 68.786 374.726 68.7064 374.328 68.7456C373.93 68.7848 373.552 68.9411 373.243 69.1948C373.014 69.3989 372.949 69.603 373.014 69.6928Z" fill="#263238"/>
<path d="M391.139 68.3784C391.098 69.8726 391.245 71.3667 391.204 72.8608C391.156 73.4251 391.012 73.9772 390.78 74.4937C390.702 74.7929 390.533 75.0603 390.296 75.2582C390.058 75.4562 389.765 75.5748 389.457 75.5973C389.148 75.6199 388.841 75.5452 388.577 75.3838C388.314 75.2225 388.107 74.9826 387.987 74.6978C387.696 74.1081 387.54 73.4611 387.53 72.8036C387.525 72.1454 387.414 71.4922 387.204 70.8686C386.855 70.2221 386.439 69.6145 385.962 69.0561C385.728 68.7723 385.563 68.4382 385.479 68.0798C385.396 67.7214 385.396 67.3486 385.481 66.9905C387.457 66.9299 389.412 67.4068 391.139 68.3703" fill="#263238"/>
<path d="M371.348 69.0401L371.258 66.0438L379.831 62.8433L390.975 65.2926L391.187 68.5095C384.748 66.1554 377.652 66.3452 371.348 69.0401Z" fill="#455A64"/>
<path d="M371.765 65.3737L371.405 65.7656L368.393 67.9618C372.338 66.6399 376.433 65.817 380.582 65.5125C385.14 65.4085 389.693 65.8359 394.152 66.7861L389.841 64.5735C389.141 63.9201 388.317 63.4136 387.418 63.084C386.52 62.7545 385.564 62.6085 384.607 62.6549L376.737 63.0304C375.795 63.0751 374.871 63.3051 374.017 63.7071C373.164 64.1092 372.399 64.6755 371.765 65.3737Z" fill="#FF725E"/>
<path d="M377.261 62.7616C377.406 61.3704 377.444 59.9702 377.375 58.5732C377.409 57.1737 377.338 55.7736 377.163 54.3848C377.008 55.7753 376.97 57.1763 377.048 58.5732C377.009 59.9727 377.08 61.3732 377.261 62.7616Z" fill="#263238"/>
<path d="M384.151 54.1479C383.667 53.97 383.162 53.8601 382.648 53.8213C382.49 53.8335 382.341 53.9049 382.232 54.0213C382.123 54.1377 382.062 54.2906 382.061 54.45L382.11 55.3317C382.167 55.9604 382.216 56.6299 382.273 57.3239C382.387 58.7445 382.518 60.0263 382.624 60.9489C382.647 61.4548 382.73 61.9562 382.869 62.443C382.928 61.9413 382.928 61.4344 382.869 60.9326C382.82 60.0019 382.73 58.72 382.608 57.3076C382.542 56.6054 382.485 55.9359 382.428 55.3072C382.428 55.0133 382.363 54.7276 382.338 54.45C382.337 54.3531 382.371 54.2591 382.434 54.1855C382.498 54.1119 382.585 54.0637 382.681 54.0499C383.167 54.1221 383.659 54.1549 384.151 54.1479Z" fill="#263238"/>
<path d="M368.189 67.938C368.189 67.938 368.549 67.7583 369.21 67.4726C369.537 67.3256 369.937 67.1623 370.394 66.9092C370.925 66.6349 371.377 66.2304 371.708 65.7335C372.092 65.162 372.117 64.4027 372.525 63.8312C372.933 63.2597 373.782 63.1699 374.615 63.0882C376.297 62.9004 378.15 62.7616 380.101 62.68C382.053 62.5983 383.922 62.582 385.613 62.5983C386.388 62.5334 387.163 62.735 387.809 63.1699C388.07 63.4198 388.308 63.6931 388.519 63.9863L388.854 64.3864L389.025 64.5742C389.096 64.6381 389.176 64.6904 389.262 64.7293C390.47 65.211 391.458 65.5457 392.136 65.7662C392.479 65.908 392.831 66.028 393.189 66.1254C393.11 66.0678 393.025 66.0185 392.936 65.9785C392.765 65.8968 392.512 65.7825 392.177 65.6437C391.524 65.3579 390.544 65.015 389.368 64.517C389.307 64.4888 389.249 64.4532 389.197 64.4109L389.042 64.2231L388.723 63.823C388.501 63.5315 388.255 63.2585 387.988 63.0066C387.302 62.5129 386.464 62.276 385.621 62.3371C383.923 62.3371 382.053 62.3371 380.093 62.3942C378.134 62.4514 376.264 62.6228 374.574 62.8269C374.156 62.8597 373.741 62.9252 373.333 63.0229C372.942 63.1226 372.598 63.3567 372.362 63.6842C371.888 64.3537 371.888 65.113 371.545 65.6192C371.245 66.094 370.829 66.4845 370.337 66.7541C369.904 67.0153 369.52 67.2031 369.186 67.3664C368.851 67.5297 368.622 67.6685 368.459 67.7665C368.361 67.8104 368.271 67.8681 368.189 67.938Z" fill="#263238"/>
<path d="M369.396 68.3213C369.475 68.2878 369.549 68.2439 369.617 68.1907C369.756 68.0927 369.968 67.9621 370.245 67.807C371.053 67.4056 371.898 67.0856 372.768 66.8517C375.655 66.0935 378.635 65.7471 381.619 65.823C383.374 65.823 385.04 65.823 386.517 65.8883C387.995 65.9536 389.383 66.1904 390.51 66.3782C391.016 66.4641 391.517 66.5758 392.012 66.7129C392.386 66.7809 392.74 66.9315 393.049 67.1538C393.171 67.2514 393.269 67.3758 393.336 67.5173C393.402 67.6589 393.436 67.8139 393.433 67.9703C393.478 67.8913 393.496 67.7991 393.482 67.709C393.453 67.4492 393.331 67.2086 393.139 67.0313C392.829 66.7733 392.462 66.5915 392.069 66.5006C391.57 66.3457 391.063 66.2176 390.551 66.1169C389.225 65.8579 387.887 65.6698 386.542 65.5536C385.015 65.4393 383.333 65.4719 381.586 65.4637C378.573 65.3827 375.566 65.7655 372.67 66.5986C371.788 66.8485 370.94 67.2078 370.147 67.6682C369.933 67.7938 369.731 67.9386 369.543 68.1009C369.445 68.2479 369.388 68.3132 369.396 68.3213Z" fill="#263238"/>
<path d="M378.524 53.3969C378.796 53.4178 379.069 53.4178 379.341 53.3969L381.317 53.3234C382.084 53.3234 382.794 53.201 383.284 53.25C383.417 53.255 383.548 53.2891 383.666 53.3497C383.784 53.4104 383.888 53.4961 383.97 53.601C383.97 53.601 383.97 53.5194 383.856 53.4132C383.7 53.2704 383.503 53.1816 383.293 53.1601C382.632 53.1087 381.969 53.1087 381.309 53.1601L379.333 53.2745C379.06 53.2847 378.788 53.3258 378.524 53.3969Z" fill="#FAFAFA"/>
<path d="M378.182 63.0882C378.32 63.1022 378.46 63.1022 378.598 63.0882H379.725C380.68 63.0882 381.994 63.0882 383.448 63.0882L385.497 63.1371C386.044 63.1341 386.59 63.1778 387.13 63.2678C387.496 63.3436 387.824 63.5425 388.061 63.8311C388.14 63.9398 388.206 64.0577 388.257 64.1822C388.241 64.0425 388.187 63.9098 388.102 63.7985C387.87 63.4853 387.534 63.2652 387.154 63.178C386.616 63.0738 386.07 63.0191 385.522 63.0147C384.893 63.0147 384.199 62.9657 383.472 62.9575C382.011 62.9575 380.696 62.9575 379.741 62.9983L378.614 63.0555C378.469 63.0536 378.325 63.0645 378.182 63.0882Z" fill="#FAFAFA"/>
<path d="M382.484 61.6346C382.495 61.537 382.495 61.4384 382.484 61.3407C382.484 61.0713 382.411 60.81 382.37 60.5243C382.28 59.8466 382.166 58.8914 382.06 57.8708C381.954 56.8502 381.897 55.895 381.856 55.2173C381.856 54.9397 381.839 54.6676 381.807 54.4009C381.821 54.3034 381.821 54.2044 381.807 54.1069C381.795 54.2045 381.795 54.3032 381.807 54.4009C381.807 54.5886 381.807 54.8662 381.807 55.2173C381.807 55.9031 381.872 56.8502 381.97 57.8871C382.068 58.924 382.207 59.8629 382.321 60.5324C382.378 60.8753 382.435 61.1448 382.476 61.3489C382.465 61.444 382.468 61.5403 382.484 61.6346Z" fill="#FAFAFA"/>
<path d="M389.277 64.8838C389.36 64.9314 389.448 64.9698 389.539 64.9981L390.257 65.2675L392.641 66.084C393.081 66.224 393.511 66.3904 393.931 66.582C394.267 66.7367 394.536 67.0059 394.69 67.3413C394.791 67.5697 394.817 67.824 394.764 68.068C394.707 68.2312 394.641 68.3129 394.658 68.3211C394.727 68.2548 394.78 68.1738 394.813 68.0843C394.905 67.834 394.905 67.5589 394.813 67.3087C394.649 66.9462 394.359 66.6558 393.996 66.4922C393.576 66.2859 393.139 66.1139 392.69 65.9778L390.29 65.1614L389.563 64.9328C389.47 64.9048 389.374 64.8883 389.277 64.8838Z" fill="#FAFAFA"/>
<path d="M328.933 210.793L329.676 224.052C329.676 224.052 316.45 229.253 316.352 231.71L342.103 231.204L341.792 210.507L328.933 210.793Z" fill="#FF725E"/>
<g opacity="0.4">
<path opacity="0.4" d="M328.933 210.793L329.676 224.052C329.676 224.052 316.45 229.253 316.352 231.71L342.103 231.204L341.792 210.507L328.933 210.793Z" fill="black"/>
</g>
<path d="M337.613 222.778C337.863 222.847 338.078 223.006 338.217 223.225C338.356 223.444 338.408 223.706 338.364 223.962C338.304 224.213 338.149 224.432 337.931 224.572C337.714 224.711 337.451 224.762 337.197 224.713C336.927 224.645 336.693 224.478 336.542 224.244C336.391 224.011 336.333 223.729 336.381 223.456C336.472 223.201 336.657 222.991 336.899 222.869C337.141 222.748 337.42 222.724 337.679 222.802" fill="#E0E0E0"/>
<path d="M342.104 231.204L341.99 229.122L317.341 230.388C317.341 230.388 316.206 230.91 316.353 231.71L342.104 231.204Z" fill="#E0E0E0"/>
<path d="M329.26 223.93C329.26 224.053 329.888 224.093 330.517 224.485C331.146 224.877 331.489 225.4 331.603 225.351C331.717 225.302 331.513 224.575 330.746 224.118C329.978 223.661 329.227 223.816 329.26 223.93Z" fill="#263238"/>
<path d="M326.574 225.098C326.574 225.22 327.097 225.424 327.538 225.914C327.979 226.404 328.109 227 328.232 226.992C328.354 226.984 328.428 226.265 327.872 225.629C327.317 224.992 326.574 224.975 326.574 225.098Z" fill="#263238"/>
<path d="M325.105 228.363C325.219 228.363 325.382 227.751 325.048 227.073C324.713 226.395 324.117 226.126 324.068 226.257C324.019 226.387 324.386 226.722 324.656 227.285C324.925 227.849 325.007 228.347 325.105 228.363Z" fill="#263238"/>
<path d="M329.423 220.884C329.48 220.999 330.052 220.819 330.762 220.884C331.472 220.95 332.036 221.129 332.093 221.023C332.15 220.917 331.619 220.476 330.778 220.443C329.937 220.411 329.358 220.786 329.423 220.884Z" fill="#263238"/>
<g opacity="0.3">
<path opacity="0.3" d="M329.088 213.422L329.21 215.782L341.865 215.414L341.841 213.283L329.088 213.422Z" fill="black"/>
</g>
<path d="M329.326 218.215C329.749 218.327 330.193 218.327 330.616 218.215C331.077 218.118 331.526 217.97 331.955 217.774C332.208 217.652 332.453 217.516 332.69 217.366C332.83 217.279 332.959 217.175 333.074 217.056C333.151 216.963 333.197 216.848 333.205 216.728C333.212 216.607 333.18 216.488 333.115 216.386C333.05 216.3 332.967 216.229 332.87 216.181C332.774 216.133 332.667 216.108 332.559 216.109C332.396 216.105 332.233 216.13 332.078 216.182C331.796 216.251 331.522 216.349 331.261 216.476C330.829 216.686 330.433 216.961 330.085 217.293C329.506 217.856 329.31 218.329 329.351 218.354C329.391 218.378 329.694 217.995 330.29 217.538C330.64 217.266 331.024 217.041 331.433 216.868C331.671 216.767 331.916 216.685 332.167 216.623C332.437 216.541 332.665 216.541 332.739 216.623C332.812 216.705 332.739 216.688 332.739 216.77C332.656 216.858 332.563 216.934 332.461 216.999C332.244 217.145 332.017 217.279 331.784 217.399C331.389 217.605 330.977 217.775 330.551 217.905C330.135 217.974 329.725 218.078 329.326 218.215Z" fill="#263238"/>
<path d="M329.489 218.386C329.538 218.386 329.775 217.953 329.807 217.137C329.816 216.658 329.748 216.181 329.603 215.724C329.518 215.441 329.403 215.167 329.26 214.908C329.189 214.742 329.077 214.597 328.934 214.487C328.791 214.377 328.622 214.305 328.444 214.279C328.33 214.284 328.219 214.321 328.125 214.386C328.031 214.451 327.958 214.542 327.913 214.647C327.852 214.799 327.811 214.958 327.791 215.12C327.749 215.407 327.749 215.699 327.791 215.986C327.873 216.467 328.072 216.921 328.37 217.308C328.885 217.97 329.415 218.125 329.423 218.068C329.432 218.01 329.023 217.766 328.607 217.137C328.377 216.77 328.229 216.358 328.174 215.929C328.138 215.682 328.138 215.432 328.174 215.186C328.174 214.908 328.305 214.688 328.411 214.712C328.517 214.737 328.762 214.908 328.868 215.128C329.004 215.347 329.117 215.58 329.203 215.822C329.357 216.234 329.451 216.666 329.481 217.104C329.546 217.896 329.423 218.37 329.489 218.386Z" fill="#263238"/>
<path d="M398.487 154.481C398.487 154.481 395.671 168.916 391.001 169.12C385.285 169.365 343.769 169.937 343.769 169.937L346.234 216.156L328.125 215.724L320.924 170.174C320.12 166.087 320.803 161.848 322.851 158.221L322.998 157.968C324.546 155.422 326.721 153.318 329.316 151.855C331.911 150.392 334.838 149.621 337.817 149.615L372.296 149.093L398.487 154.481Z" fill="#263238"/>
<path d="M335.979 210.793L336.714 224.052C336.714 224.052 323.488 229.253 323.39 231.71L349.141 231.204L348.83 210.507L335.979 210.793Z" fill="#FF725E"/>
<path d="M344.65 222.778C344.9 222.847 345.115 223.006 345.254 223.225C345.393 223.444 345.445 223.706 345.402 223.962C345.343 224.214 345.188 224.434 344.97 224.574C344.752 224.714 344.488 224.764 344.234 224.713C343.965 224.645 343.731 224.478 343.579 224.244C343.428 224.011 343.37 223.729 343.418 223.456C343.509 223.201 343.694 222.991 343.936 222.869C344.178 222.748 344.457 222.724 344.716 222.802" fill="#E0E0E0"/>
<path d="M349.141 231.204L349.027 229.122L324.378 230.388C324.378 230.388 323.243 230.91 323.39 231.71L349.141 231.204Z" fill="#E0E0E0"/>
<path d="M336.298 223.93C336.298 224.053 336.935 224.093 337.555 224.485C338.176 224.877 338.527 225.4 338.641 225.351C338.755 225.302 338.551 224.575 337.784 224.118C337.016 223.661 336.265 223.816 336.298 223.93Z" fill="#263238"/>
<path d="M333.62 225.098C333.62 225.22 334.143 225.424 334.575 225.914C335.008 226.404 335.147 227 335.269 226.992C335.392 226.984 335.465 226.265 334.91 225.629C334.355 224.992 333.62 224.975 333.62 225.098Z" fill="#263238"/>
<path d="M332.142 228.363C332.264 228.363 332.42 227.751 332.085 227.073C331.75 226.395 331.154 226.126 331.105 226.257C331.056 226.387 331.423 226.722 331.693 227.285C331.962 227.849 332.019 228.347 332.142 228.363Z" fill="#263238"/>
<path d="M336.437 220.884C336.494 220.999 337.065 220.819 337.776 220.884C338.486 220.95 339.049 221.129 339.106 221.023C339.163 220.917 338.633 220.476 337.792 220.443C336.951 220.411 336.437 220.786 336.437 220.884Z" fill="#263238"/>
<g opacity="0.3">
<path opacity="0.3" d="M336.127 213.422L336.258 215.782L348.904 215.414L348.88 213.283L336.127 213.422Z" fill="black"/>
</g>
<path d="M336.364 218.215C336.787 218.327 337.231 218.327 337.654 218.215C338.115 218.118 338.565 217.97 338.993 217.774C339.247 217.654 339.492 217.518 339.728 217.366C339.868 217.279 339.997 217.175 340.112 217.056C340.189 216.963 340.235 216.848 340.243 216.728C340.25 216.607 340.218 216.488 340.153 216.386C340.088 216.3 340.005 216.229 339.908 216.181C339.812 216.133 339.705 216.108 339.597 216.109C339.434 216.105 339.271 216.13 339.116 216.182C338.834 216.251 338.56 216.349 338.299 216.476C337.869 216.683 337.474 216.959 337.132 217.293C336.544 217.856 336.315 218.329 336.389 218.354C336.462 218.378 336.732 217.995 337.328 217.538C337.678 217.266 338.062 217.041 338.471 216.868C338.709 216.767 338.954 216.685 339.206 216.623C339.475 216.541 339.704 216.541 339.777 216.623C339.851 216.705 339.777 216.688 339.777 216.77C339.694 216.858 339.601 216.934 339.499 216.999C339.282 217.145 339.055 217.279 338.822 217.399C338.427 217.605 338.015 217.775 337.589 217.905C337.173 217.974 336.763 218.078 336.364 218.215Z" fill="#263238"/>
<path d="M336.527 218.386C336.576 218.386 336.813 217.953 336.845 217.137C336.859 216.658 336.79 216.18 336.641 215.724C336.556 215.441 336.441 215.167 336.298 214.908C336.227 214.742 336.115 214.597 335.972 214.487C335.829 214.377 335.66 214.305 335.482 214.279C335.368 214.284 335.257 214.321 335.163 214.386C335.069 214.451 334.996 214.542 334.951 214.647C334.89 214.799 334.849 214.958 334.829 215.12C334.788 215.407 334.788 215.699 334.829 215.986C334.911 216.467 335.11 216.921 335.408 217.308C335.923 217.97 336.453 218.125 336.462 218.068C336.47 218.01 336.062 217.766 335.645 217.137C335.415 216.77 335.267 216.358 335.212 215.929C335.176 215.682 335.176 215.432 335.212 215.186C335.253 214.908 335.351 214.688 335.449 214.712C335.547 214.737 335.8 214.908 335.906 215.128C336.042 215.347 336.155 215.58 336.241 215.822C336.395 216.234 336.489 216.666 336.519 217.104C336.584 217.896 336.437 218.37 336.527 218.386Z" fill="#263238"/>
<path d="M403.027 154.481C403.027 154.481 400.218 168.916 395.54 169.12C389.825 169.365 348.308 169.937 348.308 169.937L350.831 216.156L332.722 215.724L325.48 170.174C324.676 166.087 325.359 161.848 327.407 158.221L327.554 157.968C329.102 155.421 331.279 153.316 333.875 151.853C336.472 150.39 339.4 149.62 342.381 149.615L376.851 149.093L403.027 154.481Z" fill="#263238"/>
<path d="M367.706 96.5299L373.176 132.846L369.478 149.175L403.067 159.062C406.104 154.719 406.218 140.929 406.112 131.172C405.924 113.978 406.684 113.145 405.941 107.111C405.198 101.078 403.932 97.2076 400.748 95.3052L391.587 90.627C391.587 90.627 386.427 93.8928 383.284 93.7376C383.284 93.7376 379.553 93.8928 377.487 91.9088C377.487 91.8843 369.91 94.1704 367.706 96.5299Z" fill="#FF725E"/>
<path d="M367.706 96.5303L356.513 111.961L371.756 120.91L370.588 115.301L367.706 96.5303Z" fill="#FF725E"/>
<path d="M341.034 149.836C340.97 149.85 340.903 149.85 340.838 149.836L340.275 149.877C339.965 149.898 339.657 149.936 339.352 149.991C338.937 150.041 338.525 150.117 338.119 150.22C335.519 150.858 333.118 152.132 331.131 153.926C329.764 155.158 328.589 156.586 327.644 158.164C326.562 159.972 325.891 161.995 325.677 164.091C325.482 166.42 325.569 168.764 325.938 171.072C326.273 173.521 326.754 175.971 327.007 178.575C327.587 183.719 328.363 188.601 329.089 193.035C329.816 197.468 330.518 201.444 331.082 204.808C331.645 208.172 332.086 210.874 332.355 212.76C332.478 213.674 332.576 214.393 332.649 214.932C332.649 215.16 332.698 215.34 332.714 215.495C332.722 215.56 332.722 215.626 332.714 215.691C332.689 215.631 332.672 215.568 332.665 215.503C332.665 215.348 332.6 215.169 332.551 214.94L332.184 212.785C331.841 210.874 331.367 208.18 330.779 204.857C330.192 201.534 329.481 197.509 328.697 193.1C327.914 188.691 327.154 183.784 326.575 178.616C326.313 176.044 325.848 173.562 325.521 171.129C325.148 168.789 325.068 166.411 325.285 164.05C325.51 161.901 326.21 159.829 327.334 157.984C328.306 156.38 329.517 154.935 330.926 153.698C332.962 151.896 335.424 150.643 338.079 150.056C339.049 149.849 340.043 149.775 341.034 149.836Z" fill="#455A64"/>
<path d="M353.901 138.626C353.901 138.626 366.858 142.806 376.933 146.456C378.644 147.077 380.482 147.265 382.282 147.003C384.083 146.74 385.791 146.037 387.253 144.954C389.125 143.574 390.512 141.636 391.213 139.418L398.112 117.684L386.592 113.651L378.893 133.189L350.235 129.425" fill="#FFBE9D"/>
<path d="M336.763 134.144L336.657 133.116C336.728 132.356 337.043 131.64 337.555 131.074C337.833 130.766 338.165 130.511 338.535 130.323L341.923 128.552C342.427 128.296 342.998 128.204 343.556 128.29L350.504 129.474L358.481 130.519L356.848 139.615L353.158 138.39C353.158 138.39 350.488 139.868 348.839 139.517C348.839 139.517 347.312 140.537 346.683 139.786C346.683 139.786 345.32 140.962 344.805 140.888C344.291 140.815 343.279 140.219 343.319 139.868L343.36 139.394C343.099 139.537 342.803 139.606 342.505 139.593C342.207 139.58 341.918 139.486 341.67 139.321C341.317 139.047 341.049 138.679 340.895 138.259C340.258 138.193 339.657 137.934 339.172 137.516C338.851 137.046 338.636 136.511 338.543 135.949C338.543 135.949 337.016 135.206 336.763 134.144Z" fill="#FFBE9D"/>
<path d="M341.89 130.854C341.939 130.854 342.021 131.23 341.849 131.801C341.596 132.525 341.177 133.179 340.625 133.712C340.012 134.34 339.441 134.855 339.09 135.279C338.739 135.704 338.551 135.998 338.494 135.973C338.437 135.949 338.494 135.589 338.853 135.1C339.285 134.494 339.775 133.93 340.314 133.418C340.825 132.916 341.249 132.334 341.572 131.695C341.792 131.205 341.817 130.854 341.89 130.854Z" fill="#EB996E"/>
<path d="M343.213 134.487C342.825 135.947 341.981 137.245 340.805 138.194C341.105 137.517 341.489 136.881 341.948 136.3C342.609 135.287 343.099 134.43 343.213 134.487Z" fill="#EB996E"/>
<path d="M344.985 136.887C345.083 136.953 344.797 137.54 344.34 138.21C343.883 138.879 343.442 139.369 343.344 139.296C343.246 139.222 343.54 138.634 343.989 137.973C344.438 137.312 344.887 136.822 344.985 136.887Z" fill="#EB996E"/>
<path d="M344.658 135.932C344.658 135.981 344.478 135.989 344.266 135.858C344.128 135.766 344.01 135.645 343.922 135.505C343.833 135.364 343.775 135.206 343.751 135.042C343.723 134.881 343.73 134.715 343.772 134.557C343.815 134.399 343.891 134.253 343.996 134.127C344.152 133.94 344.307 133.891 344.348 133.931C344.388 133.972 344.078 134.429 344.168 134.976C344.258 135.523 344.707 135.826 344.658 135.932Z" fill="#EB996E"/>
<path d="M346.592 138.373C346.592 138.422 346.445 138.43 346.266 138.373C346.151 138.305 346.051 138.214 345.973 138.106C345.894 137.998 345.838 137.875 345.809 137.745C345.758 137.602 345.752 137.448 345.791 137.302C345.831 137.156 345.914 137.026 346.029 136.928C346.241 136.781 346.405 136.879 346.388 136.928C346.298 137.013 346.235 137.122 346.206 137.243C346.177 137.363 346.183 137.489 346.225 137.606C346.315 138.022 346.641 138.267 346.592 138.373Z" fill="#EB996E"/>
<path d="M343.532 133.335C343.532 133.384 343.353 133.425 343.108 133.335C342.944 133.256 342.805 133.136 342.701 132.987C342.598 132.837 342.535 132.664 342.519 132.483C342.503 132.303 342.533 132.121 342.608 131.955C342.682 131.79 342.798 131.646 342.944 131.539C343.165 131.384 343.344 131.4 343.353 131.449C343.361 131.498 342.895 131.866 342.944 132.445C342.993 133.025 343.565 133.237 343.532 133.335Z" fill="#EB996E"/>
<path d="M398.169 98.2526C395.54 97.1096 392.298 98.2526 390.396 100.245C388.494 102.237 387.62 104.841 386.804 107.372C385.987 109.903 384.044 114.778 383.252 117.219L398.185 123.612C399.459 120.166 400.645 116.691 401.745 113.186C402.675 110.246 403.541 107.078 402.463 104.156" fill="#FF725E"/>
<path d="M402.463 104.155C402.53 104.268 402.582 104.389 402.618 104.515C402.748 104.867 402.844 105.23 402.904 105.601C403.138 106.988 403.102 108.407 402.798 109.781C402.341 111.873 401.738 113.93 400.993 115.937C400.177 118.272 399.36 120.876 398.389 123.677L398.315 123.881L398.103 123.791L387.587 119.301L383.162 117.406L382.982 117.325L383.04 117.162C384.248 113.602 385.595 110.344 386.607 107.364C387.051 105.92 387.596 104.509 388.24 103.143C388.817 101.923 389.608 100.817 390.575 99.8772C392.054 98.4827 394.013 97.7109 396.046 97.7218C396.601 97.7391 397.152 97.8382 397.679 98.0157C397.856 98.0777 398.028 98.1542 398.193 98.2443C397.505 98.0162 396.787 97.8896 396.062 97.8687C394.093 97.9116 392.212 98.6959 390.796 100.065C389.874 100.984 389.122 102.059 388.575 103.241C387.956 104.602 387.432 106.004 387.008 107.438C386.02 110.467 384.672 113.741 383.489 117.276L383.366 117.031L387.799 118.925L398.299 123.432L398.013 123.546C398.977 120.746 399.875 118.158 400.683 115.831C401.444 113.841 402.074 111.804 402.569 109.732C402.885 108.395 402.962 107.013 402.798 105.65C402.626 104.662 402.43 104.164 402.463 104.155Z" fill="#263238"/>
<path d="M383.326 140.642C383.277 140.642 383.163 139.826 382.657 138.332C382.346 137.451 381.932 136.61 381.424 135.825C380.776 134.794 379.885 133.939 378.828 133.335H378.868L362.695 131.229L352.897 129.914L348.643 129.326L344.945 128.73L343.312 128.477C342.854 128.396 342.383 128.48 341.981 128.714L339.883 129.726L338.552 130.355C338.4 130.439 338.238 130.502 338.07 130.543C338.21 130.442 338.357 130.351 338.511 130.273L339.809 129.579L341.875 128.502C342.319 128.236 342.841 128.132 343.353 128.208L344.986 128.436L348.684 128.975L352.946 129.53L362.744 130.812L378.893 133.025H378.942C380.048 133.664 380.972 134.574 381.628 135.67C382.13 136.48 382.528 137.349 382.812 138.258C382.992 138.828 383.134 139.409 383.237 139.997C383.29 140.208 383.32 140.425 383.326 140.642Z" fill="#EB996E"/>
<path d="M373.177 132.266C373.065 131.883 372.991 131.489 372.957 131.09C372.818 130.274 372.646 129.18 372.442 127.882C371.977 125.098 371.364 121.391 370.687 117.268C370.009 113.145 369.389 109.463 368.931 106.654C368.727 105.356 368.564 104.27 368.433 103.437C368.349 103.045 368.305 102.646 368.303 102.245C368.437 102.622 368.535 103.01 368.597 103.404L369.225 106.605C369.74 109.307 370.417 113.039 371.111 117.219C371.805 121.399 372.377 125.114 372.744 127.833C372.932 129.196 373.054 130.282 373.128 131.099C373.183 131.485 373.199 131.876 373.177 132.266Z" fill="#263238"/>
<path d="M527.895 310.987C527.895 311.109 409.722 311.199 263.985 311.199C118.248 311.199 0.0576172 311.109 0.0576172 310.987C0.0576172 310.864 118.207 310.774 264.001 310.774C409.795 310.774 527.895 310.872 527.895 310.987Z" fill="#263238"/>
<path d="M15.8802 283.767C14.5657 285.538 12.1246 284.869 11.0223 283.767C9.92013 282.664 9.47108 281.023 9.07101 279.488C8.16475 275.986 7.25848 272.312 8.09943 268.793C8.30325 267.723 8.80079 266.731 9.53639 265.927C9.90719 265.532 10.3754 265.241 10.8941 265.083C11.4128 264.925 11.9638 264.907 12.492 265.029C13.7248 265.388 14.4596 266.621 14.9903 267.789C16.5274 271.233 17.283 274.975 17.2029 278.745C17.2675 280.514 16.8042 282.262 15.8721 283.767" fill="#FF725E"/>
<g opacity="0.2">
<path opacity="0.2" d="M15.8802 283.767C14.5657 285.538 12.1246 284.869 11.0223 283.767C9.92013 282.664 9.47108 281.023 9.07101 279.488C8.16475 275.986 7.25848 272.312 8.09943 268.793C8.30325 267.723 8.80079 266.731 9.53639 265.927C9.90719 265.532 10.3754 265.241 10.8941 265.083C11.4128 264.925 11.9638 264.907 12.492 265.029C13.7248 265.388 14.4596 266.621 14.9903 267.789C16.5274 271.233 17.283 274.975 17.2029 278.745C17.2675 280.514 16.8042 282.262 15.8721 283.767" fill="black"/>
</g>
<path d="M10.8998 292.773C8.81108 291.726 6.4424 291.374 4.13955 291.769C2.88366 291.85 1.68975 292.344 0.7431 293.173C-0.122342 294.079 -0.318292 295.704 0.62063 296.529C1.23213 296.959 1.97281 297.167 2.71892 297.117C4.51512 297.117 6.51543 296.88 7.91973 297.998C8.73619 298.643 9.24238 299.68 10.214 300.007C10.6997 300.135 11.214 300.1 11.6783 299.908C12.1427 299.717 12.5316 299.379 12.7858 298.945C13.2775 298.057 13.409 297.013 13.1532 296.031C13.0529 295.351 12.7974 294.704 12.4066 294.139C12.0159 293.574 11.5003 293.107 10.8998 292.773Z" fill="#FF725E"/>
<path d="M19.2776 286.444C18.6496 285.58 18.243 284.575 18.0936 283.518C17.9441 282.46 18.0563 281.382 18.4203 280.378C19.1558 278.373 20.43 276.611 22.1025 275.283C24.0254 273.669 26.2437 272.443 28.6341 271.674C29.5592 271.33 30.5482 271.19 31.5325 271.266C32.0232 271.307 32.4963 271.468 32.9105 271.734C33.3247 272 33.6673 272.364 33.9084 272.793C34.5534 274.091 33.8594 275.634 33.092 276.875C31.7983 279.086 30.3323 281.19 28.7076 283.17C27.4013 284.762 25.9153 286.33 23.9722 287.016C22.029 287.701 20.0369 287.554 19.0735 286.199" fill="#FF725E"/>
<path d="M15.2346 310.987C15.1736 310.719 15.1435 310.446 15.1448 310.171C15.0958 309.567 15.0468 308.816 14.9815 307.926C14.9005 306.83 14.7615 305.74 14.5651 304.66C14.3083 303.332 13.9451 302.027 13.4793 300.757C13.0247 299.484 12.3895 298.282 11.5932 297.189C10.9454 296.304 10.1087 295.573 9.14388 295.05C8.48992 294.701 7.7843 294.458 7.05376 294.332C6.77705 294.318 6.50296 294.271 6.2373 294.193C6.50874 294.165 6.78233 294.165 7.05376 294.193C7.81234 294.269 8.55086 294.482 9.23369 294.822C10.2511 295.338 11.1365 296.081 11.8219 296.993C12.6496 298.1 13.3073 299.325 13.7732 300.627C14.2545 301.895 14.6233 303.204 14.8754 304.537C15.0581 305.64 15.1753 306.752 15.2265 307.868C15.2265 308.824 15.2755 309.591 15.2755 310.122C15.2908 310.411 15.2772 310.701 15.2346 310.987Z" fill="#263238"/>
<path d="M15.1292 309.255C15.1114 309.128 15.1114 308.999 15.1292 308.872C15.1292 308.586 15.1292 308.227 15.1292 307.786C15.1292 306.847 15.1945 305.475 15.1864 303.793C15.1864 300.413 15.0312 295.751 14.6067 290.616C14.1821 285.48 13.5535 280.818 12.9738 277.553C12.835 276.736 12.6962 275.969 12.5574 275.315C12.4186 274.662 12.3206 274.091 12.2145 273.625C12.1083 273.16 12.043 272.809 11.9859 272.564C11.954 272.441 11.9348 272.315 11.9287 272.188C11.9287 272.188 11.9859 272.311 12.0512 272.548C12.1165 272.784 12.2226 273.168 12.3369 273.601C12.4512 274.034 12.5982 274.622 12.7452 275.275C12.8921 275.928 13.0554 276.679 13.2105 277.512C14.0259 281.832 14.6092 286.193 14.9578 290.575C15.3823 295.719 15.5129 300.372 15.4476 303.785C15.4476 305.475 15.3497 306.847 15.2762 307.786C15.2762 308.227 15.2109 308.602 15.1864 308.872C15.1759 309.001 15.1568 309.129 15.1292 309.255Z" fill="#263238"/>
<path d="M15.3488 300.251C15.3147 299.871 15.3147 299.488 15.3488 299.108C15.4141 298.381 15.5366 297.328 15.7815 296.046C16.4293 292.693 17.482 289.43 18.9167 286.331C20.2982 283.198 22.2344 280.341 24.6319 277.897C25.051 277.48 25.4954 277.09 25.9627 276.729C26.1668 276.566 26.3464 276.402 26.5261 276.272L27.0404 275.937C27.3491 275.719 27.6739 275.526 28.012 275.357C26.8876 276.194 25.816 277.099 24.8033 278.068C22.474 280.531 20.58 283.372 19.2025 286.469C18.4243 288.161 17.7562 289.901 17.2022 291.678C16.7317 293.127 16.3365 294.598 16.0183 296.087C15.7489 297.361 15.5856 298.406 15.4794 299.124C15.4613 299.502 15.4177 299.879 15.3488 300.251Z" fill="#263238"/>
</svg>
