<svg width="1643" height="1384" viewBox="0 0 1643 1384" fill="none" xmlns="http://www.w3.org/2000/svg">
<path d="M622.301 698.669L320.896 324.845L56.2986 144.099L0 944.349H464.234C527.49 889.653 579.428 822.548 616.132 746.886L622.301 698.669Z" fill="#72A9E1"/>
<path d="M1246.72 142.528H55.2969V896.2H1246.72V142.528Z" fill="#CEE6FF"/>
<path d="M1246.72 736.809H55.2969V896.2H1246.72V736.809Z" fill="#7CB7F2"/>
<mask id="mask0_226_1597" style="mask-type:alpha" maskUnits="userSpaceOnUse" x="200" y="269" width="288" height="405">
<path d="M487.548 269.812H200.049V673.083H487.548V269.812Z" fill="white"/>
</mask>
<g mask="url(#mask0_226_1597)">
<path d="M334.107 589.253L304.728 596.568C304.728 596.568 261.392 602.929 222.863 609.256L233.804 699.017L435.849 711.214C435.849 711.214 441.229 650.234 434.641 623.101L388.837 605.514L347.19 594.946L337.705 589.253H334.107V589.253Z" fill="#72A9E1"/>
<path d="M269.941 671.098L222.861 609.256C222.861 609.256 161.508 793.972 161.508 936.705H385.82L408.336 724.282L400.119 662.431L269.941 671.098Z" fill="#72A9E1"/>
<path d="M434.647 623.101C459.665 651.551 480.639 687.545 522.775 757.624L616.823 641.829L650.914 662.423C650.914 662.423 584.943 811.762 525.011 855.392C525.011 855.392 433.191 812.092 383.712 724.274C326.411 622.586 426.508 648.434 426.508 648.434L434.647 623.101Z" fill="#72A9E1"/>
<path d="M319.572 375.411C319.572 375.411 283.287 420.131 272.569 473.796C261.851 527.461 284.941 546.975 323.701 538.84L304.732 596.568L315.382 638.213L388.851 605.506L402.867 501.427L431.732 459.959L425.135 392.474L387.197 375.402H319.572V375.411Z" fill="#FFA698"/>
<path d="M360.536 461.328C379.873 463.989 392.425 423.383 403.966 434.229C415.515 445.067 401.215 486.805 376.48 496.561C376.48 496.561 357.786 522.038 372.085 536.128C386.376 550.218 412.216 513.363 412.216 513.363C412.216 513.363 436.403 524.201 450.703 492.219C464.994 460.238 448.501 436.932 448.501 436.932C448.501 436.932 488.084 401.699 473.793 372.429C459.502 343.159 423.766 353.456 423.766 353.456C423.766 353.456 412.773 299.791 389.683 294.376C366.593 288.953 360.544 309.556 360.544 309.556C360.544 309.556 340.719 293.092 315.393 300.222C282.792 309.395 286.879 361.05 286.879 361.05C286.879 361.05 256.284 363.221 257.329 388.698C258.657 421.017 296.92 410.112 296.92 410.112C296.92 410.112 309.969 387.068 319.591 375.419C319.591 375.419 324.817 393.032 343.503 397.914C362.198 402.797 374.844 389.239 376.489 402.797C378.125 416.338 336.889 458.076 360.536 461.328Z" fill="#20211B"/>
<path d="M362.636 515.508C351.069 528.602 323.696 538.84 323.696 538.84L311.949 574.588C355.353 556.9 362.636 515.508 362.636 515.508Z" fill="#72A9E1"/>
<path d="M244.647 938.361C244.595 938.361 244.544 938.361 244.493 938.352C243.567 938.268 242.89 937.465 242.976 936.553C252.221 837.965 270.753 762.447 284.667 716.451C299.763 666.57 312.855 639.623 312.992 639.362C313.394 638.542 314.397 638.196 315.228 638.593C316.059 638.99 316.41 639.978 316.007 640.798C315.879 641.059 302.873 667.829 287.845 717.499C273.983 763.333 255.528 838.599 246.309 936.857C246.232 937.719 245.495 938.361 244.647 938.361Z" fill="#20211B"/>
<path d="M440.07 508.117C407.162 483.021 416.329 450.245 423.697 423.907C426.953 412.266 430.029 401.276 429.147 392.517C427.921 380.446 419.294 378.976 408.37 377.126C395.552 374.955 379.591 372.243 377.02 347.738C375.538 333.572 368.693 322.59 356.672 315.098C340.462 304.986 318.323 303.981 309.215 307.149L308.102 304.032C318.083 300.56 341.139 301.498 358.463 312.31C371.203 320.259 378.777 332.398 380.353 347.4C382.667 369.413 396.024 371.677 408.935 373.874C419.782 375.715 430.997 377.616 432.479 392.196C433.43 401.564 430.269 412.849 426.927 424.794C419.456 451.495 410.983 481.77 442.118 505.507L440.07 508.117Z" fill="#2F3027"/>
<path d="M398.489 430.538L396.176 428.147C396.347 427.987 413.397 411.751 410.321 400.939C409.113 396.698 404.735 393.742 397.307 392.128C367.003 385.573 365.478 381.932 355.548 358.246C354.306 355.281 352.9 351.919 351.29 348.219C348.3 341.343 343.476 336.765 336.947 334.602C318.552 328.52 292.344 343.083 292.078 343.235L290.416 340.363C291.538 339.73 318.21 324.922 338.01 331.468C345.481 333.935 350.981 339.139 354.366 346.918C355.985 350.644 357.399 354.014 358.641 356.988C368.203 379.795 369.428 382.726 398.018 388.91C406.749 390.802 411.975 394.544 413.543 400.052C417.167 412.765 399.252 429.82 398.489 430.538Z" fill="#2F3027"/>
<path d="M336.441 491.746C304.732 520.036 294.305 491.451 294.305 491.451L336.441 491.746Z" fill="#CEE6FF"/>
<path d="M385.877 478.83C385.38 478.83 384.883 478.78 384.378 478.678C381.961 478.188 380.282 476.719 379.52 474.421C377.112 467.19 384.763 452.813 388.773 448.42C392.32 444.535 397.615 442.811 401.093 444.416C402.73 445.168 405.36 447.297 404.52 453.058C404.392 453.962 403.535 454.587 402.627 454.46C401.71 454.333 401.076 453.497 401.205 452.593C401.479 450.676 401.445 448.226 399.671 447.407C397.546 446.427 393.776 447.871 391.257 450.625C387.256 455.001 380.908 468.018 382.698 473.382C383.084 474.548 383.812 475.181 385.046 475.435C388.173 476.068 391.789 472.757 393.819 469.412C395.798 466.143 396.047 463.414 395.276 462.493C394.53 461.606 392.286 461.75 389.278 462.857C388.413 463.178 387.445 462.747 387.119 461.894C386.794 461.04 387.231 460.086 388.096 459.765C392.757 458.042 396.038 458.244 397.846 460.373C400.151 463.093 398.763 467.697 396.698 471.101C394.445 474.843 390.375 478.83 385.877 478.83Z" fill="#72A9E1"/>
<path d="M253.316 628.955L222.857 609.256L74.8754 739.251L-121.352 776.892V811.973L83.5373 829.045C136.512 804.303 181.878 772.981 224.451 739.243L253.316 628.955Z" fill="#72A9E1"/>
<path d="M180.567 772.144C180.73 771.384 199.253 685.247 217.768 627.958C217.768 627.958 156.629 702.421 127.738 805.984C146.133 795.391 163.663 784.038 180.567 772.144Z" fill="#006E6A"/>
<path d="M488.816 674.334H198.789V268.57H488.816V674.334ZM201.308 671.842H486.28V271.062H201.308V671.842V671.842Z" fill="#2F3027"/>
</g>
<path d="M993.985 265.503H592.27V273.951H993.985V265.503Z" fill="#2F3027"/>
<path d="M765.201 335.717H592.27V338.209H765.201V335.717Z" fill="#2F3027"/>
<path d="M952.851 402.966H592.27V405.458H952.851V402.966Z" fill="#2F3027"/>
<path d="M868.022 470.206H592.27V472.698H868.022V470.206Z" fill="#2F3027"/>
<path d="M1022.26 537.446H592.27V539.938H1022.26V537.446Z" fill="#2F3027"/>
<path d="M772.561 604.695H592.27V607.187H772.561V604.695Z" fill="#2F3027"/>
<path d="M1108.05 671.935H592.27V674.427H1108.05V671.935Z" fill="#2F3027"/>
<path d="M487.548 229.653H200.049V232.145H487.548V229.653Z" fill="#2F3027"/>
<path d="M1198.48 783.328H103.523V791.775H1198.48V783.328Z" fill="#CEE6FF"/>
<path d="M1198.48 837.011H103.523V845.458H1198.48V837.011Z" fill="#CEE6FF"/>
<path d="M1248.99 899.014H55.0391V689.589H57.5666V896.522H1246.46V145.35H527.781V142.858H1248.99V899.014Z" fill="#2F3027"/>
<path d="M1360.49 799.708L1595.03 831.595C1624.33 835.852 1644.58 862.724 1640.26 891.621L1621.38 1017.92C1617.06 1046.8 1589.8 1066.77 1560.49 1062.52L1325.96 1030.63C1296.66 1026.37 1276.4 999.501 1280.72 970.604L1299.61 844.308C1303.93 815.42 1331.19 795.451 1360.49 799.708Z" fill="#CEE6FF"/>
<path d="M699.903 338.437L791.449 405.378L779.901 420.731L688.355 353.79L699.903 338.437Z" fill="#2F3027"/>
<path d="M343.46 89.7156C417.497 -8.70602 558.439 -29.3146 658.265 43.6708C758.09 116.656 778.992 255.626 704.966 354.048C630.93 452.47 489.987 473.088 390.162 400.093C290.336 327.098 269.424 188.137 343.46 89.7156ZM689.678 342.878C757.452 252.775 738.314 125.574 646.926 58.7438C555.537 -8.07675 426.522 10.7915 358.738 100.885C290.965 190.989 310.102 318.19 401.491 385.02C492.879 451.84 621.904 432.972 689.678 342.878Z" fill="#427DBA"/>
<path d="M707.905 405.146L755.412 341.991L1249.64 703.38L1202.13 766.535L707.905 405.146Z" fill="#427DBA"/>
<path d="M1291.09 870.505L1636.57 915.69L1636.18 918.565L1290.7 873.38L1291.09 870.505Z" fill="#2F3027"/>
<path d="M1349.32 1296.9L1343.44 1324.76L1346.5 1351.5L1308.59 1363.1L1304.67 1342.48L1312.51 1337.97L1304.67 1296.9L1344.09 1292.39L1349.32 1296.9Z" fill="#FFA698"/>
<path d="M1136.67 1290.92L1130.78 1318.78V1351.5L1092.87 1363.1L1088.95 1342.48L1096.79 1337.97L1092.01 1290.92L1131.43 1286.41L1136.67 1290.92Z" fill="#FFA698"/>
<path d="M1568.38 1064.53C1595.47 1064.53 1618.87 1044.58 1622.83 1018.12L1641.72 891.828C1643.86 877.472 1640.21 863.147 1631.44 851.505C1622.66 839.854 1609.81 832.283 1595.25 830.159L1360.7 798.273C1358.03 797.89 1355.31 797.683 1352.61 797.683C1325.53 797.683 1302.12 817.633 1298.17 844.092L1279.29 970.388C1277.14 984.743 1280.79 999.069 1289.57 1010.71C1298.34 1022.36 1311.2 1029.93 1325.76 1032.06L1560.31 1063.94C1562.97 1064.34 1565.7 1064.53 1568.38 1064.53ZM1352.6 800.584C1355.16 800.584 1357.74 800.77 1360.28 801.144L1594.84 833.03C1608.61 835.036 1620.78 842.204 1629.08 853.236C1637.39 864.258 1640.85 877.817 1638.82 891.405L1619.93 1017.7C1616.19 1042.74 1594.03 1061.63 1568.39 1061.63C1565.85 1061.63 1563.26 1061.45 1560.72 1061.07L1326.17 1029.19C1312.39 1027.18 1300.23 1020.01 1291.92 1008.98C1283.61 997.958 1280.15 984.399 1282.19 970.811L1301.08 844.515C1304.82 819.472 1326.96 800.584 1352.6 800.584Z" fill="#2F3027"/>
<path d="M1538.74 891.523L1565.03 895.092C1568.31 895.574 1570.58 898.582 1570.09 901.817L1567.98 915.966C1567.49 919.201 1564.44 921.443 1561.16 920.961L1534.87 917.392C1531.59 916.91 1529.32 913.901 1529.8 910.666L1531.92 896.518C1532.41 893.283 1535.46 891.041 1538.74 891.523Z" fill="#CEE6FF"/>
<path d="M1562.05 922.485C1565.73 922.485 1568.91 919.771 1569.44 916.182L1571.55 902.033C1571.84 900.087 1571.35 898.14 1570.16 896.557C1568.96 894.974 1567.21 893.941 1565.24 893.656L1538.94 890.077C1538.59 890.028 1538.22 889.999 1537.85 889.999C1534.17 889.999 1530.99 892.702 1530.46 896.301L1528.35 910.45C1527.75 914.471 1530.58 918.227 1534.66 918.817L1560.96 922.396C1561.31 922.465 1561.68 922.485 1562.05 922.485ZM1537.86 892.909C1538.08 892.909 1538.31 892.928 1538.53 892.958L1564.83 896.537C1566.02 896.714 1567.07 897.333 1567.8 898.297C1568.53 899.261 1568.83 900.44 1568.65 901.62L1566.54 915.769C1566.21 917.952 1564.28 919.594 1562.05 919.594C1561.83 919.594 1561.6 919.574 1561.38 919.545L1535.08 915.966C1532.62 915.612 1530.9 913.331 1531.26 910.882L1533.38 896.734C1533.71 894.551 1535.63 892.909 1537.86 892.909Z" fill="#2F3027"/>
<path d="M1357.43 867.679L1383.72 871.248C1387 871.73 1389.27 874.739 1388.79 877.973L1386.67 892.122C1386.18 895.357 1383.13 897.599 1379.85 897.117L1353.56 893.548C1350.28 893.066 1348.01 890.057 1348.5 886.823L1350.61 872.674C1351.09 869.439 1354.15 867.197 1357.43 867.679Z" fill="#CEE6FF"/>
<path d="M1380.73 898.642C1384.41 898.642 1387.59 895.938 1388.12 892.339L1390.23 878.181C1390.52 876.234 1390.02 874.287 1388.83 872.704C1387.64 871.121 1385.9 870.089 1383.92 869.804L1357.62 866.225C1357.27 866.175 1356.9 866.146 1356.53 866.146C1352.85 866.146 1349.68 868.85 1349.14 872.448L1347.03 886.597C1346.43 890.618 1349.26 894.374 1353.34 894.964L1379.64 898.543C1379.99 898.612 1380.36 898.642 1380.73 898.642ZM1356.54 869.066C1356.76 869.066 1356.99 869.086 1357.21 869.115L1383.51 872.694C1384.7 872.871 1385.75 873.491 1386.48 874.454C1387.21 875.418 1387.51 876.598 1387.33 877.778L1385.21 891.936C1384.89 894.119 1382.96 895.761 1380.73 895.761C1380.51 895.761 1380.28 895.741 1380.06 895.712L1353.76 892.133C1351.3 891.779 1349.58 889.498 1349.94 887.049L1352.06 872.901C1352.38 870.708 1354.32 869.066 1356.54 869.066Z" fill="#2F3027"/>
<path d="M1224.31 705.269L1290.95 739.092C1290.95 739.092 1317.77 873.225 1341.42 1037.68C1365.08 1202.14 1368.63 1318.78 1368.63 1318.78H1304.74C1304.74 1318.78 1258.61 1117 1244.41 1047.01C1230.21 977.025 1179.35 840.562 1179.35 840.562C1179.35 840.562 1169.89 1042.34 1171.07 1103C1172.26 1163.65 1166.35 1318.78 1166.35 1318.78H1094.18C1094.18 1318.78 1087.87 1233.63 1076.83 1120.5C1065.79 1007.36 1058.3 806.748 1063.82 739.092L1153.73 695.938L1215.3 706.439L1224.31 705.269Z" fill="#72A9E1"/>
<path d="M1452.63 723.537C1452.63 723.537 1436.07 737.145 1433.7 749.976C1431.34 762.807 1435.28 775.245 1438.04 775.639C1440.8 776.032 1445.53 775.639 1445.53 775.639C1445.53 775.639 1445.93 787.3 1457.76 792.747C1469.58 798.194 1472.74 788.863 1484.17 790.417C1495.6 791.97 1504.68 781.863 1507.84 771.362C1510.99 760.861 1507.44 740.262 1486.55 723.537H1452.63Z" fill="#FFA698"/>
<path d="M1128.38 1344.16C1140.18 1334.19 1148.37 1367.81 1147.66 1383.11H1003.76C1003.76 1383.11 1004.47 1368.51 1029.15 1362.25C1053.85 1355.98 1063.54 1350.43 1071.98 1344.16C1080.41 1337.9 1090.99 1329.56 1097.35 1333.73C1103.7 1337.9 1098.75 1346.25 1098.75 1346.25C1098.75 1346.25 1118.51 1352.5 1128.38 1344.16Z" fill="#20211B"/>
<path d="M1344.1 1344.16C1355.9 1334.19 1364.08 1367.81 1363.38 1383.11H1219.48C1219.48 1383.11 1220.19 1368.51 1244.87 1362.25C1269.56 1355.98 1279.26 1350.43 1287.69 1344.16C1296.13 1337.9 1306.71 1329.56 1313.06 1333.73C1319.42 1337.9 1314.47 1346.25 1314.47 1346.25C1314.47 1346.25 1334.23 1352.5 1344.1 1344.16Z" fill="#20211B"/>
<path d="M1528.27 823.385L1531.21 823.306C1530.7 805.411 1524.31 763.191 1476.47 757.577C1432.56 752.415 1415.55 786.228 1409.32 806.837L1412.14 807.663C1418.11 787.929 1434.34 755.542 1476.12 760.458C1521.7 765.797 1527.77 806.237 1528.27 823.385Z" fill="#2F3027"/>
<path d="M1063.82 739.092L1089.43 726.802L1290.96 739.092L1062.19 777.114C1062.47 762.021 1063 749.092 1063.82 739.092Z" fill="#4E8AC7"/>
<path d="M982.192 200.231C982.192 200.231 1009.8 272.932 1034.25 286.54C1058.7 300.147 1078.02 274.102 1078.02 274.102L1088.67 307.541L1153.73 289.656L1111.14 222.01C1111.14 222.01 1069.73 185.08 1063.42 183.133C1057.11 181.186 995.196 174.195 995.196 174.195L982.192 200.231Z" fill="#FFA698"/>
<path d="M1127.31 178.462C1134.01 171.078 1141.11 153.97 1135.58 145.416C1130.06 136.862 1116.26 144.639 1111.92 131.415C1107.58 118.2 1099.69 90.9842 1073.66 85.5371C1047.63 80.09 1037.78 110.806 1023.98 105.369C1010.18 99.9218 986.522 92.931 977.846 109.253C969.17 125.574 983.76 138.415 972.72 158.237C961.681 178.059 944.727 184.283 951.429 201.008C958.13 217.723 993.423 226.582 993.423 226.582C993.423 226.582 995.996 210.722 1001.91 195.177C1007.82 179.623 1022.02 178.462 1023.2 192.07C1024.39 205.678 1018.86 233.504 1033.06 226.592C1047.27 219.68 1041.74 186.24 1061.06 197.134C1080.38 208.018 1058.69 237.181 1073.67 248.459C1088.66 259.737 1111.13 256.62 1110.74 236.021C1110.74 236.021 1137.16 235.628 1142.28 218.136C1147.42 200.625 1127.31 178.462 1127.31 178.462Z" fill="#20211B"/>
<path d="M1084.52 262.824L1081.83 286.097L1078.01 274.101L1084.52 262.824Z" fill="#72A9E1"/>
<path d="M1278.34 286.097C1256.59 272.528 1204.2 281.092 1143.13 302.871C1068.79 329.379 1037.8 331.641 1001.52 382.189C965.24 432.727 947.1 500.383 878.489 502.713C809.878 505.044 765.709 419.512 765.709 419.512L738.105 442.844C738.105 442.844 761.77 589.808 869.025 610.8C976.28 631.792 1040.95 567.253 1040.95 567.253L1063.82 739.092H1290.95C1290.95 739.092 1326.45 664.445 1328.02 540.814C1328.02 540.814 1419.51 631.792 1452.63 723.548H1486.55C1486.55 723.538 1498.37 423.396 1278.34 286.097Z" fill="#72A9E1"/>
<path d="M765.701 419.512C765.701 419.512 767.964 380.143 761.462 373.437C754.96 366.732 751.41 375.768 751.41 375.768C751.41 375.768 748.747 353.311 736.331 352.436C723.916 351.56 722.43 361.186 712.078 368.472C701.726 375.758 696.112 376.053 699.363 394.715C702.614 413.376 724.793 436.413 738.107 442.824L765.701 419.512Z" fill="#FFA698"/>
<path d="M1192.95 287.631C1192.95 287.631 1172.63 276.363 1141.1 269.598L1084.52 294.543L1071.12 327.894L1192.95 287.631Z" fill="#CEE6FF"/>
<path d="M1307.5 343.262C1307.5 343.262 1373.64 437.239 1363.55 580.142C1343.26 555.965 1328.02 540.803 1328.02 540.803C1328.02 540.803 1342.79 450.562 1307.5 343.262Z" fill="#4E8AC7"/>
<path d="M972.729 158.247C983.769 138.415 969.179 125.584 977.855 109.262C986.531 92.9307 1010.19 99.9313 1023.99 105.378C1037.79 110.826 1047.64 80.1093 1073.67 85.5466C1099.7 90.9937 1107.59 118.21 1111.93 131.424C1116.26 144.639 1130.07 136.871 1135.59 145.425C1141.12 153.98 1134.02 171.088 1127.31 178.472C1127.31 178.472 1139.52 191.932 1142.49 206.15C1132.95 214.183 1121.43 218.106 1112.38 207.389C1093.21 184.666 1085.33 172.061 1071.13 169.908C1056.93 167.755 1050.55 190.428 1036.33 169.908C1022.11 149.388 1021.14 129.566 1009.37 135.849C998.907 141.434 983.41 181.412 958.039 177.636C962.547 172.356 968.142 166.477 972.729 158.247Z" fill="#2F3027"/>
<path d="M1115.75 478.221C1100.64 552.239 1065.34 587.369 1045.54 601.794L1040.94 567.253C1092.96 524.157 1115.75 478.221 1115.75 478.221Z" fill="#4E8AC7"/>
<path d="M887.404 548.718C900.408 548.718 913.931 546.604 927.922 542.357C950.341 535.563 971.901 520.028 992.016 496.194C1008.03 477.208 1023.18 452.922 1037.04 424.015C1060.61 374.853 1072.44 328.691 1072.55 328.228L1069.7 327.53C1069.58 327.992 1057.82 373.919 1034.37 422.825C1012.81 467.798 976.688 524.56 927.075 539.594C854.325 561.638 797.292 526.114 752.734 431.016L750.062 432.235C768.96 472.557 789.393 501.503 812.54 520.726C834.988 539.358 860.059 548.718 887.404 548.718Z" fill="#CEE6FF"/>
<path d="M1274.97 1134.45C1293.39 1226.04 1343.16 1289.64 1368.58 1317.21C1368.62 1318.24 1368.63 1318.78 1368.63 1318.78H1304.74C1304.74 1318.78 1258.61 1117 1244.41 1047.01C1230.21 977.024 1179.35 840.562 1179.35 840.562H1215.29C1215.3 840.562 1249.79 1009.22 1274.97 1134.45Z" fill="#4E8AC7"/>
<path d="M1228.9 836.819L1229.04 839.716L1179.35 842.051L1179.21 839.153L1228.9 836.819Z" fill="#CEE6FF"/>
<path d="M1062.4 767.95L1075.74 762.758C1075.74 762.758 1075.88 904.885 1086.01 1026.69C1096.14 1148.49 1103 1242.26 1115.75 1269.33C1122.02 1282.64 1129.85 1302.27 1136.19 1318.78H1094.19C1094.19 1318.78 1087.87 1233.63 1076.83 1120.5C1067.08 1020.59 1060.1 852.488 1062.4 767.95Z" fill="#4E8AC7"/>
<path d="M1500.11 756.476L1506.81 765.335L1508.36 769.219C1508.36 769.219 1507.15 775.354 1504.24 779.267C1501.32 783.181 1479.85 775.492 1479.85 775.492C1479.85 775.492 1464.66 773.24 1464 773.555C1463.34 773.879 1451.9 771.136 1451.9 771.136L1450.43 751.481C1450.43 751.481 1465.47 748.905 1469.06 749.229C1472.66 749.554 1482.51 751.324 1486.66 751.973C1490.79 752.612 1500.11 756.476 1500.11 756.476Z" fill="#FFA698"/>
<path d="M685.076 226.798C687.829 226.798 690.062 224.596 690.062 221.882C690.062 131.719 615.667 58.3701 524.218 58.3701C521.466 58.3701 519.232 60.5726 519.232 63.2863C519.232 66 521.466 68.2025 524.218 68.2025C610.172 68.2025 680.09 137.147 680.09 221.882C680.09 224.596 682.314 226.798 685.076 226.798Z" fill="#CEE6FF"/>
</svg>
