<svg width="1620" height="1293" viewBox="0 0 1620 1293" fill="none" xmlns="http://www.w3.org/2000/svg">
<path d="M402.828 283.175C377.241 225.771 321.706 188.097 268.331 202.386C153.814 232.999 169.391 406.124 87.1477 518.066C-12.2085 653.31 -13.413 766.996 73.0667 783.487C169.931 801.929 260.439 698.045 250.138 480.475C243.7 344.401 272.402 296.218 309.245 285.75C336.327 278.066 366.566 310.673 366.566 310.673L402.828 283.175Z" fill="#263238"/>
<path d="M248.525 405.17C247.985 426.811 249.896 448.41 251.017 469.968C252.139 491.526 253.759 513 254.423 534.475C255.214 555.909 254.923 577.369 253.551 598.774C252.384 620.06 249.058 641.172 243.624 661.785C238.535 682.346 229.538 701.737 217.123 718.898C203.91 735.785 187.876 750.259 169.73 761.681C151.425 773.32 130.691 780.596 109.127 782.948C98.2643 784.146 87.2927 783.951 76.4793 782.367C71.0557 781.603 65.6964 780.437 60.4461 778.877C55.1219 777.532 50.0168 775.434 45.2852 772.647C54.5642 778.814 64.989 783.052 75.9393 785.108C86.948 787.465 98.2116 788.414 109.46 787.932C120.731 787.319 131.887 785.353 142.689 782.076C153.512 778.701 163.921 774.117 173.717 768.41C183.481 762.773 192.688 756.222 201.214 748.846L207.445 743.197L213.468 737.341C217.501 733.361 221.262 729.115 224.724 724.63C238.079 706.615 247.8 686.173 253.343 664.443C264.641 621.536 264.932 577.216 262.191 534.225C260.82 512.585 258.452 491.069 255.835 469.594C253.219 448.12 250.269 426.686 248.525 405.17Z" fill="#263238"/>
<path d="M377.742 249.946C368.684 237.976 358.147 227.202 346.382 217.88C334.756 208.878 321.237 202.637 306.845 199.63C292.453 196.622 277.565 196.925 263.308 200.517C256.185 202.359 249.235 204.819 242.54 207.869C235.913 210.773 229.596 214.335 223.682 218.503C212.233 227.309 202.396 238.032 194.606 250.195C186.818 262.658 180.345 275.897 175.291 289.697C164.616 317.36 157.223 346.602 148.583 375.553C140.357 404.864 129.886 433.499 117.264 461.202C103.566 488.349 87.7755 514.388 70.037 539.084C52.9239 564.006 35.1461 588.222 21.5635 614.806C14.4229 627.912 8.96612 641.868 5.32262 656.343L2.91351 667.267C2.41507 670.964 2.16583 674.702 1.792 678.399L1.37663 683.798V689.447L1.62585 700.704C-3.31704 670.797 3.41194 639.52 16.3714 612.064C29.3309 584.608 46.3195 559.229 62.4773 533.85C78.6352 508.471 94.7515 483.217 107.171 456.218C119.253 428.917 129.304 400.761 137.244 371.981C146.049 343.279 153.485 313.83 164.907 285.46C170.478 271.045 177.536 257.249 185.966 244.297C194.71 231.277 205.811 220.006 218.697 211.068C225.235 206.771 232.194 203.152 239.466 200.268C246.63 197.256 254.054 194.906 261.647 193.248C276.825 189.79 292.61 189.998 307.692 193.855C322.774 197.712 336.721 205.108 348.375 215.429C359.756 225.479 369.645 237.102 377.742 249.946V249.946Z" fill="#263238"/>
<path d="M425.057 293.852C425.057 282.928 416.75 268.93 409.813 267.31C402.876 265.69 350.872 289.241 346.719 302.782C342.565 316.323 366.075 327.704 366.075 327.704L425.057 293.852Z" fill="#72A9E1"/>
<path d="M373.633 725.045C403.705 905.108 448.69 1048.83 496.291 1085.96C534.713 1115.95 590.164 1139.29 647.693 1157.15C709.259 1175.46 771.963 1189.7 835.398 1199.77C854.92 1203.01 871.203 1205.34 882.75 1207.12C911.327 1211.28 973.84 1025.4 955.356 1000.6C951.203 994.91 932.511 989.303 906.218 983.737C817.703 965.253 632.407 950.757 622.729 939.874C613.051 928.991 523.622 797.735 451.722 696.717C401.379 626.022 356.976 625.191 373.633 725.045Z" fill="#F7A9A0"/>
<path d="M826.672 1183.28C830.12 1185.23 879.05 1211.4 909.538 1221.7C932.3 1229.43 998.427 1249.87 1009.23 1225.65C1016.74 1209.03 979.278 1192.42 953.027 1180.21C939.237 1173.73 922.539 1158.19 927.067 1149.35C935.042 1133.85 970.597 1151.34 993.816 1166.25C1038.72 1195.08 1097.99 1246.04 1127.19 1223.91C1138.2 1215.6 1126.57 1198.98 1109.16 1182.37C1137.7 1202.06 1168.31 1218.55 1180.94 1209.74C1188.17 1204.72 1188.83 1197.28 1185.3 1188.97C1194.23 1192.34 1202.25 1192.13 1208.1 1186.44C1218.07 1176.89 1214.09 1161.97 1204.33 1146.4C1206.13 1146.28 1207.88 1145.73 1209.43 1144.81C1210.98 1143.89 1212.29 1142.61 1213.26 1141.08C1234.81 1111.22 1137.66 1018.3 1103.06 1008.45C1001.29 979.378 891.47 983.531 891.47 983.531C849.808 1013.85 826.589 1183.2 826.672 1183.28Z" fill="#F7A9A0"/>
<path d="M982.145 1094.1C1006.53 1098.84 1029.57 1108.91 1049.6 1123.59C1072.86 1141.12 1090.93 1164.51 1112.28 1184.11C1112.86 1184.65 1111.99 1185.52 1111.41 1184.98C1101.44 1174.89 1090.35 1165.75 1079.92 1155.91C1069.5 1146.06 1059.86 1136.59 1049.06 1127.83C1029.56 1111.74 1006.64 1100.31 982.062 1094.39C981.647 1094.48 981.896 1094.06 982.145 1094.1Z" fill="#263238"/>
<path d="M1003.29 1051.32C1029.95 1059.92 1057.29 1068.64 1081.88 1082.51C1108.71 1097.72 1129.19 1121.52 1149.33 1144.4C1161.4 1158.25 1173.19 1172.26 1184.68 1186.44C1185.18 1187.02 1184.35 1187.89 1183.85 1187.31C1163.41 1163.66 1142.28 1140.65 1120.46 1118.28C1100.38 1097.43 1076.39 1080.74 1049.85 1069.18C1034.65 1062.58 1018.99 1057.18 1003.33 1051.82C1003.3 1051.82 1003.26 1051.82 1003.23 1051.81C1003.2 1051.8 1003.17 1051.78 1003.15 1051.76C1003.12 1051.74 1003.1 1051.71 1003.09 1051.68C1003.07 1051.65 1003.06 1051.62 1003.06 1051.59C1003.06 1051.56 1003.06 1051.52 1003.07 1051.49C1003.08 1051.46 1003.1 1051.43 1003.12 1051.41C1003.14 1051.38 1003.16 1051.36 1003.19 1051.35C1003.22 1051.33 1003.26 1051.32 1003.29 1051.32Z" fill="#263238"/>
<path d="M1033.86 1014.44C1059.86 1021 1082.58 1026.65 1105.22 1041.73C1135.16 1061.75 1163.37 1094.44 1173.42 1106.07C1184.38 1118.86 1194.94 1132.03 1205.28 1145.32C1205.69 1145.86 1204.74 1146.61 1204.32 1146.07C1180.61 1116.82 1155.02 1089.14 1127.73 1063.2C1114.92 1050.62 1100.23 1040.11 1084.2 1032.05C1067.92 1024.82 1051.05 1018.99 1033.77 1014.64C1033.77 1014.64 1033.73 1014.44 1033.86 1014.44Z" fill="#263238"/>
<path d="M402.245 913.58L558.839 821.244C558.839 821.244 492.006 713.248 434.893 662.282C377.78 611.316 354.727 651.316 363.408 725.377C372.089 799.437 402.245 913.58 402.245 913.58Z" fill="#72A9E1"/>
<path d="M453.631 866.607C452.649 872.838 450.775 878.895 448.065 884.592C447.608 885.506 447.193 886.461 446.736 887.375L440.298 891.155C441.253 888.247 442.416 885.381 443.662 882.557C446.203 876.789 449.56 871.417 453.631 866.607ZM389.872 784.073C384.183 781.345 378.122 779.47 371.887 778.507C381.645 786.572 393.345 791.942 405.822 794.083C401.002 790.014 395.633 786.644 389.872 784.073V784.073ZM443.579 692.692C445.685 698.623 448.637 704.219 452.344 709.307C451.157 696.696 446.673 684.62 439.343 674.291C439.879 680.621 441.305 686.843 443.579 692.775V692.692ZM515.563 767.043C510.355 767.745 505.242 769.027 500.319 770.864C494.391 772.997 488.797 775.962 483.704 779.67C490.004 779.167 496.2 777.769 502.105 775.516C507.007 773.733 511.701 771.421 516.103 768.621C515.974 768.106 515.793 767.605 515.563 767.126V767.043Z" fill="white"/>
<path d="M534.175 797.777C509.253 810.612 442.088 847.621 401.839 877.403C401.59 877.403 402.213 878.608 402.462 878.483C439.845 858.919 511.247 814.392 535.089 799.356C535.546 799.065 534.674 797.528 534.175 797.777Z" fill="#263238"/>
<path d="M545.973 828.89L402.297 913.583C402.297 913.583 372.099 799.482 363.418 725.38C357.852 677.571 365.453 643.968 386.928 639.855L545.973 828.89Z" fill="#263238"/>
<path d="M557.381 1291.5H88.207C88.207 1291.5 148.249 790.672 252.341 668.346C254.667 665.521 257.076 662.904 259.485 660.412C259.983 659.831 260.399 659.415 260.897 658.917C268.951 650.306 278.333 643.042 288.685 637.401C290.513 636.404 292.341 635.49 294.251 634.659C334.334 616.217 376.66 631.502 407.232 657.671C416.91 665.978 526.65 808.74 536.37 863.153C544.677 911.212 512.278 962.842 512.278 962.842L557.381 1291.5Z" fill="#72A9E1"/>
<path d="M324.786 695.222C323.79 701.468 321.901 707.539 319.178 713.249C316.639 719.026 313.266 724.4 309.168 729.199C310.158 722.964 312.047 716.906 314.775 711.213C317.33 705.431 320.701 700.046 324.786 695.222ZM246.863 938.295C244.172 943.999 242.298 950.054 241.297 956.281C249.362 946.522 254.732 934.823 256.873 922.345C252.803 927.165 249.433 932.535 246.863 938.295ZM182.896 1191.96C180.162 1197.66 178.286 1203.74 177.33 1209.99C185.343 1200.18 190.706 1188.48 192.906 1176.01C188.837 1180.83 185.467 1186.2 182.896 1191.96ZM443.664 882.553C440.941 888.262 439.053 894.333 438.057 900.58C442.165 895.773 445.538 890.384 448.067 884.588C450.777 878.891 452.651 872.834 453.633 866.603C449.562 871.413 446.205 876.785 443.664 882.553ZM525.7 1048.28C523.047 1053.92 521.202 1059.91 520.217 1066.06C522.796 1063.09 525.065 1059.86 526.987 1056.43L525.7 1048.28ZM328.524 1166.12C325.833 1171.84 323.959 1177.91 322.958 1184.15C327.066 1179.34 330.439 1173.96 332.969 1168.16C335.66 1162.46 337.533 1156.4 338.534 1150.17C334.465 1154.99 331.095 1160.36 328.524 1166.12ZM389.874 783.986C384.184 781.258 378.124 779.383 371.889 778.42C381.647 786.485 393.347 791.855 405.824 793.996C400.999 789.956 395.63 786.614 389.874 784.069V783.986ZM424.1 990.133C418.397 987.442 412.342 985.568 406.115 984.567C410.925 988.651 416.296 992.022 422.065 994.578C427.769 997.269 433.824 999.142 440.051 1000.14C435.226 996.103 429.856 992.761 424.1 990.216V990.133ZM436.561 1215.55C430.843 1212.86 424.775 1210.99 418.534 1209.99C428.315 1218.04 440.025 1223.41 452.512 1225.56C447.687 1221.52 442.317 1218.18 436.561 1215.64V1215.55ZM186.136 1025.81C180.417 1023.12 174.349 1021.25 168.109 1020.25C172.927 1024.34 178.313 1027.71 184.101 1030.26C189.804 1032.95 195.859 1034.82 202.086 1035.82C197.261 1031.78 191.892 1028.44 186.136 1025.9V1025.81ZM522.792 924.214C523.119 928.442 523.913 932.622 525.16 936.675C525.866 934.931 526.613 933.103 527.319 931.234C525.993 928.808 524.479 926.488 522.792 924.297V924.214ZM512.74 1164.71C514.864 1170.64 517.814 1176.23 521.504 1181.33C521.008 1175.04 519.609 1168.86 517.351 1162.97C515.213 1157.04 512.248 1151.45 508.545 1146.35C509.077 1152.67 510.489 1158.87 512.74 1164.8V1164.71ZM244.454 816.177C246.559 822.108 249.511 827.705 253.218 832.792C252.711 826.506 251.313 820.324 249.064 814.432C246.909 808.515 243.946 802.923 240.258 797.818C240.761 804.135 242.174 810.347 244.454 816.26V816.177ZM326.655 1029.26C328.779 1035.18 331.729 1040.78 335.419 1045.88C334.942 1039.59 333.543 1033.4 331.266 1027.52C329.16 1021.58 326.208 1015.99 322.501 1010.9C323 1017.22 324.399 1023.43 326.655 1029.34V1029.26ZM103.394 1116.2C105.514 1122.12 108.465 1127.72 112.159 1132.81C111.656 1126.51 110.257 1120.32 108.005 1114.41C105.85 1108.49 102.887 1102.9 99.1992 1097.8C99.7055 1104.1 101.118 1110.3 103.394 1116.2ZM422.231 1106.64C428.161 1104.51 433.755 1101.55 438.846 1097.84C432.556 1098.32 426.37 1099.71 420.487 1101.99C414.555 1104.1 408.959 1107.05 403.872 1110.76C410.156 1110.26 416.338 1108.88 422.231 1106.64ZM122.128 942.449C121.463 944.401 120.757 946.312 120.092 948.264L122.792 947.35C128.732 945.246 134.331 942.279 139.407 938.544C133.493 939.034 127.677 940.348 122.128 942.449ZM492.47 774.349C489.357 775.866 486.395 777.674 483.623 779.749C487.364 779.518 491.07 778.877 494.672 777.838C493.924 776.675 493.176 775.512 492.47 774.349ZM247.112 1106.64C253.03 1104.49 258.621 1101.53 263.727 1097.84C257.436 1098.32 251.25 1099.71 245.367 1101.99C239.442 1104.11 233.848 1107.06 228.753 1110.76C235.036 1110.26 241.218 1108.88 247.112 1106.64ZM332.096 875.408C338.014 873.253 343.605 870.29 348.711 866.603C342.421 867.08 336.235 868.479 330.352 870.756C324.426 872.876 318.832 875.827 313.737 879.521C320.004 879.006 326.169 877.622 332.055 875.408H332.096Z" fill="white"/>
<path d="M434.609 944.319C412.551 946.472 390.684 950.262 369.188 955.658C358.555 958.483 348.129 961.764 337.704 965.295C332.511 967.081 327.278 968.659 322.003 970.196C316.556 972.003 310.905 973.119 305.18 973.519C305.097 973.547 305.025 973.599 304.973 973.67C304.922 973.741 304.895 973.826 304.895 973.914C304.895 974.001 304.922 974.087 304.973 974.157C305.025 974.228 305.097 974.281 305.18 974.308C310.597 974.544 316.024 974.406 321.421 973.893C326.646 973.201 331.821 972.174 336.914 970.819C347.714 968.078 358.389 964.796 369.188 961.93C390.995 956.115 412.761 950.342 434.9 946.105C435.897 945.939 435.647 944.194 434.609 944.319Z" fill="#263238"/>
<path d="M489.272 963.346C471.091 961.623 452.828 960.916 434.568 961.228C425.388 961.228 416.334 962.142 407.237 963.097C403.083 963.554 398.556 964.094 394.236 964.676C389.916 965.257 384.807 966.586 380.03 967.168C379.532 967.168 379.573 968.04 380.03 967.957C384.516 967.542 389.127 967.957 393.654 967.749L407.32 967.251C416.417 966.96 425.513 966.752 434.651 966.379C452.886 965.589 471.038 965.008 489.272 964.883C490.311 964.842 490.228 963.471 489.272 963.346Z" fill="#263238"/>
<path d="M239.381 675.781C157.262 763.715 -26.4551 1079.69 36.7224 1140.54C99.9 1201.39 496.951 1202.55 567.688 1202.55C599.879 1202.55 533.918 990.714 499.401 986.56C470.658 983.029 261.686 976.259 257.449 967.786C252.631 958.232 279.921 881.14 304.054 750.922C329.931 611.316 275.518 636.944 239.381 675.781Z" fill="#F7A9A0"/>
<path d="M613.969 942.946C685.329 932.977 705.35 941.409 760.968 901.035C797.562 874.534 830.168 886.539 809.317 928.615C775.132 997.484 685.744 1029.63 651.477 1031.88L613.969 942.946Z" fill="#F7A9A0"/>
<path d="M424.391 1011.65C424.391 1011.65 504.598 967.124 579.572 948.973C631.452 936.511 752.739 916.781 858.201 1036.2C891.431 1073.83 893.217 1127.04 842.251 1095.27C802.667 1070.59 781.358 1045.96 754.775 1038.53C754.775 1038.53 769.354 1114.16 741.151 1139.46C716.501 1161.57 690.308 1181.89 662.771 1200.27C658.237 1196 653.991 1191.44 650.06 1186.6C650.06 1186.6 621.483 1207.75 567.693 1202.64L424.391 1011.65Z" fill="#F7A9A0"/>
<path d="M630.993 944.943C655.915 957.861 707.877 986.148 742.478 1024.11C780.858 1066.27 843.454 1157.86 812.052 1185.9C788.999 1206.42 762.208 1173.44 762.208 1173.44C762.208 1173.44 780.11 1216.76 755.229 1230.76C732.55 1243.51 713.236 1216.84 713.236 1216.84C713.236 1216.84 719.549 1245.01 695.375 1253.11C666.299 1262.82 657.742 1202.26 619.736 1186.65C611.055 1183.24 630.993 944.943 630.993 944.943Z" fill="#F7A9A0"/>
<path d="M689.979 1057.84C711.329 1073.83 750.457 1122.55 761.256 1173.02C761.506 1174.18 760.799 1174.97 760.343 1173.98C741.579 1132.67 717.868 1093.8 689.73 1058.21C689.398 1057.96 689.771 1057.63 689.979 1057.84Z" fill="#263238"/>
<path d="M649.724 1097.3C666.671 1113 704.76 1165 713.982 1216.55C714.189 1217.67 713.4 1218.42 712.985 1217.42C696.387 1175.19 675.038 1134.99 649.35 1097.59C649.101 1097.3 649.35 1097.05 649.724 1097.3Z" fill="#263238"/>
<path d="M583.475 1203.34C591.928 1203.24 600.364 1202.57 608.729 1201.35C617.102 1200.36 625.279 1198.12 632.987 1194.7H633.194C641.425 1202.24 648.871 1210.59 655.416 1219.62C658.711 1224.16 661.708 1228.91 664.388 1233.83C666.901 1238.72 670.214 1243.16 674.191 1246.95C678.123 1250.69 683.235 1252.94 688.646 1253.31C694.048 1253.38 699.262 1251.33 703.184 1247.62C706.977 1243.79 709.55 1238.92 710.577 1233.62C711.751 1228.29 712.143 1222.82 711.74 1217.38L711.491 1213.81L713.734 1216.59C719.135 1223.84 726.652 1229.24 735.25 1232.04C739.537 1233.18 744.048 1233.18 748.334 1232.04C752.609 1230.96 756.495 1228.7 759.549 1225.52C765.364 1218.88 766.32 1209.16 765.738 1200.27C765.029 1191.18 763.115 1182.23 760.048 1173.64L757.597 1166.54L762.374 1172.35C768.059 1179.62 775.489 1185.34 783.973 1188.97C788.154 1190.67 792.692 1191.32 797.182 1190.84C801.619 1190.23 805.832 1188.52 809.435 1185.85C812.931 1183.1 815.508 1179.35 816.829 1175.1C818.126 1170.73 818.66 1166.18 818.407 1161.64C817.822 1152.37 815.848 1143.24 812.55 1134.56C805.868 1117.02 797.215 1100.3 786.756 1084.71C776.449 1068.99 765.243 1053.87 753.194 1039.44L749.456 1034.99L755.23 1036.74C761.721 1038.9 767.96 1041.75 773.838 1045.25C779.653 1048.6 785.316 1052.2 790.827 1056.05C801.875 1063.65 812.135 1072.29 822.768 1080.14C833.094 1088.33 844.328 1095.3 856.247 1100.91C862.062 1103.24 868.708 1105.07 873.776 1102.07C878.843 1099.08 880.38 1092.52 879.965 1086.29C879.503 1079.86 878.002 1073.55 875.52 1067.6C872.881 1061.63 869.653 1055.94 865.884 1050.61C858.208 1039.84 849.56 1029.81 840.048 1020.62C830.575 1011.36 820.576 1002.65 810.1 994.536C799.694 986.351 788.714 978.924 777.244 972.313L775.416 971.275L776.912 969.78C789.028 958.175 799.296 944.783 807.358 930.07C811.352 922.837 813.519 914.738 813.672 906.477C813.679 902.47 812.633 898.531 810.64 895.055C809.636 893.385 808.312 891.931 806.744 890.776C805.175 889.621 803.394 888.788 801.502 888.326C793.383 887.114 785.094 888.696 777.992 892.812C770.5 896.587 763.207 900.746 756.143 905.273C742.062 914.328 728.272 924.92 711.74 930.195C703.587 932.557 695.251 934.239 686.818 935.221C678.511 936.384 669.996 937.381 661.605 938.419C644.991 940.455 628.044 942.573 611.346 945.314C577.851 950.221 544.976 958.687 513.277 970.569C544.863 958.283 577.669 949.399 611.138 944.068C627.753 941.161 644.575 938.793 661.356 936.55L686.278 933.103C694.634 932.135 702.89 930.439 710.951 928.035C726.984 922.968 740.484 912.5 754.69 903.113C761.834 898.502 769.103 894.141 776.704 890.236C784.4 885.751 793.41 884.064 802.208 885.46C806.698 886.584 810.572 889.415 813.007 893.352C815.26 897.239 816.449 901.652 816.455 906.145C816.372 914.864 814.132 923.426 809.934 931.067C801.809 946.135 791.398 959.853 779.072 971.732L778.781 969.24C790.373 975.875 801.478 983.329 812.01 991.545C822.624 999.709 832.762 1008.47 842.374 1017.8C852.102 1027.08 860.946 1037.24 868.791 1048.16C872.731 1053.68 876.112 1059.58 878.885 1065.77C881.562 1072.13 883.189 1078.87 883.703 1085.75C883.98 1089.34 883.571 1092.95 882.498 1096.38C881.36 1100.04 878.923 1103.16 875.645 1105.15C872.335 1106.99 868.501 1107.66 864.762 1107.06C861.278 1106.62 857.869 1105.71 854.627 1104.36C842.334 1098.75 830.77 1091.67 820.193 1083.26C809.435 1075.2 799.425 1066.64 788.459 1059.08C783.059 1055.3 777.493 1051.69 771.844 1048.41C766.311 1045 760.418 1042.22 754.274 1040.1L756.143 1037.11C768.207 1051.69 779.426 1066.94 789.747 1082.8C800.272 1098.64 808.954 1115.63 815.624 1133.43C818.996 1142.43 820.998 1151.88 821.564 1161.47C821.799 1166.37 821.195 1171.27 819.778 1175.97C818.299 1180.77 815.403 1185.01 811.47 1188.14C807.446 1191.12 802.728 1193.02 797.763 1193.66C792.821 1194.15 787.834 1193.44 783.225 1191.59C774.289 1187.72 766.473 1181.67 760.505 1173.97L762.831 1172.69C765.937 1181.52 767.865 1190.72 768.563 1200.06C768.906 1204.78 768.627 1209.53 767.732 1214.18C766.86 1218.96 764.739 1223.41 761.585 1227.1C758.174 1230.56 753.895 1233.04 749.197 1234.29C744.498 1235.53 739.553 1235.49 734.876 1234.16C725.811 1231.17 717.89 1225.46 712.197 1217.8L714.191 1217.01C714.581 1222.7 714.133 1228.43 712.862 1234C711.708 1239.73 708.806 1244.97 704.554 1248.99C700.25 1252.98 694.551 1255.11 688.687 1254.93C682.88 1254.48 677.413 1252.01 673.236 1247.95C669.2 1243.99 665.846 1239.38 663.308 1234.33C660.712 1229.43 657.813 1224.7 654.627 1220.16C648.236 1211.06 640.944 1202.63 632.862 1194.99H633.194C625.39 1198.34 617.13 1200.49 608.687 1201.39C600.333 1202.57 591.912 1203.23 583.475 1203.34V1203.34Z" fill="#263238"/>
<path d="M110.66 829.716L281.667 891.315C281.667 891.315 322.124 770.858 324.907 694.43C327.69 618.003 282.249 625.728 230.743 679.685C179.238 733.641 110.66 829.716 110.66 829.716Z" fill="#72A9E1"/>
<path d="M324.785 695.222C323.789 701.468 321.9 707.539 319.177 713.249C316.638 719.026 313.265 724.4 309.167 729.199C310.157 722.964 312.046 716.906 314.774 711.213C317.329 705.431 320.7 700.046 324.785 695.222V695.222ZM136.789 839.147L141.317 840.767C143.821 835.402 145.555 829.711 146.467 823.861C142.511 828.456 139.251 833.606 136.789 839.147V839.147ZM244.453 816.26C246.558 822.191 249.51 827.788 253.217 832.875C252.71 826.589 251.312 820.407 249.063 814.516C246.908 808.598 243.945 803.006 240.257 797.901C240.768 804.19 242.18 810.373 244.453 816.26V816.26ZM193.113 730.653C189.401 732.043 185.792 733.695 182.313 735.596V735.596L179.53 739.085C184.77 738.364 189.912 737.054 194.858 735.18C200.798 733.076 206.396 730.109 211.472 726.374C205.18 726.921 198.998 728.361 193.113 730.653V730.653Z" fill="white"/>
<path d="M283.825 857.345C257.948 846.213 186.795 818.175 138.072 806.296C137.782 806.296 137.366 807.334 137.615 807.459C176.536 823.741 256.411 850.325 282.994 859.048C283.825 859.214 284.49 857.552 283.825 857.345Z" fill="#263238"/>
<path d="M317.062 792.543C317.062 792.294 316.771 792.169 316.647 792.543C313.573 798.442 310.831 804.423 308.339 810.529C311.33 797.154 314.002 783.751 316.356 770.321C316.356 770.222 316.316 770.127 316.246 770.057C316.176 769.987 316.081 769.947 315.982 769.947C315.883 769.947 315.788 769.987 315.718 770.057C315.648 770.127 315.608 770.222 315.608 770.321C304.144 809.74 291.683 848.992 281.05 888.66C276.688 888.452 272.285 888.161 267.965 887.58C267.827 887.571 267.69 887.612 267.58 887.695C267.469 887.779 267.392 887.899 267.362 888.034C267.331 888.169 267.351 888.311 267.416 888.433C267.481 888.555 267.587 888.65 267.716 888.701C272.451 889.864 277.104 891.359 281.714 892.855C282.239 893.103 282.84 893.137 283.39 892.951C283.94 892.765 284.396 892.373 284.663 891.858C292.986 869.319 299.922 846.293 305.432 822.907C307.218 819.335 308.962 815.762 310.499 812.066C313.178 805.734 315.372 799.208 317.062 792.543V792.543Z" fill="#263238"/>
<path d="M326.489 644.546C327.319 653.809 361.753 718.066 402.958 722.012C416.374 723.3 426.551 650.32 426.551 650.32L428.545 645.086L456.208 572.064L375.751 502.49L364.038 493.144C364.038 493.144 357.766 513.622 350.248 539.208C349.874 540.371 349.5 541.576 349.168 542.822C348.836 544.068 348.212 545.647 347.88 546.976C346.676 550.797 345.513 554.702 344.391 558.606C343.56 561.555 342.73 564.421 341.94 567.578C341.151 570.735 340.321 573.767 339.448 576.924C331.639 607.993 326.24 640.392 326.489 644.546Z" fill="#F7A9A0"/>
<path d="M350.289 539.169C354.864 561.446 364.239 582.458 377.761 600.743C391.282 619.028 408.627 634.146 428.586 645.046L456.25 572.025L375.793 502.45L364.079 493.104C364.079 493.104 357.766 513.582 350.289 539.169Z" fill="#263238"/>
<path d="M576.205 466.189C569.143 603.261 486.36 614.309 456.869 612.731C430.078 611.319 339.029 603.136 331.885 466.231C324.741 329.325 390.66 289.367 452.093 289.367C513.526 289.367 583.266 329.325 576.205 466.189Z" fill="#F7A9A0"/>
<path d="M557.969 441.555C554.89 440.853 551.853 439.979 548.872 438.938C545.542 438.458 542.462 436.897 540.108 434.493C539.522 433.593 539.246 432.526 539.321 431.454C539.396 430.382 539.818 429.364 540.523 428.554C542.192 427.186 544.194 426.284 546.324 425.941C548.455 425.598 550.638 425.826 552.652 426.601C556.95 427.579 560.736 430.108 563.285 433.704C563.834 434.553 564.121 435.545 564.11 436.556C564.099 437.566 563.791 438.552 563.224 439.389C562.658 440.225 561.857 440.877 560.922 441.262C559.988 441.648 558.961 441.749 557.969 441.555V441.555Z" fill="#263238"/>
<path d="M470.747 435.74C473.946 435.74 476.936 434.91 480.093 434.453C483.467 434.477 486.754 433.382 489.439 431.337C490.157 430.534 490.588 429.514 490.663 428.439C490.738 427.363 490.454 426.294 489.854 425.398C488.417 423.794 486.576 422.606 484.523 421.956C482.47 421.306 480.281 421.218 478.182 421.701C473.783 422.032 469.658 423.968 466.594 427.142C465.945 427.915 465.533 428.858 465.408 429.86C465.282 430.861 465.449 431.877 465.888 432.785C466.327 433.694 467.019 434.456 467.881 434.98C468.743 435.505 469.739 435.769 470.747 435.74V435.74Z" fill="#263238"/>
<path d="M484.497 469.592C484.497 469.218 483.707 470.008 483.707 470.381C483.707 479.727 481.797 490.361 473.199 493.06C472.908 493.06 472.908 493.6 473.199 493.559C483.583 492.645 485.826 478.398 484.497 469.592Z" fill="#263238"/>
<path d="M476.643 459.457C461.69 457.546 459.031 487.536 472.863 489.322C486.695 491.108 489.145 461.035 476.643 459.457Z" fill="#263238"/>
<path d="M470.746 460.498C467.963 461.951 465.139 464.651 461.94 464.651C458.742 464.651 455.751 461.287 453.633 458.047C453.633 457.715 453.135 458.047 453.093 458.338C452.512 464.07 454.173 470.176 460.279 471.588C466.385 473 470.331 468.14 472.283 462.491C472.532 461.785 471.743 459.916 470.746 460.498Z" fill="#263238"/>
<path d="M535.461 472.17C535.461 471.838 536.126 472.668 536.084 473.084C534.879 482.305 535.046 493.146 543.187 497.051C543.436 497.051 543.187 497.632 543.187 497.549C533.052 495.015 533.052 480.768 535.461 472.17Z" fill="#263238"/>
<path d="M544.678 463.283C559.714 463.615 557.97 493.688 544.055 493.397C530.14 493.106 532.051 463.034 544.678 463.283Z" fill="#263238"/>
<path d="M550.823 465.606C553.107 467.351 555.309 470.383 558.133 470.757C560.958 471.131 564.032 468.057 566.441 465.025C566.69 464.734 566.898 465.025 566.898 465.399C566.69 471.131 564.447 477.029 558.881 477.86C553.315 478.69 550.366 473.415 549.328 467.6C548.995 466.478 549.909 464.942 550.823 465.606Z" fill="#263238"/>
<path d="M477.557 541.246C479.468 543.696 481.295 546.978 484.618 547.725C488.057 548.121 491.54 547.781 494.837 546.728C494.908 546.694 494.989 546.686 495.066 546.706C495.143 546.726 495.21 546.773 495.255 546.838C495.3 546.903 495.32 546.983 495.312 547.062C495.304 547.14 495.268 547.214 495.21 547.268C493.643 548.921 491.653 550.112 489.456 550.712C487.259 551.313 484.939 551.3 482.749 550.674C480.926 549.939 479.363 548.677 478.261 547.049C477.158 545.422 476.566 543.502 476.56 541.536C476.519 540.955 477.266 540.706 477.557 541.246Z" fill="#263238"/>
<path d="M517.224 515.12C517.224 515.12 518.055 529.16 517.557 535.889C517.557 536.47 493.216 539.544 484.036 522.597C483.926 522.459 483.875 522.283 483.895 522.108C483.914 521.933 484.003 521.772 484.14 521.662C484.278 521.552 484.454 521.501 484.629 521.521C484.804 521.54 484.965 521.628 485.075 521.766C492.994 528.128 502.753 531.769 512.904 532.15C513.486 530.364 510.661 508.142 511.7 508.142C516.757 508.98 521.676 510.503 526.321 512.669C525.407 483.344 519.841 454.518 519.384 425.234C519.402 425.033 519.487 424.843 519.624 424.695C519.762 424.547 519.945 424.448 520.144 424.415C520.344 424.382 520.549 424.415 520.727 424.511C520.905 424.607 521.046 424.759 521.129 424.944C529.104 454.85 530.89 488.537 532.593 518.775C533.05 522.389 519.758 516.408 517.224 515.12Z" fill="#263238"/>
<path d="M333.424 463.28C342.82 461.273 351.534 456.861 358.713 450.476C365.892 444.09 371.29 435.95 374.379 426.852C491.679 423.986 530.474 351.214 530.474 351.214C552.987 412.481 573.091 422.989 576.373 432.211C576.373 432.211 586.134 379.085 568.398 338.587C552.697 302.74 512.406 264.36 449.021 272.501C413.091 277.112 382.852 308.223 382.852 308.223C382.852 308.223 344.016 312.377 328.107 343.612C301.44 396.115 333.424 463.28 333.424 463.28Z" fill="#263238"/>
<path d="M532.262 346.561C527.992 361.837 519.967 375.803 508.918 387.184C497.865 398.631 484.687 407.815 470.122 414.224L458.991 418.378C455.211 419.665 451.348 420.455 447.526 421.493C439.882 423.495 432.09 424.884 424.224 425.647C416.374 426.353 408.482 426.228 400.631 426.519C392.822 425.813 385.013 425.273 377.246 424.442C385.097 424.193 392.864 424.442 400.631 424.193C408.357 423.404 416.125 423.113 423.767 422.033C439.059 420.003 454.008 415.923 468.212 409.904C482.351 403.895 495.262 395.334 506.301 384.65C517.548 373.93 526.395 360.948 532.262 346.561V346.561Z" fill="#263238"/>
<path d="M453.879 514.618C445.907 512.924 438.571 509.027 432.705 503.369C426.839 497.711 422.679 490.52 420.699 482.615C418.719 474.709 418.998 466.407 421.504 458.652C424.01 450.897 428.642 444.002 434.874 438.75C441.106 433.498 448.687 430.102 456.755 428.946C464.822 427.791 473.052 428.924 480.507 432.215C487.962 435.507 494.344 440.825 498.926 447.565C503.507 454.305 506.105 462.196 506.423 470.339V470.339C506.861 481.87 502.708 493.104 494.874 501.576C487.04 510.048 476.166 515.067 464.637 515.532C461.027 515.651 457.416 515.344 453.879 514.618V514.618ZM470.743 435.158C467.671 434.517 464.532 434.252 461.397 434.368C451.831 434.758 442.773 438.779 436.067 445.613C429.362 452.446 425.513 461.579 425.304 471.15C425.096 480.722 428.543 490.014 434.945 497.133C441.347 504.252 450.221 508.663 459.761 509.469C469.301 510.274 478.79 507.413 486.294 501.469C493.799 495.524 498.756 486.942 500.156 477.471C501.555 468 499.293 458.351 493.828 450.49C488.363 442.629 480.108 437.146 470.743 435.158V435.158Z" fill="#455A64"/>
<path d="M553.362 523.381C537.08 519.892 525.865 500.079 527.983 477.483C528.788 466.656 532.973 456.355 539.946 448.033C542.709 444.272 546.396 441.287 550.651 439.367C554.906 437.448 559.583 436.659 564.232 437.077C568.881 437.494 573.343 439.105 577.187 441.752C581.032 444.399 584.128 447.993 586.176 452.187C591.491 461.654 593.7 472.55 592.49 483.339C590.247 507.223 573.965 525.333 556.187 523.672C555.231 523.713 554.276 523.589 553.362 523.381ZM565.823 443.298C565.115 443.124 564.392 443.013 563.663 442.966C559.948 442.778 556.241 443.488 552.858 445.035C549.474 446.582 546.513 448.921 544.224 451.854C538.069 459.266 534.381 468.414 533.674 478.023C531.722 498.791 541.981 516.652 556.644 518.023C571.306 519.393 584.681 503.651 586.592 482.966C587.68 473.394 585.749 463.721 581.067 455.302C579.513 452.358 577.362 449.77 574.751 447.703C572.141 445.636 569.129 444.136 565.906 443.298H565.823Z" fill="#455A64"/>
<path d="M504.514 475.203L501.191 470.426C508.294 465.525 524.161 459.543 533.715 471.838L529.104 475.41C520.589 464.361 505.179 474.787 504.514 475.203Z" fill="#455A64"/>
<path d="M310.413 468.306L305.512 465.149C306.966 462.865 320.216 442.803 333.341 441.93C345.802 441.141 422.563 455.679 425.844 456.302L424.764 461.993C402.708 457.839 343.186 447.081 333.715 447.746C325.076 448.327 313.944 462.782 310.413 468.306Z" fill="#455A64"/>
<path d="M354.108 467.685C354.108 467.685 330.349 421.206 309.664 429.098C288.978 436.99 302.727 501.496 324.118 513.043C326.762 514.713 329.715 515.831 332.802 516.33C335.888 516.828 339.044 516.697 342.079 515.944C345.113 515.192 347.964 513.833 350.46 511.949C352.955 510.066 355.044 507.697 356.6 504.985L354.108 467.685Z" fill="#F7A9A0"/>
<path d="M314.068 447.497C313.694 447.497 313.569 447.912 313.86 448.079C328.813 456.677 335.085 472.502 338.782 488.535C334.878 482.014 328.938 477.944 320.298 482.43C320.208 482.489 320.139 482.577 320.103 482.679C320.067 482.782 320.065 482.893 320.098 482.996C320.131 483.1 320.197 483.189 320.285 483.252C320.374 483.315 320.48 483.347 320.589 483.343C323.498 482.841 326.491 483.254 329.155 484.527C331.819 485.799 334.022 487.868 335.459 490.446C337.831 494.76 339.739 499.313 341.15 504.029C341.69 505.566 344.348 505.15 344.057 503.447C344.038 503.323 344.038 503.197 344.057 503.073C347.214 482.928 335.459 452.523 314.068 447.497Z" fill="#263238"/>
<path d="M913.273 1249.11C899.791 1247.86 886.393 1245.82 873.148 1243.01C859.846 1240.4 846.711 1237 833.812 1232.83C860.787 1235.52 887.413 1240.98 913.273 1249.11V1249.11Z" fill="#263238"/>
<path d="M1028.83 1213.68C1027.21 1197.77 1026.83 1181.86 1026.75 1165.95C1026.63 1150.01 1027.33 1134.06 1028.83 1118.19C1030.33 1134.06 1031.02 1150.01 1030.9 1165.95C1030.82 1181.86 1030.45 1197.77 1028.83 1213.68Z" fill="#263238"/>
<path d="M988.246 1214.34C979.228 1202.32 970.84 1189.84 963.116 1176.96C955.232 1164.14 948.036 1150.91 941.559 1137.33C959.48 1161.54 975.11 1187.36 988.246 1214.46V1214.34Z" fill="#263238"/>
<path d="M842.707 1140.91C851.928 1148.01 860.859 1155.45 869.748 1162.92C878.636 1170.4 887.318 1178.04 895.999 1185.77C904.68 1193.5 913.237 1201.3 921.627 1209.32L934.088 1221.33C938.242 1225.48 942.395 1229.63 946.549 1233.79C941.939 1230.26 937.453 1226.56 932.925 1222.95L919.55 1211.77C910.661 1204.34 901.98 1196.65 893.299 1188.93C884.618 1181.2 876.061 1173.39 867.671 1165.38C859.28 1157.36 850.807 1149.3 842.707 1140.91Z" fill="#263238"/>
<path d="M1104.25 1241.84C1117.15 1237.7 1130.27 1234.3 1143.55 1231.66C1156.8 1228.83 1170.22 1226.8 1183.71 1225.56C1157.85 1233.68 1131.23 1239.13 1104.25 1241.84V1241.84Z" fill="#263238"/>
<path d="M1168.14 1132.76C1160.08 1141.07 1151.52 1149.17 1143.22 1157.14C1134.91 1165.12 1126.19 1172.93 1117.59 1180.7C1108.99 1188.46 1100.23 1196.11 1091.3 1203.54L1077.96 1214.71C1073.39 1218.33 1068.95 1222.02 1064.3 1225.56C1068.45 1221.4 1072.6 1217.25 1076.76 1213.09L1089.22 1201.09C1097.53 1193.07 1106.25 1185.31 1114.85 1177.54C1123.45 1169.77 1132.21 1162.13 1141.14 1154.69C1150.07 1147.26 1158.96 1139.86 1168.14 1132.76Z" fill="#263238"/>
<path d="M769.147 140.203C766.726 163.376 757.913 185.42 743.693 203.876C729.473 222.332 710.404 236.474 688.615 244.724C666.825 252.974 643.172 255.007 620.294 250.596C597.416 246.186 576.214 235.505 559.053 219.746L496.125 229.175L527.61 174.762C519.75 155.619 516.78 134.82 518.97 114.243C520.583 97.7322 525.447 81.704 533.28 67.0811C541.114 52.4581 551.763 39.5293 564.614 29.0391C577.465 18.549 592.265 10.7048 608.16 5.95815C624.056 1.21155 640.733 -0.343615 657.232 1.38217C673.731 3.10795 689.726 8.0806 704.295 16.0138C718.864 23.9469 731.72 34.6839 742.122 47.6063C752.524 60.5287 760.268 75.3814 764.906 91.3088C769.544 107.236 770.985 123.924 769.147 140.411V140.203Z" fill="white"/>
<path d="M769.146 140.204C766.721 163.376 757.938 185.427 743.767 203.921C736.844 213.268 728.522 221.492 719.094 228.304C700.41 242.37 678.2 250.995 654.92 253.226C649.105 253.731 643.263 253.842 637.433 253.558C631.591 253.424 625.771 252.813 620.029 251.73C596.806 247.503 575.227 236.871 557.724 221.035L559.219 221.492L496.374 231.128L491.805 231.834L494.089 227.681L525.408 173.184V175.344C518.022 157.305 514.881 137.81 516.228 118.365C517.575 98.9189 523.373 80.043 533.175 63.1946C542.969 46.4195 556.43 32.0774 572.552 21.2424C592.606 7.91056 616.036 0.55386 640.111 0.0300616C664.186 -0.493737 687.914 5.83694 708.529 18.284C729.143 30.7311 745.795 48.7816 756.542 70.3312C767.289 91.8808 771.689 116.041 769.229 139.996L769.146 140.204ZM769.146 140.204C771.118 121.274 768.727 102.144 762.158 84.2812C755.588 66.4186 745.015 50.2981 731.247 37.1566C717.48 24.0151 700.886 14.2018 682.737 8.46952C664.589 2.73721 645.368 1.23826 626.55 4.08769C607.889 6.86671 590.113 13.8862 574.588 24.6069C559.212 35.3911 546.37 49.3953 536.955 65.6453C527.703 81.9555 522.251 100.144 521.005 118.854C519.842 137.547 522.865 156.264 529.852 173.641L530.309 174.763L529.728 175.801L498.035 230.09L495.792 226.767L558.762 217.961H559.634L560.257 218.542C577.056 234.279 597.916 245.011 620.486 249.529C626.108 250.698 631.819 251.393 637.557 251.606C643.282 252.021 649.029 252.021 654.754 251.606C666.243 250.707 677.552 248.219 688.357 244.212C699.213 240.274 709.429 234.76 718.679 227.847C723.334 224.427 727.773 220.723 731.971 216.756C736.05 212.669 739.866 208.327 743.393 203.755C757.685 185.358 766.599 163.36 769.146 140.204V140.204Z" fill="#263238"/>
<path d="M714.195 130.944C714.195 133.959 713.301 136.906 711.626 139.413C709.951 141.92 707.57 143.874 704.785 145.027C701.999 146.181 698.934 146.483 695.977 145.895C693.02 145.307 690.304 143.855 688.172 141.723C686.04 139.591 684.588 136.875 684 133.918C683.412 130.961 683.714 127.896 684.867 125.11C686.021 122.325 687.975 119.944 690.482 118.269C692.989 116.594 695.936 115.7 698.951 115.7C700.954 115.694 702.939 116.085 704.791 116.849C706.643 117.613 708.326 118.736 709.742 120.152C711.159 121.569 712.282 123.252 713.046 125.104C713.81 126.956 714.201 128.94 714.195 130.944V130.944Z" fill="#263238"/>
<path d="M659.613 130.943C659.613 133.96 658.718 136.909 657.041 139.417C655.364 141.925 652.981 143.878 650.193 145.031C647.405 146.183 644.338 146.483 641.38 145.891C638.422 145.3 635.705 143.844 633.575 141.708C631.445 139.572 629.996 136.852 629.413 133.892C628.829 130.932 629.137 127.866 630.297 125.081C631.457 122.296 633.418 119.918 635.93 118.248C638.442 116.578 641.394 115.691 644.411 115.699C646.41 115.699 648.391 116.094 650.238 116.86C652.085 117.627 653.763 118.751 655.175 120.167C656.587 121.583 657.706 123.264 658.468 125.113C659.229 126.962 659.618 128.943 659.613 130.943V130.943Z" fill="#263238"/>
<path d="M605.078 130.943C605.078 133.958 604.184 136.906 602.509 139.412C600.834 141.919 598.453 143.873 595.668 145.027C592.882 146.181 589.817 146.483 586.86 145.894C583.903 145.306 581.187 143.854 579.055 141.722C576.923 139.591 575.471 136.874 574.883 133.917C574.295 130.96 574.596 127.895 575.75 125.11C576.904 122.324 578.858 119.943 581.365 118.268C583.872 116.593 586.819 115.699 589.834 115.699C591.837 115.694 593.822 116.084 595.674 116.849C597.526 117.613 599.209 118.735 600.625 120.152C602.042 121.569 603.165 123.251 603.929 125.103C604.693 126.955 605.083 128.94 605.078 130.943V130.943Z" fill="#263238"/>
<path d="M980.652 309.344H641.961V496.135H980.652V309.344Z" fill="#455A64"/>
<path d="M915.355 496.135H980.651V543.362L915.355 496.135Z" fill="#455A64"/>
<path d="M836.726 343.82H683.164V348.016H836.726V343.82Z" fill="white"/>
<path d="M941.066 366.539H683.164V370.734H941.066V366.539Z" fill="white"/>
<path d="M941.066 389.257H683.164V393.452H941.066V389.257Z" fill="white"/>
<path d="M891.637 411.979H683.164V416.175H891.637V411.979Z" fill="white"/>
<path d="M941.066 434.702H683.164V438.897H941.066V434.702Z" fill="white"/>
<path d="M778.034 457.421H683.164V461.616H778.034V457.421Z" fill="white"/>
<path d="M1093.96 564.091H757.555V702.658H1093.96V564.091Z" fill="#72A9E1"/>
<path d="M1093.96 747.143V702.615H1026.43L1093.96 747.143Z" fill="#72A9E1"/>
<path d="M1053.55 598.562H798.473V602.757H1053.55V598.562Z" fill="white"/>
<path d="M944.018 621.286H798.473V625.481H944.018V621.286Z" fill="white"/>
<path d="M995.191 644.006H798.473V648.202H995.191V644.006Z" fill="white"/>
<path d="M867.008 666.725H798.473V670.92H867.008V666.725Z" fill="white"/>
<path d="M852.836 1254.9H819.066V1276.96H852.836V1254.9Z" fill="#EBEBEB"/>
<path d="M896.613 1253.44H862.844V1275.5H896.613V1253.44Z" fill="#EBEBEB"/>
<path d="M940.441 1251.99H906.672V1274.05H940.441V1251.99Z" fill="#EBEBEB"/>
<path d="M984.219 1250.54H950.449V1272.6H984.219V1250.54Z" fill="#EBEBEB"/>
<path d="M1028.04 1249.08H994.27V1271.14H1028.04V1249.08Z" fill="#EBEBEB"/>
<path d="M1071.82 1247.63H1038.05V1269.69H1071.82V1247.63Z" fill="#EBEBEB"/>
<path d="M1115.6 1246.18H1081.83V1268.23H1115.6V1246.18Z" fill="#EBEBEB"/>
<path d="M1159.42 1244.72H1125.65V1266.78H1159.42V1244.72Z" fill="#EBEBEB"/>
<path d="M1203.2 1243.27H1169.43V1265.32H1203.2V1243.27Z" fill="#EBEBEB"/>
<path d="M1211.47 1291.51H810.805V1264.63L1211.47 1253.46V1291.51Z" fill="#DBDBDB"/>
<path d="M1510.28 1182.7H952.027L1040.79 767.081H1599.05L1510.28 1182.7Z" fill="#EBEBEB"/>
<path d="M1530.93 1182.7H972.672L1061.44 767.081H1619.69L1530.93 1182.7Z" fill="#DBDBDB"/>
<path d="M1331.58 974.135C1346.73 960.139 1349.31 938.303 1337.36 925.364C1325.4 912.424 1303.43 913.281 1288.28 927.277C1273.13 941.274 1270.55 963.11 1282.51 976.049C1294.46 988.988 1316.43 988.132 1331.58 974.135Z" fill="white"/>
<path d="M1373.04 1291.69H1098.48V1270.34L1373.04 1261.49V1291.69Z" fill="#EBEBEB"/>
<path d="M1447.68 1291.19H1300.27L1211.46 1058.29H1358.88L1447.68 1291.19Z" fill="#EBEBEB"/>
<path d="M1471.94 1291.19H1324.53L1235.76 1058.29H1383.18L1471.94 1291.19Z" fill="#A6A6A6"/>
<path d="M773.958 1292.03H491.051C466.918 1292.03 501.851 1223.25 590.033 1196.87C678.216 1170.5 801.954 1266.24 773.958 1292.03Z" fill="#DBDBDB"/>
<path d="M663.059 1292.04C663.286 1284.2 664.586 1276.43 666.921 1268.94C669.217 1261.39 672.425 1254.15 676.475 1247.38C680.509 1240.57 685.566 1234.42 691.47 1229.15C697.31 1223.85 704.047 1219.63 711.366 1216.69C708.334 1219.18 704.886 1220.84 702.103 1223.62L697.95 1227.32L693.796 1231.47C688.547 1236.95 683.948 1243.01 680.089 1249.54C676.169 1256.07 672.806 1262.92 670.037 1270.02C667.219 1277.19 664.887 1284.55 663.059 1292.04V1292.04Z" fill="#263238"/>
<path d="M696.617 1226.57C704.997 1229.28 713.162 1232.61 721.041 1236.54C728.968 1240.46 736.579 1244.98 743.803 1250.08C751.133 1255.15 757.766 1261.15 763.533 1267.94C766.364 1271.42 768.814 1275.2 770.844 1279.2C772.788 1283.21 773.904 1287.58 774.125 1292.03C773.131 1287.81 771.416 1283.79 769.057 1280.15C766.769 1276.52 764.111 1273.14 761.124 1270.06C755.072 1263.93 748.467 1258.37 741.394 1253.45C734.374 1248.38 726.939 1243.85 719.504 1239.36C715.766 1237.12 711.986 1234.96 708.123 1232.88C704.26 1230.81 700.48 1228.69 696.617 1226.57Z" fill="#263238"/>
<path opacity="0.6" d="M248.938 1119.19C248.938 1119.19 349.873 1072.67 349.873 1010.32C349.873 947.974 218.949 907.849 218.949 859.126C218.949 810.404 276.062 781.702 276.062 781.702C276.062 781.702 185.844 812.522 185.844 874.163C185.844 935.803 272.157 977.548 280.423 1016.8C291.887 1071.26 248.938 1119.19 248.938 1119.19Z" fill="#DBDBDB"/>
<path opacity="0.6" d="M253.921 1119.19C253.921 1119.19 152.945 1082.63 152.945 1033.62C152.945 984.606 283.828 953.038 283.828 914.7C283.828 876.361 226.756 853.848 226.756 853.848C226.756 853.848 317.057 878.064 317.057 926.538C317.057 975.011 217.95 1008.32 210.848 1047.7C203.828 1086.29 253.921 1119.19 253.921 1119.19Z" fill="#DBDBDB"/>
<path d="M297.99 1275.99H201.957V1290.98H297.99V1275.99Z" fill="#455A64"/>
<path d="M297.99 1275.99H201.957V1285.87H297.99V1275.99Z" fill="#263238"/>
<path d="M87.9819 1235.66C93.8108 1244.29 102.003 1251.06 111.578 1255.17C121.154 1259.27 131.708 1260.53 141.98 1258.79C145.302 1258.18 148.558 1257.25 151.699 1256.01C156.478 1254.14 161.034 1251.74 165.282 1248.86L153.07 1230.75C150.82 1232.37 148.412 1233.77 145.884 1234.91C122.997 1245.29 108.501 1227.22 105.677 1223.11C92.7587 1204.59 87.8989 1162.34 101.066 1146.06C101.938 1144.86 105.801 1142.95 121.253 1146.27C124.119 1146.89 127.359 1147.6 131.014 1148.64C133.852 1149.6 136.794 1150.23 139.778 1150.5L140.194 1139.66L141.232 1128.82C140.235 1128.82 138.698 1128.2 136.663 1127.62C129.514 1125.52 122.208 1124.01 114.815 1123.09C103.434 1121.89 91.5126 1123.09 84.2021 1132.27C62.686 1158.81 71.4918 1212.48 87.9819 1235.66Z" fill="#455A64"/>
<path d="M153.155 1230.76C150.904 1232.38 148.497 1233.77 145.969 1234.91L151.784 1256.05C156.562 1254.18 161.118 1251.79 165.366 1248.91L153.155 1230.76Z" fill="#263238"/>
<path d="M114.98 1123.09L121.419 1146.27C124.285 1146.89 127.525 1147.6 131.18 1148.64C134.018 1149.6 136.959 1150.23 139.944 1150.51L140.359 1139.66L141.398 1128.82C140.401 1128.82 138.864 1128.2 136.829 1127.62C129.68 1125.52 122.373 1124.01 114.98 1123.09V1123.09Z" fill="#263238"/>
<path d="M377.743 1094.77C377.743 1094.77 366.196 1192.63 346.3 1233.87C326.404 1275.12 298.657 1279.56 281.378 1279.56H218.574C201.336 1279.56 173.548 1274.95 153.652 1233.87C133.756 1192.79 122.25 1094.77 122.25 1094.77H377.743Z" fill="#455A64"/>
<path d="M163.956 1122.72C163.956 1124.96 163.291 1127.16 162.045 1129.02C160.799 1130.89 159.028 1132.34 156.956 1133.2C154.884 1134.06 152.604 1134.28 150.405 1133.84C148.205 1133.41 146.185 1132.33 144.599 1130.74C143.013 1129.15 141.933 1127.13 141.495 1124.93C141.058 1122.73 141.282 1120.45 142.141 1118.38C142.999 1116.31 144.452 1114.54 146.317 1113.29C148.182 1112.05 150.374 1111.38 152.617 1111.38C154.106 1111.38 155.581 1111.68 156.956 1112.25C158.332 1112.82 159.582 1113.65 160.635 1114.7C161.688 1115.76 162.523 1117.01 163.093 1118.38C163.663 1119.76 163.956 1121.23 163.956 1122.72V1122.72ZM252.721 1109.01C250.478 1109.01 248.286 1109.68 246.421 1110.93C244.556 1112.17 243.103 1113.94 242.244 1116.01C241.386 1118.09 241.162 1120.37 241.599 1122.57C242.037 1124.77 243.117 1126.79 244.702 1128.37C246.288 1129.96 248.309 1131.04 250.508 1131.48C252.708 1131.91 254.988 1131.69 257.06 1130.83C259.132 1129.97 260.903 1128.52 262.149 1126.65C263.395 1124.79 264.06 1122.6 264.06 1120.35C264.06 1117.35 262.866 1114.46 260.739 1112.34C258.612 1110.21 255.728 1109.01 252.721 1109.01V1109.01ZM252.721 1251.44C250.478 1251.44 248.286 1252.11 246.421 1253.36C244.556 1254.6 243.103 1256.37 242.244 1258.44C241.386 1260.52 241.162 1262.8 241.599 1265C242.037 1267.2 243.117 1269.22 244.702 1270.8C246.288 1272.39 248.309 1273.47 250.508 1273.91C252.708 1274.34 254.988 1274.12 257.06 1273.26C259.132 1272.4 260.903 1270.95 262.149 1269.08C263.395 1267.22 264.06 1265.03 264.06 1262.78C264.06 1259.78 262.866 1256.89 260.739 1254.77C258.612 1252.64 255.728 1251.44 252.721 1251.44V1251.44ZM334.964 1187.27C332.721 1187.27 330.529 1187.94 328.664 1189.18C326.799 1190.43 325.346 1192.2 324.487 1194.27C323.629 1196.34 323.404 1198.62 323.842 1200.82C324.28 1203.02 325.36 1205.04 326.945 1206.63C328.531 1208.21 330.552 1209.29 332.751 1209.73C334.951 1210.17 337.231 1209.94 339.303 1209.09C341.375 1208.23 343.146 1206.77 344.392 1204.91C345.638 1203.04 346.303 1200.85 346.303 1198.61C346.303 1195.6 345.109 1192.72 342.982 1190.59C340.855 1188.46 337.971 1187.27 334.964 1187.27V1187.27ZM209.065 1220.71C206.823 1220.71 204.63 1221.37 202.766 1222.62C200.901 1223.86 199.447 1225.64 198.589 1227.71C197.731 1229.78 197.506 1232.06 197.944 1234.26C198.381 1236.46 199.461 1238.48 201.047 1240.06C202.633 1241.65 204.654 1242.73 206.853 1243.17C209.053 1243.61 211.333 1243.38 213.405 1242.52C215.477 1241.66 217.248 1240.21 218.494 1238.35C219.74 1236.48 220.405 1234.29 220.405 1232.05C220.405 1229.04 219.21 1226.16 217.084 1224.03C214.957 1221.9 212.073 1220.71 209.065 1220.71V1220.71ZM341.983 1109.01C339.741 1109.01 337.548 1109.68 335.683 1110.93C333.819 1112.17 332.365 1113.94 331.507 1116.01C330.649 1118.09 330.424 1120.37 330.862 1122.57C331.299 1124.77 332.379 1126.79 333.965 1128.37C335.551 1129.96 337.572 1131.04 339.771 1131.48C341.971 1131.91 344.251 1131.69 346.323 1130.83C348.395 1129.97 350.166 1128.52 351.412 1126.65C352.658 1124.79 353.323 1122.6 353.323 1120.35C353.323 1117.35 352.128 1114.46 350.002 1112.34C347.875 1110.21 344.991 1109.01 341.983 1109.01V1109.01ZM251.225 1185.44C248.983 1185.44 246.79 1186.11 244.925 1187.35C243.061 1188.6 241.607 1190.37 240.749 1192.44C239.891 1194.51 239.666 1196.79 240.104 1198.99C240.541 1201.19 241.621 1203.21 243.207 1204.8C244.793 1206.39 246.813 1207.47 249.013 1207.9C251.213 1208.34 253.493 1208.12 255.565 1207.26C257.637 1206.4 259.408 1204.95 260.654 1203.08C261.9 1201.22 262.565 1199.02 262.565 1196.78C262.565 1193.8 261.388 1190.93 259.288 1188.81C257.188 1186.68 254.336 1185.48 251.35 1185.44H251.225ZM165.244 1187.23C163.001 1187.23 160.809 1187.89 158.944 1189.14C157.079 1190.39 155.626 1192.16 154.768 1194.23C153.909 1196.3 153.685 1198.58 154.122 1200.78C154.56 1202.98 155.64 1205 157.226 1206.59C158.812 1208.17 160.832 1209.25 163.032 1209.69C165.232 1210.13 167.512 1209.9 169.584 1209.04C171.656 1208.19 173.427 1206.73 174.673 1204.87C175.919 1203 176.584 1200.81 176.584 1198.57C176.573 1195.59 175.391 1192.73 173.292 1190.62C171.193 1188.51 168.347 1187.3 165.369 1187.27L165.244 1187.23ZM297.871 1149.26C295.629 1149.26 293.436 1149.93 291.571 1151.17C289.707 1152.42 288.253 1154.19 287.395 1156.26C286.537 1158.34 286.312 1160.62 286.75 1162.82C287.187 1165.02 288.267 1167.04 289.853 1168.62C291.439 1170.21 293.459 1171.29 295.659 1171.73C297.859 1172.16 300.139 1171.94 302.211 1171.08C304.283 1170.22 306.054 1168.77 307.3 1166.9C308.546 1165.04 309.211 1162.85 309.211 1160.6C309.211 1157.62 308.033 1154.75 305.934 1152.63C303.834 1150.51 300.982 1149.3 297.996 1149.26H297.871ZM294.798 1222.58C292.553 1222.57 290.357 1223.23 288.486 1224.47C286.616 1225.71 285.156 1227.48 284.292 1229.55C283.427 1231.62 283.196 1233.9 283.629 1236.1C284.062 1238.3 285.139 1240.33 286.723 1241.92C288.307 1243.51 290.328 1244.59 292.528 1245.03C294.729 1245.48 297.011 1245.25 299.086 1244.4C301.16 1243.54 302.934 1242.09 304.182 1240.22C305.429 1238.35 306.096 1236.16 306.096 1233.92C306.096 1230.94 304.924 1228.08 302.833 1225.96C300.742 1223.83 297.901 1222.62 294.922 1222.58H294.798ZM203.416 1149.26C201.172 1149.26 198.976 1149.91 197.105 1151.15C195.235 1152.4 193.775 1154.16 192.911 1156.24C192.046 1158.31 191.815 1160.59 192.248 1162.79C192.681 1164.99 193.758 1167.02 195.342 1168.61C196.926 1170.2 198.947 1171.28 201.147 1171.72C203.348 1172.16 205.63 1171.94 207.705 1171.08C209.779 1170.23 211.553 1168.77 212.801 1166.91C214.048 1165.04 214.714 1162.85 214.715 1160.6C214.715 1157.63 213.549 1154.78 211.467 1152.66C209.385 1150.54 206.554 1149.32 203.583 1149.26H203.416Z" fill="#37474F"/>
</svg>
