<svg width="1166" height="1326" viewBox="0 0 1166 1326" fill="none" xmlns="http://www.w3.org/2000/svg">
<path d="M204.639 1217.15H494.505V1324.96H216.621C213.456 1324.96 210.42 1323.77 208.181 1321.64C205.943 1319.51 204.685 1316.62 204.685 1313.62V1217.15H204.639Z" fill="#72A9E1"/>
<path d="M494.552 1217.15H204.639L303.763 1162.85H461.495L494.552 1217.15Z" fill="#72A9E1"/>
<path d="M588.451 1324.97H494.315V1217.15H600.387V1313.62C600.387 1316.63 599.129 1319.51 596.891 1321.64C594.652 1323.77 591.616 1324.97 588.451 1324.97Z" fill="#72A9E1"/>
<path opacity="0.2" d="M588.451 1324.97H494.315V1217.15H600.387V1313.62C600.387 1316.63 599.129 1319.51 596.891 1321.64C594.652 1323.77 591.616 1324.97 588.451 1324.97Z" fill="black"/>
<path d="M494.553 1217.15H600.391L501.267 1162.85H461.496L494.553 1217.15Z" fill="#72A9E1"/>
<path opacity="0.2" d="M494.553 1217.15H600.391L501.267 1162.85H461.496L494.553 1217.15Z" fill="black"/>
<path d="M320.543 383.306L313.829 320.668L289.211 266.63L346.373 286.046L394.303 321.156L417.196 346.513L367.914 397.137L320.543 383.306Z" fill="#72A9E1"/>
<path opacity="0.2" d="M320.543 383.306L313.829 320.668L289.211 266.63L346.373 286.046L394.303 321.156L417.196 346.513L367.914 397.137L320.543 383.306Z" fill="black"/>
<path d="M359.012 339.42L375.703 266.63L537.026 298.547L613.91 392.97L633.306 527.069L617.64 645.651L580.387 729.391L489.934 409.949L359.012 339.42Z" fill="#72A9E1"/>
<path opacity="0.2" d="M361.625 357.507L392.957 307.015L392.071 269.911L482.71 287.865L547.845 361.187L576.193 463.545L558.242 603.14L518.051 487.527L361.625 357.507Z" fill="black"/>
<path d="M303.757 1162.85L210.32 1095.87L169.943 994.307L204.632 886.496L311.217 801.915L340.357 615.108L314.993 539.259L518.045 373.775L588.215 774.386L600.384 1049.05L501.26 1162.85H303.757Z" fill="#72A9E1"/>
<path opacity="0.2" d="M189.113 1042.54L210.328 1095.86L231.402 1110.94L301.526 1137.71L238.955 1093.38L189.113 1042.54Z" fill="black"/>
<path opacity="0.2" d="M340.361 615.109L330.383 679.121L418.084 657.976L468.579 603.982L474.267 550.298L340.361 615.109Z" fill="black"/>
<path d="M497.954 547.061L408.247 636.785L290.286 653.941L219.93 627.919L161.975 641.484L95.3479 630.49L61.1252 632.042L17.6242 613.157L0 579.732L13.9875 516.119L41.9623 492.402L63.9227 487.659L210.698 403.166L233.124 369.83L385.168 325.012L518.049 373.775L497.954 547.061Z" fill="#72A9E1"/>
<path opacity="0.2" d="M7.87891 594.715L57.1148 601.143L95.3472 630.489L61.1245 632.041L17.6235 613.156L7.87891 594.715Z" fill="black"/>
<path opacity="0.2" d="M81.877 547.149L108.267 535.8L146.639 555.039L101.553 556.99L81.877 547.149Z" fill="black"/>
<path opacity="0.2" d="M588.222 774.387L558.942 850.413L539.313 1041.65L449.7 1142.15L394.263 1139.18L303.764 1162.85H501.267L600.391 1049.06L588.222 774.387Z" fill="black"/>
<path d="M383.672 384.458L406.891 307.058L401.249 242.292L454.495 279.662L498.929 350.014L510.865 385.877L429.038 418.371L383.672 384.458Z" fill="#72A9E1"/>
<path opacity="0.2" d="M402.604 348.108L436.407 369.52L460.465 348.108L453.098 311.891L413.467 280.505L420.461 311.891L402.604 348.108Z" fill="black"/>
<path opacity="0.2" d="M220.347 388.802L296.438 400.726L350.057 404.051L294.014 422.271L210.695 403.165L220.347 388.802Z" fill="black"/>
<path d="M708.18 1258.96L742.542 1270.62L780.122 1198.09L745.759 1186.39L708.18 1258.96Z" fill="#FFB573"/>
<path opacity="0.2" d="M780.122 1198.09L760.772 1235.51L726.363 1223.8L745.759 1186.43L780.122 1198.09Z" fill="black"/>
<path d="M743.757 1266.76L706.223 1254.04C705.539 1253.8 704.791 1253.79 704.103 1254.02C703.416 1254.25 702.831 1254.69 702.447 1255.28L684.729 1281.88C684.308 1282.53 684.045 1283.26 683.96 1284.01C683.875 1284.77 683.97 1285.54 684.239 1286.26C684.507 1286.98 684.942 1287.63 685.511 1288.17C686.08 1288.71 686.769 1289.12 687.527 1289.37C701.141 1293.8 721.003 1299.61 738.022 1305.41C757.884 1312.15 763.665 1324.83 788.423 1324.83C808.845 1324.83 810.897 1314.72 804.929 1312.6C777.56 1302.76 769.167 1293.49 751.077 1271.99C749.185 1269.64 746.653 1267.83 743.757 1266.76V1266.76Z" fill="#263238"/>
<path d="M909.184 883.571C913.567 777.755 835.424 497.279 835.424 497.279L708.277 513.548C754.623 638.736 790.757 741.006 806.19 869.873C823.767 933.619 718.162 1212.54 718.162 1212.54L776.35 1232.31C776.35 1232.31 904.662 993.598 909.184 883.571Z" fill="#72A9E1"/>
<path opacity="0.3" d="M909.184 883.571C913.567 777.755 835.424 497.279 835.424 497.279L708.277 513.548C754.623 638.736 790.757 741.006 806.19 869.873C823.767 933.619 718.162 1212.54 718.162 1212.54L776.35 1232.31C776.35 1232.31 904.662 993.598 909.184 883.571Z" fill="black"/>
<path opacity="0.2" d="M754.479 569.67L736.436 590.24C738.347 595.382 739.932 600.524 741.331 605.666C762.068 663.536 778.917 722.599 791.779 782.499V782.499C793.784 719.018 801.104 605.134 754.479 569.67Z" fill="black"/>
<path d="M783.294 1236.08L713.963 1212.54L721.936 1191.22L792.106 1213.92L783.294 1236.08Z" fill="#263238"/>
<path d="M745.437 1272.44C750.566 1275.41 759.937 1280.02 764.926 1278.11C765.663 1277.85 766.319 1277.42 766.832 1276.85C767.346 1276.28 767.701 1275.6 767.864 1274.87C767.999 1274.44 768.019 1273.98 767.922 1273.54C767.824 1273.1 767.612 1272.69 767.304 1272.35C763.947 1268.71 747.628 1270.71 745.763 1270.93C745.582 1270.95 745.413 1271.03 745.279 1271.15C745.146 1271.27 745.054 1271.42 745.017 1271.59C744.998 1271.76 745.027 1271.92 745.101 1272.07C745.176 1272.22 745.292 1272.35 745.437 1272.44V1272.44ZM765.812 1273.28L766.092 1273.5C766.187 1273.65 766.237 1273.81 766.237 1273.99C766.237 1274.16 766.187 1274.33 766.092 1274.47C765.981 1274.96 765.749 1275.41 765.416 1275.78C765.084 1276.16 764.659 1276.46 764.18 1276.65C761.383 1277.71 755.601 1276.11 748.468 1272.21C755.042 1271.68 763.807 1271.55 765.812 1273.28Z" fill="#72A9E1"/>
<path d="M745.434 1272.43C745.631 1272.5 745.844 1272.5 746.041 1272.43C750.703 1272.08 761.754 1267.78 762.5 1263.88C762.5 1262.99 762.5 1261.66 760.261 1260.69C759.475 1260.36 758.626 1260.19 757.767 1260.19C756.908 1260.19 756.059 1260.36 755.273 1260.69C749.584 1262.59 745.388 1271.1 745.201 1271.46C745.132 1271.58 745.096 1271.72 745.096 1271.86C745.096 1272 745.132 1272.13 745.201 1272.26L745.434 1272.43ZM760.308 1262.81C760.914 1263.26 760.821 1263.61 760.774 1263.79C760.355 1266.09 752.662 1269.77 747.533 1270.75C749.301 1267.16 752.202 1264.19 755.832 1262.24C756.414 1262 757.041 1261.88 757.674 1261.88C758.307 1261.88 758.934 1262 759.515 1262.24C759.812 1262.39 760.08 1262.58 760.308 1262.81V1262.81Z" fill="#72A9E1"/>
<path d="M667.244 1289.54H703.751L706.689 1209.17H670.182L667.244 1289.54Z" fill="#FFB573"/>
<path d="M706.969 1285.51H662.442C661.723 1285.51 661.024 1285.74 660.464 1286.17C659.903 1286.6 659.515 1287.2 659.365 1287.86L652.138 1318.89C651.969 1319.65 651.981 1320.43 652.174 1321.17C652.366 1321.92 652.734 1322.62 653.25 1323.21C653.766 1323.8 654.416 1324.28 655.152 1324.6C655.888 1324.92 656.691 1325.07 657.5 1325.06C671.814 1324.84 682.258 1324.04 700.255 1324.04C711.351 1324.04 744.828 1325.15 760.121 1325.15C775.414 1325.15 777.465 1310.74 771.171 1309.45C743.196 1303.6 721.889 1295.53 712.89 1287.82C711.28 1286.39 709.173 1285.57 706.969 1285.51V1285.51Z" fill="#263238"/>
<path d="M817.375 226.334L853.743 293.627C865.959 315.792 878.454 338.268 891.602 358.482L896.591 365.708C897.363 366.855 898.236 367.938 899.202 368.944C900.787 370.407 901.114 370.939 902.979 371.471C906.281 371.858 909.633 371.446 912.723 370.274C917.626 368.696 922.32 366.584 926.711 363.979C937.06 357.884 946.785 350.878 955.758 343.055C960.421 339.021 965.083 334.943 969.746 330.598C974.408 326.254 979.071 321.733 983.127 317.565L1005.6 332.46C1002.01 338.711 998.42 344.208 994.457 349.838C990.494 355.468 986.437 361.009 982.008 366.328C972.952 377.533 962.616 387.747 951.189 396.783C944.713 401.754 937.695 406.049 930.254 409.594C921.105 413.941 911.016 416.203 900.787 416.2C888.753 416.03 877.121 412.053 867.73 404.895C863.586 401.718 859.818 398.121 856.494 394.168L849.78 385.789C833.639 364.208 818.804 341.77 805.346 318.585C791.918 295.844 779.376 273.058 767.58 249.43L817.375 226.334Z" fill="#FFB573"/>
<path d="M751.547 229.349C745.719 262.064 804.839 353.739 804.839 353.739L866.99 289.194C866.99 289.194 851.884 239.19 821.95 215.474C793.09 192.644 758.261 191.668 751.547 229.349Z" fill="#263238"/>
<path opacity="0.2" d="M825.347 305.109C811.593 275.718 782.825 259.094 756.389 259.715C769.957 299.612 804.832 353.739 804.832 353.739L832.574 324.969C830.72 318.178 828.304 311.537 825.347 305.109Z" fill="black"/>
<path d="M976.689 325.059L993.101 301.786L1031.61 327.808C1031.61 327.808 999.955 353.076 980.326 342.26L976.689 325.059Z" fill="#FFB573"/>
<path d="M1038.94 297.396L1067.66 308.124L1031.62 327.807L993.107 301.785L1038.94 297.396Z" fill="#FFB573"/>
<path opacity="0.2" d="M670.183 1209.17H706.691L705.152 1250.62H668.645L670.183 1209.17Z" fill="black"/>
<path d="M588.266 224.518C601.534 261.235 611.898 298.843 619.271 337.028C624.54 363.626 628.316 389.116 631.207 412.389C637.921 466.649 639.46 508.23 642.117 522.194L835.564 497.414C832.44 295.047 791.27 200.403 791.27 200.403C775.724 198.597 760.074 197.723 744.412 197.787C741.102 197.787 737.745 197.788 734.341 198.009C706.676 199.972 679.153 203.45 651.909 208.427C646.733 209.358 641.511 210.377 636.476 211.485C610.785 217.115 588.266 224.518 588.266 224.518Z" fill="#263238"/>
<path opacity="0.2" d="M631.347 267.253L604.957 276.917C610.599 297.265 615.261 317.435 618.944 337.029C619.597 340.265 620.203 343.457 620.809 346.648C633.911 323.109 636.382 296.378 631.347 267.253Z" fill="black"/>
<path d="M647.611 119.366C656.377 143.836 668.08 189.275 651.948 208.425C661.217 215.51 671.982 220.614 683.511 223.39C695.04 226.167 707.062 226.551 718.761 224.517C741.421 221.148 740.441 205.854 734.194 198.141C703.701 195.215 701.556 174.291 703.888 154.077L647.611 119.366Z" fill="#FFB573"/>
<path d="M701.141 227.313L702.726 229.706L716.527 224.609L710.046 220.663L701.141 227.313Z" fill="#72A9E1"/>
<path d="M728.698 223.322L716.529 224.607L717.229 218.623L724.222 217.559L728.698 223.322Z" fill="#72A9E1"/>
<path d="M654.512 200.312C669.651 213.526 689.493 220.797 710.043 220.66C702.303 225.093 701.137 243.357 701.137 243.357C701.137 243.357 659.175 234.491 645.188 208.247C647.947 205.253 651.078 202.589 654.512 200.312Z" fill="white"/>
<path d="M726.509 195.26C726.509 195.26 736.906 211.263 717.184 218.622C732.616 221.237 737.978 239.9 737.978 239.9C737.978 239.9 753.924 224.606 741.755 197.166C736.728 196.182 731.632 195.545 726.509 195.26V195.26Z" fill="white"/>
<path opacity="0.2" d="M670.559 133.462L703.895 153.854C703.247 158.556 703.06 163.305 703.336 168.039C691.819 168.039 674.662 158.154 671.864 147.116C670.597 142.671 670.155 138.051 670.559 133.462Z" fill="black"/>
<path d="M639.086 81.9076C646.127 115.687 648.411 135.813 669.02 150.974C699.979 173.759 741.988 152.525 745.718 117.416C749.075 85.8086 736.999 35.893 700.025 26.8054C691.876 24.7674 683.313 24.7444 675.152 26.7387C666.99 28.733 659.501 32.6782 653.395 38.1996C647.288 43.7209 642.768 50.6351 640.264 58.285C637.76 65.935 637.354 74.0667 639.086 81.9076V81.9076Z" fill="#FFB573"/>
<path d="M656.89 116.174C659.794 102.535 658.165 88.3751 652.228 75.656C656.237 68.6075 665.562 51.3631 663.231 40.1919C647.938 35.7589 615.58 40.1919 615.58 40.1919C615.58 40.1919 595.252 90.7726 656.89 116.174Z" fill="#263238"/>
<path d="M635.632 52.3844C652.463 54.8226 720.116 47.6854 734.383 19.3585C739.512 9.1182 721.701 18.6492 711.817 20.3337C701.932 22.0183 640.993 18.6048 624.535 20.5997C614.604 21.8409 588.913 45.5132 635.632 52.3844Z" fill="#263238"/>
<path d="M618.01 23.2595C609.244 -0.191068 676.897 20.378 696.526 9.9605C726.18 -6.13129 736.717 -0.368371 729.677 10.6698C722.636 21.708 718.3 25.3873 685.15 25.4317C652 25.476 623.185 37.0461 618.01 23.2595Z" fill="#263238"/>
<path d="M626.169 116.353C632.032 122.981 640.41 127.139 649.481 127.924C661.511 128.899 665.241 118.127 659.972 108.463C655.31 99.5966 643.327 88.7801 631.997 92.3708C620.667 95.9616 619.269 108.108 626.169 116.353Z" fill="#FFB573"/>
<path d="M766.836 506.059C766.836 506.059 763.246 805.242 754.481 906.447C745.156 1017.27 721.843 1242.6 721.843 1242.6H655.076C655.076 1242.6 653.678 1036.25 660.252 927.859C667.758 804.4 641.975 522.017 641.975 522.017L766.836 506.059Z" fill="#72A9E1"/>
<path opacity="0.3" d="M766.836 506.059C766.836 506.059 763.246 805.242 754.481 906.447C745.156 1017.27 721.843 1242.6 721.843 1242.6H655.076C655.076 1242.6 653.678 1036.25 660.252 927.859C667.758 804.4 641.975 522.017 641.975 522.017L766.836 506.059Z" fill="black"/>
<path d="M729.911 1243.98H651.208L649.25 1220.17H734.294L729.911 1243.98Z" fill="#263238"/>
<path d="M694.798 84.4774C695.171 87.2258 697.035 89.265 698.947 88.9104C700.859 88.5557 702.071 86.2062 701.698 83.4577C701.325 80.7092 699.413 78.6257 697.548 79.0247C695.683 79.4236 694.378 81.6845 694.798 84.4774Z" fill="#263238"/>
<path d="M727.761 80.2236C728.134 83.0165 729.999 85.0557 731.911 84.6567C733.822 84.2577 735.081 81.9526 734.662 79.1597C734.242 76.3669 732.424 74.3277 730.512 74.7267C728.6 75.1257 727.388 77.4751 727.761 80.2236Z" fill="#263238"/>
<path d="M717.459 82.9717C722.122 91.0831 727.943 98.5421 734.757 105.137C732.975 106.775 730.836 108.022 728.491 108.788C726.147 109.554 723.654 109.821 721.189 109.57L717.459 82.9717Z" fill="#ED893E"/>
<path d="M709.953 118.125C711.232 118.12 712.51 118.031 713.776 117.859C713.891 117.849 714.003 117.816 714.104 117.762C714.205 117.709 714.293 117.636 714.363 117.549C714.433 117.461 714.483 117.361 714.511 117.254C714.538 117.148 714.542 117.037 714.522 116.928C714.505 116.823 714.466 116.722 714.408 116.631C714.349 116.54 714.272 116.461 714.18 116.399C714.089 116.337 713.986 116.293 713.876 116.27C713.767 116.247 713.653 116.244 713.543 116.263C709.923 116.799 706.222 116.517 702.739 115.438C699.255 114.36 696.088 112.517 693.495 110.057C693.33 109.911 693.114 109.829 692.888 109.829C692.663 109.829 692.446 109.911 692.282 110.057C692.2 110.132 692.135 110.221 692.091 110.32C692.046 110.419 692.023 110.526 692.023 110.633C692.023 110.741 692.046 110.848 692.091 110.947C692.135 111.046 692.2 111.135 692.282 111.21C694.575 113.449 697.325 115.218 700.364 116.407C703.404 117.597 706.667 118.181 709.953 118.125Z" fill="#263238"/>
<path d="M683.188 75.6588C683.493 75.6562 683.792 75.577 684.054 75.429C684.316 75.2811 684.532 75.0697 684.68 74.8165C685.704 72.9963 687.16 71.4278 688.933 70.2351C690.705 69.0425 692.745 68.2585 694.891 67.9453C695.118 67.934 695.34 67.8802 695.545 67.7871C695.749 67.6941 695.933 67.5635 696.084 67.4029C696.236 67.2423 696.353 67.0548 696.428 66.8512C696.503 66.6476 696.536 66.4319 696.523 66.2164C696.476 65.7815 696.257 65.3797 695.911 65.0918C695.565 64.804 695.118 64.6514 694.658 64.6649C691.944 65.0102 689.355 65.9615 687.102 67.4408C684.849 68.9202 682.997 70.8856 681.696 73.1763C681.58 73.3649 681.505 73.5736 681.476 73.7901C681.446 74.0066 681.462 74.2267 681.522 74.4372C681.583 74.6478 681.688 74.8448 681.83 75.0165C681.972 75.1882 682.148 75.3312 682.349 75.4371C682.607 75.5714 682.894 75.6473 683.188 75.6588V75.6588Z" fill="#263238"/>
<path d="M740.496 67.6333C740.828 67.6342 741.152 67.5417 741.428 67.3674C741.814 67.1231 742.083 66.7451 742.179 66.3142C742.275 65.8833 742.19 65.4339 741.941 65.0622C740.47 62.8603 738.467 61.0239 736.099 59.7056C733.731 58.3872 731.067 57.6249 728.327 57.4819C727.869 57.4819 727.43 57.6547 727.107 57.9623C726.783 58.2699 726.602 58.6871 726.602 59.1221C726.602 59.5571 726.783 59.9743 727.107 60.2819C727.43 60.5895 727.869 60.7623 728.327 60.7623C730.499 60.8894 732.608 61.5115 734.474 62.5763C736.341 63.641 737.91 65.117 739.051 66.8797C739.206 67.1101 739.42 67.2997 739.672 67.4313C739.925 67.5629 740.208 67.6324 740.496 67.6333Z" fill="#263238"/>
<path d="M719.002 1291.58C721.493 1291.77 723.977 1291.15 726.042 1289.81C726.702 1289.27 727.212 1288.58 727.529 1287.81C727.845 1287.04 727.959 1286.2 727.861 1285.38C727.855 1284.9 727.714 1284.42 727.451 1284.01C727.189 1283.6 726.815 1283.26 726.369 1283.03C722.312 1281.08 710.563 1287.95 709.211 1288.75C709.07 1288.84 708.96 1288.97 708.894 1289.12C708.827 1289.27 708.808 1289.43 708.838 1289.59C708.862 1289.75 708.938 1289.9 709.055 1290.02C709.171 1290.14 709.323 1290.22 709.491 1290.25C712.599 1291.03 715.789 1291.48 719.002 1291.58V1291.58ZM724.457 1284.4C724.826 1284.33 725.207 1284.33 725.576 1284.4C725.755 1284.5 725.901 1284.64 726 1284.82C726.099 1284.99 726.146 1285.18 726.135 1285.38C726.207 1285.93 726.133 1286.49 725.922 1287.01C725.71 1287.53 725.367 1287.99 724.923 1288.35C722.965 1289.94 718.163 1290.17 711.962 1289.01C715.77 1286.72 720.015 1285.15 724.457 1284.4Z" fill="#72A9E1"/>
<path d="M709.672 1290.34H710.092C713.868 1288.39 721.142 1280.77 720.396 1277.04C720.266 1276.44 719.922 1275.9 719.42 1275.51C718.919 1275.13 718.291 1274.91 717.645 1274.92C716.99 1274.83 716.323 1274.87 715.688 1275.05C715.053 1275.23 714.464 1275.53 713.961 1275.94C709.719 1279.26 708.833 1289.24 708.833 1289.68C708.81 1289.83 708.833 1289.97 708.9 1290.11C708.966 1290.24 709.072 1290.36 709.206 1290.43C709.367 1290.44 709.528 1290.41 709.672 1290.34ZM717.039 1276.29H717.412C718.531 1276.29 718.671 1276.91 718.671 1277.13C719.137 1279.44 714.521 1285.16 710.744 1287.86C711.002 1283.92 712.496 1280.13 715.034 1277C715.632 1276.52 716.396 1276.27 717.179 1276.29H717.039Z" fill="#72A9E1"/>
<path d="M617.87 277.978L608.545 290.922C605.421 295.355 602.343 299.788 599.22 304.443C593.252 313.53 587.237 322.574 581.689 331.839C570.396 349.835 560.471 368.575 551.989 387.916L549.191 394.965L547.979 398.068C548.008 397.936 548.008 397.8 547.979 397.669C547.606 397.403 547.466 399.664 548.585 402.722C552.244 410.769 557.165 418.242 563.179 424.887C570.129 432.965 577.521 440.689 585.325 448.028C589.335 451.796 593.298 455.652 597.448 459.376L609.897 470.326L594.977 492.18C572.359 481.881 551.324 468.697 532.453 452.993C521.544 444.106 512.401 433.431 505.457 421.474C500.659 413.097 498.294 403.656 498.603 394.122C498.744 391.132 499.197 388.162 499.955 385.256L500.375 383.66L500.701 382.552L501.354 380.336L504.012 371.47C511.798 348.818 521.739 326.887 533.712 305.95C539.586 295.665 545.694 285.558 552.362 275.717C555.625 270.796 558.982 265.92 562.386 261.088C565.79 256.256 569.24 251.601 573.296 246.503L617.87 277.978Z" fill="#FFB573"/>
<path d="M588.266 224.518C555.628 235.601 518.701 320.626 518.701 320.626L599.316 356.09C613.912 333.691 624.19 308.997 629.669 283.167C639.087 237.285 628.13 211.219 588.266 224.518Z" fill="#263238"/>
<path d="M614.604 473.609L623.929 496.927L583.785 502.291C583.785 502.291 572.641 473.476 588.074 466.162H601.036C603.767 466.249 606.433 466.974 608.799 468.273C611.165 469.572 613.159 471.404 614.604 473.609V473.609Z" fill="#FFB573"/>
<path d="M619.358 524.01L588.586 528.399L583.504 502.289L623.648 496.925L619.358 524.01Z" fill="#FFB573"/>
<path d="M1136.8 145.296C1135.74 136.249 1133.4 127.378 1129.86 118.92L1134.15 117.28C1137.87 126.072 1140.33 135.302 1141.47 144.72L1136.8 145.296Z" fill="#72A9E1"/>
<path d="M1117.65 97.8646C1105.72 81.9658 1089.25 69.6567 1070.18 62.4005L1071.96 58.2778C1091.86 65.8756 1109.04 78.7748 1121.42 95.4265L1117.65 97.8646Z" fill="#72A9E1"/>
<path d="M1030.37 262.859C1000.73 262.801 972.326 251.566 951.391 231.62C930.457 211.674 918.699 184.646 918.699 156.467H923.362C923.362 183.47 934.628 209.37 954.688 228.485C974.749 247.6 1001.96 258.368 1030.37 258.426V262.859Z" fill="#72A9E1"/>
<path d="M1097.78 220.794C1135.02 185.392 1135.02 127.992 1097.78 92.5893C1060.55 57.1864 1000.18 57.1864 962.943 92.5893C925.707 127.992 925.707 185.392 962.943 220.794C1000.18 256.197 1060.55 256.197 1097.78 220.794Z" fill="#72A9E1"/>
<path d="M1052.41 125.391L1040.24 129.381C1043.27 123.973 1043.46 113.112 1036.79 102.029C1036.01 100.868 1034.88 99.9462 1033.56 99.3726C1032.24 98.7991 1030.77 98.598 1029.33 98.7932C1027.42 98.9405 1025.65 99.7843 1024.38 101.148C1023.11 102.511 1022.45 104.289 1022.53 106.108C1022.76 116.348 1020.47 137.139 998.561 141.128L993.898 146.758L1012.32 197.028L1021.64 195.344C1025.23 194.945 1045.56 192.374 1058.66 190.911C1066.31 189.934 1073.3 186.282 1078.27 180.666C1083.23 175.051 1085.82 167.876 1085.52 160.545L1082.91 137.538C1082.65 135.347 1081.92 133.23 1080.76 131.32C1079.61 129.411 1078.05 127.75 1076.18 126.442C1074.31 125.134 1072.18 124.208 1069.92 123.722C1067.66 123.236 1065.32 123.201 1063.04 123.618L1052.41 125.391Z" fill="white"/>
<path d="M995.296 214.991L1012.48 210.224C1015.1 209.498 1016.61 206.889 1015.84 204.398L999.121 149.882C998.357 147.391 995.613 145.96 992.993 146.687L975.805 151.453C973.185 152.18 971.68 154.789 972.444 157.28L989.168 211.795C989.932 214.287 992.676 215.717 995.296 214.991Z" fill="#263238"/>
</svg>
