<svg width="1564" height="1276" viewBox="0 0 1564 1276" fill="none" xmlns="http://www.w3.org/2000/svg">
<path d="M1375.77 684.343C1344.1 684.343 1318.42 658.843 1318.42 627.388C1318.42 595.966 1344.1 570.466 1375.77 570.466C1407.41 570.466 1433.08 595.966 1433.08 627.388C1433.08 658.843 1407.41 684.343 1375.77 684.343ZM1526.78 660.264V594.546H1501.68C1498.67 583.053 1494.08 572.218 1488.19 562.24L1505.93 544.591L1459.14 498.115L1441.37 515.737C1431.32 509.891 1420.41 505.33 1408.84 502.335V477.417H1342.66V502.335C1331.1 505.33 1320.19 509.891 1310.14 515.737L1292.37 498.115L1245.57 544.591L1263.31 562.24C1257.43 572.218 1252.86 583.053 1249.82 594.546H1224.73V660.264H1249.82C1252.86 671.756 1257.43 682.591 1263.31 692.569L1245.57 710.218L1292.37 756.694L1310.14 739.073C1320.19 744.918 1331.1 749.452 1342.66 752.474V777.393H1408.84V752.474C1420.41 749.452 1431.32 744.918 1441.37 739.073L1459.14 756.694L1505.93 710.218L1488.19 692.569C1494.08 682.591 1498.67 671.756 1501.68 660.264H1526.78Z" fill="#F89276"/>
<path d="M1267.02 919.485C1244.75 927.95 1219.78 916.925 1211.24 894.862C1202.7 872.82 1213.83 848.065 1236.09 839.6C1258.33 831.147 1283.31 842.173 1291.84 864.214C1300.38 886.277 1289.26 911.032 1267.02 919.485ZM1366.63 862.234L1348.78 816.133L1331.14 822.84C1325.9 815.583 1319.73 809.212 1312.89 803.785L1320.57 786.663L1275.05 766.567L1267.34 783.676C1258.69 782.264 1249.78 781.978 1240.84 782.972L1234.07 765.492L1187.55 783.177L1194.32 800.658C1187 805.85 1180.57 811.964 1175.09 818.753L1157.82 811.141L1137.55 856.248L1154.81 863.89C1153.38 872.462 1153.11 881.281 1154.09 890.156L1136.46 896.863L1154.3 942.964L1171.94 936.257C1177.2 943.506 1183.35 949.885 1190.2 955.312L1182.52 972.434L1228.03 992.53L1235.74 975.421C1244.39 976.833 1253.29 977.098 1262.24 976.125L1269.01 993.605L1315.53 975.92L1308.76 958.44C1316.07 953.226 1322.51 947.133 1327.99 940.345L1345.26 947.956L1365.54 902.849L1348.27 895.207C1349.7 886.636 1349.99 877.808 1348.99 868.942L1366.63 862.234Z" stroke="#F89276" stroke-width="1.33333" stroke-miterlimit="10"/>
<path d="M1146.96 737.348C1131.85 743.145 1114.9 735.592 1109.1 720.486C1103.31 705.393 1110.86 688.449 1125.97 682.651C1141.06 676.862 1158.01 684.411 1163.8 699.504C1169.6 714.61 1162.04 731.558 1146.96 737.348V737.348ZM1214.55 698.147L1202.44 666.585L1190.47 671.177C1186.91 666.209 1182.73 661.847 1178.08 658.128L1183.29 646.403L1152.41 632.646L1147.18 644.362C1141.31 643.394 1135.27 643.199 1129.19 643.878L1124.6 631.911L1093.04 644.016L1097.63 655.988C1092.66 659.542 1088.3 663.732 1084.58 668.375L1072.86 663.165L1059.1 694.052L1070.81 699.279C1069.85 705.151 1069.66 711.19 1070.33 717.265L1058.36 721.857L1070.47 753.422L1082.44 748.831C1086.01 753.794 1090.18 758.161 1094.83 761.875L1089.62 773.6L1120.5 787.357L1125.73 775.645C1131.6 776.613 1137.64 776.795 1143.72 776.129L1148.31 788.097L1179.87 775.987L1175.28 764.019C1180.25 760.448 1184.61 756.276 1188.33 751.628L1200.05 756.842L1213.81 725.955L1202.1 720.724C1203.07 714.857 1203.26 708.813 1202.58 702.738L1214.55 698.147Z" stroke="#F89276" stroke-width="1.33333" stroke-miterlimit="10"/>
<path d="M1204.28 149.995C1204.28 197.378 1182.13 239.615 1147.67 266.907C1122.31 287.041 1090.22 298.986 1055.28 298.986C1020.43 298.986 988.348 287.041 962.886 266.907C928.392 239.615 906.289 197.378 906.289 149.995C906.289 67.7115 973.001 0.999962 1055.28 0.999962C1137.56 0.999962 1204.28 67.7115 1204.28 149.995" fill="#F89276"/>
<path d="M1204.28 149.995C1204.28 197.378 1182.13 239.615 1147.67 266.907C1122.31 287.041 1090.22 298.986 1055.28 298.986C1020.43 298.986 988.348 287.041 962.886 266.907C928.392 239.615 906.289 197.378 906.289 149.995C906.289 67.7115 973.001 0.999962 1055.28 0.999962C1137.56 0.999962 1204.28 67.7115 1204.28 149.995V149.995Z" stroke="#F89276" stroke-width="1.33333" stroke-miterlimit="10"/>
<path d="M1055.28 52.3786C1081.96 52.3786 1103.58 74.0004 1103.58 100.671C1103.58 127.341 1081.96 148.967 1055.28 148.967C1028.61 148.967 1006.99 127.341 1006.99 100.671C1006.99 74.0004 1028.61 52.3786 1055.28 52.3786Z" fill="white"/>
<path d="M1148.79 246.366C1123.4 266.495 1091.29 278.438 1056.31 278.438C1021.43 278.438 989.317 266.495 963.832 246.366C973.371 204.45 982.147 168.263 991.284 159.09C1004.18 146.208 1038.44 138.692 1056.27 138.692C1074.09 138.692 1109.96 147.818 1116.59 154.438C1130.11 167.904 1141.76 205.077 1148.79 246.366Z" fill="white"/>
<path d="M842.582 513.445V440.058C842.582 420.028 858.836 403.796 878.893 403.796H1110.42C1130.48 403.796 1146.73 420.028 1146.73 440.058V513.445C1146.73 533.475 1130.48 549.707 1110.42 549.707H878.937C858.879 549.75 842.582 533.475 842.582 513.445Z" fill="#F89276"/>
<path d="M939.777 510.66L828.195 619.58L1009.04 528.001" fill="#F89276"/>
<path d="M871.352 438.946V438.518C871.352 435.233 873.734 432.567 876.67 432.567H989.338C992.274 432.567 994.656 435.233 994.656 438.518V438.946C994.656 442.231 992.274 444.897 989.338 444.897H876.67C873.734 444.897 871.352 442.231 871.352 438.946Z" fill="white"/>
<path d="M998.77 438.946V438.518C998.77 435.233 1001.2 432.567 1004.19 432.567H1104.33C1107.32 432.567 1109.74 435.233 1109.74 438.518V438.946C1109.74 442.231 1107.32 444.897 1104.33 444.897H1004.19C1001.2 444.897 998.77 442.231 998.77 438.946Z" fill="white"/>
<path d="M957.664 463.608V463.179C957.664 459.894 960.05 457.228 962.989 457.228H1104.42C1107.35 457.228 1109.74 459.894 1109.74 463.179V463.608C1109.74 466.893 1107.35 469.559 1104.42 469.559H962.989C960.05 469.559 957.664 466.893 957.664 463.608Z" fill="white"/>
<path d="M871.352 463.608V463.179C871.352 459.894 873.676 457.228 876.54 457.228H938.091C940.955 457.228 943.279 459.894 943.279 463.179V463.608C943.279 466.893 940.955 469.559 938.091 469.559H876.54C873.676 469.559 871.352 466.893 871.352 463.608Z" fill="white"/>
<path d="M978.219 487.206V486.849C978.219 484.111 980.588 481.89 983.507 481.89H1104.46C1107.37 481.89 1109.74 484.111 1109.74 486.849V487.206C1109.74 489.943 1107.37 492.165 1104.46 492.165H983.507C980.588 492.165 978.219 489.943 978.219 487.206Z" fill="white"/>
<path d="M871.352 487.206V486.849C871.352 484.111 873.731 481.89 876.662 481.89H960.574C963.506 481.89 965.885 484.111 965.885 486.849V487.206C965.885 489.943 963.506 492.165 960.574 492.165H876.662C873.731 492.165 871.352 489.943 871.352 487.206Z" fill="white"/>
<path d="M871.352 511.866V511.509C871.352 508.772 873.693 506.55 876.578 506.55H907.227C910.112 506.55 912.453 508.772 912.453 511.509V511.866C912.453 514.603 910.112 516.825 907.227 516.825H876.578C873.693 516.825 871.352 514.603 871.352 511.866Z" fill="white"/>
<path d="M924.785 511.866V511.509C924.785 508.772 927.174 506.55 930.117 506.55H1104.41C1107.35 506.55 1109.74 508.772 1109.74 511.509V511.866C1109.74 514.603 1107.35 516.825 1104.41 516.825H930.117C927.174 516.825 924.785 514.603 924.785 511.866Z" fill="white"/>
<path d="M92.1623 215.838C165.894 187.858 248.347 224.943 276.327 298.671C304.307 372.402 267.222 454.852 193.495 482.836C119.765 510.817 37.3116 473.731 9.33015 400.003C-18.6526 326.272 18.433 243.818 92.1623 215.838" fill="#F89276"/>
<path d="M140.509 435.936C132.406 452.815 112.152 459.928 95.2744 451.826C78.3967 443.721 71.2835 423.471 79.3863 406.592C87.4896 389.713 107.741 382.6 124.621 390.702C141.5 398.807 148.613 419.057 140.509 435.936" fill="white"/>
<path d="M92.1523 433.029L90.4219 410.423L109.242 397.632L129.793 407.443L131.523 430.049L112.703 442.844L92.1523 433.029Z" fill="#F89276"/>
<path d="M210.179 295.611C201.582 313.001 180.105 320.33 162.203 311.979C144.302 303.631 136.758 282.763 145.35 265.377C153.947 247.986 175.428 240.657 193.326 249.004C211.228 257.356 218.772 278.22 210.179 295.611" fill="white"/>
<path d="M160.293 291.573L161.456 263.83L182.005 245.555L201.395 255.029L200.232 282.773L179.679 301.042L160.293 291.573" fill="#F89276"/>
<path d="M134.977 403.797L108.918 391.184L128.175 346.4C129.397 343.559 130.728 340.769 132.164 338.031L154.786 294.878L180.846 307.491L162.273 351.59C160.838 355.004 159.247 358.346 157.502 361.606L134.977 403.797" fill="white"/>
<path d="M244.555 427.054C249.617 424.637 330.868 428.458 330.868 428.458L272.301 372.97L244.555 427.054" fill="#F89276"/>
<path d="M855.715 1001.82C847.48 873.53 903.032 740.751 996.601 664.792C999.503 793.733 944.505 924.227 855.715 1001.82" fill="#F89276"/>
<path d="M982.328 701.783C942.608 775.645 908.262 852.938 879.719 932.676C845.028 1029.49 817.732 1132.34 758.324 1213.5" stroke="#F0896B" stroke-width="1.33333" stroke-miterlimit="10" stroke-linecap="round"/>
<path d="M826.141 1081.97C873.813 975.535 968.428 895.117 1072.75 872.355C1028.34 986.423 928.444 1073.44 826.141 1081.97Z" fill="#F89276"/>
<path d="M1048.09 897.015C976.007 959.758 902.71 1020.74 828.195 1079.92" stroke="#F0896B" stroke-width="1.33333" stroke-miterlimit="10" stroke-linecap="round"/>
<path d="M797.371 1175.8C861.305 1080.94 979.258 1031.44 1076.86 1058.5C1005.08 1152.16 886.87 1201.79 797.371 1175.8Z" fill="#F89276"/>
<path d="M1052.2 1065.53C969.116 1118.26 879.494 1157.2 787.094 1180.62" stroke="#F0896B" stroke-width="1.33333" stroke-miterlimit="10" stroke-linecap="round"/>
<path d="M832.156 1051.15C852.829 943.784 821.819 824.108 752.776 744.941C724.47 850.454 751.468 974.09 832.156 1051.15" fill="#F89276"/>
<path d="M760.379 771.656C774.116 871.089 798.552 964.223 836.417 1055.26" stroke="#F0896B" stroke-width="1.33333" stroke-miterlimit="10" stroke-linecap="round"/>
<path d="M797.372 1141.57C788.678 1032.02 732.126 929.137 649.406 872.355C654.184 930.376 669.72 986.304 694.381 1037.15C722.744 1095.55 764.405 1132.6 797.372 1141.57" fill="#F89276"/>
<path d="M659.68 894.96C692.684 986.057 740.183 1070.51 799.425 1143.62" stroke="#F0896B" stroke-width="1.33333" stroke-miterlimit="10" stroke-linecap="round"/>
<path d="M1327.79 1215.55C1366.55 1113.68 1358.82 998.194 1307.52 913.456C1287.16 967.494 1277.46 1024.03 1278.31 1079.75C1279.24 1143.73 1301.47 1194.02 1327.79 1215.55" fill="#F89276"/>
<path d="M230.215 1010.04C213.45 908.922 248.112 801.738 321.327 728.499C329.753 833.122 297.662 939.705 230.215 1010.04Z" fill="#F89276"/>
<path d="M304.151 769.6C295.731 854.458 269.698 937.396 228.113 1012.1" stroke="#F0896B" stroke-width="1.33333" stroke-miterlimit="10" stroke-linecap="round"/>
<path d="M730.314 1022.38C730.314 1022.38 739.707 1108.7 750.214 1115.62C768.998 1128.05 986.435 1156.78 986.435 1156.78L979.316 1213.51C979.316 1213.51 681.509 1240.35 668.857 1225.42C646.899 1199.53 608.301 1074.63 608.301 1074.63L730.314 1022.38Z" fill="#CE745A"/>
<path d="M585.695 798.745L610.102 740.83C610.102 740.83 676.317 771.572 698.156 809.537C721.519 850.126 750.102 1065.92 750.102 1065.92C750.102 1065.92 633.203 1092.54 611.711 1081.23C590.22 1069.92 585.695 798.745 585.695 798.745" fill="#F0896B"/>
<path d="M402.461 529.343C385.504 523.144 367.556 517.719 349.391 519.097C331.226 520.474 312.674 530.075 306.504 546.004C302.103 557.284 304.131 570.587 297.184 580.748C290.54 590.478 277.337 594.524 264.997 595.342C252.614 596.204 240.145 594.567 227.848 596.16C189.879 601.198 162.784 642.356 175.253 676.066C180.215 689.498 190.397 702.328 188.067 716.32C185.608 731.302 169.86 741.161 163.388 755.067C154.802 773.579 165.07 796.01 182.027 808.624C198.983 821.195 221.031 825.974 242.432 829.16C271.9 833.551 302.319 835.618 331.442 829.418C360.566 823.219 388.395 807.892 403.453 783.955C410.141 773.364 414.197 761.395 421.963 751.45C438.013 730.914 466.447 722.95 488.84 708.398C513.304 692.426 531.252 661.342 516.842 637.017C502.948 613.64 466.792 608.43 452.295 585.397C446.297 575.883 444.874 564.56 440.99 554.184C437.021 543.766 427.529 538.513 402.461 529.343" fill="#16233A"/>
<path d="M499.498 816.433C503.782 821.3 508.845 826.638 515.855 827.107C523.255 827.62 529.443 822.453 534.203 817.458C558.782 791.796 575.01 760.285 581.588 727.792C575.486 724.376 569.601 721.088 564.278 718.014C559.345 715.11 555.623 711.054 553.503 706.314C552.032 702.813 551.512 699.141 551.902 695.298C555.364 663.189 558.436 645.299 569.86 612.72C515.595 600.637 464.403 586.29 434.977 562.038C431.385 576.982 427.144 606.23 418.1 635.222C408.45 665.922 393.391 696.28 367.859 709.346C417.97 738.551 462.672 774.845 499.498 816.433" fill="#FFCDBE"/>
<path d="M551.502 693.993C551.117 697.798 551.631 701.477 553.085 704.901C521.344 742.953 450.376 693.232 419.234 634.505C428.175 605.797 432.367 576.835 435.918 562.037C464.964 586.052 515.612 600.3 569.255 612.223C557.962 644.483 554.925 662.156 551.502 693.993Z" fill="#CE745A"/>
<path d="M641.231 1162.01C634.186 1208.76 684.537 1250.09 685.783 1275.06C578.851 1275.06 374.025 1275.06 240.784 1275.06C235.586 1246.22 291.909 1181.34 291.909 1117.28C291.909 1108.8 291.565 1099.5 290.878 1089.51C289.073 1060.93 284.863 1026.92 280.18 992.045C267.464 898.495 250.537 798.445 263.038 777.695C287.527 737.27 344.795 709.804 373.193 698.008C382.945 693.961 389.303 691.766 389.776 691.507C425.391 752.381 497.868 804.3 525.235 801.976C532.839 801.373 555.394 793.495 570.301 718.285C576.101 721.6 581.901 724.656 587.658 727.627C615.97 742.393 642.52 754.577 650.168 773.562C670.36 823.544 690.165 949.554 685.783 994.374C681.358 1039.58 663.228 1074.1 650.511 1119.47C647.547 1130.11 644.84 1141.39 642.649 1153.53C642.091 1156.24 641.661 1159.08 641.231 1162.01Z" fill="#F89276"/>
<path d="M682.346 1275.11C575.759 1275.11 372.998 1275.11 240.783 1275.11C235.602 1246.42 291.742 1181.87 291.742 1118.13C291.742 1109.69 291.4 1100.44 290.715 1090.51C288.916 1062.06 284.719 1028.23 280.052 993.533C300.221 1014.82 329.641 924.873 342.659 951.215C413.102 1093.42 468.644 1130.81 565.166 1130.81C593.943 1130.81 620.493 1126.83 649.185 1120.32C646.23 1130.9 643.532 1142.12 641.348 1154.2C640.834 1156.94 640.363 1159.77 639.935 1162.68C632.912 1209.11 681.104 1250.23 682.346 1275.11Z" fill="#F0896B"/>
<path d="M587.752 727.97C583.127 761.737 569.424 807.239 529.57 819.233C475.711 835.443 397.775 734.271 371.969 698.07C381.781 693.985 388.178 691.768 388.654 691.508C424.488 752.958 497.41 805.37 524.945 803.023C532.596 802.415 555.289 794.462 570.289 718.539C576.124 721.842 581.96 724.927 587.752 727.97" fill="#F89276"/>
<path d="M610.746 1237.11V1275.15H1292.65V1237.11L610.746 1237.11Z" fill="#345A73"/>
<path d="M1563.91 902.879L1549.08 887.861L1063.56 884.685L819.977 1236.17L832.706 1246.38L1563.91 902.879Z" fill="#345A73"/>
<path d="M1074.04 897.016L834.359 1246.16L1292.18 1248.43L1563.91 902.215L1074.04 897.016Z" fill="#1A2C4C"/>
<path d="M1189.89 1067.59C1219.4 1067.59 1243.32 1079.09 1243.32 1093.28C1243.32 1107.46 1219.4 1118.96 1189.89 1118.96C1160.38 1118.96 1136.46 1107.46 1136.46 1093.28C1136.46 1079.09 1160.38 1067.59 1189.89 1067.59Z" fill="#40718F"/>
<path d="M620.447 550.959C627.854 510.408 655.101 481.574 681.305 486.56C707.513 491.542 722.755 528.455 715.353 569.005C707.946 609.556 680.699 638.39 654.495 633.404C628.287 628.422 613.045 591.51 620.447 550.959Z" fill="#1A2C4C"/>
<path d="M715.427 442.535C710.502 477.911 694.919 516.902 672.203 559.982C664.221 524.692 659.125 481.698 652.077 438.704C644.901 395.624 635.772 352.544 619.935 317.34C616.368 309.55 612.504 302.105 608.301 295.219C617.684 294.315 627.195 295.219 636.239 297.758C650.378 301.589 663.626 308.991 674.453 318.889C692.456 335.114 704.515 357.235 711.691 380.561C717.593 399.928 718.654 420.5 715.427 442.535Z" fill="#1A2C4C"/>
<path d="M688.184 478.799C687.928 485.724 687.457 492.778 686.816 499.788C677.073 613.494 629.339 691.507 556.306 691.507C453.188 691.507 386.352 575.834 386.352 462.513C386.352 350.73 454.812 269.811 534.939 279.173C581.134 284.473 614.895 299.819 638.868 322.304C654.723 337.265 666.176 355.347 673.996 375.908C682.928 398.949 687.244 425.024 688.141 453.109C688.141 453.194 688.227 453.28 688.227 453.365C688.568 461.658 688.483 470.122 688.184 478.799" fill="#FFCDBE"/>
<path d="M688.177 479.04C685.076 467.987 680.468 457.192 674.18 447.515C612.891 479.513 539.844 491.856 470.588 480.158C457.408 491.125 444.53 501.92 431.566 512.715C431.825 460.676 432.557 425.453 452.886 400.25C471.966 376.596 503.795 367.694 533.944 363.823C567.883 359.393 602.382 359.565 636.235 364.468C649.199 366.274 662.637 369.07 673.921 375.607C682.923 398.788 687.273 425.023 688.177 453.279C688.177 453.365 688.264 453.45 688.264 453.536C688.565 461.794 688.479 470.309 688.177 479.04Z" fill="#CE745A"/>
<path d="M704.891 408.012C690.66 420.061 672.819 430.045 652.785 438.136C595.778 461.159 521.704 468.776 463.966 465.979C435.591 528.379 424.113 550.756 416.847 605.195C389.118 579.159 366.547 531.477 359.84 493.994C353.22 456.64 353.864 417.436 364.268 380.728C380.648 322.847 421.963 291.862 450.596 276.8C457.732 272.884 464.181 270.173 469.168 268.193C505.754 254.035 546.983 255.326 584.514 266.816C604.978 273.185 622.218 283.944 636.706 297.198C665.983 323.665 684.083 359.512 695.776 386.365C699.474 394.585 702.44 402.03 704.891 408.012Z" fill="#1A2C4C"/>
<path d="M715.411 442.844C713.055 430.261 709.542 418.068 704.571 406.306C701.786 399.647 698.359 393.205 694.374 386.978C681.391 366.396 662.496 349.446 639.659 341.966C633.146 332.756 626.291 324.454 619.092 317.103C593.17 290.511 562.749 275.291 530.528 269.972C503.706 265.605 475.813 268.07 450.062 276.891C457.175 272.956 463.602 270.232 468.572 268.243C505.035 254.017 546.125 255.314 583.53 266.859C603.925 273.258 621.106 284.068 635.545 297.386C649.813 301.234 663.181 308.672 674.107 318.617C692.274 334.918 704.443 357.143 711.684 380.579C717.597 400.037 718.668 420.705 715.411 442.844" fill="#2A5070"/>
<path d="M497.328 512.715C516.154 502.726 535.697 498.222 563.091 507.505" stroke="#1A2C4C" stroke-width="2.66667" stroke-miterlimit="10" stroke-linecap="round"/>
<path d="M626.801 512.715C643.222 499.685 667.552 498.359 680.233 512.715" stroke="#1A2C4C" stroke-width="2.66667" stroke-miterlimit="10" stroke-linecap="round"/>
<path d="M609.567 574.368C611.228 583.159 610.334 602.612 606.246 611.359" stroke="#CD3249" stroke-width="2.66667" stroke-miterlimit="10" stroke-linecap="round"/>
<path d="M543.568 555.872C548.675 555.872 552.816 560.935 552.816 567.175C552.816 573.419 548.675 578.478 543.568 578.478C538.462 578.478 534.32 573.419 534.32 567.175C534.32 560.935 538.462 555.872 543.568 555.872Z" fill="#25293B"/>
<path d="M646.322 549.708C650.293 549.708 653.514 555.231 653.514 562.038C653.514 568.85 650.293 574.369 646.322 574.369C642.35 574.369 639.129 568.85 639.129 562.038C639.129 555.231 642.35 549.708 646.322 549.708Z" fill="#25293B"/>
<path d="M598.028 628.082C598.028 628.082 596.493 631.053 593.552 635.085C588.948 641.239 581.105 649.727 570.406 653.038H570.363C565.845 654.481 560.943 654.99 555.487 654.014C539.459 651.17 535.239 636.443 534.472 625.111C534.301 622.904 534.301 620.867 534.344 618.999C534.429 614.416 534.941 611.36 534.941 611.36C560.474 625.366 598.028 628.082 598.028 628.082" fill="#CD3249"/>
<path d="M598.028 627.292C598.028 627.292 596.493 630.123 593.55 633.965C580.502 633.803 553.808 627.454 534.32 618.638C534.406 614.271 534.917 611.359 534.917 611.359C560.46 624.704 598.028 627.292 598.028 627.292Z" fill="white"/>
<path d="M569.257 653.07C564.858 654.481 560.087 654.98 554.776 654.025C539.175 651.242 535.067 636.833 534.32 625.746C541.872 626.659 549.174 629.566 555.232 634.175C561.581 639.034 566.435 645.636 569.257 653.07" fill="#EA509C"/>
<path d="M415.741 492.165C415.741 492.165 414.837 438.714 437.187 385.606C465.221 318.954 522.367 290.449 577.791 288.52C644.583 286.163 686.398 330.784 686.398 330.784C686.398 330.784 664.651 292.592 621.759 281.619C593.595 274.418 551.091 273.261 516.984 287.063C481.844 301.251 438.048 340.643 422.2 382.263C406.396 423.883 398.688 488.693 398.688 488.693L415.741 492.165" fill="#40718F"/>
<path d="M398.912 475.91C426.936 472.955 453.23 505.442 457.648 548.472C462.062 591.498 442.921 628.769 414.897 631.723C386.873 634.673 360.574 602.187 356.16 559.161C351.746 516.135 370.884 478.86 398.912 475.91Z" fill="#1A2C4C"/>
<path d="M384.88 502.656C402.984 499.904 421.536 523.798 426.319 556.024C431.107 588.253 420.311 616.608 402.211 619.364C384.107 622.116 365.556 598.222 360.772 565.992C355.984 533.766 366.78 505.408 384.88 502.656" fill="#40718F"/>
<path d="M580.56 660.681C595.884 660.681 608.304 668.045 608.304 677.122C608.304 686.203 595.884 693.562 580.56 693.562C565.241 693.562 552.816 686.203 552.816 677.122C552.816 668.045 565.241 660.681 580.56 660.681" fill="#345A73"/>
<path d="M439.785 619.58C439.785 619.58 481.053 671.759 552.814 677.123" stroke="#345A73" stroke-width="2.66667" stroke-miterlimit="10" stroke-linecap="round"/>
<path d="M610.359 1135.36L607.688 1203.58C607.688 1203.58 358.478 1277.52 317.324 1254.14C297.242 1242.7 278.497 1179.82 264.491 1118.42C249.84 1053.91 240.445 991.107 240.445 991.107L386.532 962.777C386.532 962.777 386.618 1050.97 391.574 1101.95C393.341 1120.94 395.883 1134.76 399.288 1137.02C412.173 1145.43 610.359 1135.36 610.359 1135.36" fill="#FFCDBE"/>
<path d="M390.466 1101.11C364.115 1109.72 313.253 1123.02 264.315 1117.77C249.771 1052.68 240.445 989.309 240.445 989.309L385.461 960.723C385.461 960.68 385.547 1049.67 390.466 1101.11" fill="#CE745A"/>
<path d="M602.501 1136.45C639.379 1128.56 701.814 1109.61 727.714 1103.09C746.11 1098.45 794.008 1123.24 806.658 1146.62C812.19 1156.83 817.421 1214.64 798.253 1208.68C788.648 1205.68 790.235 1180.89 787.233 1170.76C784.789 1162.53 776.984 1154.55 765.106 1147.69C773.039 1167.46 772.739 1184.7 771.881 1206.06C771.71 1210.78 771.41 1215.71 769.137 1219.79C766.822 1223.86 761.847 1226.78 757.559 1224.98C753.185 1223.17 751.685 1217.73 750.698 1212.97C747.311 1196.5 743.88 1180.03 742.508 1161.41C742.851 1179.73 742.465 1198.08 741.307 1216.35C740.45 1230.34 733.503 1238.01 724.97 1235.57C721.153 1234.5 719.61 1230.98 717.98 1226.35C715.407 1235.31 708.975 1245.22 700.656 1241.44C695.596 1239.17 692.466 1220.9 693.366 1202.12C677.415 1212.02 659.405 1216.23 638.65 1217.17C620.04 1218.03 601.001 1214.55 589.809 1201.9C590.924 1182.13 597.441 1152.88 602.501 1136.45" fill="#FFCDBE"/>
<path d="M716.778 1223.77C717.974 1209.29 716.737 1194.6 713.109 1180.62" stroke="#CD3249" stroke-width="1.33333" stroke-miterlimit="10" stroke-linecap="round"/>
<path d="M370.688 817.158C360.015 787.379 320.92 726.444 320.92 726.444C320.92 726.444 261.259 751.024 240.085 792.75C204.245 863.396 222.469 1066.22 222.469 1066.22C270.762 1086.25 367.695 1086.55 408.958 1080.79C408.958 1080.79 392.08 876.675 370.688 817.158" fill="#F89276"/>
<path d="M376.078 829.198C391.732 906.456 400.123 978.506 402.794 1049.09" stroke="#F0896B" stroke-width="1.33333" stroke-miterlimit="10" stroke-linecap="round"/>
</svg>
