<svg width="1152" height="1267" viewBox="0 0 1152 1267" fill="none" xmlns="http://www.w3.org/2000/svg">
<path d="M858.076 10.0217H802.316V39.8135H858.076V10.0217Z" fill="#263238"/>
<path d="M865.935 0H794.426V19.4923H865.935V0Z" fill="#455A64"/>
<path d="M733.398 39.4679L718.203 53.7944L742.206 76.4256L757.4 62.0991L733.398 39.4679Z" fill="#263238"/>
<path d="M729.811 27.6249L705.67 50.3867L721.349 65.1699L745.489 42.4081L729.811 27.6249Z" fill="#455A64"/>
<path d="M902.987 62.073L918.182 76.3998L942.184 53.7684L926.989 39.4417L902.987 62.073Z" fill="#263238"/>
<path d="M914.834 42.4224L938.975 65.1838L954.654 50.4008L930.513 27.6394L914.834 42.4224Z" fill="#455A64"/>
<path d="M962.088 193.011C979.183 124.29 933.957 55.5146 861.072 39.3964C788.188 23.2781 715.245 65.9207 698.15 134.641C681.055 203.362 726.282 272.137 799.166 288.255C872.051 304.373 944.993 261.731 962.088 193.011Z" fill="#455A64"/>
<path d="M828.535 283.682C899.958 283.682 957.857 229.091 957.857 161.748C957.857 94.4061 899.958 39.8145 828.535 39.8145C757.112 39.8145 699.213 94.4061 699.213 161.748C699.213 229.091 757.112 283.682 828.535 283.682Z" fill="#263238"/>
<path d="M943.175 178.86C952.304 120.006 909.102 65.3172 846.681 56.7103C784.261 48.1033 726.259 88.8371 717.13 147.692C708.002 206.546 751.204 261.235 813.624 269.842C876.045 278.448 934.047 237.715 943.175 178.86Z" fill="white"/>
<path opacity="0.5" d="M944.42 163.317H830.293V55.7101C860.561 55.7101 889.59 67.0472 910.993 87.2274C932.396 107.408 944.42 134.778 944.42 163.317V163.317Z" fill="#5CB79D"/>
<path d="M831.307 63.4261H829.09V79.7517H831.307V63.4261Z" fill="#F0F0F0"/>
<path d="M778.157 76.2195L776.236 77.2649L784.893 91.4034L786.814 90.358L778.157 76.2195Z" fill="#F0F0F0"/>
<path d="M738.952 112.423L737.844 114.233L752.839 122.396L753.947 120.585L738.952 112.423Z" fill="#F0F0F0"/>
<path d="M741.569 162.27H724.254V164.361H741.569V162.27Z" fill="#F0F0F0"/>
<path d="M756.761 205.228L741.697 213.391L742.806 215.21L757.87 207.047L756.761 205.228Z" fill="#F0F0F0"/>
<path d="M784.903 235.167L776.254 249.31L778.175 250.354L786.824 236.211L784.903 235.167Z" fill="#F0F0F0"/>
<path d="M831.307 246.88H829.09V263.206H831.307V246.88Z" fill="#F0F0F0"/>
<path d="M875.438 235.112L873.518 236.157L882.175 250.295L884.095 249.25L875.438 235.112Z" fill="#F0F0F0"/>
<path d="M907.476 204.115L906.367 205.926L921.362 214.088L922.471 212.278L907.476 204.115Z" fill="#F0F0F0"/>
<path d="M936.139 162.27H918.824V164.361H936.139V162.27Z" fill="#F0F0F0"/>
<path d="M921.368 112.409L906.373 120.572L907.482 122.382L922.477 114.219L921.368 112.409Z" fill="#F0F0F0"/>
<path d="M882.183 76.2608L873.531 90.4019L875.452 91.4465L884.104 77.3055L882.183 76.2608Z" fill="#F0F0F0"/>
<path d="M830.977 85.3773L836.064 169.71L824.586 169.557L827.879 85.3466L830.977 85.3773Z" fill="#5CB79D"/>
<path d="M834.108 163.317C834.108 164.054 833.876 164.775 833.441 165.387C833.006 166 832.387 166.476 831.665 166.757C830.942 167.038 830.147 167.109 829.38 166.963C828.614 166.817 827.911 166.46 827.361 165.937C826.81 165.413 826.437 164.748 826.289 164.024C826.14 163.3 826.223 162.551 826.527 161.872C826.83 161.193 827.341 160.614 827.994 160.209C828.647 159.804 829.413 159.591 830.195 159.597C830.711 159.597 831.223 159.693 831.7 159.881C832.177 160.068 832.61 160.343 832.973 160.688C833.337 161.034 833.625 161.445 833.819 161.896C834.014 162.347 834.112 162.83 834.108 163.317V163.317Z" fill="#5CB79D"/>
<path d="M912.986 164.577L823.543 169.342L823.706 158.52L913.019 161.625L912.986 164.577Z" fill="#263238"/>
<path d="M834.108 163.317C834.108 164.054 833.876 164.775 833.441 165.387C833.006 166 832.387 166.476 831.665 166.757C830.942 167.038 830.147 167.109 829.38 166.963C828.614 166.817 827.911 166.46 827.361 165.937C826.81 165.413 826.437 164.748 826.289 164.024C826.14 163.3 826.223 162.551 826.527 161.872C826.83 161.193 827.341 160.614 827.994 160.209C828.647 159.804 829.413 159.591 830.195 159.597C830.711 159.597 831.223 159.693 831.7 159.881C832.177 160.068 832.61 160.343 832.973 160.688C833.337 161.034 833.625 161.445 833.819 161.896C834.014 162.347 834.112 162.83 834.108 163.317V163.317Z" fill="#5CB79D"/>
<path d="M365.761 394.794C382.554 455.208 404.434 494.653 419.107 508.304C454.258 541.017 529.973 548.272 572.559 564.936C586.417 570.378 624.732 487.49 610.547 480.234C600.08 474.854 478.519 460.342 468.182 457.36C462.867 455.823 422.531 406.293 399.706 378.438C362.924 333.797 356.566 361.805 365.761 394.794Z" fill="#F7A9A0"/>
<path d="M639.114 576.559C632.593 576.405 632.364 579.633 641.462 586.735C650.559 593.837 692.917 614.406 684.015 627.78C675.113 641.154 615.8 611.147 601.615 598.295C587.431 585.444 569.203 559.987 569.203 559.987C582.018 563.646 614.006 569.703 639.114 576.559Z" fill="#F7A9A0"/>
<path d="M600.309 477.621C663.438 486.845 688.546 498.497 716.197 528.934C719.354 532.223 721.259 536.409 721.61 540.832C734.262 554.237 731.392 563.922 731.392 563.922C739.088 579.817 734.653 589.317 734.653 589.317C734.653 589.317 749.327 605.212 740.588 615.173C730.806 626.364 712.154 601.83 693.144 594.267C649.547 576.896 582.277 563.737 569.234 559.925L600.309 477.621Z" fill="#F7A9A0"/>
<path d="M660.893 545.875C673.722 550.798 686.176 556.551 698.164 563.092C710.802 571.005 722.792 579.803 734.032 589.41C734.109 589.451 734.198 589.467 734.285 589.455C734.372 589.443 734.452 589.403 734.512 589.343C734.572 589.282 734.609 589.204 734.617 589.122C734.625 589.039 734.603 588.957 734.554 588.887C714.774 568.309 689.386 553.24 661.154 545.322C660.502 545.137 660.241 545.598 660.893 545.875Z" fill="#263238"/>
<path d="M668.167 519.526C680.265 525.367 701.395 535.79 730.97 564.259C730.97 564.259 731.263 564.259 731.165 564.259C715.114 544.009 693.403 528.371 668.461 519.095C667.678 518.665 667.385 519.126 668.167 519.526Z" fill="#263238"/>
<path d="M672.371 505.445C692.49 516.144 703.739 525.276 721.445 540.894C721.445 540.894 721.706 540.894 721.608 540.74C703.511 521.002 694.576 515.775 672.697 504.738C671.914 504.369 671.588 505.015 672.371 505.445Z" fill="#263238"/>
<path d="M437.369 422.188L379.229 473.562C379.229 473.562 355.752 393.872 355.915 368.661C355.915 340.222 371.436 346.494 391.783 365.587C412.131 384.679 437.369 422.188 437.369 422.188Z" fill="#5CB79D"/>
<path opacity="0.1" d="M437.369 422.188L379.229 473.562C379.229 473.562 355.752 393.872 355.915 368.661C355.915 340.222 371.436 346.494 391.783 365.587C412.131 384.679 437.369 422.188 437.369 422.188Z" fill="black"/>
<path d="M425.464 414.071C417.117 419.666 394.585 439.774 390.802 443.063C388.813 444.816 381.248 452.041 379.259 453.763C378.998 453.978 379.259 454.316 379.651 454.101C383.466 450.842 387.639 447.952 391.455 444.662C395.27 441.372 419.008 421.726 425.725 414.348C425.888 414.194 425.66 413.948 425.464 414.071Z" fill="#263238"/>
<path d="M745.476 1038.68C737.585 1041.11 510.375 1032.53 501.864 1027.34C500.821 1026.75 496.777 985.555 496.777 985.555L523.059 827.25L672.239 829.125L643.447 964.403C643.447 964.403 676.315 978.668 703.412 991.12C720.108 998.745 734.618 1005.72 737.944 1008.28C746.683 1014.85 753.4 1036.28 745.476 1038.68Z" fill="#F7A9A0"/>
<path d="M745.51 1038.68C737.619 1041.11 510.344 1032.53 501.866 1027.37C500.855 1026.75 496.746 985.557 496.746 985.557L504.865 936.795L647.981 942.944L643.35 964.281C643.35 964.281 676.186 978.547 703.316 990.968C720.011 998.593 734.522 1005.57 737.848 1008.12C746.652 1014.89 753.369 1036.32 745.51 1038.68Z" fill="#EBEBEB"/>
<path d="M745.381 1038.9C737.327 1041.27 508.616 1036.26 500.041 1030.84C496.78 1028.85 495.573 997.363 495.312 959.301V958.133L642.928 959.823V962.16C642.928 962.16 729.566 1001.02 738.338 1007.91C747.109 1014.8 753.435 1036.62 745.381 1038.9Z" fill="#F0F0F0"/>
<path d="M732.338 1039.51C682.285 1040.01 507.345 1035.58 500.041 1030.87C496.78 1028.88 495.573 997.393 495.312 959.331V958.163L587.755 959.208L732.338 1039.51Z" fill="#A6A6A6"/>
<path d="M743.002 1030.54C704.459 1028.78 548.855 1025.19 510.639 1026.23C510.313 1026.23 510.313 1026.45 510.639 1026.48C548.79 1028.97 704.394 1031.37 742.969 1031.12C743.784 1031.12 743.817 1030.57 743.002 1030.54Z" fill="#263238"/>
<path d="M655.188 962.897C640.09 959.823 621.471 961.667 609.537 971.629C609.08 971.998 609.537 972.613 610.156 972.459C624.765 968.372 639.796 965.774 654.992 964.711C655.225 964.7 655.447 964.61 655.616 964.458C655.785 964.307 655.892 964.103 655.915 963.883C655.939 963.664 655.878 963.444 655.745 963.263C655.611 963.082 655.414 962.953 655.188 962.897V962.897Z" fill="#263238"/>
<path d="M665.981 969.354C650.883 966.279 632.264 968.155 620.33 978.085C619.873 978.454 620.33 979.069 620.949 978.946C635.592 974.873 650.656 972.297 665.883 971.26C666.151 971.272 666.413 971.183 666.612 971.013C666.811 970.843 666.929 970.605 666.942 970.353C666.955 970.1 666.861 969.853 666.681 969.665C666.501 969.478 666.249 969.366 665.981 969.354V969.354Z" fill="#263238"/>
<path d="M676.775 975.81C661.678 972.736 643.059 974.611 631.125 984.542C630.668 984.941 631.125 985.525 631.744 985.402C646.352 981.308 661.383 978.7 676.58 977.624C676.813 977.613 677.035 977.523 677.204 977.371C677.373 977.219 677.479 977.015 677.503 976.796C677.527 976.577 677.466 976.357 677.333 976.176C677.199 975.995 677.002 975.865 676.775 975.81V975.81Z" fill="#263238"/>
<path d="M655.968 943.928L489.44 936.795C489.44 936.795 546.993 716.447 540.862 709.283C534.341 701.597 293.239 758.475 245.045 702.089C195.677 644.32 220.426 561.155 220.426 561.155H384.867C384.867 561.155 381.606 581.969 383.824 591.9C383.824 591.9 615.338 558.511 665.685 583.66C675.467 588.61 711.335 616.403 711.922 642.752C715.085 759.121 655.968 943.928 655.968 943.928Z" fill="#455A64"/>
<path d="M657.637 915.489C637.876 913.152 618.083 911.738 598.225 910.324C578.367 908.909 558.509 907.803 538.651 907.096C527.434 906.665 516.217 906.757 505 906.388C504.942 906.407 504.892 906.443 504.857 906.489C504.822 906.536 504.803 906.592 504.803 906.65C504.803 906.707 504.822 906.763 504.857 906.81C504.892 906.857 504.942 906.892 505 906.911C514.978 907.588 524.923 908.787 534.901 909.524L564.444 911.554C584.302 912.783 604.16 913.829 624.018 914.966C635.202 915.612 646.387 915.95 657.604 916.196C657.686 916.177 657.759 916.133 657.813 916.071C657.866 916.01 657.897 915.933 657.901 915.854C657.904 915.774 657.881 915.696 657.833 915.63C657.785 915.564 657.716 915.515 657.637 915.489Z" fill="#263238"/>
<path d="M566.528 693.634C534.539 694.618 502.714 697.231 470.889 700.182C439.064 703.134 407.043 706.331 374.957 708.299C359.045 709.252 343.067 709.867 327.089 709.959C313.818 710.496 300.535 709.191 287.666 706.085C274.89 702.564 263.97 694.669 257.048 683.949C250.089 673.084 245.53 661.006 243.646 648.439C239.44 623.013 243.646 597.033 248.57 571.946C249.189 568.871 249.809 565.797 250.396 562.476C250.396 562.199 249.972 562.076 249.874 562.476C243.352 587.779 237.255 613.82 239.211 639.953C240.011 652.777 243.328 665.349 248.994 677.031C254.104 688.383 262.893 697.918 274.102 704.271C285.547 710.42 299.079 712.234 312.22 712.849C327.546 713.587 343.067 712.849 358.393 712.204C391.196 710.697 423.869 707.5 456.477 704.302C489.084 701.105 521.529 697.969 554.3 696.431C557.919 696.247 561.539 696.124 565.158 696.001C560.202 723.671 518.236 888.402 515.888 901.438C515.66 902.729 516.964 903.129 517.323 901.807C524.496 876.135 565.223 711.189 567.93 695.079C567.973 694.891 567.968 694.697 567.915 694.511C567.862 694.326 567.763 694.156 567.625 694.014C567.488 693.872 567.317 693.764 567.126 693.698C566.935 693.632 566.729 693.61 566.528 693.634V693.634Z" fill="#263238"/>
<path d="M694.906 1045.11H339.025V1082.22H694.906V1045.11Z" fill="#5CB79D"/>
<path d="M26.2832 719.552H46.4674L176.898 860.241H156.714L26.2832 719.552Z" fill="#DBDBDB"/>
<path d="M280.492 708.392H0V719.522H280.492V708.392Z" fill="#DBDBDB"/>
<path d="M102.391 719.552H122.575L253.006 860.241H232.821L102.391 719.552Z" fill="#DBDBDB"/>
<path d="M232.168 978.915C333.513 978.915 392.24 1045.29 392.24 1123.42C392.24 1201.54 337.85 1266.41 239.016 1266.41C129.65 1266.41 77.4121 1184.38 77.4121 1122.71C77.4121 1061.03 129.584 978.915 232.168 978.915Z" fill="#37474F"/>
<path d="M216.583 978.915C312.939 978.915 368.731 1045.29 368.731 1123.42C368.731 1201.54 317.047 1266.41 223.039 1266.41C119.053 1266.41 69.457 1184.26 69.457 1122.59C69.457 1060.91 119.053 978.915 216.583 978.915Z" fill="#263238"/>
<path d="M217.563 1035.02C276.257 1035.02 310.267 1075.48 310.267 1123.08C310.267 1170.67 278.768 1210.18 221.509 1210.18C158.119 1210.18 127.859 1160.19 127.859 1122.59C127.859 1084.98 158.119 1035.02 217.563 1035.02Z" fill="#F0F0F0"/>
<path d="M519.051 803.761V791.187L178.006 801.548V829.833C178.006 829.833 79.2377 932.674 69.2598 1039.57L411.25 1046.4L466.193 1045.11H533.659V980.482C533.659 980.482 482.66 945.433 491.595 873.829C494.562 850.063 519.051 803.761 519.051 803.761Z" fill="#5CB79D"/>
<path d="M379.389 1031.43C375.835 1037.58 323.956 1046.4 225.611 1048.89C137.081 1051.13 70.9526 1049.29 65.8332 1043.91C60.7138 1038.53 73.7569 943.374 133.69 891.846C193.623 840.318 278.468 832.908 334.423 863.653C383.628 890.616 420.344 959.146 379.389 1031.43Z" fill="#5CB79D"/>
<path opacity="0.1" d="M396.085 941.345C390.827 918.813 378.7 898.221 361.194 882.1C343.646 865.522 321.733 853.647 297.707 847.697C270.907 841.389 242.838 841.675 216.188 848.527C202.851 851.824 189.954 856.538 177.743 862.577C164.852 869.109 152.702 876.866 141.484 885.728C138.484 888.065 135.451 890.401 132.484 892.799C132.223 892.984 132.484 893.322 132.875 893.138C144.162 883.779 156.382 875.47 169.363 868.326C181.209 861.948 193.776 856.843 206.83 853.108C232.709 845.476 260.192 844.019 286.816 848.865C310.879 853.424 333.18 864.05 351.347 879.61C368.852 894.47 381.727 913.55 388.585 934.797C396.737 960.684 394.063 989.184 385.944 1014.73C384.868 1018.18 383.694 1021.56 382.487 1024.94C382.487 1025.31 382.944 1025.43 383.074 1025.09C394.03 998.562 402.215 969.969 396.085 941.345Z" fill="black"/>
<path d="M159.025 1058.7C99.6466 1058.7 68.2127 1056.98 52.2676 1051.01L59.6695 1033.46C78.3211 1040.44 136.722 1040.31 230.697 1039.3C300.119 1038.53 351.345 1032.35 383.301 1020.85L390.442 1038.5C355.878 1050.8 303.706 1057.31 230.925 1058.11C203.306 1058.48 179.503 1058.7 159.025 1058.7Z" fill="#DBDBDB"/>
<path d="M524.66 799.458C524.66 799.458 526.943 729.114 524.66 726.347C522.378 723.58 177.127 717.708 166.791 718.569C156.454 719.43 155.411 801.58 156.193 805.423C156.976 809.266 515.661 800.196 524.66 799.458Z" fill="#37474F"/>
<path d="M557.004 727.762C555.993 726.655 512.234 725.487 509.821 725.425C507.408 725.364 506.56 800.35 507.864 800.289C509.169 800.227 555.406 800.842 556.939 799.243C558.471 797.644 559.189 730.16 557.004 727.762Z" fill="#455A64"/>
<path d="M315.186 718.631C313.949 719.847 313.141 721.393 312.871 723.059C312.461 724.813 312.167 726.589 311.99 728.377C311.567 731.944 311.338 735.572 311.143 739.169C310.817 746.425 310.621 753.711 310.491 761.028C310.36 768.346 310.164 775.601 310.491 782.826C310.519 786.405 310.781 789.978 311.273 793.526C311.469 795.24 311.896 796.924 312.545 798.537C312.783 799.26 313.205 799.918 313.773 800.454C314.341 800.989 315.039 801.387 315.806 801.612C314.945 801.588 314.11 801.332 313.399 800.874C312.688 800.417 312.131 799.776 311.795 799.029C310.882 797.421 310.171 795.719 309.675 793.956C308.753 790.351 308.153 786.68 307.882 782.98C307.28 775.616 307.084 768.227 307.295 760.844C307.491 753.496 307.817 746.117 308.697 738.769C309.12 735.094 309.741 731.441 310.556 727.824C311.011 726.035 311.566 724.27 312.219 722.536C312.74 721.03 313.653 719.154 315.186 718.631Z" fill="#455A64"/>
<path d="M12.9808 708.237H339.025V517.127H12.9808V708.237Z" fill="#37474F"/>
<path d="M12.9809 708.237H248.539L248.539 517.127H12.9809L12.9809 708.237Z" fill="#263238"/>
<path d="M143.444 517.097H118.107V708.207H143.444V517.097Z" fill="#5CB79D"/>
<path d="M248.566 499.42H6.35547V517.098H248.566V499.42Z" fill="#37474F"/>
<path d="M346.33 499.42H248.539V517.098H346.33V499.42Z" fill="#263238"/>
<path d="M145.563 499.42H115.955V517.098H145.563V499.42Z" fill="#5CB79D"/>
<path d="M47.5119 500.219H285.516V360.699H47.5119L47.5119 500.219Z" fill="#37474F"/>
<path d="M47.5126 500.219H219.453L219.453 360.699H47.5126L47.5126 500.219Z" fill="#263238"/>
<path d="M142.723 360.73H124.234V500.25H142.723V360.73Z" fill="#5CB79D"/>
<path d="M219.451 347.816H42.6523V360.729H219.451V347.816Z" fill="#37474F"/>
<path d="M290.831 347.816H219.453V360.729H290.831V347.816Z" fill="#263238"/>
<path d="M144.287 347.816H122.668V360.729H144.287V347.816Z" fill="#5CB79D"/>
<path d="M976.536 977.747C1077.91 977.747 1136.61 1044.13 1136.61 1122.25C1136.61 1200.37 1082.22 1265.15 983.351 1265.15C873.952 1265.15 821.715 1183.12 821.715 1121.48C821.715 1059.84 873.952 977.747 976.536 977.747Z" fill="#37474F"/>
<path d="M960.952 977.747C1057.31 977.747 1113.13 1044.13 1113.13 1122.25C1113.13 1200.37 1061.42 1265.15 967.441 1265.15C863.455 1265.15 813.793 1183.12 813.793 1121.48C813.793 1059.84 863.455 977.747 960.952 977.747Z" fill="#263238"/>
<path d="M961.927 1033.86C1020.62 1033.86 1054.66 1074.32 1054.66 1121.91C1054.66 1169.5 1023.16 1209.01 965.873 1209.01C902.516 1209.01 872.256 1159.02 872.256 1121.45C872.256 1083.88 902.516 1033.86 961.927 1033.86Z" fill="#F0F0F0"/>
<path d="M812.552 651.391H772.673L745.348 613.574H792.074L812.552 651.391Z" fill="#5CB79D"/>
<path d="M745.348 613.574L761.358 635.711L772.673 651.391H812.552L801.759 631.468L792.042 613.574H745.348Z" fill="#5CB79D"/>
<path opacity="0.1" d="M745.348 613.574L761.358 635.711L801.759 631.468L792.042 613.574H745.348Z" fill="black"/>
<path d="M909.463 933.599L870.627 942.023L835.02 910.909L880.54 901.071L909.463 933.599Z" fill="#5CB79D"/>
<path d="M835.02 910.909L855.856 929.141L870.595 942.023L909.496 933.599L894.235 916.474L880.54 901.071L835.02 910.909Z" fill="#5CB79D"/>
<path opacity="0.1" d="M835.02 910.909L855.856 929.14L894.235 916.474L880.54 901.071L835.02 910.909Z" fill="black"/>
<path d="M1127.8 996.195L1090.08 1014.89C1090.08 1014.89 980.808 996.195 910.734 1010.34C840.66 1024.48 821.748 1059.78 821.748 1059.78H786.336C786.336 1059.78 816.726 957.979 868.279 921.024C919.832 884.069 1002.69 892.339 1048.5 915.613C1094.32 938.887 1127.8 996.195 1127.8 996.195Z" fill="#5CB79D"/>
<path opacity="0.1" d="M1086.1 1007.85C1078.79 1000.65 1070.87 994.03 1062.43 988.046C1054.06 981.911 1045.2 976.382 1035.95 971.505C1018.01 962.105 998.332 956.012 977.973 953.55C938.126 948.939 896.453 959.884 867.106 988.753C850.607 1005.11 838.868 1025.19 827.716 1045.45C827.553 1045.75 828.01 1046 828.173 1045.69C837.621 1027.88 849.552 1011.33 863.65 996.501C877.234 982.516 894.142 971.769 912.985 965.141C950.582 952.136 991.244 957.117 1027.37 972.828C1037.72 977.248 1047.7 982.387 1057.24 988.2C1067 994.394 1076.41 1001.05 1085.45 1008.15C1085.51 1008.2 1085.58 1008.24 1085.66 1008.25C1085.74 1008.26 1085.81 1008.24 1085.89 1008.21C1085.96 1008.18 1086.01 1008.12 1086.05 1008.06C1086.09 1007.99 1086.11 1007.92 1086.1 1007.85Z" fill="black"/>
<path d="M671.494 631.038C670.908 632.329 592.16 645.98 592.16 645.98C592.16 645.98 579.117 637.679 587.171 627.164L666.179 611.085C669.217 613.434 671.373 616.642 672.33 620.234C673.287 623.827 672.994 627.614 671.494 631.038V631.038Z" fill="#263238"/>
<path d="M836.779 535.053V623.137C836.779 623.137 786.335 618.987 772.9 618.556C759.466 618.126 699.761 625.412 699.761 625.412L695.131 605.674C695.131 605.674 741.173 590.517 760.738 578.68C780.302 566.843 802.834 544.215 814.932 539.204C821.778 536.254 829.255 534.833 836.779 535.053V535.053Z" fill="#5CB79D"/>
<path d="M699.955 603.183C702.954 606.091 705.216 609.601 706.572 613.451C707.927 617.3 708.34 621.389 707.781 625.411C707.781 625.411 670.184 631.898 669.728 631.898C670.04 627.728 668.968 623.569 666.66 619.999C664.352 616.429 660.922 613.625 656.848 611.976L699.955 603.183Z" fill="#DBDBDB"/>
<path d="M837.267 623.136C850.918 623.136 861.984 603.425 861.984 579.11C861.984 554.795 850.918 535.083 837.267 535.083C823.617 535.083 812.551 554.795 812.551 579.11C812.551 603.425 823.617 623.136 837.267 623.136Z" fill="#DBDBDB"/>
<path d="M838.801 618.401C850.489 618.401 859.963 600.81 859.963 579.11C859.963 557.409 850.489 539.818 838.801 539.818C827.113 539.818 817.639 557.409 817.639 579.11C817.639 600.81 827.113 618.401 838.801 618.401Z" fill="white"/>
<path d="M845.225 651.514C853.442 662.859 886.343 817.136 892.8 824.884C899.256 832.631 911.614 833.185 911.614 833.185L933.364 884.16C933.364 884.16 879.333 900.239 849.334 923.482C810.563 953.52 774.727 1053.1 774.727 1053.1C768.858 1056.98 696.012 1085.23 676.023 1086.34C676.023 1086.34 768.923 990.168 776.488 857.073C779.422 805.514 745.771 732.895 743.587 696.924C741.174 658.308 753.565 651.514 775.314 651.514H845.225Z" fill="#5CB79D"/>
<path d="M671.557 1097.31L657.014 1084.34C738.533 1002.99 768.597 874.814 766.217 839.827C764.978 821.903 758.88 801.857 752.391 780.612C745.478 757.953 737.653 732.281 734.327 704.396C731.229 678.509 734.327 661.783 743.685 651.791C753.043 641.799 765.891 641.83 774.434 641.861H852.04V660.738H774.401C766.934 660.738 761.848 660.984 758.619 664.397C755.391 667.809 751.185 676.695 754.25 702.305C757.511 728.592 764.652 752.389 771.662 775.386C778.445 797.645 784.705 818.644 786.205 838.597C788.749 875.952 757.478 1011.94 671.557 1097.31Z" fill="#DBDBDB"/>
<path d="M893.192 866.974C897.757 882.839 912.137 892.923 925.311 889.541C938.484 886.159 945.495 870.572 940.897 854.738C936.3 838.904 921.92 828.759 908.746 832.141C895.573 835.522 888.595 851.141 893.192 866.974Z" fill="#DBDBDB"/>
<path d="M898.08 865.712C902.156 879.855 914.613 888.955 925.895 886.065C937.177 883.175 942.981 869.371 938.938 855.321C934.895 841.27 922.406 832.078 911.156 834.968C899.906 837.858 894.004 851.57 898.08 865.712Z" fill="white"/>
<path opacity="0.1" d="M835.507 864.423C831.887 848.466 827.974 832.571 824.583 816.584C821.192 800.596 818.062 784.578 815.42 768.499C812.844 753.526 810.073 738.4 809.062 723.242C808.051 707.409 809.062 691.422 817.214 677.125C817.231 677.097 817.242 677.066 817.246 677.034C817.251 677.001 817.248 676.968 817.239 676.937C817.23 676.906 817.215 676.876 817.194 676.85C817.172 676.825 817.146 676.803 817.116 676.787C817.086 676.771 817.053 676.76 817.019 676.756C816.985 676.752 816.95 676.755 816.916 676.763C816.883 676.772 816.852 676.786 816.825 676.806C816.797 676.826 816.774 676.851 816.757 676.879C808.377 688.409 805.638 702.275 805.182 716.017C805.225 731.169 806.643 746.289 809.421 761.212C814.178 793.982 820.708 826.501 828.985 858.643C833.713 876.813 839.811 894.676 846.333 912.323C846.333 912.38 846.357 912.435 846.399 912.475C846.442 912.516 846.5 912.538 846.561 912.538C846.621 912.538 846.679 912.516 846.722 912.475C846.765 912.435 846.789 912.38 846.789 912.323C842.898 896.274 839.137 880.308 835.507 864.423Z" fill="black"/>
<path opacity="0.1" d="M533.656 980.482V1045.05H475.223V996.162C475.223 996.162 442.615 980.636 436.094 924.158C430.224 872.998 473.527 804.714 481.745 792.324L518.95 791.187V803.761C518.95 803.761 494.462 850.063 491.494 873.829C482.658 945.433 533.656 980.482 533.656 980.482Z" fill="black"/>
<path d="M680.625 1060.14C672.734 1062.54 445.491 1053.99 436.98 1048.8C435.969 1048.21 431.926 1006.99 431.926 1006.99L458.208 848.68L607.388 850.556L578.595 985.833C578.595 985.833 611.431 1000.07 638.561 1012.52C655.256 1020.18 669.766 1027.15 673.092 1029.68C681.799 1036.32 688.516 1057.75 680.625 1060.14Z" fill="#F7A9A0"/>
<path d="M680.651 1060.14C672.727 1062.54 445.484 1053.99 437.006 1048.8C435.963 1048.21 431.887 1007.02 431.887 1007.02L440.006 958.224L583.121 964.373L578.589 985.648C578.589 985.648 611.425 999.914 638.554 1012.33C655.217 1019.99 669.76 1026.97 673.086 1029.49C681.792 1036.35 688.509 1057.74 680.651 1060.14Z" fill="#EBEBEB"/>
<path d="M680.489 1060.42C672.468 1062.79 443.724 1057.74 435.149 1052.33C431.888 1050.33 430.714 1018.88 430.453 980.82V979.621L578.036 981.312V983.679C578.036 983.679 664.674 1022.51 673.446 1029.4C682.217 1036.28 688.543 1058.05 680.489 1060.42Z" fill="#F0F0F0"/>
<path d="M678.11 1051.96C639.6 1050.24 483.996 1046.65 445.78 1047.69C445.454 1047.69 445.454 1047.91 445.78 1047.91C483.931 1050.43 639.535 1052.83 678.11 1052.58C678.925 1052.55 678.925 1052 678.11 1051.96Z" fill="#263238"/>
<path d="M590.329 984.327C575.231 981.252 556.612 983.128 544.678 993.058C544.189 993.458 544.678 994.042 545.297 993.919C559.905 989.822 574.936 987.214 590.133 986.141C590.366 986.129 590.588 986.04 590.757 985.888C590.927 985.736 591.033 985.532 591.056 985.313C591.08 985.094 591.02 984.874 590.886 984.693C590.753 984.512 590.555 984.382 590.329 984.327V984.327Z" fill="#263238"/>
<path d="M601.123 990.813C586.026 987.739 567.407 989.583 555.472 999.514C555.016 999.913 555.472 1000.53 556.092 1000.37C570.71 996.275 585.752 993.667 600.96 992.596C601.084 992.606 601.209 992.593 601.328 992.558C601.447 992.522 601.557 992.465 601.653 992.389C601.748 992.314 601.827 992.221 601.884 992.117C601.941 992.013 601.977 991.899 601.987 991.781C601.998 991.664 601.984 991.547 601.946 991.434C601.909 991.322 601.848 991.218 601.768 991.129C601.688 991.039 601.589 990.964 601.479 990.91C601.368 990.856 601.247 990.823 601.123 990.813V990.813Z" fill="#263238"/>
<path d="M611.918 997.27C596.821 994.196 578.202 996.041 566.267 1006C565.811 1006.37 566.267 1006.99 566.887 1006.83C581.499 1002.76 596.528 1000.16 611.722 999.084C611.956 999.073 612.177 998.983 612.347 998.831C612.516 998.68 612.622 998.476 612.646 998.256C612.669 998.037 612.609 997.817 612.475 997.636C612.342 997.456 612.144 997.326 611.918 997.27V997.27Z" fill="#263238"/>
<path d="M591.175 965.388L424.647 958.224C424.647 958.224 482.232 737.876 476.102 730.713C469.581 722.996 250 779.904 201.773 723.518C152.405 665.749 201.773 569.056 201.773 569.056H370.584C370.584 569.056 370.584 586.765 359.106 613.267C359.106 613.267 550.513 579.848 600.957 604.997C610.902 609.978 646.608 637.771 647.195 664.119C650.129 780.642 591.175 965.388 591.175 965.388Z" fill="#455A64"/>
<path d="M592.778 936.948C573.018 934.611 553.192 933.166 533.334 931.783C513.476 930.399 493.65 929.262 473.76 928.524C462.575 928.124 451.358 928.217 440.141 927.817C440.063 927.817 439.989 927.846 439.934 927.898C439.879 927.95 439.848 928.02 439.848 928.094C439.848 928.167 439.879 928.237 439.934 928.289C439.989 928.341 440.063 928.37 440.141 928.37C450.119 929.047 460.064 930.215 470.042 930.953C480.02 931.691 489.607 932.367 499.585 932.982C519.411 934.243 539.269 935.257 559.127 936.425C570.344 937.071 581.528 937.409 592.745 937.655C592.827 937.636 592.9 937.592 592.954 937.531C593.007 937.469 593.038 937.393 593.042 937.313C593.046 937.234 593.022 937.155 592.974 937.089C592.927 937.023 592.858 936.974 592.778 936.948V936.948Z" fill="#263238"/>
<path d="M272.373 582.369C272.152 583.017 271.868 583.645 271.525 584.244C271.488 584.288 271.468 584.342 271.468 584.398C271.468 584.454 271.488 584.508 271.525 584.552C269.569 590.301 268.754 596.388 266.862 602.168C265.066 608.304 261.082 613.668 255.58 617.356C244.037 624.92 230.179 628.332 216.744 631.468C216.664 631.491 216.593 631.538 216.542 631.601C216.492 631.665 216.465 631.742 216.465 631.822C216.465 631.901 216.492 631.979 216.542 632.042C216.593 632.106 216.664 632.153 216.744 632.175C224.489 632.216 232.192 631.106 239.57 628.886C246.502 627.076 253.038 624.12 258.874 620.154C264.354 616.243 268.263 610.693 269.96 604.413C270.78 601.074 271.423 597.698 271.884 594.298C272.639 590.389 273.086 586.432 273.221 582.461C273.173 582.401 273.113 582.35 273.043 582.313C272.974 582.275 272.897 582.251 272.818 582.243C272.739 582.234 272.658 582.241 272.582 582.262C272.505 582.284 272.434 582.32 272.373 582.369V582.369Z" fill="#263238"/>
<path d="M386.273 605.397C377.09 607.895 368.146 611.114 359.534 615.02L359.11 615.205C359.287 614.704 359.418 614.19 359.502 613.668C359.502 613.053 359.697 612.468 359.828 611.854C359.958 611.239 359.828 610.593 360.023 609.947V608.964C361.133 608.896 362.216 608.612 363.203 608.131C364.191 607.649 365.062 606.98 365.762 606.166C367.563 603.807 368.778 601.096 369.317 598.234C370.327 594.667 371.273 591.039 372.088 587.411C372.903 583.783 373.784 579.325 374.468 575.113C375.297 571.129 375.787 567.089 375.936 563.031C375.936 562.884 375.874 562.743 375.764 562.639C375.654 562.536 375.505 562.477 375.349 562.477C375.193 562.477 375.044 562.536 374.934 562.639C374.824 562.743 374.762 562.884 374.762 563.031C373.751 566.751 373.295 570.594 372.545 574.345C371.795 578.096 370.947 581.877 370.034 585.628C369.121 589.379 368.143 593.13 367.034 596.819C365.925 600.509 365.077 604.905 361.034 606.043C352.687 608.287 356.436 590.67 356.795 587.165C357.643 579.172 358.165 570.994 359.665 563.061C359.665 562.754 359.175 562.6 359.11 563.061C357.284 570.348 355.23 577.512 353.86 584.89C353.176 588.518 352.687 592.177 352.263 595.805C351.586 598.948 351.857 602.207 353.045 605.213C353.563 606.228 354.335 607.109 355.295 607.778C356.256 608.448 357.375 608.887 358.556 609.056L358.295 609.886C358.099 610.47 357.904 611.054 357.741 611.638C357.578 612.222 357.447 612.837 357.317 613.422C357.03 614.115 356.929 614.865 357.023 615.604C357.096 615.812 357.247 615.987 357.447 616.096C353.893 617.541 350.306 618.986 346.785 620.554C342.357 622.194 338.073 624.157 333.97 626.427C333.481 626.642 333.97 627.257 334.328 627.164C338.919 625.95 343.41 624.419 347.763 622.583C352.23 620.985 356.632 619.263 361.067 617.511C369.851 614.47 378.348 610.736 386.468 606.35C386.602 606.326 386.72 606.252 386.797 606.145C386.873 606.039 386.902 605.908 386.876 605.781C386.85 605.655 386.772 605.544 386.659 605.471C386.545 605.399 386.407 605.373 386.273 605.397V605.397Z" fill="#263238"/>
<path d="M642.24 644.103C636.463 628.092 624.775 614.572 609.306 606.011C593.426 597.74 574.905 595.527 557.134 595.004C536.46 594.42 515.657 595.434 495.016 596.664C473.038 597.955 451.061 599.923 429.214 602.813C407.366 605.703 385.911 609.239 364.422 613.605C359.27 614.65 354.151 615.941 349.031 617.294C348.64 617.294 348.705 618.093 349.031 618.032C370.389 615.203 391.65 611.883 413.008 609.116C434.366 606.349 455.952 604.166 477.538 602.629C499.125 601.091 520.483 600.231 541.971 599.923C559.579 599.677 577.84 599.923 594.567 605.273C602.839 607.765 610.499 611.789 617.099 617.109C623.582 622.575 628.895 629.16 632.751 636.509C641.555 652.835 642.37 671.559 643.251 689.637C645.794 743.286 604.871 913.766 597.6 941.16C597.581 941.398 597.652 941.634 597.8 941.828C597.947 942.022 598.163 942.16 598.408 942.219C598.653 942.278 598.913 942.253 599.141 942.149C599.368 942.046 599.55 941.869 599.654 941.652C607.839 910.723 648.566 749.681 648.566 701.289C648.598 681.981 649.348 662.304 642.24 644.103Z" fill="#263238"/>
<path d="M500.56 712.143C470.724 713.126 441.051 715.74 411.378 718.691C381.705 721.643 351.804 724.84 321.935 726.808C307.066 727.761 292.165 728.376 277.263 728.468C264.873 729.015 252.47 727.708 240.514 724.594C228.371 720.895 218.165 712.997 211.95 702.489C205.426 691.477 201.187 679.394 199.461 666.886C195.548 641.46 199.461 615.481 204.058 590.393C204.645 587.319 205.2 584.244 205.787 580.954C205.787 580.647 205.363 580.524 205.298 580.954C199.07 606.257 193.494 632.298 195.515 658.431C196.256 671.203 199.334 683.758 204.613 695.54C209.215 706.691 217.401 716.205 228.025 722.75C238.966 728.269 251.16 731.212 263.568 731.327C277.928 731.835 292.307 731.619 306.642 730.682C337.228 729.175 367.684 725.978 398.107 722.78C428.53 719.583 458.757 716.447 489.213 714.91C492.474 714.756 495.963 714.602 499.321 714.51C494.724 742.027 455.594 906.88 453.41 919.916C453.181 921.207 454.421 921.607 454.747 920.316C461.268 894.613 499.419 729.698 501.93 713.557C501.974 713.373 501.97 713.183 501.919 713.001C501.867 712.819 501.77 712.652 501.636 712.513C501.502 712.374 501.334 712.268 501.146 712.204C500.959 712.139 500.758 712.118 500.56 712.143Z" fill="#263238"/>
<path d="M192.092 588.703C192.549 589.318 415.618 605.49 417.966 603.522C421.227 600.724 399.151 385.234 379.228 353.628C374.957 346.895 358.62 343.359 344.305 343.482C340.578 343.465 336.857 343.764 333.186 344.374H332.827C329.865 344.849 327.009 345.795 324.382 347.172C281.535 372.382 235.819 471.934 224.309 502.064C205.233 551.748 190.429 586.49 192.092 588.703Z" fill="#5CB79D"/>
<path d="M368.957 381.113C357.87 381.113 339.154 364.234 335.436 348.401C335.176 347.294 339.773 337.855 344.73 326.111C347.729 318.947 350.892 310.953 353.208 303.452C353.664 301.884 399.608 328.57 399.608 328.57C393.869 337.181 389.269 346.422 385.913 356.087C385.611 357.093 385.404 358.121 385.294 359.161C385.306 359.335 385.306 359.51 385.294 359.684C384.413 365.925 380.794 381.267 368.957 381.113Z" fill="#F7A9A0"/>
<path d="M385.292 359.254C385.305 359.428 385.305 359.602 385.292 359.776C383.533 359.535 381.799 359.154 380.108 358.639C350.761 349.969 353.826 313.136 355.065 303.944C363.575 307.571 399.705 328.539 399.705 328.539C393.97 337.157 389.361 346.396 385.977 356.056C385.66 357.103 385.431 358.172 385.292 359.254V359.254Z" fill="#263238"/>
<path d="M357.285 245.836C349.231 262.376 351.709 313.474 363.089 326.141C379.621 344.588 410.273 350.153 427.848 330.661C444.869 311.753 440.402 245.313 427.359 233.353C408.088 215.767 369.219 221.455 357.285 245.836Z" fill="#F7A9A0"/>
<path d="M404.502 282.237C404.502 282.237 404.241 282.421 404.241 282.575C404.502 285.988 404.241 289.985 400.98 291.245C400.98 291.245 400.98 291.46 400.98 291.43C404.991 290.753 405.317 285.465 404.502 282.237Z" fill="#263238"/>
<path d="M401.076 278.795C395.207 278.58 395.24 289.709 400.685 289.894C406.131 290.078 406.033 278.949 401.076 278.795Z" fill="#263238"/>
<path d="M425.63 282.792C425.63 282.792 425.924 282.945 425.891 283.099C425.891 286.512 426.282 290.478 429.576 291.615C429.576 291.615 429.576 291.831 429.576 291.8C425.532 291.277 424.88 286.02 425.63 282.792Z" fill="#263238"/>
<path d="M428.892 279.194C434.729 278.764 435.218 289.863 429.772 290.232C424.327 290.601 423.968 279.502 428.892 279.194Z" fill="#263238"/>
<path d="M396.445 273.721C397.984 273.287 399.498 272.774 400.978 272.184C402.665 271.878 404.193 271.044 405.314 269.817C405.592 269.366 405.704 268.841 405.634 268.324C405.563 267.807 405.313 267.327 404.923 266.957C404.035 266.345 402.989 265.967 401.894 265.864C400.798 265.762 399.694 265.937 398.695 266.373C396.521 266.95 394.658 268.278 393.478 270.093C393.24 270.521 393.138 271.003 393.182 271.483C393.226 271.964 393.416 272.422 393.728 272.804C394.041 273.186 394.463 273.475 394.944 273.638C395.426 273.8 395.947 273.829 396.445 273.721Z" fill="#263238"/>
<path d="M433.421 273.567C431.833 273.279 430.265 272.899 428.726 272.43C427.018 272.267 425.42 271.563 424.193 270.431C423.862 270.02 423.684 269.518 423.684 269.002C423.684 268.485 423.862 267.983 424.193 267.572C425.021 266.884 426.03 266.418 427.114 266.224C428.198 266.029 429.318 266.112 430.356 266.465C432.571 266.858 434.55 268.021 435.899 269.724C436.173 270.118 436.323 270.577 436.331 271.047C436.34 271.518 436.207 271.981 435.947 272.384C435.688 272.786 435.313 273.111 434.866 273.32C434.419 273.53 433.918 273.615 433.421 273.567V273.567Z" fill="#263238"/>
<path d="M401.175 314.181C402.056 314.98 402.936 316.087 404.436 316.21C405.792 316.172 407.124 315.868 408.349 315.319C408.349 315.319 408.577 315.319 408.512 315.503C407.991 316.18 407.286 316.712 406.471 317.042C405.656 317.372 404.761 317.488 403.882 317.379C403.131 317.198 402.455 316.808 401.943 316.26C401.431 315.711 401.106 315.029 401.012 314.304C400.784 314.15 401.045 314.058 401.175 314.181Z" fill="#263238"/>
<path d="M416.104 307.91C414.572 309.816 412.537 311.31 410.202 312.245C408.924 312.713 407.524 312.799 406.192 312.491C403.289 311.784 403.192 309.417 403.713 307.08C404.024 305.944 404.462 304.841 405.018 303.791C408.151 306.247 412.036 307.691 416.104 307.91V307.91Z" fill="#263238"/>
<path d="M410.202 312.244C408.924 312.712 407.524 312.798 406.192 312.49C403.289 311.783 403.192 309.416 403.713 307.079C405.254 307.126 406.732 307.661 407.91 308.599C409.087 309.536 409.895 310.82 410.202 312.244V312.244Z" fill="#FF9BBC"/>
<path d="M435.15 250.232C433.161 245.866 430.846 241.469 428.042 240.578C425.237 239.686 423.444 246.143 417.085 246.542C408.542 247.096 404.401 239.686 392.434 238.887C375.217 237.78 367.652 251.185 367.261 274.305C366.902 294.842 353.729 296.779 353.729 296.779C353.729 296.779 345.74 251.492 359.272 236.489C372.804 221.485 403.879 214.967 424.748 229.171C432.346 234.367 435.15 250.232 435.15 250.232Z" fill="#263238"/>
<path d="M364.715 288.725C364.715 288.725 354.704 271.293 346.455 274.459C338.205 277.626 344.335 302.13 352.976 306.219C354.059 306.832 355.262 307.232 356.513 307.396C357.765 307.559 359.038 307.482 360.257 307.168C361.475 306.855 362.614 306.313 363.604 305.574C364.595 304.834 365.416 303.914 366.019 302.867L364.715 288.725Z" fill="#F7A9A0"/>
<path d="M348.412 281.377V281.592C354.51 284.667 357.184 290.816 358.847 296.749C358.549 296.105 358.107 295.529 357.55 295.062C356.994 294.595 356.336 294.247 355.623 294.042C354.91 293.837 354.159 293.781 353.42 293.877C352.682 293.973 351.975 294.219 351.347 294.597C351.151 294.597 351.347 294.966 351.347 294.935C352.513 294.725 353.72 294.856 354.805 295.313C355.889 295.769 356.799 296.528 357.412 297.487C358.4 299.116 359.209 300.837 359.825 302.622C360.053 303.175 361.129 303.021 360.966 302.376V302.222C362.075 294.536 357.053 283.099 348.412 281.377Z" fill="#263238"/>
<path d="M433.092 236.735C428.038 235.598 400.028 236.397 387.441 241.501C374.855 246.604 352.486 263.668 351.345 264.559C350.203 265.451 344.432 221.916 381.898 213.984C422.69 205.314 433.092 236.735 433.092 236.735Z" fill="#5CB79D"/>
<path d="M353.5 262.776C353.5 262.776 378.249 232.031 392.01 224.96C405.77 217.889 436.584 213.953 455.66 221.885C470.496 228.034 434.237 246.051 434.237 246.051C433.893 244.576 433.19 243.196 432.183 242.022C431.175 240.848 429.891 239.911 428.433 239.287C419.172 235.813 401.564 238.488 391.521 241.654C378.869 245.682 353.5 262.776 353.5 262.776Z" fill="#5CB79D"/>
<path opacity="0.2" d="M353.5 262.93C353.5 262.93 378.249 232.001 392.01 224.961C405.77 217.92 436.584 213.954 455.66 221.886C470.496 228.035 434.237 246.052 434.237 246.052C433.893 244.576 433.19 243.197 432.183 242.023C431.175 240.849 429.891 239.912 428.433 239.288C419.172 235.814 401.564 238.488 391.521 241.655C378.869 245.683 353.5 262.93 353.5 262.93Z" fill="black"/>
<path d="M310.265 404.664C308.179 465.293 331.917 578.833 349.395 586.55C405.806 611.392 500.727 612.96 533.237 613.237C547.258 613.237 568.779 519.219 554.888 513.931C545.66 510.426 406.491 510.395 404.045 505.722C401.6 501.049 368.438 433.533 354.123 396.147C335.112 346.433 311.472 369.061 310.265 404.664Z" fill="#F7A9A0"/>
<path d="M539.951 512.669C539.951 512.669 582.569 515.129 610.318 517.958C625.84 519.526 652.154 524.475 662.947 530.532C679.251 539.756 740.684 587.349 728.75 601.676C717.924 614.619 670.578 567.303 670.578 567.303C670.578 567.303 722.75 611.053 706.772 624.427C690.794 637.801 644.817 577.572 644.817 577.572C644.817 577.572 697.446 623.689 678.566 635.003C664.317 643.519 619.416 591.222 619.416 591.222C619.416 591.222 664.382 631.191 650.1 640.414C634.318 650.775 589.678 604.935 589.678 604.935C549.146 623.013 522.017 615.972 503.333 608.808C498.735 607.21 539.951 512.669 539.951 512.669Z" fill="#F7A9A0"/>
<path d="M653.523 551.07C659.849 555.989 666.305 560.939 672.142 566.443C677.978 571.946 683.652 577.541 688.935 583.475C696.003 591.108 702.129 599.473 707.195 608.409C696.989 593.037 676.381 573.36 670.511 567.918C664.642 562.476 659.131 556.758 653.294 551.316C653.131 551.132 653.36 550.947 653.523 551.07Z" fill="#263238"/>
<path d="M632.293 570.623C640.087 577.233 648.076 583.567 655.575 590.515C663.075 597.464 669.466 604.627 676.412 612.037C676.933 612.59 676.412 612.682 675.857 612.037C668.618 604.935 661.347 598.878 654.043 591.837C646.739 584.797 639.663 577.479 632.098 570.716C631.967 570.685 632.163 570.531 632.293 570.623Z" fill="#263238"/>
<path d="M610.742 584.305C622.971 594.195 634.085 605.25 643.904 617.295C644.393 617.879 643.741 617.94 643.186 617.295C632.393 606.134 624.013 597.31 610.383 584.674C610.285 584.52 610.742 584.121 610.742 584.305Z" fill="#263238"/>
<path d="M657.566 525.675C647.435 521.595 636.682 519.052 625.708 518.143C602.035 515.407 578.231 513.623 554.428 511.994C530.624 510.364 506.462 508.919 482.462 508.089C468.963 507.597 455.463 507.218 441.964 506.952C428.464 506.706 425.66 507.167 412.095 507.321C411.736 507.321 411.769 507.782 412.095 507.813C435.735 508.981 448.779 509.903 472.419 511.072C496.06 512.24 519.635 513.562 543.21 515.099C566.786 516.636 589.97 518.174 613.252 520.633C624.513 521.354 635.679 523.052 646.61 525.706C657.317 529.414 667.25 534.867 675.956 541.816C685.934 549.226 723.335 583.138 726.759 587.534C727.183 588.057 727.346 587.903 727.118 587.227C724.412 578.034 679.445 535.299 657.566 525.675Z" fill="#263238"/>
<path d="M377.596 443.802L308.239 480.88C308.239 480.88 305.305 398.238 311.728 373.703C318.967 346.033 332.336 355.625 347.401 378.622C362.466 401.62 377.596 443.802 377.596 443.802Z" fill="#5CB79D"/>
<path opacity="0.1" d="M377.596 443.802L308.239 480.88C308.239 480.88 305.305 398.238 311.728 373.703C318.967 346.033 332.336 355.625 347.401 378.622C362.466 401.62 377.596 443.802 377.596 443.802Z" fill="black"/>
<path d="M368.045 433.225C358.556 436.822 331.622 451.395 327.155 453.763C324.807 454.992 315.612 460.373 313.264 461.603C312.971 461.756 313.264 462.156 313.558 462.002C318.09 459.666 322.851 457.759 327.416 455.454C331.981 453.148 360.024 439.251 368.241 433.533C368.272 433.504 368.292 433.465 368.297 433.424C368.303 433.383 368.294 433.342 368.271 433.306C368.249 433.271 368.214 433.244 368.173 433.229C368.132 433.214 368.087 433.213 368.045 433.225V433.225Z" fill="#263238"/>
<path d="M366.671 413.209C365.595 409.366 364.487 405.554 363.248 401.742C363.932 404.57 364.715 407.399 365.497 410.227C362.987 404.878 360.411 399.589 357.606 394.455H357.443C360.476 402.787 363.965 410.965 367.226 419.235C370.486 427.506 373.747 435.407 377.008 443.493C375.541 444.569 374.106 445.615 372.606 446.568C372.545 446.604 372.503 446.662 372.487 446.728C372.472 446.795 372.485 446.864 372.524 446.921C372.563 446.978 372.625 447.018 372.695 447.033C372.765 447.047 372.839 447.035 372.899 446.998C374.693 446.137 376.486 445.276 378.345 444.508C378.56 444.431 378.736 444.281 378.839 444.087C378.942 443.894 378.963 443.67 378.899 443.462C375.247 433.409 371.204 423.202 366.671 413.209Z" fill="#263238"/>
<g opacity="0.5">
<path opacity="0.5" d="M1141.01 376.625C1141.01 379.479 1140.11 382.268 1138.43 384.639C1136.75 387.011 1134.36 388.86 1131.56 389.95C1128.77 391.04 1125.69 391.324 1122.72 390.765C1119.76 390.206 1117.03 388.83 1114.89 386.81C1112.76 384.791 1111.3 382.219 1110.72 379.42C1110.13 376.62 1110.44 373.72 1111.6 371.086C1112.76 368.452 1114.73 366.202 1117.25 364.621C1119.77 363.041 1122.73 362.2 1125.75 362.206C1127.76 362.206 1129.75 362.579 1131.6 363.304C1133.45 364.029 1135.14 365.092 1136.55 366.431C1137.97 367.771 1139.09 369.36 1139.86 371.11C1140.62 372.859 1141.02 374.733 1141.01 376.625Z" fill="#5CB79D"/>
<path opacity="0.5" d="M1125.75 401.068C1120.58 401.098 1115.51 399.678 1111.2 396.987C1106.88 394.296 1103.52 390.456 1101.52 385.955C1099.53 381.455 1099 376.497 1100 371.711C1101 366.926 1103.49 362.529 1107.14 359.08C1110.8 355.631 1115.47 353.286 1120.54 352.342C1125.62 351.398 1130.87 351.898 1135.65 353.778C1140.42 355.659 1144.49 358.835 1147.35 362.903C1150.2 366.972 1151.71 371.748 1151.68 376.626C1151.63 383.096 1148.89 389.289 1144.04 393.864C1139.18 398.439 1132.61 401.027 1125.75 401.068V401.068ZM1125.75 355.258C1121.28 355.258 1116.9 356.507 1113.18 358.849C1109.46 361.19 1106.55 364.518 1104.83 368.413C1103.11 372.309 1102.65 376.597 1103.51 380.738C1104.38 384.879 1106.52 388.686 1109.67 391.68C1112.82 394.675 1116.85 396.722 1121.23 397.564C1125.62 398.405 1130.17 398.004 1134.31 396.41C1138.46 394.817 1142.01 392.102 1144.52 388.608C1147.03 385.115 1148.38 380.999 1148.42 376.779C1148.44 373.96 1147.87 371.165 1146.74 368.555C1145.61 365.945 1143.94 363.571 1141.84 361.571C1139.73 359.57 1137.22 357.982 1134.46 356.899C1131.7 355.816 1128.74 355.258 1125.75 355.258Z" fill="#5CB79D"/>
<path opacity="0.5" d="M205.883 238.736C205.889 241.589 204.998 244.38 203.321 246.755C201.645 249.13 199.259 250.983 196.465 252.079C193.671 253.175 190.595 253.465 187.626 252.912C184.658 252.36 181.93 250.989 179.788 248.973C177.646 246.958 176.186 244.389 175.593 241.591C175 238.793 175.301 235.892 176.458 233.256C177.614 230.619 179.575 228.365 182.09 226.779C184.606 225.194 187.564 224.347 190.59 224.347C194.64 224.347 198.525 225.862 201.392 228.56C204.259 231.257 205.874 234.917 205.883 238.736Z" fill="#5CB79D"/>
<path opacity="0.5" d="M190.593 263.208C185.427 263.238 180.367 261.822 176.056 259.138C171.745 256.454 168.376 252.623 166.377 248.131C164.377 243.64 163.837 238.69 164.825 233.908C165.813 229.127 168.285 224.73 171.926 221.275C175.568 217.82 180.216 215.462 185.281 214.501C190.345 213.539 195.599 214.017 200.375 215.874C205.151 217.731 209.235 220.883 212.108 224.931C214.982 228.979 216.516 233.741 216.516 238.612C216.516 245.109 213.79 251.342 208.933 255.95C204.076 260.558 197.483 263.167 190.593 263.208ZM190.593 217.367C186.065 217.337 181.629 218.577 177.851 220.93C174.072 223.283 171.122 226.643 169.374 230.582C167.626 234.52 167.16 238.86 168.036 243.049C168.911 247.238 171.089 251.087 174.291 254.106C177.493 257.125 181.575 259.178 186.017 260.003C190.46 260.829 195.063 260.39 199.24 258.742C203.418 257.094 206.981 254.312 209.477 250.749C211.972 247.186 213.288 243.004 213.255 238.735C213.213 233.08 210.811 227.669 206.571 223.67C202.33 219.672 196.59 217.408 190.593 217.367V217.367Z" fill="#5CB79D"/>
<path opacity="0.5" d="M767.587 452.749H569.985V164.732H309.221V240.272H214.887V237.197H305.96V161.657H573.245V449.675H764.327V369.892H987.983V292.2H1127.38V353.72H1124.12V295.274H991.244V372.966H767.587V452.749Z" fill="#5CB79D"/>
</g>
<path d="M244.884 88.8847C242.178 63.305 223.461 37.8175 190.593 37.8175C157.724 37.8175 139.04 63.4279 136.333 88.8847C132.192 128.392 160.43 164.179 190.593 196.83C220.755 164.302 249.026 128.515 244.884 88.8847ZM190.593 117.293C184.709 117.293 178.959 115.648 174.068 112.565C169.176 109.483 165.365 105.102 163.115 99.9766C160.865 94.8513 160.278 89.212 161.428 83.7721C162.578 78.3322 165.414 73.3361 169.576 69.416C173.738 65.4958 179.04 62.8278 184.811 61.7493C190.582 60.6709 196.562 61.2306 201.995 63.3575C207.429 65.4845 212.071 69.0831 215.335 73.6982C218.599 78.3133 220.337 83.7374 220.331 89.2843C220.348 92.9754 219.591 96.6333 218.104 100.048C216.617 103.462 214.429 106.566 211.665 109.18C208.901 111.794 205.617 113.868 202.001 115.281C198.384 116.694 194.507 117.42 190.593 117.416V117.293Z" fill="#5CB79D"/>
</svg>
