<svg width="1539" height="1363" viewBox="0 0 1539 1363" fill="none" xmlns="http://www.w3.org/2000/svg">
<path d="M702.355 591.165H421.377V382.239H598.064L614.099 468.929L702.355 504.735V591.165Z" fill="#282C2E"/>
<path opacity="0.1" d="M702.355 591.165H421.377V382.239H598.064L614.099 468.929L702.355 504.735V591.165Z" fill="white"/>
<path opacity="0.1" d="M571.991 591.165H412.686V382.239H467.699L483.734 468.929L571.991 504.735V591.165Z" fill="white"/>
<path opacity="0.2" d="M592.673 422.086L587.936 396.404H486.426L491.162 422.086H592.673Z" fill="black"/>
<path opacity="0.2" d="M493.293 433.557L496.682 451.895H598.193L594.803 433.557H493.293Z" fill="black"/>
<path opacity="0.3" d="M483.736 468.929H614.101L702.357 504.735H571.993L483.736 468.929Z" fill="white"/>
<path d="M823.029 374.328C823.029 374.328 810.254 409.309 800.476 410.439C790.699 411.568 727.125 304.933 727.125 304.933C727.125 304.933 719.824 283.771 707.787 278.035C695.75 272.299 659.987 251.962 650.775 256.568C641.562 261.175 646.429 296.372 646.429 304.368C646.429 311.407 676.848 321.749 685.973 323.487C691.88 324.707 698.015 324.163 703.616 321.923C703.616 321.923 754.588 447.418 787.657 469.405C820.726 491.393 870.525 416.609 870.525 416.609L823.029 374.328Z" fill="#F8A58D"/>
<path d="M912.591 226.586C940.054 240.578 932.189 307.932 861.966 433.687L813.861 394.579C825.297 355.493 840.068 317.461 858.011 280.903C886.474 224.153 912.591 226.586 912.591 226.586Z" fill="#66C1A7"/>
<path opacity="0.4" d="M912.591 226.586C940.054 240.578 932.189 307.932 861.966 433.687L813.861 394.579C825.297 355.493 840.068 317.461 858.011 280.903C886.474 224.153 912.591 226.586 912.591 226.586Z" fill="white"/>
<path d="M1148.46 529.287H961.607C943.834 626.406 888.168 969.996 928.103 1276.13L991.286 1268.26C991.286 1268.26 985.42 861.839 1041.35 711.619C1047.78 792.009 1055.38 877.569 1062.03 923.109C1078.2 1035.13 1112.96 1280.04 1112.96 1280.04H1177.4C1177.4 1280.04 1164.37 1045.65 1158.11 935.493C1151.59 815.952 1148.72 553.708 1148.46 529.287Z" fill="#282C2E"/>
<path d="M899.203 227.542C918.541 223.197 1020.53 200.34 1102.83 203.556C1102.83 203.556 1129.3 474.751 1154.11 584.994L938.878 622.712C938.878 622.712 890.556 352.863 895.814 231.627C895.848 230.667 896.199 229.746 896.813 229.007C897.426 228.268 898.267 227.753 899.203 227.542V227.542Z" fill="#66C1A7"/>
<path opacity="0.6" d="M899.203 227.542C918.541 223.197 1020.53 200.34 1102.83 203.556C1102.83 203.556 1129.3 474.751 1154.11 584.994L938.878 622.712C938.878 622.712 890.556 352.863 895.814 231.627C895.848 230.667 896.199 229.746 896.813 229.007C897.426 228.268 898.267 227.753 899.203 227.542V227.542Z" fill="white"/>
<path d="M1083.63 199.906C1083.63 199.906 1058.99 303.5 1126.34 391.494L1142.99 501.997L1162.32 593.511L1055.25 621.756L1016.88 535.848L1013.01 630.707L927.799 643.135L918.543 534.5C918.543 534.5 903.812 448.723 900.031 401.619C900.031 401.619 887.256 292.463 907.158 222.85L935.186 216.809C935.186 216.809 936.751 283.337 979.336 336.699C979.336 336.699 1019.75 230.193 1056.42 200.036L1083.63 199.906Z" fill="#66C1A7"/>
<path opacity="0.2" d="M1083.63 199.906C1083.63 199.906 1058.99 303.5 1126.34 391.494L1142.99 501.997L1162.32 593.511L1055.25 621.756L1016.88 535.848L1013.01 630.707L927.799 643.135L918.543 534.5C918.543 534.5 903.812 448.723 900.031 401.619C900.031 401.619 887.256 292.463 907.158 222.85L935.186 216.809C935.186 216.809 936.751 283.337 979.336 336.699C979.336 336.699 1019.75 230.193 1056.42 200.036L1083.63 199.906Z" fill="black"/>
<path d="M805.605 392.147L814.644 384.89L869.614 431.385L860.793 447.159L805.605 392.147Z" fill="#66C1A7"/>
<path opacity="0.3" d="M805.605 392.147L814.644 384.89L869.614 431.385L860.793 447.159L805.605 392.147Z" fill="white"/>
<path d="M984.42 1329.45L948.092 1333.27L941.27 1254.88L977.598 1251.01L984.42 1329.45Z" fill="#F8A58D"/>
<path d="M1165.88 1326.8H1130.64L1127.73 1245.19H1162.97L1165.88 1326.8Z" fill="#F8A58D"/>
<path d="M1125.74 1322.84H1168.54C1169.24 1322.85 1169.93 1323.09 1170.48 1323.53C1171.03 1323.97 1171.42 1324.59 1171.58 1325.27L1178.49 1356.65C1178.64 1357.31 1178.65 1358 1178.53 1358.68C1178.41 1359.35 1178.15 1359.99 1177.78 1360.57C1177.41 1361.14 1176.93 1361.63 1176.36 1362.02C1175.8 1362.41 1175.16 1362.68 1174.49 1362.82C1174.12 1362.86 1173.74 1362.86 1173.36 1362.82C1159.5 1362.6 1149.42 1361.77 1132.04 1361.77C1121.3 1361.77 1089.02 1362.86 1074.2 1362.86C1059.38 1362.86 1057.51 1348.26 1063.55 1346.91C1090.71 1341 1111.14 1332.79 1119.83 1325.18C1121.43 1323.68 1123.54 1322.85 1125.74 1322.84V1322.84Z" fill="#282C2E"/>
<path d="M1114.09 1328.92C1111.7 1329.1 1109.33 1328.45 1107.35 1327.1C1106.72 1326.58 1106.22 1325.91 1105.91 1325.15C1105.6 1324.39 1105.48 1323.57 1105.57 1322.75C1105.57 1322.27 1105.7 1321.8 1105.95 1321.39C1106.21 1320.98 1106.57 1320.66 1107.01 1320.45C1110.92 1318.41 1122.3 1325.4 1123.56 1326.23C1123.7 1326.3 1123.82 1326.42 1123.89 1326.56C1123.96 1326.7 1123.98 1326.86 1123.95 1327.01C1123.93 1327.18 1123.86 1327.34 1123.75 1327.47C1123.65 1327.6 1123.51 1327.7 1123.35 1327.75C1120.31 1328.44 1117.21 1328.84 1114.09 1328.92V1328.92ZM1108.87 1321.58C1108.5 1321.57 1108.12 1321.66 1107.79 1321.84C1107.57 1321.84 1107.27 1322.15 1107.22 1322.8C1107.16 1323.35 1107.23 1323.91 1107.43 1324.43C1107.62 1324.95 1107.94 1325.42 1108.35 1325.8C1112.3 1327.61 1116.8 1327.84 1120.91 1326.45C1117.24 1324.08 1113.16 1322.43 1108.87 1321.58Z" fill="#66C1A7"/>
<path d="M1123.12 1327.67H1122.69C1119.08 1325.67 1112.04 1317.93 1112.74 1314.2C1112.87 1313.58 1113.21 1313.03 1113.7 1312.63C1114.19 1312.23 1114.8 1312.02 1115.43 1312.02C1116.07 1311.94 1116.71 1311.99 1117.32 1312.17C1117.94 1312.35 1118.51 1312.65 1119 1313.07C1123.08 1316.41 1123.91 1326.54 1123.95 1327.01C1123.96 1327.17 1123.92 1327.32 1123.85 1327.46C1123.79 1327.59 1123.69 1327.71 1123.56 1327.8C1123.4 1327.8 1123.25 1327.75 1123.12 1327.67V1327.67ZM1116.04 1313.37H1115.61C1114.56 1313.37 1114.48 1313.98 1114.39 1314.2C1113.96 1316.5 1118.43 1322.36 1122.08 1325.1C1121.78 1321.07 1120.26 1317.22 1117.74 1314.06C1117.26 1313.66 1116.67 1313.41 1116.04 1313.37V1313.37Z" fill="#66C1A7"/>
<path d="M944.227 1321.58H986.943C987.641 1321.6 988.313 1321.85 988.855 1322.29C989.397 1322.73 989.779 1323.34 989.942 1324.01L996.894 1355.39C997.178 1356.74 996.917 1358.14 996.168 1359.3C995.419 1360.45 994.243 1361.27 992.896 1361.56H991.767C977.904 1361.3 967.823 1360.47 950.441 1360.47C939.708 1360.47 907.377 1361.6 892.603 1361.6C877.828 1361.6 875.873 1346.96 881.956 1345.61C909.116 1339.7 929.539 1331.49 938.23 1323.88C939.862 1322.38 942.007 1321.55 944.227 1321.58V1321.58Z" fill="#282C2E"/>
<path d="M932.577 1327.79C930.181 1327.98 927.794 1327.35 925.798 1326.01C925.184 1325.48 924.706 1324.8 924.404 1324.05C924.102 1323.29 923.984 1322.48 924.059 1321.67C924.049 1321.18 924.178 1320.71 924.433 1320.3C924.688 1319.89 925.056 1319.57 925.493 1319.36C929.404 1317.32 940.79 1324.32 942.05 1325.14C942.185 1325.22 942.295 1325.33 942.365 1325.47C942.434 1325.61 942.461 1325.77 942.441 1325.93C942.42 1326.1 942.346 1326.26 942.23 1326.4C942.113 1326.53 941.959 1326.62 941.789 1326.66C938.771 1327.39 935.68 1327.77 932.577 1327.79ZM927.319 1320.49C926.957 1320.45 926.592 1320.53 926.276 1320.71C926.015 1320.71 925.754 1321.01 925.711 1321.71C925.655 1322.26 925.728 1322.82 925.924 1323.34C926.12 1323.86 926.434 1324.33 926.841 1324.71C930.804 1326.47 935.284 1326.69 939.399 1325.32C935.711 1322.96 931.613 1321.33 927.319 1320.49Z" fill="#66C1A7"/>
<path d="M941.574 1326.54H941.183C937.533 1324.58 930.537 1316.8 931.232 1313.07C931.362 1312.45 931.701 1311.89 932.192 1311.5C932.683 1311.1 933.295 1310.89 933.926 1310.89C934.556 1310.8 935.198 1310.86 935.807 1311.04C936.415 1311.23 936.974 1311.55 937.446 1311.98C941.53 1315.28 942.4 1325.41 942.443 1325.88C942.441 1326.04 942.405 1326.18 942.338 1326.32C942.27 1326.46 942.172 1326.57 942.052 1326.67C941.883 1326.67 941.717 1326.62 941.574 1326.54ZM934.491 1312.24H934.1C933.013 1312.24 932.927 1312.85 932.883 1313.07C932.449 1315.37 936.924 1321.23 940.574 1323.97C940.271 1319.94 938.756 1316.09 936.229 1312.93C935.737 1312.53 935.129 1312.28 934.491 1312.24V1312.24Z" fill="#66C1A7"/>
<path opacity="0.2" d="M977.598 1251.01L941.27 1254.88L944.789 1295.34L981.161 1291.47L977.598 1251.01Z" fill="black"/>
<path opacity="0.2" d="M1162.97 1245.23H1127.73L1129.25 1287.3H1164.54L1162.97 1245.23Z" fill="black"/>
<path d="M920.715 1290.86L999.063 1279.21L996.673 1257.49L915.152 1268.22L920.715 1290.86Z" fill="#66C1A7"/>
<path opacity="0.6" d="M920.715 1290.86L999.063 1279.21L996.673 1257.49L915.152 1268.22L920.715 1290.86Z" fill="white"/>
<path d="M1105.31 1280.56H1181.32V1257.83L1102.45 1256.36L1105.31 1280.56Z" fill="#66C1A7"/>
<path opacity="0.6" d="M1105.31 1280.56H1181.32V1257.83L1102.45 1256.36L1105.31 1280.56Z" fill="white"/>
<path opacity="0.2" d="M1041.26 711.619C1032.05 738.017 1025.08 765.14 1020.4 792.704C1015.14 721.135 1036.09 645.265 1036.09 645.265L1041.26 711.619Z" fill="black"/>
<path d="M1034.18 205.817C1020.62 224.589 978.252 227.544 978.252 227.544C978.252 227.544 951.093 225.936 954.787 216.768C969.387 211.075 975.21 202.471 976.514 192.781C976.988 186.831 976.264 180.847 974.385 175.182C973.466 171.993 972.363 168.859 971.082 165.796L1013.97 117.389C1012.41 143.808 1013.93 191.26 1034.18 205.817Z" fill="#F8A58D"/>
<path opacity="0.2" d="M1007.1 143.937C1011.45 174.876 988.245 188.607 976.338 192.909C976.812 186.96 976.088 180.975 974.209 175.31L1007.1 143.937Z" fill="black"/>
<path d="M920.975 45.7771C920.975 45.7771 910.372 93.5764 934.837 114.13C959.302 134.684 965.256 44.2997 965.256 44.2997L920.975 45.7771Z" fill="#282C2E"/>
<path d="M1006.88 157.667C1000.95 165.282 992.684 170.74 983.351 173.205C974.018 175.67 964.134 175.004 955.215 171.312C943.611 166.749 934.18 157.94 928.838 146.673C928.053 145.112 927.371 143.5 926.796 141.85C916.149 111.432 915.628 59.2877 948.219 41.9061C955.403 38.048 963.456 36.0922 971.61 36.2247C979.764 36.3572 987.748 38.5736 994.804 42.6631C1001.86 46.7527 1007.75 52.5793 1011.92 59.5887C1016.09 66.5982 1018.39 74.5574 1018.62 82.7093C1020.14 117.69 1022.66 138.156 1006.88 157.667Z" fill="#F8A58D"/>
<path d="M966.91 97.9199C967.388 100.701 965.954 103.178 964.085 103.395C962.217 103.612 960.522 101.396 960.218 98.5717C959.914 95.7472 961.217 93.3137 963.042 93.1399C964.868 92.9661 966.606 95.0519 966.91 97.9199Z" fill="#282C2E"/>
<path d="M934.793 101.181C935.271 103.962 933.794 106.439 931.925 106.656C930.057 106.873 928.362 104.657 928.058 101.876C927.754 99.0948 929.057 96.5744 930.882 96.4006C932.707 96.2268 934.793 98.5299 934.793 101.181Z" fill="#282C2E"/>
<path d="M945.264 101.526C942.754 110.515 939.041 119.125 934.227 127.12C936.307 128.308 938.623 129.024 941.011 129.219C943.398 129.415 945.799 129.084 948.045 128.25L945.264 101.526Z" fill="#D58745"/>
<path d="M975.771 86.5783C975.471 86.644 975.159 86.6348 974.864 86.5514C974.568 86.468 974.298 86.3131 974.076 86.1003C972.683 84.5552 970.947 83.3575 969.008 82.603C967.068 81.8485 964.98 81.558 962.908 81.7548C962.503 81.762 962.109 81.6238 961.797 81.3654C961.485 81.1069 961.276 80.7454 961.208 80.3461C961.14 79.9468 961.217 79.5362 961.425 79.1888C961.633 78.8414 961.959 78.5801 962.343 78.4522C964.97 78.1755 967.624 78.5277 970.087 79.4798C972.551 80.4318 974.752 81.9564 976.51 83.9275C976.665 84.0811 976.788 84.2638 976.872 84.4652C976.956 84.6666 976.999 84.8826 976.999 85.1008C976.999 85.319 976.956 85.535 976.872 85.7364C976.788 85.9378 976.665 86.1206 976.51 86.2741C976.284 86.4194 976.033 86.5225 975.771 86.5783V86.5783Z" fill="#282C2E"/>
<path d="M920.111 91.575C919.786 91.6812 919.436 91.6812 919.112 91.575C918.905 91.5022 918.715 91.389 918.553 91.2422C918.391 91.0953 918.259 90.9176 918.166 90.7195C918.073 90.5214 918.021 90.3067 918.011 90.0881C918.002 89.8694 918.036 89.6511 918.112 89.4457V89.4457C918.967 86.9399 920.412 84.6763 922.326 82.8461C924.239 81.0159 926.565 79.6727 929.106 78.9297C929.317 78.8778 929.537 78.8682 929.751 78.9014C929.966 78.9345 930.173 79.0098 930.358 79.1229C930.544 79.2359 930.706 79.3845 930.834 79.5601C930.962 79.7358 931.054 79.935 931.105 80.1464C931.197 80.5781 931.116 81.0284 930.881 81.4017C930.645 81.775 930.274 82.0418 929.845 82.1453V82.1453C927.807 82.7943 925.955 83.9221 924.443 85.4342C922.931 86.9463 921.803 88.7987 921.154 90.8363C920.907 91.2002 920.536 91.4625 920.111 91.575V91.575Z" fill="#282C2E"/>
<path d="M988.726 42.124L987.684 57.5936C990.345 58.6985 992.494 60.7648 993.702 63.3815C994.909 65.9983 995.088 68.9737 994.202 71.7161C989.856 84.7523 998.547 104.524 1008.72 111.998C1008.72 111.998 1008.72 106.349 1013.5 107.652C1018.28 108.956 1018.58 138.07 1010.11 152.366C1010.11 152.366 1023.36 139.026 1029.57 108C1035.35 79.3205 1034.96 55.8555 1028.53 45.0355L988.726 42.124Z" fill="#282C2E"/>
<path d="M1036.7 109.74C1035.18 113.843 1032.86 117.603 1029.87 120.803C1026.89 124.003 1023.3 126.579 1019.31 128.382C1008.71 133.206 1001.63 124.037 1003.1 113.173C1004.45 103.483 1011.53 88.9689 1022.92 88.8386C1034.31 88.7082 1040.3 99.5719 1036.7 109.74Z" fill="#F8A58D"/>
<path d="M987.676 57.5949C975.744 56.6642 963.741 57.8409 952.217 61.0712C942.222 64.281 931.543 64.7165 921.321 62.3314C921.321 62.3314 905.851 31.0446 926.318 12.0987C946.785 -6.84714 981.028 0.540018 992.109 6.97119C1003.19 13.4024 980.68 12.316 980.68 12.316C980.68 12.316 1016.92 19.0514 1032.61 32.8262C1048.3 46.6011 1044.52 69.284 1041.3 73.108C1038.08 76.9319 1035.22 68.5018 1035.22 68.5018C1028.5 71.8886 1020.99 73.3903 1013.49 72.8472C999.974 72.6734 1005.62 60.7236 987.676 57.5949Z" fill="#282C2E"/>
<path d="M950.133 139.635C952.514 143.487 954.606 147.51 956.39 151.672C957.169 151.516 957.939 151.313 958.693 151.064C969.209 148.37 973.164 143.633 974.38 139.201C974.903 137.03 974.903 134.766 974.38 132.596C974.136 131.353 973.711 130.153 973.12 129.032C967.386 133.578 960.75 136.852 953.653 138.636L950.133 139.635Z" fill="#282C2E"/>
<path d="M953.697 138.636L955.653 142.156C965.517 139.548 972.122 136.376 974.425 132.596C974.18 131.353 973.756 130.153 973.165 129.032C967.43 133.578 960.794 136.852 953.697 138.636V138.636Z" fill="white"/>
<path d="M958.697 151.064C969.213 148.369 973.168 143.633 974.384 139.201C970.416 140.309 966.677 142.119 963.347 144.545C961.152 146.177 959.525 148.457 958.697 151.064V151.064Z" fill="#DE5753"/>
<path d="M1023.4 192.039C1012.59 205.878 998.827 217.13 983.117 224.977C978.093 218.422 974.697 210.767 973.21 202.642C964.739 206.662 956.94 211.968 950.092 218.372C951.165 228.534 954.684 238.285 960.347 246.791L982.379 231.017L1009.1 250.528C1009.1 250.528 1044.21 227.845 1052.08 204.554L1023.4 192.039Z" fill="#66C1A7"/>
<path opacity="0.4" d="M1023.4 192.039C1012.59 205.878 998.827 217.13 983.117 224.977C978.093 218.422 974.697 210.767 973.21 202.642C964.739 206.662 956.94 211.968 950.092 218.372C951.165 228.534 954.684 238.285 960.347 246.791L982.379 231.017L1009.1 250.528C1009.1 250.528 1044.21 227.845 1052.08 204.554L1023.4 192.039Z" fill="white"/>
<path opacity="0.6" d="M1054.09 344.575L1010.54 349.252L1013.74 379.064L1057.29 374.387L1054.09 344.575Z" fill="white"/>
<path d="M1024.75 333.05L1029.09 347.433C1029.36 348.34 1029.95 349.116 1030.75 349.613C1031.55 350.111 1032.51 350.294 1033.44 350.127V350.127C1034.26 349.997 1035.02 349.606 1035.61 349.012C1036.2 348.418 1036.58 347.651 1036.7 346.825L1039 330.138L1024.75 333.05Z" fill="#66C1A7"/>
<path opacity="0.4" d="M1024.75 333.05L1029.09 347.433C1029.36 348.34 1029.95 349.116 1030.75 349.613C1031.55 350.111 1032.51 350.294 1033.44 350.127V350.127C1034.26 349.997 1035.02 349.606 1035.61 349.012C1036.2 348.418 1036.58 347.651 1036.7 346.825L1039 330.138L1024.75 333.05Z" fill="black"/>
<path d="M1056.77 374.068C1056.77 374.068 1040.61 422.606 1033.66 433.165C1026.7 443.724 847.452 490.09 847.452 490.09C847.452 490.09 832.416 482.442 822.943 483.267C813.47 484.093 776.534 492.697 775.664 499.563C774.795 506.428 794.611 537.367 799.304 539.931C803.997 542.495 851.45 535.369 856.49 523.028C856.49 523.028 1039.57 490.176 1056.77 483.267C1073.98 476.358 1110.87 394.708 1110.87 394.708L1056.77 374.068Z" fill="#F8A58D"/>
<path d="M1102.84 203.556C1130.56 205.425 1154.77 265.131 1150.03 313.277C1145.29 361.424 1101.01 443.639 1101.01 443.639L1039.13 413.221C1039.13 413.221 1054.6 358.165 1072.25 306.021C1089.89 253.876 1081.89 202.122 1102.84 203.556Z" fill="#66C1A7"/>
<path opacity="0.4" d="M1102.84 203.556C1130.56 205.425 1154.77 265.131 1150.03 313.277C1145.29 361.424 1101.01 443.639 1101.01 443.639L1039.13 413.221C1039.13 413.221 1054.6 358.165 1072.25 306.021C1089.89 253.876 1081.89 202.122 1102.84 203.556Z" fill="white"/>
<path d="M1031.74 418.653L1038.61 408.615L1110.87 433.036L1107.13 450.983L1031.74 418.653Z" fill="#66C1A7"/>
<path opacity="0.3" d="M1031.74 418.653L1038.61 408.615L1110.87 433.036L1107.13 450.983L1031.74 418.653Z" fill="white"/>
<path d="M461.138 514.903H588.286C590.349 514.903 592.328 515.722 593.786 517.181C595.245 518.64 596.065 520.618 596.065 522.681V594.206H453.359V522.638C453.371 520.582 454.195 518.615 455.653 517.166C457.11 515.716 459.082 514.903 461.138 514.903V514.903Z" fill="#66C1A7"/>
<path opacity="0.3" d="M595.847 522.638V594.163H453.359V522.638C453.359 520.586 454.174 518.619 455.625 517.168C457.075 515.718 459.043 514.903 461.094 514.903H588.286C590.307 514.948 592.231 515.783 593.644 517.229C595.057 518.674 595.848 520.616 595.847 522.638V522.638Z" fill="white"/>
<path opacity="0.4" d="M561.084 522.638V594.163H453.359V522.638C453.359 520.586 454.174 518.619 455.625 517.168C457.075 515.718 459.043 514.903 461.094 514.903H553.522C555.544 514.948 557.467 515.783 558.88 517.229C560.293 518.674 561.084 520.616 561.084 522.638V522.638Z" fill="white"/>
<path d="M1357.52 615.457H362.754V1362.82H1357.52V615.457Z" fill="#66C1A7"/>
<path opacity="0.3" d="M1357.52 615.457H362.754V1362.82H1357.52V615.457Z" fill="white"/>
<path opacity="0.4" d="M1099.4 615.457H362.754V1362.82H1099.4V615.457Z" fill="white"/>
<path d="M1365.13 587.951H359.062C355.318 587.951 352.283 590.986 352.283 594.73V624.41C352.283 628.154 355.318 631.189 359.062 631.189H1365.13C1368.87 631.189 1371.91 628.154 1371.91 624.41V594.73C1371.91 590.986 1368.87 587.951 1365.13 587.951Z" fill="#66C1A7"/>
<path opacity="0.2" d="M1104.4 587.951H359.062C355.318 587.951 352.283 590.986 352.283 594.73V624.41C352.283 628.154 355.318 631.189 359.062 631.189H1104.4C1108.14 631.189 1111.18 628.154 1111.18 624.41V594.73C1111.18 590.986 1108.14 587.951 1104.4 587.951Z" fill="white"/>
<path d="M1498.97 1255.1C1499.86 1253.22 1500.29 1251.15 1500.22 1249.07C1500.15 1246.99 1499.59 1244.95 1498.57 1243.14C1497.55 1241.32 1496.12 1239.77 1494.38 1238.63C1492.64 1237.48 1490.65 1236.76 1488.58 1236.54C1490.42 1231.19 1490.58 1225.41 1489.02 1219.97C1487.47 1214.53 1484.28 1209.7 1479.89 1206.12C1478.86 1205.16 1477.53 1204.56 1476.11 1204.43C1474.59 1204.6 1473.15 1205.22 1471.98 1206.21L1447.78 1223.59C1445.82 1224.77 1444.17 1226.39 1442.96 1228.33C1438 1237.93 1455.99 1250.06 1448.52 1258.14C1446.43 1260.4 1443.04 1260.88 1440.39 1262.48C1434.61 1266.09 1433.92 1274 1431.27 1280.26C1428.62 1286.51 1419.19 1291.34 1415.62 1285.56C1418.27 1279.56 1410.24 1274.43 1403.76 1273.65C1397.29 1272.87 1390.46 1272.52 1386.86 1266.44C1377.6 1274.48 1356.96 1252.01 1357.44 1242.93C1349.83 1243.5 1344.66 1250.62 1343.01 1257.7C1341.95 1265.19 1341.68 1272.76 1342.23 1280.3C1342.01 1295.03 1337.28 1309.41 1337.54 1324.1C1337.54 1335.53 1342.14 1348.22 1352.61 1352.82C1357.8 1354.68 1363.33 1355.42 1368.82 1355L1488.02 1354.26C1490.88 1354.44 1493.75 1353.97 1496.41 1352.87C1501.79 1350.04 1502.92 1342.96 1503.45 1336.92L1509.83 1259.27L1498.97 1255.1Z" fill="#66C1A7"/>
<path opacity="0.3" d="M1498.97 1255.1C1499.86 1253.22 1500.29 1251.15 1500.22 1249.07C1500.15 1246.99 1499.59 1244.95 1498.57 1243.14C1497.55 1241.32 1496.12 1239.77 1494.38 1238.63C1492.64 1237.48 1490.65 1236.76 1488.58 1236.54C1490.42 1231.19 1490.58 1225.41 1489.02 1219.97C1487.47 1214.53 1484.28 1209.7 1479.89 1206.12C1478.86 1205.16 1477.53 1204.56 1476.11 1204.43C1474.59 1204.6 1473.15 1205.22 1471.98 1206.21L1447.78 1223.59C1445.82 1224.77 1444.17 1226.39 1442.96 1228.33C1438 1237.93 1455.99 1250.06 1448.52 1258.14C1446.43 1260.4 1443.04 1260.88 1440.39 1262.48C1434.61 1266.09 1433.92 1274 1431.27 1280.26C1428.62 1286.51 1419.19 1291.34 1415.62 1285.56C1418.27 1279.56 1410.24 1274.43 1403.76 1273.65C1397.29 1272.87 1390.46 1272.52 1386.86 1266.44C1377.6 1274.48 1356.96 1252.01 1357.44 1242.93C1349.83 1243.5 1344.66 1250.62 1343.01 1257.7C1341.95 1265.19 1341.68 1272.76 1342.23 1280.3C1342.01 1295.03 1337.28 1309.41 1337.54 1324.1C1337.54 1335.53 1342.14 1348.22 1352.61 1352.82C1357.8 1354.68 1363.33 1355.42 1368.82 1355L1488.02 1354.26C1490.88 1354.44 1493.75 1353.97 1496.41 1352.87C1501.79 1350.04 1502.92 1342.96 1503.45 1336.92L1509.83 1259.27L1498.97 1255.1Z" fill="white"/>
<path d="M1505.92 1129.12H1320.98L1322.5 1147.81L1323.59 1161.15L1326.41 1195.91L1328.02 1215.86L1330.15 1242.41L1331.06 1253.79L1331.37 1257.18L1332.45 1270.57L1333.93 1288.9L1334.84 1300.29L1335.8 1311.85L1336.88 1325.23L1337.71 1335.36L1338.62 1346.74L1339.01 1351.7H1508.75L1509.14 1346.74L1510.05 1335.4L1510.88 1325.19L1511.96 1311.8L1512.92 1300.29L1513.83 1288.9L1515.31 1270.52L1516.4 1257.18L1516.66 1253.79L1517.57 1242.41L1519.74 1215.86L1521.35 1195.96L1524.13 1161.19L1525.22 1147.85L1526.74 1129.17L1505.92 1129.12ZM1517.05 1141.38L1513.49 1137.82H1517.35L1517.05 1141.38ZM1516.14 1152.72L1515.79 1157.07L1499.23 1173.62L1480.24 1154.63L1497.23 1137.64H1501.23L1516.14 1152.72ZM1511.36 1211.9L1499.23 1224.03L1480.24 1205.04L1499.23 1186.09L1512.27 1199.13L1511.36 1211.9ZM1335.36 1199.22L1348.4 1186.18L1367.39 1205.13L1348.4 1224.11L1336.32 1211.99L1335.36 1199.22ZM1493.1 1179.92L1474.12 1198.91L1455.13 1179.92L1474.12 1160.93L1493.1 1179.92ZM1463.25 1137.82H1484.98L1474.12 1148.68L1463.25 1137.82ZM1467.94 1205.04L1449 1224.03L1430.18 1205.04L1449.17 1186.09L1467.94 1205.04ZM1404.89 1230.16L1423.88 1211.21L1442.83 1230.16L1423.88 1248.97L1404.89 1230.16ZM1417.71 1255.27L1398.72 1274.26L1379.77 1255.31L1398.76 1236.33L1417.71 1255.27ZM1449 1236.33L1467.94 1255.31L1449 1274.26L1430.18 1255.27L1449 1236.33ZM1423.88 1198.91L1404.89 1179.92L1423.88 1160.93L1442.83 1179.92L1423.88 1198.91ZM1417.71 1205.04L1398.76 1224.03L1379.77 1205.04L1398.76 1186.09L1417.71 1205.04ZM1373.69 1198.91L1354.74 1179.92L1373.69 1160.93L1392.68 1179.92L1373.69 1198.91ZM1373.69 1211.21L1392.68 1230.16L1373.69 1248.97L1354.74 1229.98L1373.69 1211.21ZM1392.68 1280.43L1373.69 1299.38L1354.74 1280.43L1373.69 1261.44L1392.68 1280.43ZM1398.81 1286.56L1417.8 1305.55L1398.85 1324.54L1379.77 1305.46L1398.81 1286.56ZM1404.98 1280.43L1423.97 1261.44L1442.91 1280.43L1423.97 1299.38L1404.98 1280.43ZM1449.09 1286.56L1468.03 1305.55L1449.09 1324.54L1430.18 1305.46L1449.09 1286.56ZM1474.2 1311.67L1493.19 1330.66L1480.89 1342.96H1467.51L1455.21 1330.66L1474.2 1311.67ZM1455.21 1280.43L1474.2 1261.44L1493.19 1280.43L1474.2 1299.38L1455.21 1280.43ZM1455.21 1230.16L1474.2 1211.21L1493.19 1230.16L1474.12 1248.97L1455.21 1230.16ZM1468.03 1154.81L1449.09 1173.8L1430.18 1154.81L1447.17 1137.82H1451.17L1468.03 1154.81ZM1423.97 1148.68L1413.1 1137.82H1434.83L1423.97 1148.68ZM1417.8 1154.81L1398.85 1173.8L1379.86 1154.81L1396.85 1137.82H1400.85L1417.8 1154.81ZM1384.55 1137.82L1373.69 1148.68L1362.87 1137.82H1384.55ZM1350.57 1137.82L1367.56 1154.81L1348.57 1173.8L1332.06 1157.24L1331.71 1152.89L1346.58 1137.99L1350.57 1137.82ZM1334.32 1137.82L1330.8 1141.34L1330.5 1137.82H1334.32ZM1333.15 1170.62L1342.45 1179.92L1334.58 1187.83L1333.15 1170.62ZM1338.32 1234.28L1337.58 1225.29L1342.45 1230.16L1338.1 1234.28H1338.32ZM1339.23 1245.71L1348.57 1236.33L1367.56 1255.31L1348.57 1274.26L1340.93 1266.61L1339.23 1245.71ZM1342.06 1280.82V1280L1342.49 1280.43L1342.1 1280.82H1342.06ZM1345.36 1321.28L1342.97 1292.16L1348.57 1286.56L1367.56 1305.55L1348.57 1324.49L1345.36 1321.28ZM1347.1 1343L1346.75 1338.66L1348.57 1336.83L1354.74 1343H1347.1ZM1354.74 1330.71L1373.69 1311.72L1392.68 1330.71L1380.38 1343H1367L1354.74 1330.71ZM1392.68 1343L1398.85 1336.83L1405.02 1343H1392.68ZM1417.28 1343L1404.98 1330.71L1423.97 1311.72L1442.91 1330.71L1430.66 1343H1417.28ZM1442.91 1343L1449.09 1336.83L1455.26 1343H1442.91ZM1500.8 1343H1493.15L1499.32 1336.83L1501.14 1338.66L1500.8 1343ZM1502.58 1321.28L1499.32 1324.49L1480.24 1305.46L1499.23 1286.47L1504.84 1292.08L1502.58 1321.28ZM1505.92 1279.95V1280.82L1505.53 1280.43L1506.01 1279.95H1505.92ZM1507.01 1266.61L1499.32 1274.26L1480.33 1255.31L1499.32 1236.33L1508.71 1245.71L1507.01 1266.61ZM1509.62 1234.33L1505.27 1229.98L1510.18 1225.11L1509.62 1234.33ZM1514.7 1170.75L1513.31 1188.14L1505.36 1180.18L1514.7 1170.84V1170.75Z" fill="#66C1A7"/>
<g opacity="0.6">
<path opacity="0.6" d="M1505.92 1129.12H1320.98L1322.5 1147.81L1323.59 1161.15L1326.41 1195.91L1328.02 1215.86L1330.15 1242.41L1331.06 1253.79L1331.37 1257.18L1332.45 1270.57L1333.93 1288.9L1334.84 1300.29L1335.8 1311.85L1336.88 1325.23L1337.71 1335.36L1338.62 1346.74L1339.01 1351.7H1508.75L1509.14 1346.74L1510.05 1335.4L1510.88 1325.19L1511.96 1311.8L1512.92 1300.29L1513.83 1288.9L1515.31 1270.52L1516.4 1257.18L1516.66 1253.79L1517.57 1242.41L1519.74 1215.86L1521.35 1195.96L1524.13 1161.19L1525.22 1147.85L1526.74 1129.17L1505.92 1129.12ZM1517.05 1141.38L1513.49 1137.82H1517.35L1517.05 1141.38ZM1516.14 1152.72L1515.79 1157.07L1499.23 1173.62L1480.24 1154.63L1497.23 1137.64H1501.23L1516.14 1152.72ZM1511.36 1211.9L1499.23 1224.03L1480.24 1205.04L1499.23 1186.09L1512.27 1199.13L1511.36 1211.9ZM1335.36 1199.22L1348.4 1186.18L1367.39 1205.13L1348.4 1224.11L1336.32 1211.99L1335.36 1199.22ZM1493.1 1179.92L1474.12 1198.91L1455.13 1179.92L1474.12 1160.93L1493.1 1179.92ZM1463.25 1137.82H1484.98L1474.12 1148.68L1463.25 1137.82ZM1467.94 1205.04L1449 1224.03L1430.18 1205.04L1449.17 1186.09L1467.94 1205.04ZM1404.89 1230.16L1423.88 1211.21L1442.83 1230.16L1423.88 1248.97L1404.89 1230.16ZM1417.71 1255.27L1398.72 1274.26L1379.77 1255.31L1398.76 1236.33L1417.71 1255.27ZM1449 1236.33L1467.94 1255.31L1449 1274.26L1430.18 1255.27L1449 1236.33ZM1423.88 1198.91L1404.89 1179.92L1423.88 1160.93L1442.83 1179.92L1423.88 1198.91ZM1417.71 1205.04L1398.76 1224.03L1379.77 1205.04L1398.76 1186.09L1417.71 1205.04ZM1373.69 1198.91L1354.74 1179.92L1373.69 1160.93L1392.68 1179.92L1373.69 1198.91ZM1373.69 1211.21L1392.68 1230.16L1373.69 1248.97L1354.74 1229.98L1373.69 1211.21ZM1392.68 1280.43L1373.69 1299.38L1354.74 1280.43L1373.69 1261.44L1392.68 1280.43ZM1398.81 1286.56L1417.8 1305.55L1398.85 1324.54L1379.77 1305.46L1398.81 1286.56ZM1404.98 1280.43L1423.97 1261.44L1442.91 1280.43L1423.97 1299.38L1404.98 1280.43ZM1449.09 1286.56L1468.03 1305.55L1449.09 1324.54L1430.18 1305.46L1449.09 1286.56ZM1474.2 1311.67L1493.19 1330.66L1480.89 1342.96H1467.51L1455.21 1330.66L1474.2 1311.67ZM1455.21 1280.43L1474.2 1261.44L1493.19 1280.43L1474.2 1299.38L1455.21 1280.43ZM1455.21 1230.16L1474.2 1211.21L1493.19 1230.16L1474.12 1248.97L1455.21 1230.16ZM1468.03 1154.81L1449.09 1173.8L1430.18 1154.81L1447.17 1137.82H1451.17L1468.03 1154.81ZM1423.97 1148.68L1413.1 1137.82H1434.83L1423.97 1148.68ZM1417.8 1154.81L1398.85 1173.8L1379.86 1154.81L1396.85 1137.82H1400.85L1417.8 1154.81ZM1384.55 1137.82L1373.69 1148.68L1362.87 1137.82H1384.55ZM1350.57 1137.82L1367.56 1154.81L1348.57 1173.8L1332.06 1157.24L1331.71 1152.89L1346.58 1137.99L1350.57 1137.82ZM1334.32 1137.82L1330.8 1141.34L1330.5 1137.82H1334.32ZM1333.15 1170.62L1342.45 1179.92L1334.58 1187.83L1333.15 1170.62ZM1338.32 1234.28L1337.58 1225.29L1342.45 1230.16L1338.1 1234.28H1338.32ZM1339.23 1245.71L1348.57 1236.33L1367.56 1255.31L1348.57 1274.26L1340.93 1266.61L1339.23 1245.71ZM1342.06 1280.82V1280L1342.49 1280.43L1342.1 1280.82H1342.06ZM1345.36 1321.28L1342.97 1292.16L1348.57 1286.56L1367.56 1305.55L1348.57 1324.49L1345.36 1321.28ZM1347.1 1343L1346.75 1338.66L1348.57 1336.83L1354.74 1343H1347.1ZM1354.74 1330.71L1373.69 1311.72L1392.68 1330.71L1380.38 1343H1367L1354.74 1330.71ZM1392.68 1343L1398.85 1336.83L1405.02 1343H1392.68ZM1417.28 1343L1404.98 1330.71L1423.97 1311.72L1442.91 1330.71L1430.66 1343H1417.28ZM1442.91 1343L1449.09 1336.83L1455.26 1343H1442.91ZM1500.8 1343H1493.15L1499.32 1336.83L1501.14 1338.66L1500.8 1343ZM1502.58 1321.28L1499.32 1324.49L1480.24 1305.46L1499.23 1286.47L1504.84 1292.08L1502.58 1321.28ZM1505.92 1279.95V1280.82L1505.53 1280.43L1506.01 1279.95H1505.92ZM1507.01 1266.61L1499.32 1274.26L1480.33 1255.31L1499.32 1236.33L1508.71 1245.71L1507.01 1266.61ZM1509.62 1234.33L1505.27 1229.98L1510.18 1225.11L1509.62 1234.33ZM1514.7 1170.75L1513.31 1188.14L1505.36 1180.18L1514.7 1170.84V1170.75Z" fill="white"/>
</g>
<path d="M1316.29 1145.55H1531.48C1535.41 1145.55 1538.6 1142.36 1538.6 1138.42V1128.47C1538.6 1124.54 1535.41 1121.35 1531.48 1121.35H1316.29C1312.35 1121.35 1309.16 1124.54 1309.16 1128.47V1138.42C1309.16 1142.36 1312.35 1145.55 1316.29 1145.55Z" fill="#66C1A7"/>
<path d="M1514.92 1338.66H1332.8C1328.86 1338.66 1325.67 1341.85 1325.67 1345.78V1355.74C1325.67 1359.67 1328.86 1362.86 1332.8 1362.86H1514.92C1518.86 1362.86 1522.05 1359.67 1522.05 1355.74V1345.78C1522.05 1341.85 1518.86 1338.66 1514.92 1338.66Z" fill="#66C1A7"/>
<path d="M365.58 1287.3L338.16 1292.12L326.906 1254.75L316.65 1220.46L348.285 1209.43L357.454 1250.66L365.58 1287.3Z" fill="#E4897B"/>
<path opacity="0.2" d="M357.59 1251.49L327.041 1255.53L316.742 1220.85L348.29 1209.6L357.59 1251.49Z" fill="black"/>
<path d="M182.596 1299.94H154.742L150.179 1260.7L146.051 1224.94L179.076 1219.47L180.945 1262.05L182.596 1299.94Z" fill="#E4897B"/>
<path opacity="0.2" d="M180.945 1262.4L150.179 1261.05L146.051 1225.11L179.076 1219.55L180.945 1262.4Z" fill="black"/>
<path d="M220.314 1355.04C215.88 1351.48 210.847 1348.75 205.452 1346.96V1346.96C205.452 1346.96 189.287 1330.92 181.509 1282.65L160.346 1277.13C156.754 1276.27 152.985 1276.53 149.544 1277.87C146.104 1279.22 143.156 1281.58 141.096 1284.64C140.509 1285.5 140.055 1286.44 139.749 1287.43C138.653 1292.6 137.898 1297.84 137.489 1303.11C135.36 1319.45 137.185 1356.13 137.185 1356.13H141.009L142.53 1322.84C143.095 1311.54 151.742 1324.8 154.219 1336.96C156.696 1349.13 161.954 1362.08 186.723 1362.69C215.621 1363.25 227.614 1361.95 220.314 1355.04Z" fill="#282C2E"/>
<path d="M404.996 1351.78C400.562 1348.23 395.529 1345.49 390.134 1343.7V1343.7C390.134 1343.7 373.969 1327.67 366.19 1279.39L345.028 1273.87C341.436 1273.01 337.667 1273.27 334.226 1274.62C330.786 1275.96 327.838 1278.32 325.778 1281.39C325.191 1282.24 324.736 1283.18 324.43 1284.17C323.334 1289.34 322.58 1294.58 322.171 1299.86C320.042 1316.19 321.867 1352.87 321.867 1352.87H325.691L327.212 1319.58C327.776 1308.29 336.424 1321.54 338.901 1333.71C341.378 1345.87 346.636 1358.82 371.405 1359.43C400.303 1360 412.296 1358.87 404.996 1351.78Z" fill="#282C2E"/>
<path d="M360.197 1229.76L315.134 1237.67C269.637 1124.39 237.307 1029.83 214.45 951.356C202.152 909.031 191.897 871.4 184.553 837.984L185.9 961.306V1239.11H141.489C30.2014 708.97 109.072 588.125 109.072 588.125L242.261 565.963C247.506 590.595 251.221 615.527 253.385 640.617L259.382 684.766L311.528 953.659L360.197 1229.76Z" fill="#66C1A7"/>
<g opacity="0.4">
<path opacity="0.4" d="M360.197 1229.76L315.134 1237.67C269.637 1124.39 237.307 1029.83 214.45 951.356C202.152 909.031 191.897 871.4 184.553 837.984L185.9 961.306V1239.11H141.489C30.2014 708.97 109.072 588.125 109.072 588.125L242.261 565.963C247.506 590.595 251.221 615.527 253.385 640.617L259.382 684.766L311.528 953.659L360.197 1229.76Z" fill="#5CB79D"/>
</g>
<path d="M399.91 435.078L444.842 390.668C444.842 390.668 446.407 378.761 450.752 375.459C455.098 372.156 485.951 360.945 489.862 363.422C493.772 365.899 498.857 390.842 493.599 395.404C488.341 399.967 460.269 405.79 457.401 405.312L408.775 463.018L399.91 435.078Z" fill="#F8A58D"/>
<path d="M238.957 354.124C258.338 364.422 327.127 460.585 337.295 465.365C347.464 470.145 424.9 407.311 424.9 407.311L437.937 429.603C437.937 429.603 374.232 519.422 338.469 515.077C302.705 510.731 233.699 434.687 233.699 434.687L238.957 354.124Z" fill="#282C2E"/>
<path d="M238.957 354.124C258.338 364.422 327.127 460.585 337.295 465.365C347.464 470.145 424.9 407.311 424.9 407.311L437.937 429.603C437.937 429.603 374.232 519.422 338.469 515.077C302.705 510.731 233.699 434.687 233.699 434.687L238.957 354.124Z" fill="#5CB79D"/>
<path d="M420.641 409.703L425.986 404.619L440.108 428.519L435.068 438.297L420.641 409.703Z" fill="#66C1A7"/>
<path opacity="0.2" d="M261.251 462.759C245.172 447.42 233.613 434.688 233.613 434.688L234.83 415.568L240.87 397.013C249.184 405.607 255.36 416.035 258.9 427.456C262.44 438.877 263.245 450.97 261.251 462.759Z" fill="black"/>
<path opacity="0.2" d="M214.448 951.353C202.15 909.029 192.721 871.398 185.203 837.982C185.856 798.422 188.758 758.931 193.894 719.7C193.894 719.7 213.449 872.223 214.448 951.353Z" fill="black"/>
<path d="M245.43 557.752C250.862 462.154 248.472 409.488 245.995 383.198C243.257 355.17 238.955 354.127 238.955 354.127C238.955 354.127 208.537 351.173 182.16 351.39C161.753 352.079 141.423 354.228 121.323 357.821C102.193 361.002 83.3142 365.548 64.832 371.422C67.9028 380.113 70.7274 388.456 73.3057 396.451C76.7821 406.793 79.8674 416.44 82.6485 425.392C87.9065 442.208 91.9478 456.722 95.2069 469.715C103.496 502.435 108.346 535.931 109.677 569.659C109.677 569.659 76.2172 657.001 69.6989 721.095L180.509 733.045L195.718 668.951L210.927 735.218L272.85 713.491L245.43 557.752Z" fill="#282C2E"/>
<path d="M245.43 557.752C250.862 462.154 248.472 409.488 245.995 383.198C243.257 355.17 238.955 354.127 238.955 354.127C238.955 354.127 208.537 351.173 182.16 351.39C161.753 352.079 141.423 354.228 121.323 357.821C102.193 361.002 83.3142 365.548 64.832 371.422C67.9028 380.113 70.7274 388.456 73.3057 396.451C76.7821 406.793 79.8674 416.44 82.6485 425.392C87.9065 442.208 91.9478 456.722 95.2069 469.715C103.496 502.435 108.346 535.931 109.677 569.658C109.677 569.658 76.2172 657.001 69.6989 721.095L180.509 733.045L195.718 668.95L210.927 735.218L272.85 713.491L245.43 557.752Z" fill="#5CB79D"/>
<path d="M130.885 346.348C130.885 346.348 146.832 333.616 175.339 343.784L179.206 358.298C179.206 358.298 154.741 367.554 142.4 365.12C130.059 362.687 130.885 346.348 130.885 346.348Z" fill="#66C1A7"/>
<path opacity="0.2" d="M130.885 346.348C130.885 346.348 146.832 333.616 175.339 343.784L179.206 358.298C179.206 358.298 154.741 367.554 142.4 365.12C130.059 362.687 130.885 346.348 130.885 346.348Z" fill="black"/>
<path opacity="0.2" d="M100.47 493.135C98.9923 485.835 97.2541 478.057 95.1248 469.713C93.7777 464.412 92.3002 458.85 90.7793 452.94C95.1248 438.122 99.4703 449.681 99.4703 449.681C102.174 464.014 102.512 478.693 100.47 493.135V493.135Z" fill="black"/>
<path d="M180.635 357.211C179.229 356.519 177.777 355.924 176.29 355.43C173.161 352.953 169.38 347 169.554 332.529C169.666 326.836 170.188 321.157 171.119 315.539L130.88 308.021C130.88 308.021 144.611 335.137 133.139 355.299C129.228 357.037 126.882 359.645 127.273 362.773C130.315 386.065 180.331 408.574 180.331 408.574C180.331 408.574 204.753 370.552 180.635 357.211Z" fill="#F8A58D"/>
<path opacity="0.2" d="M171.3 315.539C170.37 321.158 169.847 326.836 169.736 332.53C142.533 332.53 131.018 308.021 131.018 308.021L171.3 315.539Z" fill="black"/>
<path d="M153.305 182.615C153.305 182.615 200.41 176.661 209.101 214.77C211.625 225.577 211.025 236.879 207.37 247.358C203.715 257.837 197.157 267.061 188.46 273.955L153.305 182.615Z" fill="#282C2E"/>
<path d="M149.049 202.906C184.074 200.994 196.372 219.115 200.891 255.051C206.584 299.982 198.327 332.573 154.003 325.359C93.8186 315.539 90.8636 206.079 149.049 202.906Z" fill="#F8A58D"/>
<path d="M178.164 254.355C181.254 259.43 184.946 264.114 189.158 268.305C188.198 269.791 186.846 270.984 185.251 271.751C183.656 272.518 181.88 272.829 180.12 272.65L178.164 254.355Z" fill="#D4827D"/>
<path d="M156.567 252.66C156.784 255.528 155.394 257.962 153.482 258.136C151.57 258.309 149.831 256.093 149.614 253.182C149.397 250.27 150.787 247.88 152.699 247.706C154.612 247.533 156.35 249.792 156.567 252.66Z" fill="#282C2E"/>
<path d="M151.916 247.923L157.956 244.968C157.956 244.968 155.262 250.486 151.916 247.923Z" fill="#282C2E"/>
<path d="M192.241 249.272C192.241 252.14 191.068 254.574 189.156 254.747C187.244 254.921 185.506 252.662 185.289 249.794C185.071 246.926 186.418 244.492 188.374 244.318C190.329 244.144 192.024 246.404 192.241 249.272Z" fill="#282C2E"/>
<path d="M187.375 244.535L193.459 241.58C193.459 241.58 190.938 247.099 187.375 244.535Z" fill="#282C2E"/>
<path d="M154.868 228.499C152.081 228.315 149.288 228.771 146.704 229.833C144.121 230.895 141.815 232.535 139.963 234.626" stroke="#282C2E" stroke-width="0.686238" stroke-linecap="round" stroke-linejoin="round"/>
<path d="M180.252 225.631C182.61 224.888 185.107 224.689 187.553 225.05C190 225.412 192.332 226.324 194.375 227.717" stroke="#282C2E" stroke-width="0.686238" stroke-linecap="round" stroke-linejoin="round"/>
<path d="M113.983 263.999C113.983 263.999 128.801 234.363 125.108 212.289C125.108 212.289 192.941 180.133 200.241 250.354C200.241 250.354 203.587 187.433 143.315 189.519C83.0434 191.605 88.0842 279.512 120.632 304.02C120.632 303.846 104.814 282.554 113.983 263.999Z" fill="#282C2E"/>
<path d="M159.305 180.005C159.305 180.005 188.072 172.922 196.242 180.527C204.411 188.131 146.269 241.927 115.851 247.359C115.851 247.359 105.508 281.036 113.678 296.766C113.678 296.766 79.4355 284.816 77.8277 232.671C76.2198 180.527 130.886 160.886 159.305 180.005Z" fill="#282C2E"/>
<path d="M120.107 271.259C119.526 267.227 117.37 263.591 114.112 261.147C110.853 258.703 106.758 257.651 102.726 258.222C91.9488 260.004 87.9945 282.557 115.284 286.468C119.282 286.729 121.237 282.861 120.107 271.259Z" fill="#F8A58D"/>
<path d="M104.811 200.559C104.811 200.559 92.8612 170.141 60.7916 172.314C28.722 174.487 23.8551 224.459 40.7155 261.394C57.576 298.33 46.3212 310.367 46.3212 310.367C46.3212 310.367 64.2246 308.194 64.2246 275.039C65.215 282.061 65.5785 289.158 65.3109 296.244C65.3109 296.244 77.261 279.384 65.8758 247.359C54.4907 215.333 90.8623 229.977 90.8623 229.977L104.811 200.559Z" fill="#282C2E"/>
<path d="M193.503 183.179C193.503 183.179 178.293 232.065 137.576 246.709" stroke="#282C2E" stroke-width="0.686238" stroke-linecap="round" stroke-linejoin="round"/>
<path d="M152.613 285.294C155.253 287.912 158.388 289.979 161.835 291.374C165.281 292.769 168.971 293.465 172.689 293.42" stroke="#282C2E" stroke-width="0.686238" stroke-linecap="round" stroke-linejoin="round"/>
<path d="M130.886 346.346C130.886 346.346 138.1 360.99 162.695 371.419L172.733 387.627V369.159C175.504 361.005 176.395 352.33 175.34 343.782L183.51 359.208C185.983 359.784 188.233 361.07 189.986 362.907C191.738 364.744 192.916 367.053 193.374 369.55C195.981 379.023 181.989 413.004 181.989 413.004C181.989 413.004 137.274 396.97 127.236 376.851C119.805 361.859 128.713 358.252 128.713 358.252L130.886 346.346Z" fill="#66C1A7"/>
<path d="M189.248 425.433C189.248 426.069 189.059 426.691 188.706 427.219C188.352 427.748 187.85 428.16 187.263 428.404C186.675 428.647 186.029 428.711 185.405 428.587C184.781 428.463 184.208 428.156 183.758 427.707C183.309 427.257 183.002 426.684 182.878 426.06C182.754 425.436 182.818 424.79 183.061 424.202C183.305 423.615 183.717 423.113 184.246 422.759C184.774 422.406 185.396 422.217 186.032 422.217C186.885 422.217 187.703 422.556 188.306 423.159C188.909 423.762 189.248 424.58 189.248 425.433V425.433Z" fill="#282C2E"/>
<path d="M197.064 475.71C197.064 476.346 196.875 476.968 196.522 477.497C196.169 478.026 195.667 478.438 195.079 478.681C194.491 478.925 193.845 478.988 193.221 478.864C192.597 478.74 192.024 478.434 191.575 477.984C191.125 477.534 190.819 476.961 190.695 476.338C190.571 475.714 190.634 475.067 190.878 474.48C191.121 473.892 191.533 473.39 192.062 473.037C192.591 472.683 193.212 472.495 193.848 472.495C194.701 472.495 195.519 472.833 196.122 473.436C196.725 474.039 197.064 474.857 197.064 475.71V475.71Z" fill="#282C2E"/>
<path d="M200.416 536.633C200.416 537.269 200.227 537.89 199.874 538.419C199.52 538.948 199.018 539.36 198.431 539.604C197.843 539.847 197.196 539.911 196.573 539.787C195.949 539.663 195.376 539.356 194.926 538.907C194.476 538.457 194.17 537.884 194.046 537.26C193.922 536.636 193.986 535.99 194.229 535.402C194.473 534.815 194.885 534.312 195.413 533.959C195.942 533.606 196.564 533.417 197.2 533.417C198.053 533.417 198.871 533.756 199.474 534.359C200.077 534.962 200.416 535.78 200.416 536.633V536.633Z" fill="#282C2E"/>
<path d="M203.064 600.465C203.064 601.101 202.875 601.723 202.522 602.252C202.169 602.781 201.667 603.193 201.079 603.436C200.491 603.68 199.845 603.743 199.221 603.619C198.597 603.495 198.024 603.189 197.575 602.739C197.125 602.289 196.819 601.717 196.695 601.093C196.571 600.469 196.634 599.822 196.878 599.235C197.121 598.647 197.533 598.145 198.062 597.792C198.591 597.438 199.212 597.25 199.848 597.25C200.701 597.25 201.519 597.589 202.122 598.192C202.725 598.795 203.064 599.613 203.064 600.465V600.465Z" fill="#282C2E"/>
<path d="M51.752 550.753L105.201 517.033C105.201 517.033 109.286 505.778 114.24 503.475C119.194 501.172 151.741 496.87 154.914 500.129C158.086 503.388 157.782 528.809 151.654 532.155C145.527 535.501 116.891 535.11 114.196 534.023L54.2723 579.78L51.752 550.753Z" fill="#F8A58D"/>
<path d="M64.7896 371.421C64.7896 371.421 99.5534 422.175 94.643 465.629L48.3202 542.368L79.4338 526.464L93.5566 553.058C93.5566 553.058 57.7065 608.288 12.079 595.252C-33.5485 582.215 64.7896 371.421 64.7896 371.421Z" fill="#282C2E"/>
<path d="M64.7896 371.44C64.7896 371.44 99.5534 422.194 94.643 465.648L48.3202 542.388L79.4338 526.484L93.5566 553.078C93.5566 553.078 57.7065 608.307 12.079 595.271C-33.5485 582.235 64.7896 371.44 64.7896 371.44Z" fill="#5CB79D"/>
<path d="M76.1719 524.987L93.9448 557.969L97.8992 548.539L83.7765 521.728L76.1719 524.987Z" fill="#66C1A7"/>
</svg>
