<svg width="1448" height="1386" viewBox="0 0 1448 1386" fill="none" xmlns="http://www.w3.org/2000/svg">
<path d="M1433.44 1097.16H547.547C543.928 1097.16 541 1093.77 541 1089.58C541 1085.4 543.934 1082 547.547 1082H1433.44C1437.06 1082 1439.99 1085.4 1439.99 1089.58C1439.99 1093.77 1437.06 1097.16 1433.44 1097.16Z" fill="#72A9E1"/>
<path d="M1336.13 813.572H1196.34V662.626H1277.23C1309.76 662.626 1336.13 688.994 1336.13 721.525V813.572H1336.13Z" fill="#72A9E1"/>
<path d="M1173.69 1026.38H1404.17L1407.43 860.938C1407.49 858.067 1407.03 855.208 1406.07 852.483L1358.51 717.417C1354.82 706.941 1344.35 699.862 1332.55 699.862H1173.69V1026.38Z" fill="#72A9E1"/>
<path d="M1407.44 1026.38H1393.06C1387.99 1026.38 1383.88 1022.27 1383.88 1017.19V979.486C1383.88 974.415 1387.99 970.3 1393.06 970.3H1407.44V1026.38Z" fill="#17282F"/>
<path d="M1424.73 794.022H1432.03V768.465C1432.03 747.474 1414.95 730.391 1393.96 730.391H1331.89V737.696H1393.96C1410.92 737.696 1424.72 751.502 1424.72 768.465V794.022H1424.73Z" fill="#17282F"/>
<path d="M1433.59 846.693H1421.59C1413.82 846.693 1407.51 840.392 1407.51 832.615V791.936C1407.51 784.159 1413.82 777.857 1421.59 777.857H1433.59C1441.37 777.857 1447.67 784.159 1447.67 791.936V832.615C1447.67 840.392 1441.37 846.693 1433.59 846.693Z" fill="#17282F"/>
<path d="M1441.11 832.615V791.936C1441.11 787.781 1437.74 784.411 1433.59 784.411H1421.59C1417.44 784.411 1414.07 787.781 1414.07 791.936V832.615C1414.07 836.769 1417.44 840.139 1421.59 840.139H1433.59C1437.75 840.139 1441.11 836.769 1441.11 832.615Z" fill="#FFFBF0"/>
<path d="M1356.43 852.955H1236.38C1228.94 852.955 1222.9 846.92 1222.9 839.475V740.748C1222.9 733.303 1228.94 727.268 1236.38 727.268H1326.16C1332.08 727.268 1337.32 731.136 1339.05 736.793L1369.32 835.52C1371.97 844.188 1365.49 852.955 1356.43 852.955Z" fill="#17282F"/>
<path d="M1352.76 781.506L1369.32 835.526C1371.98 844.194 1365.5 852.954 1356.43 852.954H1236.38C1228.94 852.954 1222.9 846.919 1222.9 839.475V781.506H1352.76Z" fill="#E7E8E5"/>
<path d="M1371.96 1023.49C1371.99 1060.45 1342.02 1090.42 1305.05 1090.4C1268.71 1090.37 1238.27 1059.93 1238.24 1023.59C1238.22 986.625 1268.19 956.66 1305.15 956.687C1341.49 956.707 1371.93 987.143 1371.96 1023.49Z" fill="#17282F"/>
<path d="M701.342 1088.33C665.987 1088.33 637.326 1058.86 637.326 1022.5C637.326 986.151 665.987 956.68 701.342 956.68C736.698 956.68 765.359 986.151 765.359 1022.5C765.359 1058.86 736.698 1088.33 701.342 1088.33Z" fill="#17282F"/>
<path d="M1177.5 934.739H515.598C505.189 934.739 496.754 926.304 496.754 915.895V527.666C496.754 517.257 505.189 508.822 515.598 508.822H1177.5C1187.9 508.822 1196.34 517.257 1196.34 527.666V915.895C1196.34 926.304 1187.9 934.739 1177.5 934.739Z" fill="#17282F"/>
<path d="M515.598 917.35C514.794 917.35 514.136 916.692 514.136 915.888V527.659C514.136 526.855 514.794 526.197 515.598 526.197H846.178V917.344H515.598V917.35Z" fill="#E7E8E5"/>
<path d="M515.598 629.923C514.794 629.923 514.136 629.75 514.136 629.537V526.469C514.136 526.257 514.794 526.084 515.598 526.084H846.178V629.929H515.598V629.923Z" fill="#FFFBF0"/>
<path d="M1177.5 508.822H863.56V934.739H1177.5C1187.9 934.739 1196.34 926.304 1196.34 915.895V527.666C1196.34 517.257 1187.9 508.822 1177.5 508.822Z" fill="#A7A4BC"/>
<path d="M689.341 917.356H548.512V800.011H689.341V917.356Z" fill="#5B87B4"/>
<path d="M846.174 917.351H668.48V777.054H846.174V917.351Z" fill="#72A9E1"/>
<path d="M846.171 777.056H694.561V643.525H846.171V777.056Z" fill="#5B87B4"/>
<path d="M1171.53 1026.38H542.26V934.739H1171.53C1181.2 934.739 1189.04 942.576 1189.04 952.247V1008.87C1189.04 1018.54 1181.2 1026.38 1171.53 1026.38Z" fill="#17282F"/>
<path d="M854.165 1015.42H548.512V947.098H854.165V1015.42Z" fill="#E7E8E5"/>
<path d="M844.103 1000.12H755.785V972.997H844.103V1000.12Z" fill="#5B87B4"/>
<path d="M844.099 1000.12H790.811V972.997H844.099V1000.12Z" fill="#72A9E1"/>
<path d="M656.556 1000.12H568.238V972.997H656.556V1000.12Z" fill="#72A9E1"/>
<path d="M608.222 1000.12H568.234V972.997H608.222V1000.12Z" fill="#5B87B4"/>
<path d="M974.578 1022.5C974.578 1058.86 965.638 1088.33 913.187 1088.33C877.832 1088.33 846.544 1058.86 846.544 1022.5C846.544 986.153 875.206 956.68 910.561 956.68C945.916 956.68 974.578 986.153 974.578 1022.5Z" fill="#17282F"/>
<path d="M994.34 1020.7C994.34 1059.19 963.824 1088.33 928.469 1088.33C893.113 1088.33 866.313 1059.19 866.313 1020.7C866.313 982.205 894.974 950.998 930.33 950.998C965.678 950.998 994.34 982.205 994.34 1020.7Z" fill="#17282F"/>
<path d="M1316.12 1090.4C1280.76 1090.4 1252.1 1059.9 1252.1 1022.28C1252.1 984.659 1280.76 954.162 1316.12 954.162C1351.48 954.162 1380.14 984.659 1380.14 1022.28C1380.14 1059.9 1351.48 1090.4 1316.12 1090.4Z" fill="#17282F"/>
<path d="M1347.6 1020.7C1347.6 1039.63 1333.51 1054.97 1316.12 1054.97C1298.74 1054.97 1284.64 1039.63 1284.64 1020.7C1284.64 1001.77 1298.73 986.425 1316.12 986.425C1333.51 986.425 1347.6 1001.77 1347.6 1020.7Z" fill="#E7E8E5"/>
<path d="M961.801 1020.7C961.801 1039.63 947.709 1054.97 930.321 1054.97C912.939 1054.97 898.841 1039.63 898.841 1020.7C898.841 1001.77 912.932 986.425 930.321 986.425C947.709 986.425 961.801 1001.77 961.801 1020.7Z" fill="#E7E8E5"/>
<path d="M654.314 602.976H713.777C713.777 611.424 706.924 618.277 698.476 618.277H669.608C661.167 618.277 654.314 611.424 654.314 602.976Z" fill="#A7A4BC"/>
<path d="M528.934 1347.47H297.651V1090.04H528.934V1347.47Z" fill="#72A9E1"/>
<path d="M351.215 1347.47H528.934V1266.81L446.125 1267.15C446.125 1267.15 453.028 1182.28 460.317 1090.05H432.919V1145.68H428.024H424.345L422.244 1141.4L419.301 1145.68L415.31 1136.86L411.52 1145.68H400.692H395.753L393.968 1139.8L392.284 1145.68H389.074V1090.05H421.862L297.651 1090.04L351.215 1090.05V1347.47" fill="#5B87B4"/>
<path d="M649.602 1347.47H528.932V1090.04H649.602V1347.47Z" fill="#72A9E1"/>
<path d="M528.932 1347.47H649.602V1263.9H635.252C635.252 1263.9 642.086 1185.07 649.602 1096.37V1090.04H623.863C621.735 1182.46 619.458 1266.44 619.458 1266.44L528.932 1266.8V1347.46V1347.47" fill="#72A9E1"/>
<path d="M432.398 1146.36H424.139L422.116 1142.02L419.281 1146.36L415.436 1137.43L411.786 1146.36H401.355H396.598L394.879 1140.4L393.257 1146.36H390.164V1090.04H432.398V1146.36Z" fill="white"/>
<path d="M641.559 1329.37C632.578 1311.12 623.669 1292.82 614.853 1274.46L588.54 1219.27L562.561 1163.85C553.942 1145.35 545.42 1126.77 536.979 1108.14C545.959 1126.39 554.868 1144.69 563.684 1163.05L589.997 1218.24L615.972 1273.67C624.591 1292.17 633.113 1310.74 641.559 1329.37" fill="#72A9E1"/>
<path d="M641.559 1108.14C633.113 1126.77 624.591 1145.35 615.972 1163.85L589.997 1219.27L563.684 1274.46C554.868 1292.83 545.959 1311.12 536.979 1329.37C545.42 1310.74 553.942 1292.17 562.561 1273.66L588.54 1218.24L614.853 1163.05C623.669 1144.69 632.578 1126.39 641.559 1108.14" fill="#72A9E1"/>
<path d="M422.342 1090.04H189.048V832.617H422.342V1090.04Z" fill="#72A9E1"/>
<path d="M189.048 1090.04H422.342L422.337 832.621H422.342V832.617H189.048V1090.04Z" fill="#5B87B4"/>
<path d="M541 1090.04H422.342V832.617H541V1090.04Z" fill="#72A9E1"/>
<path d="M422.342 1090.04H461.177C469.451 986.31 478.216 873.255 478.101 861.155C478.043 854.953 478.247 845.167 478.654 832.617H422.342V1090.03V1090.04" fill="#72A9E1"/>
<path d="M325.807 888.929H317.153L315.033 884.592L312.063 888.929L308.031 880L304.215 888.929H293.286H288.298L286.497 882.972L284.797 888.929H281.561V832.617H325.807V888.929Z" fill="white"/>
<path d="M532.955 1071.94C524.147 1053.7 515.41 1035.4 506.768 1017.04L480.956 961.853L455.481 906.423C447.028 887.922 438.67 869.346 430.386 850.717C439.198 868.959 447.932 887.259 456.578 905.628L482.385 960.812L507.86 1016.24C516.314 1034.75 524.672 1053.32 532.955 1071.94" fill="#72A9E1"/>
<path d="M532.955 850.717C524.672 869.342 516.314 887.918 507.86 906.423L482.385 961.853L456.578 1017.04C447.932 1035.41 439.198 1053.7 430.386 1071.94C438.67 1053.32 447.028 1034.75 455.481 1016.24L480.956 960.812L506.768 905.628C515.41 887.259 524.147 868.964 532.955 850.717" fill="#72A9E1"/>
<path d="M231.283 1347.47H0.000636616V1090.04H231.283V1347.47Z" fill="#72A9E1"/>
<path d="M0.000636616 1347.47H231.283V1090.04H0.000636616V1347.47Z" fill="#5B87B4"/>
<path d="M351.951 1347.47H231.282V1090.04H351.951V1347.47Z" fill="#72A9E1"/>
<path d="M231.282 1347.47H351.951V1090.04H231.282V1347.46V1347.47" fill="#72A9E1"/>
<path d="M134.748 1146.36H126.099L123.974 1142.02L121.009 1146.36L116.972 1137.43L113.156 1146.36H102.228H97.2439L95.438 1140.4L93.7427 1146.36H90.5027V1090.04H134.748V1146.36" fill="white"/>
<path d="M343.906 1329.37C334.926 1311.12 326.017 1292.82 317.202 1274.46L290.89 1219.27L264.912 1163.85C256.293 1145.35 247.772 1126.77 239.326 1108.14C248.311 1126.39 257.22 1144.69 266.035 1163.05L292.347 1218.24L318.32 1273.67C326.94 1292.17 335.461 1310.74 343.906 1329.37" fill="#72A9E1"/>
<path d="M343.906 1108.14C335.461 1126.77 326.94 1145.35 318.32 1163.85L292.347 1219.27L266.035 1274.46C257.22 1292.83 248.311 1311.12 239.326 1329.37C247.772 1310.74 256.293 1292.17 264.912 1273.66L290.89 1218.24L317.202 1163.05C326.017 1144.69 334.926 1126.39 343.906 1108.14" fill="#72A9E1"/>
<path d="M565.782 319.773C565.778 319.745 565.504 317.833 565.134 314.252L568.535 313.739C568.713 315.497 568.873 316.836 568.983 317.734C569.092 318.632 569.156 319.073 569.156 319.073L565.782 319.773" fill="#BEBFBD"/>
<path d="M650.956 633.513C651.178 634.722 651.396 635.928 651.613 637.144L648.249 637.535C648.031 636.322 647.813 635.117 647.591 633.915L650.956 633.513Z" fill="#BEBFBD"/>
<path d="M574.2 275.512C585.371 275.512 594.423 266.312 594.423 254.957C594.423 243.598 585.371 234.398 574.2 234.398C562.998 234.398 553.946 243.598 553.946 254.957C553.946 266.312 562.998 275.512 574.2 275.512ZM537.257 254.67C539.097 235.893 551.822 217.204 574.2 217.204C596.547 217.204 609.276 235.893 611.113 254.67C613.942 283.647 594.706 309.899 574.2 333.851C553.659 309.899 534.423 283.647 537.257 254.67Z" fill="#72A9E1"/>
<path d="M649.62 610.37C661.093 610.37 670.389 601.332 670.389 590.169C670.389 579.006 661.093 569.968 649.62 569.968C638.112 569.968 628.815 579.006 628.815 590.169C628.815 601.332 638.112 610.37 649.62 610.37ZM611.675 589.886C613.566 571.437 626.639 553.067 649.62 553.067C672.566 553.067 685.639 571.437 687.529 589.886C690.434 618.364 670.68 644.163 649.62 667.703C628.529 644.163 608.774 618.364 611.675 589.886Z" fill="#72A9E1"/>
<path d="M909.304 1382.68C900.88 1385.4 660.753 1382.29 651.691 1376.36C648.212 1374.16 646.628 1339.15 645.924 1296.79C645.924 1296.35 645.92 1295.91 645.916 1295.47C645.753 1286.74 645.638 1277.75 645.621 1268.64C645.621 1267.39 645.616 1266.13 645.581 1264.88L657.229 1140.32L817.865 1141.93L802.008 1265.32L801.823 1270.21L800.855 1295.75L800.763 1298.38C800.763 1298.38 892.139 1340.67 901.425 1348.24C910.627 1355.78 917.732 1380 909.304 1382.68" fill="#FFA698"/>
<path d="M909.304 1382.68C900.88 1385.4 660.753 1382.29 651.691 1376.36C648.212 1374.17 646.628 1339.2 645.924 1296.89C645.924 1296.45 645.92 1296.01 645.916 1295.57C645.753 1286.84 645.638 1277.87 645.621 1268.77C645.621 1267.51 645.616 1266.26 645.581 1265.01L802.008 1265.45L801.823 1270.33L800.855 1295.84L800.763 1298.47C800.763 1298.47 892.139 1340.72 901.425 1348.28C910.627 1355.81 917.732 1380 909.304 1382.68" fill="#E7E8E5"/>
<path d="M909.308 1382.68C904.966 1384.08 839.65 1383.93 775.809 1382.65C762.971 1382.39 750.212 1382.1 738.04 1381.76C692.506 1380.51 654.887 1378.63 651.39 1376.35C647.933 1374.17 646.352 1340.02 645.652 1298.31C645.652 1297.73 645.616 1297.14 645.616 1296.54C645.616 1296.1 645.616 1295.62 645.581 1295.18H645.766L800.705 1295.48L800.634 1298.13C800.634 1298.13 892.133 1340.53 901.403 1348.12C910.63 1355.72 917.729 1379.99 909.308 1382.68" fill="#72A9E1"/>
<path d="M817.725 1292.44C801.985 1289.37 782.644 1291.49 770.444 1302.29C769.964 1302.7 770.583 1303.35 771.098 1303.2C786.733 1298.62 801.318 1295.73 817.642 1294.39C818.788 1294.29 818.858 1292.66 817.725 1292.44" fill="#17282F"/>
<path d="M829.795 1298.48C814.051 1295.41 794.71 1297.52 782.505 1308.32C782.034 1308.74 782.653 1309.39 783.168 1309.24C798.803 1304.66 813.384 1301.77 829.708 1300.42C830.854 1300.32 830.924 1298.7 829.795 1298.48" fill="#17282F"/>
<path d="M841.832 1306.52C825.427 1303.45 805.286 1305.57 792.573 1316.37C792.078 1316.78 792.718 1317.44 793.258 1317.28C809.545 1312.7 824.732 1309.82 841.736 1308.46C842.935 1308.37 843.003 1306.74 841.832 1306.52" fill="#17282F"/>
<path d="M776.305 1381.66C763.418 1381.4 750.611 1381.12 738.391 1380.79C692.684 1379.55 654.921 1377.69 651.411 1375.43C647.941 1373.28 646.353 1339.51 645.651 1298.28C645.651 1297.7 645.615 1297.11 645.615 1296.53C645.615 1296.09 645.615 1295.62 645.58 1295.18H645.766C667.065 1309.94 742.154 1359.26 776.305 1381.66Z" fill="#17282F"/>
<path d="M808.76 1265.01H635.507C635.507 1265.01 670.396 861.57 669.03 854.523C667.302 845.503 657.07 804.663 643.457 751.316C639.187 734.62 634.586 716.715 629.805 698.157C616.884 647.963 602.646 593.108 590.241 545.375C571.627 473.864 557.089 418.319 557.089 418.319H703.918C703.918 418.319 721.029 472.397 742.596 542.77C777.736 657.133 824.699 814.536 829.33 852.805C836.835 914.589 808.76 1265.01 808.76 1265.01" fill="#17282F"/>
<path d="M804.088 1262.53C777.452 1261.86 785.103 1261.59 758.462 1261.28C745.43 1261.13 659.767 1260.22 647.591 1262.67V1263.34C659.772 1265.78 745.43 1264.88 758.462 1264.72C785.103 1264.42 777.452 1264.15 804.088 1263.48C804.585 1263.46 804.585 1262.54 804.088 1262.53" fill="#273E47"/>
<path d="M699.692 829.862C694.013 804.862 685.536 780.36 678.158 755.822C663.157 705.959 648.037 656.132 632.886 606.317C625.315 581.41 617.727 556.499 610.063 531.622C606.19 519.059 602.325 506.491 598.394 493.949C594.538 481.676 590.159 469.504 586.681 457.121C585.268 452.084 584.494 454.851 586.303 461.247C589.956 474.145 593.561 487.061 597.32 499.928C604.777 525.411 612.291 550.872 619.826 576.334C634.828 627.002 650.031 677.612 665.222 728.227C672.841 753.596 680.509 778.961 688.128 804.33C691.773 816.453 695.343 828.652 697.486 841.149C699.723 854.179 699.837 867.367 699.014 880.538C697.354 906.994 694.286 933.414 691.843 959.813C689.396 986.268 686.944 1012.72 684.493 1039.17C679.62 1091.82 674.734 1144.47 669.993 1197.13C669.395 1203.8 668.813 1210.47 668.294 1217.15C668.122 1219.39 671.507 1219.22 671.741 1217.07C677.441 1165.01 681.812 1112.79 686.702 1060.65C691.571 1008.76 696.439 956.883 701.289 905.001C702.509 891.976 703.891 878.924 703.904 865.832C703.913 853.682 702.381 841.699 699.692 829.862" fill="#273E47"/>
<path d="M685.803 418.32C675.723 496.672 656.51 643.585 642.496 750.16C609.747 621.023 557.089 418.32 557.089 418.32H685.803Z" fill="#273E47"/>
<path d="M726.321 1384.51C717.925 1387.27 478.195 1385.03 469.131 1379.11C465.644 1376.92 463.932 1341.8 463.08 1299.31C463.075 1298.87 463.071 1298.42 463.067 1297.98C462.869 1289.23 462.724 1280.2 462.676 1271.07C462.667 1269.81 462.663 1268.55 462.614 1267.3C462.057 1205.97 466.461 1142.34 466.461 1142.34L623.159 1143.36L618.785 1267.17L618.618 1272.07L617.744 1297.69L617.661 1300.33C617.661 1300.33 709.041 1342.43 718.333 1349.99C727.547 1357.52 734.726 1381.79 726.321 1384.51" fill="#FFA698"/>
<path d="M726.321 1384.51C717.923 1387.27 478.149 1385.03 469.083 1379.11C465.596 1376.91 463.883 1341.75 463.031 1299.21C463.027 1298.77 463.022 1298.32 463.018 1297.88C462.82 1289.11 462.675 1280.08 462.627 1270.94C462.618 1269.67 462.614 1268.41 462.566 1267.16L618.765 1267.03L618.598 1271.93L617.724 1297.59L617.64 1300.23C617.64 1300.23 709.037 1342.38 718.331 1349.95C727.546 1357.49 734.727 1381.79 726.321 1384.51" fill="#E7E8E5"/>
<path d="M726.314 1384.51C717.902 1387.28 477.722 1385.02 468.641 1379.08C465.148 1376.87 463.432 1341.55 462.579 1298.82C462.574 1298.37 462.57 1297.93 462.566 1297.48L617.534 1297.19L617.45 1299.85C617.45 1299.85 709.002 1342.18 718.311 1349.79C727.542 1357.36 734.735 1381.77 726.314 1384.51" fill="#72A9E1"/>
<path d="M634.712 1294.4C618.94 1291.41 599.599 1293.58 587.425 1304.31C586.954 1304.73 587.574 1305.37 588.088 1305.22C603.717 1300.63 618.299 1297.72 634.629 1296.32C635.781 1296.22 635.838 1294.61 634.712 1294.4Z" fill="#17282F"/>
<path d="M646.742 1300.63C630.316 1297.15 610.169 1299.67 597.487 1312.2C596.996 1312.69 597.646 1313.43 598.178 1313.26C614.458 1307.9 629.648 1304.51 646.661 1302.88C647.856 1302.76 647.919 1300.88 646.742 1300.63" fill="#17282F"/>
<path d="M656.832 1308.47C641.063 1305.49 621.717 1307.65 609.547 1318.39C609.076 1318.8 609.691 1319.45 610.206 1319.29C625.835 1314.7 640.417 1311.79 656.749 1310.39C657.9 1310.3 657.961 1308.69 656.832 1308.47" fill="#17282F"/>
<path d="M699.881 418.319C699.881 418.319 696.502 488.424 680.443 543.955C679.158 548.542 677.763 553.058 676.254 557.39C676.254 557.39 659.539 563.45 634.003 579.097C634.003 579.097 632.313 635.508 630.624 698.418C628.745 768.742 626.8 847.185 627.205 863.822C628.675 926.068 619.422 1268.34 619.422 1268.34L446.476 1269.04C446.476 1269.04 477.745 886.809 477.525 864.007C477.191 827.356 485.902 665.364 492.625 547.222C496.739 474.435 500.118 418.319 500.118 418.319H699.881" fill="#17282F"/>
<path d="M615.043 1263.54C588.747 1263.28 596.301 1263.13 570.001 1263.05C557.131 1263 472.565 1262.78 460.553 1264.01L460.558 1264.33C472.587 1265.5 557.144 1264.84 570.014 1264.73C596.309 1264.51 588.756 1264.4 615.043 1264.01C615.537 1264 615.533 1263.55 615.043 1263.54" fill="#273E47"/>
<path d="M513.615 443.065C510.336 539.605 506.868 636.154 502.422 732.65C497.971 829.481 491.967 926.267 483.631 1022.86C478.977 1076.82 474.589 1152.73 468.599 1206.57L469.179 1206.69C482.137 1110.93 489.359 992.521 495.73 896.148C502.1 799.797 506.42 703.274 509.798 606.778C511.713 552.195 513.171 497.595 514.855 443.003C514.873 442.228 513.642 442.294 513.615 443.065Z" fill="#273E47"/>
<path d="M682.153 553.158C664.614 559.76 647.819 568.781 631.799 578.167C631.167 578.532 631.643 579.463 632.324 579.148C649.316 571.317 666.667 563.78 683.184 555.078C684.483 554.394 683.497 552.652 682.153 553.158" fill="#273E47"/>
<path d="M690.999 468.921C689.495 477.085 687.532 485.167 685.789 493.282C684.149 500.896 682.941 508.666 680.951 516.19C679.019 523.492 675.936 530.181 670.386 535.393C667.427 538.171 664.163 540.622 661.01 543.168C659.316 544.534 657.477 545.856 655.708 547.245C655.938 546.169 656.123 545.07 656.318 543.954C656.857 540.863 657.375 537.764 657.888 534.665C659.033 527.788 660.121 520.902 661.165 514.011C663.217 500.467 665.106 486.775 667.905 473.365C668.016 472.815 667.206 472.61 667.069 473.155C663.726 486.445 660.037 499.587 657.127 512.993C655.694 519.567 650.604 552.019 650.378 554.318C650.144 556.69 649.95 559.065 649.866 561.446C649.782 563.799 649.322 566.429 649.857 568.734C649.994 569.328 650.706 569.234 650.954 568.832L650.984 568.859C652.156 566.791 652.448 564.089 653.032 561.803C653.62 559.485 654.138 557.136 654.553 554.778C654.699 553.934 654.814 553.064 654.934 552.193C658.1 550.25 661.046 547.682 664.009 545.517C667.197 543.19 670.448 540.912 673.464 538.349C679.244 533.437 682.853 527.417 685.002 520.138C687.24 512.587 687.926 504.615 688.792 496.814C689.81 487.592 690.561 478.321 691.83 469.136C691.91 468.591 691.101 468.363 690.999 468.921" fill="#273E47"/>
<path d="M634.856 211.993C642.668 242.375 673.683 311.768 725.751 369.004C745.88 391.088 905.223 414.467 922.045 409.634C933.816 406.252 968.34 304.206 957.102 295.634C944.323 285.884 884.337 288.927 837.774 291.965C807.552 293.936 782.989 295.907 780.655 294.386C771.614 288.429 712.474 240.25 675.585 196.265C648.675 164.212 621.932 161.438 634.856 211.993" fill="#FFA698"/>
<path d="M667.921 303.684L764.238 275.219C764.238 275.219 687.533 195.324 658.388 178.232C625.585 159.002 622.984 180.088 631.884 215.277C640.792 250.47 667.921 303.684 667.921 303.684Z" fill="#72A9E1"/>
<path d="M745.971 261.45C742.47 261.924 712.181 270.485 705.644 272.496C699.097 274.501 672.274 282.439 665.693 285.091L665.807 285.583C672.73 284.255 699.804 276.327 706.51 274.42C713.22 272.518 743 263.365 746.139 261.897L745.971 261.45" fill="#17282F"/>
<path d="M705.914 292.697L668.381 303.684C668.381 303.684 640.948 250.465 631.933 215.294C625.356 189.564 624.991 171.338 638.207 170.948L705.914 292.697" fill="#17282F"/>
<path d="M484.687 486.669L734.07 485.493C734.088 490.389 679.975 206.261 653.917 172.22C648.335 164.938 610.229 155.736 593.027 171.775C517.642 242.063 484.701 489.848 484.687 486.669Z" fill="#72A9E1"/>
<path d="M669.312 301.673L681.781 291.685L677.298 251.394L645.58 253.618L647.501 295.829L669.312 301.673" fill="#5B87B4"/>
<path d="M637.057 206.902C625.299 209.757 607.891 187.289 599.418 170.396C598.848 169.234 600.978 157.301 602.882 142.68C604.006 133.803 605.047 123.887 605.352 114.774C605.404 112.906 661.67 130.575 661.67 130.575C661.67 130.575 655.453 149.49 655.022 165.384C655 166.712 655.092 167.954 655.292 169.138L655.349 169.76C656.264 176.9 649.638 203.845 637.057 206.902" fill="#FFA698"/>
<path d="M655.306 170.135L655.341 170.772C653.56 170.961 651.635 170.996 649.522 170.884C616.132 168.974 608.715 125.605 607.369 114.635C617.404 116.47 661.67 130.7 661.67 130.7C661.67 130.7 655.454 150.061 655.014 166.319C655.014 167.664 655.088 168.938 655.306 170.135" fill="#17282F"/>
<path d="M594.221 46.2048C589.436 66.8842 603.912 124.714 619.052 136.802C641 154.328 674.996 153.854 689.25 127.657C703.073 102.265 682.891 27.2385 666.158 16.4552C641.518 0.572304 601.284 15.6602 594.221 46.2048Z" fill="#FFA698"/>
<path d="M651.857 76.4238L651.578 76.8702C652.99 81.01 653.764 85.9439 649.603 88.2652L649.722 88.4907C655.101 86.7004 654.003 80.1548 651.857 76.4238Z" fill="#17282F"/>
<path d="M647.636 74.4558C640.628 75.464 643.506 87.3615 649.998 86.4273C656.398 85.5096 653.516 73.608 647.636 74.4558Z" fill="#17282F"/>
<path d="M673.736 72.4013L674.091 72.7044C674.745 76.9108 676.125 81.5976 679.757 82.2086L679.77 82.4464C675.525 82.7495 673.753 76.5005 673.736 72.4013" fill="#17282F"/>
<path d="M676.044 68.5426C681.438 66.8541 684.139 78.7481 679.144 80.3079C674.225 81.8512 671.524 69.9573 676.044 68.5426Z" fill="#17282F"/>
<path d="M641.441 70.0791C642.957 69.1736 644.23 68.0216 645.653 66.93C647.259 65.7026 648.637 64.928 649.452 62.7095C649.89 61.5123 649.326 59.7215 648.434 59.0877C646.354 57.6037 644.084 58.5041 642.106 59.8874C639.957 61.3865 638.611 63.2226 637.711 66.0648C636.835 68.8215 639.446 71.2763 641.441 70.0791" fill="#17282F"/>
<path d="M679.016 60.3216C677.235 60.385 675.578 60.1983 673.809 60.1103C671.808 60.0081 670.203 60.0961 668.542 59.0603C667.651 58.5036 667.453 57.1685 668.03 56.4075C669.376 54.6389 671.86 54.2618 674.274 54.3041C676.89 54.3464 678.891 54.9278 680.884 56.3123C682.816 57.6546 681.366 60.2406 679.016 60.3216Z" fill="#17282F"/>
<path d="M654.041 114.921C655.397 115.799 656.842 117.095 658.589 116.884C660.261 116.683 662.034 115.535 663.421 114.635L663.68 114.836C662.825 116.91 660.477 118.582 658.209 118.656C655.993 118.719 654.552 117.085 653.624 115.233L654.041 114.921Z" fill="#17282F"/>
<path d="M655.636 102.481C658.772 105.437 662.686 106.634 666.614 106.59C668.367 106.581 670.153 106.296 671.859 105.814L672.825 105.52L673.73 105.209C674.209 105.047 674.394 104.617 674.379 104.17L674.375 104.139L674.247 103.744L674.237 103.718L674.157 103.376C673.569 100.333 672.224 95.7946 672.224 95.7946C673.545 96.119 680.198 97.4915 679.748 95.9261C675.986 83.0127 671.797 68.6436 665.107 56.5238C664.908 56.116 664.221 56.3527 664.354 56.7737C667.443 69.3232 672.892 81.2807 676.208 93.8389C674.114 93.532 670.66 92.8699 668.959 93.2295C668.523 93.44 671.726 101.955 671.868 103.341L671.873 103.49C666.528 105.191 662.046 104.446 655.958 102.052L655.636 102.481" fill="#17282F"/>
<path d="M669.713 104.461C669.713 104.461 667.696 107.922 664.161 109.636C662.861 110.269 661.383 110.681 659.704 110.604C656.265 110.459 655.567 108.082 655.64 105.939C655.685 104.177 656.288 102.569 656.288 102.569C656.288 102.569 661.972 105.342 669.713 104.461" fill="#17282F"/>
<path d="M663.68 109.78C662.453 110.32 661.058 110.671 659.475 110.606C656.229 110.481 655.571 108.454 655.64 106.625C659.01 106.376 662.737 107.507 663.68 109.78" fill="#F576B7"/>
<path d="M679.77 33.8646C676.594 29.349 673.077 24.864 669.866 24.4935C666.66 24.123 666.186 31.7942 659.44 33.6423C654.71 34.9412 650.758 33.5377 646.217 32.1342C642.023 30.8354 637.324 29.5365 631.039 30.369C612.229 32.8621 607.241 49.8957 612.186 76.0957C616.608 99.4973 602.862 104.58 602.862 104.58C602.862 104.58 583.635 54.9082 594.724 34.9063C605.818 14.9087 637.767 0.568832 663.626 12.237C673.055 16.4954 679.77 33.8646 679.77 33.8646" fill="#17282F"/>
<path d="M612.702 93.6889C612.702 93.6889 597.973 76.0596 589.888 81.4823C581.798 86.905 594.004 113.26 604.304 116.113C614.604 118.966 617.424 109.46 617.424 109.46L612.702 93.6889" fill="#FFA698"/>
<path d="M593.32 88.4906L593.29 88.7637C600.404 91.0197 604.576 97.259 607.688 103.842C605.423 101.405 602.516 100.22 599.322 103.031L599.54 103.392C602.302 102.516 604.379 102.837 606.474 104.992C607.958 106.516 609.056 108.512 610.18 110.328C610.557 110.931 611.638 110.495 611.339 109.786L611.271 109.627C610.681 100.581 602.802 88.5523 593.32 88.4906" fill="#17282F"/>
<path d="M675.748 23.0071C670.047 22.7525 639.847 29.5827 627.357 38.138C614.862 46.6845 594.453 71.0993 593.403 72.3767C592.353 73.6584 576.388 24.6532 615.19 7.57333C657.469 -11.0341 675.748 23.0071 675.748 23.0071" fill="#72A9E1"/>
<path d="M595.301 68.3794C595.301 68.3794 615.284 28.6104 628.648 17.8606C642.012 7.11069 674.574 -3.72477 697.025 1.24099C714.531 5.1142 679.19 32.8864 679.19 32.8864C679.19 32.8864 676.981 27.4793 671.392 26.4553C660.54 24.4716 642.021 31.1126 631.835 36.7639C619.014 43.8805 595.301 68.3794 595.301 68.3794Z" fill="#72A9E1"/>
<path d="M595.301 68.3794C595.301 68.3794 619.015 43.8811 631.835 36.7647C635.114 34.9439 639.261 33.0202 643.736 31.315C651.442 28.3844 660.121 26.1008 667.05 26.1008C667.156 26.1008 667.265 26.1008 667.366 26.1008C668.795 26.1136 670.145 26.2293 671.394 26.4564C676.983 27.4804 679.192 32.8873 679.192 32.8873C679.192 32.8873 701.91 15.0342 701.893 5.95978C701.888 3.71475 700.494 2.00965 697.027 1.24275C693.161 0.385864 689.002 0.000204292 684.693 0.000204292C663.943 0.000204292 639.712 8.95888 628.649 17.8619C615.284 28.6115 595.301 68.3794 595.301 68.3794" fill="#72A9E1"/>
<path d="M671.725 553.067H474.632V333.851H671.725V553.067Z" fill="#72A9E1"/>
<path d="M474.632 553.067H671.725V333.851H474.632V553.067" fill="#5B87B4"/>
<path d="M772.283 553.067H671.726V333.851H772.283V553.067Z" fill="#72A9E1"/>
<path d="M671.726 553.067H772.283V333.851H671.726V553.058V553.067" fill="#72A9E1"/>
<path d="M589.268 382.119H582.189L580.452 378.405L578.024 382.119L574.726 374.47L571.602 382.119H562.663H558.584L557.112 377.016L555.717 382.119H553.067V333.851H589.268V382.119" fill="white"/>
<path d="M766.25 536.978C758.65 521.553 751.113 506.084 743.66 490.559L721.389 443.899L699.408 397.038C692.115 381.394 684.901 365.689 677.759 349.94C685.363 365.361 692.896 380.834 700.354 396.359L722.62 443.019L744.597 489.884C751.895 505.528 759.103 521.233 766.25 536.978" fill="#72A9E1"/>
<path d="M766.25 349.94C759.103 365.689 751.895 381.39 744.597 397.038L722.62 443.899L700.354 490.559C692.896 506.084 685.363 521.557 677.759 536.978C684.901 521.229 692.115 505.528 699.408 489.88L721.389 443.019L743.66 396.364C751.113 380.838 758.65 365.365 766.25 349.94" fill="#72A9E1"/>
<path d="M546.984 191.494C498.99 227.617 405.85 308.521 397.707 352.29C387.013 409.724 435.922 522.682 456.791 544.512C470.883 559.258 532.887 505.096 536.598 491.521C540.305 477.949 489.976 386.531 489.549 376.02C489.127 365.505 553.58 269.324 581.519 226.667C616.77 172.853 587.609 160.917 546.984 191.494Z" fill="#FFA698"/>
<path d="M561.655 498.495C557.266 493.528 559.901 491.246 571.641 493.476C583.518 495.706 627.877 514.238 633.192 498.555C638.559 482.829 575.339 457.607 555.508 455.356C535.677 453.057 502.789 456.232 502.789 456.232C514.075 463.554 539.705 483.856 561.655 498.495" fill="#FFA698"/>
<path d="M450.498 536.92C470.496 569.776 528.494 590.482 571.764 591.275C580.256 591.427 585.217 587.328 585.217 587.328C604.604 588.02 610.764 579.216 610.764 579.216C629.023 574.415 634.058 564.561 634.058 564.561C634.058 564.561 656.835 565.132 659.464 551.636C662.469 536.515 629.899 538.671 611.251 529.079C568.525 507.092 514.032 464.077 502.354 456.532L450.498 536.92" fill="#FFA698"/>
<path d="M549.666 537.078C562.342 543.347 574.625 549.831 588.092 554.363C602.87 559.329 617.922 561.65 633.19 564.392C633.667 564.476 633.596 565.142 633.111 565.134C604.685 564.515 572.815 553.525 549.37 537.648C548.804 537.262 549.025 536.762 549.666 537.078Z" fill="#17282F"/>
<path d="M533.694 561.222C546.347 566.398 568.647 575.346 611.382 578.8L611.391 579.047C583.331 580.312 558.017 574.257 533.439 561.796C532.676 561.41 532.857 560.879 533.694 561.222Z" fill="#17282F"/>
<path d="M523.75 573.262C545.758 581.469 560.705 583.947 585.246 587.004L585.237 587.257C556.975 586.614 546.796 583.287 523.355 573.952C522.552 573.631 522.893 572.941 523.75 573.262" fill="#17282F"/>
<path d="M543.972 297.65L452.511 255.606C452.511 255.606 540.176 188.028 571.57 175.426C606.905 161.241 606.433 182.399 592.51 215.781C578.588 249.162 543.972 297.65 543.972 297.65" fill="#72A9E1"/>
<path d="M472.851 245.36C476.252 246.362 505.048 259.482 511.243 262.473C517.45 265.464 542.899 277.441 549.045 281.085L548.859 281.561C542.191 279.192 516.485 267.188 510.109 264.275C503.733 261.362 475.521 247.725 472.621 245.781L472.851 245.36" fill="#17282F"/>
<path d="M537.492 295.405C540.308 296.482 544.626 298.332 544.626 298.332C551.297 285.895 559.304 274.063 566.504 261.937C573.83 249.594 581.505 237.504 588.979 225.249L589.268 225.431C585.465 232.637 581.658 239.812 577.785 246.947C578.418 246.146 579.06 245.346 579.697 244.545C581.955 241.676 584.29 238.878 586.456 235.938L586.862 236.192C584.932 239.328 582.932 242.45 580.623 245.31C578.994 247.33 577.244 249.216 575.467 251.08C573.223 255.163 571.005 259.255 568.647 263.29C561.422 275.647 554.336 289.921 546.184 301.673C546.184 301.673 540.037 298.123 537.134 296.001C536.78 295.739 537.082 295.25 537.492 295.405" fill="#17282F"/>
<path d="M790.383 430.104L940.956 442.453L991.498 237.598L840.92 225.249L790.383 430.104" fill="#273E47"/>
<path d="M876.863 241.645L947.775 247.372L953.287 224.937L882.38 219.215L876.863 241.645" fill="#999B9B"/>
<path d="M898.985 220.099L907.902 220.806L910.498 210.394L932.179 212.116L929.579 222.531L938.5 223.238L943.23 204.268L903.589 201.116L898.985 220.099" fill="#999B9B"/>
<path d="M1013.57 331.95C1012.25 344.668 1000.9 346.688 1000.9 346.688C1000.9 346.688 1013.12 356.604 1009.67 369.169C1007.89 375.633 995.932 378.491 995.932 378.491C995.932 378.491 1005.37 386.862 1001.61 397.847C998.608 406.594 987.072 408.152 987.072 408.152C987.072 408.152 992.363 420.376 986.43 428.315C974.398 444.419 896.47 426.905 890.928 395.691C888.344 381.141 907.149 386.448 907.149 386.448C907.149 386.448 881.967 372.333 885.193 356.29C888.418 340.242 912.423 348.6 912.423 348.6C912.423 348.6 888.146 334.713 893.178 318.412C898.417 301.439 920.992 313.882 920.992 313.882C920.992 313.882 906.323 298.323 913.055 286.718C924.17 267.558 957.596 302.211 975.641 302.028L982.712 275.528C982.712 275.528 1015.04 317.866 1013.57 331.95" fill="#FFA698"/>
<path d="M985.465 409.807L985.452 410.256C958.102 410.728 927.917 402.425 905.372 385.822C904.63 385.275 905.15 383.773 906.074 384.208C932.424 396.647 956.747 405.47 985.465 409.807" fill="#17282F"/>
<path d="M995.521 379.536L995.43 380.101C967.899 380.405 934.928 370.654 911.633 349.567C910.834 348.843 910.83 347.383 911.811 348.142C928.347 360.973 970.252 375.984 995.521 379.536" fill="#17282F"/>
<path d="M919.879 311.844C943.168 331.205 970.268 341.084 999.543 347.191L999.438 347.827C984.31 348.777 966.05 342.921 952.226 337.154C938.98 331.624 928.132 323.954 919.209 312.666C918.864 312.229 919.38 311.429 919.879 311.844Z" fill="#17282F"/>
<path d="M659.658 179.031C658.832 183.602 657.593 188.041 655.959 192.326C654.401 196.63 652.576 200.834 650.32 204.739C648.033 208.594 645.457 212.355 642.171 214.998C640.528 216.278 638.73 217.278 636.869 217.582C635.373 217.821 633.13 217.134 631.234 216.342C623.281 212.993 616.714 206.4 610.865 199.603C609.396 197.883 608.028 196.06 606.625 194.268C605.328 192.39 603.965 190.557 602.713 188.638C601.46 186.72 600.146 184.833 598.929 182.882C597.757 180.9 596.549 178.936 595.301 176.981C598.734 185.597 603.081 193.887 608.636 201.422C614.222 208.848 620.892 215.934 629.884 219.772C632.18 220.605 634.436 221.532 637.473 221.129C640.129 220.659 642.416 219.292 644.298 217.686C648.06 214.405 650.644 210.296 652.713 206.06C656.772 197.557 659.378 188.362 659.658 179.031" fill="#17282F"/>
</svg>
