<svg width="1083" height="1423" viewBox="0 0 1083 1423" fill="none" xmlns="http://www.w3.org/2000/svg">
<path d="M699.879 384.953C704.391 374.833 714.736 368.054 726.352 368.836C733.755 369.334 740.236 372.818 744.723 378.032C749.384 368.315 759.58 361.869 770.921 362.651C782.463 363.433 791.661 371.444 794.677 381.966C799.961 377.132 807.065 374.311 814.718 374.833C829.525 375.852 840.617 388.697 839.52 403.581C839.471 404.15 839.296 404.671 839.221 405.24C844.257 396.613 853.779 391.02 864.348 391.755C877.235 392.631 887.28 402.491 888.951 414.838C890.546 414.649 892.191 414.554 893.861 414.672C899.968 415.099 905.378 417.611 909.64 421.356C914.925 413.938 923.724 409.316 933.42 409.956C948.227 410.952 959.32 423.821 958.223 438.704C957.949 442.236 956.976 445.554 955.53 448.564C956.204 448.564 956.827 448.445 957.5 448.493C964.928 448.99 971.359 452.521 975.821 457.783C980.507 458.186 984.695 460.082 987.985 462.95C992.223 458.944 998.006 456.598 1004.26 457.024C1016.13 457.83 1025.03 468.14 1024.13 480.061C1023.96 482.336 1023.36 484.469 1022.53 486.484C1027.12 487.456 1031.16 489.825 1034.1 493.191C1038.29 486.887 1045.54 482.881 1053.54 483.426C1065.41 484.232 1074.31 494.542 1073.41 506.463C1073.26 508.43 1072.79 510.278 1072.16 512.032L974.326 478.686V478.71L699.879 384.953Z" fill="#66C1A7"/>
<path d="M878.01 479.611C850.665 483.83 852.285 488.072 848.771 488.522C844.608 489.044 795.252 465.486 795.252 465.486C795.252 465.486 649.28 396.992 641.527 393.011L536.161 266.974L454.949 302.571C454.949 302.571 573.452 436.572 580.955 442.473C588.458 448.374 797.77 518.171 815.967 524.902C815.967 524.902 834.313 540.852 846.203 550.474C858.068 560.097 873.947 563.936 877.761 566.116C878.309 566.448 891.421 573.013 909.917 576.853C925.87 580.147 912.584 569.861 912.584 569.861C912.584 569.861 884.366 558.532 885.762 556.494C886.834 554.906 901.84 561.993 919.439 565.832C923.975 566.827 928.437 567.775 932.55 568.605C943.344 570.833 948.105 564.955 937.236 560.855C933.398 559.409 926.967 557.158 922.131 556.21C916.896 555.167 912.509 552.56 908.271 551.019C899.871 547.986 893.689 545.853 894.013 545.592C894.437 545.237 893.265 543.459 898.101 544.36C903.934 545.45 915.675 550.427 924.374 551.351C929.31 551.873 939.555 553.603 939.555 553.603C939.555 553.603 957.652 555.262 957.776 552.844C958.05 547.583 946.908 544.62 940.053 544.763C935.741 542.677 924.898 541.16 924.898 541.16C924.898 541.16 903.884 533.292 905.106 530.329C905.579 529.144 918.317 530.969 931.803 531.846C946.061 532.77 956.405 532.77 957.153 530.14C958.35 525.968 947.008 524.404 947.008 524.404C947.008 524.404 936.987 523.006 933.722 522.319C929.883 521.489 918.591 518.124 918.591 518.124C918.591 518.124 879.954 504.638 881.35 501.913C882.746 499.211 889.127 493.523 891.844 493.547C894.562 493.57 899.447 496.154 902.164 496.154C904.881 496.177 910.739 495.68 911.163 492.409C911.562 489.162 896.431 482.408 896.431 482.408C896.431 482.408 885.887 478.402 878.01 479.611Z" fill="#F8A492"/>
<path d="M609.469 345.018C609.469 345.018 583.171 367.723 572.253 375.188C563.154 381.398 518.859 401.685 518.859 401.685C518.859 401.685 474.788 337.529 455.52 305.344C432.138 266.31 415.96 208.268 421.469 206.68C436.974 202.272 458.312 199.57 478.029 208.174C546.229 237.965 609.469 345.018 609.469 345.018Z" fill="#52B79A"/>
<path d="M852.46 513.147C864.15 514.9 876.116 512.791 881.3 502.6C882.472 514.687 863.228 520.659 852.46 513.147Z" fill="#FE875E"/>
<path d="M698.231 378.869L1081.95 513.676L986.001 760.548L602.287 625.741L698.231 378.869Z" fill="#FFF8F5"/>
<path d="M946.446 466.201L1082.2 513.88L986.283 760.752L850.53 713.073L946.446 466.201Z" fill="#FFECE3"/>
<path d="M177.979 1328.43C177.979 1328.43 175.063 1377.56 175.038 1377.65C173.966 1383.89 169.753 1399.29 169.753 1404.96C169.753 1426.26 269.137 1386.87 246.853 1377.44C244.834 1376.59 234.264 1370.12 233.616 1362.89C232.594 1351.73 230.002 1329.12 230.002 1329.12L177.979 1328.43Z" fill="#F7A491"/>
<path d="M247.83 1377.65C247.83 1377.65 224.498 1384.17 212.557 1385.81C200.617 1387.44 184.863 1373.72 176.388 1377.42C167.09 1381.49 167.439 1418.18 167.439 1418.18C167.439 1418.18 292.574 1428.63 327.746 1417.83C341.705 1413.54 295.54 1392.82 247.83 1377.65Z" fill="#422226"/>
<path d="M12.4873 1328.12C12.4873 1328.12 9.57071 1377.25 9.54579 1377.35C8.47393 1383.58 4.26128 1398.98 4.26128 1404.67C4.26128 1425.98 103.645 1386.59 81.3606 1377.16C79.3415 1376.3 65.6564 1365.02 64.9834 1357.77C63.9614 1346.61 64.5099 1328.83 64.5099 1328.83L12.4873 1328.12Z" fill="#F7A491"/>
<path d="M81.1144 1376.92C81.1144 1376.92 57.7826 1383.44 45.8426 1385.07C33.9026 1386.71 18.1487 1372.99 9.6735 1376.68C0.375728 1380.76 0.00181048 1417.47 0.00181048 1417.47C0.00181048 1417.47 122.867 1423.23 159.684 1418.04C174.167 1415.98 128.825 1392.09 81.1144 1376.92Z" fill="#422226"/>
<path d="M41.9802 545.687C41.9802 545.687 25.1296 628.542 32.0095 691.371C38.8644 754.2 39.413 977.384 39.413 977.384L7.75554 1334.35L75.3825 1335.85C75.3825 1335.85 149.067 978.924 147.696 988.072C146.325 997.244 172.398 736.757 172.398 736.757L84.5557 537.794L41.9802 545.687Z" fill="#17282F"/>
<path d="M65.5385 492.171C65.5385 492.171 -10.7632 568.581 17.6286 652.052C29.0203 685.588 135.359 1005.85 136.755 1032.04C138.126 1058.22 172.725 1347.56 172.725 1347.56L244.988 1345.49L260.617 1023.79L239.953 590.337L196.081 517.246L65.5385 492.171Z" fill="#243D47"/>
<path d="M528.777 243.463C503.8 216.966 449.41 179.236 449.41 179.236C449.41 179.236 417.004 152.928 403.818 148.591C384.375 142.216 351.098 125.223 302.939 194.617C268.489 244.269 51.0263 501.391 15.3309 510.065L248.448 616.099C254.829 565.452 370.042 469.775 386.618 451.929C423.635 412.042 552.433 268.561 528.777 243.463Z" fill="#66C1A7"/>
<path d="M191.643 416.853C257.474 373.245 361.494 278.065 361.494 278.065C416.209 329.257 454.945 374.027 454.945 374.027C377.124 489.422 316.327 520.162 316.327 520.162C285.069 516.678 218.19 455.579 206.898 440.695C195.606 425.859 191.643 416.853 191.643 416.853Z" fill="#FFF8F5"/>
<path d="M510.258 222.275C492.634 304.491 457.537 362.319 454.945 368.505C447.99 366.443 447.467 362.58 447.467 362.58C473.516 311.506 504.998 226.043 504.998 226.043C506.619 223.247 510.258 222.275 510.258 222.275Z" fill="#FFECE3"/>
<path d="M517.915 135.745L445.303 176.154C445.303 176.154 443.259 235.073 466.989 250.383C486.906 263.228 502.062 232.395 502.062 232.395C502.062 232.395 529.058 196.821 549.572 185.729C570.087 174.685 517.915 135.745 517.915 135.745Z" fill="#F7A491"/>
<path d="M361.495 278.066C406.862 215.308 438.943 171.06 438.943 171.06C444.751 173.098 449.188 173.975 449.188 173.975C415.885 240.406 372.986 305.345 367.128 302.121C352.147 298.922 361.495 278.066 361.495 278.066Z" fill="#FFECE3"/>
<path d="M505.724 161.673C508.466 173.974 514.772 191.749 524.569 206.395C532.57 198.171 541.569 190.09 549.571 185.753C559.043 180.633 553.011 169.589 543.788 159.185C530.751 146.292 517.913 135.745 517.913 135.745L503.954 143.519C503.057 148.544 504.827 157.573 505.724 161.673Z" fill="#F47458"/>
<path d="M555.73 34.4285C554.508 33.0065 494.808 103.633 502.187 136.765C509.54 169.898 545.634 200.139 570.711 191.821C598.455 182.625 650.029 99.4616 631.533 59.0766C613.037 18.7154 555.73 34.4285 555.73 34.4285Z" fill="#F7A491"/>
<path d="M621.083 12.1501C595.059 -1.61961 552.607 -5.55382 520.9 10.2304C481.914 29.6408 473.015 78.4866 485.229 108.278C497.444 138.069 483.459 154.919 483.459 154.919L504.149 143.425C504.149 143.425 516.239 125.508 517.809 111.217C519.379 96.9254 541.315 99.4613 552.009 92.9674C560.26 87.9904 570.779 71.7559 584.115 63.3424C584.115 63.3424 617.693 59.4319 634.219 68.2483C662.362 83.2504 658.374 31.8686 621.083 12.1501Z" fill="#422226"/>
<path d="M535.237 104.865C535.436 115.459 530.152 124.133 523.471 124.251C516.791 124.346 511.207 115.838 511.008 105.244C510.808 94.6498 516.093 85.9756 522.773 85.8571C529.479 85.7623 535.062 94.2707 535.237 104.865Z" fill="#F7A491"/>
<path d="M596.383 161.129L564.775 138.661C564.775 138.661 556.425 150.796 570.01 161.082C586.587 173.572 596.383 161.129 596.383 161.129Z" fill="white"/>
<path d="M675.745 608.042C667.818 597.045 664.379 581.19 653.436 569.079C649.771 565.003 643.914 560.428 637.233 555.854C584.588 526.561 447.44 451.076 442.08 445.199C435.749 438.254 342.148 290.366 342.148 290.366L426.227 272.259L508.386 410.193C515.241 415.384 645.683 507.032 645.683 507.032C645.683 507.032 671.607 526.3 685.791 535.306C692.945 539.288 699.899 541.848 705.982 543.862C713.634 546.398 728.216 553.295 731.158 555.76C734.573 558.627 741.453 564.766 745.516 568.487C749.604 572.231 754.539 576.45 756.434 578.677C757.605 580.028 761.195 581.901 763.837 583.157C767.776 585.029 767.277 590.575 763.039 591.712C759.051 592.779 753.642 590.409 750.302 588.916C740.854 584.697 729.338 573.298 728.715 574.696C728.117 576.094 739.807 600.505 740.979 603.373C742.126 606.241 755.586 634.681 756.259 641.032C756.957 647.36 752.944 648.83 749.953 646.507C747.385 644.516 725.749 606.549 725.749 606.549C725.749 606.549 722.982 601.714 721.91 604.487C720.838 607.26 740.406 641.767 742.325 647.431C744.245 653.096 742.724 657.741 737.215 655.75C730.51 653.333 712.014 615.27 712.014 615.27C712.014 615.27 709.596 610.53 707.951 612.189C706.306 613.848 723.48 642.928 723.655 646.294C723.854 649.636 720.664 652.954 716.027 650.157C710.568 646.863 694.366 612.734 694.366 612.734C694.366 612.734 692.372 610.483 691.723 612.071C691.1 613.659 703.863 639.468 702.916 643.236C702.118 646.412 699.127 645.772 699.127 645.772C692.446 645.772 683.672 619.039 675.745 608.042Z" fill="#F8A492"/>
<path d="M365.184 368.505C365.184 368.505 400.854 358.053 418.902 351.535C440.389 343.785 469.055 329.234 469.055 329.234C469.055 329.234 451.082 234.457 436.126 202.557C381.237 85.4782 318.894 166.224 310.419 185.042C291.5 227.157 365.184 368.505 365.184 368.505Z" fill="#52B79A"/>
<path d="M157.418 401.708C107.988 518.74 90.2896 674.639 88.0461 757.067C87.1737 789.181 111.378 817.005 144.755 821.958C241.173 836.297 354.117 823.309 354.117 823.309C311.143 705.733 298.48 547.132 301.222 534.785C268.144 498.31 157.418 401.708 157.418 401.708Z" fill="#FFF8F5"/>
<path d="M316.328 520.185C262.91 495.229 160.336 388.128 154.977 372.937C153.73 371.941 139.497 387.915 140.743 388.911C229.059 510.065 296.536 531.04 301.222 534.808C307.853 534.808 316.328 520.185 316.328 520.185Z" fill="#FFECE3"/>
<path d="M719.05 996.152C719.05 1003.61 712.692 1009.68 704.823 1009.68C696.976 1009.68 690.617 1003.63 690.617 996.152C690.617 988.691 696.976 982.625 704.823 982.625C712.692 982.625 719.05 988.691 719.05 996.152Z" fill="#F7CC7F"/>
<path d="M707.279 739.191L521.559 740.174L522.46 894.025L708.18 893.041L707.279 739.191Z" fill="#FFECE3"/>
<path d="M587.291 739.831L521.578 740.179L522.48 894.03L588.192 893.682L587.291 739.831Z" fill="#FFBA8E"/>
<path d="M775.496 888.408L511.07 889.808L512.227 1087.31L776.653 1085.91L775.496 888.408Z" fill="#FFECE3"/>
<path d="M604.621 889.325L511.07 889.82L512.226 1087.32L605.776 1086.83L604.621 889.325Z" fill="#FFBA8E"/>
<path d="M720.348 916.588C723.411 924.575 716.265 936.443 705.717 941.033C695.169 945.603 681.622 942.246 678.113 934.462C673.052 923.28 678.985 920.733 686.769 918.084C688.257 917.579 689.81 917.073 691.362 916.487C692.277 916.143 693.191 915.799 694.106 915.395C695.041 914.99 695.977 914.525 696.891 914.04C697.997 913.454 699.103 912.847 700.167 912.241C708.248 907.671 715.287 903.405 720.348 916.588Z" fill="#52B79A"/>
<path d="M702.083 905.649C700.594 905.083 700.02 906.539 700.02 906.539C701.466 905.912 701.573 907.873 700.892 909.592C700.488 910.643 694.98 912.746 692.896 913.171C692.768 913.191 692.641 913.232 692.513 913.272C692.088 908.682 686.282 900.412 681.625 904.335L683.645 906.418C683.73 906.296 683.922 906.074 684.134 905.973C686.282 904.76 691.067 910.158 691.833 913.495C688.536 914.829 683.603 919.055 682.539 918.327C681.157 917.397 682.986 916.244 682.986 916.244L684.9 915.941C684.9 915.941 682.178 914.283 680.753 915.597C678.456 917.721 680.2 919.945 681.136 920.288C681.88 920.571 686.963 918.388 689.43 917.296C688.707 917.983 686.58 920.511 686.155 923.281C685.666 926.435 690.557 928.457 690.557 928.457C690.557 928.457 687.218 925.808 688.281 923.079C689.111 920.956 691.365 917.741 692.322 916.426L696.384 924.919C696.384 924.919 697.553 922.432 696.065 919.136C695.086 916.972 694.215 915.921 693.747 915.476L695.576 914.849C696.767 914.708 698.702 914.566 700.339 914.768C702.891 915.092 701.318 919.621 701.318 919.621C701.318 919.621 702.636 918.448 702.785 916.588C703.083 912.989 700.935 913.009 699.212 913.029C700.297 912.403 701.381 911.998 702.849 911.028C705.379 909.41 703.572 906.215 702.083 905.649Z" fill="#542D34"/>
<path d="M740.023 914.91C737.195 906.842 744.681 895.175 755.378 890.889C766.053 886.622 779.494 890.363 782.79 898.249C787.511 909.572 781.514 911.958 773.645 914.384C772.157 914.849 770.583 915.314 769.009 915.84C768.074 916.143 767.159 916.487 766.223 916.851C765.266 917.235 764.331 917.66 763.395 918.125C762.268 918.671 761.162 919.257 760.056 919.823C751.869 924.15 744.702 928.214 740.023 914.91Z" fill="#52B79A"/>
<path d="M757.973 926.354C759.441 926.961 760.057 925.525 760.057 925.525C758.59 926.112 758.547 924.15 759.271 922.452C759.717 921.421 765.268 919.48 767.352 919.096C767.479 919.075 767.607 919.035 767.756 919.015C768.054 923.604 773.604 932.036 778.368 928.275L776.411 926.132C776.326 926.253 776.135 926.455 775.901 926.556C773.732 927.709 769.096 922.169 768.415 918.812C771.754 917.559 776.794 913.495 777.857 914.263C779.197 915.234 777.347 916.325 777.347 916.325L775.412 916.568C775.412 916.568 778.091 918.307 779.559 917.033C781.919 914.991 780.239 912.706 779.325 912.342C778.602 912.039 773.434 914.081 770.924 915.092C771.669 914.425 773.88 911.958 774.37 909.208C774.944 906.074 770.116 903.911 770.116 903.911C770.116 903.911 773.37 906.66 772.222 909.35C771.329 911.452 768.968 914.607 767.99 915.88L764.183 907.267C764.183 907.267 762.928 909.714 764.332 913.05C765.246 915.234 766.076 916.305 766.544 916.77L764.693 917.336C763.503 917.438 761.546 917.539 759.93 917.276C757.378 916.871 759.1 912.403 759.1 912.403C759.1 912.403 757.761 913.535 757.548 915.395C757.144 918.974 759.292 919.015 761.014 919.055C759.93 919.641 758.803 920.026 757.314 920.956C754.783 922.492 756.506 925.748 757.973 926.354Z" fill="#542D34"/>
<path d="M832.251 933.552C830.444 941.882 817.876 948.13 806.477 946.411C795.079 944.693 785.53 934.724 786.849 926.293C788.741 914.202 795.142 915.193 803.16 917.073C804.691 917.437 806.286 917.821 807.902 918.165C808.859 918.367 809.837 918.549 810.815 918.69C811.836 918.852 812.857 918.953 813.899 919.034C815.154 919.135 816.408 919.196 817.663 919.257C826.956 919.661 835.25 919.803 832.251 933.552Z" fill="#52B79A"/>
<path d="M822.874 914.707C821.938 913.453 820.641 914.363 820.641 914.363C822.215 914.606 821.215 916.304 819.705 917.396C818.791 918.063 812.986 916.931 811.008 916.203C810.88 916.163 810.753 916.122 810.625 916.082C812.794 911.998 812.454 901.968 806.372 902.797L806.925 905.628C807.052 905.568 807.35 905.487 807.584 905.527C810.051 905.628 811.114 912.705 809.945 915.94C806.436 915.334 799.971 916.284 799.461 915.091C798.823 913.575 800.971 913.575 800.971 913.575L802.757 914.343C802.757 914.343 801.375 911.492 799.461 911.856C796.356 912.422 796.611 915.212 797.207 916.001C797.675 916.628 803.161 917.477 805.84 917.861C804.862 918.043 801.672 919.074 799.78 921.177C797.632 923.583 800.63 927.87 800.63 927.87C800.63 927.87 799.269 923.866 801.672 922.148C803.544 920.793 807.223 919.276 808.733 918.69L807.478 927.991C807.478 927.991 809.838 926.515 810.391 922.956C810.753 920.611 810.604 919.277 810.455 918.65L812.348 919.095C813.432 919.62 815.133 920.51 816.388 921.541C818.366 923.159 814.538 926.151 814.538 926.151C814.538 926.151 816.282 925.848 817.43 924.372C819.663 921.501 817.855 920.388 816.367 919.479C817.621 919.519 818.77 919.762 820.535 919.721C823.576 919.62 823.81 915.981 822.874 914.707Z" fill="#542D34"/>
<path d="M691.789 930.499C689.981 938.83 677.413 945.078 666.013 943.359C654.614 941.64 645.065 931.672 646.384 923.24C648.277 911.149 654.678 912.14 662.696 914.02C664.227 914.384 665.822 914.768 667.438 915.112C668.395 915.314 669.374 915.496 670.352 915.638C671.373 915.799 672.394 915.901 673.436 915.981C674.69 916.083 675.945 916.143 677.2 916.204C686.515 916.588 694.788 916.73 691.789 930.499Z" fill="#66C1A7"/>
<path d="M682.429 911.655C681.493 910.401 680.196 911.311 680.196 911.311C681.769 911.554 680.77 913.252 679.26 914.344C678.346 915.011 672.54 913.879 670.563 913.151C670.435 913.11 670.307 913.07 670.18 913.03C672.349 908.945 672.009 898.916 665.927 899.745L666.48 902.576C666.607 902.515 666.905 902.435 667.139 902.475C669.606 902.576 670.669 909.653 669.499 912.888C665.991 912.281 659.526 913.232 659.016 912.039C658.378 910.522 660.525 910.522 660.525 910.522L662.312 911.291C662.312 911.291 660.929 908.44 659.016 908.804C655.911 909.37 656.166 912.16 656.761 912.949C657.229 913.575 662.716 914.425 665.395 914.809C664.417 914.991 661.227 916.022 659.335 918.125C657.187 920.531 660.185 924.818 660.185 924.818C660.185 924.818 658.824 920.814 661.227 919.095C663.099 917.741 666.777 916.224 668.287 915.638L667.033 924.939C667.033 924.939 669.393 923.463 669.946 919.904C670.307 917.559 670.158 916.224 670.01 915.598L671.902 916.042C672.987 916.548 674.688 917.458 675.943 918.489C677.92 920.106 674.093 923.099 674.093 923.099C674.093 923.099 675.836 922.796 676.985 921.32C679.218 918.448 677.41 917.336 675.921 916.426C677.176 916.467 678.324 916.709 680.089 916.669C683.13 916.568 683.364 912.908 682.429 911.655Z" fill="#542D34"/>
<path d="M754.273 932.703C751.445 924.636 758.931 912.969 769.628 908.683C780.303 904.416 793.744 908.157 797.04 916.042C801.761 927.365 795.764 929.751 787.895 932.178C786.407 932.643 784.833 933.108 783.259 933.633C782.323 933.937 781.409 934.28 780.473 934.644C779.516 935.028 778.581 935.453 777.645 935.918C776.518 936.464 775.412 937.05 774.306 937.616C766.097 941.943 758.931 946.008 754.273 932.703Z" fill="#66C1A7"/>
<path d="M772.202 944.147C773.67 944.754 774.287 943.318 774.287 943.318C772.819 943.905 772.777 941.943 773.5 940.245C773.946 939.214 779.518 937.273 781.602 936.888C781.73 936.868 781.857 936.828 781.985 936.808C782.283 941.398 787.833 949.829 792.597 946.068L790.64 943.925C790.555 944.046 790.364 944.248 790.13 944.35C787.961 945.502 783.325 939.962 782.644 936.605C785.983 935.352 791.023 931.287 792.087 932.056C793.426 933.026 791.576 934.118 791.576 934.118L789.641 934.361C789.641 934.361 792.32 936.1 793.788 934.826C796.148 932.784 794.468 930.499 793.554 930.135C792.831 929.832 787.663 931.874 785.175 932.885C785.919 932.238 788.131 929.751 788.62 927.001C789.194 923.867 784.367 921.703 784.367 921.703C784.367 921.703 787.621 924.453 786.472 927.143C785.579 929.245 783.218 932.4 782.24 933.674L778.434 925.06C778.434 925.06 777.179 927.506 778.582 930.843C779.497 933.026 780.326 934.098 780.794 934.563L778.944 935.129C777.753 935.23 775.818 935.332 774.18 935.069C771.65 934.664 773.351 930.196 773.351 930.196C773.351 930.196 772.011 931.328 771.798 933.188C771.394 936.767 773.542 936.808 775.265 936.848C774.18 937.435 773.053 937.819 771.564 938.749C769.012 940.285 770.735 943.541 772.202 944.147Z" fill="#542D34"/>
<path d="M758.82 930.701C755.396 938.546 741.829 942.267 730.983 938.425C720.137 934.583 712.736 922.977 715.713 914.97C719.967 903.465 726.049 905.649 733.556 909.006C734.981 909.653 736.469 910.32 738.001 910.967C738.894 911.351 739.808 911.715 740.744 912.039C741.722 912.382 742.7 912.686 743.7 912.948C744.912 913.292 746.146 913.575 747.337 913.878C756.375 916.062 764.477 917.761 758.82 930.701Z" fill="#66C1A7"/>
<path d="M753.356 910.421C752.675 909.005 751.229 909.673 751.229 909.673C752.718 910.198 751.399 911.695 749.698 912.463C748.656 912.928 743.212 910.724 741.404 909.632C741.298 909.572 741.17 909.511 741.043 909.45C743.977 905.851 745.636 895.964 739.512 895.62L739.49 898.511C739.639 898.471 739.937 898.451 740.149 898.532C742.553 899.098 742.191 906.235 740.383 909.187C737.066 907.914 730.516 907.61 730.261 906.377C729.92 904.78 732.047 905.184 732.047 905.184L733.642 906.276C733.642 906.276 732.855 903.223 730.899 903.202C727.751 903.182 727.432 905.952 727.857 906.842C728.198 907.55 733.408 909.41 735.96 910.32C734.96 910.32 731.622 910.704 729.367 912.423C726.794 914.364 728.878 919.136 728.878 919.136C728.878 919.136 728.347 914.95 731.047 913.717C733.153 912.746 737.045 911.957 738.661 911.654L735.598 920.551C735.598 920.551 738.193 919.56 739.448 916.163C740.277 913.939 740.383 912.605 740.362 911.937L742.127 912.746C743.084 913.454 744.594 914.667 745.615 915.921C747.231 917.882 742.893 920.086 742.893 920.086C742.893 920.086 744.679 920.126 746.083 918.893C748.826 916.507 747.274 915.071 746.019 913.899C747.231 914.182 748.316 914.626 750.06 914.93C753.079 915.375 754.036 911.836 753.356 910.421Z" fill="#542D34"/>
<path d="M832.158 927.443L640.867 928.456L641.805 1088.6L833.096 1087.58L832.158 927.443Z" fill="#FFECE3"/>
<path d="M708.537 928.094L640.867 928.451L641.803 1088.59L709.473 1088.23L708.537 928.094Z" fill="#FFBA8E"/>
<path d="M694.427 724.866C689.834 723.733 685.176 724.481 681.391 726.604C680.562 720.134 675.713 714.493 668.674 712.774C661.528 711.015 654.298 713.846 650.3 719.285C648.088 715.504 644.367 712.532 639.603 711.359C630.416 709.094 621.038 714.351 618.656 723.086C618.571 723.41 618.571 723.754 618.486 724.077C617.21 718.173 612.574 713.138 606.024 711.541C598.028 709.58 589.904 713.3 586.352 720.053C585.417 719.649 584.438 719.285 583.418 719.022C579.632 718.092 575.826 718.496 572.487 719.831C570.807 714.574 566.426 710.227 560.408 708.751C551.221 706.486 541.842 711.743 539.46 720.478C538.886 722.561 538.801 724.643 539.078 726.645C538.674 726.524 538.312 726.342 537.887 726.22C531.698 724.704 525.488 726.625 521.32 730.689L521.703 753.739L521.49 740.152L612.935 739.667C613.127 739.505 613.297 739.363 613.488 739.201C613.509 739.363 613.552 739.505 613.594 739.667L707.123 739.161C706.506 732.509 701.636 726.645 694.427 724.866Z" fill="#66C1A7"/>
<path d="M775.878 888.219C775.219 881.567 770.349 875.683 763.139 873.924C758.546 872.792 753.91 873.54 750.103 875.663C749.274 869.193 744.425 863.571 737.386 861.833C730.24 860.073 723.01 862.904 719.012 868.343C716.8 864.562 713.078 861.59 708.315 860.417C699.128 858.153 689.749 863.41 687.367 872.145C687.282 872.468 687.282 872.812 687.197 873.136C685.921 867.231 681.285 862.217 674.735 860.599C666.739 858.638 658.615 862.358 655.085 869.112C654.15 868.707 653.171 868.343 652.15 868.081C648.365 867.15 644.558 867.555 641.22 868.889C639.54 863.632 635.159 859.285 629.14 857.809C619.953 855.544 610.575 860.801 608.193 869.516C607.619 871.599 607.534 873.681 607.81 875.683C607.406 875.562 607.045 875.38 606.64 875.258C602.026 874.126 597.411 874.915 593.625 877.058C590.691 876.391 587.777 876.674 585.183 877.685C583.439 874.571 580.419 872.124 576.527 871.174C569.169 869.354 561.662 873.56 559.748 880.556C559.387 881.89 559.323 883.225 559.387 884.539C556.409 884.216 553.475 884.802 550.987 886.157C549.753 881.749 546.18 878.069 541.204 876.836C533.846 875.016 526.339 879.222 524.425 886.218C524.106 887.37 524.021 888.523 524.042 889.655L590.223 889.291V889.311L775.878 888.219Z" fill="#52B79A"/>
<path d="M867.362 1086.74H462.281V1106.63H867.362V1086.74Z" fill="#422226"/>
<path d="M726.046 1255.27H461.195V1272.68H726.046V1255.27Z" fill="#422226"/>
<path d="M827.596 1096.66H810.52V1418.52H827.596V1096.66Z" fill="#422226"/>
<path d="M585.948 1096.66H568.871V1421.11H585.948V1096.66Z" fill="#422226"/>
<path d="M688.986 1421.13L781.027 1099.01L765.949 1094.34L672.312 1421.13H688.986Z" fill="#422226"/>
<path d="M430.066 1421.13L508.793 1098.42L493.503 1094.38L413.605 1421.13H430.066Z" fill="#422226"/>
</svg>
