<svg width="1555" height="1396" viewBox="0 0 1555 1396" fill="none" xmlns="http://www.w3.org/2000/svg">
<path d="M1323.28 952.371C1333.77 947.985 1342.69 940.711 1348.96 931.451C1355.22 922.191 1358.54 911.352 1358.51 900.28C1358.93 869.019 1334.75 843.35 1304.48 842.973C1274.21 842.596 1249.39 867.636 1249 898.897C1248.68 910.075 1251.79 921.094 1257.92 930.562C1264.06 940.029 1272.96 947.52 1283.48 952.088C1199.22 963.682 1202.14 1052.63 1202.14 1052.63L1401.41 1055.17C1401.41 1055.17 1406.63 965.284 1323.28 952.371Z" fill="white"/>
<path d="M102.695 686.172L113.872 683.851L131.033 645.218L126.33 623.249C126.33 623.249 143.369 618.608 147.522 647.84C151.675 677.071 152.286 669.266 152.286 669.266C152.286 669.266 188.929 661.762 192.685 664.263C195.403 666.071 204.106 701.782 208.686 721.189C209.938 725.845 209.575 730.781 207.655 735.211C205.734 739.64 202.367 743.307 198.09 745.629C196.88 746.235 195.597 746.691 194.273 746.985C185.112 748.883 136.835 751.324 136.835 751.324L117.536 755.363L102.695 686.172Z" fill="white"/>
<path d="M68.4609 687.15L91.5795 759.256L110.748 755.348L94.8559 683.331L68.4609 687.15Z" fill="white"/>
<path d="M554.241 234.45H391.589C388.188 234.45 384.926 235.756 382.521 238.081C380.117 240.406 378.766 243.56 378.766 246.848V351.069C378.766 354.357 380.117 357.51 382.521 359.835C384.926 362.16 388.188 363.466 391.589 363.466H477.227L517.946 402.798V363.611H554.241C556.76 363.602 559.173 362.627 560.951 360.902C562.729 359.176 563.727 356.839 563.727 354.404V243.803C563.747 242.585 563.517 241.375 563.049 240.243C562.582 239.112 561.887 238.081 561.005 237.211C560.122 236.341 559.07 235.649 557.909 235.175C556.748 234.701 555.501 234.455 554.241 234.45V234.45Z" fill="white"/>
<path d="M509.85 310.54C515.13 310.54 519.41 306.401 519.41 301.296C519.41 296.191 515.13 292.052 509.85 292.052C504.569 292.052 500.289 296.191 500.289 301.296C500.289 306.401 504.569 310.54 509.85 310.54Z" fill="#3B52BE"/>
<path d="M462.422 301.297C462.415 303.135 462.972 304.934 464.024 306.466C465.076 307.998 466.575 309.193 468.33 309.9C470.085 310.607 472.018 310.793 473.884 310.437C475.749 310.08 477.463 309.195 478.808 307.895C480.152 306.595 481.067 304.938 481.437 303.135C481.806 301.331 481.613 299.462 480.881 297.765C480.15 296.068 478.914 294.619 477.33 293.602C475.746 292.585 473.885 292.046 471.983 292.053C469.447 292.053 467.015 293.027 465.222 294.76C463.429 296.494 462.422 298.845 462.422 301.297V301.297Z" fill="#3B52BE"/>
<path d="M434.147 310.541C439.428 310.541 443.708 306.402 443.708 301.297C443.708 296.191 439.428 292.053 434.147 292.053C428.867 292.053 424.586 296.191 424.586 301.297C424.586 306.402 428.867 310.541 434.147 310.541Z" fill="#3B52BE"/>
<path d="M1521.42 12.922C1520.64 9.19656 1518.53 5.85633 1515.45 3.49264C1512.38 1.12895 1508.53 -0.10576 1504.6 0.0071059C1500.68 0.119972 1496.91 1.57315 1493.99 4.10934C1491.06 6.64553 1489.16 10.1012 1488.61 13.8645C1488.03 10.1106 1486.09 6.67732 1483.14 4.17146C1480.19 1.66559 1476.42 0.248417 1472.49 0.170338C1468.57 0.0922585 1464.74 1.3583 1461.68 3.74476C1458.63 6.13122 1456.55 9.48449 1455.8 13.212C1455.03 18.7411 1456.47 24.3477 1459.85 28.8723C1463.21 33.3214 1467.14 37.3409 1471.55 40.835C1477.55 45.9826 1483.06 50.8039 1489.02 55.9515C1494.95 50.7677 1499.97 45.8739 1505.9 40.69C1510.29 37.1643 1514.2 33.1073 1517.52 28.6185C1520.85 24.0637 1522.25 18.4441 1521.42 12.922V12.922Z" fill="white"/>
<path d="M1014.34 1394.76L899.87 987.088L559.268 983.935C525.522 1102.51 505.463 1253.78 496.352 1394.76" fill="#72A9E1"/>
<path d="M636.247 1285.5C639.619 1287.34 643.242 1288.7 647.008 1289.56C651.542 1290.38 656.221 1289.97 660.532 1288.38C664.842 1286.8 668.618 1284.09 671.445 1280.57C674.272 1277.05 676.041 1272.84 676.559 1268.41C677.076 1263.98 676.322 1259.5 674.379 1255.45C672.623 1252.12 670.361 1249.07 667.667 1246.39C667.667 1246.39 668.755 1246.86 670.292 1248.17C672.495 1250.06 674.313 1252.33 675.654 1254.87C677.657 1258.68 678.613 1262.93 678.428 1267.2C678.216 1272.46 676.316 1277.53 672.992 1281.7C669.614 1285.83 665.008 1288.87 659.794 1290.4C655.556 1291.63 651.061 1291.78 646.745 1290.83C643.871 1290.2 641.139 1289.07 638.684 1287.5C636.997 1286.37 636.172 1285.72 636.247 1285.5Z" fill="#3B52BE"/>
<path d="M750.532 1185.09C748.624 1183.99 746.408 1183.5 744.195 1183.68C743.082 1183.88 742.035 1184.34 741.141 1185.01C740.248 1185.69 739.534 1186.56 739.059 1187.56C738.497 1188.76 738.328 1190.11 738.575 1191.41C738.822 1192.71 739.473 1193.91 740.441 1194.85C741.41 1195.78 742.65 1196.41 743.996 1196.65C745.343 1196.89 746.734 1196.73 747.982 1196.18C749.015 1195.73 749.919 1195.04 750.618 1194.17C751.316 1193.31 751.788 1192.3 751.994 1191.22C752.172 1189.08 751.661 1186.94 750.532 1185.09C750.532 1185.09 751.207 1185.34 751.994 1186.36C753.074 1187.82 753.555 1189.61 753.344 1191.4C753.208 1192.75 752.711 1194.05 751.903 1195.16C751.095 1196.27 750.002 1197.16 748.732 1197.74C747.158 1198.47 745.389 1198.71 743.67 1198.42C741.95 1198.14 740.365 1197.34 739.131 1196.15C737.898 1194.96 737.077 1193.42 736.782 1191.76C736.487 1190.1 736.732 1188.39 737.484 1186.87C738.092 1185.64 739.014 1184.59 740.163 1183.81C741.312 1183.03 742.649 1182.55 744.045 1182.41C745.89 1182.2 747.747 1182.67 749.257 1183.71C750.27 1184.44 750.607 1185.05 750.532 1185.09Z" fill="#3B52BE"/>
<path d="M818.4 1349.34C816.489 1348.25 814.276 1347.76 812.063 1347.93C810.947 1348.13 809.898 1348.58 809.003 1349.26C808.109 1349.93 807.397 1350.81 806.927 1351.81C806.365 1353.01 806.196 1354.36 806.443 1355.66C806.69 1356.96 807.341 1358.16 808.309 1359.1C809.277 1360.03 810.517 1360.66 811.864 1360.9C813.211 1361.14 814.601 1360.98 815.85 1360.43C816.879 1359.98 817.78 1359.29 818.478 1358.42C819.176 1357.56 819.65 1356.55 819.862 1355.47C820.048 1353.33 819.536 1351.19 818.4 1349.34C818.4 1349.34 819.075 1349.6 819.862 1350.61C820.933 1352.06 821.413 1353.84 821.212 1355.61C821.05 1356.95 820.533 1358.23 819.713 1359.32C818.892 1360.42 817.794 1361.29 816.525 1361.85C814.951 1362.58 813.182 1362.81 811.463 1362.53C809.743 1362.24 808.158 1361.45 806.924 1360.26C805.69 1359.06 804.87 1357.53 804.575 1355.87C804.28 1354.21 804.525 1352.5 805.277 1350.97C805.879 1349.75 806.8 1348.69 807.95 1347.91C809.1 1347.13 810.439 1346.65 811.838 1346.51C813.683 1346.31 815.54 1346.78 817.05 1347.82C818.138 1348.69 818.475 1349.27 818.4 1349.34Z" fill="#3B52BE"/>
<path d="M552.934 1253.31C552.934 1253.5 551.547 1253.5 549.184 1254.15C545.891 1255.09 543.007 1257.05 540.973 1259.73C539.336 1261.88 538.345 1264.43 538.111 1267.09C537.876 1269.75 538.407 1272.43 539.644 1274.81C540.882 1277.2 542.777 1279.22 545.122 1280.63C547.468 1282.04 550.171 1282.8 552.934 1282.82C555.7 1282.81 558.408 1282.05 560.759 1280.64C563.109 1279.23 565.011 1277.22 566.252 1274.83C567.494 1272.44 568.028 1269.77 567.795 1267.1C567.562 1264.44 566.571 1261.88 564.932 1259.73C562.885 1257.05 559.988 1255.09 556.683 1254.15C554.359 1253.5 552.934 1253.5 552.934 1253.31C554.227 1253.01 555.578 1253.01 556.871 1253.31C560.496 1254.05 563.735 1256 566.02 1258.82C567.741 1260.92 568.882 1263.41 569.335 1266.06C569.787 1268.7 569.537 1271.42 568.607 1273.94C567.459 1277.07 565.338 1279.77 562.535 1281.69C559.732 1283.6 556.384 1284.63 552.953 1284.63C549.521 1284.63 546.173 1283.6 543.37 1281.69C540.567 1279.77 538.446 1277.07 537.299 1273.94C536.369 1271.42 536.118 1268.7 536.571 1266.06C537.023 1263.41 538.164 1260.92 539.886 1258.82C542.152 1256 545.381 1254.05 548.997 1253.31C550.289 1253 551.641 1253 552.934 1253.31V1253.31Z" fill="#3B52BE"/>
<path d="M804.041 1256.39C804.041 1256.39 802.616 1256.39 800.291 1257.23C796.986 1258.17 794.09 1260.13 792.042 1262.81C790.365 1264.96 789.341 1267.53 789.087 1270.21C788.832 1272.89 789.356 1275.59 790.6 1278.01C791.845 1280.42 793.76 1282.45 796.13 1283.87C798.501 1285.28 801.234 1286.03 804.022 1286.03C806.81 1286.03 809.543 1285.28 811.913 1283.87C814.284 1282.45 816.199 1280.42 817.443 1278.01C818.688 1275.59 819.212 1272.89 818.957 1270.21C818.702 1267.53 817.679 1264.96 816.001 1262.81C813.975 1260.13 811.089 1258.16 807.79 1257.23C805.428 1256.58 804.041 1256.58 804.041 1256.39C805.336 1256.1 806.683 1256.1 807.978 1256.39C811.6 1257.12 814.84 1259.06 817.126 1261.87C818.832 1263.98 819.96 1266.47 820.406 1269.11C820.852 1271.75 820.6 1274.46 819.676 1276.98C818.538 1280.12 816.423 1282.83 813.622 1284.75C810.821 1286.66 807.473 1287.69 804.041 1287.69C800.608 1287.69 797.26 1286.66 794.46 1284.75C791.659 1282.83 789.543 1280.12 788.405 1276.98C787.481 1274.46 787.23 1271.75 787.676 1269.11C788.121 1266.47 789.249 1263.98 790.955 1261.87C793.241 1259.06 796.482 1257.12 800.104 1256.39C801.399 1256.1 802.746 1256.1 804.041 1256.39Z" fill="#3B52BE"/>
<path d="M573.104 1352.42C577.307 1352.42 580.715 1349.13 580.715 1345.06C580.715 1341 577.307 1337.7 573.104 1337.7C568.9 1337.7 565.492 1341 565.492 1345.06C565.492 1349.13 568.9 1352.42 573.104 1352.42Z" fill="#3B52BE"/>
<path d="M711.572 1142.82C715.776 1142.82 719.184 1139.53 719.184 1135.46C719.184 1131.4 715.776 1128.1 711.572 1128.1C707.369 1128.1 703.961 1131.4 703.961 1135.46C703.961 1139.53 707.369 1142.82 711.572 1142.82Z" fill="#3B52BE"/>
<path d="M861.553 1192.45C865.757 1192.45 869.164 1189.15 869.164 1185.09C869.164 1181.03 865.757 1177.73 861.553 1177.73C857.349 1177.73 853.941 1181.03 853.941 1185.09C853.941 1189.15 857.349 1192.45 861.553 1192.45Z" fill="#3B52BE"/>
<path d="M684.393 1175.3C684.016 1176.09 683.564 1176.84 683.043 1177.55L678.806 1183.68L663.171 1205.75L662.571 1206.59L661.934 1205.75C655.297 1197.13 647.461 1186.94 638.987 1175.85H640.487L628.339 1191.47L617.315 1205.97L616.49 1207.02L615.74 1205.93L594.818 1175.85H596.056L576.408 1197.6L570.897 1203.51C570.266 1204.23 569.563 1204.9 568.797 1205.5C569.303 1204.69 569.88 1203.93 570.522 1203.22L575.733 1197.02L594.856 1174.98L595.531 1174.21L596.131 1175.05C602.355 1183.86 609.554 1193.97 617.315 1204.99H615.778L626.764 1190.71L638.987 1174.98L639.737 1173.96L640.524 1174.98L663.021 1205.1H661.746L677.944 1183.35L682.518 1177.44C683.045 1176.65 683.675 1175.93 684.393 1175.3V1175.3Z" fill="#3B52BE"/>
<path d="M759.831 1317.66C759.685 1318.52 759.433 1319.36 759.081 1320.16C758.368 1321.94 757.506 1324.26 756.419 1327.05L746.445 1351.99L746.032 1352.97L745.208 1352.28L715.774 1328.28L717.274 1327.92C714.649 1333.72 711.95 1339.77 709.175 1346.04L701.676 1362.36L701.114 1363.55L700.139 1362.68C690.015 1353.62 680.717 1345.24 672.618 1338.03L673.855 1337.81L659.87 1363.19C658.257 1366.05 656.907 1368.37 655.858 1370.19C655.434 1371.03 654.919 1371.84 654.32 1372.58C654.606 1371.67 654.983 1370.8 655.445 1369.97L659.195 1362.72C662.532 1356.3 667.106 1347.56 672.58 1337.02L673.068 1336.11L673.855 1336.8L701.564 1361.23L700.064 1361.56L707.375 1345.25C710.187 1339.05 712.887 1332.99 715.512 1327.12L716.037 1325.96L717.012 1326.79L746.22 1351.08L744.983 1351.37C749.369 1341.22 752.969 1332.81 755.594 1326.68L758.631 1319.91C758.946 1319.12 759.349 1318.36 759.831 1317.66Z" fill="#3B52BE"/>
<path d="M888.924 1253.31C889.727 1253.7 890.482 1254.17 891.174 1254.73L897.286 1259.11L919.257 1275.35L920.12 1275.97L919.22 1276.55L887.162 1297.18V1295.69L902.835 1308.27L916.97 1319.65L918.02 1320.49L916.858 1321.14L884.687 1339.81V1338.61L905.984 1358.69L911.833 1364.35C912.566 1364.96 913.209 1365.67 913.746 1366.45C912.951 1365.91 912.199 1365.32 911.496 1364.68L905.384 1359.31L883.562 1339.74L882.812 1339.05L883.712 1338.5L915.695 1319.54V1321.07L901.56 1309.72C896.161 1305.41 890.949 1301.16 885.887 1297.14L884.912 1296.31L886 1295.65L918.245 1275.32V1276.51C909.359 1269.66 902.047 1263.93 896.686 1259.77L890.799 1255.09C889.562 1253.97 888.849 1253.39 888.924 1253.31Z" fill="#3B52BE"/>
<g opacity="0.2">
<path opacity="0.2" d="M508.352 1259.37L967.025 1226.31L957.089 1190.85H517.163L508.352 1259.37Z" fill="black"/>
</g>
<path d="M749.257 1364.02C748.732 1364.02 748.619 1333.36 749.032 1295.55C749.444 1257.74 750.269 1227.07 750.794 1227.1C751.319 1227.14 751.431 1257.74 751.019 1295.55C750.606 1333.36 749.781 1364.02 749.257 1364.02Z" fill="#263238"/>
<path d="M845.059 1364.02C844.366 1362.45 843.814 1360.83 843.409 1359.17C842.396 1355.54 841.084 1351.15 839.659 1345.75C836.435 1334.44 831.897 1318.86 826.685 1301.67C821.473 1284.49 816.449 1269.05 812.812 1257.85L808.537 1244.58C807.946 1242.97 807.494 1241.32 807.188 1239.65C808.052 1241.13 808.743 1242.7 809.25 1244.32C810.45 1247.41 812.137 1251.86 814.124 1257.41C818.099 1268.54 823.273 1283.95 828.56 1301.16C833.847 1318.38 838.084 1334.01 840.972 1345.43C842.434 1351.12 843.559 1355.76 844.271 1358.98C844.72 1360.63 844.984 1362.32 845.059 1364.02V1364.02Z" fill="#263238"/>
<path d="M1226.9 826.318L1158.7 869.275V207.229H1226.9V826.318Z" fill="white"/>
<path d="M1158.33 787.601C1189.6 694.835 1175.61 591.195 1210.22 499.082C1213.52 490.236 1217.34 481.174 1216.37 471.93C1215.13 463.923 1211.48 456.446 1205.87 450.433C1199.72 443.183 1190.53 436.73 1180.03 437.419C1175.75 437.858 1171.66 439.36 1168.16 441.78C1164.66 444.201 1161.86 447.456 1160.05 451.231C1157.16 458.329 1155.88 465.944 1156.3 473.561C1155.74 501.728 1155.89 529.895 1156.08 558.025C1156.45 628.907 1156.84 699.753 1157.24 770.563" fill="white"/>
<path d="M1158.06 376.264V351.759L1226.26 332.872V361.148L1158.06 376.264Z" fill="white"/>
<path d="M331.383 478.02C331.383 478.02 326.471 441.189 328.683 428.175C331.045 414.327 354.93 385 354.93 385C354.592 383.732 350.655 380.542 338.432 385C326.209 389.459 321.934 397.761 310.348 405.736L251.032 370.174L231.609 430.205L282.002 506.911L331.383 478.02Z" fill="#FFAD9D"/>
<path d="M593.427 337.186C562.794 366.186 592.227 411.318 572.58 440.464C560.694 458.118 535.085 466.673 529.724 487.046C527.024 497.16 530.061 507.745 531.673 518.04C533.286 528.335 532.911 540.226 525.149 547.476C521.228 550.455 517.107 553.18 512.813 555.632C500.815 564.151 496.766 580.029 498.116 594.348C499.465 608.667 505.24 622.152 509.364 636C520.728 675.349 518.209 717.237 502.202 755.047C509.236 755.082 516.186 753.569 522.526 750.624C528.866 747.678 534.43 743.377 538.797 738.046C538.46 747.652 538.085 757.222 537.71 766.829C550.908 767.626 563.656 760.775 572.468 751.241C580.815 741.299 587.172 729.94 591.215 717.745C611.996 663.62 618.842 605.419 611.162 548.165" fill="#263238"/>
<path d="M846.22 254.317C863.715 279.423 871.042 309.875 866.804 339.869C864.367 356.726 858.331 374.235 864.33 390.257C869.466 404.033 883.077 415.27 882.44 429.916C881.577 446.591 862.118 457.865 860.393 474.468C857.956 497.487 889.901 512.966 889.564 536.094C889.376 548.02 880.527 557.844 874.566 568.212C868.604 578.58 865.717 593.588 875.316 601.019L764.031 593.334L783.828 256.964L846.22 254.317Z" fill="#263238"/>
<path d="M1171.79 540.879H1170.55L1175.46 525.038L1191.17 464.499C1191.86 461.791 1191.47 458.933 1190.08 456.489C1188.69 454.046 1186.41 452.195 1183.68 451.304L1172.43 450.941L1133.77 433.432C1132.09 432.799 1130.28 432.538 1128.48 432.669C1126.68 432.799 1124.94 433.319 1123.37 434.188C1121.81 435.058 1120.46 436.255 1119.44 437.693C1118.42 439.13 1117.74 440.771 1117.46 442.495C1116.04 453.624 1108.2 483.494 1099.87 473.018C1099.87 472.801 1099.46 472.583 1099.27 472.329C1087.58 456.778 1073.03 448.368 1066.99 448.585C1065.7 448.695 1064.47 449.162 1063.45 449.929C1062.42 450.697 1061.65 451.733 1061.22 452.914C1060.79 454.095 1060.72 455.371 1061.02 456.59C1061.32 457.808 1061.97 458.918 1062.91 459.787C1063.51 460.537 1064.26 461.165 1065.12 461.635C1065.49 461.817 1065.94 462.179 1066.35 462.433C1071.52 466.884 1076.19 471.841 1080.3 477.223C1084.06 481.951 1086.94 487.274 1088.81 492.956C1090.88 499.264 1092.56 504.737 1093.58 509.414L1090.58 540.336" fill="#FFAD9D"/>
<path d="M1068.6 266.642C1068.6 266.642 1113.6 258.268 1178.72 201.391C1243.85 144.513 1275.61 67.2633 1283.33 67.7345C1291.06 68.2058 1325.29 54.1043 1385.58 190.987C1445.87 327.869 1419.63 358.537 1406.84 357.921C1394.06 357.305 1307.97 331.567 1253.56 336.171C1199.16 340.775 1128.67 366.078 1128.67 366.078L1068.6 266.642Z" fill="#455A64"/>
<path d="M971.003 337.694L985.513 366.26L992 379.056C996.282 387.52 1003.76 394.07 1012.9 397.355C1022.03 400.641 1032.12 400.41 1041.08 396.71L1138.3 366.912L1085.81 241.63L988.325 288.756C979.359 293.068 972.512 300.624 969.269 309.786C966.026 318.947 966.649 328.974 971.003 337.694V337.694Z" fill="#263238"/>
<path d="M1025.18 384.313L1054.16 443.256L1069.65 439.631L1167.51 521.195L1197.06 468.958C1197.06 468.958 1138.56 442.676 1128.22 421.832C1117.87 400.988 1130.65 396.819 1130.65 396.819L1103.69 365.462L1025.18 384.313Z" fill="#263238"/>
<path d="M1380.33 193.162C1412.35 267.294 1424.69 332.908 1407.82 339.687C1390.94 346.466 1351.35 291.945 1319.29 217.812C1287.23 143.68 1274.93 78.0658 1291.81 71.3232C1308.68 64.5805 1348.27 119.029 1380.33 193.162Z" fill="#263238"/>
<path d="M961.552 378.149L987.873 370.935L972.613 340.811L952.703 352.048L961.552 378.149Z" fill="#455A64"/>
<path d="M1112.96 376.265L1041.57 417.59L1033.28 400.77L1112.96 376.265Z" fill="#455A64"/>
<path d="M972.611 340.811L987.871 370.935L982.472 372.421L970.211 342.152L972.611 340.811Z" fill="#455A64"/>
<path d="M990.389 348.17C990.764 349.004 1003.93 344.545 1019.79 338.02C1035.65 331.495 1048.28 325.731 1047.91 324.897C1047.53 324.063 1034.41 328.522 1018.51 335.047C1002.61 341.572 990.052 347.336 990.389 348.17Z" fill="#455A64"/>
<path d="M982.884 330.261C983.259 331.095 995.182 326.636 1009.51 320.256C1023.83 313.876 1035.15 308.112 1034.74 307.315C1034.33 306.517 1022.44 310.94 1008.12 317.32C993.795 323.7 982.509 329.464 982.884 330.261Z" fill="#455A64"/>
<path d="M999.948 366.984C999.948 367.419 1003.21 366.803 1008.2 365.462C1010.67 364.809 1013.63 363.939 1016.93 362.961C1020.23 361.982 1023.57 360.387 1027.17 358.901C1041.64 352.883 1052.74 346.902 1052.4 346.177C1052.07 345.452 1040.18 349.802 1025.86 355.928C1022.11 357.378 1018.92 359.009 1015.81 360.169C1012.7 361.329 1009.81 362.344 1007.45 363.287C1002.72 365.172 999.836 366.549 999.948 366.984Z" fill="#455A64"/>
<path d="M1311.08 174.965C1311.08 174.965 1350.82 152.634 1370.66 204.219C1390.49 255.804 1349.21 263.054 1349.21 263.054C1332.27 235.573 1319.43 205.917 1311.08 174.965V174.965Z" fill="#455A64"/>
<path d="M1271.33 113.049C1271.46 116.341 1271.89 119.616 1272.61 122.837C1273.66 129.108 1275.12 138.207 1277.29 149.372C1278.79 154.882 1280.41 160.9 1282.17 167.497C1283.07 170.76 1283.97 174.095 1284.91 177.539C1285.39 179.243 1285.88 181.164 1286.37 182.759C1286.86 184.354 1287.6 186.384 1288.2 188.051C1290.83 195.302 1293.57 202.552 1296.38 210.273C1297.09 212.194 1297.8 214.152 1298.55 216.11C1299.3 218.067 1300.28 219.952 1301.14 221.873C1302.9 225.752 1304.89 229.667 1306.58 233.619C1308.26 237.57 1310.33 241.485 1312.05 245.328C1312.99 247.249 1313.78 249.206 1314.83 251.019C1315.88 252.832 1316.93 254.644 1317.94 256.457L1329.79 277.083C1330.76 278.751 1331.62 280.382 1332.64 281.941L1335.75 286.472L1341.71 295.1L1352.47 310.543C1359.67 319.497 1365.71 326.565 1369.87 331.459C1371.91 334.06 1374.18 336.486 1376.66 338.709C1374.99 335.833 1373.07 333.104 1370.92 330.553C1366.91 325.333 1361.25 318.01 1354.35 308.984C1351.16 304.235 1347.71 299.015 1344 293.432C1342.16 290.641 1340.25 287.777 1338.22 284.805L1335.22 280.273C1334.25 278.751 1333.39 277.083 1332.45 275.452C1328.7 268.891 1324.95 261.967 1320.86 254.825L1317.79 249.46C1316.74 247.648 1315.99 245.835 1315.05 243.769L1309.65 232.132C1307.81 228.217 1305.9 224.338 1304.22 220.496C1303.35 218.575 1302.34 216.871 1301.63 214.768C1300.92 212.666 1300.17 210.889 1299.45 209.004C1296.55 201.368 1293.79 194.021 1291.17 186.964C1290.53 185.188 1289.78 183.339 1289.22 181.744C1288.65 180.149 1288.24 178.119 1287.72 176.56C1286.74 173.152 1285.77 169.854 1284.83 166.664C1282.96 160.259 1281.22 154.326 1279.62 148.865L1273.96 122.619C1273.38 119.359 1272.5 116.156 1271.33 113.049V113.049Z" fill="#263238"/>
<path d="M1077.03 527.864L1057.46 695.85L959.788 601.598C959.788 601.598 907.52 706.725 906.808 710.967C906.32 713.83 961.625 766.684 1002.72 797.171C1024.95 813.701 1054.99 839.258 1082.7 834.944C1128.89 827.694 1156.34 798.294 1160.35 753.199L1178.04 530.329L1077.03 527.864Z" fill="#72A9E1"/>
<path d="M565.723 683.96L494.07 637.921C513.68 531.453 672.733 520.795 672.733 520.795L793.841 518.729C793.841 518.729 883.603 506.911 939.095 567.233C996.5 629.584 1039.81 678.812 1039.81 678.812L961.067 761.971L884.016 703.499C895.862 720.044 902.384 739.605 902.763 759.724C902.763 794.379 876.029 827.512 876.029 827.512L869.355 886.71L899.014 1001.44L555.974 1002.35C579.333 966.497 596.093 935.467 616.903 882.468L584.845 770.961L565.723 683.96Z" fill="#72A9E1"/>
<path d="M570.93 552.516L397.179 641.402L334.3 475.338L257.586 510.61L311.841 721.988C322.639 764.002 368.645 789.269 410.677 774.297C412.102 773.79 413.489 773.246 414.876 772.666L603.175 693.857L570.93 552.516Z" fill="#72A9E1"/>
<path d="M686.602 683.055C682.78 683.617 679.057 684.69 675.541 686.245C671.453 688.297 668.026 691.396 665.634 695.203C663.242 699.009 661.977 703.378 661.977 707.832C661.977 712.286 663.242 716.655 665.634 720.461C668.026 724.268 671.453 727.367 675.541 729.419C679.057 730.974 682.78 732.047 686.602 732.609C685.55 732.811 684.468 732.811 683.415 732.609C680.48 732.402 677.608 731.677 674.942 730.47C670.927 728.659 667.465 725.874 664.893 722.387C661.728 718.089 660.027 712.944 660.027 707.669C660.027 702.393 661.728 697.249 664.893 692.951C667.466 689.474 670.929 686.701 674.942 684.903C677.601 683.68 680.477 682.955 683.415 682.765C684.487 682.658 685.57 682.757 686.602 683.055Z" fill="#3B52BE"/>
<path d="M809.023 740.802C810.793 744.122 813.054 747.175 815.735 749.865C818.749 752.608 822.401 754.61 826.383 755.701C831.262 757.024 836.441 756.884 841.235 755.298C846.029 753.712 850.211 750.755 853.229 746.82C855.7 743.623 857.322 739.888 857.953 735.944C858.351 732.221 858.2 728.462 857.503 724.779C858.08 725.668 858.486 726.651 858.703 727.679C859.436 730.435 859.652 733.296 859.34 736.126C858.855 740.372 857.254 744.428 854.691 747.907C851.511 752.192 847.029 755.413 841.868 757.122C836.708 758.831 831.125 758.942 825.896 757.441C821.609 756.26 817.726 753.995 814.647 750.88C812.589 748.845 810.937 746.461 809.773 743.847C809.325 742.887 809.071 741.854 809.023 740.802V740.802Z" fill="#3B52BE"/>
<path d="M721.169 929.883C724.538 931.724 728.161 933.091 731.93 933.943C736.461 934.744 741.133 934.326 745.436 932.736C749.739 931.146 753.508 928.444 756.332 924.925C759.155 921.406 760.926 917.205 761.449 912.78C761.973 908.355 761.23 903.876 759.301 899.831C757.545 896.503 755.283 893.448 752.589 890.769C752.589 890.769 753.639 891.24 755.214 892.545C757.414 894.432 759.221 896.708 760.538 899.251C762.573 903.052 763.542 907.301 763.35 911.576C763.138 916.838 761.238 921.906 757.914 926.077C754.536 930.211 749.93 933.247 744.715 934.777C740.478 936.009 735.982 936.159 731.667 935.212C728.793 934.583 726.061 933.453 723.606 931.877C721.919 930.753 721.094 929.992 721.169 929.883Z" fill="#3B52BE"/>
<path d="M1081.69 639.118C1085.06 640.937 1088.69 642.291 1092.45 643.142C1096.98 643.939 1101.64 643.52 1105.94 641.931C1110.24 640.342 1114 637.644 1116.82 634.131C1119.65 630.617 1121.42 626.423 1121.95 622.004C1122.47 617.584 1121.74 613.11 1119.82 609.067C1118.07 605.724 1115.81 602.656 1113.11 599.968C1114.09 600.397 1114.98 600.999 1115.73 601.744C1117.93 603.646 1119.74 605.934 1121.06 608.487C1123.09 612.274 1124.06 616.512 1123.87 620.776C1123.64 626.06 1121.71 631.144 1118.35 635.316C1114.99 639.489 1110.37 642.542 1105.12 644.048C1100.89 645.253 1096.41 645.39 1092.11 644.447C1089.23 643.851 1086.5 642.732 1084.05 641.148C1083.14 640.612 1082.34 639.925 1081.69 639.118V639.118Z" fill="#3B52BE"/>
<path d="M1114.23 808.662C1113.4 805.014 1112.03 801.499 1110.18 798.222C1108.02 794.791 1105.02 791.927 1101.44 789.884C1098.37 788.141 1094.96 787.047 1091.42 786.674C1087.89 786.3 1084.31 786.656 1080.92 787.718C1077.54 788.78 1074.43 790.524 1071.79 792.834C1069.16 795.145 1067.06 797.97 1065.63 801.122C1064.27 804.617 1063.41 808.276 1063.08 811.997C1062.76 811.002 1062.63 809.957 1062.71 808.916C1062.75 806.064 1063.31 803.242 1064.36 800.578C1065.93 796.624 1068.51 793.119 1071.86 790.392C1074.81 788.034 1078.26 786.335 1081.97 785.415C1085.67 784.495 1089.55 784.377 1093.31 785.069C1097.07 785.762 1100.62 787.247 1103.72 789.421C1106.82 791.594 1109.38 794.401 1111.23 797.642C1112.68 800.128 1113.62 802.86 1114 805.69C1114.28 806.657 1114.35 807.667 1114.23 808.662V808.662Z" fill="#3B52BE"/>
<path d="M849.18 595.544C851.688 598.34 854.591 600.781 857.804 602.794C861.377 604.817 865.403 605.974 869.54 606.165C873.094 606.323 876.643 605.751 879.952 604.485C883.261 603.219 886.254 601.289 888.735 598.823C891.215 596.356 893.126 593.408 894.342 590.175C895.557 586.941 896.049 583.496 895.786 580.065C895.332 576.319 894.322 572.656 892.786 569.189C893.552 569.914 894.163 570.776 894.586 571.727C895.982 574.247 896.861 577.004 897.173 579.847C897.702 584.084 897.081 588.382 895.373 592.317C893.256 597.182 889.622 601.287 884.979 604.062C880.335 606.836 874.912 608.142 869.464 607.796C865.054 607.517 860.793 606.144 857.091 603.809C854.628 602.253 852.481 600.275 850.755 597.972C849.555 596.631 849.067 595.616 849.18 595.544Z" fill="#3B52BE"/>
<path d="M508.58 685.99C511.081 688.793 513.985 691.234 517.204 693.24C521.158 695.512 525.681 696.693 530.28 696.653C534.88 696.614 539.38 695.356 543.292 693.016C547.204 690.677 550.378 687.345 552.468 683.384C554.558 679.422 555.485 674.982 555.148 670.547C554.685 666.803 553.675 663.142 552.149 659.672C552.892 660.427 553.501 661.297 553.949 662.246C555.307 664.768 556.183 667.506 556.536 670.33C557.052 674.582 556.419 678.891 554.698 682.836C552.583 687.695 548.956 691.796 544.319 694.57C539.683 697.344 534.268 698.653 528.827 698.315C524.417 698.036 520.155 696.663 516.454 694.328C513.991 692.772 511.843 690.794 510.117 688.491C509.067 687.041 508.467 686.026 508.58 685.99Z" fill="#3B52BE"/>
<path d="M370.334 692.66C372.123 689.332 373.387 685.765 374.083 682.075C374.697 677.662 374.046 673.171 372.201 669.092C370.356 665.012 367.389 661.5 363.622 658.939C359.855 656.377 355.433 654.865 350.838 654.566C346.243 654.267 341.652 655.193 337.564 657.243C334.216 659.11 331.172 661.443 328.527 664.167C328.527 664.167 328.94 663.116 330.215 661.557C332.066 659.331 334.345 657.472 336.926 656.083C340.758 653.945 345.1 652.808 349.524 652.784C354.979 652.769 360.307 654.376 364.785 657.388C369.23 660.434 372.585 664.741 374.383 669.713C375.856 673.747 376.23 678.079 375.471 682.293C374.942 685.094 373.901 687.783 372.396 690.231C371.346 691.899 370.559 692.733 370.334 692.66Z" fill="#3B52BE"/>
<path d="M757.917 715.389C756.022 714.293 753.82 713.799 751.619 713.975C750.501 714.168 749.448 714.622 748.553 715.298C747.658 715.974 746.947 716.852 746.483 717.854C745.921 719.061 745.752 720.405 745.999 721.707C746.246 723.01 746.897 724.208 747.865 725.145C748.833 726.081 750.073 726.71 751.42 726.949C752.767 727.188 754.157 727.025 755.405 726.481C756.435 726.027 757.335 725.338 758.027 724.473C758.719 723.608 759.183 722.592 759.38 721.515C759.602 719.373 759.088 717.22 757.917 715.389C757.917 715.389 758.63 715.642 759.417 716.657C760.48 718.125 760.96 719.914 760.767 721.696C760.623 723.047 760.124 724.339 759.317 725.45C758.509 726.56 757.421 727.452 756.155 728.04C754.581 728.744 752.821 728.964 751.114 728.671C749.406 728.377 747.833 727.583 746.607 726.398C745.38 725.212 744.56 723.691 744.256 722.039C743.952 720.388 744.18 718.687 744.908 717.165C745.519 715.936 746.447 714.881 747.603 714.1C748.759 713.319 750.103 712.839 751.506 712.706C753.351 712.502 755.208 712.967 756.718 714.011C757.655 714.736 757.992 715.316 757.917 715.389Z" fill="#3B52BE"/>
<path d="M878.276 658.585C876.382 657.453 874.155 656.956 871.94 657.171C870.82 657.361 869.767 657.815 868.871 658.491C867.975 659.167 867.265 660.046 866.803 661.05C866.253 662.256 866.094 663.594 866.346 664.89C866.599 666.185 867.251 667.375 868.217 668.305C869.182 669.235 870.417 669.861 871.757 670.099C873.098 670.338 874.482 670.178 875.727 669.641C876.76 669.187 877.664 668.498 878.362 667.633C879.061 666.769 879.533 665.754 879.739 664.675C879.921 662.547 879.41 660.418 878.276 658.585C878.276 658.585 878.951 658.839 879.739 659.817C880.818 661.278 881.299 663.073 881.088 664.856C880.941 666.21 880.44 667.505 879.633 668.621C878.827 669.737 877.741 670.637 876.477 671.236C874.902 671.94 873.143 672.16 871.435 671.867C869.727 671.573 868.154 670.78 866.927 669.594C865.701 668.408 864.88 666.887 864.576 665.236C864.273 663.585 864.5 661.883 865.228 660.361C865.836 659.138 866.759 658.085 867.908 657.305C869.056 656.524 870.393 656.041 871.79 655.902C873.639 655.709 875.497 656.187 877.002 657.244C878.014 657.969 878.351 658.585 878.276 658.585Z" fill="#3B52BE"/>
<path d="M1139.57 564.332C1137.68 563.237 1135.48 562.742 1133.28 562.919C1132.15 563.109 1131.09 563.562 1130.19 564.238C1129.29 564.914 1128.57 565.793 1128.1 566.797C1127.54 568.005 1127.37 569.349 1127.62 570.651C1127.87 571.953 1128.52 573.152 1129.48 574.088C1130.45 575.025 1131.69 575.654 1133.04 575.893C1134.39 576.131 1135.78 575.968 1137.03 575.425C1138.06 574.971 1138.96 574.282 1139.66 573.417C1140.36 572.553 1140.83 571.538 1141.04 570.459C1141.25 568.318 1140.73 566.169 1139.57 564.332C1139.57 564.332 1140.29 564.586 1141.04 565.601C1142.12 567.061 1142.6 568.857 1142.39 570.64C1142.25 571.993 1141.75 573.288 1140.95 574.4C1140.14 575.511 1139.05 576.402 1137.78 576.984C1136.2 577.711 1134.43 577.948 1132.71 577.663C1130.99 577.378 1129.41 576.584 1128.17 575.391C1126.94 574.199 1126.12 572.665 1125.82 571.003C1125.53 569.341 1125.77 567.631 1126.53 566.109C1127.14 564.88 1128.07 563.825 1129.22 563.044C1130.38 562.263 1131.72 561.783 1133.13 561.65C1134.97 561.446 1136.83 561.911 1138.34 562.955C1139.31 563.607 1139.65 564.332 1139.57 564.332Z" fill="#3B52BE"/>
<path d="M844.755 837.265C842.859 836.169 840.656 835.675 838.456 835.851C837.335 836.051 836.28 836.507 835.38 837.182C834.48 837.857 833.76 838.731 833.281 839.73C832.719 840.937 832.551 842.281 832.798 843.584C833.045 844.886 833.696 846.085 834.664 847.021C835.632 847.957 836.872 848.586 838.219 848.825C839.566 849.064 840.956 848.901 842.205 848.358C843.238 847.903 844.142 847.214 844.84 846.35C845.539 845.485 846.011 844.47 846.217 843.391C846.395 841.252 845.884 839.112 844.755 837.265C844.755 837.265 845.467 837.519 846.217 838.534C847.297 839.994 847.777 841.789 847.567 843.573C847.43 844.925 846.934 846.22 846.125 847.332C845.317 848.444 844.225 849.334 842.955 849.917C841.381 850.643 839.612 850.881 837.893 850.595C836.173 850.31 834.587 849.517 833.354 848.324C832.12 847.131 831.299 845.598 831.004 843.936C830.709 842.273 830.955 840.563 831.706 839.041C832.321 837.815 833.25 836.761 834.405 835.981C835.56 835.2 836.903 834.719 838.306 834.582C840.138 834.388 841.98 834.853 843.48 835.887C844.492 836.613 844.83 837.229 844.755 837.265Z" fill="#3B52BE"/>
<path d="M438.575 715.389C436.679 714.293 434.477 713.799 432.276 713.975C431.152 714.166 430.093 714.619 429.192 715.295C428.29 715.971 427.573 716.849 427.102 717.854C426.54 719.062 426.371 720.406 426.618 721.708C426.865 723.01 427.516 724.209 428.484 725.145C429.453 726.081 430.692 726.711 432.039 726.949C433.386 727.188 434.776 727.025 436.025 726.482C437.058 726.027 437.962 725.338 438.661 724.474C439.359 723.609 439.831 722.594 440.037 721.515C440.215 719.376 439.704 717.237 438.575 715.389C438.575 715.389 439.287 715.643 440.037 716.658C441.117 718.118 441.598 719.913 441.387 721.697C441.251 723.049 440.754 724.344 439.946 725.456C439.138 726.568 438.045 727.458 436.775 728.041C435.201 728.768 433.432 729.005 431.713 728.719C429.993 728.434 428.408 727.641 427.174 726.448C425.94 725.255 425.12 723.722 424.825 722.06C424.53 720.397 424.775 718.687 425.527 717.165C426.138 715.937 427.067 714.881 428.222 714.1C429.378 713.319 430.722 712.839 432.126 712.706C433.958 712.512 435.8 712.977 437.3 714.012C438.312 714.737 438.65 715.317 438.575 715.389Z" fill="#3B52BE"/>
<path d="M660.994 883.593C660.994 883.593 659.57 883.593 657.245 884.427C653.935 885.36 651.036 887.322 648.996 890.01C647.319 892.163 646.296 894.725 646.041 897.409C645.786 900.093 646.31 902.793 647.554 905.205C648.799 907.617 650.714 909.646 653.084 911.065C655.455 912.483 658.188 913.234 660.976 913.234C663.763 913.234 666.496 912.483 668.867 911.065C671.238 909.646 673.152 907.617 674.397 905.205C675.641 902.793 676.165 900.093 675.91 897.409C675.656 894.725 674.632 892.163 672.955 890.01C670.909 887.336 668.032 885.367 664.744 884.391C662.382 883.739 660.994 883.738 660.994 883.593C662.224 883.287 663.514 883.287 664.744 883.593C668.352 884.325 671.578 886.263 673.855 889.067C675.576 891.168 676.717 893.658 677.169 896.302C677.622 898.947 677.372 901.659 676.442 904.184C675.294 907.311 673.173 910.017 670.37 911.931C667.567 913.845 664.22 914.873 660.788 914.873C657.356 914.873 654.009 913.845 651.206 911.931C648.403 910.017 646.282 907.311 645.135 904.184C644.205 901.659 643.954 898.947 644.407 896.302C644.859 893.658 646 891.168 647.722 889.067C650.012 886.261 653.25 884.323 656.87 883.593C658.218 883.221 659.647 883.221 660.994 883.593V883.593Z" fill="#3B52BE"/>
<path d="M1015.73 683.054C1015.73 683.235 1014.31 683.235 1011.98 683.888C1008.67 684.821 1005.77 686.783 1003.73 689.47C1002.25 691.413 1001.29 693.685 1000.94 696.078C1000.59 698.471 1000.87 700.91 1001.75 703.173C1002.46 705.17 1003.61 706.994 1005.12 708.517C1006.63 710.039 1008.47 711.224 1010.51 711.988C1012.54 712.752 1014.73 713.077 1016.91 712.941C1019.09 712.804 1021.21 712.208 1023.12 711.196C1025.04 710.184 1026.71 708.779 1028 707.08C1029.3 705.381 1030.2 703.429 1030.63 701.36C1031.07 699.291 1031.03 697.155 1030.52 695.101C1030.01 693.048 1029.05 691.126 1027.69 689.47C1025.66 686.793 1022.78 684.833 1019.48 683.888C1017.12 683.235 1015.73 683.235 1015.73 683.054C1017.03 682.742 1018.38 682.742 1019.67 683.054C1023.29 683.789 1026.51 685.742 1028.78 688.564C1030.5 690.665 1031.64 693.155 1032.1 695.799C1032.55 698.443 1032.3 701.156 1031.37 703.681C1030.22 706.808 1028.1 709.514 1025.3 711.428C1022.49 713.342 1019.15 714.37 1015.71 714.37C1012.28 714.37 1008.93 713.342 1006.13 711.428C1003.33 709.514 1001.21 706.808 1000.06 703.681C999.131 701.156 998.88 698.443 999.333 695.799C999.785 693.155 1000.93 690.665 1002.65 688.564C1004.93 685.739 1008.17 683.787 1011.8 683.054C1013.09 682.747 1014.44 682.747 1015.73 683.054Z" fill="#3B52BE"/>
<path d="M635.236 773.97C636.294 772.978 637.63 772.308 639.079 772.046C640.527 771.783 642.023 771.94 643.381 772.495C644.738 773.049 645.896 773.979 646.71 775.166C647.525 776.354 647.959 777.747 647.959 779.172C647.959 780.597 647.525 781.99 646.71 783.178C645.896 784.365 644.738 785.295 643.381 785.85C642.023 786.405 640.527 786.561 639.079 786.298C637.63 786.036 636.294 785.367 635.236 784.374C634.516 783.698 633.944 782.89 633.553 781.996C633.162 781.103 632.961 780.142 632.961 779.172C632.961 778.202 633.162 777.241 633.553 776.348C633.944 775.454 634.516 774.646 635.236 773.97Z" fill="#3B52BE"/>
<path d="M354.963 727.968C359.167 727.968 362.574 724.673 362.574 720.609C362.574 716.545 359.167 713.25 354.963 713.25C350.759 713.25 347.352 716.545 347.352 720.609C347.352 724.673 350.759 727.968 354.963 727.968Z" fill="#3B52BE"/>
<path d="M1138.31 678.56C1142.51 678.56 1145.92 675.265 1145.92 671.201C1145.92 667.136 1142.51 663.842 1138.31 663.842C1134.1 663.842 1130.7 667.136 1130.7 671.201C1130.7 675.265 1134.1 678.56 1138.31 678.56Z" fill="#3B52BE"/>
<path d="M850.041 552.551C851.098 551.559 852.435 550.889 853.883 550.627C855.332 550.365 856.828 550.521 858.186 551.076C859.543 551.63 860.701 552.56 861.515 553.747C862.329 554.935 862.764 556.328 862.764 557.753C862.764 559.178 862.329 560.571 861.515 561.759C860.701 562.946 859.543 563.876 858.186 564.43C856.828 564.985 855.332 565.142 853.883 564.879C852.435 564.617 851.098 563.947 850.041 562.955C849.321 562.279 848.749 561.471 848.358 560.577C847.967 559.683 847.766 558.723 847.766 557.753C847.766 556.783 847.967 555.823 848.358 554.929C848.749 554.035 849.321 553.227 850.041 552.551Z" fill="#3B52BE"/>
<path d="M675.768 970.341C676.825 969.349 678.161 968.679 679.61 968.417C681.058 968.155 682.555 968.311 683.912 968.866C685.269 969.421 686.427 970.35 687.242 971.537C688.056 972.725 688.49 974.118 688.49 975.543C688.49 976.968 688.056 978.361 687.242 979.549C686.427 980.736 685.269 981.666 683.912 982.221C682.555 982.775 681.058 982.932 679.61 982.669C678.161 982.407 676.825 981.737 675.768 980.745C675.048 980.069 674.475 979.261 674.084 978.367C673.694 977.474 673.492 976.513 673.492 975.543C673.492 974.573 673.694 973.613 674.084 972.719C674.475 971.826 675.048 971.017 675.768 970.341V970.341Z" fill="#3B52BE"/>
<path d="M792.415 805.581C792.05 806.364 791.598 807.105 791.065 807.792L786.866 813.955L771.193 835.995L770.593 836.865L769.956 836.032L747.009 806.125H748.546L736.36 821.894C732.611 826.788 728.861 831.536 725.337 836.14L724.55 837.192L723.8 836.104L702.84 806.016H704.04L684.393 827.766L678.843 833.675C678.24 834.406 677.548 835.063 676.781 835.633C677.254 834.825 677.82 834.071 678.469 833.385L683.68 827.186L702.84 805.146L703.478 804.385L704.077 805.218L725.299 835.125H723.725L734.748 820.879L746.934 805.11L747.721 804.131L748.471 805.146L770.968 835.234H769.731L785.928 813.484L790.465 807.575C791.74 806.197 792.34 805.508 792.415 805.581Z" fill="#3B52BE"/>
<path d="M867.89 929.087C867.738 929.95 867.474 930.791 867.103 931.589C866.428 933.401 865.528 935.685 864.44 938.476C861.966 944.711 858.554 953.194 854.467 963.417L854.092 964.396L853.23 963.707L823.796 939.709L825.296 939.383C822.709 945.183 819.972 951.2 817.197 957.508L809.698 973.785L809.173 974.981L808.161 974.111L780.64 949.46L781.915 949.243L767.891 974.618L764.029 981.542C763.606 982.39 763.091 983.192 762.492 983.935C762.756 983.024 763.133 982.147 763.617 981.325L767.367 974.075C770.704 967.694 775.278 958.922 780.752 948.373L781.202 947.503L781.989 948.192L809.736 972.588L808.198 972.914L815.697 956.602C818.472 950.403 821.209 944.349 823.834 938.476L824.321 937.353L825.333 938.15L854.504 962.438L853.305 962.728C857.654 952.578 861.253 944.168 863.916 938.041C865.153 935.286 866.128 933.039 866.953 931.262C867.199 930.512 867.512 929.785 867.89 929.087V929.087Z" fill="#3B52BE"/>
<path d="M930.547 607.834C931.366 608.19 932.145 608.627 932.871 609.139L939.208 613.235L961.93 628.424L962.829 629.041L961.967 629.657L930.922 651.734V650.247L947.194 662.065L961.855 672.94L962.942 673.702L961.817 674.426L930.622 694.582V693.349L952.893 712.417L958.967 717.819C959.726 718.411 960.417 719.079 961.03 719.812C960.172 719.356 959.379 718.795 958.668 718.145L952.293 713.106L929.572 694.509L928.784 693.857L929.647 693.277L960.655 672.904V674.426L945.957 663.733L929.722 651.879L928.672 651.117L929.722 650.392L960.955 628.642V629.838L938.458 614.105L932.759 609.61C931.97 609.08 931.23 608.486 930.547 607.834V607.834Z" fill="#3B52BE"/>
<path d="M1023.79 775.929C1023.97 775.08 1024.24 774.253 1024.61 773.464L1027.43 766.577C1030.05 760.45 1033.61 752.076 1037.92 741.854L1038.34 740.875L1039.16 741.6L1068.07 766.178L1066.57 766.504C1069.31 760.74 1072.16 754.759 1075.04 748.596C1077.71 743.086 1080.26 737.721 1082.77 732.428L1083.33 731.268L1084.31 732.175L1111.3 757.369L1110.03 757.55L1124.57 732.428C1126.26 729.601 1127.61 727.317 1128.7 725.541C1129.14 724.695 1129.68 723.904 1130.31 723.185C1130.01 724.082 1129.61 724.945 1129.11 725.758L1125.36 733.008L1111.45 758.384L1110.96 759.29L1110.18 758.565L1082.96 733.625L1084.49 733.335L1076.99 749.503C1074.07 755.629 1071.22 761.61 1068.45 767.374L1067.92 768.498L1066.95 767.664L1038.3 742.832L1039.5 742.542L1028.25 767.048L1025.1 773.718C1024.74 774.495 1024.3 775.236 1023.79 775.929Z" fill="#3B52BE"/>
<path d="M429.539 670.367C429.727 669.516 430.017 668.689 430.401 667.902L433.176 661.05L443.712 636.291L444.087 635.349L444.912 636.037L473.82 660.652L472.321 660.942L480.832 643.07L488.518 626.902L489.081 625.706L490.056 626.612L517.052 651.806L515.777 651.988L530.325 626.866C532.012 624.075 533.4 621.791 534.449 619.978C534.899 619.14 535.439 618.35 536.062 617.622C535.768 618.523 535.366 619.387 534.862 620.196L531.112 627.446L517.202 652.821L516.714 653.691L515.927 653.003L488.743 628.026L490.243 627.736C487.768 632.956 485.219 638.394 482.744 643.904L474.233 661.775L473.67 662.935L472.733 662.102L444.05 637.234L445.324 636.835C440.75 646.876 436.926 655.214 434.076 661.304C432.764 664.023 431.714 666.234 430.889 668.011C430.547 668.849 430.093 669.641 429.539 670.367Z" fill="#3B52BE"/>
<path d="M699.273 626.938C699.974 626.405 700.714 625.92 701.486 625.488L708.01 621.682L731.931 608.269L732.869 607.726L733.094 608.777C735.231 619.29 737.781 631.76 740.593 645.318L739.243 644.665L757.203 635.457L773.513 627.192L774.713 626.576V627.845C776.738 641.04 778.462 653.22 780.262 663.733L779.137 663.153C790.386 658.477 799.684 654.634 806.471 651.77L813.97 648.725C814.848 648.334 815.765 648.03 816.707 647.819C815.911 648.356 815.056 648.806 814.157 649.16L806.658 652.568L779.587 664.567L778.65 664.965V663.987C776.925 653.438 774.9 641.294 772.763 628.135L774.188 628.823L757.915 637.125L739.88 646.296L738.755 646.876L738.493 645.644C735.868 632.086 733.469 619.616 731.406 609.067L732.569 609.574L708.46 622.335L701.711 625.778C700.954 626.267 700.135 626.657 699.273 626.938V626.938Z" fill="#3B52BE"/>
<path d="M791.702 540.698C792.489 508.072 793.914 473.163 793.914 473.163C793.914 473.163 845.206 466.891 847.419 416.322C849.106 377.787 849.781 317.248 850.043 290.532C850.063 286.647 848.79 282.859 846.414 279.726C844.038 276.593 840.683 274.281 836.845 273.131L751.507 247.756L679.705 299.014L678.017 538.958C677.792 569.481 698.415 588.295 729.948 588.295C760.843 588.367 791.027 570.568 791.702 540.698Z" fill="#FFAD9D"/>
<path d="M794.026 473.162C769.722 472.537 746.135 465.066 726.16 451.665C726.16 451.665 742.095 488.532 793.163 485.56L794.026 473.162Z" fill="#E88B79"/>
<path d="M789.299 414.218C789.758 413.261 789.946 412.204 789.842 411.154C789.739 410.104 789.349 409.099 788.712 408.243C788.074 407.387 787.213 406.71 786.216 406.282C785.219 405.854 784.122 405.691 783.037 405.808C782.767 403.498 781.613 401.37 779.802 399.841C777.991 398.311 775.655 397.492 773.251 397.543C770.85 397.724 768.577 398.663 766.781 400.215C764.986 401.767 763.768 403.847 763.315 406.134C762.973 408.444 763.321 410.801 764.317 412.927C765.314 415.052 766.917 416.859 768.939 418.133C770.989 419.355 773.313 420.082 775.715 420.253C778.116 420.423 780.525 420.032 782.737 419.112C784.504 418.48 786.072 417.417 787.287 416.026C788.503 414.634 789.325 412.963 789.674 411.173" fill="#E88B79"/>
<path d="M830.509 338.563C830.539 340.371 829.833 342.119 828.542 343.428C827.251 344.737 825.479 345.503 823.609 345.559C822.69 345.644 821.762 345.548 820.882 345.277C820.002 345.007 819.187 344.567 818.487 343.985C817.787 343.403 817.215 342.69 816.807 341.889C816.398 341.088 816.161 340.216 816.11 339.324C816.089 337.509 816.803 335.758 818.099 334.444C819.394 333.13 821.17 332.358 823.047 332.292C823.966 332.213 824.893 332.314 825.771 332.589C826.649 332.864 827.461 333.307 828.158 333.893C828.854 334.478 829.422 335.194 829.826 335.996C830.23 336.799 830.462 337.672 830.509 338.563V338.563Z" fill="#263238"/>
<path d="M839.244 332.765C838.344 333.671 832.907 329.756 825.183 329.792C817.459 329.828 811.798 333.417 810.973 332.62C810.148 331.822 811.46 330.59 813.935 328.994C817.239 326.779 821.163 325.59 825.183 325.587C829.24 325.587 833.187 326.859 836.432 329.212C839.019 330.698 839.694 332.33 839.244 332.765Z" fill="#263238"/>
<path d="M791.328 389.569C795.402 388.323 799.622 387.58 803.889 387.357C805.877 387.176 807.639 386.777 808.051 385.472C808.239 383.501 807.78 381.522 806.739 379.817L800.927 365.317C792.79 344.618 786.941 327.616 787.803 327.29C788.666 326.964 795.94 343.494 804.039 364.193L809.626 378.693C810.882 380.997 811.241 383.659 810.639 386.197C810.357 386.87 809.92 387.471 809.361 387.955C808.802 388.439 808.136 388.792 807.414 388.989C806.326 389.275 805.204 389.421 804.077 389.424C799.848 389.963 795.568 390.011 791.328 389.569V389.569Z" fill="#263238"/>
<path d="M768.607 394.716C769.844 394.716 769.882 402.764 777.043 408.528C784.205 414.292 793.166 413.385 793.204 414.509C793.204 415.017 791.216 416.104 787.467 416.177C782.554 416.26 777.771 414.654 773.969 411.645C770.3 408.77 767.944 404.618 767.407 400.081C767.07 396.674 768.007 394.68 768.607 394.716Z" fill="#263238"/>
<path d="M767.218 329.03C766.393 330.987 759.907 329.537 752.22 330.009C744.534 330.48 737.972 332.401 737.222 330.516C736.81 329.61 738.047 327.797 740.747 326.021C744.154 323.844 748.104 322.592 752.183 322.396C756.207 322.16 760.219 323.013 763.768 324.861C766.281 326.384 767.555 328.087 767.218 329.03Z" fill="#263238"/>
<path d="M840.968 314.456C839.319 316.16 832.832 314.456 825.071 314.456C817.309 314.456 810.748 315.58 809.248 313.803C808.573 312.933 809.585 311.266 812.472 309.635C816.447 307.637 820.895 306.686 825.371 306.879C829.835 306.895 834.212 308.072 838.044 310.287C840.781 311.882 841.681 313.622 840.968 314.456Z" fill="#263238"/>
<path d="M765.002 343.567C764.703 343.567 763.803 342.226 761.59 340.74C758.712 338.833 755.245 337.937 751.767 338.202C748.246 338.563 744.865 339.731 741.906 341.61C739.544 343.023 738.156 344.111 738.156 343.894C738.156 343.676 738.981 342.298 741.268 340.522C744.247 338.126 747.908 336.66 751.767 336.317C753.72 336.153 755.687 336.367 757.554 336.946C759.421 337.525 761.15 338.457 762.64 339.688C764.703 341.682 765.19 343.495 765.002 343.567Z" fill="#263238"/>
<path d="M738.571 360.676C738.308 361.111 737.184 360.93 736.096 360.278C735.009 359.625 734.334 358.755 734.634 358.32C734.934 357.885 736.021 358.03 737.109 358.682C738.196 359.335 738.871 360.241 738.571 360.676Z" fill="#E88B79"/>
<path d="M751.959 361.582C751.396 361.582 751.134 360.531 751.284 359.407C751.434 358.283 752.034 357.377 752.559 357.449C753.084 357.522 753.383 358.501 753.233 359.661C753.084 360.821 752.484 361.655 751.959 361.582Z" fill="#E88B79"/>
<path d="M744.645 383.08C744.158 382.863 744.121 381.957 744.645 381.087C745.17 380.216 745.807 379.636 746.294 379.854C746.781 380.071 746.819 380.942 746.294 381.848C745.77 382.754 745.282 383.298 744.645 383.08Z" fill="#E88B79"/>
<path d="M830.506 359.516C830.206 359.951 829.343 359.914 828.593 359.516C827.843 359.117 827.468 358.283 827.768 357.848C828.068 357.413 828.93 357.449 829.681 357.848C830.431 358.247 830.806 359.081 830.506 359.516Z" fill="#E88B79"/>
<path d="M839.024 358.321C838.574 358.067 838.649 357.052 839.248 356.074C839.848 355.095 840.673 354.515 841.16 354.769C841.647 355.022 841.535 356.037 840.935 357.016C840.335 357.995 839.473 358.575 839.024 358.321Z" fill="#E88B79"/>
<path d="M833.281 379.853C832.756 379.853 832.531 378.512 832.794 377.025C833.056 375.539 833.656 374.451 834.218 374.56C834.781 374.669 834.968 375.902 834.706 377.352C834.443 378.802 833.806 379.925 833.281 379.853Z" fill="#E88B79"/>
<path d="M830.508 459.207C830.508 459.207 832.12 459.823 835.045 460.621C839.148 461.75 843.438 462.107 847.68 461.672C853.957 460.96 859.918 458.617 864.928 454.893C871.002 450.366 875.3 443.973 877.114 436.768C878.827 429.532 878.305 421.969 875.614 415.017C873.414 409.289 869.398 404.379 864.141 400.988C860.564 398.745 856.517 397.296 852.292 396.747C849.293 396.384 847.605 396.747 847.568 396.384C847.965 396.24 848.382 396.154 848.805 396.131C849.99 396.026 851.182 396.026 852.367 396.131C856.802 396.412 861.099 397.731 864.89 399.973C870.539 403.373 874.885 408.465 877.264 414.473C880.269 421.781 880.871 429.806 878.988 437.456C877.14 445.148 872.547 451.964 866.015 456.705C860.724 460.551 854.424 462.887 847.83 463.448C843.418 463.774 838.984 463.194 834.82 461.744C833.225 461.178 831.761 460.316 830.508 459.207Z" fill="#72A9E1"/>
<g opacity="0.2">
<path opacity="0.2" d="M758.78 795.831C759.83 796.302 757.356 804.386 748.319 814.536C742.918 820.443 736.592 825.495 729.572 829.507C712.259 839.657 691.586 843.016 671.793 838.896C663.894 837.274 656.304 834.474 649.296 830.595C637.335 823.889 632.273 817.037 633.098 816.095C633.923 815.152 640.597 819.72 652.37 824.469C667.399 830.781 683.998 832.743 700.156 830.118C716.315 827.493 731.339 820.393 743.408 809.678C752.781 801.703 757.468 795.069 758.78 795.831Z" fill="black"/>
</g>
<g opacity="0.2">
<path opacity="0.2" d="M570.891 707.342C570.891 707.342 636.317 854.991 632.83 874.312C629.343 893.634 583.526 956.529 583.526 956.529L616.895 882.469C598.501 824.885 583.146 766.434 570.891 707.342V707.342Z" fill="black"/>
</g>
<path d="M1071.04 737.648C1063.61 724.926 1058.68 710.99 1056.49 696.54C1057.05 696.54 1059.6 705.82 1063.61 717.13C1067.62 728.44 1071.49 737.394 1071.04 737.648Z" fill="#263238"/>
<path d="M1078.99 727.461C1073.98 722.736 1069.66 717.383 1066.13 711.547C1062.05 706.051 1058.78 700.037 1056.41 693.675C1056.9 693.421 1061.51 701.251 1067.66 710.532C1073.81 719.812 1079.55 727.098 1078.99 727.461Z" fill="#263238"/>
<path d="M840.148 860.212C838.666 861.544 837.073 862.756 835.386 863.837L822.076 872.465L778.094 901.465L734.226 930.901L720.915 939.782C719.338 940.941 717.656 941.96 715.891 942.827C717.304 941.493 718.835 940.281 720.465 939.202C723.502 936.918 727.964 933.728 733.438 929.813C744.462 921.983 759.684 911.398 776.97 899.906C794.255 888.415 809.852 878.156 821.326 871.16C827.063 867.535 831.712 864.707 834.974 862.75C836.63 861.778 838.359 860.93 840.148 860.212V860.212Z" fill="#263238"/>
<path d="M379.223 679.792C380.591 672.822 382.871 666.049 386.009 659.636C388.575 652.99 392.015 646.691 396.245 640.895C396.733 641.148 392.496 649.667 387.809 660.361C385.304 666.98 382.438 673.466 379.223 679.792V679.792Z" fill="#263238"/>
<path d="M391.594 695.922C391.234 693.19 391.234 690.425 391.594 687.693C391.594 682.618 392.231 675.586 393.206 667.901C394.181 660.216 395.381 653.4 396.468 648.289C396.871 645.554 397.614 642.877 398.68 640.314C398.678 643.066 398.389 645.811 397.818 648.507C397.105 653.509 396.093 660.433 395.118 668.118C394.143 675.803 393.468 682.618 392.943 687.766C392.802 690.524 392.349 693.259 391.594 695.922V695.922Z" fill="#263238"/>
<path d="M751.058 218.03C758.571 231.214 761.439 246.405 759.227 261.304C757.014 276.204 749.843 290.001 738.797 300.609C727.549 311.049 712.101 318.155 705.052 331.676C697.553 345.886 701.565 363.069 706.927 378.113C712.289 393.157 719.075 408.673 716.788 424.442C713.976 444.053 697.741 459.859 694.291 479.361C687.692 516.663 729.199 549.579 724.287 587.135C722.187 603.592 711.426 617.585 702.09 631.506C692.754 645.426 684.28 661.63 687.505 677.943C689.042 685.664 695.828 692.443 695.004 700.382C691.966 732.137 645.511 736.379 638.761 730.832C647.235 715.208 637.224 690.957 636.212 689.724C634.726 696.642 631.032 702.935 625.65 707.715C620.269 712.495 613.471 715.522 606.216 716.368C608.033 704.222 607.021 691.837 603.254 680.118C600.463 684.587 596.701 688.416 592.227 691.34C587.753 694.263 582.675 696.21 577.345 697.047C586.132 652.882 580.62 607.172 561.56 566.146C554.848 551.863 546.299 537.145 548.474 521.485C551.324 501.329 570.971 487.627 580.12 469.356C590.506 448.802 587.019 424.587 584.169 401.857C581.32 379.128 579.895 354.188 593.393 335.41C601.642 323.955 614.69 316.016 621.326 303.618C627.513 292.127 627.251 278.46 631 266.026C637.824 243.478 654.922 218.03 677.869 210.345C700.815 202.66 736.51 195.229 750.946 218.03" fill="#263238"/>
<path d="M586.94 649.704C581.316 665.364 575.692 681.605 576.817 698.135C577.941 714.665 588.065 731.812 604.6 736.416C610.862 738.156 618.211 738.264 622.635 742.905C624.329 744.949 625.444 747.384 625.871 749.97C626.298 752.556 626.023 755.206 625.072 757.658C623.109 762.539 620.266 767.044 616.674 770.963C626.991 766.253 635.706 758.795 641.795 749.466C643.237 755.83 643.044 762.438 641.234 768.713C639.423 774.989 636.05 780.739 631.409 785.463C644.045 785.934 655.068 777.524 664.029 768.86C684.427 749.067 701.524 722.93 699.012 695.126C696.5 667.322 674.903 643.324 674.978 615.375C674.978 604.5 678.315 594.241 678.727 583.547C679.14 572.853 676.29 560.999 667.066 555.09" fill="#263238"/>
<path d="M745.85 219.952C751.376 213.71 758.415 208.891 766.339 205.924C774.263 202.957 782.824 201.935 791.256 202.95C808.224 205.225 823.733 213.457 834.825 226.078C845.797 238.676 853.589 253.569 857.585 269.579C859.132 274.258 859.731 279.181 859.347 284.079C859.15 286.511 858.37 288.864 857.068 290.953C855.766 293.043 853.979 294.81 851.848 296.115C849.493 297.193 846.909 297.722 844.304 297.659C841.699 297.596 839.146 296.943 836.85 295.752C832.288 293.355 828.149 290.271 824.589 286.617C823.437 291.445 820.673 295.771 816.724 298.928C812.774 302.084 807.859 303.896 802.738 304.081C797.617 304.267 792.576 302.817 788.393 299.955C784.21 297.093 781.118 292.979 779.595 288.248C776.826 294.727 771.971 300.17 765.751 303.773C759.531 307.376 752.276 308.945 745.061 308.25C737.846 307.554 731.055 304.63 725.693 299.911C720.331 295.192 716.684 288.929 715.292 282.049C712.705 269.434 718.067 256.456 725.566 245.799C733.064 235.141 742.776 226.151 750.499 215.674" fill="#263238"/>
<path d="M552.82 556.03C553.833 554.878 554.772 553.667 555.632 552.405C557.92 548.713 559.281 544.554 559.607 540.261C559.974 533.457 559.546 526.635 558.332 519.924C557.741 515.648 557.59 511.325 557.882 507.019C558.313 502.139 559.822 497.404 562.306 493.135C567.443 484.109 576.48 476.714 586.303 469.717C591.215 466.092 596.314 462.467 601.301 458.371C606.325 454.212 610.518 449.199 613.674 443.58C616.703 437.54 618.231 430.899 618.136 424.186C618.004 417.13 617.175 410.102 615.661 403.197C614.237 396.128 612.512 388.878 611.912 381.447C610.892 373.786 611.414 366.006 613.449 358.536C614.593 354.754 616.394 351.187 618.774 347.987C621.168 344.893 624.009 342.146 627.21 339.831C633.536 335.635 640.193 331.926 647.12 328.738C653.697 325.758 659.656 321.643 664.705 316.594C669.224 311.5 671.966 305.157 672.541 298.469C673.403 291.944 673.178 285.455 673.366 279.111C673.38 272.971 674.314 266.866 676.141 260.986C679.575 250.31 685.999 240.763 694.7 233.399C701.835 227.292 710.451 223.027 719.747 221.001C726.766 219.524 734.054 219.735 740.969 221.618C745.324 222.823 749.347 224.953 752.742 227.853C753.61 228.61 754.412 229.435 755.142 230.318C755.629 230.898 755.892 231.224 755.854 231.26C755.817 231.296 754.805 230.028 752.48 228.143C749.049 225.422 745.063 223.433 740.781 222.306C733.968 220.601 726.828 220.514 719.972 222.053C710.909 224.115 702.536 228.369 695.638 234.414C687.176 241.646 680.958 251.008 677.678 261.457C675.93 267.264 675.047 273.281 675.053 279.329C675.163 285.849 674.925 292.371 674.341 298.868C673.701 305.886 670.819 312.537 666.092 317.899C660.903 323.113 654.78 327.375 648.019 330.478C641.191 333.609 634.622 337.245 628.372 341.354C625.327 343.555 622.625 346.167 620.348 349.111C618.106 352.137 616.407 355.508 615.324 359.08C613.362 366.315 612.865 373.848 613.862 381.266C614.574 388.516 616.299 395.766 617.611 403.016C619.134 410.029 619.962 417.166 620.086 424.331C620.157 431.326 618.54 438.239 615.362 444.523C612.088 450.315 607.741 455.476 602.538 459.748C597.627 464.026 592.452 467.615 587.54 471.131C577.679 478.019 568.793 485.233 563.769 493.933C561.336 498.025 559.84 502.574 559.382 507.273C559.044 511.501 559.145 515.752 559.682 519.961C560.828 526.753 561.143 533.652 560.619 540.515C560.205 544.882 558.699 549.087 556.232 552.768C555.297 554.036 554.143 555.14 552.82 556.03V556.03Z" fill="#455A64"/>
<path d="M642.551 639.228C641.929 637.848 641.439 636.417 641.089 634.95C640.283 630.665 640.449 626.262 641.576 622.045C643.425 615.465 645.82 609.04 648.737 602.832C651.699 595.582 655.411 586.809 653.949 576.985C653.024 571.907 651.047 567.061 648.137 562.739C644.957 557.982 641.528 553.384 637.864 548.964C633.89 544.174 630.482 538.97 627.703 533.448C623.293 524.026 621.329 513.705 621.982 503.382C622.635 493.059 625.887 483.047 631.453 474.215C639.439 461.636 652.149 452.464 663.248 441.843C668.814 436.679 673.587 430.77 677.42 424.298C679.2 421.12 680.585 417.749 681.545 414.256C682.401 410.802 682.817 407.259 682.782 403.707C682.407 389.461 676.521 376.374 674.571 363.143C673.353 356.84 673.606 350.353 675.313 344.157C677.019 337.96 680.134 332.211 684.432 327.327C691.912 318.991 700.526 311.674 710.041 305.577C717.774 300.602 725.083 295.038 731.9 288.938C737.04 284.342 741.371 278.967 744.723 273.023C747.458 267.893 749.03 262.258 749.334 256.493C749.459 257.989 749.459 259.492 749.334 260.988C748.858 265.292 747.588 269.479 745.585 273.35C742.308 279.449 737.999 284.974 732.837 289.699C726.065 295.933 718.766 301.607 711.015 306.664C701.693 312.707 693.245 319.924 685.894 328.124C681.765 332.849 678.781 338.407 677.159 344.39C675.537 350.374 675.319 356.632 676.521 362.708C678.47 375.649 684.432 388.699 684.882 403.49C684.906 407.151 684.478 410.802 683.607 414.365C682.599 418.008 681.151 421.524 679.295 424.841C675.375 431.52 670.489 437.623 664.785 442.967C653.537 453.842 640.939 462.796 633.215 474.976C627.808 483.558 624.641 493.283 623.988 503.311C623.335 513.34 625.215 523.372 629.465 532.542C632.172 537.967 635.492 543.085 639.364 547.804C643.113 552.516 646.638 557.011 649.6 561.76C652.579 566.257 654.593 571.287 655.524 576.55C656.949 586.882 652.974 595.763 649.937 603.013C646.941 609.152 644.434 615.502 642.438 622.009C641.264 626.126 640.996 630.436 641.651 634.66C642.101 637.742 642.663 639.192 642.551 639.228Z" fill="#455A64"/>
<path d="M839.018 280.743C838.681 280.743 837.931 274.762 836.093 265.228C834.999 259.682 833.341 254.254 831.144 249.024C828.477 242.663 824.363 236.964 819.108 232.348C813.749 227.879 807.128 225.063 800.098 224.265C794.312 223.53 788.45 223.53 782.663 224.265C772.727 225.497 766.653 226.911 766.578 226.585C767.924 226.01 769.333 225.584 770.778 225.316C774.628 224.32 778.534 223.533 782.476 222.959C788.369 221.974 794.375 221.779 800.323 222.379C807.704 223.177 814.66 226.123 820.271 230.826C825.758 235.63 830.019 241.598 832.719 248.262C834.882 253.629 836.429 259.208 837.331 264.902C838.156 269.723 838.531 273.674 838.756 276.393C839.008 277.829 839.096 279.288 839.018 280.743V280.743Z" fill="#455A64"/>
<path d="M789.677 291.365C789.726 287.522 790.002 283.686 790.502 279.873C791.526 270.752 790.75 261.526 788.215 252.685C786.725 247.902 784.265 243.453 780.979 239.599C778.257 236.492 774.933 233.931 771.193 232.059C767.625 230.477 763.835 229.414 759.945 228.905C760.992 228.608 762.095 228.546 763.17 228.724C766.141 228.933 769.05 229.657 771.756 230.862C775.782 232.656 779.372 235.25 782.291 238.475C785.827 242.45 788.469 247.091 790.052 252.105C792.679 261.171 793.292 270.671 791.852 279.982C791.402 283.607 790.877 286.399 790.465 288.356C790.39 289.396 790.123 290.415 789.677 291.365V291.365Z" fill="#455A64"/>
<path d="M1226.26 149.988V15.2803H251.062V1195.64H1226.26V792.169L1158.06 835.67V988.865H322.79V148.574H1158.06V218.32C1178.31 205.451 1207.97 174.385 1226.26 149.988Z" fill="white"/>
<path d="M348.737 81.3285C350.599 80.5328 352.178 79.2255 353.278 77.5691C354.378 75.9127 354.951 73.9803 354.924 72.0121C355.006 70.7228 354.815 69.4308 354.362 68.2156C353.908 67.0005 353.202 65.888 352.287 64.9468C351.372 64.0055 350.267 63.2554 349.041 62.7426C347.814 62.2298 346.492 61.9653 345.156 61.9653C343.82 61.9653 342.498 62.2298 341.271 62.7426C340.045 63.2554 338.94 64.0055 338.025 64.9468C337.11 65.888 336.404 67.0005 335.95 68.2156C335.497 69.4308 335.306 70.7228 335.388 72.0121C335.355 73.9956 335.927 75.9446 337.035 77.6148C338.142 79.285 339.734 80.6021 341.613 81.401C338.548 81.7522 335.66 82.9723 333.311 84.9075C330.962 86.8427 329.258 89.4066 328.414 92.2762C331.942 96.0911 336.748 98.5813 341.988 99.3088H348.024C353.359 98.5881 358.239 96.0101 361.748 92.0587C360.922 89.2256 359.245 86.6933 356.928 84.7831C354.612 82.8728 351.761 81.6704 348.737 81.3285Z" fill="#455A64"/>
<path d="M345.103 99.6345C345.103 99.6345 347.09 99.6345 350.427 98.6557C355.159 97.3548 359.312 94.576 362.238 90.7531C364.377 87.9644 365.764 84.7049 366.275 81.2685C366.785 77.8321 366.403 74.3269 365.163 71.0689C363.634 67.0982 360.886 63.6745 357.287 61.257C353.688 58.8395 349.41 57.5438 345.028 57.5438C340.646 57.5438 336.368 58.8395 332.769 61.257C329.17 63.6745 326.422 67.0982 324.893 71.0689C323.673 74.3343 323.309 77.841 323.832 81.2758C324.356 84.7105 325.751 87.9665 327.893 90.7531C330.828 94.5677 334.999 97.3238 339.741 98.5832C343.116 99.4532 345.103 99.3807 345.103 99.562C345.103 99.7432 344.616 99.562 343.678 99.562C342.3 99.5776 340.927 99.4192 339.591 99.0907C334.577 98.0209 330.107 95.2895 326.955 91.3693C324.755 88.691 323.24 85.5488 322.531 82.1979C321.754 78.2987 322.065 74.2699 323.431 70.5252C324.943 66.3656 327.712 62.741 331.38 60.1212C335.32 57.2876 340.099 55.7573 345.009 55.7573C349.919 55.7573 354.699 57.2876 358.639 60.1212C362.318 62.7296 365.09 66.3581 366.587 70.5252C367.981 74.2636 368.305 78.2963 367.525 82.1979C366.875 85.5866 365.382 88.7716 363.175 91.4781C360.018 95.3891 355.573 98.1392 350.577 99.272C349.235 99.5639 347.866 99.7218 346.49 99.7432C345.59 99.707 345.103 99.707 345.103 99.6345Z" fill="#455A64"/>
<path d="M1157.73 56.1696C1157.73 57.1016 1157.45 58.0149 1156.92 58.7938C1156.4 59.5727 1155.64 60.1823 1154.75 60.5456C1153.86 60.9089 1152.88 61.0095 1151.94 60.8347C1150.99 60.6599 1150.12 60.2175 1149.43 59.5635C1148.74 58.9096 1148.27 58.0734 1148.08 57.1607C1147.88 56.248 1147.97 55.2997 1148.33 54.4359C1148.7 53.5721 1149.31 52.8315 1150.11 52.3077C1150.91 51.7839 1151.85 51.5005 1152.81 51.4933C1153.45 51.4885 1154.09 51.6057 1154.68 51.8381C1155.27 52.0706 1155.81 52.4137 1156.27 52.8479C1156.73 53.2822 1157.09 53.799 1157.34 54.3689C1157.59 54.9389 1157.72 55.5508 1157.73 56.1696V56.1696Z" fill="#455A64"/>
<path d="M1157.72 73.0641C1157.74 73.9976 1157.47 74.9142 1156.94 75.6979C1156.42 76.4815 1155.66 77.0968 1154.78 77.4656C1153.89 77.8345 1152.91 77.9403 1151.96 77.7696C1151.01 77.599 1150.13 77.1596 1149.44 76.5071C1148.75 75.8547 1148.28 75.0186 1148.08 74.1049C1147.88 73.1913 1147.97 72.2412 1148.33 71.3753C1148.69 70.5094 1149.31 69.7666 1150.11 69.2411C1150.91 68.7157 1151.85 68.4313 1152.81 68.424C1154.1 68.4143 1155.34 68.8966 1156.26 69.7658C1157.18 70.6349 1157.7 71.8205 1157.72 73.0641Z" fill="#455A64"/>
<path d="M1158.06 89.9928C1158.08 90.9262 1157.81 91.8429 1157.28 92.6265C1156.76 93.4102 1156 94.0254 1155.12 94.3943C1154.23 94.7631 1153.25 94.8689 1152.3 94.6983C1151.35 94.5276 1150.47 94.0882 1149.78 93.4358C1149.09 92.7833 1148.62 91.9472 1148.42 91.0336C1148.22 90.1199 1148.31 89.1699 1148.67 88.304C1149.03 87.4381 1149.65 86.6952 1150.45 86.1698C1151.25 85.6444 1152.19 85.36 1153.15 85.3527C1154.44 85.343 1155.68 85.8253 1156.6 86.6944C1157.52 87.5636 1158.04 88.7492 1158.06 89.9928V89.9928Z" fill="#455A64"/>
<path d="M822.147 78.5738C822.147 79.1176 726.01 79.5164 607.489 79.5164C488.969 79.5164 392.832 79.1176 392.832 78.5738C392.832 78.0301 488.931 77.6313 607.527 77.6313C726.123 77.6313 822.147 78.0664 822.147 78.5738Z" fill="#263238"/>
<path d="M474.38 1092.54L464.481 1088.3C459.245 1090.97 453.246 1091.91 447.405 1090.97C441.565 1090.03 436.203 1087.27 432.142 1083.1C428.082 1078.93 425.546 1073.6 424.924 1067.9C424.301 1062.21 425.626 1056.48 428.696 1051.58C431.766 1046.69 436.411 1042.9 441.92 1040.8C447.429 1038.7 453.497 1038.41 459.196 1039.96C464.895 1041.52 469.909 1044.83 473.471 1049.41C477.033 1053.98 478.946 1059.56 478.917 1065.28C478.97 1071.79 476.54 1078.09 472.093 1082.97L474.38 1092.54ZM451.245 1040.81C447.236 1040.67 443.247 1041.43 439.602 1043.05C435.957 1044.68 432.758 1047.1 430.262 1050.14C427.767 1053.18 426.046 1056.74 425.238 1060.54C424.431 1064.34 424.559 1068.27 425.613 1072.01C426.667 1075.75 428.618 1079.2 431.306 1082.08C433.995 1084.96 437.346 1087.19 441.09 1088.59C444.834 1089.98 448.864 1090.5 452.856 1090.11C456.848 1089.72 460.689 1088.43 464.069 1086.34L464.481 1086.12L471.755 1089.24L470.106 1082.32L470.443 1081.99C473.778 1078.43 475.97 1074.02 476.75 1069.27C477.531 1064.53 476.866 1059.67 474.839 1055.29C472.811 1050.91 469.507 1047.19 465.33 1044.6C461.154 1042 456.286 1040.63 451.32 1040.67L451.245 1040.81Z" fill="#263238"/>
<path d="M537.899 1088.37L526.651 1061.69L505.316 1042.84L556.834 1042.41L537.899 1088.37ZM510.078 1044.87L528.188 1060.97L537.862 1083.73L553.985 1044.58L510.078 1044.87Z" fill="#263238"/>
<path d="M554.869 1042.72L526.82 1060.4L527.844 1061.92L555.893 1044.24L554.869 1042.72Z" fill="#263238"/>
<path d="M1155.66 1089.21L1134.14 1068.8L1114.12 1088.55L1113.55 1029.5L1155.1 1029.14L1155.66 1089.21ZM1134.14 1066.22L1134.81 1066.88L1153.56 1085L1153.07 1031.1L1115.32 1031.42L1115.8 1084.28L1134.14 1066.22Z" fill="#263238"/>
<path d="M393.322 1048.68C392.578 1045.1 390.547 1041.9 387.589 1039.63C384.63 1037.37 380.937 1036.19 377.167 1036.32C373.396 1036.44 369.792 1037.85 366.997 1040.3C364.201 1042.75 362.396 1046.08 361.901 1049.69C361.331 1046.09 359.461 1042.81 356.623 1040.41C353.785 1038.02 350.162 1036.68 346.397 1036.62C342.631 1036.57 338.967 1037.8 336.054 1040.11C333.14 1042.41 331.166 1045.64 330.48 1049.22C329.687 1054.49 331.031 1059.86 334.23 1064.19C337.446 1068.46 341.228 1072.3 345.478 1075.61L362.238 1090.11C367.9 1085.11 372.699 1080.43 378.361 1075.43C382.607 1072.04 386.388 1068.15 389.61 1063.83C392.811 1059.43 394.14 1054 393.322 1048.68V1048.68Z" fill="#72A9E1"/>
<path d="M251.062 461.164C255.224 464.028 256.987 465.768 261.074 468.741C262.976 470.379 265.309 471.479 267.816 471.921C270.322 472.362 272.906 472.127 275.284 471.242C280.083 468.85 281.658 462.796 280.946 457.576C280.233 452.356 277.796 447.571 276.709 442.459C278.33 443.057 280.109 443.126 281.775 442.654C283.44 442.183 284.901 441.198 285.933 439.849C286.904 438.448 287.573 436.872 287.902 435.216C288.23 433.559 288.211 431.856 287.845 430.206C287.168 426.943 286.032 423.784 284.47 420.817C285.708 422.703 289.082 422.014 290.207 420.056C291.072 417.936 291.072 415.578 290.207 413.459C289.138 407.943 286.336 402.879 282.183 398.958C280.07 397.045 277.376 395.84 274.5 395.52C271.624 395.2 268.718 395.783 266.21 397.182C262.461 399.72 255.562 403.453 254.437 407.804C250.5 423.101 251.85 445.649 250.688 461.382" fill="white"/>
<path d="M1146.48 422.122C1148.55 422.96 1150.21 424.539 1151.11 426.531C1152.01 428.523 1152.08 430.774 1151.31 432.816C1148.2 440.972 1143.18 453.733 1139.43 461.49C1138.36 464.048 1136.79 466.386 1134.82 468.378C1133.84 469.467 1132.53 470.233 1131.08 470.571C1129.64 470.909 1128.11 470.8 1126.73 470.262C1125.35 469.723 1124.17 468.78 1123.37 467.565C1122.57 466.35 1122.18 464.924 1122.26 463.484C1122.22 460.564 1122.79 457.666 1123.94 454.965C1126.6 447.352 1131.14 435.97 1135.19 426.726C1136.07 424.69 1137.74 423.068 1139.84 422.207C1141.95 421.347 1144.31 421.316 1146.44 422.122H1146.48Z" fill="#FFAD9D"/>
<path d="M1158.85 437.129C1160.98 437.953 1162.69 439.558 1163.61 441.596C1164.52 443.633 1164.56 445.937 1163.73 448.004C1160.61 456.161 1155.59 468.921 1151.84 476.679C1150.74 479.232 1149.17 481.567 1147.19 483.566C1146.22 484.663 1144.92 485.437 1143.47 485.779C1142.02 486.121 1140.49 486.014 1139.11 485.473C1137.73 484.932 1136.55 483.985 1135.76 482.765C1134.96 481.544 1134.58 480.113 1134.67 478.672C1134.64 475.756 1135.2 472.863 1136.32 470.153C1138.98 462.577 1143.55 451.158 1147.57 441.914C1148.45 439.878 1150.12 438.256 1152.22 437.396C1154.32 436.535 1156.69 436.505 1158.81 437.31L1158.85 437.129Z" fill="#FFAD9D"/>
<path d="M1170.44 446.664C1172.24 447.375 1173.69 448.738 1174.47 450.463C1175.26 452.189 1175.31 454.142 1174.63 455.908C1171.93 462.977 1167.59 474.033 1164.32 480.74C1163.39 482.955 1162.05 484.984 1160.35 486.721C1159.51 487.672 1158.38 488.343 1157.12 488.64C1155.86 488.936 1154.54 488.844 1153.34 488.376C1152.14 487.907 1151.12 487.086 1150.42 486.029C1149.73 484.971 1149.4 483.73 1149.48 482.48C1149.46 479.997 1149.95 477.535 1150.9 475.23C1153.22 468.632 1157.16 458.772 1160.57 450.76C1160.94 449.868 1161.49 449.055 1162.19 448.37C1162.89 447.685 1163.72 447.141 1164.64 446.77C1165.56 446.399 1166.54 446.208 1167.54 446.208C1168.53 446.209 1169.52 446.401 1170.44 446.773V446.664Z" fill="#FFAD9D"/>
<path d="M1185.36 449.853C1187.18 450.563 1188.65 451.938 1189.43 453.68C1190.22 455.423 1190.26 457.394 1189.56 459.169C1186.86 466.238 1182.51 477.294 1179.21 484.11C1178.28 486.334 1176.92 488.364 1175.2 490.091C1174.33 490.951 1173.24 491.568 1172.04 491.874C1170.84 492.181 1169.57 492.166 1168.38 491.831C1167.18 491.31 1166.16 490.471 1165.44 489.412C1164.71 488.354 1164.32 487.118 1164.29 485.85C1164.29 483.364 1164.79 480.903 1165.75 478.599C1168.04 471.966 1172.01 462.069 1175.42 454.021C1175.79 453.117 1176.34 452.292 1177.04 451.597C1177.75 450.902 1178.58 450.35 1179.51 449.975C1180.44 449.6 1181.43 449.408 1182.44 449.412C1183.44 449.416 1184.44 449.615 1185.36 449.998V449.853Z" fill="#FFAD9D"/>
<path d="M1135.75 468.703C1137.07 463.427 1139.02 458.318 1141.56 453.478C1143.49 448.386 1146 443.522 1149.06 438.978C1147.77 444.256 1145.83 449.366 1143.29 454.203C1141.36 459.3 1138.83 464.165 1135.75 468.703V468.703Z" fill="#E88B79"/>
<path d="M1149.14 481.173C1150.66 475.178 1152.81 469.347 1155.55 463.773C1157.68 457.971 1160.42 452.396 1163.72 447.134C1162.21 453.115 1160.08 458.932 1157.35 464.498C1155.22 470.317 1152.47 475.906 1149.14 481.173Z" fill="#E88B79"/>
<path d="M1163.2 482.805C1164.83 477.629 1166.89 472.586 1169.35 467.725C1171.19 462.608 1173.45 457.638 1176.1 452.862C1173.84 463.557 1169.46 473.726 1163.2 482.805V482.805Z" fill="#E88B79"/>
<path d="M1226.27 149.988C1226.27 149.988 1226.27 147.124 1226.27 141.396C1226.27 135.669 1226.27 127.15 1226.27 116.021C1226.27 93.4003 1226.27 59.7234 1226.08 15.4613L1226.42 15.7876L251.215 16.2951L252.078 15.4613C252.078 295.28 252.078 620.848 252.078 966.28V1195.82L251.103 1194.91H1226.31L1225.52 1195.67C1225.52 936.084 1225.78 722.06 1225.86 572.888C1225.86 498.357 1225.86 440.029 1226.08 400.299C1226.08 380.469 1226.08 365.28 1226.08 355.021C1226.08 344.762 1226.08 339.542 1226.08 339.542C1226.08 339.542 1226.08 344.799 1226.08 355.021C1226.08 365.244 1226.08 380.397 1226.08 400.299C1226.08 440.174 1226.08 498.175 1226.08 572.888C1226.08 722.06 1226.31 936.084 1226.46 1195.67V1196.47H1225.63H250.428H249.453V966.099C249.453 620.485 249.453 295.099 249.453 15.2801V14.4463H250.315L1225.52 14.9538H1225.89V15.2801C1225.89 59.5421 1225.89 93.219 1225.89 115.839C1225.89 127.15 1225.89 135.608 1225.89 141.215C1226.34 147.124 1226.27 149.988 1226.27 149.988Z" fill="#263238"/>
<path d="M231.152 426.219C231.663 425.336 232.354 424.564 233.183 423.947C234.013 423.331 234.963 422.884 235.976 422.633C236.989 422.382 238.044 422.333 239.078 422.488C240.112 422.643 241.102 423 241.988 423.536C248.325 427.415 255.186 431.511 261.148 435.245C263.87 436.622 266.22 438.596 268.01 441.009C268.85 442.226 269.2 443.699 268.992 445.149C268.785 446.598 268.035 447.924 266.885 448.875C265.458 449.545 263.887 449.874 262.302 449.836C260.717 449.798 259.164 449.394 257.774 448.658C256.836 448.295 241.913 439.595 233.627 434.738C232.148 433.909 231.062 432.555 230.6 430.964C230.138 429.373 230.336 427.671 231.152 426.219Z" fill="#FFAD9D"/>
<path d="M229.357 406.279C229.91 405.232 230.688 404.312 231.64 403.581C232.591 402.849 233.694 402.323 234.873 402.038C236.053 401.753 237.282 401.715 238.477 401.928C239.673 402.14 240.808 402.598 241.805 403.271C249.042 408.201 256.803 413.421 263.702 418.133C266.837 419.959 269.514 422.435 271.539 425.383C272.496 426.885 272.881 428.663 272.628 430.41C272.375 432.157 271.499 433.764 270.151 434.954C268.509 435.744 266.684 436.113 264.852 436.024C263.02 435.935 261.242 435.392 259.69 434.446C258.64 434.011 241.618 422.918 232.169 416.756C230.447 415.643 229.209 413.956 228.691 412.018C228.172 410.079 228.409 408.024 229.357 406.243V406.279Z" fill="#FFAD9D"/>
<path d="M232.507 389.388C233.069 388.348 233.855 387.438 234.812 386.717C235.769 385.997 236.875 385.483 238.056 385.212C239.236 384.94 240.462 384.917 241.653 385.143C242.843 385.37 243.969 385.841 244.955 386.524C252.117 391.527 259.953 396.892 266.665 401.677C269.754 403.521 272.391 405.995 274.388 408.927C275.324 410.452 275.682 412.244 275.401 413.997C275.121 415.749 274.219 417.353 272.851 418.533C271.199 419.289 269.376 419.626 267.552 419.512C265.728 419.398 263.965 418.836 262.428 417.881C261.378 417.41 244.505 406.099 235.131 399.756C233.432 398.614 232.226 396.909 231.742 394.964C231.258 393.019 231.53 390.97 232.507 389.207V389.388Z" fill="#FFAD9D"/>
<path d="M234.19 369.956C234.789 368.76 235.652 367.705 236.718 366.865C237.784 366.026 239.027 365.423 240.36 365.098C241.694 364.773 243.084 364.735 244.434 364.985C245.784 365.236 247.061 365.769 248.175 366.548C256.312 372.24 265.161 378.294 272.848 383.767C276.409 385.883 279.433 388.744 281.697 392.141C282.782 393.884 283.221 395.932 282.941 397.948C282.662 399.965 281.681 401.829 280.159 403.234C276.86 405.59 272.173 404.285 268.423 402.618C267.223 402.074 248.025 389.241 237.377 382.1C235.43 380.779 234.038 378.828 233.454 376.599C232.869 374.371 233.13 372.014 234.19 369.956V369.956Z" fill="#FFAD9D"/>
<path d="M271.01 404.83C265.607 402.328 260.503 399.265 255.786 395.695C250.708 392.623 245.982 389.038 241.688 385.001C247.09 387.503 252.195 390.566 256.911 394.136C262.007 397.183 266.736 400.77 271.01 404.83Z" fill="#E88B79"/>
<path d="M266.248 419.947C261.101 417.795 256.232 415.07 251.738 411.827C246.883 409.08 242.367 405.809 238.277 402.075C243.435 404.244 248.317 406.981 252.825 410.232C257.668 412.964 262.172 416.224 266.248 419.947V419.947Z" fill="#E88B79"/>
<path d="M266.586 439.014C261.443 436.84 256.574 434.104 252.075 430.858C247.225 428.136 242.72 424.876 238.652 421.143C243.799 423.295 248.669 426.02 253.163 429.263C258.01 432.003 262.515 435.275 266.586 439.014V439.014Z" fill="#E88B79"/>
<path d="M1158.06 218.32C1158.06 218.32 1158.06 216.833 1158.06 213.824C1158.06 210.816 1158.06 206.393 1158.06 200.52C1158.06 188.775 1158.06 171.52 1158.06 148.573L1158.36 148.863L323.092 149.443L323.992 148.573C323.992 301.406 323.992 469.211 323.992 644.664C323.992 763.566 323.992 878.916 323.992 988.755L323.054 987.849L1158.32 988.248L1157.8 988.755C1157.8 918.212 1157.99 862.712 1158.06 824.866C1158.06 805.943 1158.06 791.443 1158.06 781.655C1158.06 776.761 1158.06 773.064 1158.06 770.563C1158.06 768.061 1158.06 766.937 1158.06 766.937C1158.06 766.937 1158.06 768.17 1158.06 770.563C1158.06 772.955 1158.06 776.761 1158.06 781.655C1158.06 791.443 1158.06 805.943 1158.06 824.866C1158.06 862.712 1158.06 918.212 1158.29 988.755V989.263H1157.76L322.492 989.662H321.555V988.755C321.555 878.916 321.555 763.566 321.555 644.664C321.555 469.211 321.555 301.406 321.555 148.573V147.667H322.455L1157.72 148.247H1158.02V148.573C1158.02 171.339 1158.02 188.775 1158.02 200.52C1158.02 206.393 1158.02 210.816 1158.02 213.824C1158.02 216.833 1158.06 218.32 1158.06 218.32Z" fill="#263238"/>
<path d="M1158.06 437.128C1157.54 437.128 1157.09 419.003 1157.09 396.673C1157.09 374.342 1157.54 356.217 1158.06 356.217C1158.59 356.217 1159.04 374.342 1159.04 396.673C1159.04 419.003 1158.63 437.128 1158.06 437.128Z" fill="#263238"/>
<path d="M1553.97 1394.76C1553.97 1395.31 1206.47 1395.71 777.828 1395.71C349.189 1395.71 1.6875 1395.31 1.6875 1394.76C1.6875 1394.22 349.076 1393.82 777.828 1393.82C1206.58 1393.82 1553.97 1394.26 1553.97 1394.76Z" fill="#263238"/>
<path d="M1384.72 554.471C1384.88 554.868 1384.99 555.282 1385.06 555.704C1385.26 556.902 1385.36 558.115 1385.36 559.329C1385.15 564.032 1383.72 568.609 1381.2 572.633C1377.17 578.677 1372.21 584.092 1366.5 588.692L1345.76 607.579L1345.2 608.122L1344.6 607.579L1324.35 590.178C1317.34 584.088 1309.09 577.563 1305.2 567.812C1303.87 564.852 1303.23 561.649 1303.31 558.425C1303.4 555.201 1304.21 552.034 1305.68 549.142C1307.19 546.426 1309.29 544.051 1311.82 542.176C1314.36 540.301 1317.27 538.968 1320.38 538.267C1323.31 537.681 1326.33 537.721 1329.24 538.385C1332.15 539.049 1334.87 540.32 1337.21 542.11C1341.63 545.356 1344.58 550.12 1345.46 555.414H1343.85C1344.52 551.567 1346.27 547.973 1348.92 545.03C1351.56 542.087 1355 539.909 1358.85 538.739C1361.82 537.912 1364.94 537.76 1367.98 538.295C1371.01 538.829 1373.88 540.036 1376.36 541.82C1379.55 544.025 1382.05 547.052 1383.56 550.556C1384.1 551.767 1384.44 553.051 1384.57 554.363C1384.57 554.363 1384.19 553.021 1383.11 550.738C1381.51 547.456 1379.04 544.642 1375.95 542.581C1373.59 540.936 1370.87 539.844 1368 539.391C1365.13 538.938 1362.19 539.137 1359.41 539.971C1355.82 541.089 1352.62 543.143 1350.16 545.905C1347.7 548.668 1346.07 552.034 1345.46 555.631L1344.68 560.888L1343.85 555.631C1342.98 550.777 1340.21 546.43 1336.13 543.487C1333.99 541.85 1331.5 540.692 1328.84 540.096C1326.18 539.501 1323.42 539.483 1320.76 540.044C1317.93 540.685 1315.27 541.903 1312.97 543.616C1310.67 545.329 1308.77 547.497 1307.41 549.976C1306.06 552.623 1305.33 555.521 1305.26 558.469C1305.19 561.418 1305.78 564.346 1306.99 567.05C1310.74 576.222 1318.58 582.602 1325.74 588.801L1345.91 606.346H1344.75L1365.67 587.641C1371.37 583.205 1376.34 577.977 1380.45 572.125C1382.99 568.272 1384.53 563.882 1384.94 559.329C1385.02 556.211 1384.57 554.508 1384.72 554.471Z" fill="#263238"/>
<path d="M1276.77 494.695C1276.77 494.695 1276.77 495.602 1276.77 497.305C1276.77 499.009 1276.77 501.583 1276.77 504.845C1276.77 511.443 1276.77 521.122 1276.77 533.52C1276.77 558.351 1277 594.131 1277.15 638.248L1276.43 637.559H1371.78H1372.65V638.393C1372.65 652.241 1372.65 666.995 1372.65 682.184L1371.11 681.567L1416.36 637.74L1416.66 637.487H1553.59L1552.62 638.429C1552.62 587.678 1552.62 539.356 1552.62 494.876L1553.52 495.747L1354.05 495.348L1296.91 495.094H1281.65H1277.71H1276.32H1281.46H1296.46L1353.41 494.84L1553.44 494.405H1554.34V495.275C1554.34 539.755 1554.34 588.077 1554.34 638.828V639.77H1417.41L1418.09 639.517L1372.76 683.307L1371.18 684.794V682.655C1371.18 667.466 1371.18 652.712 1371.18 638.864L1372.05 639.698H1276.7H1275.98V639.009C1275.98 594.747 1276.28 558.786 1276.36 533.882C1276.36 521.557 1276.36 512.132 1276.36 505.353C1276.36 502.163 1276.36 499.698 1276.36 498.103C1276.36 496.508 1276.77 494.695 1276.77 494.695Z" fill="#263238"/>
<path d="M1429.6 568.863H1417.9V579.738H1415.17V568.863H1403.47V566.289H1415.17V555.414H1417.9V566.289H1429.6V568.863Z" fill="#263238"/>
<path d="M1447.3 546.713V588.365H1444.15V549.468H1433.61V546.713H1447.3Z" fill="#263238"/>
<path d="M1458.17 567.559C1458.17 554.509 1465.15 546.425 1475.04 546.425C1484.94 546.425 1491.92 554.509 1491.92 567.559C1491.92 580.609 1484.94 588.693 1475.04 588.693C1465.15 588.693 1458.17 580.573 1458.17 567.559ZM1488.77 567.559C1488.77 555.959 1483.18 549.216 1475.04 549.216C1466.91 549.216 1461.32 555.959 1461.32 567.559C1461.32 579.159 1466.91 585.865 1475.04 585.865C1483.18 585.865 1488.77 579.159 1488.77 567.559Z" fill="#263238"/>
<path d="M1498.66 567.559C1498.66 554.509 1505.64 546.425 1515.54 546.425C1525.43 546.425 1532.41 554.509 1532.41 567.559C1532.41 580.609 1525.43 588.693 1515.54 588.693C1505.64 588.693 1498.66 580.573 1498.66 567.559ZM1529.26 567.559C1529.26 555.959 1523.67 549.216 1515.54 549.216C1507.4 549.216 1501.81 555.959 1501.81 567.559C1501.81 579.159 1507.4 585.865 1515.54 585.865C1523.67 585.865 1529.26 579.159 1529.26 567.559V567.559Z" fill="#263238"/>
<path d="M0 157.671H303.146V314.673H153.804L104.236 362.56V314.673H0V157.671Z" fill="#72A9E1"/>
<path d="M51.3672 231.841C51.3672 231.841 51.3672 232.928 51.6671 234.886C51.9671 236.843 52.0421 239.744 52.3046 243.187C52.792 250.438 53.5044 260.696 54.3293 273.094L53.5419 272.442L65.3155 271.789C75.3268 272.659 86.5379 273.892 98.3489 274.327C99.0435 274.347 99.7375 274.274 100.411 274.109C101.09 274.025 101.757 273.867 102.398 273.638C103.712 273.136 104.901 272.37 105.886 271.39C108.004 269.39 109.33 266.735 109.635 263.887C109.764 262.403 109.764 260.911 109.635 259.428C109.635 257.869 109.373 256.346 109.26 254.788C108.998 251.67 108.698 248.516 108.435 245.326C108.173 242.136 107.723 238.076 107.273 234.451C107.01 232.711 106.785 230.826 106.41 229.267C106.325 228.874 106.213 228.486 106.073 228.107C106.073 228.107 106.073 228.107 106.073 227.89C106.073 227.672 106.073 227.89 105.773 227.89C104.957 227.71 104.131 227.577 103.298 227.491C96.3667 227.128 89.42 227.128 82.4884 227.491L83.3133 226.802C83.3294 226.947 83.3294 227.092 83.3133 227.237V227.527L83.0133 227.781C82.9247 227.863 82.8182 227.926 82.7014 227.964C82.5846 228.001 82.4606 228.013 82.3384 227.998H81.8509V227.781V227.455C81.8393 227.322 81.8393 227.189 81.8509 227.056C81.8195 226.621 81.8195 226.185 81.8509 225.751V223.286C81.8509 221.691 81.8509 220.096 81.8509 218.537C82.0403 215.555 82.0403 212.565 81.8509 209.583C81.6421 206.852 80.7407 204.212 79.2263 201.898C78.5062 200.9 77.5469 200.085 76.4304 199.523C75.3138 198.961 74.0733 198.669 72.8146 198.671L73.4895 197.91C73.7145 202.695 73.9019 207.045 74.0894 211.069V211.287C67.9027 220.386 63.1408 227.31 60.0286 231.877H54.9667H53.2045C53.7231 231.773 54.25 231.713 54.7793 231.696L59.9911 231.261H59.7662C62.7283 226.621 67.2652 219.588 73.227 210.344V210.707C73.002 206.683 72.7396 202.333 72.4396 197.584V196.859H73.152C74.6671 196.785 76.1775 197.077 77.5459 197.71C78.9144 198.343 80.0978 199.297 80.9886 200.484C82.7116 202.982 83.7443 205.865 83.9882 208.858C84.2634 211.919 84.3511 214.994 84.2507 218.066C84.2507 219.588 84.2507 221.147 84.2507 222.742V225.098C84.2507 225.461 84.2507 225.86 84.2507 226.186C84.265 226.245 84.265 226.307 84.2507 226.367C84.2507 226.367 84.2507 226.367 83.9882 226.367C83.7257 226.367 83.5382 226.766 83.5757 226.657C83.6132 226.548 83.5758 226.403 83.2758 226.44L82.9008 226.222V225.57H83.5383C90.5694 225.188 97.6171 225.188 104.648 225.57C105.624 225.657 106.59 225.827 107.535 226.077C107.881 226.19 108.209 226.348 108.51 226.548C108.766 226.826 108.969 227.145 109.11 227.491C109.266 227.942 109.391 228.402 109.485 228.868C109.898 230.681 110.16 232.493 110.385 234.27C110.872 237.895 111.21 241.52 111.585 245.145C111.96 248.77 112.11 251.489 112.41 254.643L112.747 259.283C112.899 260.874 112.899 262.476 112.747 264.068C112.404 267.315 110.937 270.354 108.585 272.695C107.41 273.83 106.006 274.718 104.461 275.306C102.932 275.835 101.323 276.116 99.6988 276.139C87.6252 275.632 76.5641 274.327 66.5153 273.312L54.7418 273.855H54.0294V273.13C53.5044 260.551 53.092 250.22 52.7545 242.752C52.7545 239.381 52.567 236.662 52.5296 234.56C52.0362 233.699 51.6462 232.787 51.3672 231.841V231.841Z" fill="white"/>
<path d="M31.6834 229.23C33.0122 229.048 34.3532 228.963 35.6951 228.976C38.3946 228.976 42.4438 228.759 47.5803 228.686H48.1802V229.302C48.9676 239.742 49.9049 254.968 50.8047 271.897V273.383V274.362H49.8299L38.1696 274.906H37.2698V274.072C35.3952 261.022 33.933 249.603 32.9581 241.446C32.5082 237.821 32.1333 234.667 31.8334 232.13C31.6345 231.078 31.559 230.008 31.6084 228.94C31.9301 230.133 32.1804 231.344 32.3583 232.565C32.8082 235.127 33.3706 238.28 34.0454 242.026C35.3952 250.038 37.2698 261.022 39.1819 273.637L38.1696 272.876L49.8299 272.259L48.8926 273.238V271.752C47.9927 254.823 47.2804 239.597 46.9055 229.121L47.5803 229.737C42.7812 229.737 38.882 229.411 36.1075 229.302C34.6325 229.355 33.1557 229.33 31.6834 229.23Z" fill="white"/>
<path d="M167.154 238.764H154.331V250.799H151.331V238.764H138.508V235.973H151.331V223.865H154.331V235.973H167.154V238.764Z" fill="white"/>
<path d="M186.611 214.549V260.116H182.862V217.558H171.613V214.549H186.611Z" fill="white"/>
<path d="M198.383 237.352C198.383 223.069 205.882 214.224 216.831 214.224C227.78 214.224 235.279 223.069 235.279 237.352C235.279 251.634 227.78 260.443 216.831 260.443C205.882 260.443 198.383 251.598 198.383 237.352ZM231.83 237.352C231.83 224.628 225.718 217.305 216.831 217.305C207.944 217.305 201.832 224.555 201.832 237.352C201.832 250.148 207.982 257.398 216.831 257.398C225.68 257.398 231.83 250.039 231.83 237.352Z" fill="white"/>
<path d="M242.852 237.352C242.852 223.069 250.351 214.224 261.299 214.224C272.247 214.224 279.746 223.069 279.746 237.352C279.746 251.634 272.247 260.443 261.299 260.443C250.351 260.443 242.852 251.598 242.852 237.352ZM276.334 237.352C276.334 224.628 270.185 217.305 261.336 217.305C252.488 217.305 246.339 224.555 246.339 237.352C246.339 250.148 252.45 257.398 261.336 257.398C270.223 257.398 276.147 250.039 276.147 237.352H276.334Z" fill="white"/>
</svg>
