<svg width="1500" height="1259" viewBox="0 0 1500 1259" fill="none" xmlns="http://www.w3.org/2000/svg">
<g opacity="0.43">
<path d="M1387.42 836.609H1060.6V1210.17H1387.42V836.609Z" fill="#F89276"/>
<path d="M1478.6 836.607H1088.59V1210.17H1478.6V836.607Z" fill="url(#paint0_linear_226_3526)"/>
<path opacity="0.5" d="M1387.42 836.607H1308.92V880.276H1387.42V836.607Z" fill="#BADCF4"/>
<path d="M1135.41 923.958H1300.04V900.913H1135.41V923.958Z" fill="#F89276"/>
<path d="M1478.6 1100.26H1254.03V1171.39H1478.6V1100.26Z" fill="#F89276"/>
<path opacity="0.5" d="M1269.03 1130.76H1362.11V1114.38H1269.03V1130.76Z" fill="#BADCF4"/>
<path d="M1413.37 1159.24H1463.39V1111.33H1413.37V1159.24Z" fill="url(#paint1_linear_226_3526)"/>
<path d="M1119.9 464.775H793.078V838.337H1119.9V464.775Z" fill="#F89276"/>
<path d="M1211.08 464.775H821.066V838.337H1211.08V464.775Z" fill="url(#paint2_linear_226_3526)"/>
<path opacity="0.5" d="M1119.9 464.775H1041.4V508.444H1119.9V464.775Z" fill="#BADCF4"/>
<path d="M867.891 552.093H1032.52V529.048H867.891V552.093Z" fill="#F89276"/>
<path d="M1211.08 728.387H986.508V799.511H1211.08V728.387Z" fill="#F89276"/>
<path opacity="0.5" d="M1001.51 758.898H1094.59V742.511H1001.51V758.898Z" fill="#BADCF4"/>
<path d="M1145.85 787.405H1195.87V739.499H1145.85V787.405Z" fill="url(#paint3_linear_226_3526)"/>
<path d="M705.971 464.775H379.152V838.337H705.971V464.775Z" fill="#F89276"/>
<path d="M797.157 464.775H407.141V838.337H797.157V464.775Z" fill="url(#paint4_linear_226_3526)"/>
<path opacity="0.5" d="M705.972 464.775H627.473V508.444H705.972V464.775Z" fill="#BADCF4"/>
<path d="M453.979 552.093H618.607V529.048H453.979V552.093Z" fill="#F89276"/>
<path d="M797.157 728.387H572.582V799.511H797.157V728.387Z" fill="#F89276"/>
<path opacity="0.5" d="M587.599 758.898H680.68V742.511H587.599V758.898Z" fill="#BADCF4"/>
<path d="M731.926 787.405H781.942V739.499H731.926V787.405Z" fill="url(#paint5_linear_226_3526)"/>
<path d="M1032.77 91.2134H705.955V464.775H1032.77V91.2134Z" fill="#F89276"/>
<path d="M1123.96 91.2134H733.945V464.775H1123.96V91.2134Z" fill="url(#paint6_linear_226_3526)"/>
<path opacity="0.5" d="M1032.78 91.2134H954.275V134.882H1032.78V91.2134Z" fill="#BADCF4"/>
<path d="M780.782 178.521L945.41 178.521V155.476L780.782 155.476V178.521Z" fill="#F89276"/>
<path d="M1123.96 354.826H899.387V425.949H1123.96V354.826Z" fill="#F89276"/>
<path opacity="0.5" d="M914.4 385.326H1007.48V368.939H914.4V385.326Z" fill="#BADCF4"/>
<path d="M1058.73 413.844H1108.75V365.938H1058.73V413.844Z" fill="url(#paint7_linear_226_3526)"/>
<path d="M977.024 836.609H650.205V1210.17H977.024V836.609Z" fill="#F89276"/>
<path d="M1068.21 836.607H678.195V1210.17H1068.21V836.607Z" fill="url(#paint8_linear_226_3526)"/>
<path opacity="0.5" d="M977.023 836.607H898.523V880.276H977.023V836.607Z" fill="#BADCF4"/>
<path d="M725.047 923.958H889.676V900.913H725.047V923.958Z" fill="#F89276"/>
<path d="M1068.21 1100.26H843.633V1171.39H1068.21V1100.26Z" fill="#F89276"/>
<path opacity="0.5" d="M858.619 1130.76H951.699V1114.38H858.619V1130.76Z" fill="#BADCF4"/>
<path d="M1003.03 1159.24H1053.04V1111.33H1003.03V1159.24Z" fill="url(#paint9_linear_226_3526)"/>
<path d="M561.432 836.609H234.613V1210.17H561.432V836.609Z" fill="#F89276"/>
<path d="M652.618 836.607H262.602V1210.17H652.618V836.607Z" fill="url(#paint10_linear_226_3526)"/>
<path opacity="0.5" d="M561.433 836.607H482.934V880.276H561.433V836.607Z" fill="#BADCF4"/>
<path d="M309.422 923.958H474.051V900.913H309.422V923.958Z" fill="#F89276"/>
<path d="M652.614 1100.26H428.039V1171.39H652.614V1100.26Z" fill="#F89276"/>
<path opacity="0.5" d="M443.045 1130.76H536.125V1114.38H443.045V1130.76Z" fill="#BADCF4"/>
<path d="M587.387 1159.24H637.403V1111.33H587.387V1159.24Z" fill="url(#paint11_linear_226_3526)"/>
</g>
<path d="M1460.97 404.826H1095.7C1074.28 404.826 1056.76 421.605 1056.76 442.125V1165.53C1056.76 1190.84 1078.18 1211.33 1104.57 1211.33H1452.06C1478.38 1211.33 1499.91 1190.7 1499.91 1165.49V442.125C1499.88 421.532 1482.47 404.826 1460.97 404.826Z" fill="#F89276"/>
<path d="M1458.39 421.714H1098.24C1084.32 421.714 1072.95 432.61 1072.95 445.939V1165.56C1072.95 1178.93 1084.25 1189.75 1098.2 1189.75H1458.39C1472.27 1189.75 1483.65 1178.86 1483.65 1165.56V445.902C1483.65 432.537 1472.35 421.714 1458.39 421.714Z" fill="#F9FBFC"/>
<path d="M1483.65 444.123V476.265H1072.95V444.159C1072.95 431.811 1083.49 421.714 1096.38 421.714H1460.25C1473.18 421.714 1483.65 431.738 1483.65 444.123Z" fill="#F0C2B5"/>
<path d="M1290.49 429.45H1247.45C1245.63 429.45 1244.11 430.867 1244.11 432.646C1244.11 434.39 1245.63 435.842 1247.45 435.842H1290.49C1292.31 435.842 1293.82 434.39 1293.82 432.646C1293.82 430.903 1292.35 429.45 1290.49 429.45ZM1308.73 429.051C1306.64 429.051 1304.97 430.685 1304.97 432.683C1304.97 434.68 1306.64 436.314 1308.73 436.314C1310.81 436.314 1312.48 434.68 1312.48 432.683C1312.48 430.649 1310.81 429.051 1308.73 429.051Z" fill="#F89276"/>
<path d="M1314.11 610.609H1121.33V618.781H1314.11V610.609Z" fill="#F0C2B5"/>
<path d="M1237.25 648.309H1121.33V656.48H1237.25V648.309Z" fill="#F0C2B5"/>
<path d="M1389.49 660.367C1404.95 660.367 1417.48 648.366 1417.48 633.563C1417.48 618.76 1404.95 606.76 1389.49 606.76C1374.04 606.76 1361.51 618.76 1361.51 633.563C1361.51 648.366 1374.04 660.367 1389.49 660.367Z" fill="#F0D2CC"/>
<path d="M1419.75 617.691C1414.75 619.217 1409.85 621.287 1405.3 623.902C1397.42 628.514 1390.33 634.253 1384.15 640.972C1383.54 637.848 1382.25 634.761 1380.09 632.146C1378.57 630.294 1376.64 628.769 1374.51 627.606C1373.45 627.025 1372.31 626.553 1371.18 626.154C1370.87 626.045 1370.61 625.972 1370.3 625.899C1368.86 625.464 1367.35 626.444 1367.23 627.897C1367.12 629.023 1367.92 630.04 1369.09 630.33C1369.32 630.367 1369.51 630.439 1369.7 630.476C1370.61 630.73 1371.52 631.057 1372.35 631.456C1374.06 632.255 1375.61 633.345 1376.86 634.725C1379.41 637.449 1380.77 641.153 1381.11 645.076V645.112C1381.15 645.584 1381.41 646.02 1381.83 646.311C1382.63 646.855 1383.69 646.674 1384.26 645.911C1390.17 637.994 1397.68 630.875 1406.21 625.246C1410.5 622.413 1415.12 620.197 1419.98 618.418C1424.87 616.638 1430.03 615.803 1435.26 615.439C1430.06 615.585 1424.79 616.129 1419.75 617.691Z" fill="#F89276"/>
<path d="M1314.11 704.24H1121.33V712.412H1314.11V704.24Z" fill="#F0C2B5"/>
<path d="M1237.25 741.939H1121.33V750.111H1237.25V741.939Z" fill="#F0C2B5"/>
<path d="M1389.49 753.997C1404.95 753.997 1417.48 741.997 1417.48 727.194C1417.48 712.391 1404.95 700.391 1389.49 700.391C1374.04 700.391 1361.51 712.391 1361.51 727.194C1361.51 741.997 1374.04 753.997 1389.49 753.997Z" fill="#F0D2CC"/>
<path d="M1411.64 704.749C1397.57 720.766 1382.86 736.165 1367.54 751.092C1366.93 751.673 1366.02 750.947 1366.55 750.293C1379.78 733.586 1394.42 717.896 1410.69 703.877C1411.33 703.26 1412.2 704.132 1411.64 704.749Z" fill="#F89276"/>
<path d="M1367.54 703.917C1383.81 717.936 1398.56 733.553 1411.68 750.332C1412.17 750.986 1411.3 751.749 1410.69 751.131C1395.48 736.095 1380.62 720.841 1366.55 704.825C1365.98 704.135 1366.89 703.336 1367.54 703.917Z" fill="#F89276"/>
<path d="M1314.11 891.501H1121.33V899.673H1314.11V891.501Z" fill="#F0C2B5"/>
<path d="M1237.25 929.2H1121.33V937.372H1237.25V929.2Z" fill="#F0C2B5"/>
<path d="M1389.49 941.258C1404.95 941.258 1417.48 929.257 1417.48 914.454C1417.48 899.651 1404.95 887.651 1389.49 887.651C1374.04 887.651 1361.51 899.651 1361.51 914.454C1361.51 929.257 1374.04 941.258 1389.49 941.258Z" fill="#F0D2CC"/>
<path d="M1411.64 893.644C1397.57 909.66 1382.86 925.06 1367.54 939.987C1366.93 940.568 1366.02 939.841 1366.55 939.188C1379.78 922.481 1394.42 906.791 1410.69 892.772C1411.33 892.154 1412.2 893.026 1411.64 893.644Z" fill="#F89276"/>
<path d="M1367.54 892.811C1383.81 906.83 1398.56 922.448 1411.68 939.227C1412.17 939.881 1411.3 940.643 1410.69 940.026C1395.48 924.99 1380.62 909.736 1366.55 893.719C1365.98 893.029 1366.89 892.23 1367.54 892.811Z" fill="#F89276"/>
<path d="M1314.11 797.87H1121.33V806.041H1314.11V797.87Z" fill="#F0C2B5"/>
<path d="M1237.25 835.568H1121.33V843.74H1237.25V835.568Z" fill="#F0C2B5"/>
<path d="M1389.49 847.626C1404.95 847.626 1417.48 835.626 1417.48 820.823C1417.48 806.02 1404.95 794.02 1389.49 794.02C1374.04 794.02 1361.51 806.02 1361.51 820.823C1361.51 835.626 1374.04 847.626 1389.49 847.626Z" fill="#F0D2CC"/>
<path d="M1419.75 804.625C1414.75 806.151 1409.86 808.221 1405.31 810.836C1397.42 815.448 1390.33 821.187 1384.15 827.906C1383.54 824.782 1382.25 821.695 1380.09 819.08C1378.57 817.228 1376.64 815.703 1374.52 814.54C1373.45 813.959 1372.32 813.487 1371.18 813.088C1370.88 812.979 1370.61 812.906 1370.31 812.833C1368.87 812.398 1367.35 813.378 1367.24 814.831C1367.12 815.957 1367.92 816.974 1369.09 817.264C1369.32 817.301 1369.51 817.373 1369.7 817.41C1370.61 817.664 1371.52 817.991 1372.35 818.39C1374.06 819.189 1375.62 820.279 1376.87 821.659C1379.41 824.383 1380.77 828.087 1381.11 832.01V832.046C1381.15 832.518 1381.42 832.954 1381.83 833.245C1382.63 833.789 1383.69 833.608 1384.26 832.845C1390.18 824.928 1397.68 817.809 1406.22 812.18C1410.5 809.347 1415.13 807.131 1419.98 805.352C1424.87 803.572 1430.03 802.737 1435.26 802.374C1430.07 802.519 1424.8 803.1 1419.75 804.625Z" fill="#F89276"/>
<path d="M1123.63 537.47C1123.26 537.47 1122.9 537.421 1122.56 537.324C1122.22 537.223 1121.95 537.093 1121.74 536.934L1122.1 536.127C1122.3 536.273 1122.54 536.39 1122.81 536.478C1123.08 536.566 1123.36 536.61 1123.63 536.61C1123.94 536.61 1124.16 536.566 1124.31 536.478C1124.45 536.385 1124.52 536.264 1124.52 536.114C1124.52 536.004 1124.48 535.913 1124.39 535.843C1124.31 535.768 1124.2 535.708 1124.06 535.664C1123.93 535.62 1123.75 535.571 1123.52 535.519C1123.17 535.435 1122.88 535.351 1122.65 535.267C1122.43 535.183 1122.23 535.049 1122.07 534.864C1121.91 534.678 1121.83 534.431 1121.83 534.123C1121.83 533.854 1121.91 533.611 1122.05 533.395C1122.2 533.175 1122.41 533 1122.71 532.873C1123 532.745 1123.36 532.681 1123.78 532.681C1124.08 532.681 1124.37 532.716 1124.65 532.787C1124.93 532.857 1125.18 532.959 1125.39 533.091L1125.06 533.904C1124.63 533.662 1124.21 533.541 1123.78 533.541C1123.48 533.541 1123.25 533.589 1123.11 533.686C1122.97 533.783 1122.9 533.911 1122.9 534.07C1122.9 534.229 1122.98 534.348 1123.14 534.427C1123.31 534.502 1123.56 534.577 1123.9 534.652C1124.26 534.736 1124.54 534.82 1124.77 534.903C1124.99 534.987 1125.19 535.119 1125.35 535.3C1125.51 535.481 1125.59 535.726 1125.59 536.035C1125.59 536.299 1125.51 536.542 1125.36 536.762C1125.22 536.978 1125 537.15 1124.7 537.278C1124.41 537.406 1124.05 537.47 1123.63 537.47ZM1127.22 533.633H1125.73V532.76H1129.77V533.633H1128.29V537.391H1127.22V533.633ZM1132.52 537.47C1132.04 537.47 1131.61 537.366 1131.22 537.159C1130.84 536.952 1130.54 536.667 1130.32 536.306C1130.1 535.94 1129.99 535.53 1129.99 535.075C1129.99 534.621 1130.1 534.213 1130.32 533.852C1130.54 533.486 1130.84 533.199 1131.22 532.992C1131.61 532.784 1132.04 532.681 1132.52 532.681C1133.01 532.681 1133.44 532.784 1133.82 532.992C1134.2 533.199 1134.51 533.486 1134.73 533.852C1134.95 534.213 1135.06 534.621 1135.06 535.075C1135.06 535.53 1134.95 535.94 1134.73 536.306C1134.51 536.667 1134.2 536.952 1133.82 537.159C1133.44 537.366 1133.01 537.47 1132.52 537.47ZM1132.52 536.557C1132.8 536.557 1133.05 536.495 1133.27 536.372C1133.49 536.244 1133.66 536.068 1133.78 535.843C1133.91 535.618 1133.97 535.362 1133.97 535.075C1133.97 534.789 1133.91 534.533 1133.78 534.308C1133.66 534.083 1133.49 533.909 1133.27 533.785C1133.05 533.658 1132.8 533.594 1132.52 533.594C1132.25 533.594 1132 533.658 1131.78 533.785C1131.56 533.909 1131.39 534.083 1131.26 534.308C1131.14 534.533 1131.08 534.789 1131.08 535.075C1131.08 535.362 1131.14 535.618 1131.26 535.843C1131.39 536.068 1131.56 536.244 1131.78 536.372C1132 536.495 1132.25 536.557 1132.52 536.557ZM1138.08 537.47C1137.61 537.47 1137.18 537.369 1136.8 537.166C1136.42 536.958 1136.12 536.674 1135.9 536.312C1135.68 535.946 1135.57 535.534 1135.57 535.075C1135.57 534.617 1135.68 534.207 1135.9 533.845C1136.12 533.479 1136.42 533.194 1136.8 532.992C1137.18 532.784 1137.61 532.681 1138.09 532.681C1138.49 532.681 1138.85 532.751 1139.17 532.892C1139.5 533.033 1139.77 533.236 1139.99 533.501L1139.3 534.136C1138.99 533.774 1138.6 533.594 1138.14 533.594C1137.85 533.594 1137.6 533.658 1137.37 533.785C1137.15 533.909 1136.97 534.083 1136.84 534.308C1136.72 534.533 1136.66 534.789 1136.66 535.075C1136.66 535.362 1136.72 535.618 1136.84 535.843C1136.97 536.068 1137.15 536.244 1137.37 536.372C1137.6 536.495 1137.85 536.557 1138.14 536.557C1138.6 536.557 1138.99 536.374 1139.3 536.008L1139.99 536.643C1139.77 536.912 1139.5 537.117 1139.17 537.258C1138.84 537.399 1138.48 537.47 1138.08 537.47ZM1142.4 535.571L1141.78 536.22V537.391H1140.72V532.76H1141.78V534.923L1143.83 532.76H1145.02L1143.1 534.824L1145.13 537.391H1143.88L1142.4 535.571ZM1150.53 536.398H1148.38L1147.97 537.391H1146.88L1148.94 532.76H1150L1152.07 537.391H1150.95L1150.53 536.398ZM1150.2 535.585L1149.46 533.812L1148.73 535.585H1150.2ZM1154.51 537.47C1153.85 537.47 1153.33 537.287 1152.96 536.921C1152.6 536.555 1152.41 536.032 1152.41 535.353V532.76H1153.49V535.313C1153.49 536.143 1153.83 536.557 1154.52 536.557C1154.85 536.557 1155.11 536.458 1155.28 536.259C1155.46 536.057 1155.55 535.741 1155.55 535.313V532.76H1156.61V535.353C1156.61 536.032 1156.42 536.555 1156.05 536.921C1155.69 537.287 1155.17 537.47 1154.51 537.47ZM1157.67 532.76H1159.77C1160.27 532.76 1160.72 532.857 1161.1 533.051C1161.49 533.241 1161.79 533.51 1162 533.858C1162.22 534.207 1162.32 534.612 1162.32 535.075C1162.32 535.538 1162.22 535.944 1162 536.293C1161.79 536.641 1161.49 536.912 1161.1 537.106C1160.72 537.296 1160.27 537.391 1159.77 537.391H1157.67V532.76ZM1159.72 536.511C1160.18 536.511 1160.55 536.383 1160.82 536.127C1161.1 535.867 1161.24 535.516 1161.24 535.075C1161.24 534.634 1161.1 534.286 1160.82 534.03C1160.55 533.77 1160.18 533.64 1159.72 533.64H1158.74V536.511H1159.72ZM1163.13 532.76H1164.2V537.391H1163.13V532.76ZM1166.26 533.633H1164.78V532.76H1168.81V533.633H1167.33V537.391H1166.26V533.633Z" fill="#F89276"/>
<path d="M1410.25 1121.06H1145.67C1143.07 1121.06 1140.98 1119.05 1140.98 1116.56V1006.64C1140.98 1004.15 1143.07 1002.14 1145.67 1002.14H1410.25C1412.85 1002.14 1414.95 1004.15 1414.95 1006.64V1116.56C1414.95 1119.05 1412.85 1121.06 1410.25 1121.06Z" fill="#F0D2CC"/>
<path d="M1183.71 1079.11H1166.92V1106.52H1183.71V1079.11Z" fill="#F89276"/>
<path d="M1217.94 1050H1201.15V1106.52H1217.94V1050Z" fill="#F89276"/>
<path d="M1252.17 1065.65H1235.38V1106.48H1252.17V1065.65Z" fill="#F89276"/>
<path d="M1286.37 1042.35H1269.58V1106.48H1286.37V1042.35Z" fill="#F89276"/>
<path d="M1320.61 1025.94H1303.82V1106.52H1320.61V1025.94Z" fill="#F89276"/>
<path d="M1354.84 1035.46H1338.05V1106.52H1354.84V1035.46Z" fill="#F89276"/>
<path d="M1389.04 1056.17H1372.25V1106.52H1389.04V1056.17Z" fill="#F89276"/>
<path d="M744.996 1006.39L734.552 773.724L875.329 913.238L744.996 1006.39ZM197.202 897.666C197.202 885.534 265.312 809.043 302.452 768.228L321.758 944.839L318.263 1013.8L197.202 897.666V897.666ZM988.09 778.951L811.435 579.427L811.029 579.83C804.055 573.241 797.972 567.419 794.877 563.981C733.661 496.101 685.051 473.064 591.417 471.616H591.412L409.374 475.395C375.534 478.046 298.727 464.183 227.682 554.385L227.587 554.208C98.2152 709.546 -5.60307 841.652 0.234701 903.977C7.62454 982.868 321.758 1207.8 321.758 1207.8L753.503 1207.44L752.616 1175.95L938.859 1060.32C1006.06 1016.83 1041.16 978.854 1049.66 921.194C1057.2 870.04 1024.25 817.275 988.09 778.951" fill="#F89276"/>
<path d="M593.259 1105.95L274.094 1257.01C265.613 1261.02 255.344 1257.69 251.154 1249.57L148.001 1049.62C143.811 1041.51 147.285 1031.67 155.767 1027.66L474.932 876.59C483.408 872.582 493.677 875.914 497.862 884.029L601.02 1083.98C605.21 1092.1 601.735 1101.93 593.259 1105.95" fill="#DADBD8"/>
<path d="M372.986 1047.86C382.294 1042.41 394.46 1045.2 400.158 1054.11C405.86 1063.02 402.941 1074.67 393.634 1080.13C384.336 1085.59 372.17 1082.79 366.473 1073.89C360.765 1064.98 363.689 1053.33 372.986 1047.86" fill="white"/>
<path d="M731.848 607.983C731.893 607.983 731.938 608.492 731.983 609.499C732.013 610.635 732.058 612.107 732.113 613.958C732.173 618.044 732.248 623.789 732.358 631.097C732.463 646.155 732.623 667.648 732.814 694.138C733.109 747.358 735.282 820.853 739.588 901.954C743.818 983.092 748.289 1056.52 750.633 1109.72C751.864 1136.31 752.665 1157.83 753.101 1172.71C753.286 1180.03 753.431 1185.77 753.531 1189.85C753.551 1191.7 753.566 1193.17 753.576 1194.31C753.571 1195.32 753.546 1195.83 753.501 1195.83C753.461 1195.83 753.396 1195.32 753.311 1194.32C753.236 1193.18 753.131 1191.71 753.006 1189.87C752.79 1185.79 752.48 1180.06 752.089 1172.75C751.303 1157.71 750.177 1136.25 748.79 1109.8C745.766 1056.5 741.595 983.135 736.984 902.083C732.674 820.954 730.791 747.391 730.966 694.143C731.126 667.653 731.252 646.155 731.342 631.097C731.442 623.789 731.527 618.044 731.582 613.958C731.637 612.107 731.682 610.635 731.717 609.499C731.762 608.492 731.802 607.983 731.848 607.983" fill="black"/>
<path d="M282.277 503.649C305.323 487.618 332.089 492.466 355.164 508.454C378.235 524.442 391.077 551.618 393.39 578.803C395.704 605.994 388.469 633.227 377.629 658.451C360.261 698.881 334.547 731.586 296.156 773.239L197.204 897.666L388.158 1076.23L309.028 1195.83L149.095 1072.58C94.5026 1028.39 48.0306 983.213 13.9102 936.506L282.277 503.649Z" fill="#F89276"/>
<path d="M13.9102 936.505C13.9102 936.505 14.3358 936.964 15.0968 937.929C15.8929 938.959 17.0043 940.388 18.4462 942.248C21.3901 946.066 25.7809 951.701 31.7589 958.836C43.6147 973.175 61.889 993.485 86.9974 1017.33C99.5592 1029.25 113.823 1042.04 129.744 1055.48C145.535 1069.04 163.574 1082.56 182.615 1097.2C220.7 1126.47 263.452 1159.33 309.774 1194.95L308.032 1195.22C332.594 1158.05 359.265 1117.68 387.082 1075.58L387.267 1077.11C355.45 1047.37 322.496 1016.56 288.746 985.016C257.104 955.417 226.163 926.472 196.308 898.548L195.497 897.786L196.183 896.922C231.114 853.059 264.343 811.324 295.215 772.553L295.245 772.515L295.27 772.486C314.616 751.53 332.624 730.842 347.554 709.608C362.564 688.436 373.979 666.502 381.955 644.918C389.911 623.357 393.891 601.835 392.739 581.992C391.688 562.148 385.225 544.309 375.857 530.465C366.48 516.515 353.898 507.106 341.902 501.328C329.886 495.429 318.165 493.646 308.913 494.326C299.601 495.103 292.851 497.885 288.621 500.071C284.35 502.263 282.363 503.769 282.277 503.649C282.277 503.649 282.763 503.265 283.779 502.584C284.811 501.932 286.263 500.815 288.441 499.75C292.636 497.443 299.41 494.514 308.848 493.607C318.23 492.802 330.171 494.509 342.392 500.383C354.574 506.128 367.431 515.613 377.039 529.722C386.631 543.724 393.275 561.779 394.442 581.896C395.703 602.008 391.753 623.784 383.802 645.536C375.852 667.303 364.412 689.434 349.367 710.769C334.402 732.166 316.378 752.959 297.042 773.982L297.092 773.92C266.271 812.728 233.092 854.503 198.22 898.41L198.1 896.789C227.965 924.708 258.916 953.643 290.568 983.231C324.303 1014.79 357.242 1045.61 389.049 1075.36L389.791 1076.05L389.24 1076.89C361.368 1118.95 334.642 1159.29 310.029 1196.44L309.323 1197.51L308.287 1196.71C262.046 1160.99 219.374 1128.02 181.363 1098.66C162.383 1083.97 144.374 1070.37 128.603 1056.71C112.722 1043.19 98.5028 1030.31 85.9961 1018.3C60.9828 994.27 42.8487 973.784 31.1681 959.287C25.2753 952.075 20.9795 946.355 18.1358 942.47C16.7539 940.557 15.6976 939.1 14.9365 938.04C14.2256 937.037 13.9102 936.505 13.9102 936.505" fill="black"/>
<path d="M943.741 909.785C943.556 910.159 939.866 908.606 933.723 906.827C927.584 905.076 918.833 903.335 909.11 903.79C899.382 904.294 890.87 906.898 884.963 909.268C879.05 911.665 875.555 913.587 875.33 913.239C875.174 913.009 878.334 910.538 884.197 907.666C890.034 904.822 898.826 901.82 908.975 901.297C919.128 900.818 928.185 902.927 934.308 905.152C940.452 907.411 943.876 909.545 943.741 909.785" fill="black"/>
<path d="M427.332 1190.25C422.325 1192.65 406.919 1199.98 392.59 1206.79C375.362 1214.98 354.725 1212.77 339.81 1201.13L318.066 1184.17L378.131 1093.68C385.191 1096.63 414.189 1100.56 424.208 1103.95C432.874 1106.88 442.026 1108.31 451.218 1108.3C460.931 1108.28 473.433 1107.82 481.784 1105.89C482.47 1105.66 483.336 1105.46 483.937 1105.2C485.379 1104.59 486.801 1104.4 488.198 1104.38C496.794 1103.65 503.593 1112.24 498.787 1119.03C493.86 1126 470.524 1134.87 440.594 1134.05C440.124 1134.06 439.683 1134.12 439.202 1134.12C412.912 1134.08 437.025 1155.19 452.605 1167.69C458.093 1172.1 461.207 1178.88 460.125 1185.66C459.71 1188.27 458.693 1190.6 456.621 1191.84C449.977 1195.83 427.332 1190.25 427.332 1190.25" fill="#FFC3BA"/>
<path d="M507.729 554.946C461.673 554.946 420.258 517.35 420.653 461.354L412.367 142.38L413.299 142.524C413.018 128.689 423.838 116.945 438.202 115.487L575.479 101.58C622.777 96.7898 664.643 130.727 667.637 176.193C670.957 226.708 672.939 288.502 666.691 326.194C654.124 401.981 593.478 411.62 593.478 411.62L594.96 464.567C597.288 520.99 553.215 554.946 507.729 554.946" fill="#FFC3BA"/>
<path d="M636.952 217.313C637.142 222.444 632.761 226.832 627.169 227.12C621.586 227.403 616.895 223.49 616.705 218.359C616.52 213.223 620.9 208.83 626.478 208.547C632.075 208.254 636.762 212.182 636.952 217.313" fill="black"/>
<path d="M653.64 208.342C652.384 209.608 644.698 204.16 633.774 204.189C622.869 204.064 614.854 209.44 613.672 208.164C613.091 207.599 614.368 205.306 617.862 202.875C621.292 200.449 627.15 198.094 633.954 198.123C640.758 198.161 646.475 200.559 649.77 203.014C653.124 205.479 654.261 207.776 653.64 208.342Z" fill="black"/>
<path d="M531.548 219.265C531.738 224.396 527.357 228.789 521.76 229.072C516.182 229.36 511.496 225.442 511.301 220.311C511.111 215.18 515.497 210.787 521.079 210.494C526.671 210.207 531.358 214.134 531.548 219.265" fill="black"/>
<path d="M546.307 210.289C545.045 211.56 537.35 206.112 526.435 206.141C515.531 206.011 507.515 211.397 506.329 210.116C505.748 209.55 507.019 207.258 510.519 204.827C513.954 202.405 519.816 200.046 526.616 200.074C533.415 200.113 539.137 202.511 542.427 204.966C545.776 207.431 546.923 209.723 546.307 210.289" fill="black"/>
<path d="M585.934 287.859C585.884 287.26 592.668 286.138 603.673 284.79C606.456 284.517 609.1 283.985 609.566 282.162C610.226 280.23 609.06 277.353 607.703 274.245C605.085 267.781 602.341 261.01 599.462 253.913C588.012 224.958 579.716 201.148 580.943 200.712C582.164 200.28 592.438 223.399 603.888 252.359C606.642 259.499 609.28 266.304 611.789 272.816C612.84 275.852 614.657 279.295 613.236 283.299C612.48 285.294 610.432 286.737 608.649 287.203C606.857 287.725 605.29 287.754 603.913 287.831C592.843 288.401 585.974 288.449 585.934 287.859" fill="black"/>
<path d="M593.479 411.62C593.479 411.62 540.248 414.91 487.508 384.55C487.508 384.55 514.924 441.578 594.115 434.48L593.479 411.62" fill="#C58175"/>
<path d="M551.219 191.979C550.138 194.818 539.238 193.47 526.426 194.952C513.589 196.185 503.255 199.781 501.553 197.225C500.797 196.007 502.594 193.331 506.775 190.579C510.911 187.826 517.524 185.217 525.215 184.397C532.9 183.592 539.944 184.762 544.611 186.579C549.312 188.397 551.68 190.627 551.219 191.979" fill="black"/>
<path d="M649.624 178.068C647.707 180.442 640.186 177.977 631.139 177.862C622.097 177.44 614.432 179.459 612.67 176.975C611.894 175.766 613.1 173.388 616.45 171.139C619.749 168.899 625.262 167.067 631.48 167.245C637.698 167.437 643.085 169.59 646.23 172.021C649.424 174.462 650.475 176.913 649.624 178.068" fill="black"/>
<path d="M413.329 214.863C426.772 212.547 437.542 216.518 441.327 229.087C447.03 248.014 443.139 257.38 444.111 270.428C450.77 268.515 457.428 266.596 464.082 264.688C459.121 220.992 470.446 188.656 465.479 144.965C493.306 153.587 531.552 137.124 543.433 109.493C566.709 126.402 600.544 128.68 626.053 115.056C633.408 128.421 650.225 132.933 660.048 130.286C675.238 126.2 690.974 105.757 695.325 91.2367C703.165 65.0968 699.34 27.6012 677.216 10.5582C655.086 -6.48479 610.712 -2.39425 593.479 19.2188C586.675 27.7499 585.879 43.5365 574.9 45.6992C565.167 47.6126 556.3 40.6928 547.388 36.4776C519.591 23.3189 481.225 40.7983 474.346 69.7579C451.105 56.4937 422.987 47.8237 396.983 54.9785C370.983 62.1333 350.281 89.7071 359.123 114.197C362.812 124.426 371.033 133.264 371.939 144.054C373.682 164.919 347.582 183.813 355.913 203.162C360.574 213.991 374.243 218.796 380.416 228.904C387.33 240.226 383.044 254.478 383.61 267.58C384.546 289.452 396.212 321.821 418.121 328.041" fill="black"/>
<path d="M415.322 214.605C407.181 215.353 403.296 220.484 400.197 226.176C397.103 231.863 396.101 238.409 396.111 244.83C396.131 254.8 398.735 265.168 405.664 272.615C412.588 280.058 424.469 283.741 433.887 279.506" fill="#FFC3BA"/>
<path d="M428.985 263.029C429.095 263.273 426.036 264.343 421.385 262.741C419.117 261.945 416.558 260.401 414.531 257.936C412.513 255.476 411.136 252.167 410.871 248.599C410.575 245.036 411.386 241.579 412.923 238.845C414.44 236.102 416.543 234.088 418.526 232.789C422.596 230.17 425.8 230.348 425.775 230.616C425.881 231.014 422.992 231.499 419.642 234.194C416.308 236.779 412.858 242.063 413.469 248.412C413.85 254.781 418.19 259.451 422.116 261.115C426.031 262.947 428.98 262.611 428.985 263.029" fill="#C58175"/>
<path d="M551.168 324.904C560.941 331.489 580.106 328.002 587.221 318.277C571.97 310.312 557.857 300.357 545.395 288.771C545.395 288.771 531.176 311.444 551.168 324.904Z" fill="#FAFAF9"/>
<path d="M583.551 347.04C583.111 347.63 578.084 344.096 570.834 344.163C563.58 344.038 558.523 347.524 558.087 346.93C557.882 346.695 558.853 345.438 561.086 344.129C563.289 342.82 566.824 341.655 570.844 341.664C574.865 341.683 578.389 342.882 580.577 344.211C582.795 345.539 583.761 346.81 583.551 347.04" fill="#B85549"/>
<defs>
<linearGradient id="paint0_linear_226_3526" x1="1283.59" y1="836.624" x2="1283.59" y2="1210.19" gradientUnits="userSpaceOnUse">
<stop stop-color="#F0D5D0"/>
<stop offset="1" stop-color="#F0C5B9"/>
</linearGradient>
<linearGradient id="paint1_linear_226_3526" x1="1438.39" y1="1111.34" x2="1438.39" y2="1159.25" gradientUnits="userSpaceOnUse">
<stop stop-color="#FFC3BA"/>
<stop offset="1" stop-color="#FF9577"/>
</linearGradient>
<linearGradient id="paint2_linear_226_3526" x1="1016.07" y1="464.775" x2="1016.07" y2="838.342" gradientUnits="userSpaceOnUse">
<stop stop-color="#FFC3BA"/>
<stop offset="1" stop-color="#FF9577"/>
</linearGradient>
<linearGradient id="paint3_linear_226_3526" x1="1170.87" y1="739.493" x2="1170.87" y2="787.401" gradientUnits="userSpaceOnUse">
<stop stop-color="#FF9577"/>
<stop offset="1" stop-color="#FF724A"/>
</linearGradient>
<linearGradient id="paint4_linear_226_3526" x1="602.15" y1="464.775" x2="602.15" y2="838.342" gradientUnits="userSpaceOnUse">
<stop stop-color="#FF9577"/>
<stop offset="1" stop-color="#FE754E"/>
</linearGradient>
<linearGradient id="paint5_linear_226_3526" x1="756.953" y1="739.493" x2="756.953" y2="787.401" gradientUnits="userSpaceOnUse">
<stop stop-color="#FFC3BA"/>
<stop offset="1" stop-color="#FF9577"/>
</linearGradient>
<linearGradient id="paint6_linear_226_3526" x1="928.954" y1="91.2082" x2="928.954" y2="464.775" gradientUnits="userSpaceOnUse">
<stop stop-color="#FFC3BA"/>
<stop offset="1" stop-color="#FF9577"/>
</linearGradient>
<linearGradient id="paint7_linear_226_3526" x1="1083.76" y1="365.926" x2="1083.76" y2="413.835" gradientUnits="userSpaceOnUse">
<stop stop-color="#FFC3BA"/>
<stop offset="1" stop-color="#FF9577"/>
</linearGradient>
<linearGradient id="paint8_linear_226_3526" x1="873.211" y1="836.624" x2="873.211" y2="1210.19" gradientUnits="userSpaceOnUse">
<stop stop-color="#FF9577"/>
<stop offset="1" stop-color="#FF9577"/>
</linearGradient>
<linearGradient id="paint9_linear_226_3526" x1="1028.02" y1="1111.34" x2="1028.02" y2="1159.25" gradientUnits="userSpaceOnUse">
<stop stop-color="#FFC3BA"/>
<stop offset="1" stop-color="#FF9577"/>
</linearGradient>
<linearGradient id="paint10_linear_226_3526" x1="457.602" y1="836.624" x2="457.602" y2="1210.19" gradientUnits="userSpaceOnUse">
<stop stop-color="#FF9577"/>
<stop offset="1" stop-color="#7F85FF"/>
</linearGradient>
<linearGradient id="paint11_linear_226_3526" x1="612.406" y1="1111.34" x2="612.406" y2="1159.25" gradientUnits="userSpaceOnUse">
<stop stop-color="#F0C2B5"/>
<stop offset="1" stop-color="#FF9577"/>
</linearGradient>
</defs>
</svg>
