<svg width="1514" height="1557" viewBox="0 0 1514 1557" fill="none" xmlns="http://www.w3.org/2000/svg">
<path d="M1379.39 491.531C1379.39 491.531 1378.47 491.113 1376.53 490.692C1374.6 490.258 1371.57 490.003 1367.77 490.812C1363.97 491.609 1359.49 493.617 1355.03 497.076C1350.52 500.516 1346.31 505.542 1342.1 511.505C1333.84 523.64 1327.31 540.441 1319.72 560.024C1312.25 579.646 1303.87 602.325 1296.93 628.238L1296.91 628.331L1296.88 628.381C1295.65 630.482 1294.13 632.375 1292.17 633.969C1290.21 635.466 1287.56 636.716 1284.82 636.213C1282.1 635.799 1279.92 634.1 1278.05 632.475C1276.17 630.8 1274.4 629.016 1272.62 627.217C1269.07 623.63 1265.49 619.962 1261.42 616.754C1257.39 613.693 1252.53 610.71 1247.26 611.217C1242.14 611.84 1237.23 615.171 1234.28 619.497C1231.33 623.951 1230.07 629.387 1229.81 634.867C1229.13 645.945 1232.46 657.104 1234.49 668.693C1236.74 680.263 1239.05 692.115 1241.4 704.242C1242.58 710.305 1243.78 716.434 1244.98 722.633C1245.58 725.729 1246.19 728.843 1246.8 731.978C1247.52 734.965 1247.92 738.834 1245.64 741.883C1244.53 743.505 1242.08 744.135 1240.25 743.64C1238.39 743.222 1236.84 742.212 1235.47 741.26C1232.75 739.31 1230.02 737.348 1227.27 735.379C1221.79 731.471 1216.14 727.683 1210.15 724.343C1204.18 721.035 1197.82 718.048 1191.01 716.705C1187.62 716.051 1184.1 715.935 1180.82 716.767C1177.53 717.572 1174.59 719.46 1172.52 722.107C1168.32 727.419 1167.19 734.578 1167.07 741.442C1166.95 748.396 1167.87 755.426 1169.19 762.418C1171.91 776.41 1176.3 790.317 1181.51 804.123C1182.7 807.586 1184.51 810.899 1185.04 814.88C1185.29 816.811 1185.03 819.14 1183.54 820.851C1183.19 821.273 1182.79 821.656 1182.37 821.977C1181.86 822.317 1181.74 822.6 1180.8 822.863C1179.19 823.196 1178.21 822.546 1177.28 822.124C1173.69 820.112 1170.9 817.5 1167.94 815C1165.06 812.446 1162.17 809.885 1159.28 807.315C1153.49 802.216 1147.58 797.15 1140.91 793.146C1137.58 791.164 1134.04 789.435 1130.31 788.522C1126.6 787.535 1122.61 787.833 1119.51 789.806C1116.38 791.811 1114.35 795.142 1113.4 798.772C1112.4 802.405 1111.98 806.244 1111.96 810.094C1111.9 817.802 1113.07 825.587 1115 833.202C1118.67 848.521 1125.06 863.333 1132.54 877.677C1140.03 892.041 1148.96 905.893 1158.69 919.285C1163.28 926.169 1169.07 932.294 1174.44 938.745C1179.88 945.137 1185.35 951.552 1190.83 957.991L1191.02 958.216L1190.06 957.856C1198.65 956.66 1207.21 955.464 1215.74 954.276C1224.24 952.98 1232.85 952.253 1241.08 950.094C1257.68 946.449 1274.03 941.948 1289.66 936.137C1305.27 930.336 1320.41 923.491 1333.89 914.514C1340.68 910.122 1347 905.104 1352.38 899.365C1355.07 896.51 1357.44 893.391 1359.27 890.059C1361.11 886.759 1361.95 882.986 1361.05 879.484C1360.14 876.025 1357.4 873.227 1353.96 871.567C1350.56 869.838 1346.72 868.839 1342.87 868.158C1335.12 866.827 1327.18 866.765 1319.32 866.816C1315.37 866.854 1311.44 866.889 1307.51 866.932C1303.56 866.866 1299.66 867.009 1295.59 866.185C1294.61 865.899 1293.43 865.748 1292.46 864.459C1291.96 863.654 1292.08 863.376 1291.93 862.791C1291.84 862.281 1291.82 861.743 1291.86 861.205C1291.96 858.98 1293.41 857.088 1294.95 855.827C1298.14 853.215 1301.8 851.934 1305.12 850.135C1318.66 843.266 1331.68 835.798 1343.52 827.193C1349.4 822.863 1355.01 818.247 1359.8 813.019C1364.54 807.861 1368.72 801.832 1369.34 795.196C1369.66 791.904 1368.79 788.615 1366.92 785.906C1365.08 783.174 1362.39 780.992 1359.42 779.301C1353.43 775.911 1346.62 774.027 1339.88 772.63C1333.1 771.249 1326.25 770.417 1319.45 769.778C1316.04 769.469 1312.64 769.159 1309.26 768.849C1307.57 768.668 1305.72 768.42 1304.05 767.522C1302.35 766.694 1301.01 764.64 1301.33 762.728C1301.81 759.01 1304.82 756.405 1307.45 754.668C1310.1 752.741 1312.74 750.826 1315.35 748.922C1320.6 745.111 1325.79 741.342 1330.91 737.612C1341.17 730.155 1351.2 722.869 1360.98 715.753C1370.62 708.482 1380.92 702.369 1388.19 693.725C1391.84 689.507 1394.72 684.666 1395.65 679.469C1396.5 674.37 1395.2 668.743 1391.84 664.986C1390.16 663.079 1387.71 661.953 1385.23 661.21C1382.74 660.413 1380.08 660.173 1377.47 659.983C1372.21 659.735 1366.99 660.146 1361.84 660.517C1359.27 660.703 1356.7 660.881 1354.13 660.908C1351.61 660.908 1348.8 660.761 1346.5 659.314C1344.13 657.917 1343.04 655.286 1342.65 652.917C1342.31 650.48 1342.51 648.096 1343.08 645.755L1343.1 645.697L1343.14 645.616C1356.17 622.005 1365.88 599.868 1374.11 580.563C1382.23 561.212 1389.17 544.608 1391.67 530.349C1392.79 523.249 1393.34 516.833 1392.47 511.381C1391.7 505.941 1389.93 501.538 1387.77 498.45C1385.62 495.343 1383.22 493.547 1381.51 492.607C1379.81 491.643 1378.82 491.353 1378.82 491.353C1378.82 491.353 1379.84 491.535 1381.6 492.46C1383.35 493.362 1385.83 495.138 1388.06 498.26C1390.31 501.363 1392.16 505.817 1392.98 511.316C1393.92 516.826 1393.42 523.295 1392.35 530.458C1389.93 544.837 1383.05 561.537 1375.04 580.919C1366.87 600.285 1357.27 622.442 1344.25 646.208L1344.31 646.069C1343.79 648.204 1343.61 650.53 1343.93 652.739C1344.3 654.906 1345.25 657.12 1347.23 658.261C1349.16 659.465 1351.62 659.635 1354.12 659.619C1356.63 659.588 1359.17 659.407 1361.74 659.213C1366.87 658.83 1372.14 658.397 1377.55 658.636C1380.24 658.818 1382.99 659.058 1385.66 659.898C1388.29 660.683 1391 661.906 1392.92 664.05C1396.71 668.318 1397.99 674.153 1397.13 679.698C1396.14 685.262 1393.11 690.312 1389.38 694.657C1381.92 703.557 1371.5 709.744 1361.94 717.003C1352.17 724.13 1342.17 731.432 1331.93 738.9C1326.82 742.634 1321.64 746.411 1316.41 750.226C1313.8 752.134 1311.17 754.053 1308.53 755.984C1307.17 756.97 1305.88 757.837 1304.94 759.006C1303.99 760.166 1303.2 761.532 1303.08 762.875C1302.9 764.237 1303.65 765.355 1304.92 766.048C1306.22 766.748 1307.8 766.988 1309.46 767.162C1312.83 767.464 1316.22 767.77 1319.63 768.072C1326.46 768.702 1333.37 769.53 1340.25 770.923C1347.12 772.344 1354.06 774.232 1360.37 777.784C1363.49 779.556 1366.42 781.893 1368.49 784.935C1370.58 787.949 1371.57 791.714 1371.21 795.328C1370.51 802.676 1366.07 808.914 1361.24 814.222C1356.32 819.593 1350.63 824.275 1344.69 828.655C1332.73 837.373 1319.65 844.888 1306.04 851.806C1302.68 853.613 1298.98 854.979 1296.26 857.247C1294.91 858.376 1293.91 859.766 1293.84 861.329C1293.81 861.716 1293.83 862.114 1293.9 862.521C1293.95 862.83 1294.07 863.562 1294.19 863.496C1294.31 863.774 1295.22 864.157 1296.07 864.328C1299.64 865.063 1303.64 864.966 1307.5 865.013C1311.43 864.97 1315.35 864.931 1319.3 864.889C1327.2 864.835 1335.23 864.877 1343.24 866.247C1347.22 866.951 1351.22 867.973 1354.93 869.853C1358.64 871.622 1361.97 874.891 1363.03 879.012C1364.1 883.079 1363.07 887.409 1361.11 890.934C1359.16 894.494 1356.69 897.725 1353.91 900.673C1348.38 906.59 1341.94 911.686 1335.06 916.147C1321.4 925.256 1306.14 932.155 1290.41 938.002C1274.65 943.864 1258.27 948.379 1241.51 952.063C1233.19 954.242 1224.61 954.961 1216.08 956.265C1207.54 957.457 1198.96 958.649 1190.36 959.852L1189.77 959.93L1189.39 959.489L1189.2 959.264C1183.71 952.818 1178.23 946.391 1172.78 939.987C1167.41 933.521 1161.63 927.415 1156.98 920.458C1147.18 906.946 1138.22 893.058 1130.68 878.575C1123.15 864.126 1116.7 849.19 1112.99 833.655C1111.03 825.92 1109.84 818.011 1109.9 810.067C1109.92 806.1 1110.36 802.119 1111.43 798.234C1112.45 794.364 1114.72 790.491 1118.37 788.181C1122.06 785.813 1126.81 785.546 1130.8 786.63C1134.87 787.628 1138.54 789.454 1141.98 791.493C1148.86 795.63 1154.84 800.772 1160.65 805.899C1163.54 808.469 1166.42 811.03 1169.28 813.584C1172.18 816.041 1175.07 818.684 1178.23 820.441C1178.98 820.862 1179.92 821.164 1180.21 821.044C1180.25 821.164 1180.85 820.704 1181.11 820.506C1181.44 820.255 1181.73 819.965 1181.99 819.659C1183.04 818.459 1183.27 816.792 1183.06 815.089C1182.65 811.665 1180.87 808.264 1179.65 804.769C1174.44 790.882 1170.02 776.898 1167.29 762.747C1165.96 755.678 1165.04 748.547 1165.17 741.411C1165.32 734.369 1166.4 726.893 1171.03 721C1173.3 718.094 1176.67 715.931 1180.34 715.045C1184 714.116 1187.8 714.275 1191.37 714.968C1198.53 716.392 1205 719.472 1211.07 722.834C1217.15 726.235 1222.84 730.07 1228.34 734.005C1231.07 735.971 1233.8 737.929 1236.5 739.879C1237.86 740.827 1239.19 741.663 1240.65 741.996C1242.08 742.309 1243.42 741.972 1244.25 740.858C1245.12 739.798 1245.48 738.269 1245.61 736.807C1245.73 735.329 1245.39 733.862 1245.08 732.256C1244.47 729.126 1243.88 726.015 1243.28 722.919C1242.09 716.724 1240.91 710.599 1239.74 704.536C1237.41 692.42 1235.13 680.568 1232.91 669.007C1230.93 657.468 1227.56 646.185 1228.28 634.789C1228.56 629.159 1229.86 623.475 1233.03 618.719C1236.28 614.057 1241.32 610.555 1247.12 609.827C1250.05 609.472 1252.91 610.311 1255.42 611.422C1257.98 612.517 1260.19 614.115 1262.31 615.709C1266.48 619.01 1270.08 622.724 1273.61 626.319C1275.38 628.118 1277.13 629.89 1278.97 631.527C1280.81 633.149 1282.74 634.611 1285.02 634.963C1287.29 635.401 1289.54 634.367 1291.34 633.005C1293.13 631.574 1294.63 629.732 1295.74 627.82L1295.69 627.963C1302.75 601.942 1311.21 579.317 1318.78 559.691C1326.47 540.147 1333.11 523.319 1341.53 511.145C1345.81 505.163 1350.11 500.133 1354.7 496.689C1359.26 493.226 1363.82 491.237 1367.69 490.483C1371.57 489.716 1374.64 490.034 1376.57 490.525C1378.51 491.009 1379.39 491.531 1379.39 491.531Z" fill="#1A2E35"/>
<path d="M1358.2 544.171C1358.23 544.183 1358.1 544.612 1357.79 545.436C1357.44 546.353 1356.98 547.557 1356.4 549.073C1355.09 552.374 1353.23 557.037 1350.86 562.984C1345.96 575.169 1338.94 592.597 1330.3 614.084C1313.09 657.402 1289.39 717.049 1263.2 782.934C1237.09 848.931 1213.21 908.586 1195.51 951.614C1186.68 973.128 1179.44 990.514 1174.33 1002.48C1171.8 1008.37 1169.82 1012.99 1168.42 1016.25C1167.76 1017.74 1167.24 1018.92 1166.84 1019.82C1166.47 1020.61 1166.26 1021.02 1166.23 1021C1166.2 1020.99 1166.33 1020.56 1166.64 1019.74C1166.99 1018.82 1167.45 1017.62 1168.03 1016.11C1169.34 1012.81 1171.2 1008.14 1173.57 1002.19C1178.47 990.011 1185.48 972.583 1194.13 951.096C1211.34 907.781 1235.05 848.126 1261.24 782.218C1287.34 716.244 1311.22 656.593 1328.92 613.569C1337.75 592.051 1344.99 574.67 1350.09 562.698C1352.62 556.808 1354.6 552.188 1356.01 548.923C1356.67 547.437 1357.19 546.26 1357.59 545.359C1357.96 544.562 1358.16 544.159 1358.2 544.171Z" fill="#1A2E35"/>
<path d="M1360.37 677.698C1360.51 677.957 1356.6 680.078 1350.27 683.448C1343.34 687.139 1334.88 691.647 1325.52 696.635C1315.85 701.781 1307.04 706.37 1300.54 709.489C1294.05 712.612 1289.87 714.237 1289.75 713.993C1289.62 713.734 1293.55 711.668 1299.84 708.232C1306.74 704.49 1315.18 699.924 1324.5 694.87C1334.18 689.72 1343.05 685.239 1349.58 682.186C1356.1 679.13 1360.25 677.458 1360.37 677.698Z" fill="#1A2E35"/>
<path d="M1286.48 711.657C1285.96 711.905 1276.35 694.341 1265.02 672.441C1253.69 650.528 1244.93 632.574 1245.45 632.327C1245.97 632.079 1255.58 649.634 1266.91 671.547C1278.24 693.448 1287 711.409 1286.48 711.657Z" fill="#1A2E35"/>
<path d="M1251.15 814.721C1250.96 814.907 1247.52 811.989 1242.27 806.971C1237.03 801.94 1229.99 794.797 1222.69 786.505C1215.36 778.229 1209.16 770.405 1204.86 764.616C1200.56 758.827 1198.12 755.097 1198.35 754.942C1198.6 754.772 1201.46 758.204 1206.05 763.761C1210.64 769.313 1217 776.967 1224.3 785.205C1231.56 793.455 1238.4 800.722 1243.35 805.988C1248.31 811.246 1251.37 814.512 1251.15 814.721Z" fill="#1A2E35"/>
<path d="M1325.05 798.093C1325.12 798.364 1321.04 799.486 1314.4 801.081C1307.76 802.679 1298.56 804.745 1288.37 806.904C1278.17 809.067 1268.92 810.913 1262.2 812.155C1255.48 813.39 1251.29 814.02 1251.23 813.749C1251.16 813.479 1255.24 812.36 1261.87 810.762C1268.52 809.168 1277.72 807.098 1287.91 804.939C1298.1 802.776 1307.36 800.93 1314.08 799.692C1320.8 798.453 1324.99 797.823 1325.05 798.093Z" fill="#1A2E35"/>
<path d="M1305.94 892.873C1306 893.144 1300.74 894.467 1292.2 896.383C1283.66 898.298 1271.84 900.809 1258.75 903.46C1245.65 906.11 1233.78 908.401 1225.15 909.96C1216.54 911.516 1211.18 912.348 1211.12 912.073C1211.06 911.802 1216.31 910.483 1224.85 908.567C1233.39 906.652 1245.22 904.141 1258.31 901.49C1271.4 898.836 1283.28 896.549 1291.89 894.99C1300.51 893.43 1305.87 892.602 1305.94 892.873Z" fill="#1A2E35"/>
<path d="M1213.25 911.004C1213.14 911.096 1212.07 910.152 1210.22 908.361C1208.36 906.577 1205.75 903.926 1202.57 900.606C1196.23 893.955 1187.69 884.572 1178.73 873.83C1169.75 863.1 1162.05 853.067 1156.67 845.68C1153.98 841.992 1151.86 838.963 1150.44 836.838C1149.03 834.714 1148.3 833.507 1148.42 833.422C1148.53 833.344 1149.49 834.405 1151.11 836.386C1152.99 838.742 1155.25 841.559 1157.87 844.84C1163.55 852.003 1171.42 861.87 1180.37 872.569C1189.31 883.283 1197.65 892.786 1203.69 899.666C1209.74 906.542 1213.48 910.806 1213.25 911.004Z" fill="#1A2E35"/>
<path d="M1172.84 1170.2C1102.69 1116.06 1092.53 1023.44 1101.34 941.364C1102.8 927.663 1102.26 913.086 1109.95 901.482C1117.64 889.885 1134.13 882.696 1146.56 889.324C1156.86 894.827 1160.65 906.996 1165.9 917.192C1172.89 930.766 1183.93 942.343 1197.33 950.163C1206.13 955.302 1217.23 958.819 1226.58 954.648C1239.41 948.925 1242.04 932.658 1242.94 918.991C1244.59 893.527 1246.25 868.058 1247.91 842.597C1248.8 828.934 1249.75 814.985 1255.11 802.316C1260.48 789.644 1271.14 778.248 1284.96 775.497C1298.8 772.75 1315.03 781.344 1316.93 794.902C1317.73 800.54 1316.13 806.236 1316.12 811.932C1316.11 817.632 1318.42 824.086 1323.93 826.032C1329.51 828.005 1335.49 824.507 1340.04 820.793C1355.74 807.97 1367 790.863 1377.61 773.81C1388.21 756.754 1398.56 739.264 1412.99 725.102C1427.42 710.936 1446.75 700.233 1467.25 700.465C1487.75 700.701 1508.64 714.202 1512.43 733.742C1516.22 753.337 1503.09 772.104 1489.21 786.85C1468.63 808.732 1444.76 827.708 1418.61 842.999C1413.9 845.762 1408.79 848.746 1406.71 853.687C1402.96 862.59 1411.32 872.225 1420.49 875.835C1430.88 879.925 1442.48 879.624 1453.51 881.609C1464.54 883.594 1476.25 889.084 1479.73 899.424C1484.58 913.768 1471.34 927.601 1458.66 936.392C1433.27 954.01 1404.76 967.367 1374.77 975.709C1364.01 978.697 1352.74 981.196 1343.78 987.697C1334.82 994.205 1328.83 1006.14 1333.25 1016.1C1337.68 1026.07 1350.57 1030.01 1361.7 1028.77C1372.82 1027.54 1383.07 1022.48 1393.81 1019.38C1413.92 1013.58 1439.12 1016.54 1450.52 1033.58C1458 1044.79 1457.67 1059.68 1452.58 1072.12C1447.5 1084.56 1438.26 1094.95 1428.55 1104.46C1394.61 1137.69 1352.37 1163.46 1305.83 1175.57C1259.29 1187.68 1216.88 1188.99 1172.84 1170.2Z" fill="#FF9577"/>
<g opacity="0.100006">
<g opacity="0.100006">
<path opacity="0.100006" d="M1172.84 1170.2C1102.69 1116.06 1092.53 1023.44 1101.34 941.364C1102.8 927.663 1102.26 913.086 1109.95 901.482C1117.64 889.885 1134.13 882.696 1146.56 889.324C1156.86 894.827 1160.65 906.996 1165.9 917.192C1172.89 930.766 1183.93 942.343 1197.33 950.163C1206.13 955.302 1217.23 958.819 1226.58 954.648C1239.41 948.925 1242.04 932.658 1242.94 918.991C1244.59 893.527 1246.25 868.058 1247.91 842.597C1248.8 828.934 1249.75 814.985 1255.11 802.316C1260.48 789.644 1271.14 778.248 1284.96 775.497C1298.8 772.75 1315.03 781.344 1316.93 794.902C1317.73 800.54 1316.13 806.236 1316.12 811.932C1316.11 817.632 1318.42 824.086 1323.93 826.032C1329.51 828.005 1335.49 824.507 1340.04 820.793C1355.74 807.97 1367 790.863 1377.61 773.81C1388.21 756.754 1398.56 739.264 1412.99 725.102C1427.42 710.936 1446.75 700.233 1467.25 700.465C1487.75 700.701 1508.64 714.202 1512.43 733.742C1516.22 753.337 1503.09 772.104 1489.21 786.85C1468.63 808.732 1444.76 827.708 1418.61 842.999C1413.9 845.762 1408.79 848.746 1406.71 853.687C1402.96 862.59 1411.32 872.225 1420.49 875.835C1430.88 879.925 1442.48 879.624 1453.51 881.609C1464.54 883.594 1476.25 889.084 1479.73 899.424C1484.58 913.768 1471.34 927.601 1458.66 936.392C1433.27 954.01 1404.76 967.367 1374.77 975.709C1364.01 978.697 1352.74 981.196 1343.78 987.697C1334.82 994.205 1328.83 1006.14 1333.25 1016.1C1337.68 1026.07 1350.57 1030.01 1361.7 1028.77C1372.82 1027.54 1383.07 1022.48 1393.81 1019.38C1413.92 1013.58 1439.12 1016.54 1450.52 1033.58C1458 1044.79 1457.67 1059.68 1452.58 1072.12C1447.5 1084.56 1438.26 1094.95 1428.55 1104.46C1394.61 1137.69 1352.37 1163.46 1305.83 1175.57C1259.29 1187.68 1216.88 1188.99 1172.84 1170.2Z" fill="black"/>
</g>
</g>
<path d="M1167.35 1231.12C1172.79 1198.74 1183.01 1160.74 1198.71 1120.09C1214.32 1079.4 1235.3 1036.16 1258.86 991.659C1264.79 980.558 1270.66 969.584 1276.43 958.773C1282.23 947.993 1287.97 937.298 1294.27 927.171C1306.77 906.865 1320.4 888.256 1333.91 870.976C1347.43 853.683 1360.91 837.749 1373.63 822.937C1386.39 808.14 1398.54 794.57 1410.18 782.652C1433.39 758.723 1454.44 741.582 1469.41 730.38C1476.87 724.754 1482.81 720.571 1486.89 717.789C1488.84 716.469 1490.38 715.432 1491.53 714.65C1492.59 713.958 1493.14 713.621 1493.16 713.656C1493.2 713.691 1492.69 714.101 1491.69 714.863C1490.58 715.691 1489.09 716.798 1487.2 718.199C1483.23 721.116 1477.4 725.423 1470.03 731.158C1455.29 742.584 1434.5 759.873 1411.54 783.882C1400.02 795.847 1387.97 809.452 1375.31 824.283C1362.67 839.146 1349.26 855.103 1335.84 872.388C1322.41 889.665 1308.87 908.238 1296.48 928.448C1290.23 938.528 1284.55 949.13 1278.75 959.942C1272.98 970.753 1267.12 981.719 1261.2 992.816C1237.65 1037.28 1216.66 1080.39 1200.97 1120.91C1185.2 1161.39 1174.84 1199.18 1169.18 1231.41" fill="#1A2E35"/>
<path d="M1295.02 927.127C1294.84 927.142 1294.51 925.034 1294.05 921.211C1293.57 917.384 1293.07 911.835 1292.56 904.963C1291.51 891.234 1290.75 872.227 1289.99 851.267C1289.23 830.29 1288.19 811.346 1286.93 797.671C1286.32 790.83 1285.77 785.297 1285.34 781.478C1284.93 777.655 1284.79 775.526 1284.97 775.495C1285.15 775.472 1285.63 777.55 1286.35 781.338C1287.09 785.126 1287.93 790.644 1288.77 797.482C1290.51 811.16 1291.86 830.171 1292.61 851.162C1293.3 871.848 1293.93 890.565 1294.41 904.862C1294.67 911.32 1294.89 916.761 1295.07 921.129C1295.21 924.972 1295.21 927.111 1295.02 927.127Z" fill="#1A2E35"/>
<path d="M1480.7 906.355C1480.69 906.529 1478.07 906.645 1473.33 906.714C1468.6 906.803 1461.75 906.904 1453.29 907.283C1436.38 907.914 1413.04 909.574 1387.38 912.48C1361.72 915.436 1338.61 919.05 1321.98 922.13C1313.64 923.616 1306.94 924.99 1302.3 925.914C1297.66 926.855 1295.07 927.292 1295.02 927.125C1294.98 926.951 1297.48 926.189 1302.06 924.947C1306.64 923.728 1313.3 922.08 1321.61 920.366C1338.2 916.825 1361.34 912.909 1387.08 909.949C1412.82 907.036 1436.26 905.65 1453.24 905.48C1461.74 905.329 1468.61 905.503 1473.35 905.724C1478.09 905.96 1480.71 906.173 1480.7 906.355Z" fill="#1A2E35"/>
<path d="M1201.19 1117.01C1201.11 1117.04 1200.73 1116.27 1200.09 1114.78C1199.36 1113.01 1198.48 1110.84 1197.41 1108.22C1195.1 1102.52 1192 1094.18 1188.31 1083.83C1180.9 1063.13 1171.62 1034.23 1161.82 1002.22C1152.01 970.18 1143.01 941.237 1136.07 920.423C1132.66 910.305 1129.86 901.982 1127.77 895.791C1126.88 893.109 1126.16 890.892 1125.55 889.077C1125.08 887.533 1124.86 886.705 1124.95 886.674C1125.03 886.647 1125.41 887.413 1126.05 888.903C1126.78 890.675 1127.66 892.834 1128.73 895.454C1131.04 901.161 1134.14 909.5 1137.83 919.851C1145.24 940.544 1154.53 969.445 1164.33 1001.48C1174.13 1033.5 1183.13 1062.44 1190.07 1083.26C1193.48 1093.38 1196.28 1101.71 1198.37 1107.89C1199.26 1110.57 1199.98 1112.79 1200.59 1114.61C1201.07 1116.15 1201.28 1116.97 1201.19 1117.01Z" fill="#1A2E35"/>
<path d="M1450.19 1057.81C1450.21 1057.89 1449.35 1058.17 1447.71 1058.6C1445.76 1059.09 1443.37 1059.68 1440.47 1060.41C1433.79 1062.01 1424.77 1064.17 1413.8 1066.79C1391.28 1072.19 1360.27 1079.98 1326.02 1088.64C1291.76 1097.3 1260.64 1104.82 1238.01 1109.77C1226.69 1112.25 1217.5 1114.17 1211.13 1115.37C1208.19 1115.91 1205.76 1116.35 1203.79 1116.71C1202.1 1116.99 1201.21 1117.09 1201.19 1117.01C1201.17 1116.92 1202.03 1116.65 1203.67 1116.2C1205.62 1115.72 1208.01 1115.12 1210.91 1114.41C1217.6 1112.8 1226.6 1110.65 1237.58 1108.02C1260.09 1102.63 1291.11 1094.83 1325.37 1086.17C1359.62 1077.51 1390.73 1069.99 1413.38 1065.04C1424.69 1062.56 1433.87 1060.64 1440.24 1059.45C1443.19 1058.91 1445.61 1058.46 1447.59 1058.11C1449.27 1057.83 1450.17 1057.73 1450.19 1057.81Z" fill="#1A2E35"/>
<path d="M1188.53 1387.49H209.691V101.661H1188.53V1387.49Z" fill="#375A64"/>
<path d="M1150.43 1311.4H968.975H291.033V154.019H1150.43V1167.41V1311.4Z" fill="#E1E1E1"/>
<path d="M1045.34 1200.33L947.245 1276.84H269.299V141.631H1128.7V1135.61L1045.34 1200.33Z" fill="#FAFAFA"/>
<path d="M1045.34 1200.33C1045.34 1200.33 1047.08 1198.92 1050.58 1196.16C1054.1 1193.4 1059.34 1189.29 1066.29 1183.85C1080.25 1172.97 1101.05 1156.75 1128.49 1135.36L1128.36 1135.61C1128.26 972.335 1128.04 609.533 1127.75 141.63L1128.7 142.539C872.786 142.57 582.828 142.605 276.804 142.636H269.302L270.353 141.63C270.276 568.409 270.203 962.124 270.143 1276.84L269.302 1276.03C578.768 1276.24 816.498 1276.4 947.249 1276.5L947.018 1276.57C979.737 1251.15 1004.29 1232.07 1020.68 1219.34C1028.88 1212.99 1035.02 1208.24 1039.14 1205.05C1043.25 1201.88 1045.34 1200.33 1045.34 1200.33C1045.34 1200.33 1043.33 1201.98 1039.26 1205.19C1035.17 1208.41 1029.06 1213.21 1020.92 1219.61C1004.57 1232.4 980.093 1251.57 947.471 1277.11L947.374 1277.18H947.249C816.498 1277.27 578.768 1277.44 269.302 1277.65H268.458V1276.84C268.401 962.124 268.329 568.409 268.252 141.63V140.624H269.302H276.804C582.828 140.659 872.786 140.69 1128.7 140.721H1129.65V141.63C1129.36 609.533 1129.13 972.335 1129.03 1135.61V1135.76L1128.91 1135.86C1101.38 1157.15 1080.51 1173.28 1066.51 1184.11C1059.51 1189.5 1054.23 1193.56 1050.69 1196.29C1047.15 1199 1045.34 1200.33 1045.34 1200.33Z" fill="#1A2E35"/>
<path d="M875.172 177.783H523.445V119.397C523.445 87.8611 550.137 62.2919 583.062 62.2919H817.992C849.572 62.2919 875.172 86.8163 875.172 117.064V177.783Z" fill="#FF9577"/>
<path d="M609.589 62.2939L596.73 -6.2806e-05H799.25L787.999 62.2939H609.589Z" fill="#FF9577"/>
<path d="M363.227 457.296H499.932V326.358H363.227V457.296ZM503.972 461.165H359.188V322.489H503.972V461.165Z" fill="#FF9577"/>
<path d="M1015.59 355.977C1015.59 356.535 914.811 356.983 790.521 356.983C666.19 356.983 565.428 356.535 565.428 355.977C565.428 355.42 666.19 354.967 790.521 354.967C914.811 354.967 1015.59 355.42 1015.59 355.977Z" fill="#1A2E35"/>
<path d="M1015.59 384.793C1015.59 385.35 914.811 385.799 790.521 385.799C666.19 385.799 565.428 385.35 565.428 384.793C565.428 384.236 666.19 383.783 790.521 383.783C914.811 383.783 1015.59 384.236 1015.59 384.793Z" fill="#1A2E35"/>
<path d="M1015.59 413.609C1015.59 414.166 914.811 414.615 790.521 414.615C666.19 414.615 565.428 414.166 565.428 413.609C565.428 413.052 666.19 412.599 790.521 412.599C914.811 412.599 1015.59 413.052 1015.59 413.609Z" fill="#1A2E35"/>
<path d="M1015.59 442.427C1015.59 442.984 914.811 443.433 790.521 443.433C666.19 443.433 565.428 442.984 565.428 442.427C565.428 441.869 666.19 441.417 790.521 441.417C914.811 441.417 1015.59 441.869 1015.59 442.427Z" fill="#1A2E35"/>
<path d="M363.227 671.015H499.932V540.082H363.227V671.015ZM503.972 674.885H359.188V536.212H503.972V674.885Z" fill="#FF9577"/>
<path d="M387.98 608.4L407.202 588.627L439.234 613.171L512.558 544.988L530.123 564.819L437.808 652.04L387.98 608.4Z" fill="#FF9577"/>
<path d="M1015.59 569.698C1015.59 570.255 914.811 570.704 790.521 570.704C666.19 570.704 565.428 570.255 565.428 569.698C565.428 569.141 666.19 568.688 790.521 568.688C914.811 568.688 1015.59 569.141 1015.59 569.698Z" fill="#1A2E35"/>
<path d="M1015.59 598.516C1015.59 599.074 914.811 599.522 790.521 599.522C666.19 599.522 565.428 599.074 565.428 598.516C565.428 597.959 666.19 597.507 790.521 597.507C914.811 597.507 1015.59 597.959 1015.59 598.516Z" fill="#1A2E35"/>
<path d="M1015.59 627.332C1015.59 627.889 914.811 628.338 790.521 628.338C666.19 628.338 565.428 627.889 565.428 627.332C565.428 626.775 666.19 626.322 790.521 626.322C914.811 626.322 1015.59 626.775 1015.59 627.332Z" fill="#1A2E35"/>
<path d="M1015.59 656.15C1015.59 656.707 914.811 657.156 790.521 657.156C666.19 657.156 565.428 656.707 565.428 656.15C565.428 655.593 666.19 655.14 790.521 655.14C914.811 655.14 1015.59 655.593 1015.59 656.15Z" fill="#1A2E35"/>
<path d="M363.227 877.829H499.932V746.891H363.227V877.829ZM503.972 881.698H359.188V743.022H503.972V881.698Z" fill="#FF9577"/>
<path d="M387.98 815.216L407.202 795.443L439.234 819.987L512.558 751.803L530.123 771.634L437.808 858.851L387.98 815.216Z" fill="#FF9577"/>
<path d="M1015.59 776.512C1015.59 777.069 914.811 777.521 790.521 777.521C666.19 777.521 565.428 777.069 565.428 776.512C565.428 775.955 666.19 775.506 790.521 775.506C914.811 775.506 1015.59 775.955 1015.59 776.512Z" fill="#1A2E35"/>
<path d="M1015.59 805.33C1015.59 805.887 914.811 806.336 790.521 806.336C666.19 806.336 565.428 805.887 565.428 805.33C565.428 804.769 666.19 804.32 790.521 804.32C914.811 804.32 1015.59 804.769 1015.59 805.33Z" fill="#1A2E35"/>
<path d="M1015.59 834.146C1015.59 834.703 914.811 835.152 790.521 835.152C666.19 835.152 565.428 834.703 565.428 834.146C565.428 833.585 666.19 833.136 790.521 833.136C914.811 833.136 1015.59 833.585 1015.59 834.146Z" fill="#1A2E35"/>
<path d="M1015.59 862.964C1015.59 863.521 914.811 863.97 790.521 863.97C666.19 863.97 565.428 863.521 565.428 862.964C565.428 862.403 666.19 861.954 790.521 861.954C914.811 861.954 1015.59 862.403 1015.59 862.964Z" fill="#1A2E35"/>
<path d="M363.227 1077.51H499.932V946.573H363.227V1077.51ZM503.972 1081.38H359.188V942.704H503.972V1081.38Z" fill="#FF9577"/>
<path d="M387.98 1014.9L407.202 995.127L439.234 1019.67L512.558 951.488L530.123 971.319L437.808 1058.54L387.98 1014.9Z" fill="#FF9577"/>
<path d="M1015.59 976.198C1015.59 976.755 914.811 977.204 790.521 977.204C666.19 977.204 565.428 976.755 565.428 976.198C565.428 975.637 666.19 975.188 790.521 975.188C914.811 975.188 1015.59 975.637 1015.59 976.198Z" fill="#1A2E35"/>
<path d="M1015.59 1005.01C1015.59 1005.57 914.811 1006.02 790.521 1006.02C666.19 1006.02 565.428 1005.57 565.428 1005.01C565.428 1004.45 666.19 1004 790.521 1004C914.811 1004 1015.59 1004.45 1015.59 1005.01Z" fill="#1A2E35"/>
<path d="M1015.59 1033.83C1015.59 1034.39 914.811 1034.84 790.521 1034.84C666.19 1034.84 565.428 1034.39 565.428 1033.83C565.428 1033.27 666.19 1032.82 790.521 1032.82C914.811 1032.82 1015.59 1033.27 1015.59 1033.83Z" fill="#1A2E35"/>
<path d="M1015.59 1062.65C1015.59 1063.2 914.811 1063.65 790.521 1063.65C666.19 1063.65 565.428 1063.2 565.428 1062.65C565.428 1062.08 666.19 1061.64 790.521 1061.64C914.811 1061.64 1015.59 1062.08 1015.59 1062.65Z" fill="#1A2E35"/>
<path d="M974.199 1088.89L879.98 1275.78H947.249L974.199 1088.89Z" fill="#E1E1E1"/>
<path d="M947.248 1276.84L974.198 1089.94L1128.7 1135.61L947.248 1276.84Z" fill="#FAFAFA"/>
<path d="M947.25 1276.84C951.04 1273.85 967.72 1260.7 999.203 1235.88C1031.49 1210.56 1076.55 1175.23 1128.05 1134.85L1128.4 1136.55C1109.23 1130.89 1089.24 1124.99 1068.75 1118.94C1035.31 1109.04 1003.22 1099.53 973.909 1090.85L975.178 1090.07C967.106 1144.36 960.186 1190.86 955.269 1223.92C950.397 1256.06 947.884 1272.65 947.25 1276.84C947.234 1276.86 947.266 1276.58 947.335 1276.01C947.424 1275.34 947.537 1274.49 947.674 1273.42C948.006 1271 948.474 1267.6 949.064 1263.24C950.316 1254.17 952.114 1241.11 954.377 1224.72C959.027 1191.4 965.575 1144.53 973.219 1089.81L973.372 1088.71L974.491 1089.03C1003.82 1097.68 1035.91 1107.15 1069.37 1117.01C1089.86 1123.09 1109.84 1129 1129 1134.67L1130.85 1135.21L1129.35 1136.37C1077.22 1176.65 1031.62 1211.88 998.941 1237.13C982.805 1249.55 969.87 1259.51 960.861 1266.44C956.506 1269.78 953.108 1272.39 950.7 1274.24C949.622 1275.06 948.761 1275.72 948.103 1276.22C947.521 1276.65 947.234 1276.86 947.25 1276.84Z" fill="#1A2E35"/>
<g opacity="0.300003">
<g opacity="0.300003">
<path opacity="0.300003" d="M785.258 -4.36145e-05L774.088 62.2939H787.997L799.248 -4.36145e-05H781.533" fill="black"/>
</g>
</g>
<path d="M192.066 657.049C212.621 658.562 230.364 643.409 231.159 623.675C231.919 604.727 232.582 585.573 232.582 585.573C232.582 585.573 262.557 582.884 264.735 554.467C266.908 526.053 265.914 460.451 265.914 460.451C232.448 444.3 192.474 446.761 161.439 466.886L163.286 566.891V620.696C163.484 638.743 173.28 655.668 192.066 657.049Z" fill="#FFBF9D"/>
<path d="M235.163 519.777C230.044 513.702 221.722 511.284 214.891 515.54C208.055 519.792 205.426 529.242 209.146 536.187C211.768 541.09 217.743 545.532 223.702 546.728C229.301 547.854 233.272 553.035 232.622 558.479C231.765 565.61 227.794 572.362 222.203 578.267C213.509 587.449 200.719 592.395 187.864 593.849C175.232 595.281 160.757 592.758 153.404 582.814C148.055 575.574 147.668 566.113 147.478 557.248C147.025 536.299 146.573 515.346 146.116 494.393C145.955 486.844 145.801 479.194 147.615 471.842C149.425 464.491 153.445 457.348 160.034 453.192C167.249 448.645 176.391 448.258 184.608 445.712C194.886 442.528 203.608 436 213.222 431.291C222.837 426.582 234.622 423.765 244.273 428.404C251.201 431.736 255.847 438.356 262.582 442.028C272.176 447.252 285.233 446.064 289.887 459.572C291.495 464.239 291.378 469.37 289.729 474.025C283.225 492.405 259.455 499.818 242.334 491.874C241.994 494.986 245.198 501.916 241.776 511.752C240.681 514.894 240.294 519.688 235.163 519.777Z" fill="#1A2E35"/>
<path d="M153.299 461.282C157.508 452.096 161.77 442.72 162.829 432.741C163.891 422.758 161.245 411.888 153.48 405.152C148.229 400.597 141.009 398.326 133.923 398.527C120.366 398.906 107.81 408.65 104.113 421.152C100.413 433.654 105.519 447.975 116.099 456.104C126.684 464.234 142.043 465.971 154.539 460.906" fill="#1A2E35"/>
<path d="M159.121 450.92C159.682 450.908 159.205 455.977 154.745 460.102C150.338 464.269 145.034 464.61 145.062 464.072C144.92 463.495 149.409 462.362 153.279 458.659C157.23 455.041 158.527 450.769 159.121 450.92Z" fill="#FF9577"/>
<path d="M149.368 457.863C149.481 458.026 146.746 460.572 141.309 463.505C138.586 464.894 134.978 466.33 130.692 466.388C126.551 466.473 121.376 465.13 118.314 461.067C115.284 457.043 115.171 452.098 116.116 448.217C117.106 444.224 119.235 441.167 121.105 438.81C125.016 434.175 127.965 431.892 128.126 432.031C128.401 432.256 125.791 434.945 122.309 439.646C120.653 442.018 118.786 445.017 118.011 448.619C117.235 452.172 117.473 456.544 120.006 459.876C122.519 463.234 126.919 464.503 130.688 464.531C134.538 464.577 137.935 463.412 140.65 462.228C146.051 459.729 149.166 457.562 149.368 457.863Z" fill="#1A2E35"/>
<path d="M98.937 489.959C99.0824 489.917 99.5591 491.058 100.383 493.105C101.236 495.125 102.363 498.167 104.75 501.204C107.065 504.125 111.343 507.256 116.369 506.323C121.35 505.414 125.754 501.018 127.551 495.539C129.478 490.014 129.616 484.233 130.585 479.032C131.478 473.832 133.296 469.084 136.249 466.012C139.134 462.931 142.539 461.577 144.89 461.295C147.274 460.981 148.551 461.519 148.518 461.593C148.502 461.786 147.209 461.538 145.044 462.069C142.903 462.556 139.893 463.996 137.38 466.94C134.839 469.838 133.264 474.273 132.5 479.33C131.648 484.384 131.599 490.238 129.543 496.189C127.592 502.121 122.639 507.186 116.712 508.15C113.771 508.657 110.863 507.917 108.669 506.656C106.447 505.395 104.787 503.719 103.555 502.051C101.135 498.65 100.234 495.47 99.6036 493.349C99.0138 491.205 98.8037 489.998 98.937 489.959Z" fill="#1A2E35"/>
<path d="M84.3612 728.675C84.3612 728.675 69.2399 834.774 84.3612 848.225C99.4824 861.675 114.038 857.209 114.038 857.209L142.83 834.148L148.498 728.675H84.3612Z" fill="#FFBF9D"/>
<path d="M397.27 430.827L416.491 411.054L448.527 435.602L521.847 367.415L539.412 387.245L447.101 474.466L397.27 430.827Z" fill="#FF9577"/>
<path d="M487.59 436.21L459.715 453.344C458.459 442.792 450.044 432.333 450.476 437.634C450.908 442.935 450.528 470.435 450.528 470.435L400.818 570.622C394.064 586.495 380.377 596.474 370.148 598.827L323.746 612.045L341.885 670.802L406.377 650.321C423.114 645.004 436.223 632.409 441.722 616.367L486.18 486.648C486.18 486.648 491.46 471.902 493.363 461.09C495.266 450.279 487.59 436.21 487.59 436.21Z" fill="#FFBF9D"/>
<path d="M259.199 1531.93L258.504 1502.22L200.395 1503.11L200.932 1546.59L204.539 1546.75C220.586 1547.36 286.181 1548.76 296.85 1545.48C308.748 1541.83 259.199 1531.93 259.199 1531.93Z" fill="#FF9577"/>
<g opacity="0.5">
<g opacity="0.5">
<path opacity="0.5" d="M221.994 1545.83C221.089 1541.19 218.318 1536.91 214.383 1534.08C210.448 1531.24 205.637 1529.79 200.732 1530.24L200.979 1545.79L221.994 1545.83Z" fill="white"/>
</g>
</g>
<g opacity="0.399994">
<g opacity="0.399994">
<path opacity="0.399994" d="M283.424 1537.59C283.424 1537.59 300.807 1542.11 298.694 1544.87C296.582 1547.63 230.235 1548.61 200.934 1546.59L201.006 1545.34L278.402 1544.84C278.402 1544.84 280.042 1537.78 283.424 1537.59" fill="white"/>
</g>
</g>
<path d="M200.094 1545.32C200.094 1545.35 200.437 1545.38 201.096 1545.41C201.956 1545.45 202.897 1545.49 203.964 1545.53C206.836 1545.61 210.367 1545.7 214.532 1545.81C223.456 1545.99 235.79 1546.08 249.412 1545.89C263.039 1545.7 275.365 1545.26 284.281 1544.84C288.442 1544.61 291.968 1544.42 294.833 1544.26C295.899 1544.18 296.84 1544.12 297.701 1544.06C298.355 1544 298.699 1543.96 298.699 1543.94C298.695 1543.92 298.351 1543.91 297.693 1543.92C296.828 1543.95 295.887 1543.97 294.821 1544C291.952 1544.1 288.421 1544.22 284.256 1544.36C275.34 1544.66 263.019 1545.02 249.404 1545.21C235.79 1545.4 223.464 1545.39 214.54 1545.34C210.371 1545.31 206.84 1545.29 203.972 1545.27C202.905 1545.27 201.96 1545.27 201.096 1545.28C200.437 1545.28 200.094 1545.3 200.094 1545.32Z" fill="#1A2E35"/>
<path d="M278.399 1545.7C278.613 1545.72 278.738 1543.31 280.294 1540.84C281.804 1538.36 283.954 1537.09 283.832 1536.91C283.788 1536.75 281.316 1537.84 279.688 1540.5C278.031 1543.14 278.225 1545.74 278.399 1545.7Z" fill="#1A2E35"/>
<path d="M261.122 1537.62C261.288 1537.72 262.092 1536.75 262.92 1535.46C263.744 1534.17 264.281 1533.04 264.115 1532.94C263.95 1532.85 263.146 1533.82 262.318 1535.11C261.49 1536.4 260.956 1537.52 261.122 1537.62Z" fill="#1A2E35"/>
<path d="M256.378 1535.31C256.511 1535.45 257.416 1534.85 258.406 1533.97C259.391 1533.09 260.082 1532.27 259.953 1532.14C259.82 1532 258.915 1532.6 257.925 1533.47C256.939 1534.35 256.244 1535.17 256.378 1535.31Z" fill="#1A2E35"/>
<path d="M253.316 1530.1C253.316 1530.29 254.678 1530.43 256.354 1530.42C258.031 1530.41 259.388 1530.26 259.388 1530.07C259.388 1529.88 258.031 1529.74 256.35 1529.75C254.674 1529.75 253.316 1529.91 253.316 1530.1Z" fill="#1A2E35"/>
<path d="M252.236 1526.41C252.172 1526.58 253.662 1527.19 255.634 1527.3C257.605 1527.42 259.161 1526.98 259.12 1526.81C259.084 1526.61 257.549 1526.74 255.678 1526.63C253.804 1526.53 252.297 1526.22 252.236 1526.41Z" fill="#1A2E35"/>
<path d="M263.014 1532.74C263.014 1532.81 264.448 1532.96 266.746 1532.66C267.894 1532.51 269.251 1532.23 270.71 1531.76C271.433 1531.51 272.192 1531.3 272.972 1530.83C273.335 1530.59 273.739 1530.25 273.877 1529.71C274.022 1529.17 273.711 1528.57 273.287 1528.29C269.692 1526.56 266.149 1528.54 264.852 1530.33C264.137 1531.24 263.818 1532.13 263.672 1532.73C263.531 1533.34 263.547 1533.7 263.591 1533.7C263.721 1533.75 263.822 1532.29 265.244 1530.62C265.943 1529.81 267.013 1529.01 268.399 1528.59C269.712 1528.2 271.586 1528.07 272.855 1528.82C273.453 1529.23 273.234 1529.9 272.58 1530.28C271.974 1530.67 271.178 1530.92 270.495 1531.18C269.09 1531.66 267.781 1531.99 266.666 1532.19C264.436 1532.61 263.014 1532.63 263.014 1532.74Z" fill="#1A2E35"/>
<path d="M263.983 1532.9C264.036 1532.94 264.573 1532.02 264.375 1530.41C264.27 1529.62 263.955 1528.69 263.313 1527.81C262.638 1527.03 261.777 1525.95 260.174 1526.04C259.309 1526.15 258.905 1527.11 259.051 1527.7C259.127 1528.33 259.43 1528.86 259.709 1529.29C260.279 1530.18 260.921 1530.89 261.511 1531.43C262.699 1532.51 263.628 1532.91 263.668 1532.84C263.733 1532.76 262.913 1532.21 261.866 1531.1C261.345 1530.54 260.78 1529.83 260.271 1528.97C259.745 1528.23 259.37 1526.87 260.307 1526.7C261.24 1526.6 262.21 1527.48 262.791 1528.18C263.389 1528.95 263.729 1529.77 263.882 1530.49C264.193 1531.94 263.858 1532.87 263.983 1532.9Z" fill="#1A2E35"/>
<path d="M201.035 1530.08C201.047 1530.2 202.696 1529.9 205.325 1530.16C207.935 1530.4 211.566 1531.37 214.754 1533.72C217.937 1536.08 219.831 1539.2 220.732 1541.56C221.657 1543.93 221.77 1545.53 221.9 1545.51C221.944 1545.51 221.956 1545.11 221.884 1544.39C221.811 1543.67 221.617 1542.63 221.201 1541.4C220.401 1538.94 218.502 1535.64 215.182 1533.19C211.861 1530.73 208.052 1529.81 205.37 1529.68C204.016 1529.61 202.918 1529.69 202.174 1529.81C201.427 1529.92 201.027 1530.04 201.035 1530.08Z" fill="#1A2E35"/>
<path d="M206.686 1506.83C206.492 1506.83 206.346 1511.95 206.363 1518.27C206.383 1524.58 206.556 1529.7 206.75 1529.7C206.944 1529.7 207.086 1524.58 207.07 1518.26C207.049 1511.95 206.88 1506.83 206.686 1506.83Z" fill="#1A2E35"/>
<path d="M229.217 1540.29C229.197 1540.47 232.99 1541.01 237.713 1540.98C242.435 1540.95 246.225 1540.37 246.2 1540.2C246.176 1540 242.387 1540.28 237.709 1540.3C233.031 1540.34 229.237 1540.1 229.217 1540.29Z" fill="#1A2E35"/>
<path d="M217.831 1540.44C217.689 1540.58 218.154 1541.21 218.554 1542.04C218.966 1542.86 219.176 1543.6 219.378 1543.59C219.568 1543.59 219.665 1542.7 219.192 1541.75C218.723 1540.8 217.952 1540.31 217.831 1540.44Z" fill="#1A2E35"/>
<path d="M213.455 1535.39C213.318 1535.53 213.706 1536.1 214.311 1536.67C214.925 1537.25 215.53 1537.61 215.664 1537.47C215.801 1537.34 215.417 1536.77 214.808 1536.19C214.198 1535.62 213.593 1535.26 213.455 1535.39Z" fill="#1A2E35"/>
<path d="M207.276 1533.15C207.321 1533.34 208.093 1533.32 208.95 1533.59C209.814 1533.85 210.433 1534.29 210.582 1534.17C210.736 1534.06 210.235 1533.28 209.168 1532.95C208.101 1532.62 207.216 1532.97 207.276 1533.15Z" fill="#1A2E35"/>
<path d="M202.888 1532.11C202.819 1532.28 203.159 1532.56 203.644 1532.74C204.129 1532.91 204.578 1532.91 204.646 1532.73C204.711 1532.55 204.375 1532.28 203.89 1532.11C203.401 1531.93 202.956 1531.93 202.888 1532.11Z" fill="#1A2E35"/>
<path d="M54.1464 1522.43L73.8488 1499.47L29.1921 1463.85L0 1497.14L2.61783 1499.52C14.3698 1510.01 63.1472 1552.04 73.461 1556.22C84.9706 1560.88 54.1464 1522.43 54.1464 1522.43Z" fill="#FF9577"/>
<g opacity="0.5">
<g opacity="0.5">
<path opacity="0.5" d="M16.4832 1509.72C18.9516 1505.64 19.7676 1500.66 18.7132 1496.06C17.6628 1491.45 15.0046 1487.34 10.9809 1484.62L0.574219 1496.57L16.4832 1509.72Z" fill="white"/>
</g>
</g>
<g opacity="0.399994">
<g opacity="0.399994">
<path opacity="0.399994" d="M68.6576 1541.85C68.6576 1541.85 78.7613 1556.13 75.2789 1556.91C71.7925 1557.68 20.8376 1516.98 0 1497.14L0.904934 1496.24L59.9193 1544.2C59.9193 1544.2 65.967 1539.88 68.6576 1541.85" fill="white"/>
</g>
</g>
<path d="M0.225368 1495.66C0.209208 1495.68 0.4516 1495.91 0.924264 1496.35C1.55044 1496.92 2.24126 1497.54 3.01691 1498.24C5.14188 1500.09 7.75164 1502.36 10.8341 1505.05C17.4796 1510.76 26.7754 1518.53 37.2265 1526.89C47.6857 1535.26 57.3248 1542.63 64.3744 1547.88C67.683 1550.31 70.4867 1552.36 72.7692 1554.04C73.6257 1554.64 74.3852 1555.18 75.08 1555.67C75.6133 1556.04 75.9001 1556.22 75.9123 1556.2C75.9284 1556.19 75.6699 1555.97 75.1649 1555.56C74.4943 1555.04 73.763 1554.47 72.9349 1553.83C70.6927 1552.11 67.9376 1550 64.6855 1547.51C57.7167 1542.17 48.1301 1534.74 37.679 1526.37C27.2319 1518.02 17.8957 1510.31 11.1653 1504.69C8.02635 1502.07 5.36408 1499.85 3.19871 1498.04C2.39074 1497.38 1.67164 1496.79 1.01718 1496.25C0.512198 1495.84 0.241527 1495.64 0.225368 1495.66Z" fill="#1A2E35"/>
<path d="M59.3313 1544.86C59.4767 1545.01 61.222 1543.26 64.0741 1542.36C66.9141 1541.42 69.4067 1541.8 69.431 1541.6C69.5118 1541.44 66.898 1540.72 63.8479 1541.72C60.7937 1542.69 59.1697 1544.78 59.3313 1544.86Z" fill="#1A2E35"/>
<path d="M51.7308 1527.94C51.7913 1528.12 53.0596 1527.89 54.5662 1527.42C56.0727 1526.96 57.244 1526.44 57.1875 1526.26C57.1269 1526.09 55.8546 1526.32 54.3521 1526.78C52.8455 1527.24 51.6702 1527.77 51.7308 1527.94Z" fill="#1A2E35"/>
<path d="M49.711 1523.23C49.7191 1523.41 50.8139 1523.52 52.1591 1523.48C53.5044 1523.43 54.5912 1523.24 54.5831 1523.05C54.575 1522.87 53.4802 1522.76 52.1349 1522.8C50.7896 1522.85 49.7029 1523.04 49.711 1523.23Z" fill="#1A2E35"/>
<path d="M50.9397 1517.37C50.8104 1517.51 51.7436 1518.47 53.0202 1519.51C54.2968 1520.55 55.432 1521.28 55.5613 1521.14C55.6825 1521 54.7533 1520.04 53.4767 1519C52.2001 1517.95 51.0649 1517.22 50.9397 1517.37Z" fill="#1A2E35"/>
<path d="M52.632 1513.9C52.4705 1513.98 53.1774 1515.38 54.5995 1516.7C56.0134 1518.01 57.496 1518.65 57.5809 1518.49C57.6859 1518.33 56.4335 1517.47 55.0883 1516.21C53.739 1514.96 52.8017 1513.79 52.632 1513.9Z" fill="#1A2E35"/>
<path d="M56.494 1525.43C56.4374 1525.48 57.4273 1526.49 59.3748 1527.7C60.3485 1528.3 61.5687 1528.94 62.9909 1529.49C63.7182 1529.75 64.4252 1530.07 65.3384 1530.2C65.7828 1530.24 66.3202 1530.24 66.7929 1529.91C67.2697 1529.59 67.4434 1528.95 67.3141 1528.47C65.7545 1524.91 61.7263 1524.2 59.5243 1524.74C58.3607 1524.99 57.5203 1525.46 56.995 1525.83C56.4698 1526.21 56.2475 1526.48 56.2758 1526.51C56.3445 1526.63 57.4112 1525.59 59.6212 1525.21C60.7081 1525.03 62.0616 1525.1 63.399 1525.65C64.6596 1526.16 66.1747 1527.24 66.6232 1528.6C66.7969 1529.28 66.1747 1529.66 65.4151 1529.54C64.6879 1529.46 63.9242 1529.14 63.2293 1528.91C61.8313 1528.4 60.6192 1527.83 59.6334 1527.29C57.6617 1526.21 56.5667 1525.34 56.494 1525.43Z" fill="#1A2E35"/>
<path d="M57.1171 1526.15C57.1333 1526.22 58.1675 1525.85 59.1088 1524.51C59.5653 1523.85 59.9612 1522.94 60.0703 1521.88C60.0986 1520.86 60.1753 1519.5 58.9028 1518.57C58.1675 1518.12 57.2141 1518.59 56.9151 1519.13C56.5475 1519.65 56.4142 1520.25 56.3374 1520.75C56.1637 1521.77 56.1637 1522.71 56.2405 1523.5C56.4101 1525.05 56.8384 1525.94 56.9151 1525.91C57.0242 1525.89 56.7737 1524.97 56.7414 1523.46C56.7253 1522.71 56.7778 1521.82 56.9717 1520.86C57.0848 1519.96 57.7231 1518.71 58.5513 1519.15C59.3269 1519.66 59.4643 1520.93 59.4239 1521.83C59.3593 1522.78 59.0522 1523.62 58.6806 1524.27C57.9291 1525.56 57.0404 1526.06 57.1171 1526.15Z" fill="#1A2E35"/>
<path d="M11.3171 1484.69C11.2443 1484.79 12.6987 1485.59 14.5166 1487.43C16.3305 1489.24 18.4232 1492.25 19.2352 1496.02C20.0472 1499.79 19.3564 1503.35 18.4353 1505.7C17.5223 1508.07 16.5164 1509.36 16.6255 1509.43C16.6618 1509.45 16.9446 1509.15 17.3769 1508.56C17.8132 1507.97 18.3707 1507.06 18.8999 1505.87C19.9664 1503.5 20.7704 1499.82 19.926 1495.88C19.0817 1491.95 16.8234 1488.87 14.8721 1487.1C13.8945 1486.2 13.0057 1485.57 12.3634 1485.2C11.7211 1484.82 11.3373 1484.65 11.3171 1484.69Z" fill="#1A2E35"/>
<path d="M31.4322 1470.59C31.2828 1470.47 27.6873 1474.27 23.401 1479.06C19.1147 1483.87 15.7576 1487.85 15.903 1487.97C16.0525 1488.09 19.6479 1484.3 23.9383 1479.5C28.2246 1474.7 31.5817 1470.71 31.4322 1470.59Z" fill="#1A2E35"/>
<path d="M25.7258 1510.04C25.5924 1510.16 28.1014 1512.94 31.7013 1515.86C35.2971 1518.8 38.5657 1520.72 38.6667 1520.58C38.7838 1520.42 35.7213 1518.26 32.1578 1515.35C28.5903 1512.46 25.8753 1509.91 25.7258 1510.04Z" fill="#1A2E35"/>
<path d="M16.9916 1503.04C16.7896 1503.06 16.7129 1503.82 16.4543 1504.7C16.2079 1505.58 15.8645 1506.28 16.0261 1506.39C16.1675 1506.51 16.8421 1505.9 17.133 1504.88C17.428 1503.87 17.1775 1503.01 16.9916 1503.04Z" fill="#1A2E35"/>
<path d="M17.1154 1496.48C16.9211 1496.49 16.82 1497.17 16.8928 1497.99C16.9616 1498.8 17.1802 1499.45 17.3745 1499.44C17.5688 1499.42 17.6659 1498.75 17.5971 1497.93C17.5242 1497.11 17.3097 1496.46 17.1154 1496.48Z" fill="#1A2E35"/>
<path d="M13.9628 1490.91C13.8699 1491.09 14.4677 1491.55 14.9283 1492.3C15.409 1493.03 15.5706 1493.76 15.7726 1493.75C15.9625 1493.77 16.116 1492.86 15.5302 1491.95C14.9485 1491.03 14.0314 1490.74 13.9628 1490.91Z" fill="#1A2E35"/>
<path d="M11.3407 1487.39C11.171 1487.48 11.2356 1487.9 11.4861 1488.34C11.7366 1488.77 12.08 1489.05 12.2497 1488.95C12.4194 1488.87 12.3547 1488.44 12.1043 1488.01C11.8538 1487.58 11.5104 1487.3 11.3407 1487.39Z" fill="#1A2E35"/>
<path d="M175.075 900.685C175.075 900.685 155.729 979.092 161.198 994.6C166.668 1010.11 202.118 1019.08 202.118 1019.08L200.922 1233.78L4.89258 1465.87L77.2786 1522.6C77.2786 1522.6 289.496 1290.07 308.201 1247.97C326.909 1205.86 296.279 897.214 296.279 897.214L175.075 900.685Z" fill="#1A2E35"/>
<path d="M275.198 868.717L284.793 1520.82L185.06 1521.3L135.018 990.202C124.438 980.528 109.559 963.963 111.607 927.022L114.035 884.11L275.198 868.717Z" fill="#1A2E35"/>
<path d="M170.047 1270.08C170.011 1270.06 170.209 1269.73 170.625 1269.12C171.138 1268.39 171.76 1267.51 172.516 1266.44C174.35 1263.96 176.83 1260.6 179.929 1256.4C186.559 1247.61 195.826 1235.32 206.989 1220.52L206.819 1221.01C204.646 1198.38 202.016 1170.93 199.175 1141.34C195.556 1102.55 192.623 1067.41 190.898 1041.95C190.017 1029.22 189.439 1018.91 189.12 1011.78C188.995 1008.37 188.902 1005.64 188.825 1003.56C188.781 1001.69 188.793 1000.7 188.865 1000.69C188.938 1000.69 189.067 1001.67 189.249 1003.54C189.423 1005.61 189.653 1008.33 189.936 1011.73C190.53 1019.07 191.362 1029.29 192.38 1041.84C194.485 1067.27 197.652 1102.38 201.272 1141.16C203.987 1170.86 206.758 1198.26 208.548 1221.01L208.568 1221.26L208.378 1221.5C196.978 1236.13 187.504 1248.27 180.729 1256.96C177.469 1261.05 174.863 1264.32 172.936 1266.74C172.095 1267.75 171.409 1268.58 170.839 1269.27C170.35 1269.83 170.084 1270.11 170.047 1270.08Z" fill="#375A64"/>
<path d="M200.66 1000.69C200.571 1001.23 188.69 999.842 174.256 996.928C159.817 994.034 148.356 990.73 148.497 990.199C148.647 989.65 160.302 992.072 174.688 994.959C189.066 997.861 200.757 1000.13 200.66 1000.69Z" fill="#375A64"/>
<path d="M268.965 1223.33C268.699 1223.95 257.512 1217.68 242.032 1216.61C226.567 1215.33 214.492 1219.83 214.33 1219.18C214.241 1218.97 217.097 1217.56 222.103 1216.27C227.088 1214.97 234.283 1214.01 242.201 1214.6C250.111 1215.21 257.06 1217.25 261.77 1219.28C266.501 1221.31 269.086 1223.14 268.965 1223.33Z" fill="#375A64"/>
<path d="M304.139 1253.55C304.604 1253.89 276.551 1289.95 241.493 1334.09C206.423 1378.25 177.626 1413.75 177.162 1413.42C176.701 1413.08 204.746 1377.02 239.816 1332.87C274.874 1288.73 303.678 1253.21 304.139 1253.55Z" fill="#375A64"/>
<path d="M290.631 917.157C290.813 917.219 289.443 920.554 285.015 924.254C280.733 927.906 272.855 931.617 263.753 930.739C254.659 929.783 247.763 924.579 244.369 920.144C240.847 915.64 240.233 912.108 240.426 912.084C240.782 911.941 241.893 915.215 245.525 919.247C249.04 923.24 255.609 927.86 263.975 928.73C272.346 929.547 279.771 926.343 284.082 923.143C288.514 919.928 290.316 916.944 290.631 917.157Z" fill="#375A64"/>
<path d="M154.369 581.64C138.128 566.87 128.218 545.902 127.35 524.473C126.481 503.04 134.658 481.394 149.65 465.464" fill="#1A2E35"/>
<path d="M98.3631 642.467C98.3631 642.467 76.6973 665.908 72.209 755.57C72.209 755.57 133.91 766.784 135.037 763.56C136.164 760.333 98.3631 642.467 98.3631 642.467Z" fill="#FF9577"/>
<g opacity="0.300003">
<g opacity="0.300003">
<path opacity="0.300003" d="M98.3631 642.467C98.3631 642.467 76.6973 665.908 72.209 755.57C72.209 755.57 133.91 766.784 135.037 763.56C136.164 760.333 98.3631 642.467 98.3631 642.467Z" fill="black"/>
</g>
</g>
<path d="M108.354 903.59H297.779L294.717 875.254C294.717 875.254 273.071 767.425 273.233 766.004L276.642 759.136C285.583 741.143 285.886 720.306 277.471 702.081L370.222 671.703L347.514 598.396C305.427 605.206 241.807 612.794 241.807 612.794L232.337 613.557C232.337 613.557 166.665 616.838 165.259 617C137.788 620.181 105.825 622.201 94.1375 650.363C87.8918 665.422 93.8264 688.028 104.027 711.329L128.307 782.906C138.006 822.247 122.53 820.374 114.038 859.97C112.753 865.956 108.229 898.099 108.354 903.59Z" fill="#FF9577"/>
<g opacity="0.300003">
<g opacity="0.300003">
<path opacity="0.300003" d="M108.354 903.59H297.779L294.717 875.254C294.717 875.254 273.071 767.425 273.233 766.004L276.642 759.136C285.583 741.143 285.886 720.306 277.471 702.081L370.222 671.703L347.514 598.396C305.427 605.206 241.807 612.794 241.807 612.794L232.337 613.557C232.337 613.557 166.665 616.838 165.259 617C137.788 620.181 105.825 622.201 94.1375 650.363C87.8918 665.422 93.8264 688.028 104.027 711.329L128.307 782.906C138.006 822.247 122.53 820.374 114.038 859.97C112.753 865.956 108.229 898.099 108.354 903.59Z" fill="black"/>
</g>
</g>
<path d="M369.356 672.891C369.401 673.022 367.93 673.607 365.24 674.547C362.549 675.487 358.635 676.787 353.783 678.354C344.083 681.492 330.618 685.648 315.751 690.202C300.885 694.757 287.59 699.284 278.152 703.018C273.414 704.848 269.652 706.481 267.018 707.553C264.413 708.679 262.938 709.248 262.874 709.12C262.805 709 264.15 708.195 266.659 706.853C269.188 705.556 272.876 703.718 277.563 701.71C286.903 697.62 300.21 692.849 315.105 688.287C329.992 683.725 343.517 679.786 353.334 676.996C358.243 675.603 362.226 674.512 364.993 673.8C367.761 673.088 369.312 672.759 369.356 672.891Z" fill="#1A2E35"/>
<path d="M358.346 633.862C358.346 634.419 302.341 634.872 233.272 634.872C164.178 634.872 108.189 634.419 108.189 633.862C108.189 633.305 164.178 632.856 233.272 632.856C302.341 632.856 358.346 633.305 358.346 633.862Z" fill="#FAFAFA"/>
<path d="M364.117 669.495C364.117 670.052 301.794 670.505 224.932 670.505C148.045 670.505 85.7383 670.052 85.7383 669.495C85.7383 668.938 148.045 668.489 224.932 668.489C301.794 668.489 364.117 668.938 364.117 669.495Z" fill="#FAFAFA"/>
<path d="M101.238 710.046C101.238 710.603 96.0428 711.052 89.6396 711.052C83.2324 711.052 78.0371 710.603 78.0371 710.046C78.0371 709.489 83.2324 709.04 89.6396 709.04C96.0428 709.04 101.238 709.489 101.238 710.046Z" fill="#FAFAFA"/>
<path d="M283.301 711.272C283.301 711.829 242.542 712.278 192.274 712.278C141.989 712.278 101.238 711.829 101.238 711.272C101.238 710.715 141.989 710.266 192.274 710.266C242.542 710.266 283.301 710.715 283.301 711.272Z" fill="#FAFAFA"/>
<path d="M279.285 753.05C279.285 753.607 242.704 754.056 197.587 754.056C152.458 754.056 115.885 753.607 115.885 753.05C115.885 752.493 152.458 752.044 197.587 752.044C242.704 752.044 279.285 752.493 279.285 753.05Z" fill="#FAFAFA"/>
<path d="M278.102 791.755C278.102 792.316 244.943 792.765 204.051 792.765C163.147 792.765 129.996 792.316 129.996 791.755C129.996 791.198 163.147 790.749 204.051 790.749C244.943 790.749 278.102 791.198 278.102 791.755Z" fill="#FAFAFA"/>
<path d="M284.582 823.088C284.582 823.649 249.112 824.098 205.368 824.098C161.612 824.098 126.146 823.649 126.146 823.088C126.146 822.531 161.612 822.082 205.368 822.082C249.112 822.082 284.582 822.531 284.582 823.088Z" fill="#FAFAFA"/>
<path d="M294.844 863.022C294.844 863.583 254.49 864.032 204.727 864.032C154.944 864.032 114.602 863.583 114.602 863.022C114.602 862.465 154.944 862.016 204.727 862.016C254.49 862.016 294.844 862.465 294.844 863.022Z" fill="#FAFAFA"/>
<path d="M127.175 779.555C127.034 779.597 126.448 778.324 125.499 775.991C124.392 773.228 123.063 769.931 121.52 766.089C118.183 757.719 113.492 746.185 108.612 733.323C103.708 720.464 99.6841 708.663 97.139 700.018C95.8705 695.696 94.9211 692.179 94.3757 689.718C93.8182 687.265 93.5758 685.891 93.7172 685.856C94.0243 685.783 95.6564 691.099 98.561 699.604C101.462 708.113 105.691 719.791 110.592 732.634C115.464 745.476 119.936 757.096 122.917 765.605C124.416 769.858 125.555 773.321 126.275 775.739C126.986 778.158 127.313 779.512 127.175 779.555Z" fill="#1A2E35"/>
</svg>
