<svg width="1438" height="1395" viewBox="0 0 1438 1395" fill="none" xmlns="http://www.w3.org/2000/svg">
<path d="M1437.21 186.347H864.023V745.451H1437.21V186.347Z" fill="#FFCEC0"/>
<path d="M1127.56 152.616C1146.68 130.964 1179.42 125.759 1211.08 131.931C1242.75 138.103 1280.68 153.517 1284.13 204.63C1286.97 246.134 1273.76 286.604 1273.76 332.912C1273.76 379.221 1328.07 492.022 1241.16 547.072C1163.07 596.516 1004.83 551.109 999.958 449.317C996.121 368.644 1095.27 294.044 1105.71 262.115C1116.15 230.186 1106.61 176.304 1127.56 152.616Z" fill="#263238"/>
<path d="M1113.28 198.158C1112.69 221.246 1109.24 244.6 1099.45 266.386C1096.92 271.904 1093.6 277.057 1089.6 281.7C1085.76 286.371 1081.68 290.775 1077.61 295.045C1069.38 303.687 1061.25 312.261 1053.41 321.169C1037.82 338.621 1024.94 358.165 1015.17 379.188C1005.8 400.309 1000.65 422.949 999.993 445.915C999.019 434.324 999.378 422.664 1001.06 411.15C1002.93 399.576 1006.03 388.218 1010.29 377.253C1019.3 355.283 1032.06 334.927 1048.05 317.032C1055.89 307.99 1064.23 299.349 1072.52 290.808C1080.82 282.267 1089.22 274.127 1094.37 264.118C1099.65 253.884 1103.68 243.09 1106.37 231.955C1109.4 220.84 1111.71 209.552 1113.28 198.158V198.158Z" fill="#263238"/>
<path d="M1281.96 239.495C1281.37 263.05 1279.82 286.571 1280.47 309.959C1280.76 321.607 1281.77 333.227 1283.51 344.757C1285.31 356.1 1288.84 367.444 1291.78 378.921C1294.72 390.398 1297.34 402.041 1299.28 413.785C1301.15 425.584 1301.94 437.519 1301.63 449.451C1301.07 461.441 1298.74 473.292 1294.72 484.649C1290.08 495.812 1283.15 505.956 1274.35 514.476C1282.06 505.333 1287.92 494.876 1291.64 483.648C1294.86 472.483 1296.47 460.941 1296.41 449.351C1295.43 426.02 1291.65 402.878 1285.14 380.389C1282.37 368.945 1278.85 357.601 1277.15 345.557C1275.57 333.756 1274.94 321.854 1275.29 309.959C1276.02 286.361 1278.25 262.829 1281.96 239.495V239.495Z" fill="#263238"/>
<path d="M1156.22 437.572C1076.71 522.048 1011.82 562.618 947.86 562.618C887.049 562.618 757.13 420.123 747.589 401.339C739.361 385.125 846.013 296.411 862.4 307.455C890.057 325.938 978.766 432.934 988.17 433.435C997.573 433.935 1032.21 411.849 1115.63 374.148C1166.32 351.294 1211.53 379.019 1156.22 437.572Z" fill="#FFBEB4"/>
<path d="M759.967 415.387C748.282 403.176 699.225 342.222 689.511 322.337C679.796 302.452 656.253 243.266 671.292 234.558C686.33 225.85 694.627 242.632 694.627 242.632C694.627 242.632 688.785 216.141 704.757 208.701C720.729 201.261 732.759 227.785 732.759 227.785C732.759 227.785 728.818 200.16 745.274 193.821C761.73 187.482 769.267 216.175 769.267 216.175C769.267 216.175 764.427 191.052 780.26 191.352C799.309 191.719 802.801 238.995 815.212 260.181C818.012 264.985 879.48 353.598 879.48 353.598L759.967 415.387Z" fill="#FFBEB4"/>
<path d="M768.611 213.738C771.273 248.469 778.671 263.249 799.725 290.841C800.14 291.375 799.414 292.075 798.93 291.575C775.664 266.352 763.633 249.137 766.779 213.771C767.021 212.036 768.473 212.07 768.611 213.738Z" fill="#263238"/>
<path d="M732.657 225.048C738.672 260.914 746.485 276.995 766.502 307.456C766.778 307.889 766.052 308.39 765.741 307.989C743.581 279.664 731.965 262.215 730.824 225.615C730.755 223.947 732.38 223.38 732.657 225.048Z" fill="#263238"/>
<path d="M695.732 244.165C704.167 278.496 712.015 296.479 735.316 323.637C735.869 324.304 734.935 325.138 734.348 324.537C707.797 299.048 697.841 276.661 694.695 244.465C694.487 242.33 695.213 241.996 695.732 244.165Z" fill="#263238"/>
<path d="M906.892 362.072C906.892 362.072 906.097 318.399 901.361 299.282C896.625 280.165 851.993 215.24 836.747 223.781C817.284 234.791 835.468 277.162 847.119 296.846C847.119 296.846 802.176 322.336 808.295 355.499C814.414 388.663 906.892 362.072 906.892 362.072Z" fill="#FFBEB4"/>
<path d="M832.431 228.486C822.06 250.906 839.345 275.762 849.198 295.613C849.357 295.899 849.442 296.217 849.448 296.541C849.453 296.864 849.378 297.185 849.229 297.475C849.081 297.766 848.862 298.018 848.592 298.21C848.322 298.403 848.008 298.53 847.677 298.582C829.493 310.493 807.471 332.346 807.194 354.7C807.194 354.832 807.14 354.96 807.042 355.053C806.945 355.147 806.813 355.2 806.676 355.2C806.538 355.2 806.406 355.147 806.309 355.053C806.212 354.96 806.157 354.832 806.157 354.7C803.08 330.678 822.89 307.457 843.632 295.68C833.261 275.428 817.116 249.805 832.224 228.286L832.431 228.486Z" fill="#263238"/>
<path d="M1019.12 408.881L1083 523.918C1083 523.918 1169.64 442.745 1183.47 408.881C1197.3 375.018 1182.4 350.429 1120.75 368.545C1085.54 378.617 1051.48 392.132 1019.12 408.881V408.881Z" fill="#F89276"/>
<path d="M1097.76 499.931C1094.62 493.692 1091.85 487.253 1088.57 481.047C1085.28 474.842 1082 468.703 1078.58 462.631C1071.66 450.353 1064.75 438.042 1057.56 425.931C1053.48 419.259 1049.19 412.386 1044.73 405.913C1044.56 405.613 1043.97 405.913 1044.14 406.147C1055.86 431.47 1070.07 455.725 1084.25 479.813C1088.36 486.786 1093.03 493.425 1097.31 500.298C1097.45 500.465 1097.94 500.165 1097.76 499.931Z" fill="#263238"/>
<path d="M1183.46 408.882C1169.64 442.746 1083 523.919 1083 523.919L1039.96 446.549L1181.94 370.781C1190.1 378.989 1190 392.901 1183.46 408.882Z" fill="#263238"/>
<path d="M1033.67 602.556C1033.67 602.556 998.541 683.696 1010.95 745.418H1398.22C1385.63 577.634 1298.96 433.437 1247.76 386.762C1206.49 349.128 1163.03 352.497 1132.78 371.748C1125.66 376.319 1047.08 481.113 1038.57 497.695C1004.83 563.121 1033.67 602.556 1033.67 602.556Z" fill="#F89276"/>
<path d="M1135.48 366.81C1135.48 366.81 1111.28 433.97 1125.32 437.473C1160.23 446.148 1207.08 391.132 1209.88 385.527C1210.57 384.092 1213.68 346.491 1216 317.232C1217.48 298.415 1218.62 283.034 1218.62 283.034L1132.47 311.56L1135.24 363.106L1135.48 366.81Z" fill="#FFBEB4"/>
<path d="M1132.34 311.56L1135.1 363.106C1152.63 360.738 1191.18 351.563 1215.86 317.232C1217.35 298.415 1218.49 283.034 1218.49 283.034L1207.7 286.371L1132.34 311.56Z" fill="#263238"/>
<path d="M1068.17 239.395C1067.13 265.585 1069.83 286.771 1076.43 300.85C1082.09 312.876 1091.09 323.152 1102.44 330.538C1113.78 337.924 1127.03 342.129 1140.7 342.688C1151.07 343.055 1180.94 340.419 1202.55 324.538C1219.35 312.193 1229.48 289.94 1235.22 250.805C1248.35 161.324 1205.93 131.23 1164.14 127.627C1122.34 124.024 1071.63 149.113 1068.17 239.395Z" fill="#FFBEB4"/>
<path d="M1092.13 219.443C1094.3 219.142 1096.31 218.542 1098.42 218.075C1100.71 217.876 1102.88 216.976 1104.61 215.506C1105.04 214.934 1105.27 214.245 1105.27 213.537C1105.27 212.83 1105.04 212.14 1104.61 211.569C1103.53 210.603 1102.21 209.931 1100.78 209.62C1099.34 209.31 1097.85 209.372 1096.45 209.801C1093.47 210.258 1090.77 211.768 1088.88 214.038C1088.43 214.563 1088.16 215.208 1088.1 215.885C1088.05 216.562 1088.21 217.24 1088.56 217.827C1088.91 218.415 1089.44 218.885 1090.08 219.173C1090.72 219.462 1091.43 219.556 1092.13 219.443V219.443Z" fill="#263238"/>
<path d="M1153.21 221.678C1151.09 221.318 1148.99 220.85 1146.92 220.277C1144.63 220.093 1142.46 219.177 1140.77 217.675C1140.33 217.103 1140.1 216.414 1140.1 215.706C1140.1 214.999 1140.33 214.309 1140.77 213.738C1141.85 212.775 1143.18 212.109 1144.62 211.81C1146.06 211.511 1147.56 211.589 1148.96 212.036C1151.96 212.5 1154.68 214.036 1156.56 216.34C1157 216.874 1157.25 217.522 1157.29 218.199C1157.34 218.875 1157.16 219.548 1156.8 220.128C1156.44 220.708 1155.9 221.167 1155.26 221.444C1154.61 221.721 1153.9 221.802 1153.21 221.678V221.678Z" fill="#263238"/>
<path d="M1137.93 244.233C1137.93 243.999 1138.42 244.533 1138.42 244.8C1137.9 250.906 1138.42 258.145 1144.05 260.347C1144.05 260.347 1144.05 260.714 1144.05 260.681C1137 259.413 1136.45 249.938 1137.93 244.233Z" fill="#263238"/>
<path d="M1143.95 238.061C1154.32 237.794 1154.05 257.645 1144.5 257.912C1134.96 258.179 1135.48 238.294 1143.95 238.061Z" fill="#263238"/>
<path d="M1148 239.161C1149.76 240.295 1151.45 242.297 1153.67 242.497C1155.88 242.698 1158.09 240.696 1159.75 238.694C1159.92 238.494 1160.1 238.694 1160.1 238.927C1160.1 242.731 1158.57 246.634 1154.32 247.168C1150.07 247.702 1147.75 244.232 1146.79 240.496C1146.61 239.695 1147.27 238.694 1148 239.161Z" fill="#263238"/>
<path d="M1103.88 241.631C1103.88 241.397 1103.4 241.931 1103.4 242.164C1103.4 248.337 1102.74 255.51 1096.97 257.445C1096.8 257.445 1096.8 257.812 1096.97 257.779C1104.06 256.844 1105.09 247.436 1103.88 241.631Z" fill="#263238"/>
<path d="M1098.21 235.193C1087.84 234.425 1087.12 254.276 1096.62 254.977C1106.13 255.678 1106.79 235.86 1098.21 235.193Z" fill="#263238"/>
<path d="M1093.99 236.359C1092.33 237.359 1090.53 239.194 1088.7 239.261C1086.87 239.328 1084.86 237.093 1083.52 234.991C1083.52 234.757 1083.2 234.991 1083.17 235.191C1082.93 238.994 1084.03 242.965 1087.8 243.865C1091.57 244.766 1093.89 241.497 1094.96 237.76C1095.03 237.026 1094.51 235.958 1093.99 236.359Z" fill="#263238"/>
<path d="M1137.31 292.009C1135.83 293.511 1134.38 295.546 1132.09 295.813C1129.72 295.829 1127.37 295.387 1125.18 294.511C1125.14 294.476 1125.09 294.458 1125.03 294.461C1124.97 294.464 1124.92 294.488 1124.89 294.528C1124.85 294.568 1124.83 294.62 1124.83 294.673C1124.84 294.727 1124.86 294.776 1124.9 294.812C1125.86 295.989 1127.13 296.896 1128.58 297.436C1130.03 297.976 1131.6 298.13 1133.13 297.881C1134.41 297.496 1135.54 296.761 1136.4 295.766C1137.25 294.771 1137.78 293.559 1137.94 292.276C1137.96 292.2 1137.95 292.12 1137.91 292.049C1137.88 291.979 1137.82 291.922 1137.74 291.891C1137.67 291.859 1137.58 291.853 1137.51 291.875C1137.43 291.897 1137.36 291.944 1137.31 292.009V292.009Z" fill="#263238"/>
<path d="M1111.28 269.222C1111.28 269.222 1109.76 278.396 1109.69 282.734C1109.69 283.134 1110.76 283.334 1112.29 283.468C1112.29 283.468 1112.29 283.468 1112.46 283.468C1116.27 284.196 1120.22 283.903 1123.88 282.621C1127.54 281.339 1130.76 279.117 1133.2 276.194C1133.51 275.794 1132.96 275.327 1132.54 275.594C1126.73 279.246 1119.86 281 1112.94 280.598C1112.67 279.364 1116.09 264.984 1115.36 264.918C1111.82 265.13 1108.33 265.815 1104.99 266.953C1107.58 247.769 1113.32 229.152 1115.57 210.035C1115.57 209.368 1114.64 209.134 1114.43 209.735C1106.96 228.818 1103.5 250.838 1100.29 270.556C1100.01 273.058 1109.35 269.956 1111.28 269.222Z" fill="#263238"/>
<path d="M1115.15 281.199C1117.36 284.47 1120.41 287.136 1124 288.94C1125.98 289.85 1128.2 290.153 1130.36 289.807C1135.1 288.973 1135.55 284.869 1134.99 281.3C1134.66 279.4 1134.1 277.542 1133.33 275.761C1128.03 279.4 1121.66 281.306 1115.15 281.199V281.199Z" fill="#263238"/>
<path d="M1124 288.939C1125.98 289.849 1128.2 290.152 1130.36 289.807C1135.1 288.973 1135.55 284.869 1135 281.299C1132.54 281.193 1130.12 281.89 1128.12 283.276C1126.13 284.662 1124.68 286.658 1124 288.939V288.939Z" fill="#FF98B9"/>
<path d="M1233.52 242.764C1223.33 243.065 1194.39 218.509 1189.13 171.333C1189.13 171.333 1196.91 213.371 1200.79 219.277C1204.66 225.182 1184.61 205.431 1179.8 167.463C1179.8 167.463 1159.4 184.612 1141.22 191.285C1123.03 197.957 1111.66 198.825 1110.11 197.624C1108.55 196.423 1135.27 185.68 1141.91 176.805C1141.91 176.805 1094.44 203.496 1071.77 207.099C1069.14 207.499 1073.56 168.097 1106.79 142.741C1140.01 117.385 1185.68 123.724 1202.06 136.402C1202.06 136.402 1219.97 137.303 1241.54 160.824C1263.12 184.345 1244.48 242.431 1233.52 242.764Z" fill="#263238"/>
<path d="M1220.08 257.177C1220.08 257.177 1239.06 228.051 1252.64 234.457C1266.23 240.862 1252.99 282.4 1237.74 288.706C1235.85 289.652 1233.77 290.217 1231.64 290.367C1229.51 290.517 1227.37 290.249 1225.35 289.578C1223.33 288.908 1221.47 287.849 1219.89 286.466C1218.31 285.083 1217.03 283.405 1216.14 281.532L1220.08 257.177Z" fill="#FFBEB4"/>
<path d="M1248.53 246.368C1248.8 246.368 1248.84 246.668 1248.53 246.769C1237.84 251.539 1232.62 261.582 1229.1 271.891C1232.18 267.821 1236.46 265.485 1242.06 268.955C1242.34 269.122 1242.06 269.589 1241.79 269.522C1239.86 269.068 1237.84 269.189 1235.99 269.868C1234.14 270.547 1232.54 271.753 1231.41 273.326C1229.55 276.023 1227.98 278.896 1226.71 281.9C1226.26 282.868 1224.47 282.467 1224.81 281.366C1224.8 281.278 1224.8 281.188 1224.81 281.099C1223.84 267.621 1233.7 248.337 1248.53 246.368Z" fill="#263238"/>
<path d="M1277.74 405.078C1316.04 447.749 1423.42 602.222 1398.53 643.959C1374.64 683.995 1320.47 695.272 1289.29 641.49C1266.85 603.022 1229.13 488.252 1219.76 433.203C1212.16 388.629 1242.34 365.609 1277.74 405.078Z" fill="#FFBEB4"/>
<path d="M1241.96 541.832L1368.9 496.825C1368.9 496.825 1297.65 402.707 1264.84 384.791C1232.04 366.874 1204.72 377.684 1214.75 439.106C1220.15 474.158 1229.26 508.581 1241.96 541.832V541.832Z" fill="#F89276"/>
<path d="M1346.36 479.343C1339.45 481.512 1332.53 483.247 1325.62 485.515C1318.7 487.784 1312.07 490.086 1305.36 492.522C1291.77 497.393 1278.22 502.264 1264.77 507.502C1257.24 510.438 1249.7 513.607 1242.34 516.944C1241.99 516.944 1242.13 517.644 1242.34 517.544C1269.99 509.871 1296.82 499.661 1323.51 489.485C1331.25 486.516 1338.69 482.813 1346.33 479.843C1346.84 479.71 1346.6 479.243 1346.36 479.343Z" fill="#263238"/>
<path d="M1249.11 538.965C1246.6 539.501 1244.14 540.237 1241.75 541.167C1238.29 533.927 1230.1 502.098 1228.2 493.924C1224.4 477.643 1221.28 461.195 1217.31 444.914C1217.31 444.447 1216.38 444.58 1216.44 444.914C1217.62 453.955 1219.07 462.963 1220.7 471.905C1218.97 467.634 1217.24 463.33 1215.89 458.96C1215.91 458.929 1215.91 458.896 1215.91 458.863C1215.91 458.83 1215.89 458.798 1215.88 458.77C1215.86 458.742 1215.83 458.719 1215.8 458.704C1215.77 458.688 1215.74 458.679 1215.7 458.679C1215.67 458.679 1215.63 458.688 1215.6 458.704C1215.57 458.719 1215.55 458.742 1215.53 458.77C1215.51 458.798 1215.5 458.83 1215.49 458.863C1215.49 458.896 1215.5 458.929 1215.51 458.96C1217.08 464.389 1219.01 469.715 1221.28 474.907C1222.63 491.589 1238.36 544.603 1238.81 544.403C1242.37 542.847 1245.83 541.098 1249.18 539.165C1249.56 539.265 1249.56 538.932 1249.11 538.965Z" fill="#263238"/>
<path d="M1186.33 224.916L1150.21 373.75C1148.65 378.121 1150.97 381.624 1155.39 381.557L1224.36 395.103C1226.78 394.889 1229.08 394.017 1231 392.587C1232.93 391.158 1234.39 389.23 1235.22 387.029L1271.34 238.195C1272.9 233.824 1270.58 230.321 1266.16 230.421L1197.19 216.842C1194.77 217.056 1192.47 217.928 1190.55 219.358C1188.62 220.787 1187.16 222.715 1186.33 224.916V224.916Z" fill="#455A64"/>
<path d="M1192.25 225.749L1156.22 374.583C1154.67 378.953 1156.98 382.457 1161.41 382.39L1230.38 395.935C1232.79 395.725 1235.09 394.857 1237.01 393.434C1238.93 392.01 1240.4 390.09 1241.23 387.895L1277.22 239.061C1278.78 234.657 1276.46 231.187 1272.04 231.254L1203.1 217.675C1200.69 217.9 1198.39 218.777 1196.47 220.205C1194.55 221.633 1193.09 223.554 1192.25 225.749V225.749Z" fill="#37474F"/>
<path d="M1214.1 232.156C1214.13 233.491 1213.75 234.805 1213 235.928C1212.25 237.051 1211.17 237.932 1209.9 238.456C1208.63 238.981 1207.22 239.125 1205.86 238.87C1204.51 238.615 1203.26 237.973 1202.28 237.026C1201.31 236.08 1200.65 234.873 1200.39 233.561C1200.13 232.249 1200.29 230.893 1200.84 229.667C1201.39 228.442 1202.31 227.405 1203.48 226.689C1204.64 225.972 1206.01 225.611 1207.39 225.65C1209.17 225.659 1210.88 226.349 1212.13 227.568C1213.39 228.787 1214.1 230.437 1214.1 232.156V232.156Z" fill="#263238"/>
<path d="M1307.71 654.969C1330.15 695.005 1389.54 672.184 1398.53 643.959C1419.62 577.732 1406.55 467.633 1393.97 406.145C1389.92 386.36 1250.67 406.145 1251.5 427.53C1252.47 453.387 1263.74 576.231 1307.71 654.969Z" fill="#FFBEB4"/>
<path d="M1392.41 435.539C1399.43 406.364 1399.85 376.074 1393.66 346.726C1386.33 314.73 1362.37 246.869 1266.06 216.609C1243.2 209.402 1205.35 214.774 1238.4 239.596C1261.77 257.245 1282.1 261.616 1293.71 274.294C1293.71 274.294 1246.42 286.639 1239.85 308.992C1234.1 328.558 1229.79 348.492 1226.96 368.646C1230.66 369.985 1234.45 371.1 1238.3 371.982C1236.26 391.445 1240.96 411.009 1251.64 427.632L1392.41 435.539Z" fill="#FFBEB4"/>
<path d="M1381.59 317.264C1367.28 307.255 1336.65 285.969 1305.22 277.228C1270.37 267.219 1200.57 257.544 1193.31 282.399C1187.99 300.649 1214.3 306.688 1214.3 306.688C1214.3 306.688 1184.57 308.49 1183.5 325.972C1182.53 341.92 1203.17 345.423 1203.17 345.423C1203.17 345.423 1185.33 349.493 1187.44 365.041C1190 383.691 1227.02 372.08 1246.55 388.829C1250.94 392.499 1381.59 317.264 1381.59 317.264Z" fill="#FFBEB4"/>
<path d="M1300.59 314.362C1285.52 306.889 1246.73 298.448 1214.85 306.088C1214.13 306.088 1213.88 306.855 1214.57 306.855C1243.44 306.103 1272.3 308.725 1300.52 314.662C1300.69 314.729 1300.76 314.429 1300.59 314.362Z" fill="#263238"/>
<path d="M1289.32 347.993C1275.49 342.855 1235.22 335.848 1203.2 344.656C1202.48 344.857 1202.27 345.49 1202.96 345.457C1231.79 343.235 1260.79 344.197 1289.39 348.326C1289.43 348.317 1289.48 348.291 1289.5 348.254C1289.53 348.216 1289.54 348.17 1289.53 348.126C1289.52 348.082 1289.49 348.043 1289.45 348.018C1289.41 347.993 1289.37 347.984 1289.32 347.993V347.993Z" fill="#263238"/>
<path d="M1294.99 627.077C1293.95 623.741 1292.95 620.404 1291.84 617.368C1289.56 610.696 1287.59 604.023 1285.59 597.35C1281.51 584.005 1277.6 570.459 1274.18 556.847C1267.35 529.715 1262.16 502.221 1258.65 474.506C1257.69 466.833 1256.86 459.159 1255.99 451.485C1255.13 443.812 1254.85 435.838 1253.33 428.131C1253.33 427.731 1249.29 421.859 1247.69 418.956C1246.04 415.937 1244.6 412.816 1243.37 409.614C1240.79 403.081 1239.04 396.27 1238.15 389.329C1238.14 389.286 1238.1 389.249 1238.06 389.223C1238.02 389.197 1237.98 389.183 1237.93 389.183C1237.88 389.183 1237.83 389.197 1237.79 389.223C1237.75 389.249 1237.72 389.286 1237.7 389.329C1237.26 397.227 1238.29 405.139 1240.75 412.684C1242.88 418.995 1246.55 424.718 1251.46 429.366C1251.46 430.366 1251.71 442.711 1252.12 449.617C1252.53 456.523 1253.19 463.43 1253.99 470.302C1255.61 484.115 1257.62 497.894 1260.14 511.606C1265.07 539.344 1271.93 566.731 1280.68 593.58C1280.68 594.014 1280.99 594.448 1281.13 594.881C1281.13 595.882 1281.13 596.883 1281.13 597.884C1281.18 600.352 1281.38 602.814 1281.75 605.257C1282.46 610.119 1283.7 614.894 1285.45 619.503C1285.43 619.544 1285.43 619.587 1285.43 619.63C1285.44 619.673 1285.45 619.713 1285.48 619.749C1285.5 619.784 1285.54 619.813 1285.58 619.833C1285.62 619.853 1285.66 619.863 1285.71 619.863C1285.75 619.863 1285.79 619.853 1285.83 619.833C1285.87 619.813 1285.91 619.784 1285.93 619.749C1285.96 619.713 1285.97 619.673 1285.98 619.63C1285.99 619.587 1285.98 619.544 1285.97 619.503C1284.74 614.681 1283.91 609.772 1283.48 604.824L1282.85 599.752C1284.76 605.157 1286.76 610.562 1288.73 615.934C1290.11 619.67 1291.53 623.307 1293.12 626.944C1294.71 630.58 1295.96 634.117 1297.82 637.486C1297.82 637.753 1298.38 637.486 1298.31 637.286C1297.44 633.716 1296.06 630.447 1294.99 627.077Z" fill="#263238"/>
<path d="M864.027 745.416V655.735L758.412 745.416H864.027Z" fill="#FFCEC0"/>
<path d="M321.228 935.555C351.65 1063.3 414.57 1216.44 441.432 1241.3C475.415 1272.73 700.232 1330.38 711.433 1331.55C739.09 1334.25 794.853 1141.37 765.26 1137.2C720.317 1130.93 556.588 1122.36 546.805 1112.65C537.021 1102.94 467.533 1018.4 396.524 923.411C347.502 857.785 302.317 856.284 321.228 935.555Z" fill="#FFBEB4"/>
<path d="M689.168 1321.14C692.453 1322.74 739.435 1345.56 768.475 1353.67C790.151 1359.74 853.002 1375.59 862.301 1353.2C868.662 1337.98 832.812 1324.47 807.713 1314.36C794.472 1309.03 778.155 1295.68 782.061 1287.47C788.976 1273.13 822.959 1287.47 845.361 1300.08C888.679 1324.37 946.378 1368.11 972.825 1346.79C982.816 1338.79 971.2 1324.17 954.226 1309.86C981.883 1326.54 1011.2 1340.22 1022.64 1331.75C1029.25 1326.91 1029.56 1320.27 1025.89 1312.73C1034.4 1315.4 1041.9 1314.86 1047.15 1309.39C1056.11 1300.32 1051.75 1286.97 1041.93 1273.26C1043.62 1273.09 1045.24 1272.54 1046.66 1271.64C1048.08 1270.75 1049.25 1269.54 1050.09 1268.12C1069.07 1240.2 974.035 1160.02 941.227 1152.52C844.601 1130.33 742.754 1134.47 742.754 1134.47C704.795 1163.86 689.065 1321.07 689.168 1321.14Z" fill="#FFBEB4"/>
<path d="M831.255 1235.29C854.262 1238.76 876.241 1246.92 895.73 1259.22C920.241 1274.83 936.49 1293.11 957.025 1311.5C957.107 1311.6 957.148 1311.73 957.143 1311.86C957.138 1311.99 957.086 1312.11 956.997 1312.21C956.908 1312.31 956.786 1312.38 956.653 1312.4C956.519 1312.42 956.382 1312.39 956.265 1312.33C946.481 1303.59 905.894 1270.69 895.419 1263.22C876.471 1249.46 854.531 1240.04 831.255 1235.66C830.944 1235.63 831.013 1235.23 831.255 1235.29Z" fill="#263238"/>
<path d="M849.269 1195.69C874.678 1202.36 900.711 1209.03 924.288 1220.78C950.078 1233.46 970.268 1254.14 989.974 1274.16C1001.91 1286.1 1013.56 1298.34 1024.92 1310.86C1025.37 1311.39 1024.65 1312.23 1024.16 1311.69C1004.02 1291.14 983.278 1271.12 961.936 1251.64C942.183 1233.55 918.921 1219.4 893.485 1210C878.965 1204.63 864.031 1200.39 849.096 1196.12C848.888 1196.06 848.992 1195.62 849.269 1195.69Z" fill="#263238"/>
<path d="M876.409 1161.09C901.093 1166 922.63 1170.17 944.479 1182.91C973.416 1199.83 1001.35 1228.28 1011.13 1238.39C1021.95 1249.54 1032.39 1261.01 1042.63 1272.66C1043.04 1273.12 1042.21 1273.86 1041.76 1273.39C1018.31 1247.86 993.171 1223.82 966.501 1201.43C953.955 1190.58 939.753 1181.67 924.394 1175C908.824 1169.1 892.758 1164.51 876.374 1161.26C876.374 1161.26 876.201 1161.06 876.409 1161.09Z" fill="#263238"/>
<path d="M727.194 1126.79L658.052 1338.18C658.052 1338.18 470.849 1286.6 436.796 1251.01C402.744 1215.41 339.444 1031.58 320.879 942.462C302.314 853.348 348.986 855.717 391.888 911.734C434.791 967.751 541.616 1104.07 547.459 1107.04C553.301 1110.01 727.194 1126.79 727.194 1126.79Z" fill="#F89276"/>
<path opacity="0.1" d="M727.194 1126.79L658.052 1338.18C658.052 1338.18 470.849 1286.6 436.796 1251.01C402.744 1215.41 339.444 1031.58 320.879 942.462C302.314 853.348 348.986 855.717 391.888 911.734C434.791 967.751 541.616 1104.07 547.459 1107.04C553.301 1110.01 727.194 1126.79 727.194 1126.79Z" fill="black" fill-opacity="0.2"/>
<path d="M640.076 1244.27C648.477 1219.35 657.05 1194.49 664.448 1169.27C668.666 1154.95 672.953 1140.61 677.032 1126.26C677.205 1125.69 676.272 1125.39 676.064 1125.93C666.626 1150.62 657.223 1175.41 648.961 1200.49C640.698 1225.58 632.297 1250.54 624.415 1275.46C619.955 1289.74 615.91 1304.09 612.35 1318.6C612.35 1318.87 612.764 1319.03 612.868 1318.77C623.17 1294.38 631.64 1269.36 640.076 1244.27Z" fill="#263238"/>
<path d="M563.639 1309.13L555.342 1306.32C539.75 1300.95 523.847 1295.18 508.878 1289.28C506.942 1288.54 505.04 1287.77 503.174 1287.01C500.166 1285.81 497.158 1284.57 494.254 1283.34L489.898 1281.5L488.343 1280.83L483.848 1278.83C477.902 1276.2 472.267 1273.56 467.012 1270.89L463.555 1269.02C455.341 1264.95 447.599 1260.04 440.461 1254.38C439.805 1253.81 439.148 1253.24 438.56 1252.68C437.972 1252.11 437.35 1251.54 436.831 1251.01C402.606 1215.41 339.479 1031.58 320.914 942.463L320.292 939.394V938.726C319.047 932.054 317.941 923.579 317.042 914.505C314.449 870.165 336.195 862.925 363.057 882.409C430.021 1021.1 532.594 1250.27 563.639 1309.13Z" fill="#263238"/>
<path d="M466.53 1344.62L58.5898 1346.69C58.9356 1338.22 117.015 1090.33 163.202 998.846C222.423 881.54 253.087 872.065 271.168 865.793C294.504 857.719 336.058 861.723 345.911 866.227C357.112 871.264 392.721 931.252 405.477 975.258C430.991 1063.77 472.269 1339.22 466.53 1344.62Z" fill="#37474F"/>
<path d="M250.254 875.069C250.254 875.069 302.111 1060.4 304.703 1072.71C308.61 1090.6 334.469 1345.76 334.469 1345.76L50.1211 1346.69C50.1211 1346.69 112.176 1110.48 158.364 1007.05C208.768 893.619 250.254 875.069 250.254 875.069Z" fill="#F89276"/>
<g opacity="0.1">
<path opacity="0.1" d="M250.254 875.069C250.254 875.069 302.111 1060.4 304.703 1072.71C308.61 1090.6 334.469 1345.76 334.469 1345.76L50.1211 1346.69C50.1211 1346.69 112.176 1110.48 158.364 1007.05C208.768 893.619 250.254 875.069 250.254 875.069Z" fill="black" fill-opacity="0.2"/>
</g>
<path d="M349.643 869.097C351.164 875.002 398.976 1025.57 402.295 1063.1C405.994 1104.74 438.698 1346.69 438.698 1346.69H480.183C480.183 1346.69 420.133 999.08 403.643 962.347C369.901 887.38 349.643 869.097 349.643 869.097Z" fill="#F89276"/>
<path opacity="0.1" d="M349.643 869.097C351.164 875.002 398.976 1025.57 402.295 1063.1C405.994 1104.74 438.698 1346.69 438.698 1346.69H480.183C480.183 1346.69 420.133 999.08 403.643 962.347C369.901 887.38 349.643 869.097 349.643 869.097Z" fill="black" fill-opacity="0.2"/>
<path d="M196.563 918.408C128.25 989.038 -37.8299 1257.01 14.8566 1305.89C67.5431 1354.77 360.05 1288.97 442.191 1251.17C466.633 1239.96 373.775 1092.9 345.046 1089.46C321.123 1086.63 198.879 1140.57 195.318 1133.8C191.343 1126.13 210.772 1069.51 240.261 966.985C274.106 848.812 226.778 887.18 196.563 918.408Z" fill="#FFBEB4"/>
<path d="M466.461 1042.02C525.854 1034.01 542.518 1040.78 588.808 1008.36C619.266 987.07 646.439 996.712 629.049 1030.51C600.632 1085.83 526.235 1111.65 497.679 1113.45L466.461 1042.02Z" fill="#FFBEB4"/>
<path d="M308.676 1097.13C308.676 1097.13 375.433 1061.37 437.868 1046.82C481.013 1036.81 577.467 1024.97 669.772 1116.88C691.656 1138.67 706.832 1184.71 657.707 1161.66C622.79 1145.28 605.85 1124.73 583.69 1118.75C583.69 1118.75 595.79 1179.51 572.316 1199.83C551.8 1217.58 529.999 1233.9 507.08 1248.67C503.311 1245.25 499.778 1241.59 496.501 1237.73C496.501 1237.73 472.716 1254.71 427.981 1250.57L308.676 1097.13Z" fill="#FFBEB4"/>
<path d="M480.668 1043.75C501.411 1054.13 544.659 1076.85 573.423 1107.34C605.401 1141.24 657.5 1214.77 631.329 1237.46C612.177 1253.97 589.844 1227.45 589.844 1227.45C589.844 1227.45 604.744 1262.25 584.036 1273.49C565.195 1283.77 549.084 1262.35 549.084 1262.35C549.084 1262.35 554.374 1284.94 534.219 1291.44C510.019 1299.25 502.897 1250.6 471.265 1238.06C464.039 1235.06 480.668 1043.75 480.668 1043.75Z" fill="#FFBEB4"/>
<path d="M530.729 1133.83C548.464 1146.68 581.03 1185.81 590.018 1226.35C590.226 1227.29 589.638 1227.92 589.258 1227.12C573.641 1193.94 553.906 1162.72 530.487 1134.13C530.21 1133.83 530.487 1133.83 530.729 1133.83Z" fill="#263238"/>
<path d="M496.229 1165.96C510.368 1178.57 542.07 1220.35 549.71 1261.75C549.883 1262.68 549.226 1263.28 548.915 1262.45C535.072 1228.55 517.293 1196.27 495.917 1166.23C495.71 1166.03 495.917 1165.8 496.229 1165.96Z" fill="#263238"/>
<path d="M583.692 1118.35C603.052 1123.86 615.636 1133.03 632.092 1143.98C640.101 1149.5 648.423 1154.59 657.017 1159.22C664.9 1163.33 676.55 1169.53 684.916 1163.09C689.618 1159.52 689.549 1153.09 688.373 1147.85C686.009 1140.27 682.416 1133.09 677.726 1126.6C677.726 1126.33 677.968 1126.03 678.175 1126.26C682.703 1132.18 686.595 1138.53 689.791 1145.21C691.884 1149.79 692.498 1154.87 691.554 1159.79C688.685 1170.07 676.101 1171.44 667.354 1168.6C662.054 1166.72 656.958 1164.34 652.143 1161.49C647.441 1158.89 642.878 1156.09 638.314 1153.15C629.118 1147.15 620.303 1140.64 611.176 1134.54C602.309 1128.79 593.071 1123.6 583.519 1118.99C583.446 1118.95 583.388 1118.9 583.354 1118.83C583.32 1118.76 583.313 1118.68 583.334 1118.6C583.354 1118.53 583.401 1118.46 583.466 1118.42C583.532 1118.37 583.612 1118.35 583.692 1118.35V1118.35Z" fill="#263238"/>
<path d="M624.241 1184.08C619.228 1173.44 592.089 1129.06 583.308 1118.79C583.276 1118.74 583.262 1118.68 583.27 1118.62C583.277 1118.56 583.305 1118.5 583.349 1118.46C583.392 1118.42 583.45 1118.39 583.512 1118.38C583.573 1118.38 583.636 1118.39 583.689 1118.42C598.796 1132.23 623.031 1168.9 628.631 1180.64C634.232 1192.39 640.662 1207.1 640.662 1220.01C640.662 1239.53 627.248 1243.37 622.305 1244.2C616.388 1245.24 610.283 1244.27 605.019 1241.47C598.86 1237.83 593.541 1233.02 589.393 1227.32C589.185 1227.05 589.566 1226.69 589.808 1226.95C596.722 1234.66 608.476 1242.23 619.435 1240.83C621.866 1240.61 624.226 1239.92 626.376 1238.8C628.525 1237.68 630.421 1236.16 631.95 1234.33C634.945 1229.63 636.098 1224.06 635.2 1218.61C633.583 1206.59 629.878 1194.91 624.241 1184.08V1184.08Z" fill="#263238"/>
<path d="M308.676 1097.14L402.295 1287.31C402.295 1287.31 36.1169 1366.64 4.5188 1305.12C-27.0793 1243.6 115.147 1002.85 179.207 932.721C253.501 851.447 262.973 879.106 246.621 951.137C229.335 1026.54 196.389 1135.57 196.389 1135.57L308.676 1097.14Z" fill="#F89276"/>
<path opacity="0.1" d="M308.676 1097.14L402.295 1287.31C402.295 1287.31 36.1169 1366.64 4.5188 1305.12C-27.0793 1243.6 115.147 1002.85 179.207 932.721C253.501 851.447 262.973 879.106 246.621 951.137C229.335 1026.54 196.389 1135.57 196.389 1135.57L308.676 1097.14Z" fill="black" fill-opacity="0.2"/>
<path d="M85.1024 1186.18C118.878 1163.54 155.967 1145.9 195.143 1133.83C206.24 1130.5 217.441 1127.33 228.642 1124.23C228.988 1124.23 229.126 1124.66 228.642 1124.76C209.106 1130.86 189.956 1138.06 171.288 1146.31C152.643 1154.32 134.205 1162.65 115.975 1171.3C105.603 1176.21 95.5084 1181.58 85.3444 1186.82C85.2762 1186.8 85.2129 1186.77 85.1602 1186.73C85.1075 1186.68 85.0673 1186.63 85.0431 1186.56C85.019 1186.5 85.0118 1186.43 85.0222 1186.36C85.0325 1186.3 85.0601 1186.24 85.1024 1186.18V1186.18Z" fill="#263238"/>
<path d="M307.708 1096.64C305.876 1097.1 205.723 1129.03 202.439 1130.5C202.854 1129.03 220.831 1077.65 223.527 1070.11C223.769 1069.38 224.011 1068.61 224.288 1067.88C226.086 1064.54 227.953 1061.2 229.646 1057.87C231.79 1053.5 233.933 1049.06 236.042 1044.52H235.835L228.92 1057.43C227.849 1059.4 226.846 1061.44 225.844 1063.47C227.607 1058.17 229.301 1052.83 230.995 1047.46C233.691 1038.95 236.111 1030.34 238.497 1021.73C238.497 1021.43 238.151 1021.37 238.047 1021.73C232.723 1036.71 226.915 1051.53 221.557 1066.51C216.198 1081.49 195.594 1136.57 195.767 1136.57C195.94 1136.57 306.049 1099 308.192 1098.17C308.297 1098.14 308.394 1098.09 308.478 1098.02C308.562 1097.96 308.632 1097.87 308.684 1097.78C308.735 1097.69 308.767 1097.59 308.777 1097.48C308.788 1097.38 308.777 1097.27 308.745 1097.17C308.714 1097.07 308.662 1096.97 308.592 1096.89C308.523 1096.81 308.438 1096.74 308.341 1096.69C308.245 1096.65 308.14 1096.61 308.031 1096.6C307.922 1096.59 307.813 1096.6 307.708 1096.64V1096.64Z" fill="#263238"/>
<path d="M314.452 1220.58C304.081 1199.39 294.02 1178.07 282.923 1157.19C276.597 1145.34 270.339 1133.47 263.909 1121.69C263.667 1121.26 262.837 1121.69 263.045 1122.06C272.517 1143.74 282.059 1165.43 292.568 1186.75C303.078 1208.07 313.311 1229.12 323.994 1250.14C330.078 1262.08 336.543 1273.84 343.388 1285.4C343.388 1285.64 343.941 1285.4 343.838 1285.4C335.126 1263.32 324.858 1242 314.452 1220.58Z" fill="#263238"/>
<path d="M407.035 1290.24C403.37 1284.37 398.738 1275.96 394.831 1270.22C393.794 1268.72 392.584 1269.02 393.414 1270.59C396.214 1275.93 398.53 1281.9 401.261 1287.27C396.145 1288.27 390.89 1289.14 385.843 1290.17C379.896 1291.38 373.985 1292.61 368.038 1293.78C356.376 1296 344.714 1298.23 333.052 1300.45C309.406 1304.7 285.667 1308.43 261.836 1311.66C214.094 1318.41 166.021 1322.76 117.812 1324.71C104.329 1325.17 90.8119 1325.41 77.3291 1325.24C64.0294 1325.27 50.7367 1324.65 37.5031 1323.37C37.1228 1323.37 37.0537 1323.94 37.5031 1324C48.8905 1326.33 60.4502 1327.78 72.0743 1328.34C84.2779 1328.91 96.5161 1329.18 108.754 1329.04C132.954 1328.78 157.396 1327.24 181.63 1325.11C229.684 1320.83 277.6 1314.56 325.101 1306.46C338.422 1304.23 351.709 1301.82 364.962 1299.22C371.668 1297.91 378.341 1296.61 385.013 1295.18C391.685 1293.74 407.657 1291.24 407.035 1290.24Z" fill="#263238"/>
<path d="M349.714 938.258C325.514 944.697 282.197 910.166 264.496 881.54C263.286 879.572 265.672 858.353 267.296 832.429C268.23 816.715 268.852 799.066 268.23 783.118C268.23 779.782 373.43 803.87 373.43 803.87C373.43 803.87 364.442 837.834 365.686 865.793C365.796 868.041 366.12 870.275 366.654 872.465C366.749 872.816 366.819 873.173 366.862 873.533C369.454 885.911 373.119 932.019 349.714 938.258Z" fill="#FFBEB4"/>
<path d="M274.658 783.519C280.535 810.476 300.517 875.368 356.177 874.601C359.747 874.567 363.308 874.255 366.825 873.666C366.869 873.301 366.869 872.931 366.825 872.566C366.312 870.37 365.977 868.139 365.822 865.893C364.612 837.901 373.566 803.904 373.566 803.904C373.566 803.904 297.441 786.555 274.658 783.519Z" fill="#263238"/>
<path d="M385.979 734.977C384.803 759.599 402.02 780.351 424.422 781.352C446.824 782.353 465.907 763.135 467.048 738.513C468.189 713.891 450.973 693.139 428.605 692.171C406.237 691.204 387.12 710.354 385.979 734.977Z" fill="#455A64"/>
<path d="M462.937 739.873C464.22 712.483 445.068 689.398 420.157 688.31C395.247 687.223 374.013 708.545 372.729 735.935C371.445 763.325 390.598 786.411 415.508 787.498C440.418 788.586 461.653 767.263 462.937 739.873Z" fill="#37474F"/>
<path d="M281.951 655.371C263.835 688.334 262.695 793.128 283.99 820.553C314.863 860.256 375.535 874.835 412.941 836.901C449.345 800.001 448.307 663.412 423.589 637.488C387.255 599.22 308.709 606.694 281.951 655.371Z" fill="#FFBEB4"/>
<path d="M372.255 736.377C372.255 736.11 371.667 736.744 371.702 737.044C372.082 744.084 371.321 752.225 364.787 754.693C364.58 754.693 364.615 755.127 364.787 755.094C372.877 753.826 373.776 743.016 372.255 736.377Z" fill="#263238"/>
<path d="M365.542 729.169C353.753 728.569 353.373 751.356 364.263 751.89C375.153 752.424 375.43 729.67 365.542 729.169Z" fill="#263238"/>
<path d="M413.184 737.244C413.184 736.978 413.737 737.611 413.737 737.878C413.391 744.951 414.221 753.092 420.651 755.528C420.859 755.528 420.651 755.961 420.651 755.928C412.665 754.694 411.663 743.884 413.184 737.244Z" fill="#263238"/>
<path d="M419.853 730.138C431.607 729.438 432.16 752.225 421.236 752.859C410.311 753.493 409.966 730.539 419.853 730.138Z" fill="#263238"/>
<path d="M354.966 710.955C358.423 710.788 361.293 710.087 364.577 709.62C368.042 709.556 371.386 708.382 374.084 706.284C374.808 705.48 375.234 704.468 375.297 703.405C375.359 702.342 375.054 701.289 374.43 700.412C372.918 698.877 371.01 697.758 368.901 697.172C366.792 696.585 364.56 696.552 362.433 697.075C357.928 697.421 353.721 699.386 350.645 702.58C350 703.346 349.598 704.275 349.485 705.255C349.373 706.236 349.556 707.227 350.011 708.11C350.467 708.993 351.177 709.731 352.055 710.236C352.934 710.74 353.944 710.99 354.966 710.955Z" fill="#263238"/>
<path d="M430.952 713.456C427.795 712.786 424.679 711.95 421.617 710.954C418.217 710.558 415.046 709.092 412.594 706.783C411.974 705.902 411.675 704.847 411.744 703.784C411.813 702.721 412.246 701.711 412.975 700.911C414.665 699.544 416.703 698.635 418.877 698.277C421.052 697.919 423.286 698.126 425.351 698.876C429.772 699.772 433.69 702.222 436.345 705.749C436.862 706.587 437.122 707.549 437.093 708.524C437.065 709.499 436.749 710.446 436.183 711.255C435.618 712.063 434.825 712.699 433.899 713.089C432.972 713.479 431.95 713.606 430.952 713.456V713.456Z" fill="#263238"/>
<path d="M358.909 801.803C360.637 803.471 362.366 805.773 364.993 806.04C367.712 806.016 370.396 805.448 372.875 804.372C372.925 804.361 372.977 804.365 373.024 804.381C373.072 804.397 373.115 804.426 373.147 804.464C373.179 804.502 373.2 804.547 373.207 804.596C373.214 804.644 373.207 804.694 373.187 804.738C372.126 806.116 370.697 807.189 369.052 807.841C367.408 808.494 365.61 808.701 363.852 808.442C362.366 808.04 361.036 807.225 360.027 806.097C359.019 804.97 358.377 803.58 358.183 802.103C358.079 801.702 358.632 801.536 358.909 801.803Z" fill="#263238"/>
<path d="M366.962 780.784C368.767 783.604 371.158 786.032 373.985 787.916C376.811 789.799 380.011 791.097 383.383 791.727C386.324 792.333 389.34 792.524 392.337 792.294C392.916 792.274 393.494 792.218 394.066 792.127L395.656 791.894C396.048 791.832 396.408 791.648 396.682 791.372C396.956 791.095 397.13 790.739 397.177 790.359V790.359C397.194 790.115 397.194 789.87 397.177 789.625V789.625V788.991C397.419 783.553 397.177 775.279 397.177 775.279C399.217 776.313 409.657 781.051 409.519 778.215C408.482 754.66 407.307 728.503 401.118 705.316C401.084 705.168 400.998 705.037 400.875 704.943C400.753 704.848 400.601 704.797 400.444 704.797C400.288 704.797 400.135 704.848 400.013 704.943C399.891 705.037 399.805 705.168 399.77 705.316C399.77 727.97 404.057 750.457 404.506 773.21C400.804 771.483 396.872 770.259 392.821 769.574C392.026 769.807 393.893 785.555 393.582 787.99C393.59 788.079 393.59 788.169 393.582 788.257C384.075 789.258 376.988 786.389 367.93 780.117C367.1 779.75 366.513 780.183 366.962 780.784Z" fill="#263238"/>
<path d="M389.053 789.457C385.909 793.298 381.788 796.286 377.091 798.132C374.499 799.058 371.673 799.186 369.002 798.499C363.194 796.897 363.124 791.826 364.265 787.322C364.903 785.003 365.819 782.763 366.996 780.649C373.189 785.778 380.916 788.864 389.053 789.457V789.457Z" fill="#263238"/>
<path d="M377.091 798.131C374.499 799.057 371.673 799.186 369.002 798.498C363.194 796.897 363.124 791.826 364.265 787.322C370.523 788.056 376.642 792.26 377.091 798.131Z" fill="#FF98B9"/>
<path opacity="0.2" d="M268.365 729.37C275.487 728.269 292.565 705.015 299.79 695.773C307.016 686.531 311.199 636.987 311.856 625.71C299.178 632.629 288.796 642.88 281.917 655.27C273.827 670.083 269.16 699.209 268.365 729.37Z" fill="#263238"/>
<path d="M400.183 666.748C395.961 671.217 390.627 674.571 384.686 676.492C378.744 678.413 372.393 678.837 366.234 677.725C359.949 676.608 354.064 673.959 349.138 670.029C344.213 666.099 340.41 661.019 338.093 655.271C338.093 654.904 337.401 655.104 337.54 655.438C339.409 661.699 343.015 667.348 347.968 671.776C352.922 676.203 359.034 679.241 365.646 680.561C372.215 681.518 378.93 680.789 385.114 678.446C391.299 676.103 396.734 672.23 400.874 667.215C400.898 667.129 400.894 667.039 400.862 666.955C400.83 666.872 400.773 666.8 400.698 666.749C400.622 666.698 400.532 666.67 400.44 666.67C400.348 666.67 400.258 666.697 400.183 666.748V666.748Z" fill="#263238"/>
<path d="M365.061 577.934C343.73 577.734 323.817 588.51 315.555 602.256C310.966 610.089 309.26 619.191 310.715 628.079C310.715 628.446 311.51 628.379 311.475 628.079C311.296 620.246 313.304 612.51 317.288 605.684C321.272 598.857 327.086 593.19 334.12 589.277C341.821 584.722 350.513 581.954 359.511 581.19C368.509 580.426 377.569 581.687 385.976 584.873C394.171 587.8 401.013 593.456 405.267 600.821C405.682 601.589 407.272 601.155 406.961 600.387C401.568 587.309 384.317 578.101 365.061 577.934Z" fill="#263238"/>
<path d="M487.27 626.277C484.107 616.025 477.301 607.177 468.048 601.288C455.222 593.081 440.391 593.781 425.733 594.782C425.65 594.782 425.571 594.814 425.513 594.87C425.455 594.926 425.422 595.003 425.422 595.083C425.422 595.162 425.455 595.238 425.513 595.295C425.571 595.351 425.65 595.383 425.733 595.383C438.248 594.582 451.005 594.449 462.275 600.487C471.656 605.388 478.986 613.276 483.018 622.807C486.855 632.584 486.904 643.368 483.156 653.177C479.408 662.985 472.116 671.157 462.62 676.189C457.082 678.95 451.018 680.59 444.8 681.009C438.582 681.427 432.341 680.616 426.459 678.624C425.975 678.458 425.629 679.092 426.079 679.292C434.024 682.314 442.683 683.142 451.088 681.685C459.494 680.227 467.313 676.541 473.671 671.039C480.028 665.537 484.674 658.436 487.088 650.53C489.502 642.625 489.589 634.227 487.339 626.277H487.27Z" fill="#263238"/>
<path d="M274.245 675.555C274.245 675.555 255.369 638.088 273.069 617.403C283.095 605.693 314.831 608.362 314.831 608.362C314.831 608.362 325.721 591.113 352.272 586.208C378.823 581.304 410.144 597.352 410.144 597.352C410.144 597.352 435.934 584.307 459.097 598.186C491.421 617.537 485.475 665.88 451.664 680.293C427.948 690.302 397.042 669.417 397.042 669.417C393.965 669.717 362.09 686.732 339.55 659.074C339.55 659.074 319.775 674.821 303.008 662.711C300.156 667.438 295.867 671.206 290.722 673.503C285.577 675.801 279.825 676.517 274.245 675.555V675.555Z" fill="#263238"/>
<path d="M287.828 742.048C287.828 742.048 269.885 705.348 252.98 710.82C236.075 716.291 245.444 767.071 262.383 776.613C264.474 777.981 266.829 778.928 269.308 779.395C271.787 779.863 274.338 779.842 276.808 779.335C279.279 778.827 281.617 777.842 283.683 776.44C285.749 775.037 287.5 773.246 288.83 771.174L287.828 742.048Z" fill="#FFBEB4"/>
<path d="M256.022 725.266C255.745 725.266 255.607 725.599 256.022 725.733C267.845 732.806 272.512 745.317 275.07 757.895C272.132 752.724 267.396 749.387 260.343 752.657C260.27 752.703 260.214 752.771 260.183 752.85C260.152 752.929 260.148 753.015 260.171 753.096C260.194 753.178 260.243 753.25 260.311 753.303C260.379 753.356 260.463 753.387 260.55 753.391C262.911 753.082 265.313 753.483 267.429 754.54C269.545 755.597 271.272 757.258 272.374 759.296C274.166 762.725 275.579 766.326 276.591 770.039C277.006 771.24 279.15 770.973 278.942 769.639C278.958 769.539 278.958 769.438 278.942 769.339C281.846 753.758 273.169 729.77 256.022 725.266Z" fill="#263238"/>
<path d="M326.929 815.949L292.877 801.769L265.496 768.873L270.751 764.77L297.094 796.431L329.626 809.977L326.929 815.949Z" fill="#37474F"/>
<path d="M323.299 810.709C326.756 801.134 354.413 804.67 349.4 819.15C344.387 833.63 319.946 820.218 323.299 810.709Z" fill="#37474F"/>
<path d="M252.465 709.82C252.465 709.82 248.766 656.005 265.084 626.412C283.268 593.349 358.634 561.887 410.283 597.419C410.283 597.419 326.379 582.939 287.279 628.781C270.823 648.065 271.238 711.322 271.238 711.322L252.465 709.82Z" fill="#37474F"/>
<path d="M260.074 787.11C285.008 786.871 304.992 764.451 304.71 737.035C304.427 709.618 283.985 687.586 259.05 687.826C234.116 688.065 214.131 710.485 214.414 737.901C214.697 765.318 235.139 787.35 260.074 787.11Z" fill="#37474F"/>
<path d="M291.526 735.61C291.768 760.266 273.825 780.417 251.423 780.618C229.021 780.818 210.629 761.033 210.387 736.378C210.145 711.722 228.088 691.571 250.49 691.371C272.892 691.17 291.284 710.955 291.526 735.61Z" fill="#455A64"/>
<path d="M366.444 871.866L342.071 931.253L265.392 856.585L243.889 880.741C243.889 880.741 319.081 999.548 319.53 994.176L344.595 942.963L381.309 978.362L377.852 889.148L366.444 871.866Z" fill="#37474F"/>
<path d="M382.208 934.155C381.137 919.442 380.514 904.595 378.751 889.948C378.751 889.448 377.852 889.214 377.714 889.948C374.741 904.195 379.132 960.412 379.132 973.924H378.959C377.438 972.389 344.941 942.796 344.63 943.263C339.202 951.404 320.775 988.671 319.531 992.074C307.638 973.19 257.303 898.823 243.128 880.974C243.06 880.859 242.946 880.775 242.813 880.74C242.681 880.706 242.539 880.724 242.42 880.79C242.301 880.857 242.214 880.966 242.178 881.094C242.142 881.222 242.161 881.359 242.23 881.474C252.601 901.492 317.941 999.614 318.839 999.347C328.539 981.753 337.297 963.691 345.079 945.232C350.576 951.671 383.349 985.101 383.453 982.899C383.931 966.641 383.515 950.37 382.208 934.155V934.155Z" fill="#263238"/>
<path d="M1204.07 715.724H1097.14C1086.77 715.715 1076.83 711.737 1069.5 704.662C1062.17 697.588 1058.05 687.995 1058.04 677.99V677.99C1058.04 667.983 1062.16 658.385 1069.49 651.308C1076.83 644.232 1086.77 640.256 1097.14 640.256H1204.07C1214.44 640.256 1224.38 644.232 1231.72 651.308C1239.05 658.385 1243.17 667.983 1243.17 677.99C1243.17 682.946 1242.16 687.852 1240.19 692.43C1238.23 697.009 1235.35 701.168 1231.72 704.672C1228.09 708.176 1223.78 710.956 1219.03 712.852C1214.29 714.748 1209.2 715.724 1204.07 715.724V715.724Z" fill="#37474F"/>
<path d="M1120.51 677.323C1120.58 676.13 1120.99 674.977 1121.68 673.987L1122.65 672.619L1124.69 670.651L1127.08 668.982C1130.36 666.965 1134.03 665.593 1137.86 664.946C1146.71 663.244 1155.81 663.244 1164.66 664.946C1168.44 665.571 1172.06 666.921 1175.3 668.916C1176.13 669.45 1176.96 670.05 1177.76 670.617L1179.76 672.552C1180.29 673.284 1180.77 674.041 1181.21 674.821C1181.55 675.623 1181.83 676.449 1182.04 677.29H1164.52C1164.38 677.307 1164.24 677.281 1164.12 677.214C1164 677.148 1163.91 677.046 1163.86 676.923C1163.38 676.026 1162.67 675.267 1161.79 674.722C1160.91 674.178 1159.89 673.866 1158.85 673.82C1153.75 673.503 1148.63 673.503 1143.53 673.82C1142.5 673.862 1141.49 674.168 1140.61 674.707C1139.74 675.247 1139.03 675.999 1138.55 676.89C1138.55 677.123 1138.31 677.29 1137.97 677.29H1120.51V677.323Z" fill="white"/>
<path d="M1120.51 686.764V680.592H1137.8C1137.8 680.959 1137.8 681.359 1137.8 681.793V686.764C1137.84 687.055 1137.82 687.352 1137.72 687.632C1137.63 687.912 1137.47 688.166 1137.25 688.375C1137.04 688.583 1136.77 688.739 1136.48 688.83C1136.19 688.921 1135.88 688.945 1135.58 688.899H1122.69C1122.39 688.947 1122.08 688.924 1121.79 688.833C1121.5 688.741 1121.24 688.585 1121.03 688.376C1120.81 688.166 1120.66 687.911 1120.57 687.63C1120.48 687.35 1120.46 687.053 1120.51 686.764V686.764Z" fill="white"/>
<path d="M1164.66 686.966C1164.66 684.864 1164.66 682.762 1164.66 680.693H1181.77V681.06C1181.77 682.995 1181.77 684.964 1181.77 686.899C1181.8 687.178 1181.77 687.461 1181.68 687.727C1181.58 687.992 1181.42 688.234 1181.22 688.432C1181.01 688.631 1180.76 688.783 1180.49 688.875C1180.21 688.968 1179.92 688.999 1179.63 688.968H1166.59C1166.32 688.979 1166.06 688.934 1165.81 688.835C1165.56 688.737 1165.33 688.587 1165.15 688.397C1164.96 688.207 1164.83 687.98 1164.74 687.733C1164.66 687.486 1164.63 687.224 1164.66 686.966Z" fill="white"/>
<path d="M765.364 1350.7H741.648V1365.64H765.364V1350.7Z" fill="#455A64"/>
<path d="M796.099 1349.7H772.383V1364.64H796.099V1349.7Z" fill="#455A64"/>
<path d="M826.862 1348.69H803.146V1363.64H826.862V1348.69Z" fill="#455A64"/>
<path d="M857.632 1347.73H833.916V1362.67H857.632V1347.73Z" fill="#455A64"/>
<path d="M888.401 1346.73H864.686V1361.67H888.401V1346.73Z" fill="#455A64"/>
<path d="M919.173 1345.76H895.457V1360.7H919.173V1345.76Z" fill="#455A64"/>
<path d="M949.942 1344.76H926.227V1359.7H949.942V1344.76Z" fill="#455A64"/>
<path d="M980.704 1343.76H956.988V1358.7H980.704V1343.76Z" fill="#455A64"/>
<path d="M1011.44 1342.79H987.725V1357.73H1011.44V1342.79Z" fill="#455A64"/>
<path d="M1017.29 1374.22H735.807V1356.03L1017.29 1348.46V1374.22Z" fill="#37474F"/>
<path d="M1291.98 1302.52H827.348L901.226 968.685H1365.86L1291.98 1302.52Z" fill="#455A64"/>
<path d="M1309.17 1302.52H844.531L918.41 968.685H1383.05L1309.17 1302.52Z" fill="#37474F"/>
<path d="M1143.24 1135.01C1155.85 1123.77 1158 1106.23 1148.05 1095.83C1138.09 1085.44 1119.81 1086.13 1107.2 1097.37C1094.59 1108.61 1092.44 1126.15 1102.39 1136.54C1112.35 1146.94 1130.63 1146.25 1143.24 1135.01Z" fill="#263238"/>
<path d="M1177.77 1389.7H949.25V1372.55L1177.77 1365.44V1389.7Z" fill="#455A64"/>
<path d="M1239.89 1389.66H1117.19L1043.28 1202.6H1165.97L1239.89 1389.66Z" fill="#455A64"/>
<path d="M1260.08 1389.66H1137.38L1063.5 1202.6H1186.2L1260.08 1389.66Z" fill="#263238"/>
<path d="M727.128 1394.23H491.525C471.439 1394.23 500.514 1338.98 573.908 1317.8C647.303 1296.61 750.291 1373.52 727.128 1394.23Z" fill="#37474F"/>
<path d="M634.688 1394.24C634.877 1387.94 635.959 1381.7 637.903 1375.69C639.801 1369.62 642.46 1363.81 645.819 1358.37C649.2 1352.91 653.42 1347.97 658.334 1343.72C663.195 1339.47 668.802 1336.08 674.894 1333.71C672.37 1335.72 669.501 1337.05 667.184 1339.29L663.727 1342.26L660.27 1345.59C655.902 1349.99 652.074 1354.86 648.862 1360.11C645.599 1365.35 642.801 1370.85 640.495 1376.55C638.15 1382.32 636.21 1388.22 634.688 1394.24Z" fill="#263238"/>
<path d="M662.586 1341.65C676.58 1346.12 689.822 1352.54 701.893 1360.71C707.994 1364.77 713.515 1369.6 718.315 1375.05C720.671 1377.84 722.701 1380.87 724.365 1384.09C726.007 1387.31 726.949 1390.82 727.13 1394.4C726.306 1391.01 724.866 1387.77 722.878 1384.86C720.997 1381.94 718.795 1379.22 716.31 1376.75C711.272 1371.83 705.775 1367.36 699.888 1363.41C694.046 1359.34 687.857 1355.7 681.669 1352.1C678.558 1350.3 675.377 1348.56 672.197 1346.89C669.016 1345.22 665.801 1343.36 662.586 1341.65Z" fill="#263238"/>
<path d="M743.997 636.352C741.964 654.96 734.614 672.657 722.767 687.47C710.921 702.282 695.043 713.627 676.906 720.239C658.768 726.851 639.083 728.47 620.048 724.916C601.012 721.361 583.374 712.773 569.101 700.11L516.656 707.65L542.861 663.977C536.313 648.591 533.842 631.872 535.67 615.333C537.013 602.072 541.061 589.197 547.581 577.452C554.101 565.706 562.964 555.322 573.66 546.896C584.356 538.47 596.674 532.169 609.903 528.357C623.133 524.544 637.014 523.295 650.746 524.681C664.478 526.067 677.791 530.061 689.917 536.433C702.043 542.806 712.742 551.43 721.4 561.809C730.058 572.189 736.503 584.119 740.363 596.912C744.223 609.706 745.423 623.109 743.893 636.352H743.997Z" fill="white"/>
<path d="M743.997 636.352C741.984 654.976 734.674 672.7 722.874 687.565C719.941 691.262 716.778 694.783 713.401 698.108C709.899 701.317 706.205 704.324 702.338 707.116C694.636 712.774 686.138 717.346 677.101 720.695C668.068 724.109 658.584 726.288 648.926 727.167C644.088 727.606 639.223 727.695 634.371 727.434C629.511 727.325 624.668 726.845 619.886 725.999C600.56 722.577 582.604 714.028 568.029 701.31L569.274 701.677L516.967 709.451L513.199 710.118L515.101 706.782L541.167 662.976V664.711C535.051 650.36 532.407 634.852 533.436 619.367C534.465 603.882 539.141 588.827 547.108 575.349C555.074 561.87 566.122 550.323 579.409 541.586C592.697 532.848 607.874 527.151 623.787 524.927C639.7 522.703 655.929 524.012 671.239 528.753C686.549 533.494 700.537 541.543 712.138 552.287C723.739 563.031 732.648 576.187 738.186 590.754C743.725 605.322 745.748 620.917 744.1 636.352H743.997ZM743.997 636.352C745.638 621.147 743.648 605.781 738.18 591.434C732.712 577.086 723.912 564.138 712.453 553.582C700.995 543.026 687.183 535.144 672.078 530.54C656.973 525.935 640.976 524.731 625.314 527.02C609.783 529.256 594.988 534.894 582.065 543.502C569.284 552.181 558.599 563.426 550.744 576.465C543.014 589.57 538.452 604.191 537.399 619.237C536.433 634.312 538.973 649.404 544.832 663.41L545.212 664.31L544.694 665.111L518.35 708.717L516.483 706.048L568.893 698.975H569.619L570.138 699.442C584.126 712.08 601.483 720.709 620.266 724.365C624.951 725.273 629.701 725.831 634.475 726.033C639.24 726.35 644.022 726.35 648.787 726.033C658.353 725.328 667.767 723.329 676.756 720.094C685.789 716.943 694.293 712.525 701.993 706.982C705.85 704.215 709.544 701.241 713.055 698.074C716.443 694.784 719.618 691.297 722.562 687.631C734.492 672.785 741.913 655.031 743.997 636.352V636.352Z" fill="#263238"/>
<path d="M698.256 628.912C698.263 631.335 697.525 633.706 696.135 635.724C694.745 637.742 692.766 639.316 690.448 640.248C688.13 641.18 685.578 641.427 683.114 640.959C680.651 640.49 678.387 639.327 676.609 637.615C674.831 635.904 673.62 633.723 673.127 631.347C672.635 628.971 672.884 626.507 673.843 624.268C674.803 622.028 676.429 620.114 678.516 618.767C680.603 617.42 683.058 616.701 685.568 616.701C687.233 616.697 688.882 617.009 690.421 617.621C691.96 618.233 693.359 619.132 694.538 620.266C695.717 621.4 696.652 622.748 697.29 624.232C697.928 625.715 698.256 627.306 698.256 628.912V628.912Z" fill="#F89276"/>
<path d="M652.834 628.912C652.841 631.337 652.102 633.709 650.71 635.727C649.319 637.746 647.338 639.321 645.018 640.251C642.698 641.182 640.144 641.428 637.68 640.956C635.215 640.485 632.952 639.318 631.175 637.604C629.399 635.889 628.19 633.704 627.701 631.326C627.213 628.948 627.467 626.483 628.431 624.244C629.396 622.006 631.028 620.094 633.119 618.751C635.211 617.408 637.669 616.695 640.181 616.701C643.537 616.701 646.755 617.988 649.128 620.278C651.501 622.568 652.834 625.674 652.834 628.912V628.912Z" fill="#F89276"/>
<path d="M607.44 628.912C607.446 631.335 606.708 633.706 605.318 635.724C603.928 637.742 601.949 639.316 599.631 640.248C597.314 641.18 594.761 641.427 592.298 640.959C589.835 640.49 587.571 639.327 585.793 637.615C584.015 635.904 582.803 633.723 582.311 631.347C581.818 628.971 582.068 626.507 583.027 624.268C583.986 622.028 585.612 620.114 587.7 618.767C589.787 617.42 592.241 616.701 594.752 616.701C598.111 616.701 601.333 617.987 603.711 620.276C606.09 622.565 607.43 625.671 607.44 628.912V628.912Z" fill="#F89276"/>
<path d="M788.348 112.478C790.382 131.086 797.73 148.782 809.574 163.596C821.418 178.409 837.292 189.758 855.427 196.376C873.561 202.993 893.244 204.621 912.281 201.077C931.318 197.532 948.961 188.956 963.244 176.303L1015.58 183.709L989.414 140.037C995.416 125.815 997.979 110.461 996.91 95.1399C995.84 79.819 991.166 64.9351 983.241 51.6193C975.317 38.3035 964.352 26.9061 951.179 18.2935C938.006 9.68083 922.972 4.07951 907.219 1.91523C891.467 -0.249055 875.41 1.08065 860.27 5.80329C845.13 10.5259 831.304 18.5172 819.844 29.1698C808.384 39.8224 799.591 52.856 794.134 67.28C788.676 81.7041 786.697 97.1389 788.348 112.412V112.478Z" fill="white"/>
<path d="M819.674 29.038C831.074 18.1874 844.906 10.011 860.102 5.14007C875.298 0.269173 891.45 -1.1658 907.312 0.945984C923.285 2.97901 938.564 8.51416 951.978 17.1272C972.298 30.2176 987.305 49.6846 994.456 72.2303C1001.61 94.776 1000.46 119.014 991.216 140.839V139.104L1017.21 182.977L1019.11 186.313L1015.35 185.746L963.006 178.005L964.25 177.638C949.676 190.356 931.72 198.905 912.394 202.327C907.612 203.173 902.768 203.653 897.908 203.762C893.068 204.007 888.216 203.918 883.388 203.495C864 201.711 845.501 194.782 829.941 183.477C826.074 180.686 822.38 177.678 818.879 174.469C815.51 171.137 812.347 167.616 809.406 163.926C793.735 144.166 786.118 119.546 787.997 94.729C789.877 69.912 801.123 46.6222 819.605 29.2715L819.674 29.038ZM809.786 163.459C812.732 167.113 815.907 170.59 819.293 173.868C822.788 177.055 826.482 180.03 830.356 182.776C838.054 188.349 846.572 192.78 855.628 195.922C864.609 199.141 874.01 201.14 883.561 201.86C888.338 202.177 893.132 202.177 897.908 201.86C902.67 201.656 907.409 201.099 912.083 200.192C930.865 196.537 948.223 187.907 962.211 175.27L962.729 174.803H963.455L1015.87 181.876L1014 184.545L987.655 140.939L987.137 140.105L987.517 139.204C993.386 125.253 995.903 110.201 994.879 95.1766C993.855 80.1526 989.317 65.5477 981.605 52.4591C973.759 39.4136 963.073 28.167 950.284 19.496C937.37 10.8938 922.588 5.2562 907.07 3.01452C886.557 -0.0419713 865.566 2.9235 846.823 11.5259C828.079 20.1283 812.448 33.9704 801.959 51.2548C791.47 68.5392 786.608 88.4676 788.004 108.453C789.399 128.438 796.989 147.556 809.786 163.326V163.459Z" fill="#263238"/>
<path d="M901.779 114.315V126.927C901.807 128.183 901.572 129.432 901.087 130.597C900.602 131.763 899.877 132.823 898.956 133.711C898.036 134.6 896.938 135.299 895.73 135.767C894.522 136.235 893.228 136.463 891.926 136.435C889.316 136.426 886.815 135.422 884.969 133.64C883.124 131.859 882.083 129.446 882.073 126.927V106.909C882.073 106.708 882.281 106.708 882.281 106.508C882.281 106.308 882.073 106.308 882.073 106.141C882.143 103.641 883.204 101.261 885.037 99.4923C886.869 97.7235 889.335 96.7001 891.926 96.6327C895.025 96.8675 898.141 96.4811 901.078 95.4978C904.015 94.5144 906.71 92.9554 908.992 90.9187C911.275 88.882 913.096 86.4117 914.342 83.663C915.588 80.9143 916.231 77.9466 916.231 74.9465C916.231 71.9464 915.588 68.9787 914.342 66.23C913.096 63.4813 911.275 61.011 908.992 58.9743C906.71 56.9376 904.015 55.3786 901.078 54.3953C898.141 53.4119 895.025 53.0255 891.926 53.2603C888.022 53.2451 884.182 54.2242 880.795 56.0987C877.408 57.9732 874.594 60.6768 872.635 63.9366C871.963 65.0405 871.069 66.004 870.006 66.7709C868.944 67.5378 867.734 68.0928 866.446 68.4034C865.159 68.7139 863.82 68.7739 862.509 68.5799C861.197 68.3858 859.939 67.9415 858.807 67.2729C857.692 66.6398 856.718 65.8004 855.941 64.8029C855.163 63.8054 854.598 62.6695 854.276 61.4604C853.955 60.2514 853.885 58.9929 854.069 57.7575C854.253 56.522 854.688 55.3338 855.35 54.2612C858.848 48.4026 863.801 43.4755 869.763 39.9237C875.724 36.3719 882.508 34.3068 889.503 33.9144C896.497 33.522 903.483 34.8147 909.831 37.6759C916.179 40.5372 921.691 44.8772 925.868 50.3053C930.046 55.7333 932.759 62.0789 933.764 68.7706C934.768 75.4624 934.032 82.2901 931.623 88.6391C929.213 94.9882 925.204 100.659 919.958 105.141C914.713 109.623 908.394 112.776 901.572 114.315H901.779ZM901.779 156.787V160.123C901.812 161.381 901.58 162.631 901.097 163.8C900.613 164.968 899.889 166.029 898.967 166.918C898.046 167.808 896.946 168.507 895.736 168.973C894.525 169.44 893.229 169.664 891.926 169.632C889.313 169.632 886.807 168.63 884.959 166.847C883.112 165.064 882.073 162.645 882.073 160.123V156.787C882.109 154.276 883.159 151.877 884.999 150.101C886.839 148.326 889.324 147.313 891.926 147.278C893.224 147.265 894.511 147.502 895.713 147.975C896.915 148.448 898.006 149.148 898.924 150.033C899.842 150.919 900.567 151.973 901.057 153.132C901.548 154.292 901.793 155.534 901.779 156.787V156.787Z" fill="#F89276"/>
</svg>
