<svg width="1472" height="1292" viewBox="0 0 1472 1292" fill="none" xmlns="http://www.w3.org/2000/svg">
<path d="M0 1040.37L183.956 1039.53L367.876 1039.23L735.787 1038.7L1103.7 1039.23L1287.62 1039.53L1471.57 1040.37L1287.62 1041.17L1103.7 1041.47L735.787 1042L367.876 1041.47L183.956 1041.17L0 1040.37Z" fill="#263238"/>
<path d="M454.675 0.00012207H352.785V1039.9H454.675V0.00012207Z" fill="#263238"/>
<path d="M1118.78 0H1016.89V1039.9H1118.78V0Z" fill="#455A64"/>
<path d="M1016.89 101.977H394.605V136.904H1016.89V101.977Z" fill="#37474F"/>
<path d="M1016.89 327.718H394.605V362.645H1016.89V327.718Z" fill="#37474F"/>
<path d="M1016.89 553.459H394.605V588.386H1016.89V553.459Z" fill="#37474F"/>
<path d="M1016.89 779.198H394.605V814.125H1016.89V779.198Z" fill="#37474F"/>
<path d="M1016.89 1004.94H394.605V1039.87H1016.89V1004.94Z" fill="#37474F"/>
<path d="M659.469 138.641H466.637V327.687H659.469V138.641Z" fill="#EBEBEB"/>
<path d="M759.082 138.641H659.508V327.72H759.082V138.641Z" fill="#DBDBDB"/>
<path d="M579.438 182.542H575.369H572.281L570.527 179.172L568.071 182.542L564.737 175.57L561.58 182.542H552.563H548.458L546.949 177.905L545.545 182.542H542.879V138.641H579.438V182.542Z" fill="#DBDBDB"/>
<path d="M752.203 315.642C744.835 302.299 737.525 288.811 730.274 275.178L708.696 234.513L687.364 193.682C680.347 180.027 673.33 166.35 666.312 152.65C673.681 165.994 680.99 179.482 688.241 193.115L709.854 233.78L731.186 274.611C738.274 288.244 745.279 301.921 752.203 315.642Z" fill="#EBEBEB"/>
<path d="M752.203 152.65C745.186 166.372 738.168 180.049 731.151 193.682L709.819 234.513L688.206 275.211C680.978 288.733 673.669 302.21 666.277 315.642C673.295 301.921 680.312 288.244 687.329 274.611L708.661 233.78L730.239 193.115C737.537 179.571 744.858 166.083 752.203 152.65Z" fill="#EBEBEB"/>
<path d="M646.77 295.627H625.367V315.976H646.77V295.627Z" fill="white"/>
<path d="M780.938 435.869H588.105V553.459H780.938V435.869Z" fill="#DBDBDB"/>
<path d="M880.515 435.869H780.941V553.459H880.515V435.869Z" fill="#C7C7C7"/>
<path d="M700.872 479.736H696.802H693.715L691.96 476.366L689.504 479.736L686.206 472.797L683.048 479.736H673.996H669.891L668.382 475.099L667.014 479.736H664.312V435.869H700.872V479.736Z" fill="white"/>
<path d="M873.668 546.455C866.253 537.915 858.943 529.353 851.739 520.768L830.126 494.915L808.794 468.962C801.777 460.288 794.759 451.593 787.742 442.875C795.157 451.415 802.467 459.977 809.671 468.561L831.284 494.415L852.616 520.368C859.727 529.041 866.744 537.737 873.668 546.455Z" fill="#DBDBDB"/>
<path d="M873.668 442.875C866.65 451.593 859.633 460.288 852.616 468.962L831.284 494.915L809.671 520.768C802.443 529.353 795.134 537.915 787.742 546.455C794.759 537.737 801.777 529.041 808.794 520.368L830.126 494.415L851.739 468.595C858.967 459.988 866.276 451.415 873.668 442.875Z" fill="#DBDBDB"/>
<path d="M1467.68 1236.58C1466.8 1228.74 1372.03 1034.63 1363.51 1029.42C1360.28 1027.39 1329.72 1038.86 1293.34 1053.74L1292.18 1054.21C1284.67 1057.24 1145.77 1092.74 1145.77 1092.74L1207.24 1219.9L1351.76 1180.24L1353.97 1179.2C1353.97 1179.2 1425.19 1238.08 1435.22 1242.85C1445.26 1247.62 1468.63 1244.55 1467.68 1236.58Z" fill="#FFA698"/>
<path d="M1265.58 1061.72L1328.74 1186.44L1351.47 1180.21L1353.72 1179.21C1353.72 1179.21 1424.94 1238.08 1434.94 1242.85C1444.94 1247.63 1468.41 1244.56 1467.43 1236.72C1466.45 1228.88 1371.79 1034.73 1363.26 1029.56C1360.03 1027.52 1329.47 1038.96 1293.09 1053.88L1292 1054.34C1290.14 1055.11 1279.97 1057.91 1265.58 1061.72Z" fill="#EBEBEB"/>
<path d="M1468.49 1237.69C1467.61 1229.78 1372.63 1033.43 1364.04 1028.12C1360.81 1026.09 1329.9 1037.56 1293.02 1052.44L1353.86 1179.21C1353.86 1179.21 1425.58 1238.92 1435.65 1243.79C1445.72 1248.66 1469.4 1245.59 1468.49 1237.69Z" fill="#66C1A7"/>
<path d="M1458.88 1238.48C1442.1 1205.96 1377.86 1073.12 1363.83 1039.77C1363.83 1039.5 1363.83 1039.43 1364.07 1039.77C1381.41 1071.66 1444.77 1204.89 1459.54 1238.28C1459.75 1238.95 1459.23 1239.19 1458.88 1238.48Z" fill="#263238"/>
<path d="M1422.1 1234.42C1420.24 1230.81 1419.18 1226.87 1419 1222.85C1418.82 1218.83 1419.51 1214.81 1421.05 1211.07C1423.73 1204.27 1429.07 1198.74 1435.96 1195.62C1436.17 1195.62 1436.35 1195.89 1436.17 1196.02C1429.86 1200.13 1425.12 1206.08 1422.66 1212.98C1420.21 1219.87 1420.17 1227.34 1422.56 1234.25C1422.66 1234.48 1422.24 1234.68 1422.1 1234.42Z" fill="#263238"/>
<path d="M1363.47 1190.48C1356.91 1177.37 1354.39 1159.96 1361.79 1146.81C1362.07 1146.31 1362.81 1146.81 1362.81 1147.18C1362.03 1161.48 1362.85 1175.82 1365.26 1189.95C1365.3 1190.16 1365.25 1190.38 1365.13 1190.56C1365.01 1190.75 1364.83 1190.89 1364.61 1190.95C1364.39 1191.02 1364.16 1191 1363.95 1190.92C1363.74 1190.83 1363.57 1190.68 1363.47 1190.48V1190.48Z" fill="#263238"/>
<path d="M1372.56 1198.82C1366 1185.71 1363.47 1168.33 1370.87 1155.19C1371.16 1154.65 1371.89 1155.19 1371.89 1155.56C1371.11 1169.84 1371.94 1184.17 1374.35 1198.29C1374.38 1198.5 1374.34 1198.72 1374.22 1198.91C1374.1 1199.09 1373.91 1199.23 1373.7 1199.29C1373.48 1199.36 1373.24 1199.35 1373.04 1199.26C1372.83 1199.17 1372.66 1199.02 1372.56 1198.82V1198.82Z" fill="#263238"/>
<path d="M1381.65 1207.16C1375.09 1194.08 1372.56 1176.67 1379.96 1163.53C1380.25 1163.03 1380.98 1163.53 1380.98 1163.89C1380.2 1178.19 1381.03 1192.53 1383.44 1206.66C1383.46 1206.87 1383.41 1207.08 1383.28 1207.26C1383.16 1207.43 1382.98 1207.56 1382.76 1207.62C1382.55 1207.68 1382.32 1207.67 1382.12 1207.58C1381.91 1207.5 1381.75 1207.35 1381.65 1207.16V1207.16Z" fill="#263238"/>
<path d="M1390.74 1215.5C1384.17 1202.42 1381.68 1185.01 1389.05 1171.87C1389.33 1171.37 1390.07 1171.87 1390.07 1172.23C1389.29 1186.53 1390.11 1200.87 1392.52 1215C1392.55 1215.21 1392.49 1215.42 1392.37 1215.6C1392.25 1215.77 1392.06 1215.9 1391.85 1215.96C1391.64 1216.02 1391.41 1216.01 1391.2 1215.92C1391 1215.84 1390.83 1215.69 1390.74 1215.5V1215.5Z" fill="#263238"/>
<path d="M1334.92 1062.58C1327.9 1047.77 1352 1037.27 1359.09 1052.08C1366.18 1066.89 1342.04 1077.4 1334.92 1062.58Z" fill="#263238"/>
<path d="M1353.3 1210.93C1359.51 1199.62 1360.31 1186.11 1362.63 1173.77C1362.66 1173.49 1362.62 1173.21 1362.52 1172.95C1362.41 1172.7 1362.24 1172.46 1362.02 1172.28C1361.8 1172.1 1361.53 1171.97 1361.25 1171.9C1360.97 1171.84 1360.67 1171.84 1360.39 1171.9C1360.39 1171.67 1360.07 1171.5 1359.79 1171.63C1347.55 1178.17 1337.32 1187.65 1330.14 1199.12C1326.11 1205.79 1324.46 1216.74 1333.65 1220.87C1342.84 1225.01 1349.54 1217.57 1353.3 1210.93ZM1342 1216.57C1326.28 1221.84 1331.47 1203.86 1334.98 1198.99C1337.1 1195.87 1339.44 1192.89 1342 1190.08C1347.35 1184.35 1353.01 1178.89 1358.95 1173.7C1357.4 1179.71 1356.46 1185.78 1355.19 1191.85C1353.47 1199.06 1350.67 1213.67 1342 1216.57Z" fill="#263238"/>
<path d="M1328.18 1128.73C1319.65 1133.7 1322.43 1144.38 1327.2 1150.72C1335.58 1161.42 1346.77 1169.84 1359.65 1175.14C1359.71 1175.16 1359.77 1175.16 1359.83 1175.16C1359.89 1175.16 1359.95 1175.14 1360.01 1175.11C1360.06 1175.08 1360.11 1175.04 1360.14 1174.99C1360.18 1174.95 1360.2 1174.89 1360.21 1174.84C1361.34 1174.84 1362.63 1174 1362.25 1172.73C1358.74 1160.66 1356.35 1147.35 1348.95 1136.67C1344.64 1130.43 1336.28 1124 1328.18 1128.73ZM1352.74 1155.42C1354.67 1161.33 1356.25 1167.3 1358.42 1173.1C1352.11 1168.33 1345.62 1163.83 1339.79 1158.46C1336.97 1155.89 1334.32 1153.16 1331.86 1150.28C1328.18 1145.75 1320.92 1128.37 1337.13 1132.1C1346.28 1134.2 1350.53 1148.48 1352.85 1155.49L1352.74 1155.42Z" fill="#263238"/>
<path d="M963.388 678.422C963.388 678.422 965.95 754.514 977.949 792.009C977.949 792.009 991.036 798.681 994.966 800.883C994.966 800.883 895.532 1027.26 901.181 1114.46C903.041 1143.01 937.074 1189.95 971.353 1210.26C1032.12 1246.23 1328.84 1214.67 1328.84 1214.67L1285.79 1045.07C1285.79 1045.07 1098.19 1055.08 1093.45 1045.34C1087.45 1033.09 1124.78 937.888 1154.64 860.529C1157.62 852.723 1187.66 823.834 1184.15 771.727C1181.48 739.45 1172.74 707.891 1158.33 678.555L963.388 678.422Z" fill="#37474F"/>
<path d="M1251.55 1063.79C1210.61 1063.05 1177.28 1066.35 1136.33 1066.39H1090.16C1086.62 1066.47 1083.09 1066.15 1079.63 1065.45C1076.37 1064.94 1073.43 1063.29 1071.39 1060.82C1068.68 1056.95 1070.12 1052.04 1071.07 1047.87C1073.13 1038.73 1075.47 1029.64 1078.09 1020.59C1088.4 983.891 1101.88 947.93 1114.54 911.869L1133.77 856.292C1135.35 851.789 1136.93 847.252 1138.93 842.949C1140.83 838.939 1142.99 835.04 1145.38 831.273C1150.01 824.064 1153.74 816.36 1156.47 808.322C1167.56 773.729 1156.93 737.935 1143.98 705.276C1142.22 700.906 1140.47 696.536 1138.54 692.199C1138.54 691.899 1137.91 692.032 1138.05 692.366C1149.84 726.826 1163.91 762.687 1155.98 799.449C1154.15 808.101 1150.97 816.444 1146.54 824.201C1144.26 828.137 1141.77 831.974 1139.52 835.943C1137.32 839.995 1135.41 844.186 1133.8 848.486C1126.79 866.734 1120.75 885.181 1114.26 903.729C1101.31 940.424 1087.7 976.852 1076.93 1014.11C1074.26 1023.39 1071.77 1032.73 1069.56 1042.1C1067.95 1049.04 1064.3 1058.45 1070.65 1064.19C1075.32 1068.39 1082.61 1068.89 1088.68 1068.96C1098.89 1068.96 1109.07 1068.96 1119.28 1068.96C1160.79 1068.96 1246.5 1065.62 1251.66 1065.45C1251.89 1065.44 1252.11 1065.34 1252.26 1065.17C1252.42 1065.01 1252.5 1064.79 1252.48 1064.57C1252.47 1064.35 1252.36 1064.14 1252.19 1063.99C1252.01 1063.85 1251.79 1063.77 1251.55 1063.79V1063.79Z" fill="#263238"/>
<path d="M1297.41 1206.56C1293.41 1186.74 1289.55 1166.83 1284.95 1147.15C1280.36 1127.47 1275.34 1107.72 1269.97 1088.14C1268.43 1082.6 1266.88 1077.09 1265.3 1071.46C1264.57 1068.82 1263.83 1066.22 1263.02 1063.58C1262.35 1060.9 1261.49 1058.26 1260.46 1055.68C1260.46 1055.41 1259.94 1055.68 1259.97 1055.84C1260.54 1060.97 1261.49 1066.06 1262.81 1071.06C1263.83 1075.83 1264.78 1080.63 1265.83 1085.4C1267.98 1095.23 1270.17 1105.05 1272.39 1114.86C1276.92 1134.5 1282.04 1153.99 1287.3 1173.47C1290.32 1184.51 1293.3 1195.58 1296.35 1206.63C1296.53 1207.46 1297.55 1207.33 1297.41 1206.56Z" fill="#263238"/>
<path d="M935.25 955.735L1145.77 883.213C1148.71 875.507 1151.66 867.868 1154.54 860.395C1157.41 852.923 1187.55 823.7 1184.08 771.56C1181.43 739.29 1172.68 707.739 1158.26 678.422H963.389C963.389 678.422 965.915 754.514 977.95 791.842C977.95 791.842 991.037 798.514 994.966 800.749C994.966 800.883 962.126 875.607 935.25 955.735Z" fill="#263238"/>
<path d="M615.059 1245.83C622.989 1248.09 847.96 1241.02 856.345 1235.58C859.573 1233.58 860.38 1202.23 860.24 1164.6V1163.4C860.24 1155.62 841.609 1025.16 841.609 1025.16L684.144 1029.76L715.054 1166.53V1168.87C715.054 1168.87 630.532 1208.1 621.796 1215C613.06 1221.91 607.095 1243.59 615.059 1245.83Z" fill="#FFA698"/>
<path d="M615.055 1245.86C622.984 1248.13 847.955 1241.02 856.341 1235.58C859.569 1233.55 860.411 1202.23 860.236 1164.6V1163.4C860.236 1161.26 858.832 1150.05 856.727 1134.67L709.015 1140.14L714.91 1166.43V1168.77C714.91 1168.77 630.037 1208.1 621.476 1215C612.915 1221.91 607.09 1243.59 615.055 1245.86Z" fill="#EBEBEB"/>
<path d="M613.335 1246.76C621.37 1249.02 848.411 1241.85 857.007 1236.38C860.235 1234.31 861.077 1202.79 860.937 1164.69L714.453 1168.93C714.453 1168.93 628.773 1208.66 620.142 1215.63C611.511 1222.6 605.301 1244.49 613.335 1246.76Z" fill="#66C1A7"/>
<path d="M616.283 1238.02C654.352 1235.92 807.993 1230.91 845.78 1231.58C846.096 1231.58 846.096 1231.78 845.78 1231.81C808.133 1234.65 654.422 1238.48 616.318 1238.48C615.511 1238.62 615.476 1238.08 616.283 1238.02Z" fill="#263238"/>
<path d="M634.496 1207.39C638.725 1207.15 642.961 1207.74 646.935 1209.14C650.909 1210.53 654.535 1212.7 657.582 1215.5C663.107 1220.49 666.399 1227.31 666.775 1234.55C666.775 1234.78 666.354 1234.78 666.319 1234.55C664.764 1227.43 660.822 1220.97 655.084 1216.16C649.346 1211.35 642.122 1208.44 634.496 1207.86C634.43 1207.86 634.368 1207.84 634.322 1207.79C634.276 1207.75 634.25 1207.69 634.25 1207.63C634.25 1207.56 634.276 1207.51 634.322 1207.46C634.368 1207.42 634.43 1207.39 634.496 1207.39V1207.39Z" fill="#263238"/>
<path d="M699.789 1172.97C715.051 1172.3 732.875 1176.87 742.769 1188.42C743.155 1188.85 742.489 1189.38 742.033 1189.15C728.465 1182.95 714.247 1178.13 699.614 1174.77C699.489 1174.76 699.368 1174.73 699.258 1174.67C699.147 1174.62 699.049 1174.54 698.969 1174.45C698.89 1174.36 698.83 1174.25 698.793 1174.14C698.756 1174.02 698.743 1173.91 698.754 1173.79C698.766 1173.67 698.801 1173.55 698.86 1173.45C698.918 1173.34 698.997 1173.25 699.094 1173.17C699.19 1173.1 699.301 1173.04 699.42 1173.01C699.539 1172.97 699.665 1172.96 699.789 1172.97V1172.97Z" fill="#263238"/>
<path d="M688.176 1177.71C703.438 1177.04 721.262 1181.58 731.156 1193.15C731.542 1193.59 730.875 1194.09 730.419 1193.89C716.859 1187.67 702.638 1182.85 688 1179.51C687.749 1179.49 687.517 1179.37 687.356 1179.19C687.195 1179 687.118 1178.76 687.141 1178.52C687.164 1178.29 687.286 1178.06 687.48 1177.91C687.674 1177.76 687.925 1177.68 688.176 1177.71Z" fill="#263238"/>
<path d="M676.559 1182.44C691.821 1181.78 709.645 1186.31 719.539 1197.89C719.925 1198.32 719.258 1198.82 718.802 1198.62C705.241 1192.41 691.021 1187.59 676.383 1184.24C676.132 1184.22 675.9 1184.11 675.739 1183.92C675.578 1183.74 675.5 1183.5 675.524 1183.26C675.547 1183.02 675.669 1182.8 675.863 1182.65C676.057 1182.49 676.307 1182.42 676.559 1182.44Z" fill="#263238"/>
<path d="M664.949 1187.18C680.212 1186.51 698.035 1191.05 707.93 1202.63C708.315 1203.06 707.649 1203.56 707.193 1203.36C693.632 1197.14 679.412 1192.32 664.774 1188.98C664.649 1188.97 664.529 1188.94 664.418 1188.88C664.307 1188.83 664.209 1188.75 664.13 1188.66C664.05 1188.57 663.99 1188.46 663.953 1188.35C663.916 1188.23 663.903 1188.12 663.914 1188C663.926 1187.88 663.962 1187.76 664.02 1187.66C664.078 1187.55 664.158 1187.46 664.254 1187.38C664.35 1187.31 664.461 1187.25 664.58 1187.22C664.699 1187.18 664.825 1187.17 664.949 1187.18V1187.18Z" fill="#263238"/>
<path d="M834.872 1197.49C851.994 1196.99 852.836 1222.27 835.679 1222.77C818.522 1223.27 817.75 1197.99 834.872 1197.49Z" fill="#263238"/>
<path d="M683.927 1156.02C692.523 1165.86 705.259 1171.83 716.381 1178.61C716.639 1178.74 716.925 1178.81 717.217 1178.81C717.508 1178.82 717.798 1178.76 718.061 1178.64C718.324 1178.52 718.553 1178.34 718.731 1178.12C718.908 1177.9 719.029 1177.64 719.083 1177.37C719.328 1177.37 719.574 1177.37 719.539 1176.94C717.966 1163.65 712.738 1150.99 704.382 1140.24C699.4 1134.07 689.47 1128.43 681.962 1134.77C674.454 1141.11 678.945 1150.28 683.927 1156.02ZM682.804 1144.05C683.786 1128.23 699.154 1139.88 702.628 1144.55C704.825 1147.62 706.806 1150.83 708.557 1154.15C712.276 1160.83 714.908 1168.23 717.89 1175.37C712.662 1171.7 707.119 1168.5 701.75 1165.03C695.365 1160.93 682.278 1152.79 682.804 1144.05V1144.05Z" fill="#263238"/>
<path d="M773.33 1165.96C771.821 1156.56 760.383 1154.85 752.278 1156.59C738.658 1159.79 726.16 1166.34 716.034 1175.57C715.983 1175.6 715.942 1175.65 715.914 1175.7C715.885 1175.75 715.87 1175.81 715.87 1175.87C715.87 1175.93 715.885 1175.99 715.914 1176.04C715.942 1176.09 715.983 1176.14 716.034 1176.17C715.883 1176.41 715.794 1176.69 715.777 1176.97C715.759 1177.25 715.813 1177.53 715.933 1177.79C716.053 1178.05 716.236 1178.28 716.468 1178.45C716.699 1178.63 716.971 1178.75 717.262 1178.81C730.349 1180.31 744.173 1183.48 757.365 1181.11C765.295 1179.87 774.768 1174.87 773.33 1165.96ZM737.823 1177.21C731.367 1176.64 724.981 1175.74 718.49 1175.37C725.439 1171.48 732.594 1167.92 739.928 1164.73C743.487 1163.21 747.157 1161.94 750.91 1160.93C756.734 1159.43 776.382 1159.79 766.523 1172.57C761.049 1179.61 745.541 1177.94 737.823 1177.21V1177.21Z" fill="#263238"/>
<path d="M702.207 1155.99H878.374C878.374 1155.99 847.007 927.981 857.322 913.103C861.918 906.431 1090.61 928.348 1157.52 859.461C1218.67 796.446 1156.43 678.422 1156.43 678.422H968.72C968.72 678.422 964.895 729.028 954.685 749.243C950.37 757.916 740.661 745.54 707.821 802.618C664.174 878.643 702.207 1155.99 702.207 1155.99Z" fill="#37474F"/>
<path d="M859.816 1124.13C839.922 1123.56 819.993 1122.83 800.17 1122.86C780.346 1122.9 760.277 1123.26 740.313 1124C734.699 1124.23 718.069 1124.97 715.402 1125.17C712.676 1125.22 709.957 1125.44 707.262 1125.83C706.946 1125.83 707.017 1126.3 707.262 1126.33C711.578 1127.03 756.663 1127.53 766.557 1127.53C786.381 1127.53 806.169 1127.03 825.993 1126.37C837.267 1126.01 848.53 1125.61 859.781 1125.17C860.377 1125.13 860.447 1124.16 859.816 1124.13Z" fill="#263238"/>
<path d="M976.476 733.064C977.283 727.693 978.02 722.322 978.687 716.984C980.196 704.742 981.529 692.399 981.915 680.089C981.915 679.122 980.511 679.222 980.406 680.089C979.178 689.597 978.266 699.137 977.143 708.645C976.02 718.152 975.143 727.659 973.284 737C972.722 739.802 971.459 744.506 967.705 744.572C962.618 744.572 961.635 738.101 961.214 734.565C960.263 725.698 960.087 716.772 960.688 707.877C961.249 697.87 962.582 687.662 963.775 677.621C963.775 677.254 963.179 677.187 963.109 677.621C958.723 697.203 954.513 717.652 958.162 737.667C958.288 739.68 958.989 741.622 960.188 743.285C961.387 744.948 963.039 746.27 964.968 747.108H965.179C965.173 747.219 965.173 747.33 965.179 747.441C965.179 748.008 965.179 748.575 965.179 749.143C965.144 749.62 965.144 750.099 965.179 750.577C965.179 751.578 965.179 752.545 965.179 753.546C965.179 753.741 965.26 753.927 965.405 754.065C965.55 754.203 965.746 754.28 965.951 754.28C966.155 754.28 966.352 754.203 966.496 754.065C966.641 753.927 966.723 753.741 966.723 753.546C966.855 753.526 966.977 753.467 967.071 753.377C967.166 753.287 967.228 753.171 967.249 753.046C967.635 751.128 967.635 749.159 967.249 747.241C968.503 747.239 969.736 746.932 970.829 746.348C971.923 745.764 972.84 744.923 973.494 743.905C975.335 740.551 976.355 736.845 976.476 733.064V733.064Z" fill="#263238"/>
<path d="M957.813 747.542C972.215 756.936 985.727 767.506 998.197 779.133C998.308 779.217 998.38 779.34 998.397 779.474C998.413 779.609 998.373 779.744 998.284 779.85C998.196 779.956 998.067 780.025 997.925 780.04C997.784 780.056 997.642 780.018 997.53 779.934C983.776 769.926 969.461 759.918 956.515 749.11C956.32 748.939 956.2 748.705 956.179 748.454C956.158 748.203 956.238 747.953 956.401 747.755C956.565 747.557 956.802 747.425 957.063 747.386C957.325 747.346 957.592 747.402 957.813 747.542V747.542Z" fill="#263238"/>
<path d="M1112.12 757.248C1108.06 757.261 1104 756.971 1099.98 756.381C1096.43 755.706 1092.91 754.848 1089.45 753.812C1082.96 752.011 1075.03 749.843 1070.3 744.939C1065.7 739.587 1062.03 733.574 1059.42 727.125C1056.15 720.388 1053.99 713.208 1053.04 705.842C1053.04 705.542 1052.44 705.542 1052.47 705.842C1052.98 713.46 1054.32 721.006 1056.47 728.359C1057.65 732.011 1059.13 735.57 1060.89 739.001C1062.48 742.458 1064.6 745.673 1067.18 748.542C1072.44 753.912 1081 756.548 1088.23 757.949C1096.13 759.317 1104.22 759.317 1112.12 757.949C1112.79 758.015 1112.61 757.282 1112.12 757.248Z" fill="#263238"/>
<path d="M838.448 902.293C838.863 900.307 839.916 898.493 841.462 897.1C843.009 895.708 844.971 894.806 847.079 894.52C852.136 893.987 857.232 893.886 862.307 894.22C874.025 894.22 885.779 894.454 897.393 894.487C943.636 894.487 990.265 893.353 1035.74 884.68C1058 880.722 1079.77 874.562 1100.68 866.299C1118.22 859.026 1135.94 849.085 1146.96 833.64C1159.62 815.893 1160.61 792.642 1160.15 771.859C1159.7 749.423 1155.89 727.161 1148.85 705.742C1147.03 700.304 1145.03 694.933 1142.75 689.663C1142.75 689.329 1143.13 689.029 1143.27 689.362C1152.51 709.594 1158.63 730.986 1161.45 752.878C1162.82 763.69 1163.34 774.584 1162.99 785.47C1162.98 796.154 1161.53 806.794 1158.68 817.128C1146.68 856.024 1100.86 872.07 1063.95 881.944C1019.32 893.853 972.722 897.156 926.654 897.79C903.498 898.123 880.271 897.79 857.079 897.489C852.658 897.489 845.36 896.255 842.729 900.658C841.565 903.207 840.865 905.926 840.659 908.698C840.168 911.8 839.782 914.903 839.536 918.039C838.893 929.767 839.057 941.524 840.027 953.232C841.501 977.006 843.232 1000.79 845.22 1024.59C847.22 1048.47 850.027 1072.32 851.851 1096.24C852.307 1102.11 852.904 1107.95 853.5 1113.79C853.5 1114.46 852.342 1114.59 852.237 1113.79C845.816 1066.52 841.22 1019.08 837.957 971.546C837.15 959.804 836.238 948.028 835.887 936.286C835.13 924.897 835.991 913.463 838.448 902.293V902.293Z" fill="#263238"/>
<path d="M951.247 911.034C966.894 910.83 982.513 909.716 998.017 907.698C1012.65 905.963 1027.21 904.062 1041.73 901.727C1067 897.623 1092.82 893.12 1116.64 883.979C1129.72 879.184 1141.91 872.426 1152.75 863.964C1153.03 863.73 1153.45 864.131 1153.17 864.364C1135.13 881.044 1112.26 890.818 1088.19 897.023C1060.57 903.873 1032.41 908.571 1003.98 911.067C986.401 912.524 968.747 913.014 951.107 912.535C950.975 912.448 950.869 912.329 950.801 912.19C950.733 912.051 950.704 911.898 950.718 911.746C950.733 911.593 950.789 911.447 950.882 911.322C950.975 911.197 951.101 911.097 951.247 911.034Z" fill="#263238"/>
<path d="M1005.95 477.068C1006.47 531.877 990.826 615.041 969.248 655.339C953.81 684.128 861.92 740.771 813.116 753.515C795.853 758.051 787.257 689.832 795.573 673.119C800.625 663.112 892.445 614.641 901.848 601.297C916.128 580.982 945.074 523.337 966.476 474.066C977.879 448.079 1005.53 443.009 1005.95 477.068Z" fill="#FFA698"/>
<path d="M825.779 657.57C825.779 657.57 798.727 654.468 786.553 655.602C774.378 656.736 730.415 676.852 734.555 686.092C739.783 698.035 767.466 691.163 780.588 686.092C780.588 686.092 792.587 713.713 813.604 712.779C834.62 711.845 825.779 657.57 825.779 657.57Z" fill="#FFA698"/>
<path d="M829.045 747.74C819.502 751.81 774.101 766.722 760.487 768.19C746.874 769.657 707.367 771.192 705.122 761.518C702.876 751.844 714.384 750.409 714.384 750.409C714.384 750.409 697.613 748.541 696.315 738.467C695.017 728.392 712.981 726.891 712.981 726.891C712.981 726.891 695.894 723.789 695.438 713.547C694.982 703.306 713.262 704.774 713.262 704.774C713.262 704.774 697.508 702.639 700.736 694.099C704.631 683.858 733.226 690.963 748.137 688.261C751.646 687.628 815.818 671.215 815.818 671.215L829.045 747.74Z" fill="#FFA698"/>
<path d="M711.577 704.708C732.629 709.879 742.769 708.678 763.154 702.44C763.575 702.44 763.856 702.873 763.434 703.04C744.067 710.846 731.576 714.082 711.262 705.642C710.279 705.242 710.595 704.441 711.577 704.708Z" fill="#263238"/>
<path d="M711.226 726.192C733.576 729.761 744.593 728.561 766.451 723.523C766.767 723.523 766.908 723.957 766.451 724.057C745.4 730.729 732.909 733.631 711.086 727.393C710.314 727.159 710.314 726.192 711.226 726.192Z" fill="#263238"/>
<path d="M715.505 749.975C737.399 751.943 749.539 751.109 770.099 743.637C770.59 743.47 770.906 744.137 770.45 744.337C750.24 753.878 735.118 755.046 715.505 750.609C714.172 750.309 714.137 749.842 715.505 749.975Z" fill="#263238"/>
<path d="M737.12 688.929C750.137 696.568 766.873 688.929 779.995 684.859C780.186 684.795 780.39 684.775 780.59 684.801C780.79 684.828 780.981 684.9 781.146 685.011C781.311 685.122 781.446 685.269 781.538 685.44C781.631 685.611 781.679 685.801 781.679 685.993C787.538 697.235 799.222 711.513 813.011 713.481C813.095 713.481 813.175 713.513 813.234 713.569C813.293 713.625 813.327 713.701 813.327 713.781C813.327 713.861 813.293 713.937 813.234 713.993C813.175 714.05 813.095 714.081 813.011 714.081C797.924 713.881 785.223 700.738 779.644 688.028C766.276 692.331 749.119 699.337 737.085 689.029C736.98 688.995 737.05 688.895 737.12 688.929Z" fill="#263238"/>
<path d="M928.059 535.345L1001.25 581.313C1001.25 581.313 1010.97 490.043 1005.84 462.455C1000.09 431.398 984.793 440.972 966.337 465.391C947.882 489.81 928.059 535.345 928.059 535.345Z" fill="#66C1A7"/>
<path opacity="0.1" d="M928.059 535.345L1001.25 581.313C1001.25 581.313 1010.97 490.043 1005.84 462.455C1000.09 431.398 984.793 440.972 966.337 465.391C947.882 489.81 928.059 535.345 928.059 535.345Z" fill="black"/>
<path d="M939.287 524.401C949.462 529.038 977.881 547.051 982.548 549.987C985.039 551.555 994.687 558.127 997.178 559.661C997.494 559.861 997.178 560.295 996.828 560.095C992.056 557.193 986.968 554.724 982.162 551.855C977.355 548.986 947.777 531.64 939.076 524.734C938.936 524.601 939.287 524.267 939.287 524.401Z" fill="#263238"/>
<path d="M1185.62 705.142C1185.62 705.142 949.494 736.3 949.494 736.333C950.16 740.737 937.003 558.73 982.825 444.609C985.948 436.836 1021.91 424.159 1040.37 436.336C1121.24 489.71 1186.04 708.011 1185.62 705.142Z" fill="#66C1A7"/>
<path opacity="0.1" d="M1045.95 440.305L980.969 449.312C981.079 448.957 981.22 448.611 981.39 448.278L1044.83 439.371C1045.22 439.663 1045.59 439.974 1045.95 440.305V440.305ZM1063.84 456.651L974.162 469.327C974.025 469.651 973.92 469.986 973.847 470.328L1064.65 457.652L1063.84 456.651ZM1078.79 474.398L968.338 489.876C968.338 490.21 968.338 490.544 968.093 490.877L1079.63 475.298L1078.79 474.398ZM1091.6 492.445L963.602 510.359L963.391 511.393L1092.16 493.346L1091.6 492.445ZM1102.96 510.692L959.742 530.708C959.742 531.041 959.742 531.375 959.567 531.709L1103.42 511.693L1102.96 510.692ZM1113.49 529.073L956.725 551.023C956.725 551.357 956.725 551.691 956.725 552.024L1114.12 530.007C1113.7 529.707 1113.52 529.373 1113.35 529.073H1113.49ZM1123.1 547.554L954.199 571.206V572.206L1123.66 548.488L1123.1 547.554ZM1132.08 566.135L952.199 591.321V592.322L1132.26 567.069C1132.13 566.742 1132.03 566.408 1131.94 566.068L1132.08 566.135ZM1140.54 584.783L950.655 611.47C950.655 611.804 950.655 612.137 950.655 612.471L1141 585.784C1140.68 585.417 1140.54 585.116 1140.4 584.783H1140.54ZM1148.57 603.497L949.532 631.352C949.532 631.686 949.532 631.986 949.532 632.319L1149.03 604.398C1148.68 604.098 1148.54 603.797 1148.43 603.497H1148.57ZM1156.19 622.278L948.795 651.301C948.778 651.623 948.778 651.946 948.795 652.268L1156.54 623.179L1156.19 622.278ZM1163.45 641.093L948.444 671.116C948.409 671.437 948.409 671.762 948.444 672.083L1163.8 642.06C1163.52 641.693 1163.42 641.393 1163.31 641.093H1163.45ZM1170.47 659.941L948.48 691.031V691.965L1170.78 660.875L1170.47 659.941ZM1177.1 678.822L948.795 710.78C948.795 711.113 948.795 711.447 948.795 711.78L1177.38 679.789L1177.1 678.822ZM1183.41 697.803L949.497 730.528C949.497 730.862 949.497 731.195 949.497 731.496L1183.66 698.737C1183.41 698.437 1183.31 698.103 1183.2 697.803H1183.41Z" fill="black"/>
<path opacity="0.1" d="M1003.88 515.696L1041.03 510.692C1041.03 510.692 1048.05 546.953 1048.05 547.954C1048.05 548.954 1030.19 562.732 1028.58 562.165C1026.97 561.598 1009.39 556.961 1008.83 555.927C1008.26 554.892 1003.88 515.696 1003.88 515.696Z" fill="black"/>
<path d="M949.285 578.409H719.367V820.462H949.285V578.409Z" fill="#66C1A7"/>
<path opacity="0.1" d="M949.285 578.409H719.367V820.462H949.285V578.409Z" fill="black"/>
<path d="M600.671 820.464H719.367V578.411H600.671V820.464Z" fill="#66C1A7"/>
<path d="M814.832 630.716H819.674H823.323L825.428 626.68L828.34 630.716L832.34 622.443L836.094 630.716H846.83H851.777L853.532 625.178L855.216 630.716H858.409V578.409H814.832V630.716Z" fill="white"/>
<g opacity="0.1">
<path opacity="0.1" d="M608.844 803.784C617.662 786.57 626.375 769.312 634.983 752.01L660.736 699.937L686.173 647.63C694.594 630.194 702.933 612.681 711.189 595.089C702.418 612.303 693.705 629.571 685.05 646.896L659.297 698.936L634.035 751.243C625.498 768.701 617.101 786.214 608.844 803.784Z" fill="black"/>
<path opacity="0.1" d="M608.844 595.089C617.124 612.681 625.474 630.194 633.895 647.63L659.297 699.937L685.05 752.01C693.681 769.312 702.395 786.57 711.189 803.784C702.933 786.237 694.594 768.723 686.173 751.243L660.736 698.936L634.983 646.896C626.352 629.549 617.639 612.28 608.844 595.089Z" fill="black"/>
</g>
<path d="M987.459 630.749H757.576L719.402 578.376H949.285L987.459 630.749Z" fill="#66C1A7"/>
<g opacity="0.2">
<path opacity="0.2" d="M987.459 630.749H757.576L719.402 578.376H949.285L987.459 630.749Z" fill="black"/>
</g>
<path d="M681.263 630.783H562.883L601.056 578.409H719.401L681.263 630.783Z" fill="#66C1A7"/>
<path opacity="0.1" d="M681.263 630.783H562.883L601.056 578.409H719.401L681.263 630.783Z" fill="black"/>
<path d="M995.038 473.93C1006.65 474.964 1028.23 459.252 1034.02 442.94C1034.4 441.806 1030.76 431.331 1027 418.388C1024.72 410.515 1022.37 401.708 1020.86 393.535C1020.55 391.867 969.25 415.152 969.25 415.152C974.232 424.862 977.955 435.112 980.337 445.675C980.517 446.779 980.599 447.895 980.583 449.011C980.566 449.2 980.566 449.39 980.583 449.578C980.653 456.217 982.618 472.663 995.038 473.93Z" fill="#FFA698"/>
<path d="M980.512 449.077C980.495 449.266 980.495 449.456 980.512 449.644C982.387 449.554 984.251 449.331 986.091 448.977C1017.67 442.939 1019 403.742 1018.83 393.901C1009.49 396.804 969.145 415.151 969.145 415.151C974.126 424.861 977.849 435.111 980.232 445.675C980.427 446.799 980.521 447.938 980.512 449.077V449.077Z" fill="#263238"/>
<path d="M1018.86 328.184C1027.53 345.664 1025.46 399.872 1013.6 413.516C996.374 433.332 964.165 439.47 945.464 418.92C927.289 398.905 931.43 328.384 944.973 315.508C965.042 296.726 1005.95 302.531 1018.86 328.184Z" fill="#FFA698"/>
<path d="M969.532 367.283C969.532 367.283 969.813 367.483 969.813 367.616C969.567 371.286 969.813 375.489 973.321 376.823V377.023C969.111 376.323 968.69 370.719 969.532 367.283Z" fill="#263238"/>
<path d="M973.076 363.581C979.286 363.314 979.356 375.123 973.637 375.356C967.918 375.59 967.883 363.814 973.076 363.581Z" fill="#263238"/>
<path d="M947.285 368.048C947.285 368.048 946.969 368.215 946.969 368.381C947.144 372.018 946.653 376.221 943.18 377.455V377.689C947.46 377.088 948.022 371.484 947.285 368.048Z" fill="#263238"/>
<path d="M943.811 364.248C937.636 363.848 937.25 375.657 942.969 376.024C948.688 376.391 949.004 364.582 943.811 364.248Z" fill="#263238"/>
<path d="M977.878 358.141C976.243 357.714 974.637 357.19 973.071 356.574C971.294 356.236 969.681 355.358 968.475 354.072C968.184 353.598 968.068 353.046 968.144 352.502C968.22 351.958 968.485 351.454 968.896 351.069C969.815 350.402 970.907 349.984 972.057 349.86C973.206 349.737 974.369 349.913 975.422 350.369C977.718 350.964 979.696 352.357 980.965 354.272C981.238 354.721 981.365 355.237 981.33 355.754C981.296 356.272 981.102 356.768 980.772 357.181C980.443 357.594 979.992 357.905 979.477 358.076C978.962 358.247 978.406 358.27 977.878 358.141V358.141Z" fill="#263238"/>
<path d="M938.969 358.34C940.629 358.015 942.269 357.603 943.881 357.105C945.683 356.889 947.359 356.115 948.653 354.904C948.978 354.45 949.138 353.906 949.106 353.358C949.074 352.809 948.853 352.286 948.478 351.868C947.599 351.147 946.533 350.664 945.391 350.47C944.249 350.277 943.073 350.379 941.987 350.767C939.685 351.148 937.618 352.339 936.197 354.103C935.831 354.529 935.614 355.053 935.576 355.602C935.539 356.151 935.683 356.698 935.988 357.165C936.294 357.632 936.746 357.996 937.281 358.207C937.815 358.418 938.406 358.464 938.969 358.34V358.34Z" fill="#263238"/>
<path d="M973.353 401.173C972.441 402.041 971.529 403.208 970.125 403.342C968.691 403.341 967.276 403.033 965.985 402.441C965.985 402.441 965.739 402.441 965.809 402.641C966.367 403.358 967.118 403.919 967.982 404.265C968.846 404.612 969.792 404.73 970.721 404.609C971.512 404.401 972.219 403.971 972.751 403.376C973.283 402.782 973.614 402.049 973.704 401.273C973.774 401.14 973.458 401.04 973.353 401.173Z" fill="#263238"/>
<path d="M957.566 394.669C959.205 396.695 961.369 398.282 963.847 399.273C965.205 399.754 966.684 399.835 968.092 399.506C971.145 398.706 971.215 396.17 970.618 393.735C970.288 392.575 969.817 391.456 969.215 390.399C965.91 392.966 961.828 394.462 957.566 394.669V394.669Z" fill="#263238"/>
<path d="M963.844 399.273C965.202 399.754 966.681 399.836 968.089 399.507C971.142 398.706 971.212 396.171 970.615 393.736C968.997 393.804 967.45 394.387 966.222 395.391C964.994 396.395 964.157 397.762 963.844 399.273V399.273Z" fill="#FF99BA"/>
<path d="M936.898 333.556C938.969 328.886 941.354 324.215 944.266 323.281C947.179 322.347 949.214 329.119 955.88 329.486C964.897 329.986 969.177 322.08 981.773 321.113C999.878 319.779 1007.98 334.09 1008.65 358.508C1009.25 380.325 1023.14 382.26 1023.14 382.26C1023.14 382.26 1031.1 334.09 1016.68 318.277C1002.26 302.465 969.458 295.693 947.635 311.105C939.67 316.709 936.898 333.556 936.898 333.556Z" fill="#263238"/>
<path d="M1011.49 373.752C1011.49 373.752 1021.84 355.137 1030.58 358.44C1039.32 361.742 1033.11 387.696 1023.95 392.233C1022.82 392.894 1021.57 393.334 1020.26 393.524C1018.96 393.714 1017.62 393.652 1016.34 393.34C1015.06 393.029 1013.86 392.475 1012.81 391.711C1011.76 390.948 1010.88 389.99 1010.23 388.897L1011.49 373.752Z" fill="#FFA698"/>
<path d="M1028.58 365.914V366.148C1022.19 369.484 1019.42 375.889 1017.74 382.327C1018.04 381.638 1018.5 381.02 1019.09 380.516C1019.67 380.013 1020.36 379.635 1021.11 379.41C1021.86 379.185 1022.65 379.117 1023.43 379.212C1024.21 379.307 1024.96 379.561 1025.63 379.959C1025.67 379.974 1025.7 380 1025.72 380.032C1025.75 380.065 1025.76 380.103 1025.76 380.142C1025.76 380.181 1025.75 380.219 1025.72 380.252C1025.7 380.284 1025.67 380.31 1025.63 380.325C1024.4 380.107 1023.12 380.259 1021.99 380.761C1020.85 381.264 1019.9 382.091 1019.28 383.128C1018.25 384.852 1017.42 386.675 1016.79 388.565C1016.54 389.166 1015.42 388.999 1015.56 388.332C1014.33 379.959 1019.49 367.749 1028.58 365.914Z" fill="#263238"/>
<path d="M1071.73 478.367C1095.24 528.139 1147.24 630.151 1133.87 668.514C1116.33 718.886 1024.51 774.429 1000.76 790.007C990.406 796.679 938.899 733.997 942.057 721.588C945.215 709.178 1041.74 636.489 1046.93 628.183C1052.12 619.876 1030.3 537.279 1026.61 491.077C1021.91 432.933 1051.81 436.235 1071.73 478.367Z" fill="#FFA698"/>
<path d="M918.233 755.248C921.04 749.777 918.023 748.342 907.707 753.079C897.392 757.816 861.113 784.837 852.272 771.994C843.43 759.151 895.287 721.722 913.005 715.084C930.724 708.445 961.775 703.575 961.775 703.575C953.319 712.848 934.829 737 918.233 755.248Z" fill="#FFA698"/>
<path d="M1025.88 770.526C1000.76 795.646 971.143 828.337 931.637 839.079C927.274 840.374 922.581 840.245 918.304 838.712C900.761 843.816 892.867 837.444 892.867 837.444C874.903 837.444 867.851 829.872 867.851 829.872C867.851 829.872 847.08 835.676 841.325 824.334C834.835 811.625 865.254 805.954 879.92 793.144C913.673 763.721 953.004 713.082 961.846 703.575L1025.88 770.526Z" fill="#FFA698"/>
<path d="M938.127 785.97C928.345 794.662 917.959 802.72 907.041 810.088C894.562 817.454 881.52 823.922 868.025 829.436C867.604 829.603 867.85 830.17 868.306 830.07C895.461 821.881 919.732 806.766 938.478 786.37C938.969 785.903 938.618 785.536 938.127 785.97Z" fill="#263238"/>
<path d="M959.741 802.916C949.425 810.622 931.181 824.065 892.691 837.242C892.691 837.242 892.691 837.476 892.691 837.442C918.036 832.253 941.361 820.46 960.056 803.383C960.723 802.682 960.337 802.215 959.741 802.916Z" fill="#263238"/>
<path d="M971.18 811.959C953.11 824.468 940.058 830.173 918.551 838.646C918.551 838.646 918.551 838.913 918.551 838.879C944.234 831.774 952.724 826.403 971.846 812.559C972.373 812.025 971.881 811.492 971.18 811.959Z" fill="#263238"/>
<path d="M1030.51 554.727L1118.22 558.73C1118.22 558.73 1077.63 475.532 1058.58 454.283C1036.97 430.331 1028.83 446.076 1026.16 475.966C1023.49 505.856 1030.51 554.727 1030.51 554.727Z" fill="#66C1A7"/>
<path opacity="0.1" d="M1030.51 554.727L1118.22 558.73C1118.22 558.73 1077.63 475.532 1058.58 454.283C1036.97 430.331 1028.83 446.076 1026.16 475.966C1023.49 505.856 1030.51 554.727 1030.51 554.727Z" fill="black"/>
<path d="M1034.47 539.782C1045.7 538.848 1079.77 540.617 1085.42 540.85C1088.37 540.85 1100.23 541.951 1103.17 542.051C1103.56 542.051 1103.45 542.618 1103.17 542.618C1097.49 542.418 1091.8 542.785 1086.12 542.618C1080.44 542.451 1045.74 541.884 1034.51 540.183C1034.47 540.165 1034.44 540.138 1034.41 540.105C1034.39 540.071 1034.38 540.033 1034.37 539.992C1034.37 539.952 1034.38 539.911 1034.39 539.874C1034.41 539.838 1034.44 539.806 1034.47 539.782V539.782Z" fill="#263238"/>
<path d="M1079.03 485.506C1078.86 485.173 1079.42 484.939 1079.59 485.273C1083.88 491.945 1087.98 498.616 1091.95 505.522C1090.78 501.584 1089.24 497.754 1087.35 494.08C1087.35 494.08 1087.52 493.813 1087.63 494.08C1089.98 498.295 1091.75 502.779 1092.89 507.423C1095.66 512.193 1098.37 516.964 1101.03 521.801C1107.77 534.01 1114.72 546.22 1120.72 558.829C1120.78 558.982 1120.81 559.148 1120.79 559.313C1120.77 559.477 1120.7 559.633 1120.6 559.767C1120.5 559.901 1120.36 560.007 1120.2 560.077C1120.05 560.146 1119.87 560.176 1119.7 560.164C1116.65 559.93 1113.63 559.597 1110.61 559.196C1110.3 559.196 1110.26 558.663 1110.61 558.629C1113.14 558.429 1115.63 558.396 1118.15 558.329C1111.14 546.687 1105.07 534.677 1098.58 522.835C1092.09 510.993 1085.24 498.016 1079.03 485.506Z" fill="#263238"/>
<path d="M1025.24 519.368C1024.33 515.065 1023.39 510.761 1022.61 506.425C1023.42 509.56 1024.16 512.729 1024.89 515.899C1024.51 509.427 1024.26 502.989 1024.33 496.55H1024.51C1025.91 506.224 1026.75 515.999 1028.02 525.706C1029.28 535.414 1030.16 544.787 1031.1 554.328C1033.07 554.728 1035.07 555.062 1037.07 555.396C1037.13 555.416 1037.18 555.454 1037.22 555.505C1037.26 555.556 1037.28 555.617 1037.28 555.679C1037.28 555.741 1037.26 555.802 1037.22 555.853C1037.18 555.904 1037.13 555.942 1037.07 555.963C1034.86 555.963 1032.65 555.963 1030.44 555.963C1030.18 556.001 1029.92 555.942 1029.71 555.799C1029.5 555.655 1029.36 555.438 1029.31 555.195C1027.49 543.286 1026.09 531.31 1025.24 519.368Z" fill="#263238"/>
<path d="M675.757 988.459H343.949V1249.09H675.757V988.459Z" fill="#66C1A7"/>
<path d="M807.186 988.459H675.719V1249.13H807.186V988.459Z" fill="#66C1A7"/>
<path opacity="0.1" d="M807.186 988.459H675.719V1249.13H807.186V988.459Z" fill="black"/>
<path d="M798.136 1231.18C788.429 1212.63 778.78 1194.03 769.19 1175.37L740.665 1119.33L712.597 1063.02C703.241 1044.2 694.001 1025.3 684.879 1006.31C694.609 1024.85 704.258 1043.46 713.825 1062.12L742.315 1118.16L770.383 1174.47C779.739 1193.35 788.99 1212.25 798.136 1231.18Z" fill="#66C1A7"/>
<path d="M798.132 1006.41C788.987 1025.35 779.747 1044.26 770.415 1063.12L742.346 1119.43L713.856 1175.47C704.289 1194.15 694.641 1212.75 684.91 1231.28C694.032 1212.33 703.272 1193.43 712.628 1174.57L740.697 1118.26L769.222 1062.22C778.788 1043.54 788.425 1024.93 798.132 1006.41Z" fill="#66C1A7"/>
<path d="M533.308 1044.8H528.08H524.116L521.87 1040.43L518.713 1044.8L514.467 1035.86L510.397 1044.8H498.819H493.521L491.626 1038.83L489.802 1044.8H486.363V988.459H533.308V1044.8Z" fill="white"/>
<path d="M999.809 988.459H752.277V1249.09H999.809V988.459Z" fill="#66C1A7"/>
<path d="M1127.63 988.459H999.809V1249.09H1127.63V988.459Z" fill="#66C1A7"/>
<path opacity="0.1" d="M1127.63 988.459H999.809V1249.09H1127.63V988.459Z" fill="black"/>
<g opacity="0.1">
<path opacity="0.1" d="M981.673 1231.15C963.499 1212.62 945.488 1194.03 927.641 1175.37L874.381 1119.33L821.752 1063.02C804.279 1044.2 787.017 1025.3 769.965 1006.31C788.139 1024.85 806.15 1043.45 823.997 1062.08L877.258 1118.16L929.887 1174.47C947.336 1193.33 964.598 1212.22 981.673 1231.15Z" fill="black"/>
<path opacity="0.1" d="M981.673 1006.41C964.575 1025.36 947.313 1044.26 929.887 1063.12L877.258 1119.43L823.997 1175.47C806.174 1194.13 788.163 1212.72 769.965 1231.25C787.063 1212.35 804.326 1193.44 821.752 1174.54L874.381 1118.23L927.641 1062.15C945.465 1043.54 963.475 1024.96 981.673 1006.41Z" fill="black"/>
</g>
<path d="M1109.63 1204.99H1087.25V1235.05H1109.63V1204.99Z" fill="white"/>
<path d="M681.859 819.896H399.242V988.425H681.859V819.896Z" fill="#66C1A7"/>
<path opacity="0.1" d="M681.859 819.896H399.242V988.425H681.859V819.896Z" fill="black"/>
<path d="M809.717 819.931H681.898V988.494H809.717V819.931Z" fill="#66C1A7"/>
<path opacity="0.2" d="M809.717 819.931H681.898V988.494H809.717V819.931Z" fill="black"/>
<path d="M800.904 978.516C791.431 966.952 782.075 955.32 772.836 943.623L745.083 908.529L717.716 873.302C708.617 861.515 699.635 849.706 690.77 837.875C700.126 849.483 709.482 861.115 718.838 872.768L746.556 907.862L773.923 943.122C783.022 954.865 792.016 966.663 800.904 978.516Z" fill="#66C1A7"/>
<path d="M800.904 837.875C791.992 849.706 782.999 861.515 773.923 873.302L746.556 908.529L718.838 943.623C709.482 955.298 700.126 966.929 690.77 978.516C699.635 966.663 708.617 954.865 717.716 943.122L745.083 907.862L772.836 872.768C782.051 861.092 791.408 849.461 800.904 837.875Z" fill="#66C1A7"/>
<path d="M516.5 104.18C515.031 117.547 509.684 130.263 501.055 140.909C492.427 151.555 480.857 159.711 467.636 164.469C454.416 169.226 440.065 170.397 426.185 167.851C412.305 165.304 399.443 159.141 389.033 150.048L350.895 155.353L369.981 123.995C365.204 112.937 363.407 100.92 364.753 89.0348C366.861 69.9024 376.876 52.3496 392.596 40.238C408.315 28.1263 428.451 22.4478 448.574 24.4517C468.697 26.4557 487.158 35.9779 499.897 50.9235C512.635 65.8692 518.608 85.014 516.5 104.146V104.18Z" fill="white"/>
<path d="M516.499 104.179C514.989 117.519 509.662 130.211 501.096 140.874C498.92 143.519 496.576 146.037 494.079 148.413C491.533 150.79 488.839 153.018 486.01 155.085C474.683 163.2 461.216 168.176 447.099 169.463C443.601 169.776 440.082 169.843 436.573 169.663C433.042 169.584 429.522 169.238 426.048 168.629C412.019 166.112 398.999 159.946 388.436 150.815L389.348 151.082L351.209 156.619L348.473 157.053L349.841 154.718L368.823 123.294V124.528C364.336 114.156 362.416 102.944 363.209 91.7549C364.002 80.5659 367.488 69.6997 373.397 59.9942C379.306 50.2887 387.481 42.0034 397.291 35.7773C407.101 29.5511 418.284 25.5505 429.977 24.084C441.528 22.5444 453.296 23.5485 464.374 27.0188C475.452 30.4892 485.543 36.3331 493.869 44.0994C502.178 51.8319 508.532 61.2571 512.452 71.6643C516.372 82.0716 517.756 93.1892 516.499 104.179ZM516.499 104.179C517.732 93.2508 516.306 82.1994 512.332 71.8783C508.358 61.5573 501.943 52.2425 493.581 44.6535C485.22 37.0644 475.135 31.404 464.107 28.1093C453.079 24.8146 441.402 23.9739 429.977 25.6519C418.636 27.2477 407.833 31.2994 398.4 37.4944C389.085 43.7135 381.303 51.7837 375.594 61.1459C369.968 70.5485 366.657 81.0416 365.91 91.8361C365.203 102.615 367.037 113.408 371.279 123.427L371.559 124.061L371.173 124.661L351.981 155.986L350.613 154.051L388.892 149.08H389.418L389.804 149.414C399.997 158.482 412.644 164.673 426.328 167.294C429.741 167.946 433.201 168.348 436.679 168.495C447.153 169.17 457.657 167.702 467.484 164.192C474.069 161.941 480.266 158.77 485.869 154.785C488.685 152.797 491.379 150.659 493.939 148.38C496.436 146.027 498.779 143.531 500.956 140.907C509.602 130.262 514.981 117.551 516.499 104.179Z" fill="#263238"/>
<path d="M431.696 137.971L399.102 106.613L410.048 96.3389L429.1 114.653L468.642 55.741L481.589 63.5804L431.696 137.971Z" fill="#66C1A7"/>
<path d="M186.484 168.496C173.643 166.361 141.329 176.369 131.154 192.982C120.979 209.595 123.119 235.815 128.803 237.95C134.487 240.085 158.661 237.283 174.871 227.942C191.081 218.602 192.835 169.531 186.484 168.496Z" fill="#263238"/>
<path d="M186.521 168.563C186.942 168.563 186.977 167.762 186.521 167.795C175.363 167.996 163.61 172.065 153.154 175.435C144.452 177.699 136.347 181.677 129.366 187.11C126.131 189.875 123.57 193.277 121.861 197.08C120.152 200.883 119.337 204.994 119.471 209.127C119.281 219.108 121.768 228.97 126.699 237.783C126.699 238.016 127.331 237.783 127.225 237.783C121.296 220.369 115.787 199.019 133.646 186.21C148.803 175.034 168.767 172.999 186.521 168.563Z" fill="#263238"/>
<path d="M130.486 233.28C119.434 235.115 91.4702 256.632 87.5406 276.647C83.611 296.663 102.207 325.952 107.75 327.887C113.294 329.821 136.977 309.506 144.345 294.995C149.257 285.32 144.345 274.445 141.573 263.604C137.222 247.692 132.31 233.014 130.486 233.28Z" fill="#263238"/>
<path d="M150.871 292.326C153.222 271.677 140.065 251.928 131.855 233.714C131.855 233.514 131.434 233.714 131.504 233.714C136.381 251.295 148.38 266.773 149.573 285.321C150.169 290.745 149.383 296.225 147.282 301.3C145.182 306.374 141.828 310.894 137.504 314.476C129.469 320.681 119.224 323.817 109.751 327.453C109.154 327.687 109.751 328.554 110.207 328.354C129.083 321.715 148.45 313.609 150.871 292.326Z" fill="#263238"/>
<path d="M128.17 235.284C128.268 235.221 128.34 235.127 128.372 235.018C128.403 234.91 128.392 234.794 128.341 234.692C128.289 234.591 128.201 234.51 128.093 234.466C127.984 234.421 127.862 234.415 127.749 234.45C112.276 242.256 93.7153 253.431 85.9613 269.043C77.5407 285.923 87.5402 302.802 96.4871 317.347H96.8029C88.0314 302.569 78.6634 283.988 88.3472 267.642C96.5924 253.297 113.574 242.856 128.17 235.284Z" fill="#263238"/>
<path d="M109.753 325.349C117.401 328.685 128.945 340.06 132.313 354.104C137.997 378.123 147.33 372.819 175.574 377.756C199.432 381.892 205.958 406.678 194.169 419.755C194.169 419.755 200.52 403.909 184.205 397.204C164.697 389.198 122.454 410.548 99.2969 386.229C69.3335 354.805 109.753 325.349 109.753 325.349Z" fill="#263238"/>
<path d="M120.452 335.892C120.137 335.558 120.663 335.025 121.014 335.325C124.394 338.16 127.211 341.55 129.329 345.333C132.031 350.337 132.487 355.907 134.768 361.011C140.662 374.021 157.503 372.654 169.853 372.821C186.344 373.021 200.098 381.827 202.133 398.207C202.147 398.237 202.152 398.27 202.149 398.304C202.146 398.337 202.135 398.369 202.116 398.396C202.097 398.424 202.07 398.447 202.04 398.463C202.009 398.479 201.975 398.487 201.94 398.487C201.905 398.487 201.87 398.479 201.839 398.463C201.809 398.447 201.783 398.424 201.763 398.396C201.744 398.369 201.733 398.337 201.73 398.304C201.727 398.27 201.733 398.237 201.747 398.207C201.007 393.219 198.862 388.514 195.539 384.591C192.216 380.668 187.838 377.673 182.87 375.923C173.011 372.587 162.31 375.222 152.24 373.488C145.223 372.32 138.206 369.918 134.697 363.78C133.043 360.269 131.785 356.601 130.943 352.838C129.041 346.424 125.427 340.587 120.452 335.892V335.892Z" fill="#263238"/>
<path d="M105.612 328.52C105.612 328.52 105.997 328.52 105.857 328.754C97.0856 337.994 87.7879 347.301 85.8932 360.211C83.8231 374.089 92.1034 387.432 103.962 395.105C117.26 403.711 130.593 398.441 144.662 395.105C154.802 392.636 165.223 390.902 175.503 393.704C175.818 393.704 175.503 394.271 175.503 394.237C159.047 391.535 144.452 396.94 128.663 400.275C122.802 401.644 116.653 401.412 110.925 399.606C105.196 397.8 100.119 394.494 96.2787 390.068C76.3499 369.885 86.209 345.033 105.612 328.52Z" fill="#263238"/>
<path d="M176.24 157.822C172.485 153.685 165.714 159.29 169.573 163.426C173.433 167.563 179.959 161.925 176.24 157.822Z" fill="#66C1A7"/>
<path d="M179.992 164.794C176.273 160.691 169.466 166.295 173.361 170.399C177.255 174.502 183.746 169.098 179.992 164.794Z" fill="#66C1A7"/>
<path d="M184.943 171.132C181.189 167.029 174.417 172.6 178.276 176.736C182.136 180.873 188.767 175.268 184.943 171.132Z" fill="#66C1A7"/>
<path d="M190.726 176.604C187.007 172.5 180.201 178.105 184.095 182.208C187.99 186.311 194.481 180.74 190.726 176.604Z" fill="#66C1A7"/>
<path d="M197.501 181.173C193.747 177.069 186.976 182.674 190.835 186.777C194.694 190.88 201.22 185.309 197.501 181.173Z" fill="#66C1A7"/>
<path d="M204.728 184.409C200.974 180.306 194.202 185.877 198.062 190.013C201.921 194.15 208.447 188.545 204.728 184.409Z" fill="#66C1A7"/>
<path d="M477.592 1290.83C469.487 1293.23 232.622 1288.36 223.991 1282.89C220.657 1280.85 240.972 1067.52 240.972 1067.52L391.175 1070.26L374.088 1212.93C374.088 1212.93 461.487 1252.33 470.329 1259.3C479.171 1266.28 485.732 1288.43 477.592 1290.83Z" fill="#FFA698"/>
<path d="M477.625 1290.83C469.52 1293.23 232.62 1288.36 223.989 1282.85C222.936 1282.25 222.621 1260.57 226.41 1232.38C269.355 1239.22 422.645 1261.6 434.61 1254.93C442.925 1250.26 435.557 1242.99 428.715 1238.25C448.293 1247.53 466.573 1256.43 470.327 1259.44C479.134 1266.27 485.695 1288.46 477.625 1290.83Z" fill="#263238"/>
<path d="M378.333 1178.74L230.972 1176.77C230.972 1176.77 260.163 840.947 259.041 834.475C257.286 826.269 152.66 436.135 152.66 436.135H293.425C293.425 436.135 404.402 799.748 408.402 834.742C414.857 891.319 378.333 1178.74 378.333 1178.74Z" fill="#37474F"/>
<path d="M244.092 1145.11C252.828 1144.51 261.635 1144.61 270.371 1144.51C279.107 1144.41 287.914 1144.51 296.615 1144.51C314.158 1144.68 331.701 1144.95 349.244 1145.41C354.016 1145.41 358.788 1145.68 363.594 1145.88C368.401 1146.08 373.804 1146.95 378.892 1147.12C378.976 1147.12 379.056 1147.15 379.115 1147.2C379.174 1147.26 379.208 1147.34 379.208 1147.42C379.208 1147.5 379.174 1147.57 379.115 1147.63C379.056 1147.69 378.976 1147.72 378.892 1147.72C374.576 1147.72 370.296 1148.35 365.98 1148.48C361.665 1148.62 357.068 1148.48 352.612 1148.48H326.368C308.825 1148.48 291.282 1148.12 273.915 1147.45C264.056 1147.05 254.091 1146.95 244.267 1145.98C244.146 1146 244.021 1145.98 243.919 1145.91C243.817 1145.85 243.746 1145.75 243.723 1145.63C243.7 1145.52 243.726 1145.4 243.795 1145.3C243.864 1145.2 243.971 1145.14 244.092 1145.11V1145.11Z" fill="#263238"/>
<path d="M183.641 467.659C196.237 510.058 207.745 552.824 219.008 595.557C230.27 638.29 241.533 681.09 252.725 723.856C258.339 745.272 263.941 766.667 269.532 788.039C274.97 808.855 281.32 829.804 282.654 851.421C283.987 873.037 281.11 895.355 279.145 917.138C277.18 938.921 275.286 960.905 273.251 982.822C269.216 1026.59 265.356 1070.42 260.339 1114.12C259.743 1119.59 259.111 1125.06 258.515 1130.54C258.515 1131 257.708 1131 257.743 1130.54C260.795 1086.7 263.988 1042.9 267.672 999.134C269.496 977.229 271.368 955.334 273.286 933.451C275.18 911.6 277.847 889.65 278.584 867.733C279.321 845.816 275.075 824.367 269.461 803.084C263.848 781.8 258.409 761.218 252.901 740.269C241.627 697.547 230.399 654.781 219.218 611.97C206.728 564.066 194.237 516.096 183.22 467.859C183.206 467.833 183.198 467.804 183.196 467.775C183.194 467.745 183.198 467.716 183.207 467.688C183.217 467.66 183.233 467.635 183.253 467.612C183.273 467.59 183.298 467.572 183.325 467.559C183.353 467.546 183.383 467.538 183.414 467.536C183.445 467.534 183.476 467.537 183.505 467.547C183.534 467.556 183.562 467.571 183.585 467.59C183.608 467.609 183.627 467.633 183.641 467.659V467.659Z" fill="#263238"/>
<path d="M152.66 436.17C152.66 436.17 197.57 603.499 228.972 721.29L288.864 436.17H152.66Z" fill="#263238"/>
<path d="M300.723 1291.33C292.618 1293.76 55.7528 1288.89 47.1217 1283.39C43.7885 1281.35 56.1388 1067.92 56.1388 1067.92L204.377 1070.66L197.36 1213.47C197.36 1213.47 284.759 1252.83 293.6 1259.84C302.442 1266.84 308.828 1288.96 300.723 1291.33Z" fill="#FFA698"/>
<path d="M300.719 1291.33C292.615 1293.73 55.7495 1288.89 47.1183 1283.39C46.0657 1282.76 46.3113 1261.67 47.1183 1232.88C90.0635 1239.72 245.74 1262.14 257.634 1255.43C265.949 1250.8 258.616 1243.53 251.775 1238.75C271.353 1248.03 289.632 1256.97 293.387 1259.97C302.228 1266.78 308.824 1288.96 300.719 1291.33Z" fill="#263238"/>
<path d="M288.862 435.968C288.862 435.968 284.757 499.95 268.687 550.489C267.389 554.659 265.986 558.762 264.512 562.699C250.305 567.947 236.634 574.423 223.672 582.047C223.672 582.047 213.532 826.768 213.708 841.98C214.374 898.991 198.971 1175.94 198.971 1175.94L50.2422 1174.57C50.2422 1174.57 65.68 861.395 65.7502 840.579C65.7502 807.22 96.9416 436.135 96.9416 436.135L288.862 435.968Z" fill="#37474F"/>
<path d="M256.374 522.036L258.058 511.428C259.111 504.756 260.514 498.484 261.567 492.013C264.268 477.368 267.11 462.657 270.514 448.112C270.514 447.779 271.251 447.845 271.18 448.112C270.584 453.983 269.882 459.854 269.005 465.692C268.128 471.53 267.531 477.401 266.654 483.239C264.935 494.815 263.146 506.59 261.181 517.966C260.374 522.403 257.462 530.375 264.198 531.743C269.496 532.844 273.426 527.874 274.97 523.704C276.611 518.47 277.785 513.113 278.478 507.691C279.601 501.853 280.548 495.982 281.425 490.111C283.32 477.301 285.425 464.525 287.601 451.782C287.601 451.415 288.302 451.515 288.267 451.782C287.974 464.898 286.979 477.992 285.285 491.012C284.408 497.25 283.46 503.455 282.338 509.659C281.666 515.611 280.143 521.447 277.812 527.006C276.865 529.202 275.348 531.134 273.403 532.622C271.458 534.109 269.148 535.104 266.689 535.513H266.374C266.438 535.552 266.492 535.606 266.528 535.671C266.565 535.735 266.584 535.807 266.584 535.88C266.584 537.981 266.584 540.083 266.338 542.151C266.093 544.219 265.672 546.221 265.251 548.256C264.858 550.326 264.307 552.367 263.602 554.361C263.216 555.295 262.865 556.229 262.409 557.163C261.953 558.097 261.251 558.831 260.655 559.731C260.444 560.098 259.988 559.731 259.953 559.498C259.953 559.164 259.953 558.831 259.953 558.497C259.918 557.897 259.918 557.296 259.953 556.696C260.109 555.696 260.32 554.705 260.584 553.727C261.04 551.759 261.602 549.79 262.163 547.822C262.725 545.854 263.146 543.919 263.672 541.951C264.198 539.983 264.935 537.981 265.426 535.946C265.426 535.946 265.426 535.946 265.426 535.746C263.445 535.836 261.482 535.347 259.801 534.346C258.12 533.344 256.802 531.877 256.023 530.142C255.419 527.455 255.539 524.666 256.374 522.036Z" fill="#263238"/>
<path d="M211.639 587.053C216.094 583.818 220.783 580.886 225.673 578.28C230.804 575.32 236.137 572.69 241.637 570.407C252.373 565.97 263.461 562.934 274.583 559.465C274.899 559.465 275.109 559.865 274.793 559.999C264.057 564.068 253.742 569.473 243.216 574.31C238.093 576.689 232.924 578.913 227.708 580.982C222.515 583.183 217.182 585.752 211.954 587.653C211.639 587.887 211.323 587.286 211.639 587.053Z" fill="#263238"/>
<path d="M127.712 497.917C135.281 497.829 142.809 496.866 150.132 495.048C153.641 494.214 156.834 493.18 160.132 492.146C163.415 491.286 166.49 489.824 169.184 487.842C174.272 483.639 176.657 477.067 178.868 471.163C181.284 464.622 183.242 457.935 184.727 451.147C184.727 451.068 184.76 450.991 184.82 450.935C184.879 450.879 184.959 450.847 185.043 450.847C185.127 450.847 185.207 450.879 185.266 450.935C185.325 450.991 185.359 451.068 185.359 451.147C185.538 458.877 184.51 466.589 182.306 474.032C180.482 480.337 178.026 487.375 172.658 491.812C166.698 496.074 159.543 498.558 152.097 498.951C143.931 499.865 135.675 499.764 127.537 498.651C127.464 498.606 127.408 498.542 127.375 498.465C127.342 498.389 127.335 498.306 127.354 498.225C127.373 498.145 127.418 498.073 127.482 498.017C127.546 497.962 127.627 497.927 127.712 497.917Z" fill="#263238"/>
<path d="M78.8399 1002.4C81.3661 957.748 84.0326 913.069 86.8395 868.368C92.2427 779.466 97.3653 690.531 103.365 601.496C106.874 551.457 110.101 501.185 114.242 451.08C114.269 450.989 114.326 450.91 114.406 450.853C114.485 450.796 114.581 450.765 114.68 450.765C114.779 450.765 114.876 450.796 114.955 450.853C115.034 450.91 115.092 450.989 115.119 451.08C111.259 540.716 105.646 630.051 100.207 719.52C94.7689 808.989 89.2254 897.257 83.1906 986.125C80.0328 1036.43 75.8576 1086.47 72.6648 1136.51C72.6813 1136.55 72.6863 1136.6 72.6792 1136.65C72.6721 1136.7 72.6531 1136.74 72.6239 1136.78C72.5947 1136.82 72.5561 1136.85 72.5114 1136.87C72.4666 1136.89 72.4169 1136.91 72.3666 1136.91C72.3162 1136.91 72.2665 1136.89 72.2217 1136.87C72.177 1136.85 72.1384 1136.82 72.1092 1136.78C72.08 1136.74 72.061 1136.7 72.0539 1136.65C72.0468 1136.6 72.0518 1136.55 72.0683 1136.51C74.4893 1091.81 76.1734 1047.11 78.8399 1002.4Z" fill="#263238"/>
<path d="M56.9798 1147.18C65.6811 1146.58 74.5228 1146.68 83.2241 1146.58C91.9254 1146.48 100.767 1146.58 109.468 1146.58C127.011 1146.75 144.554 1147.02 162.097 1147.48C166.869 1147.48 171.676 1147.75 176.447 1147.95C181.219 1148.15 186.657 1149.02 191.745 1149.18C191.829 1149.18 191.909 1149.22 191.968 1149.27C192.027 1149.33 192.061 1149.4 192.061 1149.48C192.061 1149.56 192.027 1149.64 191.968 1149.7C191.909 1149.75 191.829 1149.78 191.745 1149.78C187.464 1149.78 183.149 1150.42 178.833 1150.55C174.518 1150.69 169.921 1150.55 165.466 1150.55C156.729 1150.55 147.923 1150.55 139.256 1150.55C121.713 1150.55 104.17 1150.22 86.6274 1149.52C76.7332 1149.12 66.7688 1149.02 56.9447 1148.08C56.8825 1148.08 56.8214 1148.07 56.7648 1148.04C56.7082 1148.02 56.6573 1147.98 56.6149 1147.94C56.5726 1147.9 56.5396 1147.85 56.5179 1147.79C56.4963 1147.73 56.4863 1147.68 56.4886 1147.62C56.4909 1147.56 56.5055 1147.5 56.5314 1147.44C56.5573 1147.39 56.5941 1147.34 56.6397 1147.3C56.6854 1147.26 56.7389 1147.23 56.7972 1147.21C56.8556 1147.19 56.9176 1147.18 56.9798 1147.18Z" fill="#263238"/>
<path d="M229.254 291.358C243.534 325.051 300.268 433.968 337.529 441.674C362.089 446.711 460.786 437.604 477.873 415.387C485.276 405.713 472.75 338.194 459.558 340.863C446.366 343.532 367.177 353.506 357.458 350.871C347.739 348.236 274.83 268.374 247.569 248.559C200.553 214.332 221.57 273.211 229.254 291.358Z" fill="#FFA698"/>
<path d="M315.707 308.003L253.605 342.93C253.605 342.93 227.466 295.627 217.256 264.67C207.046 233.713 215.817 219.569 253.289 250.359C275.311 268.346 296.156 287.597 315.707 308.003V308.003Z" fill="#66C1A7"/>
<path d="M250.935 330.787C259.168 325.116 267.554 319.634 276.091 314.341C280.267 311.739 284.442 309.07 288.687 306.569C292.933 304.067 297.669 301.631 302.055 299.029C302.084 299.003 302.119 298.983 302.158 298.97C302.196 298.958 302.237 298.954 302.277 298.957C302.317 298.961 302.356 298.974 302.391 298.993C302.426 299.013 302.456 299.039 302.479 299.071C302.502 299.103 302.518 299.139 302.525 299.177C302.532 299.215 302.53 299.253 302.52 299.291C302.509 299.328 302.491 299.363 302.465 299.392C302.439 299.422 302.407 299.446 302.371 299.463C298.231 302.132 294.301 305.067 290.161 307.769C286.021 310.472 281.53 313.174 277.214 315.842C268.7 321.135 260.034 326.239 251.215 331.154C250.97 331.288 250.689 330.954 250.935 330.787Z" fill="#263238"/>
<path d="M312.438 478.936L298.404 403.645C298.404 403.645 319.982 367.851 307.456 342.131C301.14 329.121 245.705 248.125 222.373 232.046C200.479 216.935 168.691 233.08 156.867 244.923C111.255 290.558 99.1157 374.723 82.7656 498.084L312.438 478.936Z" fill="#66C1A7"/>
<path d="M311.252 349.602C309.52 344.186 306.967 339.039 303.673 334.324C302.585 332.556 300.165 328.886 297.217 324.616C296.396 322.557 295.459 320.542 294.41 318.578C292.681 315.683 291.123 312.699 289.744 309.638C289.744 309.338 289.113 309.638 289.288 309.838C290.756 312.764 292.068 315.759 293.218 318.812C288.27 311.673 283.078 304.334 280.832 301.332C280.832 301.065 280.236 301.332 280.411 301.565C285.148 307.47 300.691 333.356 304.445 339.928C308.065 346.42 309.933 353.664 309.883 361.011C309.791 368.628 308.754 376.208 306.796 383.595C306.585 384.195 307.252 384.529 307.498 383.928C309.784 378.592 311.272 372.978 311.918 367.249C312.816 361.377 312.591 355.398 311.252 349.602V349.602Z" fill="#263238"/>
<path d="M218.376 297.995C218.376 297.995 204.342 283.217 215.815 274.977C227.288 266.738 238.446 283.484 238.446 283.484L218.376 297.995Z" fill="#455A64"/>
<path d="M326.969 393.971L330.478 413.152L331.636 419.457L325.496 416.755L306.97 408.515L217.992 297.396L238.061 282.885L327.039 394.004L326.969 393.971Z" fill="#455A64"/>
<path d="M330.404 413.151L331.562 419.456L325.422 416.754L330.404 413.151Z" fill="#37474F"/>
<path d="M239.134 281.063L215.715 298.02L219.243 302.425L242.663 285.469L239.134 281.063Z" fill="#263238"/>
<path d="M243.048 285.944L219.629 302.9L223.158 307.306L246.577 290.349L243.048 285.944Z" fill="#263238"/>
<path d="M223.184 307.302L230.727 301.832L258.761 345.032L255.849 346.9L223.184 307.302Z" fill="#263238"/>
<path d="M135.819 269.173C79.6816 335.891 18.5268 446.877 49.1217 467.993C77.1905 487.241 172.87 461.721 232.411 435.435C243.743 430.431 190.308 335.358 178.799 342.029C166.715 349.048 154.176 355.332 141.257 360.844C137.959 361.911 154.941 339.527 172.028 287.087C189.43 233.646 167.993 230.777 135.819 269.173Z" fill="#FFA698"/>
<path d="M326.686 325.886C327.493 337.228 297.881 336.728 297.881 336.728C302.359 339.175 305.797 343.033 307.599 347.636C310.371 355.876 297.986 363.615 297.986 363.615C302.067 367.074 304.964 371.618 306.301 376.659C308.126 384.798 296.793 394.305 296.793 394.305C298.712 399.447 298.613 405.074 296.512 410.151C290.372 423.495 266.83 425.129 252.479 428.899C236.448 433.401 220.82 439.112 205.745 445.979L172.062 345.535C172.062 345.535 232.796 306.238 250.48 306.004C265.391 305.871 325.458 308.506 326.686 325.886Z" fill="#FFA698"/>
<path d="M297.601 336.392C281.742 333.056 265.006 333.056 248.902 333.623C248.827 333.623 248.756 333.651 248.703 333.701C248.651 333.751 248.621 333.819 248.621 333.89C248.621 333.961 248.651 334.029 248.703 334.079C248.756 334.129 248.827 334.157 248.902 334.157C264.936 333.59 281.532 337.092 297.531 337.126C297.582 337.13 297.633 337.125 297.681 337.111C297.73 337.096 297.775 337.073 297.814 337.042C297.853 337.011 297.885 336.973 297.909 336.93C297.933 336.887 297.947 336.84 297.952 336.792C297.957 336.744 297.951 336.695 297.936 336.649C297.921 336.603 297.896 336.56 297.864 336.523C297.831 336.486 297.791 336.455 297.746 336.433C297.701 336.41 297.652 336.396 297.601 336.392Z" fill="#263238"/>
<path d="M297.495 362.582C293.804 362.114 290.063 362.114 286.372 362.582C282.443 362.882 278.548 363.216 274.619 363.616C266.794 364.416 258.97 365.417 251.216 366.585C250.865 366.585 250.865 367.152 251.216 367.119C259.04 366.351 266.865 365.651 274.689 365.184C278.618 364.95 282.548 364.717 286.443 364.55C290.166 364.602 293.883 364.267 297.53 363.549C297.625 363.503 297.705 363.432 297.759 363.345C297.813 363.257 297.84 363.156 297.837 363.055C297.833 362.953 297.799 362.855 297.738 362.771C297.678 362.687 297.593 362.621 297.495 362.582V362.582Z" fill="#263238"/>
<path d="M296.479 394.269C293.135 393.926 289.756 394.118 286.479 394.837L275.953 396.104C268.936 396.905 261.673 397.705 254.516 398.273C254.165 398.273 254.2 398.84 254.516 398.806C261.779 398.273 269.076 397.806 276.339 397.205C279.848 396.938 283.356 396.605 286.865 396.271C290.149 396.273 293.407 395.708 296.479 394.603C296.508 394.585 296.531 394.56 296.548 394.531C296.564 394.502 296.573 394.469 296.573 394.436C296.573 394.403 296.564 394.371 296.548 394.342C296.531 394.312 296.508 394.288 296.479 394.269V394.269Z" fill="#263238"/>
<path d="M152.589 353.606L91.6797 316.912C91.6797 316.912 124.204 273.345 148.589 250.661C172.974 227.976 190.201 228.977 178.342 274.712C171.456 301.485 162.855 327.832 152.589 353.606V353.606Z" fill="#66C1A7"/>
<path d="M101.859 309.206C110.911 313.654 119.846 318.268 128.665 323.05C133.015 325.418 137.401 327.753 141.682 330.222C145.962 332.691 150.383 335.559 154.804 338.095C155.12 338.295 154.804 338.762 154.558 338.595C150.172 336.293 145.611 334.292 141.225 331.923C136.84 329.555 132.243 327.086 127.788 324.618C118.946 319.814 110.245 314.777 101.649 309.539C101.403 309.206 101.613 308.939 101.859 309.206Z" fill="#263238"/>
<path d="M152.589 353.906C155.501 344.165 159.606 334.825 163.115 325.251C166.624 315.677 170.132 305.936 173.08 296.228C173.066 296.198 173.06 296.165 173.063 296.132C173.066 296.098 173.077 296.067 173.096 296.039C173.116 296.011 173.142 295.988 173.172 295.972C173.203 295.957 173.238 295.948 173.272 295.948C173.307 295.948 173.342 295.957 173.373 295.972C173.403 295.988 173.429 296.011 173.449 296.039C173.468 296.067 173.479 296.098 173.482 296.132C173.485 296.165 173.479 296.198 173.465 296.228C172.202 301.132 171.045 306.236 169.606 310.973C168.904 313.375 168.097 315.81 167.29 318.179C167.817 317.311 168.308 316.444 168.869 315.577C170.581 313.018 172.431 310.546 174.413 308.171C174.413 308.171 174.729 308.171 174.658 308.338C173.272 311.069 171.738 313.73 170.062 316.311C168.869 318.179 167.536 319.98 166.273 321.815L164.764 325.885C161.805 335.576 157.918 344.989 153.151 354.006C152.975 354.34 152.519 354.206 152.589 353.906Z" fill="#263238"/>
<path d="M138.874 361.512C123.331 369.185 105.753 380.56 96.7708 389.567C96.4901 389.834 96.7708 390.268 97.1217 390.034C106.104 383.362 132.769 367.884 139.646 363.514C141.786 362.146 143.33 359.244 138.874 361.512Z" fill="#263238"/>
<path d="M412.122 447.812L288.059 450.347L342.582 297.829L466.646 295.294L412.122 447.812Z" fill="#EBEBEB"/>
<path d="M420.611 447.644L296.547 450.146L351.07 297.662L475.134 295.127L420.611 447.644Z" fill="#37474F"/>
<path d="M364.264 297.396C363.465 300.053 361.6 302.305 359.072 303.668C357.914 304.302 357.563 302.834 358.721 302.233C360.329 301.341 361.568 299.952 362.229 298.297C362.229 297.997 362.44 297.697 362.51 297.43C362.77 296.489 362.77 295.501 362.51 294.561C362.411 294.148 362.163 293.782 361.808 293.527V293.527H361.563C361.286 293.463 360.997 293.463 360.721 293.527C360.183 293.713 359.701 294.023 359.317 294.427C358.836 294.907 358.423 295.446 358.089 296.029L357.563 296.896V297.096C357.55 297.196 357.55 297.297 357.563 297.396C357.551 297.474 357.551 297.552 357.563 297.63H355.809C356.198 296.573 356.742 295.574 357.423 294.661C357.932 293.871 358.617 293.196 359.429 292.683C360.241 292.17 361.16 291.832 362.124 291.692C362.825 291.672 363.508 291.905 364.035 292.344C364.563 292.784 364.895 293.397 364.966 294.06C365.025 295.21 364.784 296.356 364.264 297.396V297.396Z" fill="#C7C7C7"/>
<path d="M373.983 297.195C373.184 299.852 371.319 302.104 368.79 303.466C367.632 304.1 367.282 302.632 368.439 302.032C370.039 301.13 371.274 299.744 371.948 298.096C372.062 297.816 372.145 297.525 372.194 297.228C372.471 296.29 372.471 295.298 372.194 294.359C372.08 293.945 371.82 293.579 371.457 293.325V293.325H371.211C370.925 293.245 370.62 293.245 370.334 293.325C369.796 293.512 369.314 293.821 368.931 294.226C368.278 294.996 367.703 295.823 367.211 296.695V296.895C367.203 297.006 367.203 297.117 367.211 297.228C367.196 297.294 367.196 297.362 367.211 297.428H365.457C365.847 296.372 366.39 295.373 367.071 294.459C367.58 293.669 368.265 292.994 369.077 292.481C369.889 291.969 370.809 291.631 371.773 291.491C372.472 291.463 373.155 291.694 373.679 292.136C374.203 292.578 374.525 293.195 374.579 293.859C374.685 295.001 374.48 296.15 373.983 297.195Z" fill="#C7C7C7"/>
<path d="M383.666 296.996C383.289 298.315 382.638 299.549 381.752 300.626C380.867 301.703 379.764 302.601 378.509 303.268C377.351 303.902 377 302.434 378.123 301.833C379.728 300.937 380.965 299.549 381.631 297.897C381.631 297.63 381.807 297.33 381.877 297.03C382.154 296.092 382.154 295.099 381.877 294.161C381.764 293.746 381.503 293.381 381.14 293.127V293.127C381.059 293.144 380.976 293.144 380.895 293.127C380.608 293.046 380.304 293.046 380.018 293.127C379.479 293.313 378.998 293.623 378.614 294.027C378.151 294.514 377.751 295.052 377.421 295.629C377.225 295.906 377.049 296.196 376.895 296.496V296.729C376.882 296.829 376.882 296.93 376.895 297.03C376.895 297.03 376.895 297.03 376.895 297.23H375.105C375.51 296.18 376.053 295.182 376.719 294.261C377.244 293.483 377.933 292.818 378.742 292.307C379.552 291.796 380.464 291.45 381.421 291.292C382.124 291.264 382.812 291.494 383.341 291.935C383.87 292.376 384.2 292.994 384.263 293.66C384.355 294.802 384.15 295.948 383.666 296.996V296.996Z" fill="#C7C7C7"/>
<path d="M393.385 296.794C393.007 298.113 392.357 299.347 391.471 300.424C390.585 301.501 389.483 302.399 388.227 303.065C387.035 303.699 386.684 302.231 387.842 301.631C389.45 300.739 390.689 299.35 391.35 297.695C391.46 297.422 391.553 297.143 391.631 296.861C391.909 295.911 391.909 294.908 391.631 293.958C391.532 293.546 391.283 293.18 390.929 292.924C390.929 292.924 390.929 292.924 390.929 292.924H390.543C390.257 292.842 389.952 292.842 389.666 292.924C389.131 293.117 388.65 293.425 388.263 293.825C387.788 294.303 387.387 294.842 387.07 295.426C386.866 295.711 386.69 296.012 386.543 296.327V296.527C386.532 296.627 386.532 296.727 386.543 296.827C386.543 296.827 386.543 296.827 386.543 297.027H384.789C385.194 295.988 385.736 295.001 386.403 294.092C386.912 293.298 387.596 292.619 388.408 292.101C389.219 291.583 390.139 291.238 391.104 291.09C391.808 291.061 392.495 291.291 393.025 291.732C393.554 292.174 393.884 292.791 393.946 293.458C394.05 294.597 393.857 295.742 393.385 296.794Z" fill="#C7C7C7"/>
<path d="M403.104 296.627C402.305 299.284 400.44 301.536 397.911 302.899C396.754 303.499 396.403 302.031 397.561 301.464C399.163 300.55 400.398 299.153 401.069 297.495C401.179 297.222 401.272 296.943 401.35 296.661C401.61 295.709 401.61 294.71 401.35 293.758C401.258 293.352 401.007 292.994 400.648 292.758H400.403C400.128 292.676 399.835 292.676 399.56 292.758C399.025 292.95 398.545 293.258 398.157 293.658C397.683 294.145 397.271 294.682 396.929 295.26L396.403 296.16V296.36C396.39 296.46 396.39 296.561 396.403 296.661C396.403 296.661 396.403 296.661 396.403 296.861H394.648C395.039 295.815 395.582 294.827 396.262 293.925C396.784 293.142 397.471 292.47 398.28 291.953C399.09 291.436 400.004 291.085 400.964 290.923C401.665 290.903 402.348 291.136 402.875 291.575C403.403 292.015 403.735 292.628 403.806 293.291C403.86 294.441 403.619 295.586 403.104 296.627V296.627Z" fill="#C7C7C7"/>
<path d="M412.999 296.43C412.189 299.082 410.327 301.33 407.806 302.701C406.648 303.302 406.297 301.834 407.455 301.267C409.064 300.36 410.302 298.96 410.964 297.297C411.078 297.029 411.16 296.749 411.209 296.463C411.486 295.514 411.486 294.51 411.209 293.561C411.103 293.161 410.855 292.807 410.508 292.56V292.56H410.262C409.976 292.479 409.671 292.479 409.385 292.56C408.854 292.761 408.375 293.068 407.981 293.461C407.518 293.948 407.118 294.485 406.788 295.062C406.592 295.351 406.416 295.652 406.262 295.963V296.163C406.249 296.263 406.249 296.363 406.262 296.463C406.247 296.529 406.247 296.597 406.262 296.663H404.508C404.898 295.618 405.441 294.629 406.122 293.728C406.643 292.944 407.33 292.272 408.14 291.756C408.949 291.239 409.863 290.888 410.823 290.725C411.523 290.697 412.206 290.929 412.73 291.371C413.253 291.812 413.576 292.43 413.63 293.094C413.725 294.239 413.508 295.388 412.999 296.43Z" fill="#C7C7C7"/>
<path d="M422.506 296.227C421.722 298.882 419.869 301.135 417.349 302.499C416.191 303.099 415.84 301.665 416.998 301.064C417.948 300.564 418.774 299.877 419.422 299.049C420.069 298.22 420.523 297.269 420.752 296.261C421.029 295.311 421.029 294.308 420.752 293.358C420.648 292.948 420.385 292.591 420.015 292.358H419.77C419.483 292.277 419.179 292.277 418.892 292.358C418.362 292.558 417.883 292.865 417.489 293.258C417.026 293.745 416.626 294.283 416.296 294.859C416.086 295.16 415.945 295.46 415.77 295.76V295.96C415.757 296.06 415.757 296.161 415.77 296.261C415.77 296.261 415.77 296.261 415.77 296.461H413.98C414.385 295.421 414.927 294.434 415.594 293.525C416.107 292.738 416.793 292.065 417.604 291.553C418.416 291.04 419.334 290.7 420.296 290.556C420.994 290.527 421.676 290.753 422.205 291.187C422.733 291.621 423.067 292.231 423.138 292.891C423.213 294.035 422.997 295.18 422.506 296.227V296.227Z" fill="#C7C7C7"/>
<path d="M432.225 296.029C431.842 297.346 431.189 298.578 430.304 299.654C429.419 300.73 428.319 301.629 427.067 302.3C425.874 302.934 425.523 301.466 426.681 300.866C428.298 299.968 429.538 298.565 430.19 296.896C430.299 296.623 430.393 296.345 430.47 296.062C430.749 295.113 430.749 294.109 430.47 293.16C430.37 292.758 430.121 292.403 429.769 292.159V292.159H429.558C429.275 292.063 428.965 292.063 428.681 292.159C428.133 292.328 427.647 292.64 427.278 293.06C426.797 293.52 426.394 294.049 426.085 294.628C425.874 294.928 425.734 295.228 425.558 295.529V295.729L425.383 296.029C425.383 296.029 425.383 296.029 425.383 296.229H423.523C423.928 295.189 424.47 294.203 425.137 293.293C425.647 292.503 426.331 291.828 427.143 291.315C427.955 290.803 428.875 290.464 429.839 290.325C430.537 290.296 431.219 290.521 431.748 290.955C432.276 291.389 432.61 291.999 432.681 292.66C432.818 293.801 432.661 294.957 432.225 296.029V296.029Z" fill="#C7C7C7"/>
<path d="M441.94 295.859C441.151 298.521 439.284 300.777 436.747 302.131C435.59 302.765 435.239 301.297 436.397 300.697C438.013 299.798 439.253 298.396 439.905 296.727C440.015 296.454 440.108 296.175 440.186 295.893C440.446 294.953 440.446 293.964 440.186 293.024C440.087 292.612 439.838 292.246 439.484 291.99V291.99H439.238C438.967 291.893 438.668 291.893 438.396 291.99C437.849 292.158 437.362 292.47 436.993 292.891C436.502 293.363 436.088 293.903 435.765 294.492C435.765 294.759 435.449 295.059 435.239 295.359V295.559C435.225 295.659 435.225 295.76 435.239 295.859C435.239 295.859 435.239 295.859 435.239 296.06H433.484C433.882 295.017 434.425 294.03 435.098 293.124C435.608 292.334 436.292 291.659 437.104 291.146C437.916 290.633 438.836 290.295 439.8 290.155C440.498 290.126 441.18 290.352 441.709 290.786C442.237 291.22 442.571 291.83 442.642 292.49C442.701 293.651 442.46 294.808 441.94 295.859V295.859Z" fill="#C7C7C7"/>
<path d="M451.589 295.628C450.789 298.284 448.924 300.537 446.396 301.899C445.238 302.533 444.887 301.065 446.045 300.465C447.654 299.558 448.891 298.158 449.554 296.495C449.663 296.222 449.757 295.944 449.834 295.661C450.094 294.721 450.094 293.732 449.834 292.792C449.72 292.386 449.475 292.024 449.133 291.758V291.758H448.887C448.6 291.679 448.296 291.679 448.01 291.758C447.472 291.945 446.99 292.254 446.606 292.659C446.128 293.134 445.726 293.673 445.413 294.26C445.217 294.537 445.042 294.827 444.887 295.127V295.327C444.874 295.427 444.874 295.528 444.887 295.628C444.872 295.694 444.872 295.762 444.887 295.828H443.133C443.53 294.785 444.073 293.798 444.747 292.892C445.256 292.102 445.941 291.427 446.753 290.914C447.565 290.401 448.485 290.063 449.448 289.923C450.142 289.895 450.821 290.122 451.344 290.556C451.866 290.991 452.193 291.601 452.255 292.258C452.345 293.418 452.116 294.579 451.589 295.628V295.628Z" fill="#C7C7C7"/>
<path d="M461.346 295.428C460.963 296.744 460.31 297.976 459.425 299.053C458.54 300.129 457.44 301.028 456.189 301.699C455.031 302.333 454.68 300.865 455.838 300.265C456.788 299.765 457.614 299.078 458.261 298.249C458.909 297.421 459.363 296.47 459.592 295.461C459.869 294.523 459.869 293.53 459.592 292.592C459.478 292.177 459.218 291.812 458.855 291.558V291.558H458.61C458.323 291.477 458.019 291.477 457.732 291.558C457.194 291.745 456.712 292.054 456.329 292.459C455.851 292.934 455.448 293.473 455.136 294.06C454.94 294.337 454.764 294.627 454.61 294.927V295.128C454.597 295.227 454.597 295.328 454.61 295.428C454.61 295.428 454.61 295.428 454.61 295.628H452.855C453.231 294.566 453.775 293.564 454.469 292.659C454.973 291.871 455.652 291.197 456.458 290.685C457.264 290.172 458.178 289.832 459.136 289.69C459.833 289.661 460.516 289.887 461.045 290.321C461.573 290.755 461.907 291.365 461.978 292.025C462.101 293.193 461.882 294.37 461.346 295.428V295.428Z" fill="#C7C7C7"/>
<path d="M471.068 295.229C470.685 296.545 470.032 297.777 469.147 298.853C468.262 299.93 467.162 300.829 465.91 301.5C464.717 302.134 464.367 300.666 465.524 300.066C467.133 299.174 468.372 297.784 469.033 296.129C469.033 295.829 469.244 295.529 469.314 295.262C469.574 294.322 469.574 293.333 469.314 292.393C469.186 291.985 468.929 291.623 468.577 291.359V291.359H468.401H468.191C467.903 291.294 467.602 291.294 467.314 291.359C466.776 291.546 466.294 291.855 465.91 292.26C465.429 292.732 465.026 293.272 464.717 293.861C464.521 294.138 464.346 294.428 464.191 294.728V294.928C464.178 295.028 464.178 295.129 464.191 295.229C464.177 295.306 464.177 295.385 464.191 295.462H462.121C462.526 294.412 463.068 293.415 463.735 292.493C464.244 291.703 464.929 291.028 465.741 290.515C466.553 290.002 467.473 289.664 468.437 289.524C469.14 289.496 469.827 289.726 470.357 290.167C470.886 290.608 471.216 291.226 471.279 291.893C471.494 293.005 471.422 294.149 471.068 295.229Z" fill="#C7C7C7"/>
<path d="M467.208 329.62C473.067 342.664 488.47 359.176 489.382 369.651C489.685 372.236 489.109 374.845 487.738 377.096C486.368 379.347 484.276 381.122 481.768 382.161C481.768 382.161 492.54 387.765 491.698 397.406C491.242 402.41 482.505 406.112 482.505 406.112C484.844 407.516 486.734 409.502 487.971 411.854C489.208 414.206 489.744 416.835 489.522 419.456C488.47 426.128 479.874 428.963 479.874 428.963C479.874 428.963 485.663 437.203 482.26 443.808C475.242 457.152 413.281 454.883 404.579 432.8C400.544 422.492 415.666 423.826 415.666 423.826C415.666 423.826 394.404 416.887 394.615 404.711C394.825 392.535 414.333 395.438 414.333 395.438C414.333 395.438 393.878 388.599 395.457 375.922C397.036 362.779 416.087 368.85 416.087 368.85C416.087 368.85 402.65 359.443 406.123 350.036C411.912 334.524 437.209 355.273 450.998 352.705L459.419 331.588L467.208 329.62Z" fill="#FFA698"/>
<path d="M478.858 348.703C474.437 335.893 491.524 320.915 489.173 308.105C485.98 290.758 464.894 306.837 459.35 331.656L458.578 351.672L478.858 348.703Z" fill="#FFA698"/>
<path d="M478.68 429.633C478.726 429.633 478.771 429.65 478.804 429.681C478.837 429.713 478.855 429.755 478.855 429.799C478.855 429.844 478.837 429.886 478.804 429.917C478.771 429.949 478.726 429.966 478.68 429.966C457.266 434.157 435.018 432.051 414.893 423.928C414.262 423.661 414.472 422.561 415.209 422.727C435.9 427.955 457.282 430.282 478.68 429.633V429.633Z" fill="#263238"/>
<path d="M482.82 406.278C483.065 406.278 483.065 406.645 482.82 406.678C459.167 411.078 434.639 407.292 413.665 396.004C412.928 395.57 412.718 394.536 413.665 394.936C428.191 401.975 462.75 407.145 482.82 406.278Z" fill="#263238"/>
<path d="M414.752 367.583C435.382 378.458 457.592 381.927 480.924 382.394C481.205 382.394 481.17 382.795 480.924 382.861C469.451 385.597 454.61 383.829 443.172 381.527C432.51 379.542 422.58 374.943 414.366 368.183C414.05 368.017 414.331 367.349 414.752 367.583Z" fill="#263238"/>
<path d="M182.304 228.742C183.181 232.312 210.373 254.929 227.67 254.162C233.249 253.928 223.635 225.473 223.635 225.473L224.162 223.338L231.179 193.315L194.163 170.664L188.795 167.662C188.795 167.662 187.427 176.002 185.848 186.377C185.848 186.844 185.848 187.344 185.602 187.844C185.357 188.345 185.392 188.979 185.322 189.546C185.041 191.08 184.795 192.681 184.585 194.249C184.374 195.817 184.234 196.618 184.094 197.885C183.953 199.153 183.778 200.387 183.602 201.655C182.512 210.645 182.078 219.696 182.304 228.742V228.742Z" fill="#FFA698"/>
<path d="M185.922 186.377C189.097 194.805 194.162 202.477 200.766 208.859C207.369 215.241 215.354 220.182 224.166 223.338L231.183 193.315L194.167 170.664L188.799 167.662C188.799 167.662 187.501 176.002 185.922 186.377Z" fill="#263238"/>
<path d="M279.954 155.754C275.708 209.562 241.359 213.232 229.114 212.465C218.062 211.664 180.45 207.594 178.801 153.653C177.152 99.711 204.834 84.566 230.272 85.1331C255.709 85.7002 284.164 101.913 279.954 155.754Z" fill="#FFA698"/>
<path d="M180.307 149.915C193.604 152.084 196.938 132.068 196.938 132.068C196.938 132.068 212.305 133.069 217.393 110.018C219.54 115.14 222.907 119.718 227.229 123.393C231.552 127.069 236.712 129.741 242.304 131.201C246.549 132.469 233.813 119.525 233.813 119.525C233.813 119.525 248.689 137.239 282.056 136.539C284.407 136.539 285.073 103.18 261.566 88.2347C238.058 73.2899 214.059 75.992 195.745 88.8018C190.888 90.3431 186.505 92.9961 182.981 96.5272C179.457 100.058 176.9 104.359 175.535 109.051C170.588 125.73 175.114 149.082 180.307 149.915Z" fill="#263238"/>
<path d="M188.446 154.687C188.446 154.687 178.973 136.172 170.341 139.074C161.71 141.977 166.833 167.53 175.499 172.434C176.58 173.115 177.795 173.581 179.071 173.803C180.347 174.026 181.657 174.001 182.922 173.73C184.187 173.459 185.382 172.947 186.434 172.226C187.485 171.504 188.373 170.588 189.042 169.531L188.446 154.687Z" fill="#FFA698"/>
<path d="M171.957 146.347C171.957 146.347 171.746 146.347 171.957 146.58C178.062 150.116 180.518 156.388 181.886 162.759C181.617 162.077 181.195 161.459 180.649 160.948C180.103 160.437 179.446 160.045 178.725 159.801C178.003 159.556 177.234 159.464 176.471 159.532C175.708 159.599 174.97 159.824 174.308 160.191C174.097 160.191 174.308 160.558 174.308 160.524C175.519 160.359 176.755 160.552 177.847 161.077C178.939 161.602 179.835 162.434 180.413 163.46C181.345 165.183 182.085 166.995 182.623 168.864C182.833 169.464 183.956 169.331 183.816 168.664V168.497C185.36 160.624 180.763 148.548 171.957 146.347Z" fill="#263238"/>
<path d="M270.022 145.145C268.724 144.811 267.566 144.311 266.513 143.877C265.147 143.608 263.914 142.916 263.005 141.909C262.784 141.538 262.699 141.107 262.763 140.685C262.826 140.263 263.035 139.872 263.356 139.574C264.081 139.081 264.932 138.782 265.82 138.705C266.708 138.629 267.601 138.779 268.408 139.14C270.165 139.628 271.667 140.723 272.618 142.209C272.842 142.572 272.942 142.992 272.905 143.411C272.868 143.829 272.695 144.227 272.41 144.549C272.126 144.871 271.743 145.101 271.316 145.208C270.888 145.314 270.436 145.292 270.022 145.145Z" fill="#263238"/>
<path d="M233.78 139.975C235.047 139.96 236.311 139.882 237.569 139.741C238.955 139.836 240.336 139.496 241.499 138.774C241.82 138.476 242.029 138.085 242.092 137.663C242.155 137.241 242.07 136.81 241.85 136.439C241.298 135.769 240.568 135.252 239.735 134.941C238.902 134.63 237.997 134.537 237.113 134.671C235.292 134.675 233.539 135.33 232.201 136.505C231.899 136.794 231.695 137.162 231.616 137.562C231.536 137.962 231.584 138.375 231.754 138.749C231.924 139.122 232.208 139.439 232.569 139.657C232.93 139.876 233.352 139.986 233.78 139.975V139.975Z" fill="#263238"/>
<path d="M239.814 154.586C239.814 154.419 239.498 154.586 239.463 154.853C239.147 158.522 238.129 162.659 234.48 163.493V163.693C238.796 163.593 240.129 158.089 239.814 154.586Z" fill="#263238"/>
<path d="M236.87 150.384C230.73 149.249 228.8 160.958 234.484 162.026C240.168 163.093 241.992 151.351 236.87 150.384Z" fill="#263238"/>
<path d="M234.338 150.648C233.145 151.149 231.882 152.149 230.584 152.083C229.286 152.016 228.128 150.581 227.356 149.28C227.356 149.28 227.145 149.28 227.11 149.28C226.689 151.515 227.11 153.951 229.707 154.651C232.303 155.352 233.952 153.584 234.899 151.315C235.075 151.115 234.829 150.448 234.338 150.648Z" fill="#263238"/>
<path d="M260.62 157.488C260.62 157.488 260.866 157.688 260.866 157.822C260.094 161.458 259.884 165.694 263.112 167.429C263.112 167.429 263.112 167.663 263.112 167.629C258.936 166.428 259.287 160.757 260.62 157.488Z" fill="#263238"/>
<path d="M264.69 154.219C270.9 154.753 269.321 166.529 263.567 166.029C257.813 165.528 259.462 153.786 264.69 154.219Z" fill="#263238"/>
<path d="M267.144 155.319C268.056 156.053 268.863 157.287 270.021 157.521C271.178 157.754 272.547 156.587 273.529 155.486C273.529 155.486 273.74 155.486 273.529 155.486C273.284 157.754 272.196 160.022 270.021 160.156C267.845 160.289 266.512 158.188 266.512 155.886C266.372 155.753 266.793 155.019 267.144 155.319Z" fill="#263238"/>
<path d="M235.113 183.909C235.815 184.909 236.481 186.244 237.815 186.611C239.226 186.89 240.683 186.89 242.095 186.611C242.095 186.611 242.306 186.611 242.095 186.844C241.396 187.439 240.543 187.845 239.624 188.021C238.705 188.197 237.753 188.136 236.867 187.845C236.13 187.508 235.516 186.969 235.103 186.297C234.691 185.625 234.499 184.852 234.552 184.075C234.692 183.775 235.008 183.742 235.113 183.909Z" fill="#263238"/>
<path d="M249.464 179.638C247.814 181.283 245.749 182.501 243.465 183.174C242.222 183.557 240.883 183.557 239.64 183.174C236.974 182.207 237.149 179.838 237.886 177.803C238.287 176.747 238.817 175.74 239.465 174.801C242.171 177.385 245.674 179.08 249.464 179.638Z" fill="#263238"/>
<path d="M243.465 183.176C242.222 183.558 240.883 183.558 239.64 183.176C236.974 182.208 237.149 179.84 237.886 177.805C239.308 177.992 240.625 178.62 241.633 179.591C242.642 180.562 243.285 181.822 243.465 183.176V183.176Z" fill="#FF9CBD"/>
<path d="M279.042 102.379C272.516 100.911 236.237 101.912 219.922 108.584C203.607 115.256 174.661 137.573 173.187 138.607C171.714 139.641 164.24 82.8973 212.729 72.5226C265.639 61.4141 279.042 102.379 279.042 102.379Z" fill="#66C1A7"/>
<path d="M175.961 136.472C175.961 136.472 208.029 96.4408 225.853 87.0669C243.677 77.693 283.57 72.6892 308.235 83.0304C327.497 91.0699 280.517 114.621 280.517 114.621C280.085 112.682 279.181 110.866 277.877 109.319C276.573 107.772 274.906 106.538 273.009 105.715C261.009 101.178 238.203 104.68 225.187 108.817C208.836 114.121 175.961 136.472 175.961 136.472Z" fill="#66C1A7"/>
<path opacity="0.2" d="M175.961 136.472C175.961 136.472 208.029 96.4408 225.853 87.0669C243.677 77.693 283.57 72.6892 308.235 83.0304C327.497 91.0699 280.517 114.621 280.517 114.621C280.085 112.682 279.181 110.866 277.877 109.319C276.573 107.772 274.906 106.538 273.009 105.715C261.009 101.178 238.203 104.68 225.187 108.817C208.836 114.121 175.961 136.472 175.961 136.472Z" fill="black"/>
<path d="M223.53 225.407L215.881 250.059L181.812 222.838L173.988 233.246C173.988 233.246 209.074 278.281 209.074 276.079L217.319 254.696L233.599 267.606L228.828 231.945L223.53 225.407Z" fill="#66C1A7"/>
<path d="M232.48 249.824C231.462 243.986 230.655 238.049 229.357 232.244C229.357 232.044 228.971 231.977 228.936 232.244C228.269 238.049 232.199 260.466 232.725 265.87C232.024 265.303 217.673 254.595 217.568 254.795C215.674 258.131 209.604 273.843 209.218 275.244C203.639 268.072 182.482 242.185 176.097 235.513C176.064 235.469 176.014 235.439 175.958 235.43C175.902 235.42 175.845 235.432 175.798 235.463C175.752 235.494 175.72 235.542 175.71 235.595C175.7 235.648 175.713 235.703 175.746 235.747C180.798 243.386 208.867 278.313 209.218 278.179C212.497 270.788 215.367 263.239 217.814 255.562C220.305 257.964 234.936 270.207 234.901 269.306C234.515 263.268 233.462 255.829 232.48 249.824Z" fill="#263238"/>
</svg>
